<svg width="187" height="181" viewBox="0 0 187 181" fill="none" xmlns="http://www.w3.org/2000/svg">
<g style="mix-blend-mode:soft-light">
<path d="M26.7019 30.1078L152.082 46.6153L159.259 174.749C159.259 174.749 122.208 174.721 98.7505 171.633C17.3337 160.913 1.5821 146.613 1.5821 146.613C17.6531 80.2648 18.8045 79.043 26.7019 30.1078Z" fill="#2C2617" fill-opacity="0.7"/>
</g>
<path d="M13.8281 140.947C12.1934 133.905 25.3878 45.0404 32.1892 1.48836L186.123 28.1557C184.058 30.8707 169.819 130.372 162.957 179.783C64.4171 169.369 22.4794 149.554 13.8281 140.947Z" fill="#E0919D"/>
<path d="M53.3268 31.8683C52.7288 32.8849 52.0502 33.9402 51.2908 35.0343C50.5484 36.1162 49.6985 37.1732 48.7413 38.205C48.4696 38.5022 48.1962 38.6283 47.9212 38.5831C47.7475 38.5546 47.6088 38.4947 47.5049 38.4033C47.4033 38.2974 47.3199 38.1722 47.2544 38.0277C46.9732 37.387 46.7341 36.7161 46.5371 36.0149C46.3401 35.3137 46.1647 34.5269 46.0107 33.6544C45.4697 34.3236 44.877 34.9917 44.2324 35.6587C43.6022 36.3281 42.9297 36.9385 42.2149 37.49C42.0778 37.6012 41.9405 37.6678 41.8031 37.6899C41.6802 37.7143 41.5837 37.7133 41.5138 37.6869C41.217 37.5936 41.009 37.3663 40.89 37.0049C40.5185 35.9183 40.3374 34.7589 40.3465 33.5268C40.3556 32.2947 40.4563 31.0478 40.6486 29.7863C40.6676 29.6705 40.7301 29.5619 40.8359 29.4604C40.9418 29.3588 41.0803 29.3296 41.2516 29.3726C41.5098 29.4298 41.6957 29.5644 41.8096 29.7763C41.9258 29.9738 41.977 30.2051 41.9631 30.4704C41.9327 30.837 41.9011 31.2554 41.8685 31.7256C41.8382 32.1814 41.82 32.6541 41.814 33.1435C41.8079 33.633 41.8259 34.1116 41.868 34.5793C41.9101 35.047 41.9907 35.4615 42.1097 35.8229C42.3719 35.5835 42.6534 35.3176 42.9541 35.0252C43.2548 34.7327 43.5507 34.4246 43.8417 34.1008C44.1471 33.7794 44.4381 33.4556 44.7146 33.1294C44.9935 32.7888 45.2495 32.4518 45.4826 32.1185C45.6388 31.8915 45.8096 31.756 45.9952 31.7122C46.1808 31.6684 46.3242 31.6547 46.4255 31.6714C46.8597 31.7427 47.1219 32.0013 47.2122 32.4471C47.3584 33.0954 47.4987 33.7798 47.633 34.5005C47.7818 35.2235 47.9583 35.9138 48.1624 36.5716C48.4894 36.2092 48.832 35.7972 49.1902 35.3358C49.5484 34.8745 49.9005 34.4046 50.2466 33.9264C50.595 33.4337 50.929 32.9386 51.2485 32.4411C51.5825 31.946 51.8828 31.4751 52.1493 31.0284C52.2502 30.8666 52.397 30.7421 52.5897 30.6549C52.7824 30.5676 52.9693 30.6057 53.1506 30.7693C53.2931 30.8967 53.3744 31.081 53.3942 31.322C53.4309 31.551 53.4085 31.7331 53.3268 31.8683ZM57.014 31.2031C56.957 31.5504 56.8855 31.94 56.7998 32.3718C56.7285 32.806 56.6548 33.2546 56.5787 33.7178C56.5172 34.1833 56.446 34.6621 56.3651 35.1541C56.2988 35.6486 56.236 36.1213 56.1768 36.5724C56.3691 36.3067 56.5891 36.053 56.8369 35.8113C57.087 35.5551 57.353 35.3387 57.6347 35.162C57.9308 34.9877 58.2271 34.858 58.5235 34.7729C58.8343 34.6901 59.1562 34.6761 59.489 34.7308C59.8509 34.7902 60.1503 34.9583 60.3872 35.235C60.6386 35.5141 60.8336 35.8657 60.972 36.2897C61.1273 36.7016 61.2381 37.1583 61.3044 37.6597C61.3731 38.1466 61.4104 38.6432 61.4165 39.1495C61.4393 39.6438 61.4356 40.1188 61.4054 40.5746C61.3775 41.0159 61.3519 41.3981 61.3285 41.7213C61.2905 41.9528 61.2017 42.1315 61.0622 42.2572C60.9226 42.3829 60.7733 42.4327 60.6141 42.4065C60.4983 42.3875 60.3654 42.2914 60.2155 42.1181C60.0825 41.9328 59.9976 41.7256 59.9609 41.4967C59.946 41.3159 59.9441 41.0555 59.9554 40.7154C59.9666 40.3754 59.9742 40.0125 59.9781 39.6267C59.9844 39.2265 59.9762 38.8238 59.9535 38.4188C59.9309 38.0138 59.8794 37.6486 59.799 37.3233C59.7355 36.9859 59.6312 36.7161 59.4861 36.5139C59.3409 36.3117 59.149 36.2133 58.9103 36.2186C58.5366 36.2316 58.1766 36.4326 57.8303 36.8216C57.4985 37.213 57.1861 37.6671 56.8932 38.1838C56.6147 38.7028 56.364 39.2339 56.1411 39.7769C55.9326 40.3224 55.7709 40.764 55.6559 41.1018C55.5553 41.3528 55.446 41.5207 55.328 41.6053C55.2269 41.6779 55.1185 41.7047 55.0027 41.6857C54.8869 41.6667 54.7879 41.591 54.7056 41.4585C54.6378 41.3285 54.5735 41.1767 54.5128 41.0033C54.469 40.8177 54.4324 40.6334 54.403 40.4502C54.376 40.2525 54.366 40.0874 54.3729 39.9547C54.4289 39.1613 54.4934 38.4065 54.5664 37.6902C54.6418 36.9594 54.7245 36.2298 54.8144 35.5014C54.9187 34.7754 55.0327 34.0361 55.1563 33.2835C55.2823 32.5165 55.431 31.7011 55.6026 30.8375C55.7214 30.1139 56.0354 29.831 56.5445 29.9889C56.7135 30.0464 56.844 30.2016 56.9363 30.4546C57.0309 30.6931 57.0568 30.9426 57.014 31.2031ZM70.0634 34.9736C70.0547 35.3883 70.0268 35.8296 69.9797 36.2975C69.9494 36.7533 69.9035 37.2139 69.8419 37.6794C69.7948 38.1473 69.7356 38.5984 69.6643 39.0325C69.593 39.4667 69.5216 39.8563 69.4501 40.2013C69.8609 40.5957 70.0896 40.9231 70.136 41.1834C70.1969 41.4461 70.1757 41.6655 70.0725 41.8418C69.9429 42.0881 69.7611 42.1994 69.5271 42.1759C69.31 42.1402 69.0698 42.019 68.8065 41.8123C68.5801 41.9237 68.3224 42.0449 68.0334 42.1758C67.7467 42.2922 67.4456 42.4063 67.13 42.5179C66.8168 42.6151 66.5059 42.6978 66.1975 42.7661C65.889 42.8343 65.6082 42.87 65.355 42.873C64.88 42.8693 64.4746 42.7135 64.1387 42.4057C63.8173 42.1002 63.6318 41.6908 63.5824 41.1773C63.5502 40.8302 63.5843 40.4865 63.6848 40.1463C63.7876 39.7916 63.952 39.4693 64.178 39.1794C64.4063 38.8751 64.6866 38.6164 65.0189 38.4034C65.3656 38.1928 65.7534 38.0484 66.1824 37.9703C66.2909 37.9435 66.4343 37.9299 66.6127 37.9294C66.8056 37.9314 66.995 37.9551 67.1807 38.0004C67.3834 38.0337 67.58 38.1032 67.7708 38.2088C67.9615 38.3144 68.1295 38.4684 68.2746 38.6705C68.315 38.4245 68.3518 38.1556 68.3848 37.8637C68.4347 37.5598 68.4774 37.2547 68.5128 36.9484C68.5483 36.6421 68.5729 36.3563 68.5868 36.091C68.6174 35.8137 68.6338 35.5785 68.6357 35.3856C68.6424 35.1638 68.577 35.0193 68.4394 34.9521C68.3186 34.8728 68.151 34.8527 67.9365 34.8918C67.5701 34.9506 67.1281 35.1083 66.6103 35.3652C66.0925 35.622 65.5928 35.9041 65.1113 36.2114C64.9597 36.3203 64.7982 36.3532 64.6269 36.3102C64.4701 36.2696 64.3433 36.1819 64.2465 36.0471C64.1497 35.9123 64.106 35.7714 64.1153 35.6243C64.127 35.4627 64.2122 35.3058 64.371 35.1535C64.6598 34.9334 64.9787 34.7108 65.3278 34.4857C65.6769 34.2606 66.0357 34.0669 66.4042 33.9045C66.7751 33.7276 67.1461 33.5953 67.5173 33.5076C67.8884 33.4199 68.2488 33.3973 68.5985 33.4399C69.1074 33.5086 69.4792 33.6886 69.7138 33.9798C69.9507 34.2565 70.0673 34.5878 70.0634 34.9736ZM66.7786 39.2275C66.5833 39.24 66.3652 39.3008 66.1244 39.4099C65.9004 39.5069 65.6849 39.6424 65.4779 39.8165C65.2878 39.9785 65.1292 40.1754 65.0019 40.4072C64.8915 40.6268 64.8535 40.8584 64.8879 41.1019C64.9025 41.1935 64.9497 41.2681 65.0294 41.3258C65.1236 41.3858 65.231 41.4109 65.3515 41.401C65.7107 41.3856 66.1241 41.3123 66.5916 41.181C67.0759 41.0376 67.4685 40.8642 67.7694 40.661C67.7836 40.5741 67.7581 40.4585 67.6926 40.314C67.6295 40.155 67.5508 40.0008 67.4564 39.8516C67.3644 39.6878 67.2543 39.5434 67.1263 39.4183C67.0126 39.2956 66.8967 39.232 66.7786 39.2275ZM77.4363 38.4584C77.7137 38.4891 77.978 38.5994 78.2292 38.7893C78.4804 38.9791 78.5811 39.2261 78.5312 39.53C78.4618 39.7713 78.2982 39.9079 78.0403 39.9398C77.7992 39.9597 77.6063 39.9578 77.4616 39.934C77.1721 39.8865 76.8597 39.8426 76.5245 39.8024C76.1892 39.7622 75.8456 39.7281 75.4935 39.7C75.3861 40.1728 75.2835 40.6167 75.1856 41.0317C75.1022 41.449 75.0259 41.8229 74.9568 42.1534C74.89 42.4695 74.84 42.7288 74.8067 42.9314C74.7735 43.134 74.7629 43.2438 74.775 43.2606C75.1029 43.255 75.4584 43.2168 75.8416 43.1459C76.2417 43.063 76.6357 42.9717 77.0237 42.8719C77.4285 42.76 77.8188 42.6457 78.1947 42.5291C78.5874 42.4004 78.9561 42.2826 79.3006 42.1756C79.4572 42.127 79.591 42.1267 79.7021 42.1747C79.8276 42.225 79.8965 42.3032 79.9088 42.4093C79.9116 42.5732 79.8578 42.7651 79.7474 42.9847C79.637 43.2044 79.4723 43.3929 79.2532 43.5501C79.0076 43.6882 78.6849 43.8432 78.285 44.0154C77.902 44.1754 77.4913 44.3235 77.0528 44.4596C76.6143 44.5956 76.1721 44.7088 75.7262 44.7991C75.2972 44.8773 74.9211 44.9047 74.598 44.8813C74.1133 44.8463 73.7728 44.6567 73.5767 44.3123C73.3806 43.968 73.3061 43.5619 73.3532 43.094C73.4003 42.6261 73.481 42.0894 73.5953 41.484C73.724 40.8808 73.8588 40.2416 73.9994 39.5661C73.7197 39.5499 73.4472 39.5349 73.1819 39.521C72.9335 39.4951 72.6911 39.4776 72.4548 39.4685C72.2667 39.4376 72.0639 39.3597 71.8466 39.2349C71.6438 39.1124 71.5626 38.9281 71.603 38.6821C71.6173 38.5952 71.6724 38.4854 71.7686 38.3525C71.8647 38.2197 72.0417 38.1373 72.2997 38.1053C72.9097 38.1015 73.5825 38.1228 74.318 38.1693C74.4731 37.4962 74.6319 36.846 74.7944 36.2187C74.9568 35.5914 75.1026 35.0208 75.2315 34.5069C75.2745 34.3356 75.3501 34.1919 75.4584 34.0759C75.5666 33.96 75.6714 33.9103 75.7727 33.9269C76.0211 33.9528 76.242 34.056 76.4353 34.2364C76.6455 34.4047 76.7363 34.5756 76.7078 34.7493C76.5691 35.2319 76.4197 35.7796 76.2596 36.3924C76.114 37.0076 75.966 37.6373 75.8156 38.2814C76.1098 38.3 76.3872 38.3307 76.6477 38.3735C76.925 38.4042 77.1879 38.4325 77.4363 38.4584ZM93.2769 41.305C93.1661 41.3462 93.0395 41.3478 92.8972 41.3095C92.7572 41.2568 92.6496 41.1425 92.5744 40.9667C92.3928 40.6247 92.1355 40.4264 91.8026 40.3718C91.4987 40.3218 91.2119 40.3491 90.942 40.4534C90.6891 40.5456 90.4495 40.6921 90.2234 40.8927C90.014 41.0813 89.8289 41.3036 89.668 41.5595C89.507 41.8155 89.3823 42.0774 89.2937 42.3453C89.1381 42.8399 89.1549 43.2811 89.3438 43.6689C89.5328 44.0566 89.8879 44.2933 90.4089 44.3789C90.8262 44.4623 91.3096 44.4599 91.8592 44.3718C92.4256 44.2716 92.9641 44.1148 93.4748 43.9014C93.6917 43.8478 93.8881 43.8281 94.0642 43.8421C94.2402 43.8562 94.3707 43.9668 94.4556 44.1739C94.5623 44.4293 94.4869 44.6621 94.2294 44.8725C93.9743 45.0684 93.6503 45.2307 93.2576 45.3595C92.8625 45.5027 92.4493 45.6206 92.0179 45.7132C91.6034 45.7938 91.1875 45.837 90.7704 45.8428C90.3557 45.8341 89.9504 45.7676 89.5547 45.6432C89.1734 45.5211 88.827 45.323 88.5153 45.0489C88.0271 44.5822 87.7822 43.9921 87.7805 43.2784C87.7788 42.5647 87.9471 41.8566 88.2854 41.1541C88.4174 40.8934 88.5855 40.6386 88.7899 40.3898C88.9966 40.1265 89.2276 39.8969 89.4827 39.7009C89.7523 39.5074 90.0376 39.3536 90.3388 39.2396C90.6423 39.1111 90.9652 39.0452 91.3076 39.042C91.8574 39.0431 92.3616 39.1853 92.8204 39.4688C93.2816 39.7377 93.549 40.1458 93.6227 40.6929C93.6326 40.8135 93.6124 40.9365 93.5621 41.062C93.5141 41.173 93.419 41.254 93.2769 41.305ZM102.413 40.2861C102.405 40.7009 102.377 41.1422 102.33 41.6101C102.3 42.0658 102.254 42.5265 102.192 42.992C102.145 43.4599 102.086 43.9109 102.014 44.3451C101.943 44.7793 101.872 45.1689 101.8 45.5138C102.211 45.9083 102.44 46.2357 102.486 46.496C102.547 46.7586 102.526 46.9781 102.423 47.1544C102.293 47.4006 102.111 47.512 101.877 47.4884C101.66 47.4528 101.42 47.3316 101.157 47.1248C100.93 47.2363 100.673 47.3575 100.384 47.4884C100.097 47.6048 99.7957 47.7188 99.4801 47.8305C99.1669 47.9277 98.8561 48.0104 98.5476 48.0786C98.2391 48.1469 97.9583 48.1825 97.7051 48.1855C97.2301 48.1818 96.8247 48.0261 96.4888 47.7182C96.1674 47.4128 95.9819 47.0033 95.9325 46.4899C95.9003 46.1427 95.9345 45.7991 96.0349 45.4588C96.1378 45.1041 96.3022 44.7819 96.5281 44.492C96.7565 44.1876 97.0368 43.929 97.369 43.716C97.7157 43.5054 98.1036 43.361 98.5326 43.2828C98.641 43.256 98.7844 43.2424 98.9629 43.242C99.1558 43.244 99.3451 43.2676 99.5309 43.313C99.7335 43.3463 99.9302 43.4157 100.121 43.5214C100.312 43.627 100.48 43.7809 100.625 43.9831C100.665 43.7371 100.702 43.4681 100.735 43.1763C100.785 42.8724 100.828 42.5673 100.863 42.261C100.898 41.9546 100.923 41.6689 100.937 41.4036C100.968 41.1262 100.984 40.8911 100.986 40.6982C100.993 40.4764 100.927 40.3318 100.789 40.2647C100.669 40.1854 100.501 40.1653 100.287 40.2044C99.9203 40.2631 99.4782 40.4209 98.9604 40.6777C98.4426 40.9345 97.9429 41.2166 97.4614 41.524C97.3098 41.6329 97.1483 41.6658 96.977 41.6228C96.8202 41.5822 96.6934 41.4945 96.5966 41.3597C96.4999 41.2249 96.4561 41.0839 96.4654 40.9368C96.4771 40.7752 96.5623 40.6183 96.7211 40.466C97.0099 40.2459 97.3289 40.0233 97.6779 39.7983C98.027 39.5732 98.3858 39.3794 98.7544 39.217C99.1253 39.0401 99.4963 38.9078 99.8674 38.8201C100.239 38.7325 100.599 38.7099 100.949 38.7525C101.458 38.8212 101.829 39.0011 102.064 39.2923C102.301 39.5691 102.417 39.9003 102.413 40.2861ZM99.1287 44.54C98.9334 44.5526 98.7154 44.6134 98.4745 44.7224C98.2505 44.8194 98.035 44.955 97.8281 45.1291C97.638 45.2911 97.4793 45.488 97.3521 45.7197C97.2417 45.9394 97.2036 46.171 97.238 46.4144C97.2527 46.506 97.2999 46.5806 97.3796 46.6383C97.4737 46.6984 97.5811 46.7234 97.7016 46.7135C98.0609 46.6982 98.4742 46.6249 98.9417 46.4936C99.426 46.3501 99.8186 46.1768 100.12 45.9735C100.134 45.8867 100.108 45.771 100.043 45.6265C99.9797 45.4675 99.9009 45.3134 99.8065 45.1641C99.7145 45.0004 99.6045 44.856 99.4764 44.7309C99.3628 44.6082 99.2469 44.5446 99.1287 44.54ZM106.469 41.8439C106.477 42.0681 106.48 42.3213 106.478 42.6034C106.493 42.8734 106.506 43.1579 106.516 43.4569C106.529 43.7413 106.533 44.0319 106.529 44.3285C106.525 44.6251 106.516 44.906 106.502 45.1712C106.738 44.8235 106.991 44.4564 107.263 44.0699C107.534 43.6835 107.814 43.3356 108.103 43.0263C108.408 42.7049 108.71 42.4498 109.009 42.261C109.322 42.0746 109.638 42.0075 109.956 42.0598C110.434 42.1383 110.803 42.3773 111.064 42.7769C111.34 43.1789 111.544 43.6583 111.675 44.215C111.824 44.7595 111.917 45.3247 111.954 45.9106C111.992 46.4964 112.019 47.0135 112.034 47.462C112.057 47.867 111.835 48.1279 111.37 48.2448C111.151 48.3128 110.997 48.3023 110.907 48.2133C110.818 48.1243 110.772 48.0425 110.769 47.9677C110.726 47.7822 110.681 47.4628 110.637 47.0096C110.607 46.5588 110.556 46.0971 110.485 45.6247C110.429 45.1547 110.341 44.7389 110.222 44.3776C110.103 44.0162 109.932 43.8321 109.711 43.8254C109.448 43.7971 109.184 43.9544 108.92 44.2975C108.696 44.5729 108.459 44.8833 108.209 45.2287C107.976 45.562 107.741 45.9097 107.503 46.272C107.268 46.6198 107.031 46.9748 106.793 47.337C106.572 47.6872 106.363 48.0096 106.166 48.3042C106.048 48.3889 105.906 48.4398 105.74 48.4571C105.59 48.4623 105.441 48.4229 105.291 48.3388C105.153 48.2716 105.049 48.1803 104.979 48.0647C104.909 47.9491 104.882 47.8407 104.899 47.7394C104.954 46.5891 104.985 45.539 104.993 44.5889C105.014 43.6413 104.996 42.6648 104.939 41.6595C104.892 41.3099 104.913 41.0459 105.002 40.8672C105.107 40.6765 105.338 40.6325 105.692 40.7354C106.185 40.9054 106.443 41.2749 106.469 41.8439ZM122.856 49.9973C122.861 50.0575 122.854 50.1456 122.835 50.2613C122.819 50.3626 122.779 50.4676 122.717 50.5763C122.657 50.6705 122.576 50.7538 122.475 50.8264C122.391 50.8869 122.276 50.9052 122.132 50.8815C121.846 50.6266 121.623 50.3149 121.46 49.9463C121.416 49.4931 121.389 48.976 121.381 48.3949C121.386 47.8162 121.41 47.2182 121.452 46.6008C121.497 45.969 121.557 45.3323 121.632 44.6907C121.722 44.0515 121.823 43.4365 121.935 42.8454C121.952 42.7441 121.981 42.6151 122.021 42.4582C122.076 42.3038 122.145 42.159 122.226 42.0237C122.31 41.874 122.404 41.7557 122.508 41.6686C122.613 41.5671 122.746 41.5294 122.905 41.5556C123.093 41.5865 123.236 41.6693 123.332 41.8041C123.429 41.9389 123.456 42.1366 123.413 42.3971C123.304 42.9736 123.202 43.5959 123.107 44.2641C123.029 44.9201 122.964 45.5857 122.913 46.261C122.861 46.9362 122.827 47.5994 122.809 48.2505C122.808 48.8894 122.824 49.4717 122.856 49.9973ZM137.044 42.9188C137.044 42.6512 137.097 42.4148 137.205 42.2096C137.328 42.0067 137.514 41.911 137.765 41.9225C137.987 41.9292 138.166 42.018 138.301 42.1889C138.451 42.3621 138.529 42.5681 138.534 42.8068C138.55 44.5187 138.546 46.2198 138.521 47.9101C138.513 49.5883 138.481 51.2328 138.424 52.8436C138.413 53.2728 138.337 53.5575 138.195 53.6977C138.055 53.8234 137.9 53.9094 137.729 53.9556C137.543 53.9995 137.377 53.9721 137.229 53.8736C137.097 53.7775 137.024 53.6318 137.011 53.4365L137.011 53.3027L136.921 53.3102C136.415 53.4054 135.899 53.4247 135.373 53.3681C134.849 53.297 134.361 53.1499 133.907 52.9267C133.453 52.7036 133.064 52.4019 132.74 52.0217C132.433 51.6294 132.241 51.1669 132.165 50.6342C132.001 49.4628 132.385 48.4853 133.316 47.7019C133.711 47.3802 134.179 47.1079 134.721 46.8847C135.263 46.6616 135.895 46.5203 136.619 46.4607L137.024 46.438L137.044 42.9188ZM133.579 50.3089C133.609 50.6705 133.724 50.9644 133.925 51.1906C134.125 51.4168 134.379 51.5922 134.685 51.7169C134.994 51.827 135.333 51.8901 135.702 51.9061C136.071 51.9221 136.439 51.9008 136.805 51.842L137.011 51.809L137.031 47.8883L136.579 47.9256C136.261 47.9625 135.912 48.0465 135.534 48.1776C135.173 48.2966 134.842 48.4578 134.541 48.661C134.24 48.8643 133.992 49.106 133.797 49.3861C133.617 49.6687 133.544 49.9763 133.579 50.3089ZM145.999 47.9119C146.407 48.1424 146.729 48.4406 146.967 48.8066C147.218 49.1749 147.39 49.5747 147.483 50.0061C147.578 50.423 147.598 50.8425 147.544 51.2646C147.504 51.6891 147.396 52.0727 147.221 52.4155C146.995 52.7946 146.727 53.1593 146.417 53.5097C146.107 53.8601 145.768 54.1611 145.399 54.4127C145.031 54.6643 144.629 54.851 144.193 54.9726C143.757 55.0942 143.292 55.1145 142.8 55.0337C142.207 54.9363 141.73 54.7168 141.37 54.3753C141.01 54.0337 140.75 53.6269 140.59 53.1547C140.429 52.6824 140.358 52.1654 140.376 51.6036C140.409 51.0441 140.513 50.4965 140.691 49.9608C140.815 49.5651 140.973 49.1897 141.165 48.8348C141.374 48.4678 141.611 48.1574 141.876 47.9036C142.143 47.6354 142.429 47.4297 142.735 47.2867C143.055 47.1461 143.396 47.1055 143.758 47.1649C143.961 47.1982 144.207 47.2832 144.497 47.42C144.789 47.5423 145.053 47.6971 145.29 47.8847C145.506 47.7419 145.743 47.751 145.999 47.9119ZM144.914 49.3612C144.771 49.2337 144.604 49.0726 144.413 48.8777C144.239 48.6708 144.073 48.5542 143.913 48.5281C143.74 48.4996 143.553 48.5507 143.353 48.6813C143.168 48.8144 142.992 48.9788 142.826 49.1745C142.677 49.3581 142.541 49.5513 142.419 49.7541C142.296 49.957 142.21 50.1211 142.16 50.2466C142.081 50.4566 142.009 50.7124 141.944 51.0139C141.88 51.3155 141.852 51.623 141.86 51.9364C141.87 52.2354 141.935 52.5209 142.054 52.7931C142.189 53.0532 142.415 53.2612 142.731 53.4172C142.925 53.5084 143.163 53.5476 143.448 53.5348C143.735 53.5076 144.023 53.4286 144.312 53.2977C144.615 53.1692 144.906 52.9792 145.186 52.7278C145.479 52.4787 145.722 52.1768 145.914 51.8219C146.128 51.4259 146.199 50.9917 146.128 50.5193C146.074 50.0348 145.853 49.6567 145.467 49.3852C145.354 49.4409 145.247 49.4605 145.145 49.4438C145.044 49.4272 144.967 49.3997 144.914 49.3612ZM41.6024 55.8818C41.8798 55.9125 42.1441 56.0228 42.3953 56.2127C42.6465 56.4026 42.7472 56.6495 42.6973 56.9534C42.6279 57.1947 42.4643 57.3313 42.2064 57.3633C41.9653 57.3831 41.7724 57.3812 41.6277 57.3574C41.3382 57.3099 41.0258 57.266 40.6906 57.2258C40.3553 57.1856 40.0117 57.1515 39.6596 57.1234C39.5522 57.5962 39.4496 58.0401 39.3517 58.4551C39.2683 58.8724 39.192 59.2463 39.1229 59.5768C39.0561 59.8929 39.0061 60.1522 38.9728 60.3548C38.9396 60.5574 38.929 60.6672 38.9411 60.684C39.269 60.6784 39.6245 60.6402 40.0077 60.5693C40.4078 60.4864 40.8018 60.3951 41.1898 60.2953C41.5946 60.1834 41.9849 60.0691 42.3608 59.9525C42.7535 59.8238 43.1222 59.706 43.4667 59.599C43.6233 59.5504 43.7571 59.5501 43.8682 59.5981C43.9937 59.6484 44.0626 59.7266 44.0749 59.8327C44.0777 59.9966 44.0239 60.1885 43.9135 60.4081C43.8031 60.6278 43.6384 60.8163 43.4193 60.9735C43.1737 61.1116 42.851 61.2666 42.4511 61.4388C42.0682 61.5988 41.6574 61.7469 41.2189 61.883C40.7804 62.019 40.3382 62.1322 39.8923 62.2225C39.4633 62.3007 39.0872 62.3281 38.7641 62.3047C38.2794 62.2697 37.9389 62.0801 37.7428 61.7357C37.5467 61.3914 37.4722 60.9853 37.5193 60.5174C37.5664 60.0495 37.6471 59.5128 37.7614 58.9074C37.8902 58.3042 38.0249 57.665 38.1655 56.9895C37.8858 56.9733 37.6133 56.9583 37.348 56.9444C37.0996 56.9185 36.8572 56.901 36.6209 56.8919C36.4328 56.861 36.23 56.7831 36.0127 56.6583C35.8099 56.5358 35.7287 56.3515 35.7691 56.1055C35.7834 56.0186 35.8386 55.9088 35.9347 55.7759C36.0308 55.6431 36.2078 55.5607 36.4658 55.5287C37.0758 55.5249 37.7486 55.5462 38.4841 55.5927C38.6392 54.9196 38.798 54.2694 38.9605 53.6421C39.1229 53.0148 39.2687 52.4442 39.3976 51.9303C39.4406 51.759 39.5162 51.6153 39.6245 51.4994C39.7327 51.3834 39.8375 51.3337 39.9388 51.3503C40.1872 51.3762 40.4081 51.4794 40.6014 51.6598C40.8116 51.8281 40.9024 51.999 40.8739 52.1727C40.7352 52.6553 40.5858 53.203 40.4257 53.8158C40.2801 54.431 40.1321 55.0607 39.9817 55.7048C40.2759 55.7234 40.5533 55.7541 40.8138 55.7969C41.0911 55.8276 41.354 55.8559 41.6024 55.8818ZM51.2523 55.6606C51.6603 55.8911 51.9829 56.1894 52.2201 56.5553C52.4717 56.9236 52.6439 57.3235 52.7365 57.7548C52.8316 58.1718 52.8519 58.5913 52.7974 59.0133C52.7574 59.4378 52.6498 59.8214 52.4746 60.1643C52.2489 60.5433 51.9809 60.9081 51.6707 61.2584C51.3605 61.6088 51.0212 61.9098 50.6529 62.1614C50.2846 62.4131 49.8824 62.5997 49.4462 62.7213C49.0101 62.8429 48.546 62.8633 48.0539 62.7825C47.4605 62.685 46.9838 62.4655 46.6237 62.124C46.2636 61.7825 46.0035 61.3756 45.8432 60.9034C45.683 60.4312 45.6118 59.9142 45.6297 59.3523C45.6622 58.7928 45.767 58.2452 45.9441 57.7095C46.0686 57.3138 46.2268 56.9385 46.4188 56.5836C46.6277 56.2166 46.8645 55.9062 47.1291 55.6524C47.3961 55.3841 47.6826 55.1785 47.9885 55.0355C48.3088 54.8949 48.6499 54.8543 49.0117 54.9137C49.2143 54.947 49.4605 55.032 49.7502 55.1687C50.0422 55.291 50.3066 55.4459 50.5433 55.6334C50.76 55.4906 50.9963 55.4997 51.2523 55.6606ZM50.1671 57.1099C50.0245 56.9825 49.8578 56.8213 49.6668 56.6265C49.4927 56.4195 49.3261 56.303 49.1669 56.2768C48.9932 56.2483 48.8065 56.2994 48.6066 56.4301C48.4213 56.5631 48.2457 56.7275 48.0798 56.9232C47.9307 57.1068 47.7949 57.3 47.6724 57.5029C47.55 57.7057 47.4635 57.8699 47.4132 57.9954C47.3341 58.2053 47.2624 58.4611 47.198 58.7627C47.1336 59.0642 47.1054 59.3717 47.1134 59.6851C47.1238 59.9841 47.1884 60.2697 47.3072 60.5419C47.4428 60.8019 47.6687 61.01 47.985 61.1659C48.1781 61.2571 48.4169 61.2963 48.7014 61.2836C48.9882 61.2564 49.2762 61.1773 49.5652 61.0464C49.8687 60.9179 50.16 60.728 50.4391 60.4765C50.7327 60.2275 50.9755 59.9255 51.1676 59.5706C51.3812 59.1747 51.4525 58.7405 51.3815 58.268C51.3273 57.7835 51.107 57.4055 50.7205 57.1339C50.6073 57.1897 50.5001 57.2092 50.3988 57.1926C50.2975 57.1759 50.2202 57.1484 50.1671 57.1099ZM64.0468 67.9727C64.0062 68.1296 63.91 68.2624 63.7584 68.3713C63.6044 68.4946 63.4489 68.536 63.2921 68.4953C63.0485 68.4405 62.8758 68.3155 62.774 68.1204C62.6723 67.9254 62.6309 67.7699 62.6499 67.6542C62.7403 67.1042 62.8197 66.5301 62.8882 65.932C62.959 65.3194 63.0251 64.6911 63.0862 64.0472C62.8933 64.0452 62.722 64.0022 62.5723 63.9182C62.4395 63.8221 62.356 63.6969 62.3219 63.5427C62.261 63.28 62.3111 63.0653 62.4722 62.8985C62.6334 62.7318 62.873 62.5853 63.1909 62.4592C63.2065 61.9118 63.2209 61.3716 63.2341 60.8387C63.2618 60.3082 63.2798 59.791 63.2883 59.287C63.2881 59.1978 63.3084 59.1194 63.3492 59.0518C63.39 58.9842 63.4369 58.925 63.4898 58.8742C63.5451 58.809 63.6354 58.7569 63.7607 58.718C63.9608 58.6766 64.1611 58.7689 64.3618 58.9951C64.5769 59.2237 64.7041 59.4898 64.7434 59.7935C64.7417 60.0756 64.7328 60.4012 64.7168 60.7701C64.7177 61.127 64.7053 61.5188 64.6798 61.9457C65.0147 61.8074 65.3302 61.6511 65.6263 61.4768C65.937 61.3049 66.2065 61.1114 66.4351 60.8962C66.6781 60.6835 66.8717 60.4551 67.0158 60.2113C67.1622 59.9529 67.2375 59.6755 67.2416 59.3789C67.2531 59.1281 67.1802 58.8932 67.023 58.6741C66.8681 58.4406 66.5892 58.2833 66.1864 58.2023C65.8269 58.1284 65.4603 58.0979 65.0866 58.1109C64.7274 58.1262 64.3646 58.1632 63.9982 58.222C63.6464 58.2831 63.2909 58.3659 62.9319 58.4705C62.5873 58.5774 62.25 58.6855 61.92 58.7948C61.6983 58.8773 61.4874 58.8947 61.2871 58.8469C61.1038 58.7871 60.9926 58.6945 60.9537 58.5692C60.871 58.2584 60.921 57.999 61.1038 57.7912C61.301 57.5858 61.5755 57.4079 61.9271 57.2576C62.2283 57.1436 62.5801 57.0378 62.9825 56.9404C63.4018 56.8309 63.8308 56.7528 64.2695 56.7059C64.7251 56.647 65.1735 56.6314 65.6148 56.6593C66.073 56.6751 66.4988 56.7524 66.8921 56.8913C67.2879 57.0158 67.6271 57.2127 67.9099 57.4821C68.2095 57.7394 68.4273 58.0873 68.5634 58.5258C68.7001 59.2319 68.6642 59.8577 68.4557 60.4031C68.2641 60.9365 67.9638 61.4074 67.5549 61.8158C67.1628 62.2122 66.6971 62.5593 66.1577 62.8572C65.6351 63.1429 65.1113 63.3913 64.5861 63.6024C64.5301 64.3958 64.4536 65.1784 64.3566 65.9502C64.2596 66.722 64.1563 67.3962 64.0468 67.9727ZM77.1894 60.0092C76.9051 60.1112 76.6051 60.218 76.2895 60.3296C75.9884 60.4437 75.6753 60.5855 75.3502 60.755C75.0419 60.9125 74.7338 61.1146 74.4257 61.3613C74.1345 61.5958 73.8556 61.8919 73.5888 62.2494C73.209 62.7518 72.9209 63.2841 72.7245 63.8464C72.5305 64.3942 72.3739 64.9407 72.2546 65.4859C72.2119 65.7465 72.1028 66.0035 71.9273 66.2571C71.7688 66.4986 71.581 66.6015 71.3639 66.5659C71.0889 66.5207 70.8871 66.3464 70.7586 66.0429C70.6469 65.7273 70.5836 65.4345 70.5685 65.1644C70.4912 64.0965 70.4549 63.0501 70.4597 62.0253C70.4669 60.9861 70.4946 59.9577 70.5428 58.94C70.5761 58.7374 70.6553 58.6166 70.7806 58.5778C70.9204 58.5413 71.0687 58.5433 71.2255 58.5839C71.3968 58.6269 71.5561 58.6977 71.7034 58.7962C71.8507 58.8947 71.9258 59.0259 71.9286 59.1899C71.8986 59.7349 71.8782 60.3112 71.8676 60.9189C71.8594 61.512 71.8642 62.0256 71.8821 62.4596C72.0208 61.977 72.2585 61.5256 72.595 61.1052C72.9316 60.6849 73.3189 60.3174 73.757 60.0029C74.2096 59.6908 74.6961 59.4437 75.2164 59.2616C75.7513 59.0819 76.2791 58.9903 76.7999 58.9866C77.0218 58.9933 77.2027 59.023 77.3427 59.0757C77.4826 59.1284 77.5756 59.1957 77.6216 59.2776C77.6676 59.3595 77.6559 59.4765 77.5863 59.6285C77.5312 59.783 77.3989 59.9099 77.1894 60.0092ZM83.7957 63.5465C83.1766 63.7867 82.526 63.9474 81.8438 64.0286C81.164 64.0953 80.4478 64.0669 79.6952 63.9433C79.641 64.4546 79.7192 64.8836 79.9298 65.2303C80.1427 65.5626 80.4399 65.7897 80.8211 65.9118C81.0479 65.9787 81.2807 66.0095 81.5194 66.0041C81.7725 66.0011 82.0076 65.9728 82.2244 65.9193C82.4582 65.8536 82.6714 65.7772 82.8641 65.6899C83.0568 65.6026 83.2277 65.5118 83.377 65.4174C83.5263 65.323 83.6756 65.2732 83.8251 65.2681C83.977 65.2484 84.0867 65.259 84.1543 65.2998C84.3451 65.4055 84.3818 65.6344 84.2645 65.9868C83.9569 66.4119 83.5586 66.7552 83.0698 67.0168C82.5833 67.2639 82.0652 67.3869 81.5154 67.3858C81.038 67.3965 80.564 67.2964 80.0933 67.0853C79.6226 66.8743 79.2228 66.5485 78.8938 66.108C78.6156 65.7205 78.4265 65.2882 78.3265 64.811C78.2265 64.3338 78.194 63.8528 78.2291 63.3681C78.2593 62.9123 78.3656 62.4913 78.5479 62.1051C78.7447 61.7212 78.9984 61.3987 79.3088 61.1376C79.6216 60.862 79.99 60.6549 80.414 60.5165C80.8381 60.378 81.313 60.3371 81.8388 60.3937C82.4682 60.4525 83.0136 60.661 83.475 61.0192C83.9364 61.3773 84.228 61.8191 84.3498 62.3445C84.4205 62.6384 84.4102 62.882 84.319 63.0751C84.2423 63.2706 84.0679 63.4277 83.7957 63.5465ZM81.5416 61.6603C81.3921 61.6655 81.2246 61.69 81.039 61.7339C80.8679 61.7801 80.7005 61.8492 80.5368 61.9412C80.3899 62.0211 80.2467 62.124 80.1071 62.2497C79.9844 62.3633 79.9016 62.5057 79.8586 62.677C80.1046 62.7174 80.3759 62.7397 80.6725 62.7438C80.9836 62.7503 81.2813 62.7472 81.5658 62.7345C81.8672 62.7096 82.1408 62.6728 82.3866 62.624C82.6469 62.5776 82.865 62.5168 83.0408 62.4416C82.9702 62.1476 82.7804 61.9455 82.4715 61.8353C82.1795 61.7131 81.8695 61.6547 81.5416 61.6603ZM94.3596 62.4276C94.0638 62.7804 93.7693 63.1259 93.4759 63.4641C93.1825 63.8024 92.858 64.195 92.5022 64.6419C92.1632 65.0767 91.7678 65.584 91.3159 66.1638C90.864 66.7435 90.3316 67.4513 89.7187 68.287C89.5673 68.4851 89.423 68.6398 89.2858 68.751C89.1486 68.8622 89.0004 68.9048 88.8412 68.8786C88.6241 68.843 88.46 68.7566 88.3487 68.6194C88.2543 68.4701 88.1756 68.316 88.1125 68.157C87.7657 67.2826 87.4403 66.3225 87.1364 65.2768C86.8325 64.231 86.6119 63.2213 86.4745 62.2475C86.4575 62.1704 86.4705 62.0908 86.5137 62.0087C86.5738 61.9145 86.6424 61.8589 86.7195 61.8418C86.8761 61.7932 87.0654 61.8169 87.2875 61.9128C87.4493 62.0137 87.6016 62.1725 87.7444 62.3891C87.8871 62.6058 87.9925 62.8238 88.0606 63.043C88.1141 63.2599 88.1774 63.5081 88.2504 63.7876C88.3234 64.0671 88.4001 64.3696 88.4804 64.6949C88.5776 65.0081 88.6748 65.3213 88.772 65.6346C88.8692 65.9478 88.9712 66.2321 89.0779 66.4874C89.3952 66.0936 89.7318 65.6733 90.0876 65.2263C90.4602 64.7673 90.8328 64.3083 91.2055 63.8493C91.5805 63.3758 91.952 62.924 92.3198 62.494C92.7022 62.0663 93.069 61.6881 93.4203 61.3593C93.5093 61.2699 93.6201 61.2286 93.7527 61.2355C93.8853 61.2424 94.0218 61.3169 94.1619 61.4588C94.4786 61.7932 94.5445 62.1161 94.3596 62.4276ZM101.052 66.3804C100.433 66.6206 99.7823 66.7813 99.1001 66.8624C98.4203 66.9292 97.7041 66.9007 96.9515 66.7771C96.8973 67.2884 96.9754 67.7175 97.186 68.0642C97.399 68.3964 97.6961 68.6235 98.0774 68.7456C98.3042 68.8126 98.537 68.8434 98.7757 68.838C99.0288 68.835 99.2638 68.8067 99.4807 68.7531C99.7145 68.6875 99.9277 68.611 100.12 68.5237C100.313 68.4365 100.484 68.3457 100.633 68.2513C100.783 68.1569 100.932 68.1071 101.081 68.1019C101.233 68.0823 101.343 68.0928 101.411 68.1337C101.601 68.2393 101.638 68.4683 101.521 68.8206C101.213 69.2457 100.815 69.589 100.326 69.8506C99.8396 70.0977 99.3215 70.2207 98.7717 70.2196C98.2943 70.2304 97.8203 70.1302 97.3496 69.9192C96.8789 69.7081 96.4791 69.3824 96.1501 68.9419C95.8719 68.5544 95.6828 68.122 95.5828 67.6448C95.4828 67.1676 95.4503 66.6867 95.4853 66.2019C95.5156 65.7462 95.6219 65.3252 95.8042 64.9389C96.001 64.5551 96.2546 64.2326 96.5651 63.9714C96.8779 63.6958 97.2463 63.4888 97.6703 63.3503C98.0944 63.2119 98.5693 63.171 99.095 63.2276C99.7245 63.2864 100.27 63.4948 100.731 63.853C101.193 64.2112 101.484 64.6529 101.606 65.1783C101.677 65.4723 101.666 65.7158 101.575 65.909C101.499 66.1044 101.324 66.2616 101.052 66.3804ZM98.7979 64.4942C98.6484 64.4993 98.4809 64.5239 98.2953 64.5677C98.1242 64.6139 97.9568 64.683 97.7931 64.7751C97.6462 64.855 97.503 64.9578 97.3634 65.0835C97.2407 65.1971 97.1579 65.3396 97.1149 65.5109C97.3609 65.5513 97.6322 65.5735 97.9288 65.5777C98.2399 65.5842 98.5376 65.581 98.8221 65.5683C99.1235 65.5435 99.397 65.5066 99.6429 65.4578C99.9032 65.4114 100.121 65.3506 100.297 65.2754C100.226 64.9814 100.037 64.7794 99.7278 64.6692C99.4358 64.5469 99.1258 64.4886 98.7979 64.4942ZM105.572 65.0046C105.579 65.2288 105.582 65.482 105.581 65.7641C105.596 66.0341 105.608 66.3186 105.619 66.6176C105.632 66.9021 105.636 67.1926 105.632 67.4892C105.628 67.7858 105.619 68.0667 105.605 68.332C105.84 67.9842 106.094 67.6171 106.365 67.2306C106.637 66.8442 106.917 66.4963 107.206 66.187C107.511 65.8656 107.813 65.6105 108.112 65.4217C108.425 65.2353 108.74 65.1682 109.059 65.2205C109.536 65.299 109.906 65.538 110.167 65.9376C110.443 66.3396 110.647 66.819 110.778 67.3757C110.927 67.9202 111.02 68.4854 111.057 69.0713C111.095 69.6571 111.121 70.1742 111.137 70.6227C111.159 71.0277 110.938 71.2886 110.473 71.4055C110.254 71.4735 110.099 71.463 110.01 71.374C109.921 71.285 109.875 71.2032 109.872 71.1284C109.828 70.9429 109.784 70.6235 109.74 70.1703C109.71 69.7195 109.659 69.2579 109.588 68.7854C109.531 68.3154 109.444 67.8997 109.325 67.5383C109.206 67.1769 109.035 66.9928 108.813 66.9861C108.55 66.9578 108.287 67.1152 108.022 67.4582C107.799 67.7336 107.562 68.044 107.312 68.3894C107.079 68.7227 106.844 69.0705 106.606 69.4327C106.37 69.7805 106.134 70.1355 105.896 70.4977C105.675 70.8479 105.466 71.1703 105.269 71.4649C105.151 71.5496 105.009 71.6005 104.842 71.6178C104.693 71.623 104.543 71.5836 104.393 71.4995C104.256 71.4323 104.152 71.341 104.082 71.2254C104.012 71.1098 103.985 71.0014 104.001 70.9001C104.057 69.7498 104.088 68.6997 104.095 67.7496C104.117 66.802 104.099 65.8255 104.041 64.8202C103.995 64.4707 104.016 64.2066 104.104 64.0279C104.21 63.8372 104.44 63.7933 104.795 63.8961C105.287 64.0661 105.546 64.4356 105.572 65.0046ZM118.524 68.514C118.802 68.5447 119.066 68.6549 119.317 68.8448C119.568 69.0347 119.669 69.2816 119.619 69.5856C119.55 69.8268 119.386 69.9635 119.128 69.9954C118.887 70.0153 118.694 70.0133 118.55 69.9896C118.26 69.942 117.948 69.8982 117.612 69.858C117.277 69.8178 116.934 69.7836 116.581 69.7555C116.474 70.2284 116.371 70.6723 116.274 71.0873C116.19 71.5046 116.114 71.8785 116.045 72.209C115.978 72.525 115.928 72.7843 115.895 72.987C115.861 73.1896 115.851 73.2993 115.863 73.3162C116.191 73.3106 116.546 73.2723 116.93 73.2015C117.33 73.1186 117.724 73.0272 118.112 72.9274C118.516 72.8156 118.907 72.7013 119.283 72.5847C119.675 72.4559 120.044 72.3381 120.389 72.2312C120.545 72.1826 120.679 72.1823 120.79 72.2303C120.916 72.2806 120.984 72.3588 120.997 72.4649C121 72.6288 120.946 72.8206 120.835 73.0403C120.725 73.26 120.56 73.4485 120.341 73.6057C120.096 73.7437 119.773 73.8988 119.373 74.071C118.99 74.231 118.579 74.3791 118.141 74.5151C117.702 74.6512 117.26 74.7644 116.814 74.8547C116.385 74.9328 116.009 74.9603 115.686 74.9369C115.201 74.9019 114.861 74.7122 114.665 74.3679C114.469 74.0236 114.394 73.6174 114.441 73.1496C114.488 72.6817 114.569 72.145 114.683 71.5395C114.812 70.9364 114.947 70.2971 115.087 69.6217C114.808 69.6054 114.535 69.5904 114.27 69.5766C114.021 69.5507 113.779 69.5331 113.543 69.5241C113.355 69.4932 113.152 69.4153 112.935 69.2904C112.732 69.1679 112.651 68.9837 112.691 68.7376C112.705 68.6508 112.76 68.541 112.857 68.4081C112.953 68.2753 113.13 68.1929 113.388 68.1609C113.998 68.157 114.67 68.1783 115.406 68.2248C115.561 67.5517 115.72 66.9015 115.882 66.2742C116.045 65.6469 116.191 65.0763 116.319 64.5625C116.362 64.3912 116.438 64.2475 116.546 64.1315C116.655 64.0155 116.759 63.9658 116.861 63.9825C117.109 64.0084 117.33 64.1116 117.523 64.2919C117.733 64.4602 117.824 64.6312 117.796 64.8049C117.657 65.2875 117.508 65.8351 117.348 66.448C117.202 67.0632 117.054 67.6928 116.904 68.337C117.198 68.3556 117.475 68.3863 117.736 68.429C118.013 68.4597 118.276 68.488 118.524 68.514ZM133.557 67.8614C133.505 68.0014 133.39 68.0644 133.214 68.0503C133.038 68.0363 132.892 68.0197 132.776 68.0007C132.412 67.9558 132.03 67.9302 131.63 67.9239C131.244 67.92 130.832 67.9415 130.393 67.9883C130.21 68.0177 130.025 67.9651 129.839 67.8305C129.653 67.6959 129.563 67.4731 129.57 67.162C129.589 67.0463 129.648 66.9593 129.746 66.9012C129.845 66.8431 129.957 66.7946 130.082 66.7557C130.285 66.6998 130.521 66.6643 130.791 66.6492C131.063 66.6196 131.332 66.6117 131.598 66.6255C131.877 66.6418 132.139 66.6773 132.383 66.7322C132.629 66.7726 132.828 66.8276 132.98 66.8971C133.2 67.0075 133.363 67.1458 133.469 67.3119C133.59 67.4804 133.619 67.6636 133.557 67.8614ZM131.871 75.0086C131.934 75.2568 131.943 75.5184 131.898 75.7934C131.87 76.0563 131.768 76.2253 131.592 76.3005C131.368 76.3974 131.152 76.3546 130.944 76.1718C130.736 75.989 130.595 75.7651 130.519 75.5001C130.41 75.17 130.348 74.7808 130.332 74.3323C130.319 73.8694 130.326 73.4173 130.354 72.976C130.382 72.5347 130.42 72.1247 130.467 71.746C130.529 71.3697 130.575 71.0875 130.606 70.8993C130.654 70.6991 130.742 70.5204 130.872 70.3634C131.002 70.2064 131.149 70.1265 131.313 70.1237C131.571 70.1809 131.761 70.3384 131.882 70.5961C132.005 70.8393 132.033 71.1262 131.964 71.4567C131.921 71.7172 131.88 72.0079 131.843 72.3286C131.805 72.6494 131.781 72.9726 131.773 73.2981C131.764 73.6236 131.763 73.9431 131.771 74.2566C131.782 74.5555 131.815 74.8062 131.871 75.0086ZM140.031 72.0458C140.308 72.0765 140.572 72.1868 140.824 72.3767C141.075 72.5665 141.176 72.8134 141.126 73.1174C141.056 73.3587 140.893 73.4953 140.635 73.5272C140.394 73.5471 140.201 73.5452 140.056 73.5214C139.767 73.4738 139.454 73.43 139.119 73.3898C138.784 73.3496 138.44 73.3155 138.088 73.2874C137.981 73.7602 137.878 74.2041 137.78 74.6191C137.697 75.0364 137.62 75.4103 137.551 75.7408C137.485 76.0568 137.435 76.3162 137.401 76.5188C137.368 76.7214 137.357 76.8311 137.369 76.848C137.697 76.8424 138.053 76.8042 138.436 76.7333C138.836 76.6504 139.23 76.559 139.618 76.4593C140.023 76.3474 140.413 76.2331 140.789 76.1165C141.182 75.9878 141.551 75.8699 141.895 75.763C142.052 75.7144 142.186 75.7141 142.297 75.7621C142.422 75.8124 142.491 75.8906 142.503 75.9967C142.506 76.1606 142.452 76.3524 142.342 76.5721C142.231 76.7918 142.067 76.9803 141.848 77.1375C141.602 77.2755 141.279 77.4306 140.88 77.6028C140.497 77.7628 140.086 77.9109 139.647 78.047C139.209 78.183 138.767 78.2962 138.321 78.3865C137.892 78.4647 137.516 78.4921 137.192 78.4687C136.708 78.4337 136.367 78.244 136.171 77.8997C135.975 77.5554 135.901 77.1493 135.948 76.6814C135.995 76.2135 136.075 75.6768 136.19 75.0713C136.319 74.4682 136.453 73.8289 136.594 73.1535C136.314 73.1373 136.042 73.1222 135.776 73.1084C135.528 73.0825 135.286 73.065 135.049 73.0559C134.861 73.025 134.658 72.9471 134.441 72.8222C134.238 72.6998 134.157 72.5155 134.197 72.2695C134.212 72.1826 134.267 72.0728 134.363 71.9399C134.459 71.8071 134.636 71.7247 134.894 71.6927C135.504 71.6889 136.177 71.7102 136.912 71.7566C137.068 71.0835 137.226 70.4334 137.389 69.8061C137.551 69.1788 137.697 68.6082 137.826 68.0943C137.869 67.923 137.945 67.7793 138.053 67.6633C138.161 67.5473 138.266 67.4977 138.367 67.5143C138.616 67.5402 138.836 67.6434 139.03 67.8238C139.24 67.9921 139.331 68.163 139.302 68.3367C139.164 68.8193 139.014 69.367 138.854 69.9798C138.708 70.595 138.56 71.2247 138.41 71.8688C138.704 71.8874 138.982 71.9181 139.242 71.9609C139.52 71.9916 139.782 72.0199 140.031 72.0458ZM33.4005 79.7603C33.1931 79.756 32.9579 79.695 32.6948 79.5775C32.4462 79.4624 32.295 79.2518 32.2412 78.9457C32.2216 78.7938 32.2369 78.6551 32.2872 78.5296C32.3399 78.3896 32.5086 78.3133 32.793 78.3006C33.0631 78.2855 33.3464 78.28 33.6429 78.2841C33.9564 78.2761 34.2686 78.2753 34.5797 78.2818L34.1757 75.7185C34.0818 74.7518 34.1836 73.9511 34.4811 73.3162C34.7785 72.6814 35.3925 72.2917 36.3228 72.1472C36.7037 72.0909 37.0654 72.1057 37.408 72.1917C37.7651 72.28 38.0897 72.43 38.382 72.6414C38.6742 72.8529 38.9292 73.1103 39.147 73.4136C39.3647 73.7169 39.5246 74.0553 39.6268 74.4288C39.6585 74.5975 39.6637 74.747 39.6423 74.8772C39.6378 74.9954 39.5765 75.0968 39.4586 75.1815C39.2901 75.3024 39.1202 75.3414 38.9489 75.2984C38.78 75.241 38.6725 75.1713 38.6265 75.0894C38.5224 74.9088 38.4038 74.7259 38.2708 74.5405C38.1545 74.3431 38.0191 74.1722 37.8645 74.0279C37.7266 73.8715 37.5684 73.7489 37.3898 73.6601C37.2135 73.5569 37.0145 73.5019 36.7926 73.4952C36.6889 73.493 36.5576 73.5235 36.3986 73.5865C36.2541 73.652 36.1157 73.7705 35.9835 73.942C35.8537 74.099 35.7505 74.3199 35.6741 74.6046C35.612 74.8917 35.6033 75.2618 35.6478 75.715C35.6897 76.0935 35.7413 76.5032 35.8026 76.9443C35.8639 77.3854 35.9362 77.8506 36.0193 78.3399C36.7259 78.3816 37.3663 78.4645 37.9404 78.5885C38.2541 78.6697 38.5413 78.7763 38.802 78.9083C39.0627 79.0403 39.2656 79.2074 39.4108 79.4096C39.4304 79.5615 39.403 79.6833 39.3285 79.7751C39.2563 79.8524 39.1564 79.9178 39.0287 79.9711C38.9179 80.0124 38.7878 80.0356 38.6383 80.0408C38.5033 80.0483 38.3695 80.0487 38.2368 80.0417C37.9426 80.0232 37.6328 80.0094 37.3072 80.0006C36.9841 79.9772 36.6464 79.9515 36.2943 79.9234C36.419 80.6127 36.5266 81.2695 36.6173 81.8938C36.7249 82.506 36.8044 83.0169 36.856 83.4267C36.8783 83.6533 36.8475 83.8861 36.7637 84.125C36.6799 84.3639 36.5827 84.5932 36.4724 84.8129C36.3019 85.1267 36.1132 85.3707 35.9063 85.5448C35.6993 85.7189 35.5005 85.7531 35.3097 85.6475C35.1624 85.549 35.0766 85.4383 35.0522 85.3154C35.0277 85.1925 35.0467 85.0321 35.1089 84.8342C35.1758 84.6074 35.2283 84.3782 35.2664 84.1466C35.3044 83.9151 35.3244 83.7028 35.3263 83.5099C35.3451 83.3049 35.3447 83.1265 35.3251 82.9747C35.3223 82.8107 35.3184 82.6986 35.3134 82.6383L34.8366 79.8401C34.6003 79.831 34.3639 79.8219 34.1276 79.8128C33.8937 79.7893 33.6513 79.7718 33.4005 79.7603ZM48.2032 78.5572C47.9189 78.6591 47.619 78.7659 47.3034 78.8776C47.0023 78.9916 46.6891 79.1334 46.364 79.303C46.0558 79.4605 45.7476 79.6625 45.4396 79.9092C45.1484 80.1438 44.8694 80.4398 44.6026 80.7973C44.2228 81.2997 43.9348 81.8321 43.7384 82.3944C43.5444 82.9422 43.3877 83.4887 43.2685 84.0339C43.2257 84.2944 43.1166 84.5515 42.9412 84.805C42.7826 85.0465 42.5948 85.1495 42.3777 85.1138C42.1027 85.0687 41.901 84.8943 41.7725 84.5908C41.6608 84.2752 41.5974 83.9824 41.5823 83.7124C41.505 82.6444 41.4687 81.598 41.4735 80.5733C41.4807 79.534 41.5084 78.5056 41.5566 77.488C41.5899 77.2853 41.6692 77.1646 41.7945 77.1257C41.9342 77.0892 42.0825 77.0913 42.2393 77.1319C42.4106 77.1749 42.5699 77.2456 42.7173 77.3441C42.8646 77.4427 42.9396 77.5739 42.9424 77.7378C42.9124 78.2828 42.8921 78.8592 42.8815 79.4668C42.8732 80.06 42.8781 80.5736 42.896 81.0075C43.0347 80.525 43.2723 80.0735 43.6089 79.6531C43.9454 79.2328 44.3328 78.8654 44.7709 78.5509C45.2234 78.2388 45.7099 77.9917 46.2303 77.8096C46.7651 77.6299 47.293 77.5382 47.8138 77.5345C48.0356 77.5413 48.2165 77.571 48.3565 77.6237C48.4965 77.6764 48.5895 77.7437 48.6355 77.8256C48.6815 77.9074 48.6697 78.0244 48.6001 78.1765C48.5451 78.3309 48.4127 78.4578 48.2032 78.5572ZM54.9555 79.5769C55.3635 79.8074 55.6861 80.1056 55.9233 80.4715C56.1749 80.8398 56.3471 81.2397 56.4397 81.6711C56.5347 82.088 56.555 82.5075 56.5006 82.9296C56.4606 83.354 56.353 83.7377 56.1778 84.0805C55.9521 84.4596 55.6841 84.8243 55.3739 85.1746C55.0637 85.525 54.7244 85.826 54.3561 86.0777C53.9878 86.3293 53.5855 86.5159 53.1494 86.6375C52.7133 86.7591 52.2492 86.7795 51.7571 86.6987C51.1637 86.6012 50.687 86.3818 50.3269 86.0402C49.9668 85.6987 49.7066 85.2918 49.5464 84.8196C49.3861 84.3474 49.315 83.8304 49.3329 83.2685C49.3653 82.709 49.4701 82.1615 49.6473 81.6257C49.7717 81.23 49.93 80.8547 50.122 80.4998C50.3309 80.1328 50.5677 79.8224 50.8323 79.5686C51.0993 79.3003 51.3857 79.0947 51.6916 78.9517C52.012 78.8111 52.3531 78.7705 52.7149 78.8299C52.9175 78.8632 53.1637 78.9482 53.4533 79.0849C53.7454 79.2072 54.0098 79.3621 54.2465 79.5496C54.4632 79.4068 54.6995 79.4159 54.9555 79.5769ZM53.8703 81.0262C53.7277 80.8987 53.5609 80.7375 53.37 80.5427C53.1959 80.3357 53.0292 80.2192 52.87 80.1931C52.6964 80.1645 52.5096 80.2156 52.3098 80.3463C52.1245 80.4794 51.9488 80.6437 51.7829 80.8394C51.6339 81.023 51.4981 81.2163 51.3756 81.4191C51.2531 81.6219 51.1667 81.7861 51.1164 81.9116C51.0373 82.1216 50.9656 82.3773 50.9012 82.6789C50.8368 82.9804 50.8086 83.2879 50.8166 83.6013C50.8269 83.9003 50.8915 84.1859 51.0103 84.4581C51.146 84.7181 51.3719 84.9262 51.6881 85.0822C51.8813 85.1733 52.1201 85.2125 52.4045 85.1998C52.6914 85.1726 52.9794 85.0935 53.2684 84.9627C53.5719 84.8341 53.8632 84.6442 54.1423 84.3927C54.4359 84.1437 54.6787 83.8417 54.8707 83.4868C55.0844 83.0909 55.1557 82.6567 55.0846 82.1843C55.0304 81.6997 54.8101 81.3217 54.4237 81.0502C54.3105 81.1059 54.2032 81.1254 54.1019 81.1088C54.0006 81.0922 53.9234 81.0646 53.8703 81.0262ZM60.3834 81.0479C60.3598 81.2818 60.334 81.5749 60.3059 81.927C60.2946 82.267 60.2798 82.6287 60.2614 83.0121C60.2454 83.381 60.2294 83.75 60.2134 84.1189C60.2119 84.4903 60.2079 84.8315 60.2014 85.1425C60.4129 84.8503 60.6725 84.4916 60.9801 84.0665C61.2877 83.6414 61.599 83.2392 61.914 82.8599C62.2458 82.4685 62.5657 82.1494 62.8737 81.9028C63.1986 81.644 63.4696 81.5324 63.6867 81.5681C63.9183 81.6061 64.1091 81.7563 64.2592 82.0188C64.4262 82.2692 64.5559 82.5654 64.6484 82.9076C64.7408 83.2498 64.808 83.6101 64.8499 83.9886C64.9062 84.3694 64.948 84.7032 64.9752 84.9901C65.064 84.8115 65.1708 84.6135 65.2957 84.3962C65.4374 84.1668 65.5791 83.9374 65.7208 83.708C65.8794 83.4665 66.044 83.2334 66.2147 83.0088C66.3998 82.7865 66.5874 82.5944 66.7775 82.4324C66.9989 82.2606 67.2253 82.1492 67.4567 82.098C67.6904 82.0323 67.8579 82.0078 67.9592 82.0245C68.0895 82.0459 68.2343 82.1142 68.3937 82.2296C68.57 82.3329 68.7415 82.4651 68.9083 82.6262C69.075 82.7874 69.2225 82.9751 69.3509 83.1894C69.496 83.3916 69.6038 83.5951 69.6742 83.7998C69.8126 84.2239 69.9017 84.677 69.9415 85.1591C69.9957 85.6436 70.0172 86.1005 70.0062 86.5297C69.9952 86.9589 69.9696 87.3412 69.9294 87.6764C69.906 87.9996 69.8909 88.2275 69.884 88.3601C69.8531 88.5483 69.8076 88.6894 69.7476 88.7836C69.6899 88.8633 69.5984 88.9226 69.4731 88.9615C69.302 89.0077 69.1598 89.0141 69.0464 88.9806C68.9353 88.9326 68.8496 88.8665 68.7891 88.7823C68.7286 88.698 68.6838 88.6089 68.6546 88.5149C68.6279 88.4065 68.6132 88.3149 68.6106 88.2402C68.6218 87.9002 68.627 87.5517 68.6262 87.1949C68.6398 86.8404 68.6438 86.4992 68.6382 86.1713C68.635 85.8289 68.6125 85.5131 68.5709 85.2239C68.546 84.9225 68.508 84.6562 68.4568 84.4248C68.4374 84.3622 68.3986 84.2815 68.3405 84.1828C68.2993 84.072 68.2423 83.966 68.1698 83.8649C68.1117 83.7662 68.0512 83.6819 67.9883 83.6122C67.9255 83.5424 67.8808 83.4979 67.8542 83.4787C67.7095 83.4549 67.5349 83.5674 67.3306 83.8163C67.1286 84.0506 66.9243 84.3441 66.7178 84.6966C66.5113 85.0491 66.3084 85.4246 66.1092 85.8229C65.9269 86.2091 65.783 86.5422 65.6776 86.8221C65.6158 87.1984 65.4971 87.4688 65.3215 87.6332C65.1482 87.7831 64.982 87.8449 64.8228 87.8188C64.6636 87.7927 64.4994 87.7062 64.3303 87.5596C64.178 87.4008 64.086 87.237 64.0543 87.0683C64.0055 86.8225 63.9542 86.5466 63.9004 86.2405C63.8466 85.9344 63.7868 85.6198 63.7209 85.2969C63.6695 84.9763 63.6097 84.6618 63.5414 84.3533C63.4877 84.0473 63.4291 83.7701 63.3659 83.5219C63.1181 83.7636 62.8656 84.0343 62.6083 84.3339C62.3655 84.6358 62.1215 84.9451 61.8763 85.2615C61.6456 85.5803 61.4148 85.8992 61.1841 86.218C60.9703 86.5247 60.7696 86.7965 60.5821 87.0332C60.4546 87.1758 60.3223 87.3027 60.1851 87.4139C60.0503 87.5107 59.9033 87.546 59.7441 87.5198C59.6283 87.5008 59.5136 87.43 59.4 87.3073C59.2888 87.1701 59.1883 87.0124 59.0987 86.8342C59.0091 86.656 58.9302 86.4572 58.8622 86.238C58.8086 86.0211 58.7768 85.8078 58.7666 85.598C58.753 84.9567 58.7634 84.2598 58.7978 83.5075C58.849 82.743 58.8967 82.0002 58.9408 81.2792C58.9667 81.0308 59.0325 80.8112 59.1382 80.6205C59.2606 80.4176 59.4436 80.299 59.6871 80.2647C59.9402 80.2617 60.1224 80.3288 60.2337 80.4659C60.3449 80.6031 60.3948 80.7971 60.3834 81.0479ZM81.4646 81.8345C81.4076 82.1819 81.3362 82.5714 81.2504 83.0032C81.1791 83.4374 81.1054 83.8861 81.0293 84.3492C80.9678 84.8147 80.8966 85.2935 80.8158 85.7856C80.7494 86.28 80.6866 86.7528 80.6274 87.2038C80.8197 86.9381 81.0397 86.6844 81.2875 86.4427C81.5377 86.1865 81.8036 85.9701 82.0853 85.7934C82.3814 85.6191 82.6777 85.4894 82.9741 85.4043C83.2849 85.3216 83.6068 85.3076 83.9396 85.3622C84.3015 85.4216 84.6009 85.5897 84.8378 85.8664C85.0892 86.1455 85.2842 86.4971 85.4226 86.9211C85.5779 87.3331 85.6887 87.7897 85.755 88.2911C85.8237 88.778 85.861 89.2746 85.8671 89.781C85.8899 90.2752 85.8863 90.7502 85.856 91.206C85.8281 91.6473 85.8025 92.0295 85.7792 92.3527C85.7411 92.5843 85.6523 92.7629 85.5128 92.8886C85.3732 93.0143 85.2239 93.0641 85.0647 93.038C84.9489 93.019 84.816 92.9228 84.6661 92.7496C84.5331 92.5642 84.4482 92.3571 84.4115 92.1281C84.3966 91.9473 84.3947 91.6869 84.406 91.3469C84.4172 91.0069 84.4248 90.644 84.4287 90.2582C84.435 89.8579 84.4268 89.4553 84.4041 89.0502C84.3815 88.6452 84.33 88.28 84.2496 87.9547C84.1861 87.6173 84.0818 87.3475 83.9367 87.1453C83.7915 86.9431 83.5996 86.8447 83.3609 86.8501C82.9872 86.863 82.6272 87.064 82.2809 87.4531C81.9491 87.8445 81.6367 88.2985 81.3438 88.8152C81.0653 89.3343 80.8146 89.8653 80.5917 90.4084C80.3832 90.9538 80.2215 91.3954 80.1066 91.7333C80.0059 91.9843 79.8966 92.1521 79.7786 92.2368C79.6775 92.3094 79.5691 92.3361 79.4533 92.3171C79.3375 92.2981 79.2385 92.2224 79.1562 92.09C79.0884 91.9599 79.0241 91.8082 78.9634 91.6347C78.9196 91.4492 78.883 91.2648 78.8536 91.0816C78.8266 90.884 78.8166 90.7188 78.8235 90.5862C78.8795 89.7928 78.944 89.0379 79.017 88.3216C79.0924 87.5908 79.1751 86.8613 79.265 86.1329C79.3693 85.4069 79.4833 84.6676 79.6069 83.915C79.7329 83.1479 79.8816 82.3326 80.0532 81.469C80.172 80.7453 80.486 80.4625 80.9951 80.6204C81.1641 80.6778 81.2946 80.8331 81.3869 81.086C81.4815 81.3245 81.5074 81.574 81.4646 81.8345ZM94.514 85.605C94.5053 86.0197 94.4774 86.4611 94.4303 86.9289C94.4001 87.3847 94.3541 87.8454 94.2925 88.3109C94.2454 88.7788 94.1862 89.2298 94.1149 89.664C94.0436 90.0982 93.9722 90.4877 93.9007 90.8327C94.3115 91.2272 94.5402 91.5545 94.5866 91.8148C94.6475 92.0775 94.6263 92.297 94.5231 92.4733C94.3935 92.7195 94.2117 92.8309 93.9777 92.8073C93.7606 92.7716 93.5204 92.6505 93.2571 92.4437C93.0307 92.5552 92.773 92.6763 92.484 92.8072C92.1974 92.9237 91.8962 93.0377 91.5806 93.1494C91.2674 93.2466 90.9566 93.3293 90.6481 93.3975C90.3396 93.4658 90.0588 93.5014 89.8056 93.5044C89.3306 93.5007 88.9252 93.345 88.5893 93.0371C88.2679 92.7317 88.0824 92.3222 88.033 91.8087C88.0008 91.4616 88.035 91.1179 88.1354 90.7777C88.2382 90.423 88.4026 90.1007 88.6286 89.8109C88.8569 89.5065 89.1372 89.2478 89.4695 89.0349C89.8162 88.8243 90.204 88.6799 90.633 88.6017C90.7415 88.5749 90.8849 88.5613 91.0633 88.5609C91.2562 88.5628 91.4456 88.5865 91.6314 88.6319C91.834 88.6651 92.0307 88.7346 92.2214 88.8402C92.4121 88.9459 92.5801 89.0998 92.7252 89.302C92.7656 89.056 92.8024 88.787 92.8354 88.4952C92.8853 88.1913 92.928 87.8861 92.9634 87.5798C92.9989 87.2735 93.0235 86.9877 93.0374 86.7225C93.068 86.4451 93.0844 86.21 93.0863 86.0171C93.093 85.7952 93.0276 85.6507 92.89 85.5835C92.7692 85.5043 92.6016 85.4842 92.3871 85.5233C92.0207 85.582 91.5787 85.7398 91.0609 85.9966C90.5431 86.2534 90.0434 86.5355 89.5619 86.8429C89.4103 86.9517 89.2488 86.9847 89.0775 86.9417C88.9207 86.9011 88.7939 86.8134 88.6971 86.6786C88.6003 86.5438 88.5566 86.4028 88.5659 86.2557C88.5776 86.0941 88.6628 85.9372 88.8216 85.7849C89.1104 85.5648 89.4293 85.3422 89.7784 85.1172C90.1275 84.8921 90.4863 84.6983 90.8548 84.5359C91.2257 84.359 91.5968 84.2267 91.9679 84.139C92.339 84.0513 92.6994 84.0288 93.0491 84.0713C93.5581 84.1401 93.9298 84.32 94.1644 84.6112C94.4013 84.8879 94.5179 85.2192 94.514 85.605ZM91.2292 89.8589C91.0339 89.8714 90.8159 89.9322 90.575 90.0413C90.351 90.1383 90.1355 90.2738 89.9286 90.4479C89.7385 90.6099 89.5798 90.8068 89.4525 91.0386C89.3422 91.2583 89.3041 91.4899 89.3385 91.7333C89.3531 91.8249 89.4003 91.8995 89.48 91.9572C89.5742 92.0173 89.6816 92.0423 89.8021 92.0324C90.1614 92.0171 90.5747 91.9438 91.0422 91.8124C91.5265 91.669 91.9191 91.4957 92.22 91.2924C92.2343 91.2056 92.2087 91.0899 92.1432 90.9454C92.0801 90.7864 92.0014 90.6323 91.907 90.483C91.815 90.3193 91.705 90.1749 91.5769 90.0498C91.4632 89.9271 91.3474 89.8635 91.2292 89.8589ZM99.3055 97.071C99.2649 97.2278 99.1687 97.3607 99.0171 97.4695C98.8631 97.5929 98.7076 97.6342 98.5508 97.5936C98.3072 97.5387 98.1345 97.4138 98.0327 97.2187C97.931 97.0236 97.8896 96.8682 97.9086 96.7524C97.999 96.2025 98.0784 95.6284 98.1469 95.0303C98.2177 94.4177 98.2838 93.7894 98.3449 93.1455C98.152 93.1435 97.9807 93.1005 97.831 93.0165C97.6982 92.9204 97.6147 92.7952 97.5806 92.6409C97.5197 92.3783 97.5698 92.1635 97.7309 91.9968C97.8921 91.83 98.1317 91.6836 98.4496 91.5574C98.4652 91.0101 98.4796 90.4699 98.4928 89.937C98.5205 89.4065 98.5385 88.8893 98.547 88.3853C98.5468 88.2961 98.5671 88.2177 98.6079 88.1501C98.6487 88.0824 98.6956 88.0233 98.7485 87.9725C98.8038 87.9073 98.8941 87.8552 99.0194 87.8163C99.2194 87.7749 99.4198 87.8672 99.6205 88.0934C99.8356 88.3219 99.9628 88.5881 100.002 88.8918C100 89.1739 99.9915 89.4994 99.9755 89.8684C99.9764 90.2252 99.964 90.6171 99.9385 91.0439C100.273 90.9057 100.589 90.7494 100.885 90.5751C101.196 90.4032 101.465 90.2096 101.694 89.9945C101.937 89.7817 102.13 89.5534 102.274 89.3096C102.421 89.0512 102.496 88.7737 102.5 88.4772C102.512 88.2264 102.439 87.9914 102.282 87.7724C102.127 87.5389 101.848 87.3816 101.445 87.3006C101.086 87.2267 100.719 87.1962 100.345 87.2092C99.9861 87.2245 99.6233 87.2615 99.2569 87.3203C98.9051 87.3814 98.5496 87.4642 98.1906 87.5687C97.846 87.6757 97.5087 87.7838 97.1787 87.8931C96.957 87.9756 96.7461 87.9929 96.5458 87.9452C96.3624 87.8853 96.2513 87.7928 96.2124 87.6675C96.1297 87.3566 96.1797 87.0973 96.3625 86.8895C96.5597 86.6841 96.8342 86.5062 97.1858 86.3559C97.487 86.2419 97.8388 86.1361 98.2412 86.0387C98.6605 85.9292 99.0895 85.851 99.5282 85.8042C99.9838 85.7452 100.432 85.7297 100.874 85.7576C101.332 85.7734 101.757 85.8507 102.151 85.9896C102.547 86.1141 102.886 86.311 103.169 86.5804C103.468 86.8376 103.686 87.1855 103.822 87.6241C103.959 88.3302 103.923 88.956 103.714 89.5014C103.523 90.0348 103.222 90.5057 102.814 90.9141C102.421 91.3105 101.956 91.6576 101.416 91.9555C100.894 92.2412 100.37 92.4896 99.8448 92.7006C99.7888 93.4941 99.7123 94.2767 99.6153 95.0485C99.5183 95.8203 99.415 96.4945 99.3055 97.071ZM108.029 98.5036C107.988 98.6604 107.892 98.7933 107.741 98.9021C107.587 99.0255 107.431 99.0668 107.274 99.0262C107.031 98.9713 106.858 98.8464 106.756 98.6513C106.655 98.4562 106.613 98.3008 106.632 98.185C106.722 97.6351 106.802 97.061 106.87 96.4629C106.941 95.8503 107.007 95.222 107.068 94.5781C106.876 94.5761 106.704 94.5331 106.555 94.4491C106.422 94.3529 106.338 94.2278 106.304 94.0735C106.243 93.8108 106.293 93.5961 106.454 93.4294C106.616 93.2626 106.855 93.1162 107.173 92.99C107.189 92.4427 107.203 91.9025 107.216 91.3696C107.244 90.8391 107.262 90.3218 107.271 89.8179C107.27 89.7287 107.291 89.6503 107.331 89.5826C107.372 89.515 107.419 89.4558 107.472 89.4051C107.527 89.3399 107.618 89.2878 107.743 89.2489C107.943 89.2075 108.143 89.2998 108.344 89.526C108.559 89.7545 108.686 90.0207 108.726 90.3244C108.724 90.6065 108.715 90.932 108.699 91.301C108.7 91.6578 108.688 92.0497 108.662 92.4765C108.997 92.3383 109.312 92.182 109.609 92.0077C109.919 91.8358 110.189 91.6422 110.417 91.4271C110.66 91.2143 110.854 90.986 110.998 90.7421C111.144 90.4838 111.22 90.2063 111.224 89.9097C111.235 89.6589 111.162 89.424 111.005 89.205C110.85 88.9715 110.571 88.8142 110.169 88.7332C109.809 88.6593 109.443 88.6288 109.069 88.6418C108.71 88.6571 108.347 88.6941 107.98 88.7529C107.629 88.814 107.273 88.8968 106.914 89.0013C106.57 89.1082 106.232 89.2163 105.902 89.3256C105.681 89.4081 105.47 89.4255 105.269 89.3778C105.086 89.3179 104.975 89.2254 104.936 89.1001C104.853 88.7892 104.903 88.5299 105.086 88.3221C105.283 88.1167 105.558 87.9388 105.909 87.7885C106.211 87.6744 106.562 87.5687 106.965 87.4713C107.384 87.3618 107.813 87.2836 108.252 87.2368C108.707 87.1778 109.156 87.1623 109.597 87.1902C110.055 87.206 110.481 87.2833 110.874 87.4222C111.27 87.5467 111.609 87.7436 111.892 88.0129C112.192 88.2702 112.41 88.6181 112.546 89.0566C112.682 89.7628 112.646 90.3886 112.438 90.934C112.246 91.4673 111.946 91.9382 111.537 92.3467C111.145 92.7431 110.679 93.0902 110.14 93.3881C109.617 93.6738 109.093 93.9222 108.568 94.1332C108.512 94.9266 108.436 95.7093 108.339 96.4811C108.242 97.2529 108.139 97.9271 108.029 98.5036ZM119.542 92.7249C118.923 92.9651 118.272 93.1258 117.59 93.207C116.91 93.2737 116.194 93.2453 115.442 93.1217C115.387 93.633 115.465 94.062 115.676 94.4087C115.889 94.7409 116.186 94.9681 116.567 95.0901C116.794 95.1571 117.027 95.1879 117.266 95.1825C117.519 95.1795 117.754 95.1512 117.971 95.0976C118.204 95.032 118.418 94.9555 118.61 94.8683C118.803 94.781 118.974 94.6902 119.123 94.5958C119.273 94.5014 119.422 94.4516 119.571 94.4464C119.723 94.4268 119.833 94.4374 119.901 94.4782C120.091 94.5838 120.128 94.8128 120.011 95.1651C119.703 95.5902 119.305 95.9336 118.816 96.1951C118.33 96.4422 117.811 96.5652 117.262 96.5641C116.784 96.5749 116.31 96.4748 115.84 96.2637C115.369 96.0526 114.969 95.7269 114.64 95.2864C114.362 94.8989 114.173 94.4665 114.073 93.9893C113.973 93.5122 113.94 93.0312 113.975 92.5465C114.006 92.0907 114.112 91.6697 114.294 91.2834C114.491 90.8996 114.745 90.5771 115.055 90.316C115.368 90.0403 115.736 89.8333 116.16 89.6949C116.584 89.5564 117.059 89.5155 117.585 89.5721C118.215 89.6309 118.76 89.8394 119.221 90.1975C119.683 90.5557 119.974 90.9975 120.096 91.5228C120.167 91.8168 120.156 92.0604 120.065 92.2535C119.989 92.449 119.814 92.6061 119.542 92.7249ZM117.288 90.8387C117.138 90.8439 116.971 90.8684 116.785 90.9122C116.614 90.9584 116.447 91.0276 116.283 91.1196C116.136 91.1995 115.993 91.3023 115.853 91.428C115.731 91.5416 115.648 91.6841 115.605 91.8554C115.851 91.8958 116.122 91.9181 116.419 91.9222C116.73 91.9287 117.028 91.9256 117.312 91.9128C117.613 91.888 117.887 91.8512 118.133 91.8024C118.393 91.7559 118.611 91.6951 118.787 91.62C118.716 91.326 118.527 91.1239 118.218 91.0137C117.926 90.8914 117.616 90.8331 117.288 90.8387ZM124.062 91.3491C124.069 91.5733 124.072 91.8265 124.071 92.1086C124.086 92.3786 124.098 92.6631 124.109 92.9621C124.122 93.2466 124.126 93.5371 124.122 93.8337C124.118 94.1303 124.109 94.4112 124.095 94.6765C124.33 94.3287 124.584 93.9616 124.855 93.5752C125.127 93.1887 125.407 92.8409 125.696 92.5315C126.001 92.2101 126.303 91.955 126.602 91.7662C126.915 91.5798 127.23 91.5128 127.549 91.5651C128.026 91.6435 128.396 91.8825 128.657 92.2822C128.933 92.6842 129.137 93.1635 129.268 93.7202C129.417 94.2648 129.51 94.83 129.547 95.4158C129.585 96.0016 129.611 96.5188 129.627 96.9672C129.649 97.3722 129.428 97.6332 128.963 97.75C128.744 97.818 128.59 97.8076 128.5 97.7186C128.411 97.6296 128.365 97.5477 128.362 97.473C128.318 97.2874 128.274 96.968 128.23 96.5148C128.2 96.064 128.149 95.6024 128.078 95.1299C128.021 94.6599 127.934 94.2442 127.815 93.8828C127.696 93.5214 127.525 93.3373 127.303 93.3306C127.04 93.3023 126.777 93.4597 126.512 93.8027C126.289 94.0781 126.052 94.3885 125.802 94.7339C125.569 95.0672 125.334 95.415 125.096 95.7772C124.86 96.125 124.624 96.48 124.386 96.8422C124.165 97.1924 123.956 97.5148 123.759 97.8094C123.641 97.8941 123.499 97.9451 123.332 97.9623C123.183 97.9675 123.033 97.9281 122.884 97.8441C122.746 97.7769 122.642 97.6855 122.572 97.5699C122.502 97.4544 122.475 97.3459 122.491 97.2446C122.547 96.0943 122.578 95.0442 122.585 94.0942C122.607 93.1465 122.589 92.17 122.531 91.1647C122.485 90.8152 122.506 90.5511 122.594 90.3725C122.7 90.1817 122.93 90.1378 123.285 90.2406C123.777 90.4106 124.036 90.7801 124.062 91.3491ZM136.233 91.6089C136.18 91.7488 136.065 91.8118 135.889 91.7978C135.713 91.7837 135.567 91.7672 135.452 91.7482C135.087 91.7032 134.705 91.6776 134.305 91.6713C133.919 91.6674 133.507 91.6889 133.068 91.7357C132.885 91.7651 132.7 91.7125 132.514 91.5779C132.328 91.4433 132.239 91.2205 132.245 90.9095C132.264 90.7937 132.323 90.7067 132.422 90.6486C132.521 90.5905 132.633 90.542 132.758 90.5032C132.96 90.4472 133.196 90.4117 133.466 90.3966C133.739 90.367 134.008 90.3591 134.273 90.373C134.553 90.3892 134.814 90.4247 135.058 90.4796C135.304 90.52 135.503 90.575 135.655 90.6446C135.875 90.7549 136.038 90.8932 136.144 91.0593C136.265 91.2278 136.295 91.411 136.233 91.6089ZM134.546 98.756C134.609 99.0042 134.618 99.2658 134.573 99.5408C134.545 99.8037 134.443 99.9727 134.267 100.048C134.043 100.145 133.827 100.102 133.619 99.9192C133.412 99.7365 133.27 99.5126 133.195 99.2475C133.085 98.9174 133.023 98.5282 133.007 98.0797C132.994 97.6168 133.002 97.1647 133.029 96.7234C133.057 96.2821 133.095 95.8721 133.142 95.4934C133.204 95.1171 133.25 94.8349 133.281 94.6468C133.329 94.4465 133.418 94.2679 133.548 94.1108C133.677 93.9538 133.824 93.8739 133.988 93.8711C134.246 93.9283 134.436 94.0858 134.557 94.3435C134.681 94.5868 134.708 94.8736 134.639 95.2041C134.596 95.4646 134.556 95.7553 134.518 96.0761C134.48 96.3968 134.457 96.72 134.448 97.0455C134.439 97.3711 134.439 97.6905 134.447 98.004C134.457 98.3029 134.49 98.5536 134.546 98.756ZM139.389 93.8661C139.396 94.0904 139.399 94.3435 139.398 94.6256C139.413 94.8957 139.426 95.1801 139.436 95.4791C139.449 95.7636 139.453 96.0541 139.449 96.3507C139.445 96.6473 139.436 96.9282 139.422 97.1935C139.657 96.8457 139.911 96.4786 140.182 96.0922C140.454 95.7057 140.734 95.3579 141.023 95.0486C141.328 94.7271 141.63 94.472 141.929 94.2833C142.242 94.0968 142.557 94.0298 142.876 94.0821C143.353 94.1605 143.723 94.3995 143.984 94.7992C144.26 95.2012 144.464 95.6805 144.595 96.2372C144.744 96.7818 144.837 97.347 144.874 97.9328C144.912 98.5186 144.938 99.0358 144.954 99.4842C144.976 99.8893 144.755 100.15 144.29 100.267C144.071 100.335 143.917 100.325 143.827 100.236C143.738 100.147 143.692 100.065 143.689 99.99C143.645 99.8044 143.601 99.485 143.557 99.0318C143.527 98.581 143.476 98.1194 143.405 97.647C143.348 97.1769 143.261 96.7612 143.142 96.3998C143.023 96.0384 142.852 95.8544 142.63 95.8477C142.367 95.8193 142.104 95.9767 141.839 96.3197C141.616 96.5951 141.379 96.9055 141.129 97.2509C140.896 97.5842 140.661 97.932 140.423 98.2942C140.187 98.642 139.951 98.997 139.713 99.3593C139.492 99.7094 139.283 100.032 139.086 100.326C138.968 100.411 138.826 100.462 138.659 100.479C138.51 100.485 138.36 100.445 138.211 100.361C138.073 100.294 137.969 100.203 137.899 100.087C137.829 99.9714 137.802 99.8629 137.819 99.7616C137.874 98.6114 137.905 97.5612 137.912 96.6112C137.934 95.6635 137.916 94.687 137.858 93.6817C137.812 93.3322 137.833 93.0681 137.922 92.8895C138.027 92.6987 138.257 92.6548 138.612 92.7576C139.104 92.9277 139.363 93.2972 139.389 93.8661ZM151.393 97.0414C151.483 97.2196 151.558 97.4401 151.619 97.7027C151.697 97.9533 151.744 98.2064 151.762 98.4619C151.784 98.867 151.808 99.3094 151.834 99.7891C151.876 100.257 151.907 100.745 151.927 101.254C151.962 101.765 151.982 102.281 151.985 102.802C152.003 103.325 152.011 103.824 152.007 104.299C151.989 104.95 151.839 105.549 151.556 106.097C151.284 106.662 150.901 107.142 150.405 107.536C149.909 107.93 149.328 108.214 148.66 108.387C147.993 108.559 147.266 108.596 146.48 108.497C146.308 108.454 146.142 108.337 145.98 108.147C145.815 107.971 145.746 107.804 145.772 107.645C145.784 107.483 145.878 107.365 146.054 107.29C146.242 107.231 146.425 107.202 146.603 107.202C146.912 107.222 147.234 107.208 147.569 107.159C147.916 107.127 148.248 107.048 148.566 106.922C148.884 106.796 149.179 106.629 149.451 106.421C149.738 106.215 149.974 105.957 150.158 105.645C150.303 105.401 150.405 105.091 150.467 104.715C150.531 104.324 150.565 103.936 150.569 103.55C150.588 103.167 150.581 102.801 150.549 102.454C150.533 102.095 150.511 101.824 150.482 101.641C150.364 101.725 150.216 101.812 150.037 101.902C149.874 101.994 149.689 102.075 149.485 102.146C149.28 102.216 149.057 102.261 148.816 102.281C148.589 102.303 148.361 102.288 148.132 102.236C147.888 102.181 147.671 102.056 147.48 101.861C147.304 101.669 147.156 101.436 147.037 101.164C146.921 100.877 146.839 100.559 146.793 100.21C146.761 99.8627 146.774 99.5082 146.834 99.1464C147.005 98.2828 147.348 97.5514 147.863 96.9522C148.394 96.3409 149.147 95.9219 150.12 95.6954C150.195 95.6928 150.291 95.6938 150.41 95.6983C150.542 95.7052 150.673 95.7266 150.8 95.7625C150.931 95.7839 151.051 95.8185 151.162 95.8665C151.288 95.9168 151.389 95.9781 151.467 96.0502C151.607 96.1922 151.659 96.3717 151.623 96.5888C151.588 96.8059 151.511 96.9567 151.393 97.0414ZM148.169 99.5664C148.143 99.7256 148.128 99.9089 148.123 100.116C148.122 100.309 148.193 100.462 148.338 100.575C148.495 100.705 148.702 100.754 148.96 100.722C149.233 100.692 149.492 100.608 149.737 100.47C149.966 100.345 150.125 100.192 150.214 100.014C150.319 99.8229 150.363 99.5551 150.346 99.2104C150.328 98.8656 150.305 98.5052 150.278 98.1291C150.251 97.753 150.246 97.4179 150.265 97.1237C150.077 97.182 149.868 97.2741 149.64 97.4C149.425 97.5283 149.218 97.7024 149.019 97.9223C148.822 98.1277 148.641 98.3657 148.478 98.6361C148.329 98.9089 148.226 99.219 148.169 99.5664ZM159.962 98.6047C159.736 98.8053 159.498 98.9892 159.247 99.1561C158.997 99.3231 158.76 99.4997 158.536 99.6859C158.327 99.8745 158.151 100.083 158.009 100.313C157.868 100.542 157.8 100.821 157.805 101.149C157.873 101.368 157.891 101.534 157.857 101.648C157.826 101.747 157.754 101.824 157.641 101.88C157.356 101.982 157.106 101.874 156.891 101.556C156.748 101.339 156.662 101.095 156.633 100.822C156.62 100.538 156.649 100.268 156.721 100.012C156.81 99.7442 156.933 99.4896 157.092 99.2481C157.265 99.0089 157.469 98.8047 157.705 98.6354C157.941 98.466 158.185 98.2906 158.438 98.1092C158.693 97.9133 158.928 97.7066 159.142 97.489C159.356 97.2715 159.527 97.0469 159.654 96.8151C159.784 96.5689 159.849 96.3047 159.851 96.0226C159.853 95.9189 159.809 95.8225 159.72 95.7335C159.633 95.6301 159.513 95.5435 159.361 95.474C159.212 95.3899 159.036 95.3313 158.833 95.298C158.647 95.2526 158.448 95.2423 158.236 95.2669C157.887 95.3135 157.567 95.4469 157.279 95.667C156.992 95.8726 156.818 96.119 156.756 96.4061C156.819 96.6543 156.786 96.8123 156.656 96.8801C156.543 96.9358 156.428 96.9542 156.312 96.9352C156.211 96.9185 156.122 96.8741 156.044 96.802C155.754 96.3976 155.664 95.9964 155.774 95.5983C155.898 95.2025 156.118 94.8596 156.433 94.5695C156.734 94.277 157.088 94.0676 157.495 93.9413C157.919 93.8028 158.358 93.756 158.811 93.8007C159.383 93.85 159.894 94.038 160.346 94.3649C160.815 94.6796 161.097 95.1347 161.192 95.73C161.276 96.3977 161.183 96.9622 160.914 97.4233C160.645 97.8845 160.328 98.2783 159.962 98.6047ZM158.097 105.21C158.107 105.42 158.048 105.596 157.921 105.738C157.794 105.881 157.636 105.981 157.448 106.04C157.274 106.1 157.095 106.108 156.909 106.063C156.738 106.02 156.6 105.908 156.496 105.727C156.426 105.612 156.394 105.487 156.401 105.355C156.408 105.222 156.431 105.085 156.469 104.942C156.522 104.802 156.573 104.67 156.623 104.544C156.688 104.421 156.729 104.309 156.746 104.208C156.753 104.164 156.775 104.116 156.814 104.063C156.852 104.01 156.896 103.972 156.944 103.95C157.009 103.916 157.07 103.904 157.128 103.914C157.186 103.923 157.244 103.977 157.302 104.076C157.479 104.268 157.661 104.469 157.85 104.679C158.041 104.874 158.123 105.051 158.097 105.21Z" fill="black"/>
</svg>
