<svg width="175" height="188" viewBox="0 0 175 188" fill="none" xmlns="http://www.w3.org/2000/svg">
<g style="mix-blend-mode:soft-light">
<path d="M15.352 49.4832L141.696 54.9546L160.059 181.968C160.059 181.968 123.148 185.183 99.5099 184.159C17.4673 180.607 0.524698 167.74 0.524698 167.74C10.7274 100.24 11.7675 98.9219 15.352 49.4832Z" fill="#2C2617" fill-opacity="0.7"/>
</g>
<path d="M12.2274 161.024C9.98275 154.152 15.3493 64.4735 18.3132 20.4933L173.99 33.5866C172.17 36.4719 166.694 136.837 164.183 186.66C65.1098 184.91 21.5988 168.84 12.2274 161.024Z" fill="#E3B93E"/>
<path d="M41.5874 41.1242C41.7135 42.4334 41.7838 43.7383 41.7982 45.0391C41.8138 46.3239 41.8054 47.6069 41.7731 48.8881C41.7783 49.0329 41.7527 49.1593 41.6965 49.2674C41.6414 49.3595 41.571 49.4425 41.4852 49.5162C41.4154 49.5912 41.3388 49.6496 41.2554 49.6915C41.188 49.7345 41.1303 49.7543 41.0824 49.7507C40.9069 49.7374 40.7374 49.6445 40.574 49.4717C40.4276 49.2842 40.3487 49.0536 40.3372 48.78C40.335 48.1701 40.3328 47.5602 40.3305 46.9503C40.3283 46.3404 40.3181 45.7299 40.2999 45.1188C38.5899 45.4554 36.7882 45.7289 34.8951 45.9394C34.9325 46.2952 34.9699 46.651 35.0073 47.0069C35.0447 47.3627 35.09 47.7191 35.1434 48.0761C35.1545 48.1411 35.1547 48.2454 35.1439 48.389C35.1491 48.5338 35.1297 48.6848 35.0857 48.8419C35.0578 49.0003 34.9985 49.1482 34.9079 49.2858C34.8345 49.4087 34.7236 49.4966 34.5752 49.5496C34.4463 49.5559 34.3137 49.5058 34.1773 49.3993C34.041 49.2928 33.9524 49.1898 33.9118 49.0905C33.7575 48.5815 33.6185 47.9773 33.4946 47.2781C33.3867 46.58 33.2972 45.8512 33.226 45.0917C33.172 44.3175 33.1505 43.5377 33.1615 42.7523C33.1724 41.9669 33.2209 41.2164 33.3069 40.5009C33.3568 40.2639 33.4572 40.103 33.608 40.0181C33.7759 39.9184 33.9237 39.8734 34.0514 39.883C34.195 39.8938 34.311 39.9507 34.3995 40.0536C34.504 40.1578 34.5828 40.284 34.6358 40.4324C34.6888 40.5808 34.7258 40.728 34.7469 40.874C34.768 41.02 34.775 41.1409 34.7678 41.2366C34.7453 41.7484 34.7314 42.2527 34.7261 42.7497C34.7207 43.2467 34.7393 43.7455 34.7819 44.2461C35.604 44.1957 36.5009 44.1108 37.4726 43.9914C38.4455 43.8561 39.3644 43.6926 40.2292 43.501C40.2249 43.1316 40.2126 42.7616 40.1924 42.3911C40.1734 42.0046 40.1537 41.626 40.1335 41.2554C40.1539 40.9842 40.2517 40.7509 40.4269 40.5555C40.618 40.3613 40.8013 40.2708 40.9768 40.284C41.1044 40.2936 41.2273 40.367 41.3453 40.5043C41.4793 40.6427 41.56 40.8494 41.5874 41.1242ZM50.0226 42.9386C50.488 43.1501 50.8671 43.4434 51.1598 43.8184C51.4684 44.1946 51.6936 44.6127 51.8355 45.0727C51.9786 45.5167 52.0407 45.9706 52.0218 46.4345C52.0189 46.8996 51.9386 47.3268 51.7809 47.716C51.5718 48.1496 51.3154 48.5715 51.0117 48.9819C50.7081 49.3922 50.3681 49.7517 49.9919 50.0603C49.6157 50.369 49.1964 50.6102 48.734 50.784C48.2717 50.9577 47.7693 51.0242 47.2268 50.9834C46.5727 50.9341 46.0336 50.7411 45.6097 50.4044C45.1858 50.0676 44.8642 49.6503 44.645 49.1524C44.4257 48.6545 44.299 48.0995 44.2649 47.4872C44.2467 46.8761 44.3083 46.271 44.4497 45.6719C44.5471 45.23 44.6833 44.807 44.8581 44.403C45.0501 43.9842 45.2777 43.6243 45.5411 43.3232C45.8056 43.0062 46.0973 42.7554 46.416 42.5708C46.7508 42.3874 47.1175 42.3107 47.5164 42.3407C47.7398 42.3576 48.0154 42.4264 48.3432 42.5474C48.6723 42.6524 48.9744 42.7955 49.2496 42.9766C49.4714 42.8008 49.7291 42.7881 50.0226 42.9386ZM48.9817 44.6172C48.8146 44.4923 48.618 44.333 48.3919 44.1395C48.1829 43.9313 47.9907 43.8205 47.8152 43.8073C47.6237 43.7929 47.4256 43.8662 47.221 44.0273C47.0323 44.1896 46.8571 44.385 46.6955 44.6135C46.551 44.8273 46.4219 45.0502 46.3082 45.2823C46.1944 45.5145 46.1162 45.7011 46.0735 45.8423C46.0076 46.078 45.9541 46.3628 45.9129 46.6967C45.8717 47.0305 45.8704 47.3674 45.909 47.7072C45.9488 48.0311 46.0463 48.3353 46.2013 48.6197C46.3736 48.8894 46.639 49.0939 46.9975 49.2332C47.2161 49.3139 47.4794 49.3337 47.7873 49.2927C48.0965 49.2357 48.4018 49.1223 48.7034 48.9525C49.021 48.7839 49.3194 48.5496 49.5987 48.2497C49.894 47.951 50.129 47.5997 50.3038 47.1957C50.4982 46.745 50.5342 46.2664 50.4119 45.7597C50.3068 45.2384 50.0312 44.8486 49.5854 44.5904C49.4677 44.6618 49.353 44.6932 49.2413 44.6848C49.1296 44.6764 49.0431 44.6539 48.9817 44.6172ZM62.6051 51.7319C62.4643 51.8978 62.3117 52.0067 62.1473 52.0585C61.9842 52.0943 61.8388 52.1075 61.7111 52.0978C61.489 52.0651 61.287 51.9777 61.1051 51.8356C60.9245 51.6776 60.8156 51.525 60.7786 51.3778C60.7032 51.0994 60.6224 50.7884 60.5359 50.445C60.4494 50.1015 60.363 49.758 60.2765 49.4146C60.2072 49.0564 60.1287 48.7135 60.0411 48.386C59.9546 48.0425 59.8737 47.7316 59.7984 47.4532C59.4373 47.9876 59.0915 48.5311 58.7611 49.0839C58.4318 49.6207 58.0689 50.179 57.6723 50.7589C57.4947 50.9862 57.2986 51.1399 57.084 51.22C56.8706 51.2842 56.6927 51.3029 56.5503 51.2761C56.344 51.2445 56.1586 51.1504 55.9939 50.9935C55.8452 50.8379 55.7277 50.6927 55.6416 50.5579C55.4877 50.2575 55.3399 49.8773 55.198 49.4173C55.0573 48.9414 54.9258 48.4502 54.8035 47.9436C54.6983 47.4222 54.6006 46.9094 54.5102 46.4052C54.421 45.8851 54.3515 45.4225 54.3017 45.0177C54.2743 44.7428 54.2935 44.4875 54.3594 44.2518C54.4412 44.0173 54.595 43.8925 54.8208 43.8774C55.0932 43.8819 55.3333 43.9962 55.5411 44.2204C55.75 44.4287 55.8633 44.6298 55.8808 44.8236C55.9205 45.1475 55.9659 45.504 56.0169 45.8929C56.085 46.267 56.1525 46.6492 56.2194 47.0393C56.3022 47.4306 56.3777 47.8134 56.4458 48.1876C56.5299 48.5629 56.6169 48.8984 56.707 49.194C56.9752 48.8291 57.2714 48.4102 57.5959 47.9372C57.9374 47.4494 58.2613 46.9844 58.5673 46.5422C58.8746 46.0839 59.1531 45.6877 59.4029 45.3535C59.6527 45.0193 59.8444 44.8172 59.9781 44.747C60.0786 44.6904 60.2136 44.7086 60.3831 44.8016C60.5538 44.8786 60.6742 44.9839 60.7444 45.1176C61.0426 45.846 61.2715 46.6414 61.4312 47.5039C61.6081 48.3515 61.7812 49.1428 61.9505 49.8775C62.1955 49.6072 62.463 49.2503 62.7531 48.8068C63.0444 48.3474 63.3296 47.8634 63.6085 47.3549C63.8875 46.8464 64.1505 46.3367 64.3976 45.8258C64.6446 45.3149 64.8476 44.8569 65.0064 44.4516C65.1665 44.0305 65.3576 43.8363 65.5798 43.869C65.8646 43.9226 66.1047 44.0369 66.3001 44.2121C66.4955 44.3872 66.5626 44.5608 66.5015 44.7327C66.0448 46.1103 65.4928 47.3684 64.8455 48.507C64.1994 49.6297 63.4526 50.7046 62.6051 51.7319ZM80.2688 41.4128C80.2426 41.122 80.2783 40.86 80.3761 40.6266C80.4899 40.3945 80.6836 40.2727 80.9572 40.2612C81.1989 40.2473 81.4015 40.3268 81.565 40.4995C81.7445 40.6735 81.8485 40.8899 81.8772 41.1488C82.0581 43.0076 82.2158 44.8567 82.3501 46.6959C82.5015 48.5205 82.6235 50.3107 82.7159 52.0666C82.7449 52.5341 82.689 52.8508 82.5481 53.0166C82.4085 53.1666 82.2479 53.2748 82.0664 53.3414C81.8689 53.4068 81.6855 53.3929 81.516 53.3C81.3624 53.2082 81.2695 53.0568 81.2373 52.8458L81.2242 52.7004L81.1266 52.7171C80.5857 52.8689 80.0268 52.9392 79.4501 52.9278C78.8745 52.9005 78.3295 52.7873 77.815 52.5881C77.3005 52.3889 76.849 52.0982 76.4606 51.716C76.0894 51.319 75.837 50.8347 75.7035 50.2631C75.4131 49.0057 75.7365 47.9069 76.6737 46.9666C77.0719 46.5794 77.5549 46.2387 78.1226 45.9445C78.6902 45.6503 79.3642 45.4362 80.1445 45.3024L80.5824 45.2391L80.2688 41.4128ZM77.2084 49.7747C77.2754 50.1648 77.4286 50.4732 77.6683 50.6998C77.908 50.9264 78.2003 51.0928 78.5453 51.199C78.8915 51.2893 79.2658 51.3255 79.6683 51.3076C80.0708 51.2898 80.4683 51.2315 80.8608 51.1327L81.0816 51.0771L80.7286 46.8146L80.2409 46.8982C79.8987 46.9687 79.5283 47.0932 79.1298 47.2718C78.7484 47.4357 78.4039 47.6424 78.0963 47.892C77.7887 48.1416 77.5425 48.4279 77.3577 48.751C77.1889 49.0752 77.1391 49.4164 77.2084 49.7747ZM90.4766 45.984C90.942 46.1955 91.3211 46.4888 91.6137 46.8638C91.9224 47.2401 92.1476 47.6581 92.2895 48.1181C92.4326 48.5621 92.4947 49.016 92.4758 49.4799C92.4729 49.945 92.3926 50.3722 92.2349 50.7615C92.0258 51.195 91.7694 51.6169 91.4657 52.0273C91.162 52.4376 90.8221 52.7971 90.4459 53.1058C90.0696 53.4144 89.6503 53.6556 89.188 53.8294C88.7256 54.0032 88.2232 54.0696 87.6808 54.0288C87.0266 53.9796 86.4876 53.7865 86.0637 53.4498C85.6398 53.113 85.3182 52.6957 85.0989 52.1978C84.8797 51.7 84.753 51.1449 84.7189 50.5326C84.7007 49.9215 84.7623 49.3164 84.9037 48.7173C85.0011 48.2754 85.1372 47.8524 85.3121 47.4484C85.504 47.0297 85.7317 46.6697 85.9951 46.3686C86.2596 46.0516 86.5513 45.8008 86.87 45.6162C87.2047 45.4328 87.5715 45.3561 87.9704 45.3862C88.1938 45.403 88.4694 45.4719 88.7972 45.5928C89.1262 45.6978 89.4284 45.8409 89.7035 46.0221C89.9254 45.8462 90.183 45.8335 90.4766 45.984ZM89.4356 47.6626C89.2685 47.5377 89.0719 47.3785 88.8458 47.185C88.6369 46.9767 88.4446 46.8659 88.2691 46.8527C88.0777 46.8383 87.8796 46.9116 87.6749 47.0727C87.4862 47.235 87.3111 47.4304 87.1495 47.6589C87.005 47.8727 86.8759 48.0956 86.7622 48.3278C86.6484 48.5599 86.5702 48.7465 86.5275 48.8877C86.4616 49.1234 86.408 49.4082 86.3669 49.7421C86.3257 50.0759 86.3244 50.4128 86.363 50.7526C86.4028 51.0765 86.5002 51.3807 86.6553 51.6652C86.8276 51.9348 87.093 52.1393 87.4515 52.2787C87.6701 52.3593 87.9333 52.3791 88.2413 52.3381C88.5504 52.2812 88.8558 52.1678 89.1574 51.9979C89.475 51.8293 89.7734 51.595 90.0527 51.2951C90.3479 50.9965 90.583 50.6451 90.7578 50.2411C90.9522 49.7904 90.9882 49.3118 90.8659 48.8052C90.7607 48.2838 90.4852 47.894 90.0393 47.6358C89.9217 47.7072 89.807 47.7387 89.6953 47.7303C89.5836 47.7219 89.497 47.6993 89.4356 47.6626ZM36.6805 69.2191C36.5641 69.2746 36.4266 69.2883 36.2683 69.2603C36.1111 69.2164 35.9833 69.1025 35.8849 68.9186C35.6548 68.5643 35.3563 68.3733 34.9893 68.3457C34.6543 68.3205 34.3451 68.3774 34.0619 68.5166C33.7958 68.641 33.5495 68.823 33.3228 69.0626C33.1133 69.2875 32.9334 69.5468 32.7829 69.8403C32.6325 70.1338 32.5219 70.4304 32.4512 70.7299C32.3294 71.2823 32.3897 71.7602 32.6321 72.1635C32.8745 72.5669 33.2829 72.7902 33.8573 72.8334C34.3188 72.8842 34.8439 72.8355 35.4327 72.6873C36.0386 72.5243 36.6089 72.3025 37.1435 72.0218C37.374 71.9429 37.5857 71.9027 37.7783 71.9011C37.971 71.8996 38.1233 72.0073 38.2353 72.2243C38.3757 72.4916 38.316 72.7519 38.0562 73.0051C37.7977 73.2424 37.4612 73.4497 37.0467 73.6271C36.631 73.8204 36.1932 73.988 35.7332 74.1299C35.2904 74.257 34.8427 74.3436 34.3899 74.3898C33.9384 74.42 33.4917 74.3863 33.0497 74.2889C32.6237 74.1926 32.2283 74.0104 31.8634 73.7423C31.2884 73.2818 30.9658 72.6639 30.8958 71.8884C30.8259 71.113 30.9412 70.3274 31.2417 69.5317C31.3603 69.2358 31.5187 68.9429 31.717 68.6529C31.9166 68.3471 32.1456 68.0755 32.4041 67.8382C32.6786 67.6022 32.9741 67.4078 33.2904 67.2551C33.608 67.0865 33.9526 66.9841 34.3244 66.9479C34.9219 66.8966 35.4835 67.003 36.0092 67.2672C36.536 67.5155 36.8656 67.9334 36.9979 68.521C37.0202 68.651 37.0099 68.7866 36.9672 68.9278C36.9257 69.0531 36.8301 69.1502 36.6805 69.2191ZM46.0775 70.456C45.4277 70.7762 44.7359 71.0129 44.0024 71.1663C43.27 71.3037 42.489 71.3412 41.6593 71.2787C41.6492 71.8395 41.7751 72.2983 42.0371 72.6549C42.3002 72.9957 42.6448 73.2141 43.0708 73.3104C43.3236 73.3615 43.5795 73.3728 43.8384 73.3441C44.1132 73.3167 44.3659 73.2635 44.5965 73.1846C44.8442 73.0909 45.0686 72.9875 45.2697 72.8742C45.4708 72.761 45.6479 72.646 45.8011 72.5292C45.9543 72.4123 46.1119 72.344 46.2738 72.3241C46.437 72.2882 46.5573 72.2892 46.6346 72.3272C46.852 72.4237 46.9138 72.6691 46.8199 73.0631C46.5262 73.5545 46.1262 73.9656 45.6199 74.2965C45.1149 74.6115 44.5636 74.7946 43.966 74.8459C43.4483 74.9032 42.9236 74.8397 42.3919 74.6552C41.8602 74.4708 41.3946 74.1549 40.9951 73.7077C40.6557 73.3131 40.409 72.8613 40.2547 72.3523C40.1005 71.8433 40.0193 71.3237 40.0111 70.7936C40.0004 70.2954 40.0758 69.8277 40.237 69.3906C40.4142 68.9547 40.6591 68.58 40.9715 68.2666C41.2851 67.9372 41.6657 67.677 42.1133 67.4861C42.5609 67.2951 43.0731 67.2053 43.6498 67.2167C44.3395 67.2204 44.9521 67.3949 45.4877 67.7401C46.0233 68.0853 46.3824 68.5375 46.5649 69.0968C46.6698 69.4096 46.6818 69.6752 46.6012 69.8938C46.5365 70.1135 46.362 70.301 46.0775 70.456ZM43.4478 68.6215C43.2859 68.6414 43.1062 68.684 42.9087 68.7494C42.7272 68.8159 42.5519 68.907 42.3827 69.0226C42.2307 69.1235 42.0849 69.2489 41.9452 69.3989C41.8227 69.534 41.7463 69.6968 41.7159 69.887C41.9872 69.9074 42.2841 69.9057 42.6068 69.8819C42.9455 69.8592 43.2688 69.8274 43.5767 69.7864C43.9018 69.7307 44.1956 69.6645 44.4581 69.588C44.7366 69.5127 44.9677 69.4258 45.1516 69.3274C45.0468 69.0146 44.8213 68.8131 44.4751 68.7229C44.1461 68.6179 43.8036 68.5841 43.4478 68.6215ZM51.585 65.2628C51.5338 67.0079 51.5337 68.821 51.5846 70.7022C51.6368 72.5673 51.7109 74.3539 51.8069 76.062C51.8019 76.7676 51.5835 77.1122 51.1515 77.0957C51.0557 77.0885 50.9624 77.0494 50.8715 76.9783C50.7818 76.8913 50.7012 76.789 50.6299 76.6713C50.5585 76.5536 50.4877 76.428 50.4176 76.2943C50.3633 76.1619 50.3319 76.0472 50.3231 75.9503C50.2567 75.127 50.2019 74.2564 50.1587 73.3386C50.1155 72.4207 50.0802 71.5035 50.053 70.5869C50.0429 69.6555 50.0389 68.7486 50.0412 67.8663C50.0434 66.984 50.0642 66.1752 50.1035 65.4401C50.1642 65.0596 50.2441 64.7447 50.3431 64.4954C50.4433 64.2302 50.6204 64.1152 50.8745 64.1504C51.1445 64.1867 51.3276 64.3128 51.4236 64.5287C51.5369 64.7297 51.5906 64.9744 51.585 65.2628ZM57.0651 65.6754C57.0139 67.4205 57.0138 69.2336 57.0648 71.1147C57.1169 72.9799 57.191 74.7665 57.287 76.4745C57.2821 77.1801 57.0636 77.5247 56.6316 77.5082C56.5359 77.501 56.4425 77.4619 56.3516 77.3909C56.2619 77.3039 56.1813 77.2016 56.11 77.0839C56.0386 76.9662 55.9678 76.8405 55.8977 76.7069C55.8435 76.5744 55.812 76.4597 55.8032 76.3628C55.7369 75.5395 55.6821 74.6689 55.6388 73.7511C55.5956 72.8333 55.5604 71.916 55.5331 70.9994C55.523 70.068 55.5191 69.1612 55.5213 68.2788C55.5235 67.3965 55.5443 66.5878 55.5836 65.8527C55.6443 65.4722 55.7242 65.1573 55.8232 64.908C55.9234 64.6428 56.1005 64.5277 56.3546 64.5629C56.6246 64.5993 56.8077 64.7254 56.9038 64.9412C57.017 65.1423 57.0708 65.387 57.0651 65.6754ZM63.5638 80.0518C63.5347 80.2261 63.4429 80.3796 63.2885 80.5124C63.1329 80.6612 62.9679 80.721 62.7936 80.6918C62.5236 80.6554 62.324 80.5361 62.1948 80.3338C62.0656 80.1316 62.0058 79.9666 62.0154 79.839C62.0611 79.2327 62.0926 78.6013 62.1099 77.9447C62.1284 77.2722 62.1402 76.5831 62.1452 75.8775C61.9354 75.8938 61.7451 75.8635 61.5744 75.7864C61.4209 75.6946 61.3182 75.5666 61.2664 75.4022C61.1751 75.1226 61.2091 74.8845 61.3683 74.6879C61.5275 74.4912 61.7739 74.3092 62.1074 74.1418C62.072 73.5455 62.0361 72.9571 61.9996 72.3767C61.979 71.7975 61.9492 71.2337 61.9103 70.6852C61.9016 70.5883 61.9161 70.5012 61.9541 70.4238C61.992 70.3464 62.0373 70.2776 62.0899 70.2174C62.1438 70.1412 62.237 70.076 62.3694 70.0218C62.5828 69.9577 62.8094 70.0389 63.049 70.2655C63.3046 70.4934 63.4683 70.7704 63.54 71.0967C63.5651 71.4035 63.5865 71.7581 63.6043 72.1606C63.6393 72.5483 63.6633 72.9753 63.6764 73.4416C64.027 73.2594 64.355 73.0595 64.6602 72.8418C64.9813 72.6253 65.2558 72.3892 65.4837 72.1336C65.7274 71.8792 65.916 71.6126 66.0493 71.3338C66.1838 71.039 66.2391 70.7303 66.2153 70.4076C66.2038 70.134 66.1022 69.8857 65.9104 69.6626C65.7198 69.4237 65.4017 69.2794 64.9562 69.2298C64.5585 69.1838 64.1572 69.1857 63.7523 69.2354C63.3634 69.2864 62.9727 69.3613 62.5802 69.4601C62.2036 69.5601 61.8252 69.684 61.4451 69.8319C61.0808 69.981 60.7246 70.1307 60.3763 70.2809C60.1433 70.3918 59.9158 70.4308 59.6936 70.398C59.4886 70.3505 59.359 70.2605 59.3048 70.1281C59.1852 69.7982 59.2148 69.5116 59.3936 69.2683C59.5883 69.0263 59.8696 68.8067 60.2374 68.6098C60.5537 68.4571 60.9259 68.3086 61.354 68.1644C61.7992 68.0053 62.2579 67.8794 62.7302 67.7866C63.2197 67.6791 63.7055 67.6194 64.1878 67.6075C64.6872 67.5809 65.1572 67.6244 65.598 67.7378C66.0399 67.8352 66.4274 68.0168 66.7604 68.2826C67.1105 68.5335 67.3804 68.8908 67.5702 69.3544C67.7862 70.1087 67.8069 70.7922 67.6324 71.4048C67.4751 72.0027 67.1937 72.5431 66.7883 73.026C66.4001 73.4942 65.9271 73.9159 65.3694 74.2911C64.8288 74.6515 64.2832 74.9715 63.7327 75.2509C63.7476 76.1185 63.7392 76.9763 63.7075 77.8243C63.6757 78.6723 63.6278 79.4148 63.5638 80.0518ZM71.782 67.385C71.7531 67.7679 71.7127 68.1981 71.6607 68.6755C71.6247 69.1542 71.5875 69.6488 71.549 70.1593C71.5266 70.6711 71.4949 71.1982 71.4541 71.7407C71.4292 72.2843 71.4061 72.8041 71.3848 73.2999C71.5684 72.9928 71.7833 72.6961 72.0295 72.4097C72.2769 72.1075 72.5452 71.8469 72.8344 71.628C73.1396 71.4103 73.4492 71.241 73.7632 71.1203C74.0931 71.0007 74.4415 70.9547 74.8085 70.9823C75.2073 71.0124 75.5487 71.1664 75.8327 71.4445C76.1325 71.7238 76.3779 72.0873 76.5689 72.5349C76.777 72.9677 76.941 73.4534 77.0609 73.9919C77.182 74.5145 77.27 75.0506 77.3249 75.6003C77.3969 76.1352 77.4383 76.6517 77.4489 77.1499C77.4607 77.6322 77.4694 78.05 77.4749 78.4034C77.4557 78.6587 77.3762 78.8613 77.2366 79.0113C77.0969 79.1612 76.9394 79.2296 76.7639 79.2164C76.6362 79.2067 76.4827 79.115 76.3032 78.941C76.1409 78.7523 76.0289 78.5353 75.9672 78.2899C75.9337 78.0949 75.9069 77.8121 75.8866 77.4415C75.8664 77.0709 75.84 76.6758 75.8074 76.2562C75.776 75.8206 75.7286 75.3838 75.6653 74.9458C75.602 74.5079 75.5112 74.1159 75.3928 73.7701C75.2916 73.4094 75.1525 73.1262 74.9754 72.9203C74.7984 72.7145 74.5804 72.6259 74.3216 72.6545C73.9167 72.7042 73.5447 72.957 73.2055 73.4129C72.8823 73.8699 72.5861 74.3931 72.3171 74.9826C72.0641 75.5733 71.8423 76.1743 71.6519 76.7857C71.4774 77.3984 71.3439 77.8937 71.2512 78.2719C71.1658 78.5542 71.063 78.7471 70.9429 78.8503C70.84 78.9389 70.7247 78.9783 70.597 78.9687C70.4694 78.9591 70.3546 78.8863 70.2525 78.7502C70.1664 78.6154 70.082 78.4566 69.9995 78.2739C69.9342 78.0764 69.8768 77.8796 69.8274 77.6833C69.7792 77.4711 69.7525 77.2926 69.7473 77.1478C69.7324 76.2802 69.7305 75.4537 69.7415 74.6684C69.7536 73.867 69.7738 73.0663 69.802 72.2661C69.8461 71.4672 69.8993 70.6529 69.9618 69.8232C70.0255 68.9776 70.1093 68.0774 70.2132 67.1225C70.2733 66.3247 70.5875 65.9874 71.1559 66.1104C71.3449 66.1567 71.5017 66.3129 71.626 66.579C71.7516 66.8291 71.8036 67.0978 71.782 67.385ZM85.8065 70.7032C86.2719 70.9147 86.651 71.208 86.9437 71.583C87.2523 71.9592 87.4775 72.3773 87.6194 72.8373C87.7625 73.2813 87.8246 73.7352 87.8057 74.1991C87.8028 74.6642 87.7225 75.0914 87.5648 75.4806C87.3557 75.9142 87.0993 76.3361 86.7956 76.7465C86.492 77.1568 86.152 77.5163 85.7758 77.8249C85.3996 78.1336 84.9803 78.3748 84.5179 78.5486C84.0556 78.7223 83.5532 78.7888 83.0107 78.748C82.3566 78.6987 81.8175 78.5057 81.3936 78.1689C80.9697 77.8322 80.6481 77.4149 80.4289 76.917C80.2096 76.4191 80.0829 75.8641 80.0488 75.2518C80.0306 74.6407 80.0922 74.0356 80.2336 73.4365C80.331 72.9946 80.4672 72.5716 80.642 72.1676C80.834 71.7488 81.0616 71.3889 81.325 71.0878C81.5895 70.7708 81.8812 70.52 82.1999 70.3354C82.5347 70.152 82.9014 70.0753 83.3003 70.1053C83.5237 70.1221 83.7993 70.191 84.1271 70.312C84.4562 70.417 84.7583 70.5601 85.0335 70.7412C85.2553 70.5654 85.513 70.5527 85.8065 70.7032ZM84.7656 72.3817C84.5985 72.2569 84.4019 72.0976 84.1758 71.9041C83.9668 71.6958 83.7746 71.5851 83.5991 71.5719C83.4076 71.5575 83.2095 71.6308 83.0049 71.7919C82.8162 71.9542 82.641 72.1496 82.4794 72.3781C82.3349 72.5919 82.2058 72.8148 82.0921 73.0469C81.9783 73.279 81.9001 73.4657 81.8574 73.6069C81.7915 73.8426 81.738 74.1274 81.6968 74.4612C81.6556 74.7951 81.6543 75.132 81.6929 75.4718C81.7327 75.7957 81.8302 76.0999 81.9853 76.3843C82.1575 76.654 82.4229 76.8585 82.7814 76.9978C83 77.0785 83.2633 77.0983 83.5712 77.0573C83.8804 77.0003 84.1857 76.8869 84.4873 76.7171C84.8049 76.5485 85.1033 76.3142 85.3826 76.0143C85.6779 75.7156 85.9129 75.3643 86.0877 74.9603C86.2821 74.5096 86.3181 74.031 86.1958 73.5243C86.0907 73.003 85.8152 72.6132 85.3693 72.355C85.2516 72.4264 85.1369 72.4578 85.0252 72.4494C84.9135 72.441 84.827 72.4185 84.7656 72.3817ZM91.9539 71.6232C91.9838 71.8662 92.0112 72.141 92.0362 72.4477C92.0784 72.7397 92.1194 73.0477 92.1592 73.3716C92.2002 73.6795 92.2327 73.9948 92.2565 74.3175C92.2803 74.6402 92.2974 74.9464 92.3077 75.236C92.5304 74.8356 92.7708 74.4124 93.029 73.9665C93.2872 73.5207 93.5584 73.1159 93.8425 72.7522C94.1438 72.3737 94.4476 72.0677 94.754 71.834C95.0763 71.6016 95.413 71.4985 95.764 71.525C96.2905 71.5646 96.7149 71.7891 97.0371 72.1984C97.3752 72.609 97.6423 73.1104 97.8384 73.7028C98.0516 74.2805 98.2066 74.8858 98.3034 75.5189C98.4001 76.1519 98.4784 76.7114 98.5381 77.1972C98.6014 77.6352 98.3859 77.9399 97.8916 78.1113C97.6598 78.2061 97.4911 78.2095 97.3854 78.1213C97.2798 78.0331 97.2219 77.9485 97.212 77.8676C97.1466 77.6701 97.0681 77.3272 96.9765 76.839C96.9009 76.3519 96.8019 75.8551 96.6796 75.3485C96.5732 74.8431 96.4381 74.3997 96.2743 74.0183C96.1105 73.6369 95.9077 73.4532 95.666 73.4671C95.3776 73.4614 95.1061 73.6576 94.8515 74.0556C94.6348 74.3762 94.4071 74.7362 94.1685 75.1354C93.947 75.5198 93.7243 75.9203 93.5004 76.3366C93.2778 76.737 93.0545 77.1454 92.8306 77.5618C92.6239 77.9634 92.4275 78.3337 92.2415 78.6727C92.1214 78.776 91.9718 78.845 91.7927 78.8796C91.6308 78.8995 91.4645 78.8709 91.2938 78.7939C91.1378 78.734 91.0162 78.6446 90.9289 78.5258C90.8415 78.4069 90.8021 78.2916 90.8105 78.1799C90.7606 76.9246 90.6943 75.7804 90.6116 74.7473C90.5449 73.7154 90.4321 72.6559 90.2732 71.5689C90.1892 71.1935 90.1869 70.9046 90.2663 70.7019C90.3629 70.4846 90.6088 70.4148 91.0041 70.4927C91.5553 70.6305 91.8719 71.0073 91.9539 71.6232ZM106.665 75.0171C106.015 75.3372 105.323 75.574 104.589 75.7273C103.857 75.8647 103.076 75.9022 102.246 75.8398C102.236 76.4006 102.362 76.8593 102.624 77.216C102.887 77.5567 103.232 77.7752 103.658 77.8715C103.911 77.9226 104.167 77.9338 104.425 77.9052C104.7 77.8777 104.953 77.8245 105.184 77.7456C105.431 77.652 105.656 77.5485 105.857 77.4353C106.058 77.3221 106.235 77.207 106.388 77.0902C106.541 76.9734 106.699 76.905 106.861 76.8851C107.024 76.8493 107.144 76.8503 107.222 76.8882C107.439 76.9848 107.501 77.2301 107.407 77.6242C107.113 78.1155 106.713 78.5267 106.207 78.8576C105.702 79.1726 105.151 79.3557 104.553 79.407C104.035 79.4643 103.511 79.4007 102.979 79.2163C102.447 79.0319 101.982 78.716 101.582 78.2688C101.243 77.8742 100.996 77.4224 100.842 76.9134C100.688 76.4043 100.606 75.8848 100.598 75.3547C100.587 74.8565 100.663 74.3888 100.824 73.9517C101.001 73.5157 101.246 73.1411 101.558 72.8276C101.872 72.4982 102.253 72.2381 102.7 72.0471C103.148 71.8562 103.66 71.7664 104.237 71.7777C104.927 71.7815 105.539 71.956 106.075 72.3012C106.61 72.6464 106.969 73.0986 107.152 73.6579C107.257 73.9706 107.269 74.2363 107.188 74.4548C107.124 74.6746 106.949 74.862 106.665 75.0171ZM104.035 73.1825C103.873 73.2024 103.693 73.2451 103.496 73.3104C103.314 73.377 103.139 73.4681 102.97 73.5837C102.818 73.6846 102.672 73.81 102.532 73.9599C102.41 74.0951 102.333 74.2578 102.303 74.4481C102.574 74.4685 102.871 74.4668 103.194 74.4429C103.532 74.4203 103.856 74.3885 104.164 74.3475C104.489 74.2917 104.783 74.2256 105.045 74.1491C105.324 74.0738 105.555 73.9869 105.739 73.8884C105.634 73.5757 105.408 73.3742 105.062 73.2839C104.733 73.1789 104.391 73.1451 104.035 73.1825ZM123.154 73.0093C123.185 73.4609 123.196 73.9431 123.19 74.4561C123.201 74.9543 123.195 75.4593 123.172 75.971C123.166 76.484 123.144 76.9798 123.108 77.4584C123.072 77.9371 123.032 78.3672 122.987 78.749C123.471 79.1384 123.751 79.4723 123.826 79.7508C123.917 80.0304 123.915 80.2709 123.82 80.4723C123.703 80.7523 123.516 80.8907 123.259 80.8874C123.02 80.8694 122.747 80.7606 122.441 80.5611C122.206 80.7038 121.938 80.8601 121.636 81.03C121.336 81.1839 121.019 81.3365 120.687 81.488C120.356 81.6235 120.026 81.7431 119.697 81.8467C119.369 81.9503 119.067 82.0159 118.792 82.0433C118.275 82.0847 117.82 81.9541 117.425 81.6516C117.047 81.3504 116.806 80.9231 116.704 80.3698C116.636 79.9957 116.64 79.6189 116.717 79.2396C116.794 78.8443 116.942 78.4784 117.16 78.1418C117.379 77.7893 117.659 77.4814 118 77.2183C118.357 76.9563 118.764 76.7623 119.223 76.6364C119.338 76.597 119.493 76.5685 119.687 76.551C119.897 76.5347 120.105 76.5423 120.311 76.5739C120.534 76.5907 120.755 76.6474 120.972 76.744C121.189 76.8406 121.386 76.9918 121.563 77.1977C121.584 76.9265 121.598 76.6307 121.606 76.3104C121.631 75.9754 121.649 75.6397 121.658 75.3035C121.667 74.9672 121.667 74.6543 121.656 74.3647C121.663 74.0604 121.659 73.8033 121.642 73.5935C121.628 73.3517 121.543 73.2009 121.388 73.1411C121.249 73.0664 121.065 73.0606 120.835 73.1235C120.443 73.2224 119.977 73.436 119.439 73.7646C118.901 74.0931 118.385 74.4473 117.891 74.8273C117.737 74.9601 117.564 75.0113 117.374 74.981C117.2 74.9518 117.054 74.8686 116.936 74.7313C116.818 74.5941 116.757 74.4451 116.753 74.2843C116.75 74.1076 116.828 73.929 116.986 73.7483C117.278 73.4815 117.604 73.2092 117.962 72.9313C118.319 72.6534 118.691 72.4086 119.076 72.1969C119.462 71.9692 119.853 71.79 120.248 71.6593C120.642 71.5286 121.032 71.4696 121.416 71.4825C121.976 71.5086 122.397 71.6687 122.68 71.9627C122.964 72.2408 123.122 72.5897 123.154 73.0093ZM119.991 77.9458C119.78 77.978 119.549 78.0649 119.297 78.2064C119.063 78.3332 118.842 78.5011 118.634 78.71C118.443 78.9042 118.289 79.1334 118.173 79.3974C118.074 79.6467 118.055 79.9019 118.115 80.1632C118.14 80.2613 118.198 80.3379 118.29 80.393C118.398 80.4493 118.518 80.4663 118.648 80.444C119.036 80.393 119.479 80.2739 119.974 80.0866C120.487 79.8845 120.897 79.6586 121.204 79.409C121.212 79.3133 121.173 79.19 121.088 79.0392C121.004 78.8725 120.904 78.7125 120.787 78.5593C120.671 78.3901 120.538 78.2437 120.387 78.12C120.252 77.9975 120.12 77.9394 119.991 77.9458ZM129.456 85.0123C129.427 85.1866 129.335 85.3401 129.181 85.4729C129.025 85.6216 128.86 85.6814 128.686 85.6522C128.416 85.6159 128.216 85.4965 128.087 85.2943C127.958 85.092 127.898 84.9271 127.908 84.7994C127.953 84.1931 127.985 83.5617 128.002 82.9052C128.021 82.2327 128.032 81.5436 128.037 80.838C127.828 80.8543 127.637 80.8239 127.467 80.7469C127.313 80.6551 127.21 80.527 127.159 80.3627C127.067 80.083 127.101 79.8449 127.261 79.6483C127.42 79.4517 127.666 79.2697 128 79.1022C127.964 78.5059 127.928 77.9175 127.892 77.3372C127.871 76.758 127.842 76.1942 127.803 75.6457C127.794 75.5488 127.808 75.4616 127.846 75.3842C127.884 75.3069 127.93 75.2381 127.982 75.1779C128.036 75.1017 128.129 75.0365 128.262 74.9823C128.475 74.9181 128.702 74.9994 128.941 75.226C129.197 75.4538 129.361 75.7309 129.432 76.0572C129.457 76.3639 129.479 76.7186 129.497 77.121C129.532 77.5087 129.556 77.9358 129.569 78.402C129.919 78.2199 130.247 78.0199 130.552 77.8022C130.874 77.5857 131.148 77.3496 131.376 77.094C131.62 76.8396 131.808 76.573 131.942 76.2942C132.076 75.9995 132.131 75.6908 132.108 75.3681C132.096 75.0944 131.994 74.8461 131.803 74.6231C131.612 74.3841 131.294 74.2398 130.848 74.1902C130.451 74.1443 130.05 74.1461 129.645 74.1959C129.256 74.2468 128.865 74.3217 128.472 74.4205C128.096 74.5205 127.718 74.6445 127.337 74.7924C126.973 74.9414 126.617 75.0911 126.269 75.2414C126.036 75.3522 125.808 75.3912 125.586 75.3585C125.381 75.311 125.251 75.221 125.197 75.0885C125.078 74.7586 125.107 74.472 125.286 74.2288C125.481 73.9867 125.762 73.7672 126.13 73.5703C126.446 73.4176 126.818 73.2691 127.246 73.1248C127.691 72.9658 128.15 72.8399 128.623 72.7471C129.112 72.6395 129.598 72.5798 130.08 72.568C130.579 72.5414 131.05 72.5848 131.49 72.6982C131.932 72.7957 132.32 72.9773 132.653 73.243C133.003 73.494 133.273 73.8513 133.462 74.3148C133.678 75.0692 133.699 75.7526 133.525 76.3653C133.367 76.9632 133.086 77.5036 132.681 77.9865C132.292 78.4547 131.819 78.8763 131.262 79.2515C130.721 79.612 130.176 79.9319 129.625 80.2114C129.64 81.079 129.631 81.9367 129.6 82.7847C129.568 83.6328 129.52 84.3753 129.456 85.0123ZM139.073 85.7362C139.044 85.9105 138.952 86.0641 138.798 86.1968C138.642 86.3456 138.477 86.4054 138.303 86.3762C138.033 86.3398 137.833 86.2205 137.704 86.0182C137.575 85.816 137.515 85.651 137.525 85.5234C137.57 84.9171 137.602 84.2857 137.619 83.6291C137.638 82.9566 137.649 82.2676 137.654 81.5619C137.445 81.5782 137.254 81.5479 137.084 81.4708C136.93 81.3791 136.827 81.251 136.776 81.0866C136.684 80.807 136.718 80.5689 136.877 80.3723C137.037 80.1757 137.283 79.9936 137.617 79.8262C137.581 79.2299 137.545 78.6415 137.509 78.0611C137.488 77.482 137.458 76.9181 137.419 76.3697C137.411 76.2727 137.425 76.1856 137.463 76.1082C137.501 76.0308 137.546 75.962 137.599 75.9018C137.653 75.8257 137.746 75.7605 137.879 75.7063C138.092 75.6421 138.319 75.7233 138.558 75.95C138.814 76.1778 138.977 76.4549 139.049 76.7812C139.074 77.0879 139.096 77.4425 139.113 77.845C139.148 78.2327 139.172 78.6597 139.186 79.126C139.536 78.9438 139.864 78.7439 140.169 78.5262C140.49 78.3097 140.765 78.0736 140.993 77.818C141.237 77.5636 141.425 77.297 141.558 77.0182C141.693 76.7235 141.748 76.4147 141.724 76.092C141.713 75.8184 141.611 75.5701 141.42 75.3471C141.229 75.1081 140.911 74.9638 140.465 74.9142C140.068 74.8682 139.666 74.8701 139.261 74.9199C138.873 74.9708 138.482 75.0457 138.089 75.1445C137.713 75.2445 137.334 75.3685 136.954 75.5163C136.59 75.6654 136.234 75.8151 135.885 75.9654C135.652 76.0762 135.425 76.1152 135.203 76.0824C134.998 76.0349 134.868 75.9449 134.814 75.8125C134.694 75.4826 134.724 75.196 134.903 74.9527C135.097 74.7107 135.379 74.4912 135.747 74.2942C136.063 74.1415 136.435 73.9931 136.863 73.8488C137.308 73.6898 137.767 73.5638 138.239 73.471C138.729 73.3635 139.215 73.3038 139.697 73.2919C140.196 73.2654 140.666 73.3088 141.107 73.4222C141.549 73.5196 141.937 73.7012 142.27 73.967C142.62 74.218 142.89 74.5752 143.079 75.0388C143.295 75.7931 143.316 76.4766 143.142 77.0892C142.984 77.6871 142.703 78.2275 142.297 78.7105C141.909 79.1786 141.436 79.6003 140.879 79.9755C140.338 80.3359 139.792 80.6559 139.242 80.9354C139.257 81.8029 139.248 82.6607 139.217 83.5087C139.185 84.3567 139.137 85.0992 139.073 85.7362ZM149.832 76.7264C149.813 76.5485 149.794 76.3786 149.774 76.2167C149.754 76.0547 149.682 75.945 149.558 75.8875C149.293 75.7873 149.006 75.7577 148.698 75.7987C148.39 75.8397 148.103 75.9224 147.837 76.0468C147.572 76.1552 147.345 76.2906 147.157 76.4529C146.969 76.5992 146.863 76.7356 146.837 76.862C146.771 77.0977 146.818 77.3339 146.976 77.5705C147.135 77.8071 147.373 78.0496 147.692 78.2982C148.225 78.6753 148.781 79.0622 149.361 79.4588C149.941 79.8555 150.425 80.2529 150.812 80.6511C151.199 81.0493 151.448 81.4772 151.558 81.9347C151.685 82.3775 151.616 82.8697 151.35 83.4113C151.142 83.8289 150.789 84.1552 150.29 84.3904C149.791 84.6256 149.248 84.8014 148.662 84.9177C148.076 85.0181 147.494 85.0785 146.915 85.0991C146.337 85.1037 145.849 85.091 145.45 85.061C145.354 85.0538 145.237 85.0129 145.098 84.9383C144.976 84.8489 144.855 84.7515 144.735 84.6462C144.63 84.542 144.534 84.4385 144.445 84.3356C144.374 84.2179 144.341 84.1191 144.347 84.0394C144.369 83.7522 144.512 83.5624 144.775 83.4699C145.039 83.3774 145.306 83.3414 145.578 83.3618C145.961 83.3906 146.369 83.4053 146.802 83.4058C147.252 83.3916 147.68 83.3596 148.085 83.3099C148.491 83.2442 148.859 83.1515 149.189 83.032C149.518 82.9124 149.756 82.7457 149.9 82.532C150.026 82.3489 149.971 82.1201 149.735 81.8456C149.516 81.5564 149.21 81.2526 148.817 80.9341C148.44 80.6169 148.022 80.3047 147.564 79.9974C147.122 79.6914 146.741 79.414 146.423 79.1654C146.105 78.9168 145.837 78.632 145.621 78.3108C145.406 77.9737 145.283 77.5714 145.254 77.1039C145.27 76.6879 145.388 76.2956 145.608 75.9271C145.828 75.5586 146.101 75.2422 146.425 74.9778C146.767 74.6987 147.144 74.4864 147.556 74.3409C147.968 74.1954 148.374 74.1377 148.773 74.1677C149.456 74.2513 150.008 74.4854 150.429 74.87C150.85 75.2387 151.076 75.7611 151.105 76.4372C151.088 76.6606 151.035 76.8411 150.944 76.9786C150.869 77.1174 150.743 77.1962 150.565 77.2149C150.339 77.23 150.158 77.1922 150.02 77.1016C149.9 76.9963 149.837 76.8712 149.832 76.7264ZM34.8038 94.1486C34.6873 94.204 34.5499 94.2177 34.3916 94.1898C34.2344 94.1458 34.1066 94.0319 34.0081 93.848C33.7781 93.4937 33.4796 93.3028 33.1126 93.2752C32.7776 93.25 32.4684 93.3069 32.1852 93.446C31.9191 93.5704 31.6727 93.7524 31.4461 93.9921C31.2366 94.217 31.0567 94.4762 30.9062 94.7698C30.7557 95.0633 30.6452 95.3598 30.5745 95.6594C30.4527 96.2118 30.513 96.6897 30.7554 97.093C30.9978 97.4963 31.4062 97.7196 31.9805 97.7629C32.442 97.8136 32.9672 97.7649 33.556 97.6167C34.1619 97.4537 34.7322 97.2319 35.2667 96.9513C35.4973 96.8723 35.7089 96.8321 35.9016 96.8306C36.0943 96.829 36.2466 96.9368 36.3586 97.1538C36.499 97.4211 36.4392 97.6813 36.1795 97.9346C35.921 98.1718 35.5845 98.3791 35.17 98.5565C34.7543 98.7499 34.3165 98.9175 33.8565 99.0593C33.4137 99.1865 32.966 99.2731 32.5132 99.3192C32.0617 99.3494 31.6149 99.3158 31.173 99.2183C30.747 99.1221 30.3516 98.9399 29.9867 98.6717C29.4116 98.2113 29.0891 97.5933 29.0191 96.8179C28.9491 96.0424 29.0644 95.2569 29.365 94.4612C29.4836 94.1653 29.642 93.8723 29.8403 93.5824C30.0399 93.2765 30.2689 93.0049 30.5274 92.7677C30.8019 92.5316 31.0973 92.3372 31.4137 92.1846C31.7313 92.0159 32.0759 91.9135 32.4477 91.8773C33.0452 91.826 33.6068 91.9325 34.1325 92.1967C34.6593 92.4449 34.9889 92.8629 35.1211 93.4504C35.1434 93.5805 35.1332 93.7161 35.0905 93.8573C35.049 93.9825 34.9534 94.0796 34.8038 94.1486ZM44.119 92.6356C44.5844 92.8471 44.9635 93.1404 45.2562 93.5155C45.5648 93.8917 45.79 94.3098 45.9319 94.7697C46.075 95.2137 46.1371 95.6677 46.1182 96.1316C46.1153 96.5966 46.035 97.0238 45.8773 97.4131C45.6682 97.8466 45.4118 98.2685 45.1081 98.6789C44.8045 99.0893 44.4645 99.4488 44.0883 99.7574C43.7121 100.066 43.2928 100.307 42.8304 100.481C42.3681 100.655 41.8657 100.721 41.3232 100.68C40.6691 100.631 40.13 100.438 39.7061 100.101C39.2822 99.7646 38.9606 99.3473 38.7414 98.8494C38.5221 98.3516 38.3954 97.7965 38.3613 97.1842C38.3431 96.5731 38.4047 95.968 38.5461 95.369C38.6435 94.927 38.7797 94.5041 38.9545 94.1C39.1465 93.6813 39.3741 93.3214 39.6375 93.0203C39.902 92.7032 40.1937 92.4524 40.5124 92.2678C40.8471 92.0844 41.2139 92.0078 41.6128 92.0378C41.8362 92.0546 42.1118 92.1235 42.4396 92.2444C42.7687 92.3494 43.0708 92.4925 43.346 92.6737C43.5678 92.4978 43.8255 92.4851 44.119 92.6356ZM43.0781 94.3142C42.911 94.1893 42.7144 94.0301 42.4882 93.8366C42.2793 93.6283 42.0871 93.5176 41.9116 93.5043C41.7201 93.4899 41.522 93.5633 41.3174 93.7244C41.1287 93.8867 40.9535 94.0821 40.7919 94.3106C40.6474 94.5243 40.5183 94.7473 40.4046 94.9794C40.2908 95.2115 40.2126 95.3982 40.1699 95.5393C40.104 95.7751 40.0505 96.0599 40.0093 96.3937C39.9681 96.7276 39.9668 97.0644 40.0054 97.4043C40.0452 97.7282 40.1427 98.0323 40.2977 98.3168C40.47 98.5865 40.7354 98.791 41.0939 98.9303C41.3125 99.0109 41.5758 99.0307 41.8837 98.9897C42.1928 98.9328 42.4982 98.8194 42.7998 98.6495C43.1174 98.4809 43.4158 98.2467 43.6951 97.9468C43.9904 97.6481 44.2254 97.2967 44.4002 96.8927C44.5946 96.4421 44.6306 95.9634 44.5083 95.4568C44.4032 94.9354 44.1276 94.5456 43.6818 94.2874C43.5641 94.3588 43.4494 94.3903 43.3377 94.3819C43.226 94.3735 43.1395 94.3509 43.0781 94.3142ZM50.9937 90.2891C50.9425 92.0341 50.9424 93.8473 50.9934 95.7284C51.0455 97.5936 51.1196 99.3802 51.2156 101.088C51.2106 101.794 50.9922 102.138 50.5602 102.122C50.4644 102.115 50.3711 102.076 50.2802 102.005C50.1905 101.918 50.1099 101.815 50.0386 101.698C49.9672 101.58 49.8964 101.454 49.8263 101.321C49.7721 101.188 49.7406 101.073 49.7318 100.976C49.6654 100.153 49.6106 99.2826 49.5674 98.3648C49.5242 97.4469 49.489 96.5297 49.4617 95.6131C49.4516 94.6817 49.4476 93.7748 49.4499 92.8925C49.4521 92.0102 49.4729 91.2015 49.5122 90.4663C49.5729 90.0858 49.6528 89.7709 49.7518 89.5217C49.852 89.2564 50.0291 89.1414 50.2832 89.1766C50.5532 89.213 50.7363 89.3391 50.8323 89.5549C50.9456 89.7559 50.9993 90.0007 50.9937 90.2891ZM56.4738 90.7016C56.4227 92.4467 56.4225 94.2598 56.4735 96.1409C56.5256 98.0061 56.5997 99.7927 56.6957 101.501C56.6908 102.206 56.4723 102.551 56.0403 102.534C55.9446 102.527 55.8512 102.488 55.7603 102.417C55.6706 102.33 55.59 102.228 55.5187 102.11C55.4473 101.992 55.3765 101.867 55.3064 101.733C55.2522 101.601 55.2207 101.486 55.2119 101.389C55.1456 100.566 55.0908 99.6952 55.0475 98.7773C55.0043 97.8595 54.9691 96.9423 54.9418 96.0256C54.9317 95.0942 54.9278 94.1874 54.93 93.3051C54.9322 92.4227 54.953 91.614 54.9923 90.8789C55.053 90.4984 55.1329 90.1835 55.2319 89.9342C55.3321 89.669 55.5092 89.554 55.7633 89.5891C56.0333 89.6255 56.2164 89.7516 56.3125 89.9674C56.4257 90.1685 56.4795 90.4132 56.4738 90.7016ZM65.3154 96.975C64.6656 97.2952 63.9738 97.5319 63.2403 97.6853C62.5079 97.8227 61.7269 97.8602 60.8972 97.7977C60.8871 98.3585 61.013 98.8173 61.275 99.1739C61.5381 99.5147 61.8827 99.7331 62.3087 99.8294C62.5616 99.8805 62.8174 99.8918 63.0763 99.8631C63.3511 99.8357 63.6039 99.7825 63.8344 99.7036C64.0822 99.6099 64.3066 99.5064 64.5076 99.3932C64.7087 99.28 64.8858 99.165 65.039 99.0481C65.1922 98.9313 65.3498 98.8629 65.5118 98.8431C65.6749 98.8072 65.7952 98.8082 65.8725 98.8461C66.0899 98.9427 66.1517 99.1881 66.0578 99.5821C65.7641 100.073 65.3641 100.485 64.8578 100.816C64.3528 101.131 63.8015 101.314 63.2039 101.365C62.6862 101.422 62.1615 101.359 61.6298 101.174C61.0982 100.99 60.6325 100.674 60.233 100.227C59.8937 99.8321 59.6469 99.3803 59.4927 98.8713C59.3384 98.3623 59.2572 97.8427 59.249 97.3126C59.2383 96.8144 59.3137 96.3467 59.4749 95.9096C59.6522 95.4737 59.897 95.099 60.2094 94.7856C60.523 94.4562 60.9036 94.196 61.3512 94.0051C61.7988 93.8141 62.311 93.7243 62.8878 93.7357C63.5774 93.7394 64.1901 93.9139 64.7256 94.2591C65.2612 94.6043 65.6203 95.0565 65.8028 95.6158C65.9077 95.9285 65.9198 96.1942 65.8391 96.4128C65.7744 96.6325 65.5999 96.82 65.3154 96.975ZM62.6857 95.1405C62.5238 95.1604 62.3441 95.203 62.1466 95.2683C61.9651 95.3349 61.7898 95.426 61.6206 95.5416C61.4686 95.6425 61.3228 95.7679 61.1831 95.9179C61.0606 96.053 60.9842 96.2158 60.9538 96.406C61.2251 96.4264 61.522 96.4247 61.8447 96.4009C62.1834 96.3782 62.5067 96.3464 62.8146 96.3054C63.1397 96.2497 63.4335 96.1835 63.696 96.107C63.9745 96.0317 64.2056 95.9448 64.3895 95.8464C64.2847 95.5336 64.0592 95.3321 63.713 95.2419C63.384 95.1369 63.0415 95.1031 62.6857 95.1405ZM73.9368 97.0946C73.8204 97.15 73.6829 97.1637 73.5246 97.1357C73.3674 97.0918 73.2396 96.9779 73.1412 96.794C72.9111 96.4397 72.6126 96.2488 72.2456 96.2212C71.9106 96.1959 71.6014 96.2529 71.3182 96.392C71.0521 96.5164 70.8058 96.6984 70.5791 96.9381C70.3696 97.163 70.1897 97.4222 70.0392 97.7157C69.8888 98.0093 69.7782 98.3058 69.7075 98.6053C69.5857 99.1578 69.646 99.6356 69.8884 100.039C70.1308 100.442 70.5392 100.666 71.1136 100.709C71.5751 100.76 72.1002 100.711 72.689 100.563C73.2949 100.4 73.8652 100.178 74.3998 99.8972C74.6303 99.8183 74.842 99.7781 75.0346 99.7766C75.2273 99.775 75.3796 99.8828 75.4916 100.1C75.632 100.367 75.5723 100.627 75.3125 100.881C75.054 101.118 74.7175 101.325 74.303 101.503C73.8873 101.696 73.4495 101.863 72.9895 102.005C72.5467 102.132 72.099 102.219 71.6462 102.265C71.1947 102.295 70.748 102.262 70.306 102.164C69.88 102.068 69.4846 101.886 69.1197 101.618C68.5447 101.157 68.2221 100.539 68.1521 99.7639C68.0822 98.9884 68.1975 98.2029 68.498 97.4072C68.6166 97.1112 68.775 96.8183 68.9733 96.5284C69.1729 96.2225 69.4019 95.9509 69.6604 95.7137C69.9349 95.4776 70.2304 95.2832 70.5467 95.1305C70.8643 94.9619 71.2089 94.8595 71.5807 94.8233C72.1782 94.772 72.7398 94.8785 73.2655 95.1427C73.7923 95.3909 74.1219 95.8088 74.2542 96.3964C74.2765 96.5265 74.2662 96.6621 74.2235 96.8033C74.182 96.9285 74.0864 97.0256 73.9368 97.0946ZM83.0343 97.5147C83.3386 97.5216 83.6364 97.6162 83.9275 97.7986C84.2186 97.9809 84.3516 98.2396 84.3264 98.5747C84.274 98.8435 84.1093 99.0076 83.832 99.067C83.5719 99.1116 83.3621 99.1279 83.2026 99.1158C82.8835 99.0918 82.5398 99.074 82.1717 99.0623C81.8035 99.0506 81.4268 99.0463 81.0415 99.0494C80.9699 99.5735 80.9008 100.066 80.834 100.526C80.7832 100.988 80.7361 101.401 80.6925 101.767C80.6501 102.117 80.6205 102.403 80.6037 102.627C80.5869 102.85 80.5858 102.97 80.6006 102.987C80.9564 102.95 81.3391 102.875 81.7488 102.761C82.1757 102.633 82.5951 102.496 83.0072 102.35C83.4365 102.19 83.8497 102.029 84.2471 101.866C84.6616 101.689 85.0509 101.525 85.4151 101.376C85.5807 101.309 85.7261 101.295 85.8513 101.337C85.9925 101.38 86.0748 101.458 86.0983 101.572C86.117 101.75 86.0769 101.964 85.9779 102.213C85.8789 102.462 85.7179 102.683 85.4949 102.875C85.2411 103.048 84.9052 103.247 84.4871 103.473C84.0862 103.683 83.654 103.883 83.1904 104.073C82.7269 104.263 82.2571 104.428 81.7812 104.569C81.3225 104.694 80.9164 104.76 80.563 104.766C80.0329 104.774 79.6448 104.6 79.3988 104.245C79.1528 103.889 79.0331 103.455 79.0396 102.942C79.0461 102.429 79.0826 101.838 79.149 101.169C79.2313 100.502 79.3167 99.7941 79.4051 99.0466C79.0995 99.0557 78.8019 99.0654 78.5124 99.0756C78.2399 99.0712 77.9749 99.0753 77.7172 99.088C77.5098 99.0724 77.282 99.0071 77.034 98.8921C76.8018 98.7784 76.696 98.5859 76.7164 98.3147C76.7236 98.219 76.7731 98.0943 76.8649 97.9408C76.9567 97.7872 77.1412 97.6808 77.4184 97.6214C78.081 97.559 78.8141 97.5179 79.6179 97.4982C79.7222 96.7519 79.8327 96.0302 79.9494 95.333C80.066 94.6358 80.1699 94.0018 80.261 93.431C80.2914 93.2407 80.3598 93.0774 80.4664 92.941C80.5729 92.8046 80.682 92.7406 80.7937 92.7491C81.0662 92.7535 81.316 92.8445 81.5433 93.0221C81.7878 93.1849 81.9028 93.362 81.8884 93.5535C81.7838 94.0912 81.6737 94.7006 81.5582 95.3819C81.4587 96.0643 81.358 96.7627 81.2561 97.4771C81.5776 97.4692 81.8819 97.4761 82.1691 97.4977C82.4735 97.5046 82.7619 97.5102 83.0343 97.5147ZM31.7154 115.353C31.6714 115.51 31.5531 115.589 31.3605 115.591C31.1678 115.592 31.0077 115.588 30.88 115.579C30.48 115.564 30.0621 115.573 29.6266 115.604C29.2069 115.637 28.761 115.7 28.2887 115.793C28.0924 115.842 27.8868 115.802 27.6718 115.674C27.4569 115.545 27.3381 115.312 27.3154 114.973C27.325 114.846 27.3807 114.745 27.4824 114.673C27.5842 114.6 27.7013 114.537 27.8337 114.483C28.0483 114.403 28.3016 114.341 28.5936 114.299C28.8868 114.241 29.1782 114.207 29.4678 114.197C29.7733 114.188 30.0611 114.201 30.3312 114.238C30.6024 114.258 30.824 114.299 30.9959 114.36C31.2451 114.459 31.4356 114.593 31.5671 114.764C31.7147 114.935 31.7641 115.132 31.7154 115.353ZM30.565 123.281C30.6574 123.544 30.6923 123.828 30.6694 124.131C30.6638 124.419 30.569 124.613 30.3851 124.711C30.1509 124.838 29.9122 124.812 29.6689 124.633C29.4256 124.454 29.2504 124.225 29.1432 123.944C28.9929 123.595 28.8879 123.178 28.8282 122.693C28.7697 122.191 28.7346 121.699 28.7227 121.216C28.7109 120.734 28.7126 120.285 28.7279 119.869C28.7591 119.454 28.7825 119.143 28.7981 118.936C28.8309 118.714 28.9104 118.511 29.0364 118.328C29.1625 118.145 29.3145 118.044 29.4925 118.025C29.7784 118.063 29.9996 118.216 30.1559 118.484C30.3133 118.737 30.3703 119.046 30.3267 119.412C30.3051 119.699 30.2891 120.019 30.2786 120.371C30.2681 120.723 30.2736 121.076 30.295 121.431C30.3165 121.786 30.3465 122.133 30.3851 122.473C30.4249 122.797 30.4849 123.066 30.565 123.281ZM35.3606 117.504C35.3905 117.747 35.4179 118.022 35.443 118.329C35.4852 118.621 35.5262 118.929 35.566 119.253C35.6069 119.561 35.6394 119.876 35.6632 120.199C35.6871 120.521 35.7041 120.827 35.7144 121.117C35.9371 120.717 36.1775 120.293 36.4357 119.848C36.6939 119.402 36.9651 118.997 37.2492 118.633C37.5505 118.255 37.8543 117.949 38.1607 117.715C38.4831 117.483 38.8197 117.38 39.1707 117.406C39.6973 117.446 40.1216 117.67 40.4438 118.08C40.7819 118.49 41.049 118.992 41.2451 119.584C41.4583 120.162 41.6133 120.767 41.7101 121.4C41.8068 122.033 41.8851 122.592 41.9448 123.078C42.0081 123.516 41.7926 123.821 41.2983 123.992C41.0665 124.087 40.8978 124.091 40.7921 124.002C40.6865 123.914 40.6286 123.83 40.6187 123.749C40.5533 123.551 40.4749 123.208 40.3832 122.72C40.3076 122.233 40.2086 121.736 40.0863 121.23C39.9799 120.724 39.8448 120.281 39.681 119.899C39.5172 119.518 39.3144 119.334 39.0727 119.348C38.7843 119.342 38.5128 119.539 38.2582 119.937C38.0415 120.257 37.8139 120.617 37.5752 121.016C37.3537 121.401 37.131 121.801 36.9072 122.218C36.6845 122.618 36.4612 123.026 36.2373 123.443C36.0306 123.844 35.8342 124.215 35.6482 124.554C35.5281 124.657 35.3785 124.726 35.1994 124.761C35.0375 124.781 34.8712 124.752 34.7005 124.675C34.5445 124.615 34.4229 124.526 34.3356 124.407C34.2482 124.288 34.2088 124.173 34.2172 124.061C34.1673 122.806 34.101 121.661 34.0183 120.628C33.9516 119.596 33.8388 118.537 33.68 117.45C33.5959 117.075 33.5936 116.786 33.673 116.583C33.7696 116.366 34.0155 116.296 34.4108 116.374C34.962 116.512 35.2786 116.888 35.3606 117.504ZM45.0218 121.794C44.796 121.809 44.5345 121.765 44.2374 121.662C43.9562 121.561 43.7718 121.347 43.6841 121.019C43.6483 120.856 43.6517 120.704 43.6944 120.563C43.7383 120.405 43.9143 120.306 44.2222 120.265C44.5142 120.223 44.8216 120.19 45.1443 120.166C45.4841 120.128 45.8234 120.097 46.162 120.074L45.4783 117.327C45.284 116.286 45.3181 115.406 45.5808 114.688C45.8434 113.969 46.4734 113.487 47.4707 113.241C47.8792 113.144 48.2737 113.125 48.6542 113.186C49.0506 113.248 49.4178 113.38 49.7556 113.582C50.0934 113.784 50.395 114.039 50.6606 114.348C50.9262 114.657 51.1323 115.009 51.279 115.405C51.3296 115.586 51.3495 115.748 51.3387 115.891C51.345 116.02 51.2881 116.136 51.1681 116.239C50.9965 116.387 50.8156 116.445 50.6253 116.415C50.4363 116.369 50.3128 116.303 50.255 116.219C50.1246 116.032 49.9783 115.845 49.816 115.656C49.6709 115.453 49.5074 115.28 49.3255 115.138C49.1608 114.981 48.9772 114.863 48.7746 114.784C48.5732 114.688 48.3516 114.647 48.1099 114.661C47.997 114.669 47.8572 114.715 47.6904 114.798C47.5396 114.883 47.4006 115.025 47.2733 115.224C47.1472 115.407 47.0562 115.657 47.0002 115.974C46.9603 116.292 46.9861 116.695 47.0777 117.183C47.1593 117.59 47.2545 118.031 47.3633 118.504C47.4721 118.978 47.595 119.476 47.732 120C48.5039 119.978 49.2077 120.007 49.8435 120.087C50.1921 120.145 50.5144 120.234 50.8103 120.352C51.1062 120.471 51.3427 120.633 51.5198 120.839C51.5556 121.002 51.5374 121.137 51.4652 121.244C51.3942 121.335 51.2919 121.415 51.1582 121.485C51.0417 121.541 50.9025 121.579 50.7405 121.598C50.5946 121.62 50.4492 121.633 50.3044 121.638C49.9829 121.646 49.6448 121.66 49.2902 121.682C48.9368 121.687 48.5674 121.692 48.1821 121.695C48.3833 122.432 48.563 123.135 48.7212 123.805C48.8965 124.46 49.0318 125.008 49.127 125.448C49.1728 125.692 49.1616 125.948 49.0933 126.216C49.025 126.483 48.9414 126.742 48.8424 126.991C48.6871 127.348 48.5053 127.632 48.2971 127.841C48.0888 128.05 47.876 128.106 47.6586 128.009C47.4891 127.916 47.3852 127.804 47.347 127.673C47.3087 127.542 47.314 127.365 47.3627 127.144C47.4138 126.892 47.449 126.638 47.4682 126.382C47.4874 126.127 47.4889 125.894 47.4726 125.685C47.4734 125.46 47.4559 125.266 47.4201 125.103C47.4014 124.925 47.3865 124.804 47.3753 124.739L46.59 121.743C46.3323 121.756 46.0746 121.769 45.8169 121.781C45.5604 121.778 45.2954 121.782 45.0218 121.794ZM59.3492 118.853C59.8146 119.064 60.1937 119.358 60.4864 119.733C60.795 120.109 61.0202 120.527 61.1621 120.987C61.3052 121.431 61.3673 121.885 61.3484 122.349C61.3455 122.814 61.2652 123.241 61.1075 123.63C60.8984 124.064 60.642 124.486 60.3383 124.896C60.0347 125.307 59.6947 125.666 59.3185 125.975C58.9423 126.283 58.523 126.525 58.0606 126.698C57.5983 126.872 57.0959 126.939 56.5534 126.898C55.8992 126.848 55.3602 126.655 54.9363 126.319C54.5124 125.982 54.1908 125.565 53.9716 125.067C53.7523 124.569 53.6256 124.014 53.5915 123.402C53.5733 122.79 53.6349 122.185 53.7763 121.586C53.8737 121.144 54.0099 120.721 54.1847 120.317C54.3767 119.899 54.6043 119.539 54.8677 119.238C55.1322 118.921 55.4239 118.67 55.7426 118.485C56.0773 118.302 56.4441 118.225 56.843 118.255C57.0664 118.272 57.342 118.341 57.6698 118.462C57.9989 118.567 58.301 118.71 58.5762 118.891C58.798 118.715 59.0557 118.702 59.3492 118.853ZM58.3082 120.531C58.1411 120.407 57.9445 120.247 57.7184 120.054C57.5095 119.846 57.3173 119.735 57.1417 119.722C56.9503 119.707 56.7522 119.781 56.5476 119.942C56.3588 120.104 56.1837 120.299 56.0221 120.528C55.8776 120.742 55.7485 120.965 55.6348 121.197C55.521 121.429 55.4428 121.615 55.4001 121.757C55.3342 121.992 55.2807 122.277 55.2395 122.611C55.1983 122.945 55.197 123.282 55.2356 123.622C55.2754 123.945 55.3728 124.25 55.5279 124.534C55.7002 124.804 55.9656 125.008 56.3241 125.148C56.5427 125.228 56.8059 125.248 57.1139 125.207C57.423 125.15 57.7284 125.037 58.03 124.867C58.3476 124.698 58.646 124.464 58.9253 124.164C59.2205 123.865 59.4556 123.514 59.6304 123.11C59.8248 122.659 59.8608 122.181 59.7385 121.674C59.6333 121.153 59.3578 120.763 58.912 120.505C58.7943 120.576 58.6796 120.608 58.5679 120.599C58.4562 120.591 58.3697 120.568 58.3082 120.531ZM71.1477 119.837C70.8485 119.975 70.5327 120.12 70.2004 120.271C69.8841 120.424 69.5574 120.608 69.2202 120.823C68.9003 121.024 68.5847 121.273 68.2735 121.57C67.9794 121.853 67.7045 122.202 67.4487 122.616C67.084 123.198 66.8217 123.804 66.662 124.434C66.5035 125.047 66.3854 125.656 66.3079 126.26C66.2863 126.547 66.1923 126.837 66.0258 127.129C65.8766 127.407 65.6823 127.537 65.443 127.519C65.1398 127.496 64.9039 127.326 64.7353 127.008C64.5838 126.676 64.487 126.364 64.4448 126.072C64.2588 124.919 64.1195 123.785 64.0269 122.671C63.9355 121.541 63.8674 120.42 63.8226 119.31C63.8394 119.087 63.9141 118.948 64.0465 118.894C64.1949 118.841 64.3563 118.829 64.5306 118.858C64.7208 118.888 64.9007 118.95 65.0702 119.043C65.2397 119.136 65.3338 119.271 65.3525 119.449C65.3719 120.044 65.4048 120.673 65.4513 121.334C65.499 121.979 65.5533 122.537 65.6142 123.007C65.7188 122.469 65.934 121.956 66.2596 121.467C66.5852 120.978 66.971 120.542 67.4171 120.158C67.8791 119.776 68.3842 119.461 68.9323 119.213C69.4964 118.967 70.0612 118.817 70.6269 118.763C70.8686 118.749 71.068 118.764 71.2252 118.808C71.3823 118.852 71.4898 118.916 71.5476 119.001C71.6054 119.086 71.6038 119.214 71.5427 119.386C71.4976 119.559 71.3659 119.709 71.1477 119.837ZM74.4676 120.617C74.4643 120.873 74.4642 121.194 74.4673 121.579C74.4875 121.95 74.506 122.345 74.5226 122.763C74.5404 123.165 74.5583 123.568 74.5761 123.97C74.6099 124.374 74.6381 124.745 74.6608 125.084C74.8627 124.746 75.1105 124.332 75.4042 123.84C75.6979 123.349 75.9978 122.882 76.3039 122.44C76.6271 121.983 76.9443 121.606 77.2555 121.308C77.5839 120.996 77.8677 120.849 78.1071 120.867C78.3623 120.886 78.5841 121.031 78.7723 121.302C78.9776 121.558 79.1469 121.868 79.28 122.231C79.4131 122.594 79.5205 122.979 79.6022 123.386C79.6998 123.795 79.7771 124.153 79.834 124.462C79.9134 124.26 80.0106 124.035 80.1256 123.786C80.2577 123.524 80.3898 123.261 80.5219 122.998C80.6711 122.72 80.8278 122.451 80.9918 122.191C81.1718 121.932 81.3573 121.705 81.5484 121.511C81.7727 121.303 82.008 121.16 82.2546 121.083C82.5023 120.989 82.682 120.946 82.7937 120.955C82.9373 120.966 83.1012 121.026 83.2855 121.136C83.4869 121.232 83.6859 121.359 83.8825 121.518C84.0791 121.677 84.2573 121.867 84.4172 122.088C84.5943 122.294 84.7308 122.505 84.8269 122.72C85.0178 123.168 85.1579 123.652 85.2471 124.172C85.3522 124.693 85.4193 125.188 85.4483 125.655C85.4773 126.123 85.486 126.541 85.4743 126.909C85.4798 127.262 85.4851 127.511 85.4902 127.656C85.4746 127.864 85.4387 128.021 85.3824 128.129C85.3273 128.221 85.2336 128.295 85.1011 128.349C84.9196 128.415 84.7656 128.436 84.6392 128.41C84.514 128.369 84.4145 128.305 84.3407 128.219C84.2669 128.134 84.2097 128.041 84.1691 127.942C84.1296 127.826 84.1049 127.728 84.095 127.647C84.0747 127.277 84.0471 126.898 84.0121 126.51C83.9931 126.123 83.9648 125.752 83.9275 125.396C83.8913 125.025 83.8367 124.684 83.7638 124.373C83.708 124.048 83.6413 123.762 83.5636 123.516C83.5365 123.45 83.4867 123.366 83.4141 123.264C83.3587 123.147 83.2867 123.038 83.1982 122.935C83.1256 122.833 83.0519 122.747 82.9769 122.677C82.9019 122.608 82.8491 122.563 82.8184 122.545C82.6588 122.533 82.4799 122.672 82.2816 122.962C82.0844 123.236 81.8905 123.574 81.6997 123.977C81.5089 124.38 81.3243 124.807 81.1459 125.259C80.9846 125.696 80.8601 126.072 80.7722 126.386C80.741 126.801 80.6378 127.106 80.4627 127.302C80.2887 127.481 80.114 127.564 79.9385 127.551C79.7629 127.538 79.5763 127.46 79.3785 127.316C79.1978 127.158 79.0822 126.989 79.0316 126.809C78.9551 126.546 78.873 126.251 78.7853 125.924C78.6977 125.596 78.6026 125.26 78.5002 124.916C78.4138 124.572 78.3187 124.236 78.2151 123.907C78.1275 123.58 78.0374 123.284 77.9449 123.021C77.6987 123.307 77.4501 123.625 77.1991 123.975C76.9641 124.327 76.7285 124.686 76.4922 125.053C76.2719 125.422 76.0517 125.79 75.8314 126.159C75.6282 126.513 75.4361 126.827 75.2549 127.102C75.13 127.269 74.9984 127.42 74.8599 127.554C74.7227 127.672 74.5663 127.724 74.3908 127.711C74.2631 127.701 74.1317 127.635 73.9966 127.513C73.8626 127.374 73.7384 127.213 73.6239 127.028C73.5095 126.842 73.4049 126.634 73.31 126.402C73.2311 126.172 73.1761 125.943 73.145 125.716C73.0691 125.02 73.0138 124.262 72.9793 123.441C72.962 122.605 72.9429 121.794 72.922 121.006C72.9265 120.733 72.977 120.489 73.0736 120.271C73.1873 120.039 73.3748 119.893 73.6361 119.832C73.911 119.805 74.1154 119.86 74.2493 119.999C74.3833 120.137 74.4561 120.343 74.4676 120.617ZM94.4422 120.989C94.4724 121.441 94.4842 121.923 94.4777 122.436C94.4883 122.934 94.4824 123.439 94.4599 123.951C94.4534 124.464 94.4321 124.96 94.3961 125.438C94.3601 125.917 94.3196 126.347 94.2749 126.729C94.759 127.118 95.0387 127.452 95.114 127.731C95.2053 128.01 95.2032 128.251 95.1078 128.452C94.9905 128.732 94.8036 128.871 94.5471 128.867C94.3078 128.849 94.0352 128.741 93.7293 128.541C93.4939 128.684 93.2254 128.84 92.9238 129.01C92.6234 129.164 92.3071 129.317 91.9748 129.468C91.6437 129.604 91.3137 129.723 90.985 129.827C90.6563 129.93 90.3546 129.996 90.0797 130.023C89.5632 130.065 89.1077 129.934 88.7133 129.632C88.3348 129.33 88.0942 128.903 87.9915 128.35C87.9234 127.976 87.9277 127.599 88.0043 127.22C88.0822 126.824 88.2301 126.458 88.448 126.122C88.6671 125.769 88.947 125.461 89.2877 125.198C89.6444 124.936 90.0521 124.742 90.5108 124.616C90.6261 124.577 90.7807 124.548 90.9746 124.531C91.1844 124.515 91.3924 124.522 91.5986 124.554C91.822 124.571 92.0423 124.627 92.2597 124.724C92.4771 124.821 92.6743 124.972 92.8513 125.178C92.8717 124.906 92.886 124.611 92.894 124.29C92.9193 123.955 92.9365 123.62 92.9458 123.283C92.955 122.947 92.9545 122.634 92.9442 122.345C92.9511 122.04 92.9464 121.783 92.9301 121.573C92.9162 121.332 92.8313 121.181 92.6753 121.121C92.5365 121.046 92.3525 121.041 92.1231 121.104C91.7306 121.202 91.2652 121.416 90.727 121.745C90.1888 122.073 89.6728 122.427 89.1789 122.807C89.0245 122.94 88.8521 122.991 88.6619 122.961C88.4876 122.932 88.3414 122.849 88.2234 122.711C88.1054 122.574 88.0444 122.425 88.0404 122.264C88.0377 122.088 88.1153 121.909 88.2733 121.728C88.5662 121.462 88.8915 121.189 89.2494 120.911C89.6073 120.633 89.9787 120.389 90.3637 120.177C90.7499 119.949 91.1404 119.77 91.5353 119.639C91.9303 119.509 92.3198 119.45 92.7039 119.463C93.2635 119.489 93.6847 119.649 93.9674 119.943C94.2514 120.221 94.4096 120.57 94.4422 120.989ZM91.2787 125.926C91.0677 125.958 90.8365 126.045 90.5852 126.186C90.351 126.313 90.1298 126.481 89.9215 126.69C89.7304 126.884 89.5768 127.113 89.4606 127.377C89.3616 127.627 89.3424 127.882 89.403 128.143C89.4277 128.241 89.4861 128.318 89.5782 128.373C89.6863 128.429 89.8053 128.446 89.9354 128.424C90.3243 128.373 90.7665 128.254 91.262 128.067C91.7746 127.864 92.1847 127.639 92.4923 127.389C92.4995 127.293 92.4606 127.17 92.3757 127.019C92.292 126.852 92.1917 126.692 92.0749 126.539C91.9593 126.37 91.8259 126.224 91.6747 126.1C91.5396 125.977 91.4075 125.919 91.2787 125.926ZM102.787 124.072C103.092 124.079 103.389 124.174 103.681 124.356C103.972 124.539 104.105 124.797 104.079 125.132C104.027 125.401 103.862 125.565 103.585 125.625C103.325 125.669 103.115 125.686 102.956 125.674C102.636 125.65 102.293 125.632 101.925 125.62C101.557 125.608 101.18 125.604 100.794 125.607C100.723 126.131 100.654 126.624 100.587 127.084C100.536 127.545 100.489 127.959 100.445 128.325C100.403 128.674 100.374 128.961 100.357 129.184C100.34 129.408 100.339 129.528 100.354 129.545C100.709 129.508 101.092 129.432 101.502 129.319C101.929 129.19 102.348 129.054 102.76 128.908C103.189 128.748 103.603 128.586 104 128.424C104.415 128.246 104.804 128.083 105.168 127.934C105.334 127.866 105.479 127.853 105.604 127.895C105.746 127.937 105.828 128.016 105.851 128.13C105.87 128.308 105.83 128.521 105.731 128.771C105.632 129.02 105.471 129.241 105.248 129.432C104.994 129.606 104.658 129.805 104.24 130.03C103.839 130.241 103.407 130.441 102.943 130.631C102.48 130.82 102.01 130.986 101.534 131.126C101.075 131.252 100.669 131.318 100.316 131.323C99.7859 131.332 99.3978 131.158 99.1518 130.803C98.9058 130.447 98.7861 130.013 98.7926 129.5C98.7991 128.987 98.8356 128.396 98.902 127.727C98.9843 127.059 99.0697 126.352 99.1581 125.604C98.8525 125.613 98.555 125.623 98.2654 125.633C97.9929 125.629 97.7279 125.633 97.4702 125.646C97.2628 125.63 97.035 125.565 96.787 125.45C96.5549 125.336 96.449 125.144 96.4694 124.872C96.4766 124.777 96.5261 124.652 96.6179 124.499C96.7097 124.345 96.8942 124.239 97.1714 124.179C97.834 124.117 98.5672 124.076 99.3709 124.056C99.4752 123.31 99.5857 122.588 99.7024 121.891C99.819 121.194 99.9229 120.56 100.014 119.989C100.044 119.799 100.113 119.635 100.219 119.499C100.326 119.362 100.435 119.298 100.547 119.307C100.819 119.311 101.069 119.402 101.296 119.58C101.541 119.743 101.656 119.92 101.641 120.111C101.537 120.649 101.427 121.258 101.311 121.94C101.212 122.622 101.111 123.321 101.009 124.035C101.331 124.027 101.635 124.034 101.922 124.055C102.226 124.062 102.515 124.068 102.787 124.072ZM111.875 121.387C111.831 121.544 111.713 121.624 111.521 121.625C111.328 121.627 111.168 121.623 111.04 121.613C110.64 121.599 110.222 121.608 109.787 121.639C109.367 121.672 108.921 121.734 108.449 121.827C108.252 121.877 108.047 121.837 107.832 121.708C107.617 121.58 107.498 121.346 107.475 121.008C107.485 120.88 107.541 120.78 107.642 120.707C107.744 120.635 107.861 120.571 107.994 120.517C108.208 120.437 108.462 120.376 108.754 120.334C109.047 120.276 109.338 120.241 109.628 120.231C109.933 120.222 110.221 120.236 110.491 120.272C110.762 120.292 110.984 120.333 111.156 120.394C111.405 120.493 111.596 120.628 111.727 120.798C111.875 120.97 111.924 121.166 111.875 121.387ZM110.725 129.315C110.817 129.579 110.852 129.862 110.829 130.165C110.824 130.454 110.729 130.647 110.545 130.746C110.311 130.872 110.072 130.846 109.829 130.668C109.586 130.489 109.41 130.259 109.303 129.978C109.153 129.63 109.048 129.213 108.988 128.727C108.93 128.225 108.895 127.733 108.883 127.251C108.871 126.769 108.873 126.32 108.888 125.904C108.919 125.489 108.943 125.178 108.958 124.97C108.991 124.748 109.07 124.545 109.196 124.362C109.323 124.179 109.475 124.078 109.652 124.06C109.938 124.097 110.16 124.25 110.316 124.519C110.473 124.771 110.53 125.081 110.487 125.446C110.465 125.734 110.449 126.053 110.439 126.405C110.428 126.758 110.434 127.111 110.455 127.466C110.477 127.82 110.507 128.167 110.545 128.507C110.585 128.831 110.645 129.101 110.725 129.315ZM119.528 123.383C119.993 123.595 120.372 123.888 120.665 124.263C120.973 124.639 121.199 125.057 121.341 125.517C121.484 125.961 121.546 126.415 121.527 126.879C121.524 127.344 121.444 127.771 121.286 128.161C121.077 128.594 120.82 129.016 120.517 129.427C120.213 129.837 119.873 130.196 119.497 130.505C119.121 130.814 118.701 131.055 118.239 131.229C117.777 131.402 117.274 131.469 116.732 131.428C116.078 131.379 115.539 131.186 115.115 130.849C114.691 130.512 114.369 130.095 114.15 129.597C113.931 129.099 113.804 128.544 113.77 127.932C113.752 127.321 113.813 126.716 113.955 126.117C114.052 125.675 114.188 125.252 114.363 124.848C114.555 124.429 114.783 124.069 115.046 123.768C115.311 123.451 115.602 123.2 115.921 123.015C116.256 122.832 116.623 122.755 117.021 122.785C117.245 122.802 117.52 122.871 117.848 122.992C118.177 123.097 118.479 123.24 118.755 123.421C118.976 123.245 119.234 123.233 119.528 123.383ZM118.487 125.062C118.32 124.937 118.123 124.778 117.897 124.584C117.688 124.376 117.496 124.265 117.32 124.252C117.129 124.238 116.931 124.311 116.726 124.472C116.537 124.634 116.362 124.83 116.201 125.058C116.056 125.272 115.927 125.495 115.813 125.727C115.699 125.959 115.621 126.146 115.579 126.287C115.513 126.523 115.459 126.807 115.418 127.141C115.377 127.475 115.375 127.812 115.414 128.152C115.454 128.476 115.551 128.78 115.706 129.064C115.879 129.334 116.144 129.539 116.503 129.678C116.721 129.759 116.984 129.778 117.292 129.737C117.601 129.68 117.907 129.567 118.208 129.397C118.526 129.229 118.824 128.994 119.104 128.694C119.399 128.396 119.634 128.044 119.809 127.64C120.003 127.19 120.039 126.711 119.917 126.204C119.812 125.683 119.536 125.293 119.09 125.035C118.973 125.106 118.858 125.138 118.746 125.129C118.635 125.121 118.548 125.099 118.487 125.062ZM125.675 124.303C125.705 124.546 125.732 124.821 125.757 125.128C125.8 125.42 125.841 125.728 125.88 126.052C125.921 126.36 125.954 126.675 125.978 126.998C126.001 127.32 126.019 127.626 126.029 127.916C126.252 127.516 126.492 127.092 126.75 126.647C127.008 126.201 127.28 125.796 127.564 125.432C127.865 125.054 128.169 124.748 128.475 124.514C128.797 124.282 129.134 124.179 129.485 124.205C130.012 124.245 130.436 124.469 130.758 124.878C131.096 125.289 131.363 125.79 131.56 126.383C131.773 126.961 131.928 127.566 132.025 128.199C132.121 128.832 132.2 129.391 132.259 129.877C132.323 130.315 132.107 130.62 131.613 130.791C131.381 130.886 131.212 130.89 131.107 130.801C131.001 130.713 130.943 130.629 130.933 130.548C130.868 130.35 130.789 130.007 130.698 129.519C130.622 129.032 130.523 128.535 130.401 128.029C130.294 127.523 130.159 127.08 129.995 126.698C129.832 126.317 129.629 126.133 129.387 126.147C129.099 126.141 128.827 126.338 128.573 126.736C128.356 127.056 128.128 127.416 127.89 127.815C127.668 128.2 127.445 128.6 127.222 129.017C126.999 129.417 126.776 129.825 126.552 130.242C126.345 130.643 126.149 131.014 125.963 131.353C125.843 131.456 125.693 131.525 125.514 131.56C125.352 131.58 125.186 131.551 125.015 131.474C124.859 131.414 124.737 131.325 124.65 131.206C124.563 131.087 124.523 130.972 124.532 130.86C124.482 129.605 124.415 128.46 124.333 127.427C124.266 126.395 124.153 125.336 123.994 124.249C123.91 123.874 123.908 123.585 123.987 123.382C124.084 123.165 124.33 123.095 124.725 123.173C125.276 123.311 125.593 123.687 125.675 124.303ZM26.2485 145.451C26.0227 145.466 25.7612 145.422 25.4641 145.32C25.1829 145.218 24.9985 145.004 24.9108 144.677C24.875 144.513 24.8784 144.361 24.9211 144.22C24.9651 144.063 25.141 143.964 25.4489 143.923C25.7409 143.881 26.0483 143.848 26.371 143.824C26.7108 143.785 27.0501 143.755 27.3888 143.732L26.705 140.985C26.5107 139.943 26.5448 139.063 26.8075 138.345C27.0702 137.627 27.7001 137.145 28.6974 136.899C29.1059 136.801 29.5004 136.783 29.8809 136.844C30.2774 136.905 30.6445 137.037 30.9823 137.239C31.3201 137.441 31.6218 137.697 31.8873 138.005C32.1529 138.314 32.359 138.667 32.5057 139.063C32.5563 139.243 32.5762 139.405 32.5654 139.549C32.5717 139.678 32.5149 139.794 32.3948 139.897C32.2232 140.044 32.0423 140.103 31.852 140.073C31.663 140.026 31.5396 139.961 31.4817 139.876C31.3514 139.69 31.205 139.502 31.0427 139.314C30.8976 139.11 30.7341 138.937 30.5523 138.795C30.3876 138.639 30.2039 138.52 30.0013 138.441C29.7999 138.346 29.5783 138.305 29.3366 138.319C29.2237 138.326 29.0839 138.372 28.9171 138.456C28.7663 138.541 28.6273 138.683 28.5 138.882C28.3739 139.065 28.2829 139.315 28.2269 139.631C28.187 139.949 28.2128 140.352 28.3044 140.84C28.386 141.248 28.4813 141.688 28.59 142.162C28.6988 142.635 28.8217 143.134 28.9588 143.658C29.7306 143.635 30.4344 143.664 31.0702 143.744C31.4188 143.803 31.7411 143.891 32.037 144.01C32.333 144.128 32.5694 144.29 32.7465 144.496C32.7823 144.659 32.7642 144.794 32.6919 144.901C32.6209 144.992 32.5186 145.073 32.3849 145.143C32.2684 145.198 32.1292 145.236 31.9673 145.256C31.8213 145.277 31.6759 145.29 31.5311 145.295C31.2096 145.303 30.8715 145.318 30.5169 145.339C30.1635 145.345 29.7941 145.349 29.4088 145.352C29.6101 146.089 29.7898 146.793 29.9479 147.463C30.1232 148.118 30.2585 148.665 30.3537 149.106C30.3995 149.35 30.3883 149.606 30.32 149.873C30.2517 150.141 30.1681 150.399 30.0691 150.649C29.9138 151.006 29.7321 151.289 29.5238 151.498C29.3155 151.707 29.1027 151.763 28.8853 151.667C28.7158 151.574 28.6119 151.461 28.5737 151.33C28.5354 151.199 28.5407 151.023 28.5894 150.802C28.6405 150.549 28.6757 150.295 28.6949 150.04C28.7141 149.784 28.7156 149.552 28.6993 149.342C28.7002 149.118 28.6827 148.924 28.6468 148.76C28.6281 148.583 28.6132 148.461 28.602 148.396L27.8167 145.401C27.559 145.413 27.3013 145.426 27.0436 145.439C26.7872 145.436 26.5221 145.44 26.2485 145.451ZM42.22 142.73C41.9208 142.868 41.6051 143.013 41.2728 143.165C40.9564 143.317 40.6297 143.501 40.2926 143.716C39.9726 143.917 39.657 144.166 39.3458 144.464C39.0518 144.746 38.7768 145.095 38.521 145.509C38.1563 146.091 37.8941 146.697 37.7343 147.327C37.5758 147.94 37.4578 148.549 37.3802 149.153C37.3586 149.44 37.2646 149.73 37.0982 150.022C36.9489 150.3 36.7546 150.43 36.5153 150.412C36.2122 150.389 35.9763 150.219 35.8076 149.901C35.6561 149.569 35.5593 149.257 35.5171 148.965C35.3312 147.812 35.1919 146.678 35.0992 145.564C35.0078 144.434 34.9397 143.314 34.8949 142.203C34.9118 141.98 34.9864 141.841 35.1188 141.787C35.2672 141.734 35.4286 141.722 35.6029 141.751C35.7931 141.781 35.973 141.843 36.1425 141.936C36.312 142.029 36.4061 142.164 36.4248 142.342C36.4442 142.937 36.4771 143.566 36.5236 144.227C36.5713 144.872 36.6256 145.43 36.6865 145.9C36.7911 145.362 37.0063 144.849 37.3319 144.36C37.6575 143.871 38.0434 143.435 38.4894 143.051C38.9514 142.669 39.4565 142.354 40.0046 142.106C40.5687 141.86 41.1336 141.71 41.6992 141.656C41.9409 141.642 42.1404 141.657 42.2975 141.701C42.4546 141.745 42.5621 141.809 42.6199 141.894C42.6778 141.979 42.6761 142.107 42.615 142.279C42.5699 142.452 42.4383 142.602 42.22 142.73ZM49.6552 143.194C50.1206 143.405 50.4997 143.699 50.7924 144.074C51.101 144.45 51.3263 144.868 51.4681 145.328C51.6112 145.772 51.6733 146.226 51.6544 146.69C51.6515 147.155 51.5712 147.582 51.4135 147.971C51.2044 148.405 50.948 148.827 50.6443 149.237C50.3407 149.648 50.0007 150.007 49.6245 150.316C49.2483 150.624 48.829 150.865 48.3666 151.039C47.9043 151.213 47.4019 151.28 46.8594 151.239C46.2053 151.189 45.6662 150.996 45.2423 150.66C44.8184 150.323 44.4968 149.906 44.2776 149.408C44.0583 148.91 43.9316 148.355 43.8975 147.742C43.8793 147.131 43.9409 146.526 44.0823 145.927C44.1798 145.485 44.3159 145.062 44.4907 144.658C44.6827 144.24 44.9103 143.88 45.1737 143.579C45.4382 143.261 45.7299 143.011 46.0486 142.826C46.3834 142.643 46.7502 142.566 47.149 142.596C47.3724 142.613 47.648 142.682 47.9758 142.803C48.3049 142.908 48.607 143.051 48.8822 143.232C49.104 143.056 49.3617 143.043 49.6552 143.194ZM48.6143 144.872C48.4472 144.748 48.2506 144.588 48.0245 144.395C47.8155 144.187 47.6233 144.076 47.4478 144.063C47.2563 144.048 47.0582 144.122 46.8536 144.283C46.6649 144.445 46.4897 144.64 46.3281 144.869C46.1836 145.083 46.0545 145.306 45.9408 145.538C45.827 145.77 45.7488 145.956 45.7061 146.098C45.6402 146.333 45.5867 146.618 45.5455 146.952C45.5043 147.286 45.503 147.623 45.5416 147.963C45.5814 148.286 45.6789 148.591 45.834 148.875C46.0062 149.145 46.2716 149.349 46.6301 149.489C46.8487 149.569 47.112 149.589 47.4199 149.548C47.7291 149.491 48.0344 149.378 48.336 149.208C48.6536 149.039 48.952 148.805 49.2313 148.505C49.5266 148.206 49.7616 147.855 49.9364 147.451C50.1308 147 50.1668 146.522 50.0445 146.015C49.9394 145.494 49.6639 145.104 49.218 144.846C49.1003 144.917 48.9856 144.949 48.8739 144.94C48.7622 144.932 48.6757 144.909 48.6143 144.872ZM55.6943 144.274C55.691 144.531 55.6909 144.852 55.694 145.237C55.7142 145.608 55.7327 146.002 55.7493 146.42C55.7672 146.823 55.785 147.225 55.8028 147.628C55.8366 148.032 55.8648 148.403 55.8875 148.741C56.0894 148.404 56.3372 147.989 56.6309 147.498C56.9247 147.006 57.2245 146.54 57.5306 146.097C57.8538 145.64 58.171 145.263 58.4823 144.965C58.8106 144.653 59.0945 144.506 59.3338 144.524C59.5891 144.543 59.8108 144.688 59.999 144.959C60.2043 145.215 60.3736 145.525 60.5067 145.888C60.6398 146.251 60.7472 146.636 60.8289 147.044C60.9265 147.452 61.0038 147.811 61.0607 148.12C61.1402 147.917 61.2374 147.692 61.3523 147.444C61.4844 147.181 61.6165 146.918 61.7486 146.655C61.8979 146.378 62.0545 146.109 62.2185 145.848C62.3985 145.589 62.584 145.363 62.7751 145.168C62.9994 144.961 63.2347 144.818 63.4813 144.74C63.729 144.646 63.9087 144.604 64.0204 144.612C64.164 144.623 64.3279 144.684 64.5122 144.794C64.7136 144.889 64.9126 145.016 65.1092 145.176C65.3058 145.335 65.484 145.525 65.6439 145.745C65.821 145.951 65.9575 146.162 66.0536 146.378C66.2445 146.825 66.3846 147.309 66.4738 147.829C66.579 148.351 66.646 148.845 66.675 149.313C66.704 149.78 66.7127 150.198 66.701 150.566C66.7065 150.92 66.7118 151.169 66.7169 151.314C66.7013 151.521 66.6654 151.679 66.6091 151.787C66.554 151.879 66.4603 151.952 66.3278 152.006C66.1463 152.073 65.9924 152.093 65.8659 152.068C65.7407 152.026 65.6412 151.963 65.5674 151.877C65.4936 151.791 65.4364 151.699 65.3958 151.599C65.3563 151.484 65.3316 151.386 65.3217 151.305C65.3014 150.934 65.2738 150.555 65.2388 150.167C65.2198 149.781 65.1916 149.41 65.1542 149.054C65.118 148.682 65.0634 148.341 64.9905 148.031C64.9348 147.706 64.868 147.42 64.7903 147.173C64.7632 147.107 64.7134 147.023 64.6408 146.921C64.5854 146.805 64.5134 146.695 64.4249 146.592C64.3523 146.49 64.2786 146.405 64.2036 146.335C64.1286 146.265 64.0758 146.221 64.0451 146.203C63.8855 146.191 63.7066 146.33 63.5083 146.619C63.3112 146.893 63.1172 147.232 62.9264 147.635C62.7356 148.037 62.551 148.465 62.3726 148.917C62.2114 149.354 62.0868 149.73 61.999 150.044C61.9677 150.459 61.8645 150.764 61.6894 150.959C61.5154 151.139 61.3407 151.222 61.1652 151.209C60.9897 151.195 60.803 151.117 60.6052 150.974C60.4246 150.816 60.3089 150.647 60.2583 150.466C60.1818 150.204 60.0997 149.909 60.0121 149.581C59.9244 149.254 59.8294 148.918 59.7269 148.573C59.6405 148.23 59.5454 147.894 59.4418 147.565C59.3542 147.237 59.2641 146.942 59.1716 146.678C58.9254 146.964 58.6769 147.283 58.4259 147.633C58.1908 147.984 57.9552 148.343 57.7189 148.711C57.4987 149.079 57.2784 149.448 57.0581 149.816C56.855 150.17 56.6628 150.484 56.4816 150.76C56.3568 150.927 56.2251 151.077 56.0866 151.211C55.9494 151.329 55.793 151.382 55.6175 151.369C55.4899 151.359 55.3585 151.293 55.2233 151.17C55.0893 151.032 54.9651 150.87 54.8507 150.685C54.7362 150.5 54.6316 150.291 54.5367 150.06C54.4578 149.829 54.4028 149.6 54.3718 149.373C54.2958 148.678 54.2405 147.919 54.2061 147.099C54.1887 146.263 54.1696 145.451 54.1487 144.663C54.1532 144.391 54.2037 144.146 54.3003 143.929C54.414 143.697 54.6016 143.55 54.8628 143.49C55.1377 143.462 55.3421 143.518 55.4761 143.656C55.61 143.795 55.6828 144.001 55.6943 144.274ZM78.2233 145.97C78.2201 146.227 78.22 146.548 78.2231 146.933C78.2433 147.304 78.2617 147.698 78.2784 148.116C78.2962 148.519 78.3141 148.921 78.3319 149.324C78.3657 149.728 78.3939 150.099 78.4165 150.437C78.6185 150.1 78.8663 149.685 79.16 149.194C79.4537 148.702 79.7536 148.236 80.0597 147.793C80.3829 147.336 80.7001 146.959 81.0113 146.662C81.3397 146.349 81.6235 146.202 81.8629 146.22C82.1181 146.239 82.3399 146.384 82.5281 146.655C82.7334 146.911 82.9026 147.221 83.0358 147.584C83.1689 147.947 83.2763 148.332 83.3579 148.74C83.4556 149.148 83.5328 149.507 83.5898 149.816C83.6692 149.613 83.7664 149.388 83.8814 149.14C84.0135 148.877 84.1456 148.614 84.2777 148.351C84.4269 148.074 84.5836 147.805 84.7476 147.544C84.9275 147.285 85.1131 147.059 85.3042 146.864C85.5284 146.657 85.7638 146.514 86.0103 146.436C86.2581 146.342 86.4378 146.3 86.5495 146.308C86.6931 146.319 86.857 146.38 87.0412 146.49C87.2426 146.585 87.4416 146.712 87.6382 146.872C87.8349 147.031 88.0131 147.221 88.173 147.441C88.35 147.647 88.4866 147.858 88.5827 148.074C88.7736 148.521 88.9137 149.005 89.0029 149.526C89.108 150.047 89.1751 150.541 89.2041 151.009C89.2331 151.476 89.2417 151.894 89.2301 152.262C89.2356 152.616 89.2409 152.865 89.246 153.01C89.2304 153.217 89.1945 153.375 89.1382 153.483C89.0831 153.575 88.9894 153.648 88.8569 153.702C88.6754 153.769 88.5214 153.789 88.395 153.764C88.2698 153.722 88.1703 153.659 88.0965 153.573C88.0227 153.487 87.9655 153.395 87.9248 153.295C87.8854 153.18 87.8607 153.082 87.8507 153.001C87.8305 152.63 87.8029 152.251 87.7679 151.863C87.7488 151.477 87.7206 151.106 87.6832 150.75C87.647 150.378 87.5925 150.037 87.5196 149.727C87.4638 149.402 87.3971 149.116 87.3194 148.869C87.2923 148.803 87.2424 148.719 87.1699 148.617C87.1145 148.501 87.0425 148.391 86.954 148.288C86.8814 148.186 86.8076 148.101 86.7327 148.031C86.6577 147.961 86.6049 147.917 86.5741 147.899C86.4146 147.887 86.2357 148.026 86.0373 148.315C85.8402 148.589 85.6463 148.928 85.4555 149.331C85.2647 149.733 85.0801 150.161 84.9017 150.613C84.7404 151.05 84.6159 151.426 84.528 151.74C84.4968 152.155 84.3936 152.46 84.2184 152.655C84.0445 152.835 83.8697 152.918 83.6942 152.905C83.5187 152.891 83.3321 152.813 83.1343 152.67C82.9536 152.512 82.838 152.343 82.7874 152.162C82.7109 151.9 82.6288 151.605 82.5411 151.277C82.4535 150.95 82.3584 150.614 82.256 150.269C82.1695 149.926 82.0745 149.59 81.9709 149.261C81.8832 148.933 81.7932 148.638 81.7007 148.374C81.4545 148.66 81.2059 148.979 80.9549 149.329C80.7199 149.68 80.4843 150.039 80.248 150.407C80.0277 150.775 79.8074 151.144 79.5872 151.512C79.384 151.866 79.1919 152.18 79.0107 152.456C78.8858 152.623 78.7541 152.773 78.6157 152.907C78.4784 153.025 78.3221 153.078 78.1466 153.065C78.0189 153.055 77.8875 152.989 77.7523 152.866C77.6183 152.728 77.4941 152.566 77.3797 152.381C77.2653 152.196 77.1606 151.987 77.0658 151.756C76.9869 151.525 76.9319 151.296 76.9008 151.069C76.8248 150.374 76.7696 149.615 76.7351 148.795C76.7178 147.959 76.6987 147.147 76.6778 146.359C76.6822 146.087 76.7328 145.842 76.8294 145.625C76.9431 145.393 77.1306 145.246 77.3919 145.186C77.6667 145.158 77.8711 145.214 78.0051 145.352C78.1391 145.491 78.2119 145.697 78.2233 145.97ZM97.7633 149.559C97.1134 149.879 96.4217 150.116 95.6881 150.269C94.9558 150.407 94.1747 150.444 93.3451 150.382C93.335 150.943 93.4609 151.401 93.7228 151.758C93.986 152.099 94.3306 152.317 94.7565 152.414C95.0094 152.465 95.2653 152.476 95.5242 152.447C95.799 152.42 96.0517 152.367 96.2823 152.288C96.53 152.194 96.7544 152.091 96.9555 151.977C97.1566 151.864 97.3337 151.749 97.4869 151.632C97.6401 151.516 97.7977 151.447 97.9596 151.427C98.1228 151.391 98.243 151.392 98.3204 151.43C98.5378 151.527 98.5995 151.772 98.5057 152.166C98.212 152.658 97.812 153.069 97.3057 153.4C96.8006 153.715 96.2493 153.898 95.6518 153.949C95.134 154.006 94.6093 153.943 94.0777 153.758C93.546 153.574 93.0804 153.258 92.6809 152.811C92.3415 152.416 92.0947 151.964 91.9405 151.455C91.7863 150.946 91.7051 150.427 91.6968 149.897C91.6862 149.399 91.7615 148.931 91.9228 148.494C92.1 148.058 92.3448 147.683 92.6573 147.37C92.9709 147.04 93.3515 146.78 93.7991 146.589C94.2467 146.398 94.7589 146.309 95.3356 146.32C96.0253 146.324 96.6379 146.498 97.1735 146.843C97.7091 147.188 98.0682 147.641 98.2507 148.2C98.3555 148.513 98.3676 148.778 98.287 148.997C98.2223 149.217 98.0477 149.404 97.7633 149.559ZM95.1336 147.725C94.9717 147.745 94.7919 147.787 94.5945 147.853C94.413 147.919 94.2376 148.01 94.0685 148.126C93.9165 148.227 93.7707 148.352 93.631 148.502C93.5085 148.637 93.4321 148.8 93.4017 148.99C93.6729 149.011 93.9699 149.009 94.2926 148.985C94.6313 148.962 94.9546 148.931 95.2625 148.89C95.5876 148.834 95.8814 148.768 96.1439 148.691C96.4223 148.616 96.6535 148.529 96.8374 148.431C96.7326 148.118 96.5071 147.916 96.1609 147.826C95.8318 147.721 95.4894 147.687 95.1336 147.725ZM106.143 149.372C105.916 149.611 105.675 149.834 105.419 150.039C105.163 150.245 104.922 150.459 104.697 150.683C104.487 150.908 104.316 151.152 104.184 151.414C104.052 151.677 104.005 151.987 104.042 152.342C104.137 152.574 104.172 152.753 104.146 152.88C104.122 152.99 104.051 153.081 103.933 153.153C103.634 153.29 103.352 153.197 103.088 152.872C102.912 152.65 102.795 152.393 102.737 152.1C102.696 151.792 102.702 151.495 102.755 151.211C102.826 150.911 102.936 150.623 103.085 150.345C103.251 150.069 103.453 149.827 103.693 149.621C103.934 149.414 104.182 149.2 104.44 148.979C104.698 148.742 104.934 148.494 105.145 148.238C105.357 147.981 105.521 147.72 105.637 147.456C105.755 147.176 105.801 146.883 105.776 146.576C105.768 146.463 105.712 146.363 105.606 146.275C105.502 146.171 105.363 146.088 105.191 146.027C105.021 145.95 104.824 145.903 104.6 145.886C104.394 145.855 104.177 145.862 103.949 145.909C103.573 145.993 103.239 146.169 102.946 146.436C102.655 146.686 102.489 146.971 102.449 147.289C102.542 147.552 102.52 147.727 102.385 147.813C102.268 147.885 102.145 147.916 102.017 147.906C101.906 147.898 101.804 147.858 101.714 147.787C101.359 147.375 101.223 146.948 101.305 146.504C101.402 146.063 101.608 145.669 101.923 145.324C102.222 144.977 102.587 144.716 103.017 144.539C103.465 144.349 103.937 144.256 104.434 144.261C105.06 144.26 105.634 144.416 106.156 144.728C106.695 145.025 107.045 145.493 107.205 146.13C107.36 146.848 107.313 147.47 107.065 147.997C106.817 148.524 106.509 148.982 106.143 149.372ZM104.747 156.728C104.778 156.955 104.731 157.152 104.606 157.319C104.481 157.486 104.319 157.61 104.121 157.691C103.938 157.774 103.744 157.799 103.537 157.768C103.347 157.737 103.187 157.629 103.056 157.443C102.969 157.324 102.923 157.192 102.918 157.047C102.913 156.903 102.924 156.751 102.952 156.593C102.996 156.435 103.039 156.286 103.082 156.145C103.141 156.005 103.174 155.879 103.183 155.768C103.186 155.72 103.206 155.665 103.243 155.604C103.28 155.542 103.323 155.497 103.374 155.469C103.441 155.426 103.507 155.407 103.57 155.412C103.634 155.416 103.702 155.47 103.775 155.571C103.985 155.764 104.203 155.965 104.428 156.174C104.654 156.368 104.76 156.552 104.747 156.728Z" fill="black"/>
<path d="M70.7792 6.76382C70.6818 6.80937 70.5672 6.82007 70.4354 6.79592C70.3047 6.75848 70.1988 6.66287 70.1177 6.50908C69.9279 6.21263 69.6802 6.05191 69.3745 6.02693C69.0955 6.00412 68.8376 6.04992 68.6008 6.16434C68.3784 6.26656 68.1721 6.41693 67.982 6.61543C67.8062 6.80173 67.6548 7.01678 67.5279 7.26058C67.4009 7.50438 67.3072 7.7509 67.2467 8.00013C67.1422 8.45981 67.1899 8.85835 67.3898 9.19576C67.5896 9.53316 67.9287 9.72142 68.4071 9.76052C68.7914 9.80532 69.2293 9.76753 69.7207 9.64717C70.2266 9.51461 70.703 9.33282 71.1499 9.1018C71.3425 9.03727 71.5191 9.00488 71.6796 9.00463C71.8402 9.00438 71.9665 9.09497 72.0587 9.27642C72.1742 9.49991 72.1231 9.71646 71.9053 9.92608C71.6886 10.1224 71.407 10.2934 71.0607 10.439C70.7133 10.5979 70.3475 10.7352 69.9635 10.8509C69.5938 10.9545 69.2202 11.0243 68.8427 11.0603C68.4663 11.0831 68.0942 11.0527 67.7264 10.9691C67.372 10.8866 67.0434 10.7326 66.7408 10.5072C66.264 10.1204 65.9986 9.60377 65.9444 8.95721C65.8902 8.31064 65.9905 7.65664 66.2453 6.99519C66.3456 6.74922 66.4792 6.50596 66.646 6.26542C66.8139 6.01159 67.0063 5.78651 67.223 5.59018C67.453 5.39494 67.7002 5.23455 67.9646 5.10901C68.2302 4.97018 68.5179 4.88668 68.8279 4.85851C69.3261 4.81897 69.7936 4.91069 70.2302 5.13367C70.6679 5.34336 70.9403 5.69338 71.0473 6.18374C71.0652 6.29222 71.056 6.40518 71.0196 6.52261C70.9844 6.62675 70.9042 6.70715 70.7792 6.76382ZM75.8334 2.9429C75.7814 4.39683 75.7716 5.90772 75.804 7.47557C75.8374 9.03013 75.8896 10.5193 75.9605 11.9432C75.9526 12.5312 75.7687 12.8171 75.4088 12.8011C75.3291 12.7946 75.2515 12.7615 75.1761 12.7018C75.1018 12.6288 75.0352 12.5431 74.9764 12.4447C74.9175 12.3462 74.8593 12.2411 74.8015 12.1294C74.757 12.0187 74.7314 11.923 74.7246 11.8422C74.6737 11.1557 74.6327 10.43 74.6016 9.66489C74.5705 8.89981 74.5461 8.13528 74.5282 7.37129C74.5248 6.59509 74.5264 5.83938 74.533 5.10414C74.5396 4.36889 74.5612 3.69508 74.5979 3.0827C74.6505 2.76594 74.7188 2.50396 74.8026 2.29677C74.8875 2.07629 75.0357 1.98138 75.2473 2.01205C75.4721 2.04381 75.624 2.14987 75.7029 2.33023C75.7961 2.49839 75.8396 2.70261 75.8334 2.9429ZM81.9745 4.64891C81.937 4.77962 81.838 4.84511 81.6775 4.84536C81.5169 4.84562 81.3835 4.8414 81.2772 4.83271C80.9439 4.81884 80.5957 4.82382 80.2325 4.84764C79.8826 4.87255 79.5107 4.92241 79.1166 4.99722C78.9528 5.03734 78.7817 5.00329 78.6032 4.89506C78.4248 4.78683 78.327 4.59155 78.31 4.30922C78.3187 4.20291 78.3656 4.11979 78.4508 4.05986C78.5359 3.99993 78.6338 3.94774 78.7445 3.90327C78.9238 3.83766 79.1352 3.78805 79.3787 3.75445C79.6234 3.70756 79.8664 3.6806 80.1077 3.67358C80.3624 3.66764 80.6022 3.68055 80.827 3.7123C81.0529 3.73077 81.2373 3.76591 81.3802 3.81773C81.5874 3.90155 81.7454 4.0148 81.8541 4.15747C81.9762 4.30122 82.0163 4.46503 81.9745 4.64891ZM80.9734 11.2493C81.049 11.4695 81.0765 11.7059 81.0559 11.9584C81.0496 12.1987 80.9696 12.3593 80.8158 12.4404C80.62 12.5448 80.4212 12.5219 80.2195 12.3716C80.0177 12.2213 79.8729 12.0289 79.7851 11.7943C79.6617 11.5033 79.5764 11.1552 79.5293 10.75C79.4832 10.3315 79.4566 9.92129 79.4493 9.51936C79.442 9.11743 79.4458 8.74317 79.4608 8.39657C79.489 8.05105 79.5102 7.79192 79.5243 7.61916C79.5528 7.4342 79.6201 7.26579 79.7262 7.11392C79.8322 6.96206 79.9594 6.87881 80.1078 6.86419C80.3459 6.89703 80.5294 7.02574 80.6582 7.25031C80.7881 7.46159 80.8339 7.71952 80.7956 8.02408C80.776 8.26328 80.7609 8.5296 80.7503 8.82305C80.7397 9.11649 80.7424 9.41102 80.7584 9.70664C80.7743 10.0023 80.7975 10.2918 80.8278 10.5752C80.8593 10.8453 80.9078 11.07 80.9734 11.2493ZM88.1906 8.18712C88.0933 8.23267 87.9787 8.24337 87.8469 8.21922C87.7162 8.18178 87.6103 8.08617 87.5292 7.93238C87.3394 7.63593 87.0916 7.47521 86.786 7.45023C86.5069 7.42742 86.249 7.47322 86.0122 7.58764C85.7898 7.68987 85.5836 7.84023 85.3934 8.03873C85.2177 8.22503 85.0663 8.44008 84.9394 8.68388C84.8124 8.92768 84.7187 9.1742 84.6582 9.42343C84.5537 9.88311 84.6014 10.2817 84.8012 10.6191C85.0011 10.9565 85.3402 11.1447 85.8186 11.1838C86.2029 11.2286 86.6408 11.1908 87.1322 11.0705C87.638 10.9379 88.1144 10.7561 88.5614 10.5251C88.7539 10.4606 88.9305 10.4282 89.0911 10.4279C89.2516 10.4277 89.378 10.5183 89.4702 10.6997C89.5857 10.9232 89.5345 11.1398 89.3167 11.3494C89.1 11.5457 88.8185 11.7167 88.4721 11.8623C88.1247 12.0212 87.759 12.1585 87.3749 12.2742C87.0053 12.3778 86.6317 12.4476 86.2541 12.4836C85.8777 12.5064 85.5056 12.476 85.1379 12.3924C84.7834 12.3099 84.4549 12.1559 84.1522 11.9305C83.6755 11.5437 83.41 11.0271 83.3559 10.3805C83.3017 9.73394 83.402 9.07994 83.6567 8.41849C83.7571 8.17252 83.8907 7.92926 84.0575 7.68872C84.2254 7.43489 84.4177 7.20981 84.6344 7.01348C84.8644 6.81824 85.1117 6.65785 85.3761 6.53231C85.6416 6.39348 85.9294 6.30998 86.2394 6.28181C86.7376 6.24227 87.205 6.33399 87.6416 6.55697C88.0793 6.76666 88.3517 7.11668 88.4588 7.60704C88.4767 7.71552 88.4674 7.82848 88.4311 7.94591C88.3958 8.05005 88.3157 8.13045 88.1906 8.18712ZM96.8224 7.48805C96.8766 7.47911 96.9569 7.47898 97.0632 7.48767C97.1706 7.48307 97.2697 7.49787 97.3606 7.53205C97.4658 7.55403 97.5495 7.59431 97.6116 7.6529C97.688 7.69928 97.7302 7.75624 97.7381 7.82377C97.7516 7.98541 97.7131 8.12942 97.6225 8.25579C97.5463 8.36996 97.4113 8.46595 97.2177 8.54377C96.6931 8.74169 96.146 8.97121 95.5761 9.23231C95.0074 9.48013 94.5205 9.70789 94.1156 9.91559C94.3418 10.0946 94.5995 10.2963 94.8889 10.5206C95.1915 10.746 95.4997 10.9853 95.8135 11.2383C96.1283 11.4781 96.4415 11.7378 96.7531 12.0175C97.0658 12.2838 97.3585 12.5486 97.6313 12.8117C97.8787 13.0593 97.9083 13.2691 97.7204 13.441C97.633 13.5275 97.4947 13.5831 97.3054 13.6078C97.1294 13.6335 96.9649 13.6 96.8119 13.5072C96.5315 13.3371 96.2267 13.1383 95.8975 12.9107C95.5694 12.6699 95.2346 12.4284 94.8932 12.1865C94.5528 11.9312 94.2186 11.6832 93.8905 11.4423C93.5767 11.1893 93.2879 10.9583 93.024 10.7494C93.0392 11.2189 93.0477 11.6878 93.0495 12.1562C93.0646 12.6256 93.0731 13.0946 93.075 13.5629C93.1341 13.8219 93.1106 14.0274 93.0045 14.1792C92.8985 14.3311 92.7397 14.3917 92.5281 14.361C92.3055 14.3027 92.1464 14.2027 92.051 14.0612C91.9566 13.9063 91.8921 13.7137 91.8574 13.4835C91.8222 12.9321 91.7819 12.28 91.7364 11.5271C91.7042 10.7753 91.6675 9.99641 91.6264 9.19038C91.5853 8.38435 91.5425 7.59825 91.4981 6.83209C91.467 6.06701 91.4355 5.38885 91.4036 4.79762C91.3922 4.6094 91.3886 4.40844 91.3926 4.19472C91.4111 3.96881 91.4962 3.82861 91.6478 3.77411C91.8536 3.71067 92.0558 3.77402 92.2543 3.96416C92.4539 4.14101 92.5933 4.39989 92.6724 4.74081C92.7288 5.36079 92.7807 6.03393 92.8284 6.76023C92.8761 7.48653 92.9204 8.25269 92.9616 9.05872C93.2404 8.92098 93.5602 8.77321 93.9209 8.61541C94.296 8.4454 94.6633 8.28814 95.023 8.14363C95.397 7.98691 95.7428 7.84796 96.0604 7.72676C96.378 7.60557 96.632 7.526 96.8224 7.48805ZM107.012 8.4013C107.008 8.61501 107.006 8.88242 107.007 9.20353C107.022 9.51243 107.035 9.84127 107.047 10.19C107.059 10.5255 107.072 10.861 107.085 11.1965C107.111 11.5331 107.132 11.8425 107.149 12.1248C107.319 11.8444 107.528 11.5003 107.776 11.0924C108.023 10.6846 108.275 10.2972 108.533 9.93026C108.805 9.55114 109.071 9.23847 109.332 8.99224C109.607 8.73381 109.845 8.61275 110.044 8.62904C110.256 8.64642 110.44 8.76849 110.596 8.99523C110.766 9.20978 110.905 9.46866 111.014 9.77188C111.123 10.0751 111.21 10.3966 111.276 10.7365C111.355 11.0774 111.418 11.3768 111.464 11.6347C111.531 11.4663 111.613 11.279 111.71 11.0729C111.822 10.8546 111.933 10.6363 112.045 10.418C112.171 10.1875 112.303 9.96417 112.441 9.74804C112.592 9.53299 112.748 9.34506 112.908 9.18425C113.096 9.01233 113.293 8.89464 113.499 8.83121C113.706 8.75448 113.856 8.71991 113.949 8.72752C114.068 8.7373 114.205 8.78857 114.358 8.88134C114.525 8.96191 114.69 9.06905 114.853 9.20277C115.016 9.3365 115.164 9.49571 115.296 9.68042C115.442 9.85292 115.555 10.0294 115.634 10.2097C115.79 10.5837 115.904 10.9877 115.976 11.4216C116.061 11.8567 116.114 12.269 116.136 12.6588C116.157 13.0485 116.162 13.3967 116.151 13.7035C116.153 13.998 116.156 14.2056 116.16 14.3263C116.146 14.499 116.115 14.6303 116.068 14.7201C116.021 14.7965 115.943 14.857 115.832 14.9015C115.68 14.956 115.552 14.9722 115.447 14.9503C115.343 14.915 115.26 14.8614 115.199 14.7895C115.138 14.7177 115.091 14.6402 115.058 14.5572C115.025 14.4609 115.005 14.379 114.997 14.3115C114.982 14.0026 114.961 13.6865 114.934 13.3632C114.921 13.041 114.899 12.7316 114.87 12.4349C114.842 12.1249 114.798 11.8404 114.739 11.5814C114.694 11.3102 114.64 11.0716 114.577 10.8658C114.554 10.8105 114.513 10.7402 114.453 10.655C114.408 10.5577 114.349 10.4659 114.275 10.3796C114.215 10.2944 114.154 10.2226 114.092 10.164C114.03 10.1054 113.986 10.0684 113.961 10.0529C113.828 10.042 113.678 10.1569 113.511 10.3974C113.346 10.6247 113.182 10.9056 113.021 11.2403C112.86 11.5749 112.704 11.9301 112.553 12.3057C112.416 12.6691 112.31 12.9815 112.235 13.2429C112.207 13.5884 112.119 13.8421 111.972 14.004C111.826 14.1526 111.68 14.221 111.534 14.209C111.388 14.1971 111.233 14.1309 111.069 14.0104C110.919 13.8778 110.824 13.7362 110.782 13.5857C110.72 13.3666 110.653 13.1203 110.582 12.8469C110.511 12.5735 110.433 12.293 110.35 12.0052C110.28 11.7185 110.202 11.4379 110.118 11.1635C110.046 10.8901 109.973 10.6433 109.897 10.4231C109.691 10.6603 109.482 10.9242 109.271 11.2146C109.073 11.5062 108.875 11.8043 108.676 12.1091C108.49 12.415 108.305 12.721 108.119 13.0269C107.948 13.3205 107.786 13.5816 107.634 13.8099C107.529 13.9485 107.418 14.0732 107.302 14.1841C107.187 14.2818 107.057 14.3246 106.91 14.3126C106.804 14.304 106.695 14.2482 106.583 14.1454C106.472 14.0293 106.369 13.8938 106.275 13.739C106.181 13.5841 106.095 13.4098 106.017 13.2162C105.952 13.0236 105.908 12.8327 105.883 12.6434C105.823 12.0633 105.781 11.4311 105.757 10.7468C105.747 10.0504 105.736 9.37384 105.722 8.71724C105.727 8.49024 105.771 8.28644 105.853 8.10582C105.949 7.91301 106.106 7.79206 106.324 7.743C106.553 7.7216 106.723 7.76895 106.834 7.88503C106.945 8.00112 107.004 8.17321 107.012 8.4013ZM123.276 11.4966C122.733 11.7599 122.155 11.9535 121.543 12.0774C120.932 12.188 120.281 12.215 119.59 12.1585C119.578 12.6258 119.681 13.0088 119.897 13.3074C120.115 13.5927 120.401 13.7766 120.755 13.8591C120.966 13.9031 121.179 13.9138 121.395 13.8913C121.624 13.8699 121.835 13.827 122.027 13.7624C122.234 13.6857 122.422 13.6007 122.59 13.5074C122.758 13.4142 122.906 13.3193 123.035 13.2227C123.163 13.1262 123.295 13.0701 123.43 13.0543C123.566 13.0253 123.666 13.0268 123.73 13.0588C123.911 13.1405 123.961 13.3453 123.881 13.6732C123.633 14.081 123.298 14.4215 122.874 14.6945C122.452 14.9543 121.991 15.104 121.493 15.1435C121.061 15.1885 120.624 15.1327 120.182 14.9762C119.74 14.8196 119.354 14.5539 119.023 14.1791C118.743 13.8485 118.539 13.4706 118.414 13.0456C118.288 12.6207 118.223 12.1873 118.219 11.7455C118.213 11.3302 118.278 10.9409 118.415 10.5775C118.565 10.2152 118.771 9.9043 119.033 9.64478C119.296 9.37198 119.615 9.15722 119.989 9.0005C120.363 8.84379 120.79 8.77169 121.27 8.78422C121.845 8.79107 122.355 8.93974 122.799 9.23026C123.244 9.52077 123.54 9.89954 123.69 10.3666C123.775 10.6278 123.784 10.8492 123.715 11.0309C123.66 11.2137 123.514 11.3689 123.276 11.4966ZM121.095 9.95378C120.959 9.9695 120.809 10.0041 120.645 10.0575C120.493 10.112 120.346 10.1869 120.205 10.2824C120.078 10.3656 119.955 10.4694 119.838 10.5936C119.735 10.7055 119.671 10.8407 119.645 10.9991C119.87 11.0176 120.118 11.0178 120.387 10.9996C120.669 10.9826 120.939 10.9578 121.196 10.9253C121.467 10.8805 121.712 10.827 121.931 10.7646C122.164 10.7034 122.357 10.6322 122.511 10.5511C122.425 10.29 122.238 10.1208 121.95 10.0438C121.676 9.95452 121.391 9.92452 121.095 9.95378ZM129.46 6.20285C129.292 6.77779 129.119 7.34554 128.939 7.9061C128.773 8.46775 128.613 9.02995 128.46 9.59268C128.307 10.1554 128.181 10.7203 128.081 11.2874C127.981 11.8545 127.928 12.4254 127.921 13.0001C127.935 13.1484 127.897 13.2858 127.807 13.4121C127.729 13.5396 127.643 13.6195 127.546 13.6517C127.245 13.7341 127.039 13.6437 126.926 13.3803C126.822 12.6895 126.791 12.0114 126.832 11.3459C126.886 10.6814 126.987 10.0274 127.133 9.38384C127.292 8.74137 127.478 8.10772 127.689 7.48288C127.915 6.84584 128.141 6.21545 128.366 5.5917C128.454 5.33135 128.572 5.19386 128.721 5.17923C128.869 5.1646 129.007 5.1893 129.136 5.25331C129.33 5.33605 129.445 5.47926 129.482 5.68295C129.519 5.88663 129.511 6.05993 129.46 6.20285ZM127.786 16.8619C127.774 17.0081 127.737 17.2058 127.677 17.455C127.631 17.692 127.559 17.9136 127.462 18.1197C127.378 18.3269 127.264 18.4915 127.121 18.6135C126.99 18.7367 126.835 18.7507 126.656 18.6558C126.555 18.5807 126.459 18.4457 126.368 18.251C126.277 18.0563 126.244 17.8797 126.271 17.7213C126.323 17.4046 126.415 17.0977 126.547 16.8007C126.678 16.5038 126.833 16.3291 127.011 16.2768C127.093 16.2568 127.179 16.2638 127.27 16.298C127.374 16.3333 127.463 16.3874 127.538 16.4603C127.613 16.52 127.674 16.5919 127.721 16.676C127.768 16.7468 127.79 16.8087 127.786 16.8619Z" fill="white"/>
<path d="M61.6008 4.91982C60.8272 4.78613 59.7143 5.79442 59.2069 6.2339C57.7663 7.48165 56.8515 9.44694 56.2458 11.2208C55.7771 12.5936 55.76 14.5018 56.7809 15.6634" stroke="white" stroke-linecap="round"/>
<path d="M52.4571 13.728C53.6564 14.9447 55.1932 15.73 56.6469 16.6048C57.1403 16.9018 57.0957 16.7811 57.4703 16.3222C58.2719 15.3404 58.9511 14.2852 59.8992 13.4287C60.1079 13.2401 60.3897 13.1236 60.5664 12.9244" stroke="white" stroke-linecap="round"/>
</svg>
