<svg width="195" height="189" viewBox="0 0 195 189" fill="none" xmlns="http://www.w3.org/2000/svg">
<g style="mix-blend-mode:soft-light">
<path d="M15.055 58.5849L139.207 34.5227L186.606 153.783C186.606 153.783 151.454 165.494 128.227 169.996C47.6075 185.621 28.1372 177.048 28.1372 177.048C22.3616 109.025 23.0667 107.502 15.055 58.5849Z" fill="#2C2617" fill-opacity="0.7"/>
</g>
<path d="M37.9573 167.794C34.1759 161.632 18.539 73.1645 11.1932 29.701L165.646 6.22976C164.548 9.45916 182.563 108.346 191.709 157.386C94.9447 178.726 48.8895 173.216 37.9573 167.794Z" fill="#BF1A2F"/>
<path d="M47.0438 55.2443C46.9546 55.4227 46.8426 55.553 46.7076 55.635C46.5702 55.7026 46.4436 55.746 46.3279 55.7654C46.1229 55.7847 45.924 55.751 45.7311 55.6643C45.5357 55.5631 45.4055 55.451 45.3403 55.3281C45.2125 55.0967 45.0725 54.8375 44.9205 54.5506C44.7685 54.2638 44.6165 53.9769 44.4645 53.69C44.3245 53.3862 44.1797 53.0982 44.0301 52.8258C43.8781 52.5389 43.7382 52.2797 43.6103 52.0483C43.4056 52.6029 43.2165 53.1624 43.0431 53.7267C42.8673 54.2765 42.6662 54.8528 42.4397 55.4557C42.3313 55.6969 42.1903 55.8766 42.0167 55.9948C41.8408 56.0985 41.6865 56.154 41.5539 56.1613C41.3634 56.1783 41.1777 56.1349 40.9968 56.0313C40.8304 55.9253 40.6942 55.8216 40.588 55.7204C40.3854 55.4866 40.1707 55.1805 39.9439 54.802C39.7147 54.409 39.4903 54.0004 39.2707 53.5761C39.0632 53.135 38.8641 52.6998 38.6735 52.2707C38.4804 51.8271 38.3175 51.4305 38.1848 51.081C38.1003 50.8423 38.0617 50.6108 38.0688 50.3866C38.0904 50.1599 38.2001 50.0152 38.3978 49.9524C38.6413 49.8969 38.88 49.9462 39.114 50.1005C39.3455 50.2402 39.4902 50.3945 39.5481 50.5633C39.6543 50.8429 39.7726 51.1503 39.9029 51.4854C40.0453 51.8036 40.1889 52.1291 40.3337 52.4618C40.4929 52.7921 40.6437 53.1163 40.7861 53.4345C40.943 53.7504 41.0938 54.03 41.2385 54.2735C41.3975 53.89 41.5698 53.4523 41.7552 52.9604C41.9528 52.4516 42.1395 51.9668 42.3153 51.5062C42.4888 51.0312 42.6502 50.6176 42.7995 50.2655C42.9489 49.9134 43.0754 49.6916 43.179 49.5999C43.2562 49.5275 43.3803 49.5142 43.5516 49.56C43.7203 49.5913 43.8506 49.6587 43.9422 49.7624C44.3668 50.3457 44.7444 51.0038 45.075 51.7367C45.4177 52.4527 45.7446 53.1193 46.0559 53.7364C46.2149 53.4422 46.3751 53.066 46.5365 52.6078C46.6955 52.1352 46.8436 51.642 46.9808 51.1284C47.1181 50.6148 47.2409 50.1036 47.3492 49.5948C47.4575 49.086 47.5381 48.6338 47.591 48.2384C47.6415 47.8285 47.7692 47.6138 47.9742 47.5945C48.2394 47.5799 48.4781 47.6292 48.6903 47.7425C48.9026 47.8557 49.0003 47.9956 48.9834 48.1619C48.8778 49.4881 48.6613 50.7288 48.3338 51.8838C48.0039 53.0244 47.5739 54.1446 47.0438 55.2443ZM52.0825 45.0346C52.1405 45.3818 52.1985 45.7736 52.2565 46.21C52.329 46.644 52.4039 47.0924 52.4812 47.5554C52.573 48.0159 52.66 48.4921 52.7421 48.9839C52.8388 49.4733 52.9318 49.9411 53.0211 50.3871C53.1175 50.0736 53.244 49.7625 53.4006 49.4538C53.5548 49.1307 53.7367 48.8401 53.9464 48.582C54.1705 48.3215 54.4092 48.1032 54.6623 47.9271C54.9298 47.7486 55.23 47.6315 55.5627 47.576C55.9244 47.5155 56.262 47.5781 56.5755 47.7637C56.9035 47.9468 57.2014 48.2167 57.4691 48.5735C57.7489 48.9134 58.0011 49.3099 58.2255 49.7631C58.4474 50.2019 58.6429 50.66 58.8119 51.1373C58.9929 51.5978 59.1425 52.0486 59.2608 52.4898C59.3767 52.9166 59.4757 53.2866 59.5578 53.6001C59.5965 53.8315 59.57 54.0293 59.4785 54.1932C59.3869 54.3572 59.2616 54.4525 59.1024 54.4791C58.9867 54.4984 58.8299 54.4503 58.6322 54.3346C58.4465 54.2021 58.2993 54.0333 58.1908 53.8284C58.1184 53.6621 58.0327 53.4162 57.9337 53.0907C57.8347 52.7652 57.7249 52.4192 57.6042 52.0528C57.4811 51.6719 57.3435 51.2934 57.1915 50.9173C57.0394 50.5412 56.8729 50.2121 56.692 49.9301C56.5231 49.6311 56.3374 49.4094 56.1348 49.2648C55.9322 49.1202 55.7188 49.0889 55.4946 49.171C55.145 49.3037 54.869 49.61 54.6667 50.0899C54.4788 50.5674 54.3295 51.0979 54.2188 51.6815C54.1225 52.2626 54.0564 52.8461 54.0205 53.4321C53.999 54.0156 53.9883 54.4858 53.9884 54.8426C53.9741 55.1127 53.9247 55.3068 53.8404 55.425C53.7681 55.5263 53.674 55.5866 53.5583 55.6059C53.4426 55.6253 53.3244 55.5855 53.2038 55.4867C53.0977 55.3855 52.9879 55.2625 52.8746 55.1179C52.7732 54.9564 52.6791 54.7937 52.5923 54.6297C52.503 54.4514 52.4403 54.2983 52.404 54.1705C52.2012 53.4014 52.0189 52.666 51.8571 51.9644C51.6929 51.2484 51.5359 50.5311 51.3862 49.8126C51.2509 49.0917 51.1204 48.3552 50.9947 47.6029C50.8667 46.8362 50.7446 46.0165 50.6286 45.1436C50.5077 44.4203 50.7138 44.0514 51.2466 44.0367C51.4251 44.0366 51.5987 44.1415 51.7676 44.3512C51.934 44.5464 52.039 44.7742 52.0825 45.0346ZM67.1519 45.3725C67.3258 46.1464 67.5009 46.9275 67.6772 47.7159C67.868 48.5019 68.0142 49.2879 68.1157 50.0739C68.2148 50.8455 68.2609 51.611 68.254 52.3705C68.2615 53.1276 68.1774 53.8703 68.0016 54.5986C67.8234 55.3123 67.5368 55.9996 67.1416 56.6604C66.7608 57.3188 66.2402 57.9411 65.5798 58.5272C65.4761 58.6189 65.3532 58.6841 65.2109 58.7227C65.0832 58.7589 64.9518 58.7734 64.8167 58.7662C64.6841 58.7735 64.5623 58.7567 64.4514 58.7157C64.3429 58.6892 64.2669 58.635 64.2235 58.5531C64.1584 58.4301 64.1559 58.2818 64.2161 58.1082C64.2763 57.9346 64.3932 57.744 64.5667 57.5366C65.1235 56.9529 65.5742 56.3572 65.9188 55.7494C66.2633 55.1417 66.5139 54.5051 66.6704 53.8395C66.8268 53.174 66.8808 52.4735 66.8324 51.7381C66.7959 50.9858 66.6618 50.1829 66.43 49.3295C66.2927 49.5755 66.1276 49.8335 65.9348 50.1036C65.742 50.3738 65.5311 50.6246 65.3021 50.8562C65.0707 51.0733 64.8285 51.2699 64.5754 51.446C64.3198 51.6076 64.0691 51.709 63.8232 51.75C63.6207 51.7839 63.4109 51.7743 63.1939 51.7213C62.9768 51.6684 62.7465 51.5358 62.5029 51.3237C62.2207 51.0586 61.9542 50.7537 61.7033 50.409C61.4644 50.0474 61.2497 49.6966 61.0591 49.3567C60.8685 49.0168 60.7056 48.7095 60.5705 48.4346C60.4499 48.1574 60.3726 47.9621 60.3388 47.8488C60.2857 47.709 60.2628 47.5715 60.27 47.4365C60.2771 47.3015 60.3579 47.2062 60.5122 47.1507C60.7219 47.071 60.9269 47.0517 61.127 47.0926C61.3272 47.1335 61.4767 47.2275 61.5756 47.3746C61.66 47.524 61.7807 47.7566 61.9375 48.0725C62.0944 48.3883 62.2729 48.7005 62.4731 49.009C62.671 49.3031 62.87 49.5598 63.0702 49.7792C63.2849 49.9961 63.4862 50.0889 63.6743 50.0574C63.8913 50.0212 64.1263 49.8704 64.3794 49.6051C64.647 49.3374 64.8892 49.0069 65.106 48.6138C65.3229 48.2207 65.4903 47.7987 65.6083 47.3478C65.7383 46.88 65.7695 46.4435 65.7019 46.0385C65.6874 45.9517 65.6849 45.848 65.6945 45.7274C65.7041 45.6069 65.7294 45.4911 65.7703 45.3802C65.8089 45.2548 65.8583 45.1499 65.9185 45.0655C65.9908 44.9642 66.0692 44.8991 66.1535 44.8701C66.3802 44.8025 66.5936 44.8338 66.7937 44.9639C67.006 45.0771 67.1254 45.2133 67.1519 45.3725ZM79.1615 39.0839C79.0746 38.8307 79.0492 38.5896 79.0853 38.3606C79.1358 38.1291 79.2817 37.9783 79.5228 37.9083C79.7349 37.8431 79.9326 37.8696 80.1159 37.9877C80.3137 38.1033 80.4536 38.2733 80.5357 38.4975C81.1029 40.1128 81.6472 41.7244 82.1686 43.3325C82.702 44.9237 83.2017 46.4908 83.6676 48.0338C83.7956 48.4436 83.815 48.7378 83.7258 48.9163C83.6342 49.0802 83.5149 49.2117 83.3679 49.3106C83.2064 49.4119 83.04 49.4397 82.8688 49.394C82.7121 49.3458 82.5963 49.2313 82.5215 49.0505L82.478 48.9239L82.3949 48.9601C81.9465 49.2135 81.4643 49.3981 80.9483 49.514C80.43 49.6155 79.92 49.6337 79.4185 49.5688C78.9169 49.5039 78.4515 49.3437 78.0222 49.0883C77.605 48.816 77.2745 48.44 77.0308 47.9602C76.4976 46.9043 76.5454 45.8554 77.1743 44.8136C77.4442 44.3819 77.7997 43.9731 78.2408 43.5871C78.682 43.2012 79.2352 42.8634 79.9006 42.5738L80.2767 42.4218L79.1615 39.0839ZM78.2639 47.1966C78.4086 47.5293 78.6125 47.7704 78.8753 47.9198C79.1382 48.0692 79.4348 48.1535 79.7652 48.1726C80.0931 48.1773 80.4343 48.1278 80.7887 48.024C81.1431 47.9202 81.4842 47.7814 81.8121 47.6077L81.9965 47.5099L80.751 43.7924L80.3351 43.9733C80.0458 44.1109 79.7433 44.3027 79.4275 44.5487C79.1238 44.7779 78.8623 45.0372 78.6429 45.3266C78.4236 45.616 78.267 45.9247 78.1731 46.2527C78.0936 46.5782 78.1239 46.8929 78.2639 47.1966ZM89.2477 40.9233C89.7082 41.0099 90.1098 41.1882 90.4522 41.4581C90.8092 41.7256 91.1011 42.0486 91.3279 42.4271C91.5522 42.7911 91.7067 43.1817 91.7912 43.5988C91.8902 44.0135 91.9121 44.4113 91.8568 44.7923C91.7653 45.2239 91.6292 45.6556 91.4485 46.0872C91.2678 46.5189 91.0437 46.9132 90.7762 47.2702C90.5087 47.6271 90.1881 47.9334 89.8145 48.1892C89.4409 48.4449 89.0081 48.6138 88.5163 48.696C87.9232 48.7951 87.4011 48.741 86.9501 48.5338C86.4992 48.3266 86.1217 48.0253 85.8178 47.63C85.5138 47.2347 85.2798 46.7682 85.1156 46.2306C84.9659 45.6905 84.8886 45.1384 84.8835 44.5742C84.8737 44.1595 84.9025 43.7532 84.9699 43.3553C85.0493 42.9405 85.1734 42.5704 85.342 42.2448C85.5083 41.9048 85.7131 41.6178 85.9566 41.3838C86.2145 41.1474 86.5243 40.999 86.8859 40.9386C87.0884 40.9048 87.3488 40.9059 87.6671 40.9419C87.983 40.9635 88.2832 41.0249 88.5678 41.1261C88.7268 40.921 88.9535 40.8534 89.2477 40.9233ZM88.6877 42.6451C88.5116 42.5704 88.3018 42.4716 88.0583 42.3487C87.8267 42.2089 87.6314 42.1523 87.4723 42.1789C87.2987 42.2079 87.1384 42.3165 86.9914 42.5046C86.8588 42.6903 86.7456 42.9025 86.6516 43.1413C86.5697 43.3631 86.5035 43.5898 86.4529 43.8213C86.4024 44.0528 86.3735 44.2361 86.3663 44.3711C86.3592 44.5953 86.3737 44.8606 86.41 45.1668C86.4463 45.473 86.5187 45.7731 86.6274 46.0673C86.7336 46.3469 86.8868 46.5964 87.087 46.8158C87.2992 47.0182 87.5802 47.1423 87.9298 47.188C88.142 47.212 88.3807 47.1722 88.6459 47.0684C88.9087 46.9501 89.1557 46.7825 89.3871 46.5654C89.633 46.3459 89.8475 46.0721 90.0306 45.7441C90.2282 45.4137 90.3607 45.0496 90.4281 44.6517C90.5027 44.2081 90.4302 43.7741 90.2106 43.3498C90.0031 42.9086 89.6726 42.6218 89.2193 42.4893C89.1301 42.5786 89.0349 42.6317 88.9336 42.6486C88.8324 42.6655 88.7504 42.6643 88.6877 42.6451ZM99.1282 41.8156C98.6196 42.2425 98.0555 42.6044 97.436 42.9012C96.814 43.1836 96.1269 43.3876 95.3746 43.5132C95.4881 44.0147 95.7005 44.3956 96.0116 44.6559C96.3203 44.9017 96.6748 45.0209 97.0751 45.0136C97.3113 45.0038 97.5416 44.9579 97.7658 44.8759C98.0045 44.7914 98.2178 44.6888 98.4059 44.5682C98.6059 44.4307 98.7831 44.2896 98.9374 44.1449C99.0916 44.0001 99.2242 43.859 99.3351 43.7216C99.4459 43.5841 99.5713 43.4888 99.7111 43.4357C99.8485 43.3681 99.9558 43.3428 100.033 43.3596C100.248 43.3981 100.356 43.603 100.359 43.9744C100.205 44.4759 99.9383 44.9293 99.5599 45.3346C99.1791 45.7253 98.7283 46.0088 98.2075 46.185C97.7591 46.3491 97.2781 46.4071 96.7645 46.3591C96.2509 46.3111 95.7674 46.1316 95.314 45.8207C94.9257 45.5436 94.6073 45.1953 94.3588 44.7758C94.1103 44.3564 93.9244 43.9116 93.8013 43.4414C93.683 43.0002 93.6479 42.5674 93.6959 42.1431C93.7585 41.7163 93.8946 41.3292 94.1042 40.9819C94.3115 40.6202 94.5935 40.3054 94.9502 40.0376C95.307 39.7699 95.7433 39.578 96.2593 39.4621C96.8741 39.3148 97.4576 39.3363 98.0098 39.5266C98.562 39.7169 98.9805 40.041 99.2652 40.499C99.4268 40.7546 99.4956 40.9884 99.4716 41.2006C99.462 41.4104 99.3476 41.6154 99.1282 41.8156ZM96.3863 40.7569C96.2465 40.81 96.0958 40.8872 95.9343 40.9885C95.7873 41.0874 95.6511 41.2068 95.5257 41.3467C95.4125 41.4697 95.31 41.6132 95.2185 41.7772C95.139 41.9243 95.1065 42.0859 95.121 42.2619C95.3669 42.2208 95.6309 42.1544 95.913 42.0627C96.2095 41.9685 96.4904 41.8696 96.7556 41.7658C97.0328 41.6451 97.28 41.5221 97.4969 41.3966C97.7283 41.2688 97.9152 41.1409 98.0574 41.013C97.8957 40.7575 97.6509 40.6274 97.323 40.6227C97.0072 40.6011 96.6949 40.6458 96.3863 40.7569ZM105.744 39.2829C105.689 39.1286 105.634 38.9816 105.581 38.8418C105.528 38.7019 105.44 38.62 105.317 38.5959C105.059 38.5647 104.798 38.6009 104.532 38.7047C104.267 38.8085 104.03 38.9448 103.82 39.1137C103.608 39.268 103.436 39.4381 103.303 39.6238C103.168 39.795 103.103 39.9397 103.108 40.0579C103.101 40.2821 103.194 40.4822 103.387 40.6582C103.58 40.8341 103.845 40.998 104.182 41.1498C104.74 41.369 105.32 41.5918 105.922 41.8182C106.525 42.0447 107.043 42.2928 107.474 42.5627C107.906 42.8326 108.221 43.1592 108.419 43.5425C108.629 43.909 108.674 44.3623 108.557 44.9024C108.463 45.3196 108.219 45.6874 107.826 46.0058C107.433 46.3242 106.989 46.5992 106.492 46.8309C105.993 47.0481 105.488 47.2291 104.977 47.374C104.463 47.5043 104.026 47.5997 103.664 47.6602C103.577 47.6747 103.464 47.6638 103.324 47.6277C103.196 47.5747 103.067 47.5145 102.937 47.447C102.821 47.3771 102.713 47.3061 102.611 47.2338C102.522 47.1446 102.471 47.0638 102.459 46.9915C102.416 46.7311 102.501 46.5309 102.716 46.391C102.931 46.2511 103.161 46.1606 103.407 46.1195C103.754 46.0615 104.12 45.9854 104.506 45.8912C104.904 45.7802 105.278 45.6583 105.627 45.5255C105.974 45.3783 106.282 45.2155 106.549 45.0369C106.817 44.8584 106.992 44.6582 107.073 44.4364C107.146 44.2459 107.047 44.0542 106.777 43.8614C106.519 43.6517 106.18 43.4481 105.76 43.2505C105.355 43.0506 104.915 42.8639 104.44 42.6904C103.979 42.5146 103.58 42.3508 103.243 42.199C102.905 42.0472 102.605 41.852 102.342 41.6134C102.076 41.3603 101.88 41.0288 101.752 40.619C101.675 40.2453 101.694 39.8703 101.809 39.4941C101.925 39.118 102.098 38.7767 102.33 38.4704C102.573 38.1472 102.862 37.8759 103.197 37.6563C103.533 37.4368 103.881 37.2968 104.243 37.2364C104.869 37.1614 105.412 37.2492 105.87 37.4998C106.326 37.736 106.641 38.1518 106.815 38.7473C106.848 38.9498 106.84 39.1222 106.79 39.2645C106.753 39.4043 106.658 39.502 106.504 39.5575C106.306 39.6203 106.136 39.6264 105.994 39.5758C105.864 39.5083 105.78 39.4107 105.744 39.2829ZM119.24 34.5974C119.235 34.7469 119.147 34.8434 118.976 34.8869C118.805 34.9304 118.661 34.9617 118.546 34.9811C118.186 35.056 117.816 35.1549 117.435 35.2781C117.069 35.3987 116.686 35.552 116.285 35.7378C116.121 35.8247 115.93 35.8344 115.71 35.7669C115.491 35.6995 115.334 35.5175 115.24 35.221C115.221 35.1053 115.248 35.004 115.323 34.9171C115.398 34.8303 115.488 34.7483 115.594 34.6711C115.768 34.5529 115.98 34.4431 116.231 34.3417C116.479 34.2259 116.731 34.1318 116.986 34.0594C117.256 33.9845 117.516 33.9338 117.764 33.9072C118.01 33.8661 118.216 33.854 118.382 33.8708C118.626 33.9045 118.825 33.9827 118.979 34.1057C119.148 34.2262 119.235 34.3901 119.24 34.5974ZM119.948 41.9067C120.088 42.1212 120.181 42.3659 120.226 42.6408C120.284 42.8988 120.242 43.0917 120.1 43.2195C119.919 43.3836 119.701 43.4126 119.446 43.3066C119.19 43.2006 118.984 43.0343 118.827 42.8077C118.617 42.5305 118.432 42.1821 118.273 41.7626C118.111 41.3287 117.973 40.8983 117.857 40.4716C117.741 40.0449 117.644 39.6446 117.567 39.2709C117.504 38.8948 117.457 38.6127 117.426 38.4247C117.406 38.2197 117.433 38.022 117.505 37.8315C117.577 37.641 117.69 37.518 117.845 37.4624C118.108 37.4334 118.338 37.5213 118.536 37.7262C118.731 37.9166 118.849 38.1794 118.89 38.5145C118.934 38.7749 118.989 39.0631 119.057 39.3789C119.125 39.6947 119.207 40.0082 119.303 40.3192C119.4 40.6302 119.503 40.9327 119.611 41.2269C119.717 41.5065 119.83 41.7331 119.948 41.9067ZM126.717 36.4712C126.989 36.4108 127.275 36.43 127.574 36.5287C127.873 36.6275 128.048 36.8288 128.099 37.1325C128.111 37.3833 128 37.5654 127.766 37.6788C127.544 37.7753 127.361 37.8357 127.216 37.8598C126.927 37.9082 126.617 37.9674 126.287 38.0374C125.957 38.1074 125.62 38.1859 125.278 38.2729C125.329 38.7551 125.375 39.2084 125.416 39.6327C125.472 40.0546 125.52 40.4332 125.561 40.7683C125.6 41.089 125.636 41.3506 125.67 41.5531C125.704 41.7557 125.729 41.8629 125.746 41.875C126.054 41.764 126.379 41.6132 126.719 41.4225C127.071 41.2151 127.414 41.0015 127.749 40.782C128.096 40.5456 128.429 40.3116 128.747 40.08C129.077 39.8315 129.388 39.6011 129.68 39.3888C129.813 39.2924 129.939 39.2489 130.06 39.2585C130.195 39.2657 130.285 39.3175 130.331 39.4139C130.387 39.5682 130.397 39.7671 130.364 40.0107C130.33 40.2542 130.235 40.4857 130.078 40.7052C129.89 40.9151 129.635 41.1659 129.312 41.4578C129.001 41.7328 128.66 42.0054 128.289 42.2755C127.917 42.5457 127.535 42.7954 127.142 43.0246C126.761 43.2369 126.414 43.3842 126.101 43.4662C125.631 43.5894 125.247 43.5196 124.951 43.2569C124.654 42.9942 124.453 42.6338 124.346 42.1757C124.24 41.7176 124.143 41.1836 124.056 40.5736C123.984 39.9611 123.905 39.3126 123.821 38.6278C123.551 38.7027 123.288 38.7763 123.032 38.8487C122.789 38.9043 122.554 38.9658 122.327 39.0334C122.139 39.0649 121.922 39.0565 121.676 39.0084C121.444 38.9578 121.308 38.8096 121.267 38.5636C121.253 38.4768 121.269 38.3551 121.318 38.1983C121.366 38.0416 121.507 37.9065 121.741 37.7931C122.317 37.5928 122.961 37.396 123.672 37.2029C123.602 36.5157 123.542 35.849 123.494 35.2029C123.445 34.5567 123.399 33.9696 123.356 33.4415C123.341 33.2655 123.366 33.1052 123.432 32.9605C123.497 32.8158 123.58 32.735 123.681 32.7181C123.925 32.6625 124.167 32.6889 124.408 32.7974C124.661 32.8889 124.802 33.0215 124.831 33.1951C124.856 33.6966 124.891 34.2632 124.937 34.8949C124.997 35.5242 125.06 36.168 125.126 36.8262C125.41 36.7489 125.683 36.6886 125.943 36.6451C126.215 36.5847 126.473 36.5267 126.717 36.4712ZM43.3228 72.4931C43.3759 72.7221 43.4459 73.0078 43.5329 73.3502C43.6318 73.6756 43.7344 74.0228 43.8407 74.3917C43.9445 74.7461 44.0483 75.1005 44.1521 75.4549C44.2704 75.8069 44.3766 76.1312 44.4707 76.4277C44.5767 76.0829 44.7067 75.6596 44.8609 75.1581C45.015 74.6565 45.18 74.1754 45.3558 73.7148C45.5437 73.2373 45.7437 72.8322 45.9558 72.4993C46.1799 72.1496 46.4005 71.9567 46.6175 71.9204C46.8489 71.8818 47.078 71.9624 47.3047 72.1625C47.5435 72.3457 47.7618 72.5843 47.9596 72.8784C48.1574 73.1725 48.3372 73.4919 48.4989 73.8366C48.675 74.179 48.8222 74.4815 48.9404 74.7443C48.9669 74.5466 49.0042 74.3247 49.0523 74.0788C49.1125 73.8159 49.1727 73.5531 49.2329 73.2902C49.3051 73.0105 49.3858 72.7368 49.4749 72.4691C49.5785 72.199 49.6941 71.9567 49.8219 71.742C49.9761 71.5081 50.1545 71.3296 50.3569 71.2066C50.557 71.0691 50.7077 70.9918 50.809 70.9749C50.9392 70.9532 51.0983 70.9712 51.2864 71.029C51.4865 71.0699 51.6915 71.1398 51.9013 71.2386C52.1111 71.3373 52.3113 71.4675 52.5018 71.6289C52.7044 71.7735 52.8721 71.9314 53.0048 72.1026C53.2725 72.4593 53.5029 72.8595 53.696 73.3031C53.9035 73.7443 54.0712 74.1698 54.1992 74.5796C54.3271 74.9895 54.4261 75.3596 54.4962 75.6899C54.5783 76.0033 54.6374 76.2239 54.6736 76.3517C54.705 76.5397 54.7075 76.688 54.681 76.7965C54.6521 76.8906 54.5846 76.9762 54.4786 77.0534C54.3315 77.1523 54.1989 77.2042 54.0808 77.2091C53.9602 77.1995 53.8577 77.1645 53.7733 77.1043C53.6889 77.044 53.6177 76.9741 53.5598 76.8946C53.4995 76.8006 53.4561 76.7186 53.4296 76.6487C53.3306 76.3232 53.2232 75.9917 53.1073 75.6542C53.0059 75.3143 52.8997 74.99 52.7887 74.6814C52.6752 74.3583 52.5522 74.0666 52.4194 73.8063C52.2988 73.529 52.1769 73.2892 52.0539 73.0867C52.0153 73.0336 51.9526 72.9698 51.8658 72.895C51.791 72.8035 51.7029 72.7215 51.6016 72.6492C51.5148 72.5745 51.4304 72.5142 51.3484 72.4685C51.2664 72.4227 51.2097 72.395 51.1784 72.3853C51.0337 72.4095 50.9048 72.5723 50.7916 72.8737C50.6759 73.1607 50.5772 73.5043 50.4954 73.9046C50.4135 74.3049 50.3425 74.7257 50.2824 75.167C50.2344 75.5913 50.2056 75.953 50.196 76.252C50.2588 76.6281 50.2336 76.9223 50.1204 77.1345C50.0047 77.3323 49.8673 77.4445 49.7082 77.4711C49.5491 77.4976 49.3658 77.4688 49.1584 77.3844C48.9631 77.2833 48.8232 77.1579 48.7387 77.0085C48.6133 76.7915 48.4757 76.5468 48.3261 76.2744C48.1766 76.002 48.0185 75.7236 47.852 75.4391C47.7 75.1522 47.542 74.8738 47.3779 74.6038C47.2284 74.3314 47.0836 74.0879 46.9437 73.8734C46.7871 74.182 46.6353 74.5197 46.4883 74.8862C46.3558 75.2504 46.2246 75.6217 46.0945 76.0003C45.9789 76.3765 45.8633 76.7527 45.7477 77.1289C45.6441 77.4882 45.5418 77.8101 45.4406 78.0947C45.3659 78.2707 45.2816 78.4335 45.1876 78.583C45.0912 78.7181 44.9635 78.7989 44.8043 78.8255C44.6886 78.8448 44.5572 78.8147 44.4101 78.7352C44.2605 78.6412 44.1146 78.5244 43.9723 78.3846C43.83 78.2448 43.6913 78.0821 43.5562 77.8964C43.4356 77.7084 43.3366 77.5168 43.2594 77.3215C43.0398 76.7188 42.8249 76.0558 42.6149 75.3325C42.4169 74.5923 42.2226 73.8739 42.0318 73.1771C41.9763 72.9336 41.9678 72.7045 42.0063 72.4899C42.0568 72.2584 42.1918 72.0872 42.4112 71.9762C42.6498 71.8917 42.8439 71.8965 42.9935 71.9904C43.143 72.0844 43.2528 72.252 43.3228 72.4931ZM61.1866 68.4608C61.3121 68.8562 61.428 69.2829 61.5343 69.741C61.6526 70.1822 61.7577 70.6331 61.8494 71.0936C61.9557 71.5517 62.0451 71.9977 62.1176 72.4317C62.1901 72.8657 62.2481 73.2575 62.2916 73.6071C62.8077 73.848 63.1297 74.0842 63.2575 74.3156C63.3999 74.5446 63.4506 74.7592 63.4097 74.9593C63.3664 75.2342 63.2302 75.3982 63.0012 75.4514C62.7842 75.4876 62.5177 75.4503 62.2018 75.3395C62.0234 75.518 61.8186 75.7158 61.5872 75.9329C61.3534 76.1355 61.1051 76.3406 60.8423 76.548C60.5772 76.741 60.3096 76.9195 60.0396 77.0836C59.7696 77.2477 59.5153 77.3719 59.2766 77.4564C58.8258 77.6061 58.3917 77.5893 57.9745 77.4062C57.5718 77.2207 57.2643 76.8929 57.0519 76.4228C56.9095 76.1046 56.831 75.7683 56.8164 75.4138C56.7994 75.0449 56.8511 74.6868 56.9716 74.3396C57.0896 73.9779 57.2715 73.6426 57.5174 73.3339C57.7776 73.0228 58.0982 72.761 58.4791 72.5487C58.5731 72.4884 58.7045 72.4293 58.8733 72.3714C59.0565 72.311 59.2434 72.2724 59.4339 72.2554C59.6364 72.2216 59.8449 72.2239 60.0596 72.2624C60.2742 72.3009 60.4828 72.3925 60.6854 72.5371C60.6443 72.2912 60.5923 72.0247 60.5296 71.7378C60.4788 71.434 60.4208 71.1315 60.3556 70.8301C60.2904 70.5287 60.2216 70.2502 60.1492 69.9947C60.0888 69.7222 60.0284 69.4944 59.9681 69.3112C59.9029 69.099 59.7943 68.9833 59.6424 68.9641C59.5026 68.928 59.3374 68.963 59.147 69.0691C58.8191 69.2429 58.4515 69.5348 58.0442 69.9448C57.6368 70.3549 57.2548 70.783 56.8981 71.2292C56.7897 71.3811 56.6474 71.4644 56.4714 71.4789C56.3099 71.491 56.1616 71.4489 56.0265 71.3525C55.8915 71.2561 55.8046 71.1367 55.766 70.9945C55.7249 70.8378 55.755 70.6618 55.8562 70.4664C56.0586 70.1649 56.2888 69.8514 56.5467 69.5258C56.8046 69.2002 57.0817 68.9011 57.3782 68.6285C57.6723 68.3415 57.9808 68.0967 58.3038 67.894C58.6269 67.6913 58.9608 67.5538 59.3055 67.4813C59.8094 67.3823 60.2194 67.4328 60.5353 67.6328C60.8488 67.8183 61.0659 68.0943 61.1866 68.4608ZM59.4488 73.5466C59.268 73.6214 59.0812 73.7493 58.8883 73.9302C58.7075 74.0942 58.5473 74.292 58.4075 74.5235C58.2798 74.7382 58.1931 74.9757 58.1474 75.2361C58.1137 75.4797 58.1524 75.7111 58.2633 75.9305C58.3068 76.0125 58.3755 76.0679 58.4696 76.0968C58.5781 76.1233 58.6878 76.1124 58.7987 76.0641C59.1338 75.9338 59.5014 75.7311 59.9016 75.4561C60.3138 75.1642 60.6295 74.8735 60.8489 74.5841C60.8344 74.4973 60.7728 74.3961 60.6643 74.2804C60.5533 74.1502 60.4291 74.0297 60.2916 73.9188C60.1517 73.7935 60.001 73.6923 59.8394 73.6152C59.6923 73.5357 59.5621 73.5128 59.4488 73.5466ZM69.2894 69.3824C69.5619 69.322 69.8476 69.3412 70.1466 69.44C70.4457 69.5387 70.6205 69.74 70.6713 70.0438C70.6834 70.2945 70.5726 70.4766 70.3387 70.59C70.1169 70.6866 69.9337 70.7469 69.7891 70.7711C69.4997 70.8194 69.1899 70.8786 68.8596 70.9486C68.5293 71.0187 68.193 71.0971 67.8506 71.1841C67.9014 71.6663 67.9474 72.1196 67.9885 72.5439C68.0442 72.9659 68.0925 73.3444 68.1336 73.6796C68.1723 74.0002 68.2086 74.2618 68.2424 74.4644C68.2762 74.6669 68.3016 74.7742 68.3185 74.7862C68.6271 74.6752 68.9513 74.5244 69.2912 74.3338C69.6432 74.1263 69.9867 73.9128 70.3218 73.6932C70.6689 73.4568 71.0016 73.2228 71.3198 72.9912C71.65 72.7427 71.961 72.5124 72.2526 72.3001C72.3852 72.2036 72.5118 72.1601 72.6323 72.1697C72.7674 72.1769 72.8578 72.2287 72.9037 72.3252C72.9592 72.4794 72.9701 72.6784 72.9364 72.9219C72.9028 73.1655 72.8076 73.397 72.651 73.6164C72.463 73.8263 72.2075 74.0771 71.8845 74.369C71.5735 74.644 71.2324 74.9166 70.8612 75.1868C70.49 75.4569 70.1079 75.7066 69.715 75.9358C69.3341 76.1482 68.9869 76.2954 68.6735 76.3775C68.2034 76.5006 67.82 76.4308 67.5233 76.1681C67.2266 75.9054 67.0252 75.545 66.9189 75.0869C66.8126 74.6288 66.716 74.0948 66.629 73.4848C66.5564 72.8724 66.4778 72.2238 66.3932 71.539C66.1232 71.6139 65.8604 71.6875 65.6048 71.76C65.3613 71.8155 65.1262 71.8771 64.8996 71.9447C64.7115 71.9761 64.4945 71.9677 64.2486 71.9196C64.0171 71.869 63.8808 71.7208 63.8397 71.4749C63.8252 71.3881 63.842 71.2663 63.8902 71.1096C63.9384 70.9528 64.0794 70.8177 64.3132 70.7043C64.8894 70.504 65.5331 70.3072 66.2444 70.1141C66.1742 69.4269 66.1149 68.7603 66.0664 68.1141C66.018 67.4679 65.9719 66.8808 65.9284 66.3528C65.9138 66.1767 65.9391 66.0164 66.0041 65.8717C66.0692 65.727 66.1523 65.6462 66.2536 65.6293C66.4971 65.5737 66.7394 65.6002 66.9806 65.7086C67.2338 65.8001 67.3749 65.9327 67.4039 66.1063C67.4282 66.6078 67.4634 67.1744 67.5094 67.8061C67.5699 68.4354 67.6328 69.0792 67.6982 69.7374C67.9827 69.6602 68.2551 69.5998 68.5155 69.5563C68.788 69.4959 69.0459 69.4379 69.2894 69.3824ZM78.5812 67.8303C78.8536 67.7699 79.1393 67.7891 79.4384 67.8879C79.7374 67.9866 79.9123 68.1879 79.963 68.4917C79.9752 68.7425 79.8643 68.9245 79.6305 69.038C79.4087 69.1345 79.2255 69.1948 79.0808 69.219C78.7915 69.2673 78.4816 69.3265 78.1513 69.3965C77.821 69.4666 77.4847 69.5451 77.1423 69.632C77.1932 70.1142 77.2391 70.5675 77.2803 70.9919C77.3359 71.4138 77.3842 71.7923 77.4254 72.1275C77.4641 72.4482 77.5003 72.7098 77.5341 72.9123C77.568 73.1148 77.5933 73.2221 77.6102 73.2341C77.9188 73.1231 78.2431 72.9723 78.583 72.7817C78.9349 72.5742 79.2784 72.3607 79.6135 72.1412C79.9606 71.9047 80.2933 71.6707 80.6115 71.4391C80.9417 71.1907 81.2527 70.9603 81.5444 70.748C81.6769 70.6515 81.8035 70.6081 81.9241 70.6177C82.0591 70.6248 82.1495 70.6766 82.1954 70.7731C82.2509 70.9274 82.2618 71.1263 82.2282 71.3698C82.1945 71.6134 82.0993 71.8449 81.9427 72.0644C81.7547 72.2742 81.4992 72.5251 81.1762 72.8169C80.8653 73.0919 80.5242 73.3645 80.153 73.6347C79.7817 73.9049 79.3996 74.1546 79.0067 74.3838C78.6258 74.5961 78.2787 74.7433 77.9652 74.8254C77.4951 74.9485 77.1117 74.8788 76.815 74.616C76.5183 74.3533 76.3169 73.9929 76.2106 73.5348C76.1044 73.0768 76.0077 72.5427 75.9207 71.9327C75.8481 71.3203 75.7696 70.6717 75.6849 69.987C75.4149 70.0618 75.1521 70.1355 74.8965 70.2079C74.653 70.2634 74.418 70.325 74.1913 70.3926C74.0033 70.424 73.7863 70.4156 73.5403 70.3675C73.3088 70.317 73.1725 70.1687 73.1314 69.9228C73.1169 69.836 73.1338 69.7142 73.1819 69.5575C73.2301 69.4007 73.3711 69.2657 73.605 69.1522C74.1812 68.9519 74.8249 68.7552 75.5361 68.562C75.4659 67.8749 75.4066 67.2082 75.3582 66.562C75.3097 65.9158 75.2637 65.3287 75.2201 64.8007C75.2056 64.6247 75.2308 64.4643 75.2959 64.3196C75.3609 64.1749 75.4441 64.0941 75.5453 64.0772C75.7888 64.0217 76.0312 64.0481 76.2723 64.1565C76.5255 64.248 76.6666 64.3806 76.6956 64.5542C76.7199 65.0557 76.7551 65.6223 76.8011 66.2541C76.8617 66.8834 76.9246 67.5271 76.9899 68.1853C77.2744 68.1081 77.5469 68.0477 77.8072 68.0042C78.0797 67.9438 78.3377 67.8859 78.5812 67.8303ZM88.318 66.94C87.8094 67.3669 87.2453 67.7288 86.6257 68.0256C86.0038 68.3079 85.3166 68.5119 84.5644 68.6376C84.6779 69.1391 84.8902 69.52 85.2014 69.7803C85.5101 70.0261 85.8646 70.1453 86.2648 70.1379C86.5011 70.1282 86.7314 70.0823 86.9556 70.0003C87.1943 69.9158 87.4076 69.8132 87.5956 69.6926C87.7957 69.5551 87.9729 69.414 88.1272 69.2692C88.2814 69.1245 88.414 68.9834 88.5249 68.8459C88.6357 68.7085 88.7611 68.6132 88.9009 68.5601C89.0383 68.4925 89.1456 68.4672 89.2228 68.484C89.4374 68.5225 89.5459 68.7274 89.5485 69.0987C89.3944 69.6003 89.1281 70.0537 88.7497 70.4589C88.3688 70.8497 87.9181 71.1332 87.3973 71.3094C86.9489 71.4735 86.4679 71.5315 85.9543 71.4835C85.4407 71.4355 84.9572 71.256 84.5038 70.9451C84.1155 70.668 83.797 70.3197 83.5485 69.9002C83.3 69.4808 83.1142 69.036 82.9911 68.5658C82.8728 68.1246 82.8377 67.6918 82.8857 67.2674C82.9483 66.8406 83.0844 66.4536 83.294 66.1063C83.5012 65.7446 83.7832 65.4298 84.14 65.162C84.4967 64.8942 84.9331 64.7024 85.449 64.5865C86.0638 64.4392 86.6474 64.4607 87.1996 64.6509C87.7518 64.8412 88.1703 65.1654 88.455 65.6234C88.6166 65.8789 88.6854 66.1128 88.6614 66.325C88.6518 66.5348 88.5374 66.7398 88.318 66.94ZM85.5761 65.8812C85.4363 65.9343 85.2856 66.0115 85.1241 66.1129C84.977 66.2118 84.8409 66.3312 84.7155 66.4711C84.6022 66.5941 84.4998 66.7376 84.4083 66.9016C84.3287 67.0487 84.2962 67.2103 84.3108 67.3863C84.5567 67.3452 84.8207 67.2788 85.1028 67.1871C85.3993 67.0929 85.6802 66.994 85.9454 66.8902C86.2226 66.7695 86.4697 66.6465 86.6867 66.521C86.9181 66.3931 87.1049 66.2653 87.2471 66.1374C87.0855 65.8819 86.8407 65.7518 86.5128 65.7471C86.1969 65.7255 85.8847 65.7702 85.5761 65.8812ZM97.1976 63.0032C96.9614 63.1914 96.7119 63.3892 96.4492 63.5966C96.2009 63.8017 95.9502 64.0368 95.6971 64.3022C95.4561 64.5506 95.2296 64.8412 95.0175 65.1741C94.8175 65.49 94.6488 65.8602 94.5116 66.2846C94.3141 66.8826 94.213 67.4794 94.2084 68.075C94.2014 68.6561 94.2293 69.2239 94.2922 69.7785C94.3357 70.0389 94.3153 70.3174 94.231 70.614C94.1588 70.8937 94.0142 71.0517 93.7972 71.0879C93.5223 71.1338 93.2751 71.0339 93.0556 70.788C92.8482 70.5253 92.6938 70.2685 92.5924 70.0178C92.1749 69.0318 91.8032 68.053 91.4774 67.0814C91.1491 66.0953 90.8437 65.1129 90.5613 64.134C90.5274 63.9315 90.5635 63.7916 90.6696 63.7144C90.7901 63.6348 90.9312 63.589 91.0927 63.5769C91.2687 63.5623 91.4423 63.5779 91.6136 63.6237C91.7848 63.6694 91.8981 63.7695 91.9536 63.9238C92.1009 64.4493 92.2675 65.0014 92.4534 65.5801C92.6368 66.1442 92.807 66.6288 92.9638 67.0338C92.9396 66.5323 93.0189 66.0283 93.202 65.5219C93.3851 65.0155 93.6333 64.5428 93.9466 64.1039C94.2743 63.6625 94.6551 63.2718 95.089 62.9316C95.5374 62.5891 96.0075 62.3321 96.4993 62.1607C96.7115 62.0956 96.8923 62.0654 97.0418 62.0701C97.1913 62.0749 97.301 62.1086 97.3709 62.1713C97.4409 62.2339 97.4675 62.3485 97.4506 62.5148C97.4483 62.6788 97.364 62.8416 97.1976 63.0032ZM110.662 62.4716C110.935 62.4112 111.22 62.4304 111.52 62.5291C111.819 62.6279 111.993 62.8291 112.044 63.1329C112.056 63.3837 111.945 63.5658 111.712 63.6792C111.49 63.7757 111.307 63.8361 111.162 63.8602C110.873 63.9085 110.563 63.9677 110.232 64.0378C109.902 64.1078 109.566 64.1863 109.223 64.2732C109.274 64.7554 109.32 65.2087 109.361 65.6331C109.417 66.055 109.465 66.4336 109.507 66.7687C109.545 67.0894 109.581 67.351 109.615 67.5535C109.649 67.756 109.674 67.8633 109.691 67.8754C110 67.7643 110.324 67.6135 110.664 67.4229C111.016 67.2154 111.36 67.0019 111.695 66.7824C112.042 66.546 112.374 66.312 112.693 66.0804C113.023 65.8319 113.334 65.6015 113.626 65.3892C113.758 65.2927 113.885 65.2493 114.005 65.2589C114.14 65.2661 114.231 65.3179 114.277 65.4143C114.332 65.5686 114.343 65.7675 114.309 66.0111C114.276 66.2546 114.18 66.4861 114.024 66.7056C113.836 66.9154 113.58 67.1663 113.257 67.4582C112.946 67.7331 112.605 68.0057 112.234 68.2759C111.863 68.5461 111.481 68.7958 111.088 69.025C110.707 69.2373 110.36 69.3845 110.046 69.4666C109.576 69.5898 109.193 69.52 108.896 69.2573C108.599 68.9946 108.398 68.6342 108.292 68.1761C108.186 67.718 108.089 67.1839 108.002 66.5739C107.929 65.9615 107.851 65.3129 107.766 64.6282C107.496 64.703 107.233 64.7767 106.978 64.8491C106.734 64.9047 106.499 64.9662 106.272 65.0338C106.084 65.0652 105.867 65.0569 105.621 65.0087C105.39 64.9582 105.254 64.8099 105.213 64.564C105.198 64.4772 105.215 64.3555 105.263 64.1987C105.311 64.042 105.452 63.9069 105.686 63.7935C106.262 63.5931 106.906 63.3964 107.617 63.2032C107.547 62.5161 107.488 61.8494 107.439 61.2032C107.391 60.557 107.345 59.9699 107.301 59.4419C107.287 59.2659 107.312 59.1055 107.377 58.9608C107.442 58.8162 107.525 58.7354 107.626 58.7184C107.87 58.6629 108.112 58.6893 108.353 58.7977C108.607 58.8893 108.748 59.0218 108.777 59.1954C108.801 59.697 108.836 60.2636 108.882 60.8953C108.943 61.5246 109.006 62.1683 109.071 62.8266C109.356 62.7493 109.628 62.6889 109.888 62.6454C110.161 62.5851 110.419 62.5271 110.662 62.4716ZM115.913 57.6912C115.971 58.0383 116.029 58.4301 116.087 58.8665C116.159 59.3005 116.234 59.749 116.312 60.2119C116.403 60.6724 116.49 61.1486 116.573 61.6404C116.669 62.1299 116.762 62.5976 116.852 63.0437C116.948 62.7302 117.074 62.4191 117.231 62.1104C117.385 61.7872 117.567 61.4966 117.777 61.2385C118.001 60.9781 118.24 60.7598 118.493 60.5836C118.76 60.4051 119.06 60.2881 119.393 60.2325C119.755 60.1721 120.092 60.2347 120.406 60.4202C120.734 60.6033 121.032 60.8733 121.3 61.23C121.579 61.5699 121.832 61.9665 122.056 62.4197C122.278 62.8584 122.473 63.3165 122.642 63.7938C122.823 64.2543 122.973 64.7052 123.091 65.1464C123.207 65.5731 123.306 65.9432 123.388 66.2566C123.427 66.4881 123.401 66.6858 123.309 66.8498C123.217 67.0138 123.092 67.1091 122.933 67.1356C122.817 67.155 122.66 67.1068 122.463 66.9911C122.277 66.8586 122.13 66.6899 122.021 66.485C121.949 66.3186 121.863 66.0727 121.764 65.7472C121.665 65.4218 121.555 65.0758 121.435 64.7093C121.312 64.3284 121.174 63.9499 121.022 63.5738C120.87 63.1977 120.703 62.8687 120.522 62.5866C120.354 62.2877 120.168 62.0659 119.965 61.9213C119.763 61.7767 119.549 61.7455 119.325 61.8275C118.975 61.9603 118.7 62.2666 118.497 62.7465C118.309 63.224 118.16 63.7545 118.049 64.338C117.953 64.9192 117.887 65.5027 117.851 66.0886C117.829 66.6721 117.819 67.1423 117.819 67.4992C117.805 67.7692 117.755 67.9633 117.671 68.0815C117.599 68.1828 117.505 68.2431 117.389 68.2625C117.273 68.2818 117.155 68.2421 117.034 68.1432C116.928 68.042 116.818 67.9191 116.705 67.7744C116.604 67.6129 116.51 67.4502 116.423 67.2863C116.333 67.1079 116.271 66.9548 116.235 66.827C116.032 66.0579 115.849 65.3226 115.688 64.621C115.523 63.9049 115.366 63.1877 115.217 62.4692C115.081 61.7483 114.951 61.0117 114.825 60.2595C114.697 59.4928 114.575 58.673 114.459 57.8002C114.338 57.0769 114.544 56.7079 115.077 56.6932C115.256 56.6932 115.429 56.798 115.598 57.0077C115.764 57.2029 115.869 57.4308 115.913 57.6912ZM129.481 57.053C129.607 57.4484 129.723 57.8751 129.829 58.3332C129.947 58.7744 130.052 59.2253 130.144 59.6858C130.25 60.1439 130.34 60.5899 130.412 61.0239C130.485 61.4579 130.543 61.8497 130.586 62.1993C131.102 62.4402 131.424 62.6764 131.552 62.9078C131.694 63.1368 131.745 63.3514 131.704 63.5516C131.661 63.8264 131.525 63.9905 131.296 64.0436C131.079 64.0798 130.812 64.0426 130.496 63.9318C130.318 64.1102 130.113 64.308 129.882 64.5251C129.648 64.7278 129.4 64.9328 129.137 65.1402C128.872 65.3332 128.604 65.5118 128.334 65.6758C128.064 65.8399 127.81 65.9641 127.571 66.0486C127.12 66.1983 126.686 66.1816 126.269 65.9985C125.866 65.8129 125.559 65.4851 125.346 65.015C125.204 64.6968 125.126 64.3605 125.111 64.006C125.094 63.6371 125.146 63.2791 125.266 62.9318C125.384 62.5701 125.566 62.2349 125.812 61.9261C126.072 61.615 126.393 61.3533 126.774 61.1409C126.868 61.0806 126.999 61.0215 127.168 60.9636C127.351 60.9032 127.538 60.8646 127.728 60.8476C127.931 60.8138 128.139 60.8161 128.354 60.8547C128.569 60.8932 128.777 60.9847 128.98 61.1293C128.939 60.8834 128.887 60.617 128.824 60.33C128.773 60.0263 128.715 59.7237 128.65 59.4223C128.585 59.1209 128.516 58.8425 128.444 58.5869C128.383 58.3145 128.323 58.0866 128.263 57.9034C128.197 57.6912 128.089 57.5755 127.937 57.5563C127.797 57.5202 127.632 57.5552 127.441 57.6614C127.114 57.8351 126.746 58.127 126.339 58.537C125.931 58.9471 125.549 59.3752 125.193 59.8214C125.084 59.9733 124.942 60.0566 124.766 60.0711C124.604 60.0832 124.456 60.0411 124.321 59.9447C124.186 59.8483 124.099 59.729 124.06 59.5867C124.019 59.43 124.05 59.254 124.151 59.0586C124.353 58.7572 124.583 58.4436 124.841 58.118C125.099 57.7924 125.376 57.4933 125.673 57.2208C125.967 56.9337 126.275 56.6889 126.598 56.4862C126.921 56.2836 127.255 56.146 127.6 56.0735C128.104 55.9745 128.514 56.025 128.83 56.225C129.143 56.4106 129.36 56.6866 129.481 57.053ZM127.743 62.1388C127.562 62.2136 127.376 62.3415 127.183 62.5224C127.002 62.6864 126.842 62.8842 126.702 63.1157C126.574 63.3304 126.488 63.5679 126.442 63.8283C126.408 64.0719 126.447 64.3033 126.558 64.5227C126.601 64.6047 126.67 64.6601 126.764 64.689C126.873 64.7155 126.982 64.7046 127.093 64.6563C127.428 64.526 127.796 64.3233 128.196 64.0483C128.608 63.7564 128.924 63.4658 129.143 63.1763C129.129 63.0895 129.067 62.9883 128.959 62.8726C128.848 62.7424 128.724 62.6219 128.586 62.5111C128.446 62.3857 128.295 62.2845 128.134 62.2074C127.987 62.1279 127.857 62.105 127.743 62.1388ZM137.584 57.9746C137.856 57.9142 138.142 57.9334 138.441 58.0322C138.74 58.1309 138.915 58.3322 138.966 58.636C138.978 58.8867 138.867 59.0688 138.633 59.1822C138.411 59.2788 138.228 59.3391 138.084 59.3633C137.794 59.4116 137.484 59.4708 137.154 59.5408C136.824 59.6109 136.487 59.6894 136.145 59.7763C136.196 60.2585 136.242 60.7118 136.283 61.1362C136.339 61.5581 136.387 61.9366 136.428 62.2718C136.467 62.5924 136.503 62.854 136.537 63.0566C136.571 63.2591 136.596 63.3664 136.613 63.3784C136.922 63.2674 137.246 63.1166 137.586 62.926C137.938 62.7185 138.281 62.505 138.616 62.2854C138.963 62.049 139.296 61.815 139.614 61.5834C139.944 61.335 140.255 61.1046 140.547 60.8923C140.68 60.7958 140.806 60.7523 140.927 60.7619C141.062 60.7691 141.152 60.8209 141.198 60.9174C141.254 61.0717 141.265 61.2706 141.231 61.5141C141.197 61.7577 141.102 61.9892 140.945 62.2087C140.757 62.4185 140.502 62.6693 140.179 62.9612C139.868 63.2362 139.527 63.5088 139.156 63.779C138.784 64.0492 138.402 64.2989 138.009 64.5281C137.629 64.7404 137.281 64.8876 136.968 64.9697C136.498 65.0928 136.114 65.023 135.818 64.7603C135.521 64.4976 135.32 64.1372 135.213 63.6791C135.107 63.221 135.01 62.687 134.923 62.077C134.851 61.4646 134.772 60.816 134.688 60.1313C134.418 60.2061 134.155 60.2797 133.899 60.3522C133.656 60.4077 133.421 60.4693 133.194 60.5369C133.006 60.5683 132.789 60.5599 132.543 60.5118C132.312 60.4613 132.175 60.313 132.134 60.0671C132.12 59.9803 132.137 59.8585 132.185 59.7018C132.233 59.545 132.374 59.41 132.608 59.2965C133.184 59.0962 133.828 58.8995 134.539 58.7063C134.469 58.0191 134.409 57.3525 134.361 56.7063C134.312 56.0601 134.266 55.473 134.223 54.945C134.208 54.769 134.234 54.6086 134.299 54.4639C134.364 54.3192 134.447 54.2384 134.548 54.2215C134.792 54.166 135.034 54.1924 135.275 54.3008C135.528 54.3923 135.669 54.5249 135.698 54.6985C135.723 55.2 135.758 55.7666 135.804 56.3983C135.864 57.0276 135.927 57.6714 135.993 58.3296C136.277 58.2524 136.55 58.192 136.81 58.1485C137.082 58.0881 137.34 58.0302 137.584 57.9746ZM50.9353 95.7669C51.2077 95.7065 51.4935 95.7257 51.7925 95.8245C52.0915 95.9232 52.2664 96.1245 52.3171 96.4283C52.3293 96.679 52.2184 96.8611 51.9846 96.9745C51.7628 97.0711 51.5796 97.1314 51.4349 97.1556C51.1456 97.2039 50.8358 97.2631 50.5055 97.3331C50.1752 97.4032 49.8388 97.4817 49.4965 97.5686C49.5473 98.0508 49.5933 98.5041 49.6344 98.9284C49.69 99.3504 49.7384 99.7289 49.7795 100.064C49.8182 100.385 49.8544 100.646 49.8883 100.849C49.9221 101.051 49.9475 101.159 49.9643 101.171C50.2729 101.06 50.5972 100.909 50.9371 100.718C51.289 100.511 51.6326 100.297 51.9676 100.078C52.3148 99.8413 52.6474 99.6073 52.9656 99.3757C53.2959 99.1272 53.6068 98.8969 53.8985 98.6846C54.0311 98.5881 54.1576 98.5446 54.2782 98.5542C54.4132 98.5614 54.5037 98.6132 54.5495 98.7097C54.605 98.8639 54.616 99.0629 54.5823 99.3064C54.5486 99.55 54.4535 99.7815 54.2968 100.001C54.1088 100.211 53.8533 100.462 53.5303 100.754C53.2194 101.028 52.8783 101.301 52.5071 101.571C52.1359 101.841 51.7538 102.091 51.3608 102.32C50.9799 102.533 50.6328 102.68 50.3194 102.762C49.8492 102.885 49.4658 102.815 49.1691 102.553C48.8725 102.29 48.671 101.93 48.5648 101.471C48.4585 101.013 48.3619 100.479 48.2748 99.8693C48.2023 99.2569 48.1237 98.6083 48.039 97.9235C47.769 97.9984 47.5062 98.072 47.2507 98.1445C47.0072 98.2 46.7721 98.2616 46.5455 98.3292C46.3574 98.3606 46.1404 98.3522 45.8944 98.3041C45.6629 98.2535 45.5267 98.1053 45.4856 97.8594C45.4711 97.7726 45.4879 97.6508 45.5361 97.4941C45.5842 97.3373 45.7252 97.2022 45.9591 97.0888C46.5353 96.8885 47.179 96.6917 47.8902 96.4986C47.8201 95.8114 47.7607 95.1448 47.7123 94.4986C47.6638 93.8524 47.6178 93.2653 47.5742 92.7373C47.5597 92.5612 47.5849 92.4009 47.65 92.2562C47.715 92.1115 47.7982 92.0307 47.8995 92.0138C48.143 91.9582 48.3853 91.9847 48.6265 92.0931C48.8797 92.1846 49.0208 92.3172 49.0498 92.4908C49.0741 92.9923 49.1092 93.5589 49.1553 94.1906C49.2158 94.8199 49.2787 95.4637 49.344 96.1219C49.6285 96.0447 49.901 95.9843 50.1614 95.9408C50.4338 95.8804 50.6918 95.8224 50.9353 95.7669ZM56.1859 90.9865C56.2439 91.3337 56.3019 91.7255 56.36 92.1619C56.4324 92.5959 56.5074 93.0443 56.5847 93.5073C56.6765 93.9678 56.7634 94.4439 56.8456 94.9358C56.9422 95.4252 57.0352 95.893 57.1246 96.339C57.2209 96.0255 57.3474 95.7144 57.504 95.4057C57.6582 95.0826 57.8402 94.792 58.0498 94.5339C58.274 94.2734 58.5126 94.0551 58.7657 93.879C59.0333 93.7005 59.3335 93.5834 59.6662 93.5278C60.0278 93.4674 60.3654 93.53 60.6789 93.7155C61.0069 93.8987 61.3048 94.1686 61.5726 94.5254C61.8524 94.8653 62.1045 95.2618 62.3289 95.715C62.5509 96.1538 62.7464 96.6118 62.9153 97.0892C63.0963 97.5497 63.246 98.0005 63.3643 98.4417C63.4802 98.8684 63.5792 99.2385 63.6613 99.552C63.6999 99.7834 63.6735 99.9811 63.5819 100.145C63.4904 100.309 63.365 100.404 63.2059 100.431C63.0902 100.45 62.9334 100.402 62.7357 100.286C62.5499 100.154 62.4028 99.9852 62.2942 99.7803C62.2218 99.614 62.1361 99.368 62.0372 99.0426C61.9382 98.7171 61.8284 98.3711 61.7077 98.0047C61.5846 97.6238 61.447 97.2452 61.2949 96.8692C61.1429 96.4931 60.9764 96.164 60.7955 95.882C60.6266 95.583 60.4408 95.3613 60.2382 95.2167C60.0357 95.0721 59.8223 95.0408 59.598 95.1229C59.2485 95.2556 58.9725 95.5619 58.7701 96.0418C58.5822 96.5193 58.4329 97.0498 58.3222 97.6334C58.226 98.2145 58.1599 98.798 58.1239 99.384C58.1024 99.9675 58.0918 100.438 58.0919 100.795C58.0775 101.065 58.0282 101.259 57.9438 101.377C57.8715 101.478 57.7775 101.538 57.6618 101.558C57.546 101.577 57.4279 101.537 57.3073 101.439C57.2012 101.337 57.0914 101.214 56.978 101.07C56.8767 100.908 56.7826 100.746 56.6957 100.582C56.6065 100.403 56.5437 100.25 56.5075 100.122C56.3047 99.3533 56.1224 98.6179 55.9606 97.9163C55.7964 97.2003 55.6394 96.483 55.4896 95.7645C55.3543 95.0436 55.2239 94.3071 55.0982 93.5548C54.9701 92.7881 54.8481 91.9683 54.732 91.0955C54.6112 90.3722 54.8172 90.0032 55.3501 89.9886C55.5285 89.9885 55.7022 90.0933 55.871 90.303C56.0375 90.4983 56.1424 90.7261 56.1859 90.9865ZM67.837 89.821C67.8322 89.9705 67.7443 90.067 67.5731 90.1104C67.4019 90.1539 67.2585 90.1853 67.1427 90.2046C66.7835 90.2795 66.4134 90.3785 66.0325 90.5016C65.666 90.6223 65.2827 90.7755 64.8825 90.9614C64.7186 91.0482 64.5269 91.0579 64.3075 90.9905C64.088 90.9231 63.9312 90.7411 63.8371 90.4445C63.8177 90.3288 63.8454 90.2275 63.9202 90.1407C63.9949 90.0539 64.0853 89.9718 64.1913 89.8947C64.3649 89.7764 64.577 89.6667 64.8278 89.5653C65.0761 89.4495 65.328 89.3553 65.5836 89.2829C65.8536 89.2081 66.1128 89.1573 66.3611 89.1307C66.607 89.0896 66.8132 89.0775 66.9796 89.0943C67.2231 89.128 67.4221 89.2063 67.5764 89.3292C67.7452 89.4497 67.8321 89.6136 67.837 89.821ZM68.5449 97.1303C68.6848 97.3448 68.7778 97.5895 68.8237 97.8644C68.8816 98.1223 68.8395 98.3152 68.6973 98.4431C68.5165 98.6071 68.2983 98.6361 68.0427 98.5301C67.7871 98.4241 67.5809 98.2578 67.424 98.0312C67.2142 97.754 67.0296 97.4057 66.8703 96.9862C66.7086 96.5522 66.5698 96.1219 66.4539 95.6951C66.338 95.2684 66.2414 94.8682 66.1641 94.4945C66.1013 94.1184 66.0542 93.8363 66.0228 93.6482C66.0034 93.4433 66.0299 93.2455 66.1021 93.055C66.1744 92.8645 66.2877 92.7415 66.442 92.686C66.7048 92.657 66.9351 92.7449 67.1329 92.9498C67.3282 93.1402 67.4465 93.403 67.4876 93.7381C67.5311 93.9985 67.5867 94.2866 67.6543 94.6024C67.7219 94.9183 67.804 95.2317 67.9006 95.5427C67.9971 95.8537 68.0997 96.1563 68.2083 96.4504C68.3145 96.7301 68.4267 96.9567 68.5449 97.1303ZM74.3337 91.167C74.2782 91.0127 74.2239 90.8657 74.1708 90.7258C74.1177 90.586 74.0296 90.5041 73.9067 90.48C73.6486 90.4487 73.387 90.485 73.1219 90.5888C72.8567 90.6926 72.6192 90.8289 72.4095 90.9977C72.1974 91.1521 72.025 91.3222 71.8925 91.5079C71.7575 91.6791 71.6925 91.8238 71.6973 91.942C71.6902 92.1662 71.7831 92.3663 71.976 92.5423C72.169 92.7182 72.4343 92.8821 72.7719 93.0339C73.329 93.2531 73.9089 93.4759 74.5118 93.7023C75.1147 93.9288 75.632 94.1769 76.0637 94.4468C76.4954 94.7167 76.8102 95.0433 77.008 95.4266C77.2179 95.7931 77.2639 96.2463 77.1459 96.7865C77.0521 97.2037 76.8087 97.5715 76.4158 97.8899C76.0228 98.2083 75.5781 98.4833 75.0815 98.715C74.5824 98.9322 74.0773 99.1132 73.5662 99.258C73.0527 99.3884 72.6151 99.4838 72.2534 99.5442C72.1666 99.5587 72.0533 99.5479 71.9135 99.5118C71.7856 99.4588 71.6566 99.3986 71.5264 99.3311C71.4106 99.2612 71.3021 99.1901 71.2008 99.1178C71.1116 99.0287 71.0609 98.9479 71.0488 98.8756C71.0053 98.6152 71.0908 98.415 71.3054 98.2751C71.5199 98.1352 71.7502 98.0447 71.9961 98.0036C72.3433 97.9456 72.7098 97.8695 73.0955 97.7753C73.4933 97.6643 73.867 97.5424 74.2166 97.4096C74.5637 97.2624 74.8711 97.0996 75.1387 96.921C75.4063 96.7425 75.581 96.5423 75.6629 96.3205C75.7352 96.13 75.6362 95.9383 75.3661 95.7455C75.108 95.5358 74.7692 95.3322 74.3496 95.1346C73.9444 94.9346 73.5043 94.7479 73.0293 94.5745C72.5687 94.3987 72.1695 94.2348 71.8319 94.0831C71.4943 93.9313 71.194 93.7361 70.9311 93.4975C70.6658 93.2444 70.4692 92.9129 70.3412 92.5031C70.2639 92.1294 70.2831 91.7544 70.3987 91.3782C70.5143 91.002 70.6878 90.6608 70.9191 90.3545C71.1626 90.0313 71.4518 89.7599 71.7869 89.5404C72.122 89.3209 72.4703 89.1809 72.832 89.1205C73.4589 89.0455 74.0014 89.1333 74.4596 89.3839C74.9154 89.62 75.2302 90.0359 75.4041 90.6314C75.4379 90.8339 75.4295 91.0063 75.3789 91.1486C75.3428 91.2884 75.2476 91.3861 75.0933 91.4416C74.8956 91.5044 74.7256 91.5105 74.5833 91.4599C74.4531 91.3924 74.3699 91.2948 74.3337 91.167ZM87.4921 84.3297C87.4052 84.0765 87.3798 83.8354 87.4159 83.6063C87.4664 83.3749 87.6123 83.2241 87.8534 83.1541C88.0655 83.0889 88.2632 83.1154 88.4465 83.2334C88.6443 83.3491 88.7842 83.519 88.8663 83.7433C89.4335 85.3585 89.9778 86.9702 90.4992 88.5783C91.0326 90.1695 91.5323 91.7366 91.9982 93.2796C92.1262 93.6894 92.1456 93.9836 92.0564 94.162C91.9648 94.326 91.8455 94.4575 91.6985 94.5564C91.537 94.6577 91.3706 94.6855 91.1994 94.6398C91.0427 94.5916 90.9269 94.4771 90.8521 94.2963L90.8086 94.1697L90.7255 94.2059C90.2771 94.4593 89.7949 94.6439 89.2789 94.7598C88.7606 94.8613 88.2506 94.8795 87.7491 94.8146C87.2475 94.7497 86.7821 94.5895 86.3528 94.3341C85.9356 94.0618 85.6051 93.6858 85.3614 93.206C84.8282 92.1501 84.876 91.1012 85.5049 90.0594C85.7748 89.6277 86.1303 89.2188 86.5714 88.8329C87.0126 88.4469 87.5658 88.1092 88.2312 87.8196L88.6073 87.6676L87.4921 84.3297ZM86.5945 92.4424C86.7392 92.7751 86.9431 93.0162 87.2059 93.1656C87.4688 93.315 87.7654 93.3992 88.0958 93.4184C88.4237 93.4231 88.7649 93.3736 89.1193 93.2698C89.4737 93.166 89.8148 93.0272 90.1427 92.8535L90.3271 92.7557L89.0816 89.0381L88.6657 89.2191C88.3764 89.3567 88.0739 89.5485 87.7581 89.7945C87.4544 90.0237 87.1929 90.283 86.9735 90.5724C86.7542 90.8618 86.5976 91.1705 86.5037 91.4985C86.4242 91.824 86.4545 92.1387 86.5945 92.4424ZM97.9361 85.6409C98.0617 86.0363 98.1775 86.463 98.2838 86.9211C98.4021 87.3623 98.5072 87.8132 98.599 88.2737C98.7052 88.7317 98.7946 89.1778 98.8671 89.6118C98.9396 90.0458 98.9976 90.4376 99.0411 90.7872C99.5572 91.0281 99.8792 91.2643 100.007 91.4957C100.149 91.7247 100.2 91.9393 100.159 92.1394C100.116 92.4143 99.9797 92.5783 99.7507 92.6315C99.5337 92.6677 99.2672 92.6304 98.9513 92.5196C98.773 92.6981 98.5681 92.8959 98.3367 93.113C98.1029 93.3156 97.8546 93.5207 97.5918 93.7281C97.3267 93.9211 97.0591 94.0996 96.7891 94.2637C96.5191 94.4278 96.2648 94.552 96.0261 94.6365C95.5753 94.7862 95.1412 94.7694 94.724 94.5863C94.3213 94.4008 94.0138 94.073 93.8014 93.6029C93.659 93.2847 93.5806 92.9483 93.566 92.5939C93.5489 92.225 93.6007 91.8669 93.7211 91.5197C93.8391 91.1579 94.021 90.8227 94.2669 90.514C94.5272 90.2029 94.8478 89.9411 95.2286 89.7288C95.3227 89.6685 95.454 89.6094 95.6228 89.5515C95.806 89.4911 95.9929 89.4525 96.1834 89.4355C96.3859 89.4017 96.5945 89.404 96.8091 89.4425C97.0237 89.481 97.2323 89.5726 97.4349 89.7172C97.3938 89.4712 97.3419 89.2048 97.2791 88.9179C97.2283 88.6141 97.1703 88.3115 97.1051 88.0102C97.0399 87.7088 96.9711 87.4303 96.8987 87.1748C96.8383 86.9023 96.7779 86.6745 96.7176 86.4913C96.6524 86.2791 96.5439 86.1634 96.3919 86.1442C96.2521 86.1081 96.0869 86.1431 95.8965 86.2492C95.5686 86.423 95.201 86.7148 94.7937 87.1249C94.3863 87.5349 94.0043 87.9631 93.6476 88.4093C93.5392 88.5612 93.397 88.6444 93.2209 88.659C93.0594 88.6711 92.9111 88.629 92.776 88.5326C92.641 88.4362 92.5541 88.3168 92.5155 88.1746C92.4744 88.0179 92.5045 87.8418 92.6057 87.6465C92.8082 87.345 93.0383 87.0315 93.2962 86.7059C93.5541 86.3803 93.8312 86.0812 94.1277 85.8086C94.4218 85.5216 94.7303 85.2767 95.0534 85.0741C95.3764 84.8714 95.7103 84.7339 96.0551 84.6614C96.559 84.5624 96.9689 84.6129 97.2848 84.8129C97.5983 84.9984 97.8154 85.2744 97.9361 85.6409ZM96.1983 90.7267C96.0175 90.8015 95.8307 90.9294 95.6378 91.1103C95.4571 91.2743 95.2968 91.4721 95.157 91.7036C95.0293 91.9182 94.9426 92.1558 94.8969 92.4162C94.8632 92.6597 94.9019 92.8912 95.0129 93.1106C95.0563 93.1925 95.125 93.248 95.2191 93.2769C95.3276 93.3034 95.4373 93.2925 95.5482 93.2442C95.8833 93.1139 96.2509 92.9112 96.6511 92.6362C97.0633 92.3443 97.3791 92.0536 97.5984 91.7642C97.5839 91.6774 97.5223 91.5762 97.4138 91.4605C97.3028 91.3303 97.1786 91.2098 97.0411 91.0989C96.9012 90.9736 96.7505 90.8724 96.5889 90.7953C96.4418 90.7158 96.3116 90.6929 96.1983 90.7267ZM106.039 86.5625C106.311 86.5021 106.597 86.5213 106.896 86.6201C107.195 86.7188 107.37 86.9201 107.421 87.2239C107.433 87.4746 107.322 87.6567 107.088 87.7701C106.866 87.8666 106.683 87.927 106.539 87.9512C106.249 87.9995 105.939 88.0587 105.609 88.1287C105.279 88.1988 104.942 88.2772 104.6 88.3642C104.651 88.8464 104.697 89.2997 104.738 89.724C104.794 90.146 104.842 90.5245 104.883 90.8596C104.922 91.1803 104.958 91.4419 104.992 91.6444C105.026 91.847 105.051 91.9543 105.068 91.9663C105.377 91.8553 105.701 91.7045 106.041 91.5139C106.393 91.3064 106.736 91.0929 107.071 90.8733C107.418 90.6369 107.751 90.4029 108.069 90.1713C108.4 89.9228 108.71 89.6925 109.002 89.4802C109.135 89.3837 109.261 89.3402 109.382 89.3498C109.517 89.357 109.607 89.4088 109.653 89.5052C109.709 89.6595 109.72 89.8585 109.686 90.102C109.652 90.3455 109.557 90.5771 109.4 90.7965C109.212 91.0064 108.957 91.2572 108.634 91.5491C108.323 91.8241 107.982 92.0967 107.611 92.3669C107.24 92.637 106.857 92.8867 106.464 93.1159C106.084 93.3283 105.736 93.4755 105.423 93.5576C104.953 93.6807 104.569 93.6109 104.273 93.3482C103.976 93.0855 103.775 92.7251 103.668 92.267C103.562 91.8089 103.466 91.2749 103.378 90.6649C103.306 90.0525 103.227 89.4039 103.143 88.7191C102.873 88.794 102.61 88.8676 102.354 88.94C102.111 88.9956 101.876 89.0572 101.649 89.1248C101.461 89.1562 101.244 89.1478 100.998 89.0997C100.767 89.0491 100.63 88.9009 100.589 88.655C100.575 88.5682 100.592 88.4464 100.64 88.2896C100.688 88.1329 100.829 87.9978 101.063 87.8844C101.639 87.6841 102.283 87.4873 102.994 87.2942C102.924 86.607 102.864 85.9403 102.816 85.2942C102.767 84.648 102.721 84.0609 102.678 83.5328C102.663 83.3568 102.689 83.1965 102.754 83.0518C102.819 82.9071 102.902 82.8263 103.003 82.8094C103.247 82.7538 103.489 82.7803 103.73 82.8887C103.983 82.9802 104.124 83.1128 104.153 83.2864C104.178 83.7879 104.213 84.3545 104.259 84.9862C104.319 85.6155 104.382 86.2593 104.448 86.9175C104.732 86.8403 105.005 86.7799 105.265 86.7364C105.537 86.676 105.795 86.618 106.039 86.5625ZM115.46 82.7137C115.586 83.1091 115.701 83.5358 115.808 83.9939C115.926 84.4351 116.031 84.886 116.123 85.3465C116.229 85.8046 116.319 86.2506 116.391 86.6846C116.463 87.1186 116.522 87.5104 116.565 87.86C117.081 88.1009 117.403 88.3371 117.531 88.5685C117.673 88.7975 117.724 89.0121 117.683 89.2123C117.64 89.4872 117.504 89.6512 117.275 89.7043C117.058 89.7405 116.791 89.7033 116.475 89.5925C116.297 89.771 116.092 89.9687 115.861 90.1858C115.627 90.3885 115.379 90.5935 115.116 90.801C114.851 90.994 114.583 91.1725 114.313 91.3365C114.043 91.5006 113.789 91.6249 113.55 91.7093C113.099 91.859 112.665 91.8423 112.248 91.6592C111.845 91.4737 111.538 91.1458 111.325 90.6757C111.183 90.3575 111.104 90.0212 111.09 89.6667C111.073 89.2978 111.125 88.9398 111.245 88.5925C111.363 88.2308 111.545 87.8956 111.791 87.5868C112.051 87.2757 112.372 87.014 112.753 86.8017C112.847 86.7413 112.978 86.6822 113.147 86.6243C113.33 86.5639 113.517 86.5253 113.707 86.5084C113.91 86.4745 114.118 86.4769 114.333 86.5154C114.548 86.5539 114.756 86.6454 114.959 86.79C114.918 86.5441 114.866 86.2777 114.803 85.9908C114.752 85.687 114.694 85.3844 114.629 85.083C114.564 84.7816 114.495 84.5032 114.423 84.2476C114.362 83.9752 114.302 83.7473 114.242 83.5641C114.176 83.3519 114.068 83.2362 113.916 83.217C113.776 83.1809 113.611 83.2159 113.42 83.3221C113.093 83.4958 112.725 83.7877 112.318 84.1977C111.91 84.6078 111.528 85.0359 111.172 85.4821C111.063 85.634 110.921 85.7173 110.745 85.7318C110.583 85.7439 110.435 85.7018 110.3 85.6054C110.165 85.509 110.078 85.3897 110.039 85.2474C109.998 85.0907 110.028 84.9147 110.13 84.7193C110.332 84.4179 110.562 84.1043 110.82 83.7787C111.078 83.4531 111.355 83.154 111.652 82.8815C111.946 82.5944 112.254 82.3496 112.577 82.1469C112.9 81.9443 113.234 81.8067 113.579 81.7343C114.083 81.6352 114.493 81.6857 114.809 81.8857C115.122 82.0713 115.339 82.3473 115.46 82.7137ZM113.722 87.7995C113.541 87.8743 113.355 88.0022 113.162 88.1831C112.981 88.3471 112.821 88.5449 112.681 88.7764C112.553 88.9911 112.467 89.2286 112.421 89.489C112.387 89.7326 112.426 89.964 112.537 90.1834C112.58 90.2654 112.649 90.3208 112.743 90.3497C112.852 90.3762 112.961 90.3653 113.072 90.317C113.407 90.1867 113.775 89.9841 114.175 89.709C114.587 89.4171 114.903 89.1265 115.122 88.837C115.108 88.7502 115.046 88.649 114.938 88.5333C114.827 88.4031 114.703 88.2826 114.565 88.1718C114.425 88.0464 114.274 87.9452 114.113 87.8681C113.966 87.7886 113.836 87.7657 113.722 87.7995ZM128.291 79.7229C128.286 79.8724 128.198 79.9689 128.027 80.0123C127.856 80.0558 127.712 80.0872 127.597 80.1065C127.237 80.1814 126.867 80.2804 126.486 80.4035C126.12 80.5242 125.737 80.6774 125.336 80.8632C125.172 80.9501 124.981 80.9598 124.761 80.8924C124.542 80.825 124.385 80.643 124.291 80.3464C124.272 80.2307 124.299 80.1294 124.374 80.0426C124.449 79.9558 124.539 79.8737 124.645 79.7965C124.819 79.6783 125.031 79.5686 125.282 79.4672C125.53 79.3514 125.782 79.2572 126.037 79.1848C126.307 79.11 126.567 79.0592 126.815 79.0326C127.061 78.9915 127.267 78.9794 127.433 78.9962C127.677 79.0299 127.876 79.1082 128.03 79.2311C128.199 79.3516 128.286 79.5155 128.291 79.7229ZM128.999 87.0321C129.139 87.2467 129.232 87.4914 129.278 87.7663C129.336 88.0242 129.293 88.2171 129.151 88.345C128.97 88.509 128.752 88.538 128.497 88.432C128.241 88.326 128.035 88.1597 127.878 87.9331C127.668 87.6559 127.483 87.3076 127.324 86.8881C127.162 86.4541 127.024 86.0238 126.908 85.597C126.792 85.1703 126.695 84.7701 126.618 84.3964C126.555 84.0203 126.508 83.7382 126.477 83.5501C126.457 83.3452 126.484 83.1474 126.556 82.9569C126.628 82.7664 126.742 82.6434 126.896 82.5879C127.159 82.5589 127.389 82.6468 127.587 82.8517C127.782 83.0421 127.9 83.3049 127.941 83.64C127.985 83.9004 128.041 84.1885 128.108 84.5043C128.176 84.8202 128.258 85.1336 128.354 85.4446C128.451 85.7556 128.554 86.0582 128.662 86.3523C128.768 86.632 128.881 86.8586 128.999 87.0321ZM134.788 81.0689C134.732 80.9146 134.678 80.7676 134.625 80.6277C134.572 80.4879 134.484 80.406 134.361 80.3819C134.103 80.3506 133.841 80.3869 133.576 80.4907C133.311 80.5945 133.073 80.7308 132.863 80.8996C132.651 81.054 132.479 81.2241 132.346 81.4098C132.211 81.581 132.146 81.7257 132.151 81.8439C132.144 82.0681 132.237 82.2682 132.43 82.4442C132.623 82.6201 132.888 82.784 133.226 82.9358C133.783 83.155 134.363 83.3778 134.966 83.6042C135.569 83.8307 136.086 84.0788 136.518 84.3487C136.949 84.6186 137.264 84.9452 137.462 85.3285C137.672 85.695 137.718 86.1482 137.6 86.6884C137.506 87.1056 137.263 87.4733 136.87 87.7918C136.477 88.1102 136.032 88.3852 135.535 88.6169C135.036 88.8341 134.531 89.0151 134.02 89.1599C133.507 89.2903 133.069 89.3857 132.707 89.4461C132.621 89.4606 132.507 89.4498 132.367 89.4137C132.24 89.3607 132.111 89.3005 131.98 89.233C131.865 89.1631 131.756 89.092 131.655 89.0197C131.565 88.9306 131.515 88.8498 131.503 88.7775C131.459 88.5171 131.545 88.3169 131.759 88.177C131.974 88.0371 132.204 87.9466 132.45 87.9055C132.797 87.8475 133.164 87.7714 133.549 87.6772C133.947 87.5662 134.321 87.4443 134.67 87.3115C135.018 87.1643 135.325 87.0015 135.593 86.8229C135.86 86.6444 136.035 86.4442 136.117 86.2224C136.189 86.0318 136.09 85.8402 135.82 85.6474C135.562 85.4377 135.223 85.2341 134.803 85.0365C134.398 84.8365 133.958 84.6498 133.483 84.4764C133.023 84.3006 132.623 84.1367 132.286 83.985C131.948 83.8332 131.648 83.638 131.385 83.3994C131.12 83.1463 130.923 82.8148 130.795 82.405C130.718 82.0313 130.737 81.6563 130.853 81.2801C130.968 80.9039 131.142 80.5627 131.373 80.2564C131.616 79.9332 131.906 79.6618 132.241 79.4423C132.576 79.2228 132.924 79.0828 133.286 79.0224C133.913 78.9474 134.455 79.0352 134.914 79.2858C135.369 79.5219 135.684 79.9378 135.858 80.5333C135.892 80.7358 135.883 80.9082 135.833 81.0505C135.797 81.1903 135.701 81.288 135.547 81.3435C135.35 81.4063 135.18 81.4124 135.037 81.3618C134.907 81.2943 134.824 81.1967 134.788 81.0689ZM50.231 113.85C50.2841 114.079 50.3385 114.36 50.394 114.693C50.4641 115.023 50.539 115.382 50.6187 115.77C50.6984 116.159 50.7865 116.553 50.8831 116.953C50.9773 117.339 51.0835 117.708 51.2018 118.06C51.3584 117.662 51.5584 117.346 51.8018 117.112C52.0597 116.875 52.3297 116.711 52.6118 116.62C53.0506 116.487 53.4496 116.472 53.809 116.576C54.1683 116.679 54.4806 116.858 54.7459 117.111C55.0088 117.349 55.2199 117.634 55.3791 117.964C55.536 118.28 55.641 118.597 55.6941 118.915C55.8077 119.595 55.732 120.255 55.467 120.894C55.2165 121.53 54.89 122.113 54.4875 122.641C54.0995 123.167 53.6994 123.62 53.2872 124.001C52.8895 124.38 52.6002 124.651 52.4195 124.815C52.1495 124.979 51.8722 125.055 51.5877 125.043C51.3032 125.032 51.1078 124.975 51.0017 124.874C50.9004 124.712 50.8545 124.571 50.8641 124.451C50.8713 124.316 50.9098 124.19 50.9797 124.074C51.0496 123.959 51.1364 123.855 51.24 123.763C51.3557 123.655 51.4509 123.557 51.5256 123.47C50.9126 121.937 50.3768 120.376 49.9181 118.787C49.457 117.184 49.1007 115.541 48.8494 113.858C48.801 113.568 48.8311 113.392 48.9396 113.33C49.0625 113.265 49.1674 113.225 49.2542 113.21C49.4616 113.205 49.6557 113.255 49.8366 113.358C50.0174 113.462 50.1489 113.626 50.231 113.85ZM54.3596 119.071C54.2774 118.579 54.0977 118.26 53.8204 118.113C53.5406 117.951 53.2729 117.907 53.0174 117.979C52.8052 118.045 52.6232 118.157 52.4714 118.316C52.3195 118.475 52.1942 118.66 52.0954 118.869C51.9966 119.079 51.9304 119.306 51.8967 119.549C51.8775 119.791 51.8933 120.018 51.944 120.233C52.0334 120.59 52.1348 120.974 52.2482 121.387C52.3762 121.797 52.5041 122.162 52.632 122.482C52.8369 122.285 53.0526 122.063 53.2792 121.817C53.5033 121.556 53.7021 121.278 53.8756 120.981C54.0636 120.682 54.2058 120.376 54.3021 120.062C54.396 119.734 54.4152 119.404 54.3596 119.071ZM62.9146 117.821C62.406 118.248 61.8419 118.609 61.2223 118.906C60.6003 119.189 59.9132 119.393 59.161 119.518C59.2745 120.02 59.4868 120.401 59.7979 120.661C60.1067 120.907 60.4612 121.026 60.8614 121.019C61.0977 121.009 61.328 120.963 61.5522 120.881C61.7908 120.796 62.0042 120.694 62.1922 120.573C62.3923 120.436 62.5695 120.295 62.7237 120.15C62.878 120.005 63.0106 119.864 63.1214 119.727C63.2323 119.589 63.3576 119.494 63.4975 119.441C63.6349 119.373 63.7422 119.348 63.8193 119.365C64.0339 119.403 64.1425 119.608 64.1451 119.979C63.9909 120.481 63.7247 120.934 63.3463 121.34C62.9654 121.73 62.5146 122.014 61.9939 122.19C61.5455 122.354 61.0645 122.412 60.5509 122.364C60.0373 122.316 59.5537 122.137 59.1003 121.826C58.712 121.549 58.3936 121.2 58.1451 120.781C57.8966 120.361 57.7108 119.917 57.5877 119.446C57.4693 119.005 57.4342 118.572 57.4823 118.148C57.5448 117.721 57.6809 117.334 57.8906 116.987C58.0978 116.625 58.3798 116.31 58.7366 116.043C59.0933 115.775 59.5297 115.583 60.0456 115.467C60.6604 115.32 61.2439 115.341 61.7962 115.532C62.3484 115.722 62.7669 116.046 63.0515 116.504C63.2132 116.76 63.282 116.993 63.258 117.206C63.2484 117.415 63.1339 117.62 62.9146 117.821ZM60.1727 116.762C60.0329 116.815 59.8822 116.892 59.7207 116.994C59.5736 117.092 59.4374 117.212 59.3121 117.352C59.1988 117.475 59.0964 117.618 59.0048 117.782C58.9253 117.929 58.8928 118.091 58.9074 118.267C59.1533 118.226 59.4173 118.159 59.6994 118.068C59.9959 117.974 60.2768 117.875 60.542 117.771C60.8192 117.65 61.0663 117.527 61.2833 117.402C61.5147 117.274 61.7015 117.146 61.8437 117.018C61.6821 116.763 61.4373 116.632 61.1094 116.628C60.7935 116.606 60.4813 116.651 60.1727 116.762ZM68.7232 112.992C68.7185 113.141 68.6305 113.238 68.4593 113.281C68.2881 113.325 68.1447 113.356 68.029 113.375C67.6697 113.45 67.2996 113.549 66.9187 113.672C66.5523 113.793 66.1689 113.946 65.7688 114.132C65.6048 114.219 65.4131 114.229 65.1937 114.161C64.9743 114.094 64.8175 113.912 64.7233 113.615C64.704 113.499 64.7317 113.398 64.8064 113.311C64.8811 113.224 64.9715 113.142 65.0776 113.065C65.2511 112.947 65.4633 112.837 65.714 112.736C65.9623 112.62 66.2142 112.526 66.4698 112.454C66.7398 112.379 66.999 112.328 67.2474 112.301C67.4933 112.26 67.6994 112.248 67.8658 112.265C68.1093 112.299 68.3083 112.377 68.4627 112.5C68.6315 112.62 68.7183 112.784 68.7232 112.992ZM69.4312 120.301C69.5711 120.515 69.664 120.76 69.7099 121.035C69.7679 121.293 69.7258 121.486 69.5835 121.614C69.4028 121.778 69.1846 121.807 68.9289 121.701C68.6733 121.595 68.4671 121.428 68.3103 121.202C68.1004 120.925 67.9158 120.576 67.7565 120.157C67.5948 119.723 67.456 119.293 67.3401 118.866C67.2243 118.439 67.1277 118.039 67.0504 117.665C66.9875 117.289 66.9404 117.007 66.909 116.819C66.8896 116.614 66.9161 116.416 66.9884 116.226C67.0606 116.035 67.1739 115.912 67.3282 115.857C67.591 115.828 67.8213 115.916 68.0191 116.12C68.2145 116.311 68.3327 116.574 68.3738 116.909C68.4173 117.169 68.4729 117.457 68.5405 117.773C68.6081 118.089 68.6902 118.402 68.7868 118.713C68.8834 119.024 68.9859 119.327 69.0946 119.621C69.2007 119.901 69.3129 120.127 69.4312 120.301ZM72.4385 114.111C72.5182 114.321 72.6027 114.559 72.692 114.827C72.7933 115.078 72.8971 115.343 73.0033 115.622C73.1071 115.888 73.2048 116.161 73.2966 116.443C73.3883 116.725 73.4704 116.994 73.5428 117.25C73.6536 116.845 73.7752 116.415 73.9076 115.962C74.0401 115.509 74.193 115.089 74.3665 114.703C74.552 114.301 74.7556 113.962 74.9774 113.687C75.2136 113.409 75.4908 113.244 75.809 113.191C76.2864 113.111 76.7132 113.218 77.0895 113.512C77.4802 113.804 77.8276 114.192 78.1315 114.677C78.4476 115.144 78.7178 115.649 78.9423 116.192C79.1667 116.734 79.3586 117.215 79.5178 117.635C79.6699 118.011 79.5446 118.329 79.142 118.59C78.9564 118.725 78.8069 118.765 78.6936 118.709C78.5803 118.654 78.5103 118.591 78.4838 118.521C78.3824 118.36 78.2377 118.071 78.0494 117.657C77.8757 117.24 77.679 116.819 77.4594 116.395C77.2543 115.968 77.0372 115.603 76.808 115.299C76.5789 114.995 76.3582 114.876 76.146 114.941C75.8881 114.999 75.6892 115.233 75.5495 115.643C75.4267 115.976 75.3026 116.346 75.1774 116.754C75.0642 117.144 74.9534 117.549 74.8451 117.969C74.7343 118.374 74.6248 118.787 74.5164 119.206C74.4201 119.609 74.3262 119.981 74.2347 120.324C74.1504 120.442 74.0322 120.536 73.8804 120.606C73.7405 120.659 73.5862 120.67 73.4174 120.639C73.2655 120.62 73.1377 120.567 73.034 120.48C72.9303 120.393 72.87 120.299 72.853 120.198C72.5344 119.091 72.2254 118.087 71.9261 117.185C71.6412 116.281 71.3093 115.363 70.9305 114.43C70.7736 114.114 70.7084 113.857 70.7349 113.659C70.7734 113.445 70.9771 113.329 71.346 113.312C71.8668 113.314 72.231 113.58 72.4385 114.111ZM84.8256 113.246C84.9679 113.386 85.1102 113.57 85.2526 113.799C85.4069 114.011 85.5336 114.236 85.6326 114.472C85.7846 114.848 85.9499 115.259 86.1285 115.705C86.3191 116.134 86.5062 116.586 86.6896 117.061C86.8875 117.534 87.0721 118.016 87.2435 118.508C87.4293 118.997 87.5971 119.467 87.7467 119.918C87.9398 120.54 87.9907 121.156 87.8993 121.766C87.8248 122.388 87.6164 122.966 87.2742 123.499C86.932 124.032 86.4729 124.488 85.8967 124.866C85.3206 125.245 84.6443 125.514 83.868 125.674C83.692 125.688 83.4967 125.632 83.282 125.504C83.0698 125.391 82.9504 125.255 82.9238 125.095C82.8828 124.939 82.9333 124.796 83.0756 124.669C83.2347 124.553 83.3986 124.466 83.5674 124.408C83.8663 124.328 84.1665 124.211 84.4678 124.057C84.786 123.914 85.0753 123.732 85.3356 123.51C85.596 123.288 85.8213 123.035 86.0117 122.751C86.2165 122.464 86.3563 122.143 86.4309 121.788C86.4887 121.511 86.4861 121.184 86.4233 120.808C86.3581 120.418 86.2651 120.039 86.1444 119.673C86.0382 119.304 85.9139 118.96 85.7715 118.642C85.6412 118.307 85.5326 118.057 85.4457 117.893C85.3614 118.012 85.2493 118.142 85.1095 118.284C84.9842 118.424 84.8359 118.56 84.6648 118.693C84.4936 118.826 84.2972 118.94 84.0754 119.037C83.868 119.131 83.6474 119.19 83.4136 119.214C83.1652 119.241 82.9193 119.193 82.6757 119.07C82.4466 118.945 82.2319 118.772 82.0317 118.553C81.8291 118.319 81.6494 118.044 81.4925 117.729C81.3501 117.41 81.2488 117.07 81.1883 116.709C81.0723 115.836 81.1612 115.033 81.4551 114.3C81.7611 113.55 82.3383 112.911 83.1869 112.382C83.2568 112.356 83.3484 112.326 83.4617 112.292C83.5895 112.256 83.7197 112.234 83.8523 112.227C83.9825 112.205 84.1079 112.199 84.2284 112.208C84.3635 112.216 84.4792 112.241 84.5757 112.284C84.7541 112.373 84.8615 112.526 84.8977 112.743C84.934 112.96 84.9099 113.128 84.8256 113.246ZM82.588 116.676C82.6146 116.835 82.6593 117.013 82.722 117.211C82.7824 117.394 82.8994 117.516 83.073 117.576C83.2635 117.648 83.4757 117.628 83.7095 117.514C83.9578 117.399 84.176 117.236 84.364 117.026C84.5399 116.833 84.6411 116.638 84.6676 116.44C84.7061 116.225 84.6614 115.958 84.5335 115.637C84.4056 115.316 84.268 114.982 84.1208 114.635C83.9736 114.288 83.8614 113.972 83.7841 113.688C83.625 113.804 83.4575 113.958 83.2815 114.151C83.1201 114.341 82.9803 114.573 82.8622 114.845C82.7418 115.104 82.6478 115.387 82.5804 115.696C82.5275 116.002 82.53 116.328 82.588 116.676ZM100.134 110.868C100.406 110.807 100.692 110.826 100.991 110.925C101.29 111.024 101.465 111.225 101.516 111.529C101.528 111.78 101.417 111.962 101.183 112.075C100.961 112.172 100.778 112.232 100.634 112.256C100.344 112.305 100.034 112.364 99.7041 112.434C99.3738 112.504 99.0375 112.582 98.6951 112.669C98.7459 113.151 98.7919 113.605 98.8331 114.029C98.8887 114.451 98.937 114.83 98.9782 115.165C99.0168 115.485 99.0531 115.747 99.0869 115.949C99.1208 116.152 99.1461 116.259 99.163 116.271C99.4716 116.16 99.7958 116.009 100.136 115.819C100.488 115.611 100.831 115.398 101.166 115.178C101.513 114.942 101.846 114.708 102.164 114.476C102.495 114.228 102.805 113.997 103.097 113.785C103.23 113.689 103.356 113.645 103.477 113.655C103.612 113.662 103.702 113.714 103.748 113.81C103.804 113.965 103.815 114.163 103.781 114.407C103.747 114.651 103.652 114.882 103.495 115.102C103.307 115.311 103.052 115.562 102.729 115.854C102.418 116.129 102.077 116.402 101.706 116.672C101.335 116.942 100.952 117.192 100.559 117.421C100.179 117.633 99.8315 117.78 99.518 117.863C99.0479 117.986 98.6645 117.916 98.3678 117.653C98.0711 117.391 97.8697 117.03 97.7634 116.572C97.6572 116.114 97.5605 115.58 97.4735 114.97C97.4009 114.357 97.3223 113.709 97.2377 113.024C96.9677 113.099 96.7049 113.173 96.4493 113.245C96.2058 113.301 95.9708 113.362 95.7441 113.43C95.5561 113.461 95.3391 113.453 95.0931 113.405C94.8616 113.354 94.7253 113.206 94.6842 112.96C94.6697 112.873 94.6866 112.751 94.7347 112.595C94.7829 112.438 94.9239 112.303 95.1578 112.189C95.734 111.989 96.3777 111.792 97.0889 111.599C97.0187 110.912 96.9594 110.245 96.911 109.599C96.8625 108.953 96.8165 108.366 96.7729 107.838C96.7584 107.662 96.7836 107.502 96.8487 107.357C96.9137 107.212 96.9969 107.131 97.0981 107.114C97.3416 107.059 97.584 107.085 97.8251 107.194C98.0783 107.285 98.2194 107.418 98.2484 107.591C98.2727 108.093 98.3079 108.66 98.3539 109.291C98.4144 109.921 98.4774 110.564 98.5427 111.223C98.8272 111.145 99.0996 111.085 99.36 111.041C99.6325 110.981 99.8905 110.923 100.134 110.868ZM109.555 107.019C109.681 107.414 109.796 107.841 109.903 108.299C110.021 108.74 110.126 109.191 110.218 109.652C110.324 110.11 110.414 110.556 110.486 110.99C110.559 111.424 110.617 111.815 110.66 112.165C111.176 112.406 111.498 112.642 111.626 112.874C111.768 113.103 111.819 113.317 111.778 113.517C111.735 113.792 111.599 113.956 111.37 114.009C111.153 114.046 110.886 114.008 110.57 113.897C110.392 114.076 110.187 114.274 109.956 114.491C109.722 114.693 109.474 114.899 109.211 115.106C108.946 115.299 108.678 115.477 108.408 115.642C108.138 115.806 107.884 115.93 107.645 116.014C107.194 116.164 106.76 116.147 106.343 115.964C105.94 115.779 105.633 115.451 105.42 114.981C105.278 114.663 105.199 114.326 105.185 113.972C105.168 113.603 105.22 113.245 105.34 112.898C105.458 112.536 105.64 112.201 105.886 111.892C106.146 111.581 106.467 111.319 106.848 111.107C106.942 111.046 107.073 110.987 107.242 110.929C107.425 110.869 107.612 110.83 107.802 110.813C108.005 110.78 108.213 110.782 108.428 110.82C108.643 110.859 108.851 110.95 109.054 111.095C109.013 110.849 108.961 110.583 108.898 110.296C108.847 109.992 108.789 109.689 108.724 109.388C108.659 109.087 108.59 108.808 108.518 108.553C108.457 108.28 108.397 108.052 108.337 107.869C108.271 107.657 108.163 107.541 108.011 107.522C107.871 107.486 107.706 107.521 107.515 107.627C107.188 107.801 106.82 108.093 106.413 108.503C106.005 108.913 105.623 109.341 105.267 109.787C105.158 109.939 105.016 110.022 104.84 110.037C104.678 110.049 104.53 110.007 104.395 109.91C104.26 109.814 104.173 109.695 104.134 109.552C104.093 109.396 104.123 109.22 104.225 109.024C104.427 108.723 104.657 108.409 104.915 108.084C105.173 107.758 105.45 107.459 105.747 107.186C106.041 106.899 106.349 106.655 106.672 106.452C106.995 106.249 107.329 106.112 107.674 106.039C108.178 105.94 108.588 105.991 108.904 106.191C109.217 106.376 109.434 106.652 109.555 107.019ZM107.817 112.105C107.636 112.179 107.45 112.307 107.257 112.488C107.076 112.652 106.916 112.85 106.776 113.081C106.648 113.296 106.562 113.534 106.516 113.794C106.482 114.038 106.521 114.269 106.632 114.488C106.675 114.57 106.744 114.626 106.838 114.655C106.947 114.681 107.056 114.67 107.167 114.622C107.502 114.492 107.87 114.289 108.27 114.014C108.682 113.722 108.998 113.431 109.217 113.142C109.203 113.055 109.141 112.954 109.033 112.838C108.922 112.708 108.798 112.588 108.66 112.477C108.52 112.351 108.369 112.25 108.208 112.173C108.061 112.094 107.931 112.071 107.817 112.105ZM118.486 106.486C118.541 106.462 118.627 106.44 118.742 106.421C118.856 106.387 118.965 106.376 119.071 106.388C119.19 106.383 119.29 106.404 119.372 106.45C119.466 106.479 119.526 106.528 119.553 106.598C119.611 106.767 119.608 106.931 119.546 107.09C119.495 107.232 119.377 107.371 119.191 107.506C118.685 107.858 118.163 108.25 117.626 108.682C117.086 109.099 116.628 109.473 116.252 109.803C116.541 109.934 116.87 110.079 117.239 110.241C117.623 110.4 118.016 110.572 118.418 110.758C118.819 110.929 119.223 111.121 119.63 111.336C120.035 111.536 120.419 111.739 120.781 111.947C121.111 112.144 121.199 112.36 121.045 112.594C120.975 112.71 120.842 112.806 120.647 112.883C120.466 112.958 120.282 112.967 120.094 112.909C119.749 112.803 119.37 112.673 118.958 112.519C118.543 112.35 118.121 112.183 117.692 112.016C117.26 111.836 116.837 111.661 116.422 111.492C116.02 111.307 115.649 111.138 115.312 110.987C115.454 111.483 115.589 111.981 115.717 112.48C115.86 112.977 115.995 113.475 116.123 113.974C116.256 114.234 116.286 114.459 116.214 114.65C116.141 114.841 115.988 114.948 115.754 114.972C115.501 114.97 115.305 114.906 115.165 114.781C115.022 114.641 114.902 114.453 114.803 114.216C114.617 113.638 114.399 112.953 114.148 112.162C113.911 111.369 113.662 110.548 113.402 109.7C113.141 108.851 112.884 108.024 112.63 107.219C112.391 106.411 112.175 105.696 111.982 105.074C111.919 104.877 111.861 104.663 111.808 104.434C111.767 104.188 111.82 104.016 111.967 103.917C112.17 103.794 112.402 103.807 112.665 103.956C112.926 104.091 113.144 104.33 113.32 104.672C113.547 105.318 113.784 106.022 114.03 106.784C114.276 107.546 114.53 108.351 114.79 109.2C115.051 108.978 115.352 108.734 115.694 108.469C116.049 108.187 116.398 107.92 116.743 107.669C117.1 107.402 117.431 107.16 117.737 106.946C118.043 106.731 118.293 106.578 118.486 106.486ZM127.352 107.057C126.844 107.484 126.28 107.846 125.66 108.143C125.038 108.425 124.351 108.629 123.599 108.755C123.712 109.256 123.925 109.637 124.236 109.897C124.544 110.143 124.899 110.262 125.299 110.255C125.535 110.245 125.766 110.199 125.99 110.117C126.229 110.033 126.442 109.93 126.63 109.81C126.83 109.672 127.007 109.531 127.161 109.386C127.316 109.242 127.448 109.101 127.559 108.963C127.67 108.826 127.795 108.73 127.935 108.677C128.073 108.61 128.18 108.584 128.257 108.601C128.472 108.64 128.58 108.845 128.583 109.216C128.429 109.717 128.162 110.171 127.784 110.576C127.403 110.967 126.952 111.25 126.432 111.426C125.983 111.591 125.502 111.649 124.989 111.601C124.475 111.553 123.992 111.373 123.538 111.062C123.15 110.785 122.831 110.437 122.583 110.017C122.334 109.598 122.149 109.153 122.025 108.683C121.907 108.242 121.872 107.809 121.92 107.385C121.983 106.958 122.119 106.571 122.328 106.223C122.536 105.862 122.818 105.547 123.174 105.279C123.531 105.011 123.967 104.82 124.483 104.704C125.098 104.556 125.682 104.578 126.234 104.768C126.786 104.958 127.205 105.282 127.489 105.741C127.651 105.996 127.72 106.23 127.696 106.442C127.686 106.652 127.572 106.857 127.352 107.057ZM124.61 105.998C124.471 106.051 124.32 106.129 124.158 106.23C124.011 106.329 123.875 106.448 123.75 106.588C123.637 106.711 123.534 106.855 123.443 107.019C123.363 107.166 123.331 107.327 123.345 107.503C123.591 107.462 123.855 107.396 124.137 107.304C124.434 107.21 124.715 107.111 124.98 107.007C125.257 106.887 125.504 106.764 125.721 106.638C125.952 106.51 126.139 106.382 126.281 106.255C126.12 105.999 125.875 105.869 125.547 105.864C125.231 105.843 124.919 105.887 124.61 105.998ZM131.187 104.298C131.267 104.507 131.351 104.746 131.44 105.014C131.542 105.264 131.646 105.53 131.752 105.809C131.856 106.074 131.953 106.348 132.045 106.63C132.137 106.912 132.219 107.181 132.291 107.437C132.402 107.031 132.524 106.602 132.656 106.149C132.789 105.695 132.941 105.276 133.115 104.89C133.3 104.487 133.504 104.148 133.726 103.873C133.962 103.596 134.239 103.431 134.558 103.378C135.035 103.298 135.462 103.405 135.838 103.699C136.229 103.991 136.576 104.379 136.88 104.863C137.196 105.331 137.466 105.836 137.691 106.378C137.915 106.921 138.107 107.402 138.266 107.821C138.418 108.197 138.293 108.516 137.891 108.776C137.705 108.911 137.555 108.951 137.442 108.896C137.329 108.84 137.259 108.778 137.232 108.708C137.131 108.546 136.986 108.258 136.798 107.844C136.624 107.427 136.427 107.006 136.208 106.582C136.003 106.155 135.786 105.79 135.556 105.486C135.327 105.182 135.107 105.063 134.894 105.128C134.637 105.186 134.438 105.42 134.298 105.83C134.175 106.163 134.051 106.533 133.926 106.94C133.813 107.331 133.702 107.736 133.594 108.156C133.483 108.561 133.373 108.973 133.265 109.393C133.169 109.796 133.075 110.168 132.983 110.511C132.899 110.629 132.781 110.723 132.629 110.793C132.489 110.846 132.335 110.857 132.166 110.826C132.014 110.806 131.886 110.753 131.782 110.667C131.679 110.58 131.618 110.486 131.602 110.384C131.283 109.278 130.974 108.274 130.675 107.372C130.39 106.468 130.058 105.549 129.679 104.616C129.522 104.301 129.457 104.044 129.483 103.846C129.522 103.631 129.726 103.516 130.094 103.499C130.615 103.501 130.979 103.767 131.187 104.298ZM54.6595 143.7C54.4618 143.763 54.2195 143.781 53.9325 143.755C53.6601 143.726 53.449 143.575 53.2994 143.303C53.2319 143.166 53.2017 143.029 53.2089 142.894C53.2136 142.745 53.3486 142.618 53.6138 142.514C53.8645 142.413 54.1309 142.317 54.413 142.225C54.7071 142.116 55.0025 142.015 55.299 141.921L54.0902 139.624C53.6896 138.74 53.5278 137.949 53.6047 137.252C53.6816 136.555 54.1371 135.988 54.9712 135.552C55.3135 135.376 55.6607 135.273 56.0127 135.244C56.3792 135.212 56.7349 135.25 57.0797 135.356C57.4246 135.462 57.7489 135.623 58.0528 135.84C58.3567 136.057 58.6172 136.326 58.8343 136.646C58.9188 136.796 58.9719 136.935 58.9936 137.066C59.0274 137.179 59.0021 137.295 58.9178 137.413C58.7973 137.582 58.649 137.673 58.473 137.688C58.2946 137.688 58.1704 137.657 58.1005 137.594C57.9437 137.457 57.7724 137.322 57.5867 137.189C57.4131 137.04 57.2298 136.922 57.0368 136.835C56.856 136.731 56.6667 136.666 56.4689 136.64C56.2688 136.599 56.0626 136.611 55.8505 136.676C55.7516 136.708 55.6371 136.779 55.507 136.89C55.3913 136.998 55.2985 137.155 55.2286 137.36C55.1564 137.55 55.1299 137.793 55.1493 138.087C55.1832 138.379 55.2942 138.732 55.4825 139.147C55.6441 139.491 55.8251 139.863 56.0254 140.26C56.2257 140.658 56.444 141.075 56.6805 141.511C57.3628 141.323 57.9957 141.195 58.5791 141.127C58.9022 141.103 59.2085 141.112 59.4978 141.152C59.7872 141.193 60.0331 141.286 60.2357 141.431C60.3033 141.568 60.3166 141.692 60.2757 141.803C60.2323 141.9 60.1588 141.994 60.0551 142.085C59.9635 142.16 59.8478 142.224 59.708 142.277C59.5826 142.328 59.4561 142.371 59.3283 142.407C59.0438 142.485 58.746 142.572 58.435 142.668C58.1216 142.75 57.7937 142.835 57.4514 142.922C57.7916 143.534 58.1052 144.121 58.3924 144.683C58.6915 145.228 58.9316 145.686 59.1126 146.057C59.2067 146.264 59.2526 146.494 59.2503 146.748C59.248 147.001 59.23 147.249 59.1963 147.493C59.1361 147.845 59.0362 148.137 58.8964 148.368C58.7567 148.6 58.5795 148.696 58.3649 148.658C58.1937 148.612 58.0767 148.535 58.014 148.426C57.9512 148.318 57.9174 148.16 57.9125 147.953C57.9028 147.716 57.8786 147.482 57.8399 147.251C57.8013 147.019 57.7518 146.812 57.6914 146.629C57.6431 146.429 57.5852 146.26 57.5176 146.123C57.4621 145.968 57.4223 145.863 57.3982 145.808L56.0446 143.313C55.8179 143.38 55.5913 143.448 55.3647 143.516C55.1357 143.569 54.9006 143.63 54.6595 143.7ZM68.2838 137.789C68.0476 137.977 67.7981 138.175 67.5353 138.382C67.2871 138.587 67.0364 138.823 66.7833 139.088C66.5423 139.336 66.3157 139.627 66.1037 139.96C65.9036 140.276 65.735 140.646 65.5977 141.07C65.4002 141.668 65.2992 142.265 65.2945 142.861C65.2875 143.442 65.3155 144.01 65.3783 144.564C65.4218 144.825 65.4014 145.103 65.3172 145.4C65.2449 145.679 65.1003 145.837 64.8833 145.874C64.6085 145.92 64.3613 145.82 64.1418 145.574C63.9343 145.311 63.7799 145.054 63.6785 144.803C63.2611 143.817 62.8894 142.839 62.5635 141.867C62.2352 140.881 61.9299 139.899 61.6474 138.92C61.6136 138.717 61.6497 138.577 61.7558 138.5C61.8763 138.421 62.0173 138.375 62.1789 138.363C62.3549 138.348 62.5285 138.364 62.6997 138.409C62.8709 138.455 62.9843 138.555 63.0398 138.709C63.1871 139.235 63.3536 139.787 63.5395 140.366C63.723 140.93 63.8931 141.414 64.05 141.82C64.0257 141.318 64.1051 140.814 64.2882 140.308C64.4712 139.801 64.7194 139.329 65.0327 138.89C65.3605 138.448 65.7413 138.057 66.1752 137.717C66.6235 137.375 67.0936 137.118 67.5854 136.946C67.7976 136.881 67.9784 136.851 68.1279 136.856C68.2774 136.861 68.3871 136.894 68.4571 136.957C68.527 137.02 68.5536 137.134 68.5368 137.301C68.5344 137.464 68.4501 137.627 68.2838 137.789ZM75.0042 136.577C75.4648 136.664 75.8663 136.842 76.2088 137.112C76.5658 137.379 76.8576 137.702 77.0844 138.081C77.3088 138.445 77.4632 138.835 77.5478 139.253C77.6468 139.667 77.6686 140.065 77.6133 140.446C77.5219 140.878 77.3858 141.309 77.2051 141.741C77.0244 142.173 76.8003 142.567 76.5328 142.924C76.2653 143.281 75.9447 143.587 75.5711 143.843C75.1974 144.099 74.7647 144.268 74.2728 144.35C73.6797 144.449 73.1577 144.395 72.7067 144.188C72.2557 143.98 71.8783 143.679 71.5743 143.284C71.2704 142.889 71.0363 142.422 70.8722 141.884C70.7225 141.344 70.6451 140.792 70.6401 140.228C70.6303 139.813 70.6591 139.407 70.7265 139.009C70.8059 138.594 70.9299 138.224 71.0986 137.899C71.2648 137.559 71.4697 137.272 71.7131 137.038C71.971 136.801 72.2808 136.653 72.6425 136.592C72.845 136.559 73.1054 136.56 73.4237 136.596C73.7396 136.617 74.0398 136.679 74.3243 136.78C74.4834 136.575 74.71 136.507 75.0042 136.577ZM74.4442 138.299C74.2682 138.224 74.0584 138.125 73.8148 138.003C73.5833 137.863 73.388 137.806 73.2288 137.833C73.0552 137.862 72.8949 137.97 72.7479 138.158C72.6154 138.344 72.5021 138.556 72.4082 138.795C72.3263 139.017 72.2601 139.244 72.2095 139.475C72.159 139.707 72.1301 139.89 72.1229 140.025C72.1157 140.249 72.1303 140.514 72.1666 140.821C72.2029 141.127 72.2753 141.427 72.3839 141.721C72.4901 142.001 72.6433 142.25 72.8435 142.47C73.0558 142.672 73.3367 142.796 73.6864 142.842C73.8986 142.866 74.1373 142.826 74.4024 142.722C74.6652 142.604 74.9123 142.436 75.1437 142.219C75.3896 142 75.6041 141.726 75.7872 141.398C75.9848 141.068 76.1173 140.703 76.1846 140.306C76.2592 139.862 76.1867 139.428 75.9672 139.004C75.7596 138.562 75.4292 138.276 74.9759 138.143C74.8867 138.232 74.7915 138.286 74.6902 138.302C74.5889 138.319 74.5069 138.318 74.4442 138.299ZM80.6165 136.22C80.6697 136.449 80.7397 136.734 80.8266 137.077C80.9256 137.402 81.0282 137.749 81.1344 138.118C81.2382 138.473 81.342 138.827 81.4459 139.181C81.5641 139.533 81.6703 139.858 81.7645 140.154C81.8705 139.809 82.0005 139.386 82.1546 138.885C82.3088 138.383 82.4738 137.902 82.6496 137.441C82.8375 136.964 83.0375 136.559 83.2496 136.226C83.4737 135.876 83.6942 135.683 83.9112 135.647C84.1427 135.608 84.3718 135.689 84.5985 135.889C84.8373 136.072 85.0556 136.311 85.2534 136.605C85.4512 136.899 85.631 137.218 85.7926 137.563C85.9688 137.905 86.116 138.208 86.2342 138.471C86.2607 138.273 86.298 138.051 86.3461 137.805C86.4063 137.542 86.4665 137.28 86.5266 137.017C86.5989 136.737 86.6796 136.463 86.7687 136.196C86.8723 135.926 86.9879 135.683 87.1156 135.469C87.2699 135.235 87.4482 135.056 87.6507 134.933C87.8508 134.796 88.0015 134.718 88.1027 134.701C88.2329 134.68 88.3921 134.698 88.5802 134.756C88.7803 134.796 88.9853 134.866 89.1951 134.965C89.4049 135.064 89.6051 135.194 89.7956 135.355C89.9982 135.5 90.1658 135.658 90.2985 135.829C90.5663 136.186 90.7967 136.586 90.9898 137.03C91.1973 137.471 91.365 137.896 91.493 138.306C91.6209 138.716 91.7199 139.086 91.7899 139.416C91.872 139.73 91.9312 139.95 91.9674 140.078C91.9988 140.266 92.0013 140.415 91.9748 140.523C91.9459 140.617 91.8784 140.703 91.7723 140.78C91.6253 140.879 91.4927 140.931 91.3745 140.936C91.254 140.926 91.1515 140.891 91.0671 140.831C90.9827 140.771 90.9115 140.701 90.8536 140.621C90.7933 140.527 90.7499 140.445 90.7233 140.375C90.6243 140.05 90.5169 139.718 90.4011 139.381C90.2997 139.041 90.1935 138.716 90.0824 138.408C89.969 138.085 89.8459 137.793 89.7132 137.533C89.5926 137.256 89.4707 137.016 89.3477 136.813C89.3091 136.76 89.2464 136.696 89.1595 136.622C89.0847 136.53 88.9967 136.448 88.8954 136.376C88.8086 136.301 88.7242 136.241 88.6422 136.195C88.5602 136.149 88.5035 136.121 88.4721 136.112C88.3275 136.136 88.1985 136.299 88.0853 136.6C87.9697 136.887 87.871 137.231 87.7891 137.631C87.7073 138.031 87.6363 138.452 87.5762 138.893C87.5281 139.318 87.4993 139.68 87.4898 139.979C87.5526 140.355 87.5274 140.649 87.4141 140.861C87.2985 141.059 87.1611 141.171 87.002 141.198C86.8428 141.224 86.6596 141.195 86.4522 141.111C86.2568 141.01 86.1169 140.884 86.0325 140.735C85.907 140.518 85.7695 140.273 85.6199 140.001C85.4703 139.728 85.3123 139.45 85.1458 139.166C84.9938 138.879 84.8358 138.6 84.6717 138.33C84.5221 138.058 84.3774 137.814 84.2374 137.6C84.0808 137.909 83.929 138.246 83.7821 138.613C83.6496 138.977 83.5183 139.348 83.3883 139.727C83.2727 140.103 83.1571 140.479 83.0415 140.855C82.9379 141.215 82.8356 141.537 82.7344 141.821C82.6597 141.997 82.5754 142.16 82.4814 142.31C82.385 142.445 82.2572 142.525 82.0981 142.552C81.9824 142.571 81.8509 142.541 81.7038 142.462C81.5543 142.368 81.4084 142.251 81.2661 142.111C81.1238 141.971 80.9851 141.809 80.85 141.623C80.7293 141.435 80.6304 141.243 80.5532 141.048C80.3336 140.445 80.1187 139.782 79.9087 139.059C79.7107 138.319 79.5163 137.6 79.3256 136.904C79.2701 136.66 79.2615 136.431 79.3 136.216C79.3506 135.985 79.4856 135.814 79.7049 135.703C79.9436 135.618 80.1377 135.623 80.2872 135.717C80.4368 135.811 80.5465 135.978 80.6165 136.22ZM101.044 132.807C101.097 133.037 101.167 133.322 101.254 133.665C101.353 133.99 101.455 134.337 101.561 134.706C101.665 135.06 101.769 135.415 101.873 135.769C101.991 136.121 102.097 136.446 102.192 136.742C102.298 136.397 102.428 135.974 102.582 135.472C102.736 134.971 102.901 134.49 103.077 134.029C103.265 133.552 103.465 133.147 103.677 132.814C103.901 132.464 104.121 132.271 104.338 132.235C104.57 132.196 104.799 132.277 105.026 132.477C105.264 132.66 105.483 132.899 105.68 133.193C105.878 133.487 106.058 133.806 106.22 134.151C106.396 134.493 106.543 134.796 106.661 135.059C106.688 134.861 106.725 134.639 106.773 134.393C106.833 134.13 106.894 133.867 106.954 133.605C107.026 133.325 107.107 133.051 107.196 132.784C107.299 132.513 107.415 132.271 107.543 132.056C107.697 131.822 107.875 131.644 108.078 131.521C108.278 131.383 108.429 131.306 108.53 131.289C108.66 131.268 108.819 131.286 109.007 131.343C109.207 131.384 109.412 131.454 109.622 131.553C109.832 131.652 110.032 131.782 110.223 131.943C110.425 132.088 110.593 132.246 110.726 132.417C110.993 132.774 111.224 133.174 111.417 133.617C111.624 134.059 111.792 134.484 111.92 134.894C112.048 135.304 112.147 135.674 112.217 136.004C112.299 136.318 112.358 136.538 112.394 136.666C112.426 136.854 112.428 137.002 112.402 137.111C112.373 137.205 112.305 137.291 112.199 137.368C112.052 137.467 111.92 137.519 111.802 137.523C111.681 137.514 111.579 137.479 111.494 137.419C111.41 137.358 111.339 137.289 111.281 137.209C111.22 137.115 111.177 137.033 111.15 136.963C111.051 136.638 110.944 136.306 110.828 135.969C110.727 135.629 110.621 135.304 110.51 134.996C110.396 134.673 110.273 134.381 110.14 134.121C110.02 133.843 109.898 133.604 109.775 133.401C109.736 133.348 109.673 133.284 109.587 133.209C109.512 133.118 109.424 133.036 109.322 132.964C109.236 132.889 109.151 132.829 109.069 132.783C108.987 132.737 108.931 132.709 108.899 132.7C108.755 132.724 108.626 132.887 108.512 133.188C108.397 133.475 108.298 133.819 108.216 134.219C108.134 134.619 108.063 135.04 108.003 135.481C107.955 135.906 107.926 136.267 107.917 136.566C107.98 136.943 107.954 137.237 107.841 137.449C107.726 137.647 107.588 137.759 107.429 137.785C107.27 137.812 107.087 137.783 106.879 137.699C106.684 137.598 106.544 137.472 106.46 137.323C106.334 137.106 106.197 136.861 106.047 136.589C105.897 136.316 105.739 136.038 105.573 135.753C105.421 135.467 105.263 135.188 105.099 134.918C104.949 134.646 104.804 134.402 104.665 134.188C104.508 134.496 104.356 134.834 104.209 135.201C104.077 135.565 103.945 135.936 103.815 136.315C103.7 136.691 103.584 137.067 103.469 137.443C103.365 137.803 103.263 138.125 103.161 138.409C103.087 138.585 103.002 138.748 102.908 138.897C102.812 139.033 102.684 139.113 102.525 139.14C102.409 139.159 102.278 139.129 102.131 139.05C101.981 138.956 101.835 138.839 101.693 138.699C101.551 138.559 101.412 138.396 101.277 138.211C101.156 138.023 101.057 137.831 100.98 137.636C100.761 137.033 100.546 136.37 100.336 135.647C100.138 134.907 99.9434 134.188 99.7527 133.492C99.6971 133.248 99.6886 133.019 99.7271 132.804C99.7777 132.573 99.9126 132.402 100.132 132.291C100.371 132.206 100.565 132.211 100.714 132.305C100.864 132.399 100.974 132.566 101.044 132.807ZM119.223 131.734C118.715 132.161 118.15 132.522 117.531 132.819C116.909 133.102 116.222 133.306 115.47 133.431C115.583 133.933 115.795 134.314 116.107 134.574C116.415 134.82 116.77 134.939 117.17 134.932C117.406 134.922 117.637 134.876 117.861 134.794C118.099 134.709 118.313 134.607 118.501 134.486C118.701 134.349 118.878 134.208 119.032 134.063C119.187 133.918 119.319 133.777 119.43 133.64C119.541 133.502 119.666 133.407 119.806 133.354C119.943 133.286 120.051 133.261 120.128 133.278C120.343 133.316 120.451 133.521 120.454 133.892C120.3 134.394 120.033 134.847 119.655 135.253C119.274 135.643 118.823 135.927 118.302 136.103C117.854 136.267 117.373 136.325 116.859 136.277C116.346 136.229 115.862 136.05 115.409 135.739C115.021 135.462 114.702 135.113 114.454 134.694C114.205 134.274 114.019 133.83 113.896 133.359C113.778 132.918 113.743 132.485 113.791 132.061C113.853 131.634 113.99 131.247 114.199 130.9C114.406 130.538 114.688 130.223 115.045 129.956C115.402 129.688 115.838 129.496 116.354 129.38C116.969 129.233 117.553 129.254 118.105 129.445C118.657 129.635 119.075 129.959 119.36 130.417C119.522 130.673 119.591 130.906 119.567 131.119C119.557 131.328 119.443 131.533 119.223 131.734ZM116.481 130.675C116.341 130.728 116.191 130.805 116.029 130.907C115.882 131.005 115.746 131.125 115.621 131.265C115.507 131.388 115.405 131.531 115.313 131.695C115.234 131.842 115.201 132.004 115.216 132.18C115.462 132.139 115.726 132.072 116.008 131.981C116.304 131.887 116.585 131.788 116.851 131.684C117.128 131.563 117.375 131.44 117.592 131.315C117.823 131.187 118.01 131.059 118.152 130.931C117.991 130.676 117.746 130.545 117.418 130.541C117.102 130.519 116.79 130.564 116.481 130.675ZM126.642 129.736C126.493 129.999 126.327 130.25 126.143 130.488C125.96 130.727 125.793 130.971 125.641 131.219C125.504 131.465 125.405 131.72 125.345 131.982C125.285 132.245 125.31 132.531 125.421 132.84C125.556 133.025 125.626 133.177 125.631 133.295C125.633 133.399 125.59 133.495 125.501 133.585C125.265 133.773 124.993 133.751 124.687 133.52C124.482 133.361 124.322 133.157 124.206 132.909C124.102 132.644 124.043 132.378 124.028 132.113C124.026 131.831 124.061 131.55 124.133 131.27C124.22 130.988 124.347 130.729 124.516 130.493C124.685 130.256 124.859 130.011 125.04 129.758C125.218 129.491 125.374 129.219 125.506 128.944C125.639 128.669 125.728 128.402 125.774 128.141C125.817 127.866 125.794 127.595 125.705 127.328C125.673 127.229 125.601 127.152 125.488 127.096C125.372 127.026 125.231 126.983 125.064 126.966C124.896 126.935 124.71 126.936 124.507 126.97C124.317 126.987 124.125 127.041 123.932 127.133C123.617 127.29 123.358 127.519 123.155 127.82C122.95 128.107 122.865 128.397 122.899 128.688C123.039 128.903 123.058 129.063 122.957 129.169C122.867 129.259 122.765 129.313 122.649 129.332C122.548 129.349 122.449 129.336 122.353 129.293C121.947 129.003 121.733 128.653 121.709 128.24C121.699 127.826 121.796 127.43 122.001 127.054C122.191 126.68 122.459 126.368 122.804 126.117C123.16 125.849 123.561 125.663 124.004 125.56C124.561 125.422 125.106 125.435 125.639 125.599C126.184 125.746 126.598 126.085 126.88 126.618C127.174 127.223 127.269 127.787 127.163 128.311C127.057 128.834 126.883 129.309 126.642 129.736ZM127.006 136.59C127.084 136.785 127.085 136.971 127.01 137.147C126.936 137.323 126.819 137.469 126.66 137.584C126.515 137.698 126.347 137.763 126.157 137.78C125.981 137.794 125.815 137.733 125.658 137.596C125.554 137.509 125.484 137.402 125.448 137.274C125.412 137.146 125.389 137.009 125.379 136.861C125.384 136.712 125.39 136.57 125.397 136.435C125.419 136.297 125.421 136.178 125.404 136.077C125.397 136.033 125.403 135.98 125.422 135.917C125.441 135.855 125.47 135.805 125.509 135.769C125.559 135.716 125.614 135.685 125.672 135.675C125.729 135.665 125.802 135.698 125.889 135.773C126.118 135.898 126.355 136.029 126.601 136.167C126.845 136.289 126.98 136.43 127.006 136.59Z" fill="white"/>
</svg>
