<svg width="180" height="168" viewBox="0 0 180 168" fill="none" xmlns="http://www.w3.org/2000/svg">
<g style="mix-blend-mode:soft-light">
<path d="M15.352 29.4832L141.696 34.9546L160.059 161.968C160.059 161.968 123.148 165.183 99.5099 164.159C17.4673 160.607 0.524698 147.74 0.524698 147.74C10.7274 80.2397 11.7675 78.9219 15.352 29.4832Z" fill="#2C2617" fill-opacity="0.7"/>
</g>
<path d="M12.2274 141.024C9.98275 134.152 15.3493 44.4735 18.3132 0.493293L173.99 13.5866C172.17 16.4719 166.694 116.837 164.183 166.66C65.1098 164.91 21.5988 148.84 12.2274 141.024Z" fill="#E3B93E"/>
<path d="M48.6371 26.9729C48.6317 27.4004 48.6059 27.9199 48.5599 28.5315C48.5404 29.1451 48.517 29.8119 48.4895 30.5319C48.4621 31.2518 48.4469 31.9861 48.444 32.7347C48.4432 33.4566 48.4709 34.154 48.5272 34.8268C48.9761 34.192 49.4662 33.7208 49.9975 33.4132C50.5553 33.1075 51.1032 32.9348 51.641 32.8951C52.4734 32.8508 53.1843 32.9979 53.7739 33.3365C54.3635 33.675 54.8377 34.1252 55.1965 34.6871C55.5574 35.2223 55.8068 35.8161 55.9449 36.4683C56.085 37.0939 56.1331 37.6992 56.089 38.2842C55.9949 39.534 55.5755 40.6657 54.8306 41.6793C54.1123 42.6949 53.2834 43.5819 52.3438 44.3402C51.4309 45.1004 50.5279 45.7277 49.6349 46.2221C48.7685 46.7185 48.1402 47.0723 47.7499 47.2836C47.2021 47.4563 46.6795 47.4704 46.1823 47.326C45.6851 47.1816 45.3647 46.9971 45.2212 46.7723C45.1122 46.4432 45.0924 46.1743 45.1615 45.9656C45.2327 45.7303 45.3551 45.5255 45.5287 45.3514C45.7023 45.1773 45.9004 45.0317 46.1231 44.9148C46.3745 44.7733 46.5849 44.642 46.7545 44.5211C46.3365 41.548 46.0667 38.5593 45.9453 35.555C45.8258 32.5242 45.9087 29.4685 46.1941 26.3879C46.2342 25.856 46.3636 25.5582 46.5823 25.4945C46.8276 25.4327 47.0301 25.4078 47.1896 25.4198C47.5579 25.5011 47.8793 25.6723 48.1538 25.9337C48.4283 26.195 48.5894 26.5414 48.6371 26.9729ZM53.6649 37.9814C53.733 37.0773 53.554 36.4354 53.128 36.0556C52.7039 35.6493 52.2506 35.4548 51.7679 35.4719C51.3651 35.4951 50.9951 35.6143 50.658 35.8296C50.3208 36.0449 50.0196 36.3164 49.7543 36.644C49.4889 36.9717 49.2738 37.3433 49.1088 37.7587C48.9704 38.1762 48.8995 38.5854 48.896 38.9862C48.8992 39.655 48.9116 40.378 48.9333 41.1551C48.9816 41.9343 49.0492 42.6347 49.1361 43.2563C49.5836 42.9958 50.0607 42.6975 50.5674 42.3612C51.0761 41.9984 51.5478 41.5926 51.9827 41.144C52.4442 40.6974 52.828 40.2182 53.1339 39.7064C53.4419 39.168 53.6189 38.593 53.6649 37.9814ZM70.0376 34.1196C70.0879 34.8721 70.1076 35.6759 70.0967 36.5308C70.1144 37.3611 70.1046 38.2028 70.0671 39.0557C70.0562 39.9106 70.0208 40.737 69.9607 41.5347C69.9006 42.3325 69.8333 43.0494 69.7587 43.6856C70.5656 44.3347 71.0318 44.8913 71.1573 45.3553C71.3094 45.8214 71.3059 46.2223 71.147 46.5579C70.9514 47.0246 70.6399 47.2552 70.2124 47.2497C69.8135 47.2197 69.3592 47.0384 68.8494 46.7059C68.4571 46.9438 68.0096 47.2042 67.5069 47.4873C67.0063 47.7438 66.479 47.9983 65.9252 48.2507C65.3733 48.4766 64.8235 48.6759 64.2756 48.8486C63.7278 49.0213 63.2248 49.1305 62.7668 49.1762C61.9058 49.2451 61.1467 49.0275 60.4893 48.5234C59.8586 48.0213 59.4576 47.3092 59.2863 46.3871C59.1728 45.7635 59.18 45.1356 59.3078 44.5034C59.4376 43.8446 59.6841 43.2347 60.0472 42.6737C60.4124 42.0862 60.8789 41.5731 61.4467 41.1345C62.0412 40.6978 62.7207 40.3746 63.4853 40.1647C63.6774 40.099 63.935 40.0515 64.2581 40.0224C64.6078 39.9952 64.9545 40.0079 65.2982 40.0605C65.6705 40.0886 66.0378 40.1831 66.4 40.3441C66.7623 40.505 67.091 40.7571 67.3861 41.1002C67.4201 40.6482 67.4438 40.1552 67.4573 39.6214C67.4993 39.063 67.5281 38.5035 67.5435 37.9431C67.5589 37.3827 67.5581 36.8612 67.5409 36.3785C67.5524 35.8713 67.5445 35.4428 67.5174 35.0931C67.4942 34.6902 67.3527 34.4389 67.0928 34.3391C66.8615 34.2147 66.5547 34.205 66.1724 34.3099C65.5182 34.4746 64.7426 34.8307 63.8456 35.3783C62.9486 35.9258 62.0886 36.5163 61.2654 37.1496C61.008 37.3709 60.7208 37.4562 60.4037 37.4056C60.1132 37.357 59.8696 37.2183 59.6729 36.9896C59.4762 36.7609 59.3745 36.5125 59.3679 36.2446C59.3634 35.9501 59.4928 35.6523 59.7561 35.3512C60.2442 34.9066 60.7865 34.4527 61.3829 33.9895C61.9794 33.5263 62.5984 33.1183 63.24 32.7655C63.8837 32.386 64.5346 32.0874 65.1928 31.8695C65.851 31.6517 66.5002 31.5534 67.1404 31.5749C68.0731 31.6184 68.7751 31.8852 69.2463 32.3752C69.7195 32.8387 69.9832 33.4202 70.0376 34.1196ZM64.7651 42.347C64.4134 42.4007 64.0281 42.5455 63.6092 42.7814C63.2189 42.9927 62.8502 43.2725 62.5031 43.6208C62.1845 43.9444 61.9285 44.3263 61.7349 44.7663C61.5699 45.1818 61.5379 45.6073 61.6388 46.0427C61.68 46.2063 61.7773 46.3339 61.9309 46.4257C62.111 46.5195 62.3095 46.5478 62.5262 46.5107C63.1744 46.4257 63.9114 46.2272 64.7371 45.915C65.5915 45.5781 66.275 45.2017 66.7877 44.7857C66.7997 44.6261 66.735 44.4207 66.5934 44.1694C66.4539 43.8914 66.2868 43.6248 66.0921 43.3695C65.8993 43.0876 65.677 42.8435 65.4251 42.6373C65.1998 42.4332 64.9798 42.3364 64.7651 42.347ZM84.0327 39.7059C83.8385 39.7983 83.6095 39.8211 83.3456 39.7745C83.0837 39.7013 82.8707 39.5115 82.7066 39.205C82.3231 38.6145 81.8256 38.2963 81.214 38.2502C80.6556 38.2082 80.1404 38.3031 79.6683 38.535C79.2248 38.7423 78.8142 39.0456 78.4365 39.4451C78.0874 39.8199 77.7874 40.252 77.5366 40.7412C77.2859 41.2304 77.1016 41.7246 76.9838 42.2239C76.7808 43.1446 76.8813 43.941 77.2853 44.6132C77.6893 45.2855 78.3699 45.6576 79.3272 45.7297C80.0964 45.8143 80.9716 45.7331 81.9529 45.4861C82.9628 45.2145 83.9133 44.8448 84.8042 44.377C85.1885 44.2455 85.5412 44.1785 85.8623 44.1759C86.1834 44.1733 86.4373 44.3529 86.624 44.7146C86.8579 45.1601 86.7584 45.5938 86.3255 46.0158C85.8946 46.4113 85.3337 46.7568 84.6429 47.0525C83.9501 47.3747 83.2204 47.654 82.4538 47.8905C81.7158 48.1024 80.9696 48.2467 80.215 48.3237C79.4624 48.374 78.7179 48.3179 77.9813 48.1555C77.2714 47.9951 76.6123 47.6914 76.0041 47.2445C75.0457 46.4771 74.5082 45.4471 74.3915 44.1547C74.2749 42.8623 74.467 41.5531 74.968 40.2269C75.1656 39.7337 75.4297 39.2455 75.7602 38.7623C76.0927 38.2524 76.4745 37.7998 76.9054 37.4044C77.3629 37.011 77.8552 36.687 78.3825 36.4325C78.9117 36.1515 79.4862 35.9808 80.1058 35.9205C81.1017 35.835 82.0377 36.0124 82.9138 36.4527C83.7918 36.8665 84.3411 37.563 84.5615 38.5423C84.5987 38.7591 84.5817 38.9851 84.5105 39.2204C84.4413 39.4291 84.282 39.591 84.0327 39.7059ZM101.287 38.1969C101.395 38.1783 101.556 38.177 101.768 38.1931C101.983 38.1825 102.182 38.2108 102.364 38.278C102.575 38.3206 102.742 38.4001 102.867 38.5165C103.021 38.6082 103.106 38.7216 103.123 38.8566C103.152 39.1797 103.076 39.4682 102.897 39.7221C102.746 39.9514 102.477 40.1451 102.091 40.3032C101.044 40.7058 99.9531 41.1719 98.8168 41.7014C97.6825 42.2043 96.7118 42.6661 95.9046 43.0867C96.3592 43.4418 96.8773 43.8418 97.4589 44.2867C98.0671 44.7337 98.6865 45.2082 99.3173 45.7103C99.95 46.1858 100.58 46.7012 101.207 47.2564C101.835 47.7851 102.424 48.3108 102.973 48.8335C103.471 49.3256 103.533 49.7448 103.159 50.091C102.986 50.2652 102.71 50.3781 102.331 50.4299C101.98 50.4836 101.65 50.4187 101.343 50.2351C100.78 49.8986 100.168 49.5048 99.5068 49.0539C98.8475 48.5764 98.1748 48.0979 97.4889 47.6184C96.8049 47.1123 96.1333 46.6205 95.4739 46.143C94.8432 45.6409 94.2626 45.1827 93.7322 44.7683C93.7685 45.707 93.7915 46.6448 93.8012 47.5815C93.8375 48.5202 93.8605 49.4579 93.8703 50.3946C93.9918 50.9118 93.9474 51.323 93.7373 51.6281C93.5271 51.9332 93.2103 52.0564 92.7869 51.9978C92.3408 51.884 92.0214 51.6861 91.8287 51.4042C91.638 51.0956 91.5065 50.7114 91.4341 50.2513C91.3567 49.149 91.2676 47.8453 91.167 46.3402C91.0929 44.8371 91.0096 43.2798 90.917 41.6683C90.8244 40.0568 90.7288 38.4851 90.6301 36.9534C90.5581 35.4237 90.4863 34.0678 90.4149 32.8858C90.3897 32.5095 90.3799 32.1076 90.3853 31.6802C90.4193 31.2281 90.5876 30.9466 90.8901 30.8357C91.301 30.7062 91.7062 30.8303 92.1056 31.208C92.507 31.5591 92.7891 32.0751 92.9518 32.7559C93.0724 33.9951 93.1851 35.3407 93.2897 36.7926C93.3943 38.2446 93.493 39.7763 93.5856 41.3878C94.1414 41.1087 94.7791 40.8091 95.4985 40.4889C96.2465 40.144 96.9792 39.8248 97.6966 39.5312C98.4426 39.2129 99.1324 38.9306 99.766 38.6841C100.4 38.4377 100.907 38.2753 101.287 38.1969ZM128.174 42.5877C128.681 42.5991 129.178 42.7568 129.663 43.0608C130.148 43.3647 130.37 43.7959 130.327 44.3543C130.24 44.8024 129.966 45.0759 129.504 45.1748C129.07 45.2491 128.72 45.2763 128.455 45.2563C127.923 45.2162 127.35 45.1865 126.736 45.167C126.123 45.1476 125.495 45.1404 124.853 45.1456C124.733 46.0191 124.618 46.8394 124.507 47.6066C124.422 48.3757 124.344 49.0651 124.271 49.6747C124.2 50.2577 124.151 50.7353 124.123 51.1076C124.095 51.4799 124.093 51.6803 124.118 51.7089C124.711 51.6466 125.349 51.5208 126.032 51.3315C126.743 51.1177 127.442 50.8895 128.129 50.647C128.844 50.38 129.533 50.1109 130.195 49.8399C130.886 49.5442 131.535 49.2722 132.142 49.0237C132.418 48.9108 132.66 48.8889 132.869 48.9581C133.104 49.0293 133.242 49.16 133.281 49.3501C133.312 49.6466 133.245 50.0026 133.08 50.4181C132.915 50.8335 132.647 51.2011 132.275 51.5208C131.852 51.8098 131.292 52.1421 130.595 52.5175C129.927 52.8683 129.207 53.2018 128.434 53.5181C127.662 53.8343 126.879 54.1096 126.086 54.3441C125.321 54.554 124.644 54.6635 124.055 54.6726C123.172 54.6863 122.525 54.3969 122.115 53.8045C121.705 53.212 121.505 52.4883 121.516 51.6334C121.527 50.7785 121.588 49.7936 121.699 48.6788C121.836 47.5659 121.978 46.3866 122.125 45.1408C121.616 45.156 121.12 45.1721 120.637 45.1893C120.183 45.1818 119.742 45.1887 119.312 45.2098C118.967 45.1838 118.587 45.075 118.173 44.8834C117.787 44.6939 117.61 44.373 117.644 43.921C117.656 43.7614 117.739 43.5537 117.892 43.2978C118.045 43.0419 118.352 42.8645 118.814 42.7656C119.919 42.6615 121.14 42.593 122.48 42.5602C122.654 41.3164 122.838 40.1135 123.032 38.9515C123.227 37.7894 123.4 36.7328 123.552 35.7815C123.603 35.4644 123.717 35.1922 123.894 34.9649C124.072 34.7376 124.254 34.6309 124.44 34.645C124.894 34.6524 125.31 34.8041 125.689 35.1C126.097 35.3714 126.288 35.6666 126.264 35.9857C126.09 36.8818 125.906 37.8976 125.714 39.033C125.548 40.1704 125.38 41.3344 125.21 42.525C125.746 42.5119 126.253 42.5233 126.732 42.5594C127.239 42.5708 127.72 42.5803 128.174 42.5877ZM145.617 40.6516C146.392 41.0042 147.024 41.493 147.512 42.118C148.026 42.7451 148.402 43.4419 148.638 44.2085C148.877 44.9485 148.98 45.705 148.949 46.4782C148.944 47.2534 148.81 47.9653 148.547 48.6141C148.199 49.3366 147.771 50.0399 147.265 50.7238C146.759 51.4077 146.193 52.0069 145.566 52.5213C144.938 53.0357 144.24 53.4377 143.469 53.7273C142.699 54.0169 141.861 54.1277 140.957 54.0597C139.867 53.9776 138.968 53.6559 138.262 53.0946C137.555 52.5333 137.019 51.8378 136.654 51.008C136.289 50.1783 136.077 49.2531 136.021 48.2326C135.99 47.2142 136.093 46.2057 136.329 45.2072C136.491 44.4707 136.718 43.7657 137.009 43.0924C137.329 42.3944 137.709 41.7945 138.148 41.2927C138.588 40.7643 139.075 40.3463 139.606 40.0387C140.164 39.733 140.775 39.6052 141.44 39.6553C141.812 39.6833 142.271 39.7981 142.818 39.9997C143.366 40.1747 143.87 40.4131 144.328 40.7151C144.698 40.422 145.127 40.4009 145.617 40.6516ZM143.882 43.4493C143.603 43.2411 143.276 42.9758 142.899 42.6532C142.551 42.3061 142.23 42.1216 141.938 42.0995C141.619 42.0755 141.288 42.1977 140.947 42.4662C140.633 42.7367 140.341 43.0624 140.072 43.4432C139.831 43.7995 139.616 44.1711 139.426 44.5579C139.236 44.9448 139.106 45.2559 139.035 45.4912C138.925 45.8841 138.836 46.3587 138.767 46.9151C138.699 47.4715 138.696 48.033 138.761 48.5994C138.827 49.1392 138.989 49.6462 139.248 50.1203C139.535 50.5697 139.977 50.9106 140.575 51.1428C140.939 51.2771 141.378 51.3102 141.891 51.2418C142.406 51.1469 142.915 50.9579 143.418 50.6749C143.947 50.3938 144.445 50.0034 144.91 49.5036C145.402 49.0058 145.794 48.4202 146.085 47.7468C146.409 46.9957 146.469 46.198 146.266 45.3536C146.09 44.4847 145.631 43.835 144.888 43.4047C144.692 43.5236 144.501 43.5761 144.315 43.5621C144.128 43.5481 143.984 43.5105 143.882 43.4493ZM46.3635 62.5025C46.3155 63.1407 46.2481 63.8576 46.1615 64.6534C46.1014 65.4511 46.0394 66.2754 45.9753 67.1264C45.9379 67.9793 45.8851 68.8578 45.817 69.7619C45.7756 70.668 45.7371 71.5343 45.7016 72.3606C46.0076 71.8488 46.3657 71.3543 46.776 70.8771C47.1883 70.3733 47.6355 69.9389 48.1176 69.5741C48.6263 69.2113 49.1423 68.9292 49.6655 68.7279C50.2154 68.5286 50.7961 68.452 51.4077 68.498C52.0725 68.5481 52.6415 68.8049 53.1147 69.2684C53.6145 69.7339 54.0235 70.3396 54.3417 71.0856C54.6885 71.807 54.9619 72.6165 55.1617 73.514C55.3636 74.385 55.5103 75.2785 55.6018 76.1946C55.7218 77.0861 55.7907 77.9471 55.8084 78.7774C55.8282 79.5812 55.8426 80.2775 55.8517 80.8666C55.8197 81.292 55.6873 81.6297 55.4546 81.8796C55.2218 82.1295 54.9592 82.2434 54.6667 82.2214C54.454 82.2054 54.1981 82.0524 53.899 81.7625C53.6285 81.448 53.4418 81.0863 53.3388 80.6774C53.2831 80.3523 53.2384 79.8809 53.2046 79.2633C53.1709 78.6457 53.1269 77.9872 53.0725 77.2878C53.0202 76.5618 52.9413 75.8339 52.8358 75.1039C52.7303 74.3739 52.5789 73.7207 52.3817 73.1443C52.213 72.5432 51.9811 72.0712 51.686 71.7281C51.3909 71.3849 51.0277 71.2372 50.5962 71.285C49.9214 71.3679 49.3013 71.7892 48.7361 72.5489C48.1974 73.3106 47.7038 74.1827 47.2555 75.1652C46.8337 76.1496 46.4641 77.1514 46.1468 78.1704C45.8559 79.1915 45.6333 80.0171 45.4789 80.6473C45.3365 81.1179 45.1653 81.4393 44.9651 81.6114C44.7935 81.7589 44.6014 81.8247 44.3887 81.8087C44.1759 81.7927 43.9845 81.6713 43.8144 81.4446C43.6709 81.2198 43.5303 80.9552 43.3928 80.6507C43.2839 80.3216 43.1882 79.9935 43.1059 79.6664C43.0255 79.3127 42.9811 79.0151 42.9725 78.7738C42.9476 77.3279 42.9444 75.9504 42.9627 74.6414C42.983 73.3058 43.0166 71.9713 43.0635 70.6377C43.137 69.3061 43.2258 67.949 43.3299 66.5662C43.436 65.1569 43.5757 63.6564 43.749 62.065C43.8491 60.7354 44.3728 60.1731 45.3201 60.3781C45.6352 60.4553 45.8963 60.7157 46.1036 61.1592C46.3129 61.5761 46.3996 62.0238 46.3635 62.5025ZM69.7378 68.0327C70.5135 68.3853 71.1453 68.8741 71.633 69.4992C72.1474 70.1262 72.5228 70.823 72.7593 71.5896C72.9977 72.3296 73.1012 73.0862 73.0698 73.8593C73.0649 74.6345 72.9311 75.3464 72.6683 75.9952C72.3198 76.7177 71.8924 77.421 71.3863 78.1049C70.8802 78.7889 70.3136 79.388 69.6866 79.9024C69.0595 80.4168 68.3607 80.8188 67.5901 81.1084C66.8196 81.3981 65.9822 81.5088 65.0781 81.4408C63.9879 81.3587 63.0895 81.037 62.3829 80.4757C61.6764 79.9145 61.1405 79.2189 60.775 78.3891C60.4096 77.5594 60.1985 76.6342 60.1416 75.6138C60.1113 74.5953 60.214 73.5868 60.4496 72.5883C60.612 71.8518 60.8389 71.1468 61.1303 70.4735C61.4502 69.7755 61.8297 69.1757 62.2686 68.6739C62.7095 68.1455 63.1956 67.7274 63.7268 67.4198C64.2847 67.1141 64.896 66.9863 65.5608 67.0364C65.9331 67.0644 66.3924 67.1792 66.9388 67.3808C67.4872 67.5558 67.9907 67.7943 68.4494 68.0962C68.8191 67.8031 69.2486 67.782 69.7378 68.0327ZM68.0029 70.8304C67.7244 70.6222 67.3967 70.3569 67.0198 70.0344C66.6716 69.6872 66.3512 69.5027 66.0587 69.4807C65.7396 69.4566 65.4095 69.5789 65.0684 69.8473C64.7539 70.1178 64.4619 70.4435 64.1926 70.8244C63.9518 71.1806 63.7366 71.5522 63.5471 71.939C63.3575 72.3259 63.2271 72.637 63.1559 72.8723C63.0461 73.2652 62.9569 73.7398 62.8883 74.2962C62.8196 74.8527 62.8175 75.4141 62.8818 75.9805C62.9481 76.5203 63.1105 77.0273 63.369 77.5014C63.6561 77.9509 64.0984 78.2917 64.696 78.5239C65.0603 78.6583 65.499 78.6913 66.0123 78.623C66.5275 78.528 67.0365 78.339 67.5391 78.056C68.0684 77.7749 68.5658 77.3845 69.0313 76.8847C69.5234 76.3869 69.9151 75.8013 70.2065 75.128C70.5304 74.3768 70.5905 73.5791 70.3866 72.7347C70.2114 71.8658 69.7522 71.2161 69.009 70.7858C68.8129 70.9048 68.6218 70.9572 68.4356 70.9432C68.2495 70.9292 68.1052 70.8916 68.0029 70.8304ZM79.8029 69.8334C79.7974 70.2609 79.7973 70.7957 79.8024 71.4379C79.8362 72.0555 79.8669 72.713 79.8946 73.4104C79.9243 74.0812 79.9541 74.752 79.9838 75.4228C80.0401 76.0956 80.0871 76.7142 80.1249 77.2786C80.4614 76.7156 80.8745 76.0246 81.364 75.2058C81.8535 74.3869 82.3533 73.6088 82.8634 72.8717C83.4021 72.11 83.9308 71.4813 84.4495 70.9855C84.9968 70.4651 85.4699 70.2199 85.8687 70.2499C86.2942 70.282 86.6637 70.5237 86.9774 70.9752C87.3197 71.4021 87.6017 71.9181 87.8236 72.5231C88.0455 73.1281 88.2245 73.77 88.3605 74.4488C88.5232 75.1296 88.652 75.7277 88.747 76.2429C88.8793 75.9052 89.0413 75.5297 89.2329 75.1162C89.4531 74.6782 89.6733 74.2401 89.8934 73.8021C90.1422 73.3395 90.4032 72.8911 90.6766 72.4571C90.9765 72.025 91.2858 71.6472 91.6043 71.3235C91.978 70.9773 92.3703 70.7394 92.7812 70.6099C93.1941 70.4538 93.4936 70.3827 93.6797 70.3967C93.9191 70.4147 94.1923 70.5155 94.4994 70.6991C94.835 70.8581 95.1667 71.0702 95.4944 71.3356C95.8221 71.6009 96.1191 71.9175 96.3856 72.2852C96.6807 72.6283 96.9083 72.9797 97.0684 73.3394C97.3866 74.0854 97.6201 74.8919 97.7688 75.7588C97.944 76.6277 98.0558 77.4518 98.1041 78.231C98.1524 79.0101 98.1669 79.7065 98.1474 80.3201C98.1566 80.9091 98.1654 81.3243 98.174 81.5656C98.148 81.9113 98.0881 82.1742 97.9943 82.3543C97.9025 82.5079 97.7462 82.6298 97.5255 82.7202C97.223 82.8311 96.9664 82.8653 96.7556 82.8227C96.5469 82.7535 96.3811 82.6474 96.2581 82.5044C96.1352 82.3615 96.0398 82.2072 95.972 82.0417C95.9063 81.8495 95.8651 81.686 95.8485 81.551C95.8148 80.9334 95.7688 80.3015 95.7104 79.6553C95.6787 79.0111 95.6317 78.3925 95.5694 77.7995C95.509 77.1798 95.4181 76.6114 95.2966 76.0942C95.2037 75.5523 95.0925 75.076 94.9629 74.6651C94.9178 74.5547 94.8347 74.4148 94.7138 74.2452C94.6214 74.051 94.5015 73.8682 94.3539 73.6966C94.233 73.5271 94.11 73.3841 93.9851 73.2677C93.8601 73.1514 93.7721 73.0779 93.7209 73.0473C93.455 73.0273 93.1567 73.2589 92.8262 73.7421C92.4977 74.1987 92.1744 74.7627 91.8565 75.4341C91.5385 76.1054 91.2308 76.8177 90.9334 77.5708C90.6647 78.2993 90.4571 78.9255 90.3107 79.4493C90.2586 80.1407 90.0866 80.6492 89.7947 80.9749C89.5048 81.274 89.2135 81.4125 88.921 81.3905C88.6285 81.3685 88.3174 81.2381 87.9878 80.9993C87.6867 80.736 87.494 80.4541 87.4096 80.1536C87.2821 79.7161 87.1453 79.2244 86.9992 78.6786C86.8531 78.1327 86.6947 77.5726 86.524 76.9982C86.3799 76.4257 86.2215 75.8656 86.0488 75.3178C85.9027 74.7719 85.7526 74.2793 85.5985 73.8398C85.1882 74.317 84.7738 74.8474 84.3555 75.431C83.9638 76.0165 83.5711 76.6154 83.1773 77.2276C82.8102 77.8418 82.443 78.4559 82.0759 79.0701C81.7374 79.6597 81.4171 80.1838 81.1152 80.6424C80.907 80.9209 80.6875 81.1718 80.4568 81.3951C80.2281 81.5918 79.9674 81.6792 79.6749 81.6572C79.4622 81.6411 79.2432 81.5311 79.0179 81.3269C78.7945 81.0962 78.5875 80.8265 78.3968 80.518C78.2061 80.2095 78.0317 79.8621 77.8736 79.4758C77.7421 79.0915 77.6504 78.7102 77.5987 78.3319C77.472 77.1725 77.38 75.9087 77.3225 74.5405C77.2937 73.1477 77.2618 71.7948 77.2269 70.4819C77.2344 70.0278 77.3186 69.6196 77.4796 69.2574C77.6691 68.8705 77.9817 68.6266 78.4171 68.5257C78.8752 68.4799 79.2159 68.5724 79.4392 68.8032C79.6625 69.0339 79.7837 69.3773 79.8029 69.8334ZM112.369 75.815C111.286 76.3485 110.134 76.7431 108.911 76.9987C107.69 77.2277 106.389 77.2902 105.006 77.1861C104.989 78.1208 105.199 78.8854 105.635 79.4798C106.074 80.0477 106.648 80.4118 107.358 80.5723C107.78 80.6575 108.206 80.6762 108.638 80.6285C109.096 80.5827 109.517 80.4941 109.901 80.3626C110.314 80.2064 110.688 80.034 111.023 79.8453C111.358 79.6566 111.653 79.4649 111.909 79.2702C112.164 79.0755 112.427 78.9615 112.697 78.9284C112.969 78.8686 113.169 78.8703 113.298 78.9335C113.66 79.0945 113.763 79.5034 113.607 80.1602C113.117 80.9791 112.451 81.6643 111.607 82.2158C110.765 82.7408 109.846 83.046 108.85 83.1315C107.987 83.227 107.113 83.121 106.227 82.8136C105.341 82.5063 104.565 81.9798 103.899 81.2344C103.333 80.5768 102.922 79.8238 102.665 78.9754C102.408 78.1271 102.272 77.2611 102.259 76.3776C102.241 75.5473 102.367 74.7678 102.635 74.0393C102.931 73.3127 103.339 72.6883 103.859 72.1659C104.382 71.6169 105.016 71.1833 105.762 70.8651C106.508 70.5468 107.362 70.3972 108.323 70.416C109.473 70.4224 110.494 70.7132 111.387 71.2885C112.279 71.8638 112.878 72.6175 113.182 73.5496C113.357 74.0709 113.377 74.5136 113.242 74.8779C113.134 75.2442 112.844 75.5565 112.369 75.815ZM107.987 72.7574C107.717 72.7905 107.417 72.8616 107.088 72.9705C106.786 73.0815 106.493 73.2333 106.211 73.426C105.958 73.5941 105.715 73.8031 105.482 74.053C105.278 74.2783 105.151 74.5495 105.1 74.8666C105.552 74.9007 106.047 74.8978 106.585 74.8581C107.149 74.8203 107.688 74.7673 108.202 74.699C108.743 74.6061 109.233 74.4958 109.67 74.3683C110.135 74.2428 110.52 74.098 110.826 73.9339C110.652 73.4126 110.276 73.0768 109.699 72.9264C109.15 72.7514 108.58 72.6951 107.987 72.7574Z" fill="black"/>
</svg>
