<svg width="390" height="744" viewBox="0 0 390 744" fill="none" xmlns="http://www.w3.org/2000/svg">
<path fill-rule="evenodd" clip-rule="evenodd" d="M67.9267 383.838C66.2313 379.597 64.4358 375.105 61 369.648C51.9726 355.31 51.9866 336.719 51.9991 320.242C51.9995 319.633 52 319.028 52 318.426C52 310.844 51.4255 303.34 50.8529 295.861C50.5352 291.711 50.2181 287.569 50 283.426C48.439 253.766 47 223.241 47 193.426C47 186.001 48.2558 178.667 49.5087 171.351C50.7558 164.068 52 156.803 52 149.481C52 146.749 52.5202 143.387 52.9579 140.558C52.991 140.344 53.0237 140.133 53.0556 139.926C53.1733 139.161 53.251 138.179 53.3337 137.136C53.4965 135.081 53.6783 132.785 54.2222 131.426C55.5967 127.989 55.9625 124.043 56.3292 120.086C56.6285 116.857 56.9285 113.62 57.7778 110.648C59.2434 105.518 60 98.7537 60 93.4256C60 91.2335 60.4988 88.9636 60.9983 86.6911C61.4988 84.4134 62 82.133 62 79.9256C62 67.4831 68.4344 54.861 75 44.6478C75.8935 43.2579 76.774 41.8587 77.6534 40.4613C84.4789 29.6145 91.2361 18.8762 103.5 13.4256C105.605 12.4902 107.754 11.7337 109.88 10.985C111.962 10.2519 114.023 9.52637 116 8.64784C118.737 7.43147 121.748 6.99324 124.742 6.55753C127.594 6.14236 130.431 5.72948 133 4.64785C142.528 0.636075 153.774 0.425623 164 0.425623C166.062 0.425623 168.239 0.323587 170.46 0.219434C176.344 -0.056403 182.545 -0.347091 187.778 1.2034C190.111 1.8948 192.691 1.93967 195.271 1.98455C198.313 2.03748 201.357 2.09042 204 3.2034C205.204 3.71027 206.684 3.75865 208.171 3.80725C209.422 3.84812 210.678 3.88916 211.778 4.2034C214.206 4.89722 218.498 5.42562 221 5.42562C224.371 5.42562 227.768 6.38496 231.081 7.32054C232.575 7.74226 234.051 8.15916 235.5 8.48118C238.612 9.17276 241.518 10.8208 244.398 12.4548C246.514 13.6549 248.617 14.8474 250.778 15.6478C254.866 17.162 259.923 20.3487 263 23.4256C270.454 30.8796 277.09 39.2151 283.685 47.4989C285.951 50.3451 288.212 53.1851 290.5 55.9812C292.645 58.6034 294.171 61.4971 295.698 64.3925C296.734 66.3567 297.77 68.3218 299 70.2034C299.724 71.3112 300.476 72.4225 301.232 73.5422C304.245 77.9992 307.35 82.5919 309.222 87.6479C310.333 90.6461 311.922 93.4562 313.511 96.2679C314.749 98.4564 315.987 100.646 317 102.926C317.987 105.147 318.929 107.376 319.878 109.621C321.043 112.379 322.218 115.16 323.5 117.981C326.698 125.017 327.739 132.644 328.774 140.223C329.515 145.652 330.253 151.057 331.778 156.203C332.765 159.535 333.073 163.447 333.375 167.273C333.556 169.57 333.734 171.836 334.056 173.926C334.699 178.108 335.228 182.319 335.757 186.532C336.171 189.833 336.586 193.136 337.056 196.426C339.012 210.12 340 224.216 340 238.203C340 245.914 340.496 253.632 340.994 261.38C341.496 269.189 342 277.029 342 284.926C342 297.306 341.538 309.722 341.084 321.936C341.056 322.693 341.028 323.448 341 324.203C340.819 329.094 340.075 333.786 339.326 338.51C338.86 341.451 338.391 344.404 338.056 347.426C337.008 356.857 333.24 365.022 329.384 373.377C328.104 376.151 326.814 378.945 325.611 381.815C320.321 394.43 311.089 401.159 299 407.203C285.667 413.87 269.217 421.217 254.5 423.481C249.77 424.209 245.272 425.729 240.777 427.248C234.941 429.22 229.109 431.191 222.778 431.426C216.319 431.665 209.84 432.264 203.346 432.865C194.918 433.644 186.465 434.426 178 434.426H143C142.453 434.426 141.905 434.414 141.358 434.393C129.198 451.595 106.881 458.949 93.0495 460.552C109.11 445.549 105.689 430.031 99.8338 419.871C99.5612 419.724 99.2833 419.575 99 419.426C75.4202 402.585 71.9564 393.92 67.9267 383.838Z" fill="white"/>
<path d="M163.723 528.184C171.503 529.364 179.34 530.618 186.671 533.521C187.213 533.783 187.774 534.045 188.317 534.345C184.539 531.817 179.639 531.012 175.318 529.738C171.484 528.84 167.65 528.053 163.779 527.342C163.779 526.499 163.966 525.694 164.377 524.945L183.66 490.717C183.66 490.717 190.86 480.381 180.667 478.097C178.236 477.554 175.692 477.722 173.299 478.359L121.249 492.178C121.249 492.178 121.249 493.001 117.303 489.481C116.573 488.826 115.657 488.058 114.591 487.197C117.621 480.044 121.212 473.154 125.775 466.844C126.579 465.851 127.458 464.878 128.394 463.998C122.988 468.716 118.051 477.329 113.862 486.635C112.066 485.25 109.878 483.714 107.316 482.179C109.841 476.674 112.59 471.3 115.825 466.188C116.087 465.833 116.386 465.477 116.686 465.121C113.768 467.836 112.01 472.124 110.009 475.419C108.905 477.554 107.858 479.726 106.792 481.879C102.434 479.333 97.0853 476.861 90.9696 475.382C83.582 473.584 74.9788 467.892 68.9753 463.38C71.3505 455.01 73.4826 446.528 74.0998 437.858C74.0998 436.211 74.1559 434.526 73.5761 432.953C74.0998 434.544 74.025 436.229 73.9689 437.858C73.1647 446.415 70.883 454.71 68.3394 462.912C64.2622 459.785 61.5129 457.332 61.5129 457.332C61.5129 457.332 50.3662 450.572 42.3989 448.176C40.8278 447.707 39.5 446.64 38.7893 445.18L24.463 415.801C24.463 415.801 12.2315 402.938 3.94625 419.321C1.34659 425.65 0 432.391 0 439.207V654.592C0 654.592 8.71542 653.656 12.1193 645.567C12.1193 645.567 27.6612 662.999 43.521 649.312C43.521 649.312 50.0856 652.719 58.3148 652.382C59.2312 660.041 58.5766 668.148 56.7625 675.75C53.8823 689.119 48.5894 701.814 42.5859 714.079C47.7665 703.949 52.4609 693.482 55.6777 682.528C58.7637 672.904 60.3347 662.25 59.3621 652.326C60.6526 652.214 61.9805 652.008 63.3271 651.69C69.1623 671.182 67.0489 694.287 63.4019 713.012L60.6152 724.995L63.645 713.068C67.6848 694.231 70.2097 671.088 64.6924 651.334C65.9268 650.959 67.1611 650.473 68.3955 649.855C68.8631 651.203 69.3119 652.532 69.7234 653.88C75.9514 674.009 77.8403 695.411 76.8304 716.401C76.5873 720.614 76.1758 724.827 75.8579 729.04C76.2506 724.827 76.7556 720.632 77.0735 716.419C78.4201 693.932 76.8865 670.62 69.7234 649.143C70.3967 648.75 71.07 648.301 71.7433 647.814C76.2319 653.506 80.0847 659.816 83.4324 666.295C93.5505 685.918 99.0678 707.844 100.957 729.789C101.312 734.207 101.424 738.626 101.667 743.064C101.499 738.645 101.48 734.207 101.2 729.77C99.0678 700.541 90.8761 670.47 73.1273 646.746C73.7445 646.241 74.3617 645.698 74.9601 645.099C75.1472 644.911 75.3155 644.705 75.4838 644.499C79.7667 649.873 83.8626 655.434 87.8275 661.089C101.911 681.517 114.853 703.331 121.249 727.504C113.301 696.328 95.7575 668.56 76.5686 643.058C77.1109 642.178 77.5411 641.241 77.8777 640.249C77.9151 640.137 77.9526 640.024 77.99 639.912C83.2267 643.694 88.2016 647.963 92.8586 652.513C109.074 668.373 122.053 689.119 123.419 712.263C122.016 682.023 102.042 656.034 78.6633 638.189C79.0373 637.347 79.5236 636.448 80.1221 635.531C95.8697 634.838 111.692 642.234 124.204 651.446C135.837 660.322 146.348 671.013 159.215 678.297C162.47 680.001 169.67 684.232 172.85 681.124C169.633 684.157 162.582 679.851 159.346 678.091C146.572 670.564 136.361 659.835 124.784 650.697C112.496 641.373 97.104 633.827 81.4499 633.827C83.1145 631.936 85.4149 630.288 88.5943 629.483C109.167 632.628 128.599 643.432 141.448 659.966C129.684 644.069 112.047 633.171 92.896 628.809C96.6926 628.116 100.957 626.225 104.978 623.959C117.06 617.2 126.692 606.695 132.564 594.15C135.257 588.402 137.726 581.623 139.054 574.246C143 552.451 147.769 549.137 147.769 549.137C147.769 549.137 154.484 543.95 159.197 537.94C165.93 538.745 172.588 540.037 179.059 542.134C180.312 542.621 181.565 543.182 182.743 543.875C177.451 540.542 168.997 538.483 159.795 537.191C162.021 534.195 163.667 531.068 163.704 528.278L163.723 528.184Z" fill="#231F20"/>
<path d="M116.705 465.121C117.247 464.615 117.827 464.128 118.482 463.754C117.771 464.053 117.21 464.559 116.705 465.121Z" fill="#231F20"/>
<path d="M128.412 463.998C128.618 463.829 128.824 463.642 129.011 463.492C128.805 463.661 128.599 463.829 128.412 463.998Z" fill="#231F20"/>
<path d="M129.029 463.492C129.16 463.38 129.31 463.268 129.459 463.155C129.31 463.268 129.179 463.38 129.029 463.492Z" fill="#231F20"/>
<path d="M130.562 462.35C130.974 462.069 131.404 461.807 131.853 461.582C131.423 461.807 130.993 462.069 130.562 462.35Z" fill="#231F20"/>
<path d="M129.441 463.136C129.815 462.855 130.19 462.574 130.545 462.331C130.152 462.574 129.797 462.855 129.441 463.136Z" fill="#231F20"/>
<path d="M188.316 534.363C188.896 534.756 189.476 535.187 190 535.674C189.513 535.131 188.934 534.719 188.316 534.363Z" fill="#231F20"/>
<path d="M185.023 545.448C185.416 545.804 185.809 546.16 186.146 546.572C185.809 546.178 185.416 545.823 185.023 545.448Z" fill="#231F20"/>
<path d="M185.026 545.448C184.708 545.167 184.372 544.886 184.035 544.643C184.391 544.905 184.727 545.167 185.026 545.448Z" fill="#231F20"/>
<path d="M184.036 544.643C183.886 544.531 183.736 544.437 183.605 544.344C183.755 544.437 183.905 544.55 184.036 544.643Z" fill="#231F20"/>
<path d="M183.585 544.344C183.304 544.157 183.042 543.969 182.762 543.801C183.042 543.988 183.323 544.157 183.585 544.344Z" fill="#231F20"/>
<path d="M22.182 543.876C22.182 543.876 10.6611 543.689 12.0638 563.592C12.1386 564.641 13.2047 565.334 14.1585 564.922C16.4028 563.93 20.3304 561.158 24.258 553.444C24.258 553.444 19.6945 548.875 25.0809 547.433C25.0809 547.433 31.7951 549.568 33.5719 555.522C34.8249 559.679 36.6765 569.846 19.8815 571.925C8.82828 573.292 4.43316 564.772 2.71252 558.78C1.38464 554.193 2.15144 549.119 5.29348 545.542C8.2298 542.191 13.3543 539.869 22.1633 543.913L22.182 543.876Z" fill="white"/>
<path d="M91.0074 570.651C91.0074 570.651 80.9828 583.327 84.2557 590.367C84.9477 591.865 86.8928 592.352 88.1833 591.322C89.8291 590.012 92.2231 586.941 95.3464 579.994C95.3464 579.994 91.6059 575.219 97.0109 574.808C97.0109 574.808 97.0109 571.905 95.1407 570.651C95.1407 570.651 107.578 574.396 105.09 585.387C102.603 596.378 89.96 596.809 89.96 596.809C89.96 596.809 80.216 597.857 75.4281 590.967C72.8658 587.297 73.0716 582.447 75.5403 578.702C78.2335 574.658 83.1523 569.771 90.9887 570.651H91.0074Z" fill="white"/>
<rect x="368" y="562" width="22" height="35" fill="#E0919D"/>
</svg>
