<svg width="390" height="463" viewBox="0 0 390 463" fill="none" xmlns="http://www.w3.org/2000/svg">
<path d="M174.584 154.48V156.13H169.524V169H167.764V156.13H162.704V154.48H174.584ZM177.334 169V152.94H179.094V159.65C179.475 158.99 179.981 158.513 180.612 158.22C181.242 157.927 181.932 157.78 182.68 157.78C183.472 157.78 184.19 157.934 184.836 158.242C185.481 158.535 185.994 158.99 186.376 159.606C186.772 160.222 186.97 161.007 186.97 161.96V169H185.21V162.576C185.21 161.359 184.946 160.515 184.418 160.046C183.904 159.562 183.266 159.32 182.504 159.32C181.976 159.32 181.448 159.445 180.92 159.694C180.392 159.943 179.952 160.354 179.6 160.926C179.262 161.483 179.094 162.231 179.094 163.17V169H177.334ZM195.993 169.22C194.951 169.22 194.02 168.993 193.199 168.538C192.392 168.083 191.761 167.431 191.307 166.58C190.852 165.715 190.625 164.688 190.625 163.5C190.625 162.312 190.852 161.293 191.307 160.442C191.761 159.577 192.385 158.917 193.177 158.462C193.969 158.007 194.871 157.78 195.883 157.78C196.909 157.78 197.782 158 198.501 158.44C199.234 158.88 199.791 159.481 200.173 160.244C200.554 160.992 200.745 161.835 200.745 162.774C200.745 163.023 200.737 163.251 200.723 163.456C200.708 163.661 200.686 163.845 200.657 164.006H191.769V162.444H199.887L198.985 162.62C198.985 161.564 198.691 160.75 198.105 160.178C197.533 159.606 196.777 159.32 195.839 159.32C195.12 159.32 194.497 159.489 193.969 159.826C193.455 160.149 193.052 160.625 192.759 161.256C192.48 161.872 192.341 162.62 192.341 163.5C192.341 164.365 192.487 165.113 192.781 165.744C193.074 166.375 193.485 166.859 194.013 167.196C194.555 167.519 195.201 167.68 195.949 167.68C196.755 167.68 197.408 167.526 197.907 167.218C198.42 166.91 198.831 166.492 199.139 165.964L200.525 166.778C200.246 167.277 199.887 167.709 199.447 168.076C199.021 168.443 198.515 168.729 197.929 168.934C197.357 169.125 196.711 169.22 195.993 169.22ZM214.142 152.94V166.206C214.142 166.763 214.245 167.152 214.45 167.372C214.655 167.577 214.985 167.68 215.44 167.68C215.733 167.68 215.975 167.658 216.166 167.614C216.357 167.57 216.613 167.489 216.936 167.372L216.65 168.912C216.415 169.015 216.159 169.088 215.88 169.132C215.601 169.191 215.315 169.22 215.022 169.22C214.127 169.22 213.46 168.978 213.02 168.494C212.595 168.01 212.382 167.269 212.382 166.272V152.94H214.142ZM224.233 169.22C223.191 169.22 222.26 168.993 221.439 168.538C220.632 168.083 220.001 167.431 219.547 166.58C219.092 165.715 218.865 164.688 218.865 163.5C218.865 162.312 219.092 161.293 219.547 160.442C220.001 159.577 220.625 158.917 221.417 158.462C222.209 158.007 223.111 157.78 224.123 157.78C225.149 157.78 226.022 158 226.741 158.44C227.474 158.88 228.031 159.481 228.413 160.244C228.794 160.992 228.985 161.835 228.985 162.774C228.985 163.023 228.977 163.251 228.963 163.456C228.948 163.661 228.926 163.845 228.897 164.006H220.009V162.444H228.127L227.225 162.62C227.225 161.564 226.931 160.75 226.345 160.178C225.773 159.606 225.017 159.32 224.079 159.32C223.36 159.32 222.737 159.489 222.209 159.826C221.695 160.149 221.292 160.625 220.999 161.256C220.72 161.872 220.581 162.62 220.581 163.5C220.581 164.365 220.727 165.113 221.021 165.744C221.314 166.375 221.725 166.859 222.253 167.196C222.795 167.519 223.441 167.68 224.189 167.68C224.995 167.68 225.648 167.526 226.147 167.218C226.66 166.91 227.071 166.492 227.379 165.964L228.765 166.778C228.486 167.277 228.127 167.709 227.687 168.076C227.261 168.443 226.755 168.729 226.169 168.934C225.597 169.125 224.951 169.22 224.233 169.22ZM236.732 169.22C235.661 169.22 234.671 168.993 233.762 168.538C232.867 168.083 232.178 167.438 231.694 166.602L233.19 165.524C233.513 166.199 233.982 166.727 234.598 167.108C235.229 167.489 235.984 167.68 236.864 167.68C237.641 167.68 238.25 167.533 238.69 167.24C239.13 166.932 239.35 166.536 239.35 166.052C239.35 165.744 239.247 165.465 239.042 165.216C238.851 164.952 238.477 164.761 237.92 164.644L235.28 164.094C234.209 163.874 233.439 163.507 232.97 162.994C232.515 162.481 232.288 161.843 232.288 161.08C232.288 160.479 232.457 159.929 232.794 159.43C233.146 158.931 233.637 158.535 234.268 158.242C234.913 157.934 235.669 157.78 236.534 157.78C237.619 157.78 238.536 157.993 239.284 158.418C240.032 158.843 240.589 159.445 240.956 160.222L239.482 161.19C239.233 160.545 238.829 160.075 238.272 159.782C237.715 159.474 237.135 159.32 236.534 159.32C236.006 159.32 235.551 159.393 235.17 159.54C234.803 159.687 234.517 159.892 234.312 160.156C234.121 160.405 234.026 160.691 234.026 161.014C234.026 161.337 234.136 161.637 234.356 161.916C234.576 162.18 234.987 162.371 235.588 162.488L238.338 163.06C239.365 163.265 240.083 163.603 240.494 164.072C240.905 164.541 241.11 165.113 241.11 165.788C241.11 166.477 240.927 167.086 240.56 167.614C240.193 168.127 239.68 168.523 239.02 168.802C238.36 169.081 237.597 169.22 236.732 169.22ZM248.774 169.22C247.703 169.22 246.713 168.993 245.804 168.538C244.909 168.083 244.22 167.438 243.736 166.602L245.232 165.524C245.554 166.199 246.024 166.727 246.64 167.108C247.27 167.489 248.026 167.68 248.906 167.68C249.683 167.68 250.292 167.533 250.732 167.24C251.172 166.932 251.392 166.536 251.392 166.052C251.392 165.744 251.289 165.465 251.084 165.216C250.893 164.952 250.519 164.761 249.962 164.644L247.322 164.094C246.251 163.874 245.481 163.507 245.012 162.994C244.557 162.481 244.33 161.843 244.33 161.08C244.33 160.479 244.498 159.929 244.836 159.43C245.188 158.931 245.679 158.535 246.31 158.242C246.955 157.934 247.71 157.78 248.576 157.78C249.661 157.78 250.578 157.993 251.326 158.418C252.074 158.843 252.631 159.445 252.998 160.222L251.524 161.19C251.274 160.545 250.871 160.075 250.314 159.782C249.756 159.474 249.177 159.32 248.576 159.32C248.048 159.32 247.593 159.393 247.212 159.54C246.845 159.687 246.559 159.892 246.354 160.156C246.163 160.405 246.068 160.691 246.068 161.014C246.068 161.337 246.178 161.637 246.398 161.916C246.618 162.18 247.028 162.371 247.63 162.488L250.38 163.06C251.406 163.265 252.125 163.603 252.536 164.072C252.946 164.541 253.152 165.113 253.152 165.788C253.152 166.477 252.968 167.086 252.602 167.614C252.235 168.127 251.722 168.523 251.062 168.802C250.402 169.081 249.639 169.22 248.774 169.22ZM164.926 185.888C164.53 185.888 164.207 185.771 163.958 185.536C163.723 185.287 163.606 184.964 163.606 184.568C163.606 184.172 163.723 183.857 163.958 183.622C164.207 183.373 164.53 183.248 164.926 183.248C165.322 183.248 165.637 183.373 165.872 183.622C166.121 183.857 166.246 184.172 166.246 184.568C166.246 184.964 166.121 185.287 165.872 185.536C165.637 185.771 165.322 185.888 164.926 185.888ZM165.806 188V199H164.046V188H165.806ZM170.33 199V188H171.87L172.024 190.464L171.738 190.222C171.972 189.635 172.288 189.166 172.684 188.814C173.08 188.447 173.534 188.183 174.048 188.022C174.576 187.861 175.118 187.78 175.676 187.78C176.468 187.78 177.186 187.934 177.832 188.242C178.477 188.535 178.99 188.99 179.372 189.606C179.768 190.222 179.966 191.007 179.966 191.96V199H178.206V192.576C178.206 191.359 177.942 190.515 177.414 190.046C176.9 189.562 176.262 189.32 175.5 189.32C174.972 189.32 174.444 189.445 173.916 189.694C173.388 189.943 172.948 190.347 172.596 190.904C172.258 191.461 172.09 192.209 172.09 193.148V199H170.33ZM188.706 182.83C189.088 182.83 189.447 182.874 189.784 182.962C190.122 183.05 190.386 183.175 190.576 183.336L190.114 184.766C189.938 184.649 189.748 184.568 189.542 184.524C189.337 184.465 189.11 184.436 188.86 184.436C188.23 184.436 187.738 184.59 187.386 184.898C187.034 185.191 186.858 185.668 186.858 186.328V188V188.572V199H185.098V186.152C185.098 185.668 185.172 185.221 185.318 184.81C185.465 184.399 185.685 184.047 185.978 183.754C186.286 183.461 186.668 183.233 187.122 183.072C187.577 182.911 188.105 182.83 188.706 182.83ZM190.532 188V189.518H182.898V188H190.532ZM197.57 187.78C198.612 187.78 199.528 188.007 200.32 188.462C201.127 188.917 201.758 189.577 202.212 190.442C202.667 191.293 202.894 192.312 202.894 193.5C202.894 194.688 202.667 195.715 202.212 196.58C201.758 197.431 201.127 198.083 200.32 198.538C199.528 198.993 198.612 199.22 197.57 199.22C196.544 199.22 195.627 198.993 194.82 198.538C194.014 198.083 193.383 197.431 192.928 196.58C192.474 195.715 192.246 194.688 192.246 193.5C192.246 192.312 192.474 191.293 192.928 190.442C193.383 189.577 194.014 188.917 194.82 188.462C195.627 188.007 196.544 187.78 197.57 187.78ZM197.57 189.298C196.822 189.298 196.184 189.467 195.656 189.804C195.128 190.141 194.718 190.625 194.424 191.256C194.146 191.872 194.006 192.62 194.006 193.5C194.006 194.365 194.146 195.113 194.424 195.744C194.718 196.375 195.128 196.859 195.656 197.196C196.184 197.533 196.822 197.702 197.57 197.702C198.318 197.702 198.956 197.533 199.484 197.196C200.012 196.859 200.416 196.375 200.694 195.744C200.988 195.113 201.134 194.365 201.134 193.5C201.134 192.62 200.988 191.872 200.694 191.256C200.416 190.625 200.012 190.141 199.484 189.804C198.956 189.467 198.318 189.298 197.57 189.298ZM206.648 199V188H208.078L208.32 189.804C208.628 189.129 209.075 188.623 209.662 188.286C210.263 187.949 210.989 187.78 211.84 187.78C212.03 187.78 212.236 187.795 212.456 187.824C212.69 187.853 212.888 187.912 213.05 188L212.742 189.606C212.58 189.547 212.404 189.503 212.214 189.474C212.023 189.445 211.752 189.43 211.4 189.43C210.945 189.43 210.483 189.562 210.014 189.826C209.559 190.09 209.178 190.493 208.87 191.036C208.562 191.564 208.408 192.239 208.408 193.06V199H206.648ZM216.068 199V188H217.608L217.718 189.716C218.114 189.041 218.628 188.55 219.258 188.242C219.904 187.934 220.564 187.78 221.238 187.78C222.016 187.78 222.749 187.956 223.438 188.308C224.128 188.66 224.656 189.203 225.022 189.936C225.257 189.437 225.587 189.034 226.012 188.726C226.438 188.403 226.9 188.169 227.398 188.022C227.912 187.861 228.396 187.78 228.85 187.78C229.554 187.78 230.222 187.927 230.852 188.22C231.498 188.513 232.026 188.968 232.436 189.584C232.847 190.2 233.052 190.992 233.052 191.96V199H231.292V192.136C231.292 191.139 231.043 190.42 230.544 189.98C230.046 189.54 229.43 189.32 228.696 189.32C228.124 189.32 227.589 189.459 227.09 189.738C226.592 190.017 226.188 190.427 225.88 190.97C225.587 191.513 225.44 192.18 225.44 192.972V199H223.68V192.136C223.68 191.139 223.431 190.42 222.932 189.98C222.434 189.54 221.818 189.32 221.084 189.32C220.6 189.32 220.102 189.452 219.588 189.716C219.09 189.965 218.672 190.369 218.334 190.926C217.997 191.483 217.828 192.217 217.828 193.126V199H216.068ZM243.901 191.894C243.901 191.073 243.681 190.442 243.241 190.002C242.801 189.547 242.178 189.32 241.371 189.32C240.608 189.32 239.963 189.489 239.435 189.826C238.907 190.149 238.518 190.677 238.269 191.41L236.839 190.53C237.132 189.709 237.675 189.049 238.467 188.55C239.259 188.037 240.242 187.78 241.415 187.78C242.207 187.78 242.926 187.919 243.571 188.198C244.216 188.462 244.722 188.873 245.089 189.43C245.47 189.973 245.661 190.677 245.661 191.542V196.866C245.661 197.394 245.94 197.658 246.497 197.658C246.776 197.658 247.047 197.621 247.311 197.548L247.223 198.934C246.93 199.081 246.548 199.154 246.079 199.154C245.654 199.154 245.272 199.073 244.935 198.912C244.598 198.751 244.334 198.509 244.143 198.186C243.952 197.849 243.857 197.431 243.857 196.932V196.712L244.297 196.778C244.121 197.35 243.82 197.819 243.395 198.186C242.97 198.538 242.493 198.802 241.965 198.978C241.437 199.139 240.916 199.22 240.403 199.22C239.758 199.22 239.156 199.11 238.599 198.89C238.042 198.67 237.594 198.34 237.257 197.9C236.934 197.445 236.773 196.888 236.773 196.228C236.773 195.407 237.044 194.732 237.587 194.204C238.144 193.661 238.914 193.295 239.897 193.104L244.253 192.246V193.698L240.711 194.424C239.992 194.571 239.457 194.776 239.105 195.04C238.753 195.304 238.577 195.671 238.577 196.14C238.577 196.595 238.753 196.969 239.105 197.262C239.472 197.541 239.985 197.68 240.645 197.68C241.07 197.68 241.474 197.629 241.855 197.526C242.251 197.409 242.603 197.24 242.911 197.02C243.219 196.785 243.461 196.499 243.637 196.162C243.813 195.81 243.901 195.399 243.901 194.93V191.894ZM252.544 184.876V195.964C252.544 196.507 252.698 196.91 253.006 197.174C253.314 197.438 253.71 197.57 254.194 197.57C254.62 197.57 254.986 197.497 255.294 197.35C255.602 197.203 255.881 197.005 256.13 196.756L256.746 198.23C256.409 198.538 256.006 198.78 255.536 198.956C255.082 199.132 254.554 199.22 253.952 199.22C253.395 199.22 252.874 199.125 252.39 198.934C251.906 198.729 251.518 198.413 251.224 197.988C250.946 197.548 250.799 196.976 250.784 196.272V185.36L252.544 184.876ZM256.548 188V189.518H248.584V188H256.548ZM260.485 185.888C260.089 185.888 259.766 185.771 259.517 185.536C259.282 185.287 259.165 184.964 259.165 184.568C259.165 184.172 259.282 183.857 259.517 183.622C259.766 183.373 260.089 183.248 260.485 183.248C260.881 183.248 261.196 183.373 261.431 183.622C261.68 183.857 261.805 184.172 261.805 184.568C261.805 184.964 261.68 185.287 261.431 185.536C261.196 185.771 260.881 185.888 260.485 185.888ZM261.365 188V199H259.605V188H261.365ZM270.443 187.78C271.484 187.78 272.401 188.007 273.193 188.462C273.999 188.917 274.63 189.577 275.085 190.442C275.539 191.293 275.767 192.312 275.767 193.5C275.767 194.688 275.539 195.715 275.085 196.58C274.63 197.431 273.999 198.083 273.193 198.538C272.401 198.993 271.484 199.22 270.443 199.22C269.416 199.22 268.499 198.993 267.693 198.538C266.886 198.083 266.255 197.431 265.801 196.58C265.346 195.715 265.119 194.688 265.119 193.5C265.119 192.312 265.346 191.293 265.801 190.442C266.255 189.577 266.886 188.917 267.693 188.462C268.499 188.007 269.416 187.78 270.443 187.78ZM270.443 189.298C269.695 189.298 269.057 189.467 268.529 189.804C268.001 190.141 267.59 190.625 267.297 191.256C267.018 191.872 266.879 192.62 266.879 193.5C266.879 194.365 267.018 195.113 267.297 195.744C267.59 196.375 268.001 196.859 268.529 197.196C269.057 197.533 269.695 197.702 270.443 197.702C271.191 197.702 271.829 197.533 272.357 197.196C272.885 196.859 273.288 196.375 273.567 195.744C273.86 195.113 274.007 194.365 274.007 193.5C274.007 192.62 273.86 191.872 273.567 191.256C273.288 190.625 272.885 190.141 272.357 189.804C271.829 189.467 271.191 189.298 270.443 189.298ZM279.52 199V188H281.06L281.214 190.464L280.928 190.222C281.163 189.635 281.478 189.166 281.874 188.814C282.27 188.447 282.725 188.183 283.238 188.022C283.766 187.861 284.309 187.78 284.866 187.78C285.658 187.78 286.377 187.934 287.022 188.242C287.668 188.535 288.181 188.99 288.562 189.606C288.958 190.222 289.156 191.007 289.156 191.96V199H287.396V192.576C287.396 191.359 287.132 190.515 286.604 190.046C286.091 189.562 285.453 189.32 284.69 189.32C284.162 189.32 283.634 189.445 283.106 189.694C282.578 189.943 282.138 190.347 281.786 190.904C281.449 191.461 281.28 192.209 281.28 193.148V199H279.52ZM166.642 214.876V225.964C166.642 226.507 166.796 226.91 167.104 227.174C167.412 227.438 167.808 227.57 168.292 227.57C168.717 227.57 169.084 227.497 169.392 227.35C169.7 227.203 169.979 227.005 170.228 226.756L170.844 228.23C170.507 228.538 170.103 228.78 169.634 228.956C169.179 229.132 168.651 229.22 168.05 229.22C167.493 229.22 166.972 229.125 166.488 228.934C166.004 228.729 165.615 228.413 165.322 227.988C165.043 227.548 164.897 226.976 164.882 226.272V215.36L166.642 214.876ZM170.646 218V219.518H162.682V218H170.646ZM173.703 229V212.94H175.463V219.65C175.844 218.99 176.35 218.513 176.981 218.22C177.611 217.927 178.301 217.78 179.049 217.78C179.841 217.78 180.559 217.934 181.205 218.242C181.85 218.535 182.363 218.99 182.745 219.606C183.141 220.222 183.339 221.007 183.339 221.96V229H181.579V222.576C181.579 221.359 181.315 220.515 180.787 220.046C180.273 219.562 179.635 219.32 178.873 219.32C178.345 219.32 177.817 219.445 177.289 219.694C176.761 219.943 176.321 220.354 175.969 220.926C175.631 221.483 175.463 222.231 175.463 223.17V229H173.703ZM194.188 221.894C194.188 221.073 193.968 220.442 193.528 220.002C193.088 219.547 192.465 219.32 191.658 219.32C190.895 219.32 190.25 219.489 189.722 219.826C189.194 220.149 188.805 220.677 188.556 221.41L187.126 220.53C187.419 219.709 187.962 219.049 188.754 218.55C189.546 218.037 190.529 217.78 191.702 217.78C192.494 217.78 193.213 217.919 193.858 218.198C194.503 218.462 195.009 218.873 195.376 219.43C195.757 219.973 195.948 220.677 195.948 221.542V226.866C195.948 227.394 196.227 227.658 196.784 227.658C197.063 227.658 197.334 227.621 197.598 227.548L197.51 228.934C197.217 229.081 196.835 229.154 196.366 229.154C195.941 229.154 195.559 229.073 195.222 228.912C194.885 228.751 194.621 228.509 194.43 228.186C194.239 227.849 194.144 227.431 194.144 226.932V226.712L194.584 226.778C194.408 227.35 194.107 227.819 193.682 228.186C193.257 228.538 192.78 228.802 192.252 228.978C191.724 229.139 191.203 229.22 190.69 229.22C190.045 229.22 189.443 229.11 188.886 228.89C188.329 228.67 187.881 228.34 187.544 227.9C187.221 227.445 187.06 226.888 187.06 226.228C187.06 225.407 187.331 224.732 187.874 224.204C188.431 223.661 189.201 223.295 190.184 223.104L194.54 222.246V223.698L190.998 224.424C190.279 224.571 189.744 224.776 189.392 225.04C189.04 225.304 188.864 225.671 188.864 226.14C188.864 226.595 189.04 226.969 189.392 227.262C189.759 227.541 190.272 227.68 190.932 227.68C191.357 227.68 191.761 227.629 192.142 227.526C192.538 227.409 192.89 227.24 193.198 227.02C193.506 226.785 193.748 226.499 193.924 226.162C194.1 225.81 194.188 225.399 194.188 224.93V221.894ZM202.831 214.876V225.964C202.831 226.507 202.985 226.91 203.293 227.174C203.601 227.438 203.997 227.57 204.481 227.57C204.906 227.57 205.273 227.497 205.581 227.35C205.889 227.203 206.168 227.005 206.417 226.756L207.033 228.23C206.696 228.538 206.292 228.78 205.823 228.956C205.368 229.132 204.84 229.22 204.239 229.22C203.682 229.22 203.161 229.125 202.677 228.934C202.193 228.729 201.804 228.413 201.511 227.988C201.232 227.548 201.086 226.976 201.071 226.272V215.36L202.831 214.876ZM206.835 218V219.518H198.871V218H206.835ZM218.71 215.888C218.314 215.888 217.991 215.771 217.742 215.536C217.507 215.287 217.39 214.964 217.39 214.568C217.39 214.172 217.507 213.857 217.742 213.622C217.991 213.373 218.314 213.248 218.71 213.248C219.106 213.248 219.421 213.373 219.656 213.622C219.905 213.857 220.03 214.172 220.03 214.568C220.03 214.964 219.905 215.287 219.656 215.536C219.421 215.771 219.106 215.888 218.71 215.888ZM219.59 218V229H217.83V218H219.59ZM228.074 229.22C227.003 229.22 226.013 228.993 225.104 228.538C224.209 228.083 223.52 227.438 223.036 226.602L224.532 225.524C224.854 226.199 225.324 226.727 225.94 227.108C226.57 227.489 227.326 227.68 228.206 227.68C228.983 227.68 229.592 227.533 230.032 227.24C230.472 226.932 230.692 226.536 230.692 226.052C230.692 225.744 230.589 225.465 230.384 225.216C230.193 224.952 229.819 224.761 229.262 224.644L226.622 224.094C225.551 223.874 224.781 223.507 224.312 222.994C223.857 222.481 223.63 221.843 223.63 221.08C223.63 220.479 223.798 219.929 224.136 219.43C224.488 218.931 224.979 218.535 225.61 218.242C226.255 217.934 227.01 217.78 227.876 217.78C228.961 217.78 229.878 217.993 230.626 218.418C231.374 218.843 231.931 219.445 232.298 220.222L230.824 221.19C230.574 220.545 230.171 220.075 229.614 219.782C229.056 219.474 228.477 219.32 227.876 219.32C227.348 219.32 226.893 219.393 226.512 219.54C226.145 219.687 225.859 219.892 225.654 220.156C225.463 220.405 225.368 220.691 225.368 221.014C225.368 221.337 225.478 221.637 225.698 221.916C225.918 222.18 226.328 222.371 226.93 222.488L229.68 223.06C230.706 223.265 231.425 223.603 231.836 224.072C232.246 224.541 232.452 225.113 232.452 225.788C232.452 226.477 232.268 227.086 231.902 227.614C231.535 228.127 231.022 228.523 230.362 228.802C229.702 229.081 228.939 229.22 228.074 229.22ZM168.6 247.78C169.363 247.78 170.03 247.897 170.602 248.132C171.189 248.367 171.695 248.704 172.12 249.144C172.545 249.584 172.89 250.105 173.154 250.706L171.482 251.498C171.247 250.794 170.888 250.259 170.404 249.892C169.935 249.511 169.319 249.32 168.556 249.32C167.823 249.32 167.192 249.489 166.664 249.826C166.136 250.149 165.733 250.625 165.454 251.256C165.175 251.872 165.036 252.62 165.036 253.5C165.036 254.365 165.175 255.113 165.454 255.744C165.733 256.375 166.136 256.859 166.664 257.196C167.192 257.519 167.823 257.68 168.556 257.68C169.128 257.68 169.619 257.592 170.03 257.416C170.455 257.24 170.8 256.983 171.064 256.646C171.343 256.309 171.533 255.898 171.636 255.414L173.264 255.986C173.015 256.661 172.67 257.24 172.23 257.724C171.805 258.208 171.284 258.582 170.668 258.846C170.067 259.095 169.377 259.22 168.6 259.22C167.573 259.22 166.657 258.993 165.85 258.538C165.043 258.083 164.413 257.431 163.958 256.58C163.503 255.715 163.276 254.688 163.276 253.5C163.276 252.312 163.503 251.293 163.958 250.442C164.413 249.577 165.043 248.917 165.85 248.462C166.657 248.007 167.573 247.78 168.6 247.78ZM181.351 247.78C182.392 247.78 183.309 248.007 184.101 248.462C184.907 248.917 185.538 249.577 185.993 250.442C186.447 251.293 186.675 252.312 186.675 253.5C186.675 254.688 186.447 255.715 185.993 256.58C185.538 257.431 184.907 258.083 184.101 258.538C183.309 258.993 182.392 259.22 181.351 259.22C180.324 259.22 179.407 258.993 178.601 258.538C177.794 258.083 177.163 257.431 176.709 256.58C176.254 255.715 176.027 254.688 176.027 253.5C176.027 252.312 176.254 251.293 176.709 250.442C177.163 249.577 177.794 248.917 178.601 248.462C179.407 248.007 180.324 247.78 181.351 247.78ZM181.351 249.298C180.603 249.298 179.965 249.467 179.437 249.804C178.909 250.141 178.498 250.625 178.205 251.256C177.926 251.872 177.787 252.62 177.787 253.5C177.787 254.365 177.926 255.113 178.205 255.744C178.498 256.375 178.909 256.859 179.437 257.196C179.965 257.533 180.603 257.702 181.351 257.702C182.099 257.702 182.737 257.533 183.265 257.196C183.793 256.859 184.196 256.375 184.475 255.744C184.768 255.113 184.915 254.365 184.915 253.5C184.915 252.62 184.768 251.872 184.475 251.256C184.196 250.625 183.793 250.141 183.265 249.804C182.737 249.467 182.099 249.298 181.351 249.298ZM192.1 242.94V256.206C192.1 256.763 192.203 257.152 192.408 257.372C192.613 257.577 192.943 257.68 193.398 257.68C193.691 257.68 193.933 257.658 194.124 257.614C194.315 257.57 194.571 257.489 194.894 257.372L194.608 258.912C194.373 259.015 194.117 259.088 193.838 259.132C193.559 259.191 193.273 259.22 192.98 259.22C192.085 259.22 191.418 258.978 190.978 258.494C190.553 258.01 190.34 257.269 190.34 256.272V242.94H192.1ZM199.265 242.94V256.206C199.265 256.763 199.367 257.152 199.573 257.372C199.778 257.577 200.108 257.68 200.563 257.68C200.856 257.68 201.098 257.658 201.289 257.614C201.479 257.57 201.736 257.489 202.059 257.372L201.773 258.912C201.538 259.015 201.281 259.088 201.003 259.132C200.724 259.191 200.438 259.22 200.145 259.22C199.25 259.22 198.583 258.978 198.143 258.494C197.717 258.01 197.505 257.269 197.505 256.272V242.94H199.265ZM209.355 259.22C208.314 259.22 207.383 258.993 206.561 258.538C205.755 258.083 205.124 257.431 204.669 256.58C204.215 255.715 203.987 254.688 203.987 253.5C203.987 252.312 204.215 251.293 204.669 250.442C205.124 249.577 205.747 248.917 206.539 248.462C207.331 248.007 208.233 247.78 209.245 247.78C210.272 247.78 211.145 248 211.863 248.44C212.597 248.88 213.154 249.481 213.535 250.244C213.917 250.992 214.107 251.835 214.107 252.774C214.107 253.023 214.1 253.251 214.085 253.456C214.071 253.661 214.049 253.845 214.019 254.006H205.131V252.444H213.249L212.347 252.62C212.347 251.564 212.054 250.75 211.467 250.178C210.895 249.606 210.14 249.32 209.201 249.32C208.483 249.32 207.859 249.489 207.331 249.826C206.818 250.149 206.415 250.625 206.121 251.256C205.843 251.872 205.703 252.62 205.703 253.5C205.703 254.365 205.85 255.113 206.143 255.744C206.437 256.375 206.847 256.859 207.375 257.196C207.918 257.519 208.563 257.68 209.311 257.68C210.118 257.68 210.771 257.526 211.269 257.218C211.783 256.91 212.193 256.492 212.501 255.964L213.887 256.778C213.609 257.277 213.249 257.709 212.809 258.076C212.384 258.443 211.878 258.729 211.291 258.934C210.719 259.125 210.074 259.22 209.355 259.22ZM222.448 247.78C223.211 247.78 223.878 247.897 224.45 248.132C225.037 248.367 225.543 248.704 225.968 249.144C226.394 249.584 226.738 250.105 227.002 250.706L225.33 251.498C225.096 250.794 224.736 250.259 224.252 249.892C223.783 249.511 223.167 249.32 222.404 249.32C221.671 249.32 221.04 249.489 220.512 249.826C219.984 250.149 219.581 250.625 219.302 251.256C219.024 251.872 218.884 252.62 218.884 253.5C218.884 254.365 219.024 255.113 219.302 255.744C219.581 256.375 219.984 256.859 220.512 257.196C221.04 257.519 221.671 257.68 222.404 257.68C222.976 257.68 223.468 257.592 223.878 257.416C224.304 257.24 224.648 256.983 224.912 256.646C225.191 256.309 225.382 255.898 225.484 255.414L227.112 255.986C226.863 256.661 226.518 257.24 226.078 257.724C225.653 258.208 225.132 258.582 224.516 258.846C223.915 259.095 223.226 259.22 222.448 259.22C221.422 259.22 220.505 258.993 219.698 258.538C218.892 258.083 218.261 257.431 217.806 256.58C217.352 255.715 217.124 254.688 217.124 253.5C217.124 252.312 217.352 251.293 217.806 250.442C218.261 249.577 218.892 248.917 219.698 248.462C220.505 248.007 221.422 247.78 222.448 247.78ZM233.241 244.876V255.964C233.241 256.507 233.395 256.91 233.703 257.174C234.011 257.438 234.407 257.57 234.891 257.57C235.316 257.57 235.683 257.497 235.991 257.35C236.299 257.203 236.578 257.005 236.827 256.756L237.443 258.23C237.106 258.538 236.702 258.78 236.233 258.956C235.778 259.132 235.25 259.22 234.649 259.22C234.092 259.22 233.571 259.125 233.087 258.934C232.603 258.729 232.214 258.413 231.921 257.988C231.642 257.548 231.496 256.976 231.481 256.272V245.36L233.241 244.876ZM237.245 248V249.518H229.281V248H237.245ZM244.9 259.22C243.858 259.22 242.927 258.993 242.106 258.538C241.299 258.083 240.668 257.431 240.214 256.58C239.759 255.715 239.532 254.688 239.532 253.5C239.532 252.312 239.759 251.293 240.214 250.442C240.668 249.577 241.292 248.917 242.084 248.462C242.876 248.007 243.778 247.78 244.79 247.78C245.816 247.78 246.689 248 247.408 248.44C248.141 248.88 248.698 249.481 249.08 250.244C249.461 250.992 249.652 251.835 249.652 252.774C249.652 253.023 249.644 253.251 249.63 253.456C249.615 253.661 249.593 253.845 249.564 254.006H240.676V252.444H248.794L247.892 252.62C247.892 251.564 247.598 250.75 247.012 250.178C246.44 249.606 245.684 249.32 244.746 249.32C244.027 249.32 243.404 249.489 242.876 249.826C242.362 250.149 241.959 250.625 241.666 251.256C241.387 251.872 241.248 252.62 241.248 253.5C241.248 254.365 241.394 255.113 241.688 255.744C241.981 256.375 242.392 256.859 242.92 257.196C243.462 257.519 244.108 257.68 244.856 257.68C245.662 257.68 246.315 257.526 246.814 257.218C247.327 256.91 247.738 256.492 248.046 255.964L249.432 256.778C249.153 257.277 248.794 257.709 248.354 258.076C247.928 258.443 247.422 258.729 246.836 258.934C246.264 259.125 245.618 259.22 244.9 259.22ZM257.729 259.22C256.82 259.22 255.984 258.993 255.221 258.538C254.458 258.083 253.85 257.431 253.395 256.58C252.94 255.715 252.713 254.688 252.713 253.5C252.713 252.283 252.955 251.249 253.439 250.398C253.923 249.547 254.561 248.902 255.353 248.462C256.145 248.007 256.996 247.78 257.905 247.78C258.814 247.78 259.599 248.015 260.259 248.484C260.934 248.953 261.381 249.577 261.601 250.354L261.381 250.508V242.94H263.141V259H261.601L261.447 256.338L261.689 256.206C261.586 256.851 261.337 257.401 260.941 257.856C260.56 258.296 260.083 258.633 259.511 258.868C258.954 259.103 258.36 259.22 257.729 259.22ZM257.905 257.68C258.609 257.68 259.218 257.504 259.731 257.152C260.259 256.8 260.662 256.301 260.941 255.656C261.234 254.996 261.381 254.226 261.381 253.346C261.381 252.51 261.234 251.791 260.941 251.19C260.662 250.589 260.266 250.127 259.753 249.804C259.254 249.481 258.668 249.32 257.993 249.32C256.878 249.32 256.013 249.701 255.397 250.464C254.781 251.227 254.473 252.239 254.473 253.5C254.473 254.761 254.774 255.773 255.375 256.536C255.976 257.299 256.82 257.68 257.905 257.68ZM282.034 251.894C282.034 251.073 281.814 250.442 281.374 250.002C280.934 249.547 280.311 249.32 279.504 249.32C278.741 249.32 278.096 249.489 277.568 249.826C277.04 250.149 276.651 250.677 276.402 251.41L274.972 250.53C275.265 249.709 275.808 249.049 276.6 248.55C277.392 248.037 278.375 247.78 279.548 247.78C280.34 247.78 281.059 247.919 281.704 248.198C282.349 248.462 282.855 248.873 283.222 249.43C283.603 249.973 283.794 250.677 283.794 251.542V256.866C283.794 257.394 284.073 257.658 284.63 257.658C284.909 257.658 285.18 257.621 285.444 257.548L285.356 258.934C285.063 259.081 284.681 259.154 284.212 259.154C283.787 259.154 283.405 259.073 283.068 258.912C282.731 258.751 282.467 258.509 282.276 258.186C282.085 257.849 281.99 257.431 281.99 256.932V256.712L282.43 256.778C282.254 257.35 281.953 257.819 281.528 258.186C281.103 258.538 280.626 258.802 280.098 258.978C279.57 259.139 279.049 259.22 278.536 259.22C277.891 259.22 277.289 259.11 276.732 258.89C276.175 258.67 275.727 258.34 275.39 257.9C275.067 257.445 274.906 256.888 274.906 256.228C274.906 255.407 275.177 254.732 275.72 254.204C276.277 253.661 277.047 253.295 278.03 253.104L282.386 252.246V253.698L278.844 254.424C278.125 254.571 277.59 254.776 277.238 255.04C276.886 255.304 276.71 255.671 276.71 256.14C276.71 256.595 276.886 256.969 277.238 257.262C277.605 257.541 278.118 257.68 278.778 257.68C279.203 257.68 279.607 257.629 279.988 257.526C280.384 257.409 280.736 257.24 281.044 257.02C281.352 256.785 281.594 256.499 281.77 256.162C281.946 255.81 282.034 255.399 282.034 254.93V251.894ZM288.511 259V248H290.051L290.205 250.464L289.919 250.222C290.154 249.635 290.469 249.166 290.865 248.814C291.261 248.447 291.716 248.183 292.229 248.022C292.757 247.861 293.3 247.78 293.857 247.78C294.649 247.78 295.368 247.934 296.013 248.242C296.658 248.535 297.172 248.99 297.553 249.606C297.949 250.222 298.147 251.007 298.147 251.96V259H296.387V252.576C296.387 251.359 296.123 250.515 295.595 250.046C295.082 249.562 294.444 249.32 293.681 249.32C293.153 249.32 292.625 249.445 292.097 249.694C291.569 249.943 291.129 250.347 290.777 250.904C290.44 251.461 290.271 252.209 290.271 253.148V259H288.511ZM306.862 259.22C305.953 259.22 305.117 258.993 304.354 258.538C303.591 258.083 302.983 257.431 302.528 256.58C302.073 255.715 301.846 254.688 301.846 253.5C301.846 252.283 302.088 251.249 302.572 250.398C303.056 249.547 303.694 248.902 304.486 248.462C305.278 248.007 306.129 247.78 307.038 247.78C307.947 247.78 308.732 248.015 309.392 248.484C310.067 248.953 310.514 249.577 310.734 250.354L310.514 250.508V242.94H312.274V259H310.734L310.58 256.338L310.822 256.206C310.719 256.851 310.47 257.401 310.074 257.856C309.693 258.296 309.216 258.633 308.644 258.868C308.087 259.103 307.493 259.22 306.862 259.22ZM307.038 257.68C307.742 257.68 308.351 257.504 308.864 257.152C309.392 256.8 309.795 256.301 310.074 255.656C310.367 254.996 310.514 254.226 310.514 253.346C310.514 252.51 310.367 251.791 310.074 251.19C309.795 250.589 309.399 250.127 308.886 249.804C308.387 249.481 307.801 249.32 307.126 249.32C306.011 249.32 305.146 249.701 304.53 250.464C303.914 251.227 303.606 252.239 303.606 253.5C303.606 254.761 303.907 255.773 304.508 256.536C305.109 257.299 305.953 257.68 307.038 257.68ZM168.006 289.22C166.935 289.22 165.945 288.993 165.036 288.538C164.141 288.083 163.452 287.438 162.968 286.602L164.464 285.524C164.787 286.199 165.256 286.727 165.872 287.108C166.503 287.489 167.258 287.68 168.138 287.68C168.915 287.68 169.524 287.533 169.964 287.24C170.404 286.932 170.624 286.536 170.624 286.052C170.624 285.744 170.521 285.465 170.316 285.216C170.125 284.952 169.751 284.761 169.194 284.644L166.554 284.094C165.483 283.874 164.713 283.507 164.244 282.994C163.789 282.481 163.562 281.843 163.562 281.08C163.562 280.479 163.731 279.929 164.068 279.43C164.42 278.931 164.911 278.535 165.542 278.242C166.187 277.934 166.943 277.78 167.808 277.78C168.893 277.78 169.81 277.993 170.558 278.418C171.306 278.843 171.863 279.445 172.23 280.222L170.756 281.19C170.507 280.545 170.103 280.075 169.546 279.782C168.989 279.474 168.409 279.32 167.808 279.32C167.28 279.32 166.825 279.393 166.444 279.54C166.077 279.687 165.791 279.892 165.586 280.156C165.395 280.405 165.3 280.691 165.3 281.014C165.3 281.337 165.41 281.637 165.63 281.916C165.85 282.18 166.261 282.371 166.862 282.488L169.612 283.06C170.639 283.265 171.357 283.603 171.768 284.072C172.179 284.541 172.384 285.113 172.384 285.788C172.384 286.477 172.201 287.086 171.834 287.614C171.467 288.127 170.954 288.523 170.294 288.802C169.634 289.081 168.871 289.22 168.006 289.22ZM178.684 274.876V285.964C178.684 286.507 178.838 286.91 179.146 287.174C179.454 287.438 179.85 287.57 180.334 287.57C180.759 287.57 181.126 287.497 181.434 287.35C181.742 287.203 182.02 287.005 182.27 286.756L182.886 288.23C182.548 288.538 182.145 288.78 181.676 288.956C181.221 289.132 180.693 289.22 180.092 289.22C179.534 289.22 179.014 289.125 178.53 288.934C178.046 288.729 177.657 288.413 177.364 287.988C177.085 287.548 176.938 286.976 176.924 286.272V275.36L178.684 274.876ZM182.688 278V279.518H174.724V278H182.688ZM190.298 277.78C191.34 277.78 192.256 278.007 193.048 278.462C193.855 278.917 194.486 279.577 194.94 280.442C195.395 281.293 195.622 282.312 195.622 283.5C195.622 284.688 195.395 285.715 194.94 286.58C194.486 287.431 193.855 288.083 193.048 288.538C192.256 288.993 191.34 289.22 190.298 289.22C189.272 289.22 188.355 288.993 187.548 288.538C186.742 288.083 186.111 287.431 185.656 286.58C185.202 285.715 184.974 284.688 184.974 283.5C184.974 282.312 185.202 281.293 185.656 280.442C186.111 279.577 186.742 278.917 187.548 278.462C188.355 278.007 189.272 277.78 190.298 277.78ZM190.298 279.298C189.55 279.298 188.912 279.467 188.384 279.804C187.856 280.141 187.446 280.625 187.152 281.256C186.874 281.872 186.734 282.62 186.734 283.5C186.734 284.365 186.874 285.113 187.152 285.744C187.446 286.375 187.856 286.859 188.384 287.196C188.912 287.533 189.55 287.702 190.298 287.702C191.046 287.702 191.684 287.533 192.212 287.196C192.74 286.859 193.144 286.375 193.422 285.744C193.716 285.113 193.862 284.365 193.862 283.5C193.862 282.62 193.716 281.872 193.422 281.256C193.144 280.625 192.74 280.141 192.212 279.804C191.684 279.467 191.046 279.298 190.298 279.298ZM199.376 289V278H200.806L201.048 279.804C201.356 279.129 201.803 278.623 202.39 278.286C202.991 277.949 203.717 277.78 204.568 277.78C204.758 277.78 204.964 277.795 205.184 277.824C205.418 277.853 205.616 277.912 205.778 278L205.47 279.606C205.308 279.547 205.132 279.503 204.942 279.474C204.751 279.445 204.48 279.43 204.128 279.43C203.673 279.43 203.211 279.562 202.742 279.826C202.287 280.09 201.906 280.493 201.598 281.036C201.29 281.564 201.136 282.239 201.136 283.06V289H199.376ZM213.05 289.22C212.009 289.22 211.078 288.993 210.256 288.538C209.45 288.083 208.819 287.431 208.364 286.58C207.91 285.715 207.682 284.688 207.682 283.5C207.682 282.312 207.91 281.293 208.364 280.442C208.819 279.577 209.442 278.917 210.234 278.462C211.026 278.007 211.928 277.78 212.94 277.78C213.967 277.78 214.84 278 215.558 278.44C216.292 278.88 216.849 279.481 217.23 280.244C217.612 280.992 217.802 281.835 217.802 282.774C217.802 283.023 217.795 283.251 217.78 283.456C217.766 283.661 217.744 283.845 217.714 284.006H208.826V282.444H216.944L216.042 282.62C216.042 281.564 215.749 280.75 215.162 280.178C214.59 279.606 213.835 279.32 212.896 279.32C212.178 279.32 211.554 279.489 211.026 279.826C210.513 280.149 210.11 280.625 209.816 281.256C209.538 281.872 209.398 282.62 209.398 283.5C209.398 284.365 209.545 285.113 209.838 285.744C210.132 286.375 210.542 286.859 211.07 287.196C211.613 287.519 212.258 287.68 213.006 287.68C213.813 287.68 214.466 287.526 214.964 287.218C215.478 286.91 215.888 286.492 216.196 285.964L217.582 286.778C217.304 287.277 216.944 287.709 216.504 288.076C216.079 288.443 215.573 288.729 214.986 288.934C214.414 289.125 213.769 289.22 213.05 289.22ZM225.88 289.22C224.97 289.22 224.134 288.993 223.372 288.538C222.609 288.083 222 287.431 221.546 286.58C221.091 285.715 220.864 284.688 220.864 283.5C220.864 282.283 221.106 281.249 221.59 280.398C222.074 279.547 222.712 278.902 223.504 278.462C224.296 278.007 225.146 277.78 226.056 277.78C226.965 277.78 227.75 278.015 228.41 278.484C229.084 278.953 229.532 279.577 229.752 280.354L229.532 280.508V272.94H231.292V289H229.752L229.598 286.338L229.84 286.206C229.737 286.851 229.488 287.401 229.092 287.856C228.71 288.296 228.234 288.633 227.662 288.868C227.104 289.103 226.51 289.22 225.88 289.22ZM226.056 287.68C226.76 287.68 227.368 287.504 227.882 287.152C228.41 286.8 228.813 286.301 229.092 285.656C229.385 284.996 229.532 284.226 229.532 283.346C229.532 282.51 229.385 281.791 229.092 281.19C228.813 280.589 228.417 280.127 227.904 279.804C227.405 279.481 226.818 279.32 226.144 279.32C225.029 279.32 224.164 279.701 223.548 280.464C222.932 281.227 222.624 282.239 222.624 283.5C222.624 284.761 222.924 285.773 223.526 286.536C224.127 287.299 224.97 287.68 226.056 287.68ZM250.185 281.894C250.185 281.073 249.965 280.442 249.525 280.002C249.085 279.547 248.461 279.32 247.655 279.32C246.892 279.32 246.247 279.489 245.719 279.826C245.191 280.149 244.802 280.677 244.553 281.41L243.123 280.53C243.416 279.709 243.959 279.049 244.751 278.55C245.543 278.037 246.525 277.78 247.699 277.78C248.491 277.78 249.209 277.919 249.855 278.198C250.5 278.462 251.006 278.873 251.373 279.43C251.754 279.973 251.945 280.677 251.945 281.542V286.866C251.945 287.394 252.223 287.658 252.781 287.658C253.059 287.658 253.331 287.621 253.595 287.548L253.507 288.934C253.213 289.081 252.832 289.154 252.363 289.154C251.937 289.154 251.556 289.073 251.219 288.912C250.881 288.751 250.617 288.509 250.427 288.186C250.236 287.849 250.141 287.431 250.141 286.932V286.712L250.581 286.778C250.405 287.35 250.104 287.819 249.679 288.186C249.253 288.538 248.777 288.802 248.249 288.978C247.721 289.139 247.2 289.22 246.687 289.22C246.041 289.22 245.44 289.11 244.883 288.89C244.325 288.67 243.878 288.34 243.541 287.9C243.218 287.445 243.057 286.888 243.057 286.228C243.057 285.407 243.328 284.732 243.871 284.204C244.428 283.661 245.198 283.295 246.181 283.104L250.537 282.246V283.698L246.995 284.424C246.276 284.571 245.741 284.776 245.389 285.04C245.037 285.304 244.861 285.671 244.861 286.14C244.861 286.595 245.037 286.969 245.389 287.262C245.755 287.541 246.269 287.68 246.929 287.68C247.354 287.68 247.757 287.629 248.139 287.526C248.535 287.409 248.887 287.24 249.195 287.02C249.503 286.785 249.745 286.499 249.921 286.162C250.097 285.81 250.185 285.399 250.185 284.93V281.894ZM262.052 289.22C261.436 289.22 260.864 289.11 260.336 288.89C259.808 288.67 259.353 288.362 258.972 287.966C258.59 287.57 258.304 287.123 258.114 286.624L258.356 286.316L258.202 289H256.662V272.94H258.422V280.486L258.202 280.156C258.495 279.467 258.986 278.902 259.676 278.462C260.38 278.007 261.179 277.78 262.074 277.78C262.983 277.78 263.819 278.007 264.582 278.462C265.344 278.917 265.953 279.569 266.408 280.42C266.862 281.271 267.09 282.297 267.09 283.5C267.09 284.688 266.855 285.715 266.386 286.58C265.931 287.431 265.322 288.083 264.56 288.538C263.797 288.993 262.961 289.22 262.052 289.22ZM261.876 287.68C262.961 287.68 263.804 287.299 264.406 286.536C265.022 285.773 265.33 284.761 265.33 283.5C265.33 282.239 265.029 281.227 264.428 280.464C263.826 279.701 262.983 279.32 261.898 279.32C261.208 279.32 260.6 279.496 260.072 279.848C259.558 280.2 259.155 280.691 258.862 281.322C258.568 281.953 258.422 282.693 258.422 283.544C258.422 284.38 258.561 285.113 258.84 285.744C259.133 286.36 259.536 286.837 260.05 287.174C260.578 287.511 261.186 287.68 261.876 287.68ZM275.449 277.78C276.49 277.78 277.407 278.007 278.199 278.462C279.005 278.917 279.636 279.577 280.091 280.442C280.545 281.293 280.773 282.312 280.773 283.5C280.773 284.688 280.545 285.715 280.091 286.58C279.636 287.431 279.005 288.083 278.199 288.538C277.407 288.993 276.49 289.22 275.449 289.22C274.422 289.22 273.505 288.993 272.699 288.538C271.892 288.083 271.261 287.431 270.807 286.58C270.352 285.715 270.125 284.688 270.125 283.5C270.125 282.312 270.352 281.293 270.807 280.442C271.261 279.577 271.892 278.917 272.699 278.462C273.505 278.007 274.422 277.78 275.449 277.78ZM275.449 279.298C274.701 279.298 274.063 279.467 273.535 279.804C273.007 280.141 272.596 280.625 272.303 281.256C272.024 281.872 271.885 282.62 271.885 283.5C271.885 284.365 272.024 285.113 272.303 285.744C272.596 286.375 273.007 286.859 273.535 287.196C274.063 287.533 274.701 287.702 275.449 287.702C276.197 287.702 276.835 287.533 277.363 287.196C277.891 286.859 278.294 286.375 278.573 285.744C278.866 285.113 279.013 284.365 279.013 283.5C279.013 282.62 278.866 281.872 278.573 281.256C278.294 280.625 277.891 280.141 277.363 279.804C276.835 279.467 276.197 279.298 275.449 279.298ZM288.508 289.22C287.804 289.22 287.137 289.088 286.506 288.824C285.89 288.56 285.384 288.135 284.988 287.548C284.607 286.947 284.416 286.169 284.416 285.216V278H286.176V284.754C286.176 285.869 286.418 286.639 286.902 287.064C287.386 287.475 288.068 287.68 288.948 287.68C289.359 287.68 289.762 287.614 290.158 287.482C290.554 287.335 290.906 287.115 291.214 286.822C291.537 286.514 291.786 286.125 291.962 285.656C292.153 285.187 292.248 284.629 292.248 283.984V278H294.008V289H292.468L292.358 287.328C291.977 287.988 291.456 288.472 290.796 288.78C290.151 289.073 289.388 289.22 288.508 289.22ZM301.14 274.876V285.964C301.14 286.507 301.294 286.91 301.602 287.174C301.91 287.438 302.306 287.57 302.79 287.57C303.216 287.57 303.582 287.497 303.89 287.35C304.198 287.203 304.477 287.005 304.726 286.756L305.342 288.23C305.005 288.538 304.602 288.78 304.132 288.956C303.678 289.132 303.15 289.22 302.548 289.22C301.991 289.22 301.47 289.125 300.986 288.934C300.502 288.729 300.114 288.413 299.82 287.988C299.542 287.548 299.395 286.976 299.38 286.272V275.36L301.14 274.876ZM305.144 278V279.518H297.18V278H305.144ZM168.028 319.22C167.324 319.22 166.657 319.088 166.026 318.824C165.41 318.56 164.904 318.135 164.508 317.548C164.127 316.947 163.936 316.169 163.936 315.216V308H165.696V314.754C165.696 315.869 165.938 316.639 166.422 317.064C166.906 317.475 167.588 317.68 168.468 317.68C168.879 317.68 169.282 317.614 169.678 317.482C170.074 317.335 170.426 317.115 170.734 316.822C171.057 316.514 171.306 316.125 171.482 315.656C171.673 315.187 171.768 314.629 171.768 313.984V308H173.528V319H171.988L171.878 317.328C171.497 317.988 170.976 318.472 170.316 318.78C169.671 319.073 168.908 319.22 168.028 319.22ZM182.024 319.22C180.953 319.22 179.963 318.993 179.054 318.538C178.159 318.083 177.47 317.438 176.986 316.602L178.482 315.524C178.805 316.199 179.274 316.727 179.89 317.108C180.521 317.489 181.276 317.68 182.156 317.68C182.933 317.68 183.542 317.533 183.982 317.24C184.422 316.932 184.642 316.536 184.642 316.052C184.642 315.744 184.539 315.465 184.334 315.216C184.143 314.952 183.769 314.761 183.212 314.644L180.572 314.094C179.501 313.874 178.731 313.507 178.262 312.994C177.807 312.481 177.58 311.843 177.58 311.08C177.58 310.479 177.749 309.929 178.086 309.43C178.438 308.931 178.929 308.535 179.56 308.242C180.205 307.934 180.961 307.78 181.826 307.78C182.911 307.78 183.828 307.993 184.576 308.418C185.324 308.843 185.881 309.445 186.248 310.222L184.774 311.19C184.525 310.545 184.121 310.075 183.564 309.782C183.007 309.474 182.427 309.32 181.826 309.32C181.298 309.32 180.843 309.393 180.462 309.54C180.095 309.687 179.809 309.892 179.604 310.156C179.413 310.405 179.318 310.691 179.318 311.014C179.318 311.337 179.428 311.637 179.648 311.916C179.868 312.18 180.279 312.371 180.88 312.488L183.63 313.06C184.657 313.265 185.375 313.603 185.786 314.072C186.197 314.541 186.402 315.113 186.402 315.788C186.402 316.477 186.219 317.086 185.852 317.614C185.485 318.127 184.972 318.523 184.312 318.802C183.652 319.081 182.889 319.22 182.024 319.22ZM190.986 316.36C191.338 316.36 191.631 316.455 191.866 316.646C192.115 316.822 192.306 317.071 192.438 317.394C192.57 317.702 192.636 318.069 192.636 318.494C192.636 318.978 192.548 319.455 192.372 319.924C192.21 320.393 191.954 320.826 191.602 321.222C191.25 321.618 190.795 321.948 190.238 322.212L189.314 321.354C189.71 321.222 190.054 321.039 190.348 320.804C190.656 320.569 190.905 320.305 191.096 320.012C191.286 319.719 191.411 319.418 191.47 319.11L191.382 319.066C191.323 319.11 191.25 319.147 191.162 319.176C191.074 319.205 190.942 319.22 190.766 319.22C190.59 319.22 190.406 319.169 190.216 319.066C190.04 318.963 189.886 318.817 189.754 318.626C189.622 318.421 189.556 318.157 189.556 317.834C189.556 317.57 189.622 317.328 189.754 317.108C189.886 316.873 190.054 316.69 190.26 316.558C190.48 316.426 190.722 316.36 190.986 316.36ZM206.494 304.876V315.964C206.494 316.507 206.648 316.91 206.956 317.174C207.264 317.438 207.66 317.57 208.144 317.57C208.569 317.57 208.936 317.497 209.244 317.35C209.552 317.203 209.83 317.005 210.08 316.756L210.696 318.23C210.358 318.538 209.955 318.78 209.486 318.956C209.031 319.132 208.503 319.22 207.902 319.22C207.344 319.22 206.824 319.125 206.34 318.934C205.856 318.729 205.467 318.413 205.174 317.988C204.895 317.548 204.748 316.976 204.734 316.272V305.36L206.494 304.876ZM210.498 308V309.518H202.534V308H210.498ZM213.555 319V302.94H215.315V309.65C215.696 308.99 216.202 308.513 216.833 308.22C217.463 307.927 218.153 307.78 218.901 307.78C219.693 307.78 220.411 307.934 221.057 308.242C221.702 308.535 222.215 308.99 222.597 309.606C222.993 310.222 223.191 311.007 223.191 311.96V319H221.431V312.576C221.431 311.359 221.167 310.515 220.639 310.046C220.125 309.562 219.487 309.32 218.725 309.32C218.197 309.32 217.669 309.445 217.141 309.694C216.613 309.943 216.173 310.354 215.821 310.926C215.483 311.483 215.315 312.231 215.315 313.17V319H213.555ZM232.214 319.22C231.172 319.22 230.241 318.993 229.42 318.538C228.613 318.083 227.982 317.431 227.528 316.58C227.073 315.715 226.846 314.688 226.846 313.5C226.846 312.312 227.073 311.293 227.528 310.442C227.982 309.577 228.606 308.917 229.398 308.462C230.19 308.007 231.092 307.78 232.104 307.78C233.13 307.78 234.003 308 234.722 308.44C235.455 308.88 236.012 309.481 236.394 310.244C236.775 310.992 236.966 311.835 236.966 312.774C236.966 313.023 236.958 313.251 236.944 313.456C236.929 313.661 236.907 313.845 236.878 314.006H227.99V312.444H236.108L235.206 312.62C235.206 311.564 234.912 310.75 234.326 310.178C233.754 309.606 232.998 309.32 232.06 309.32C231.341 309.32 230.718 309.489 230.19 309.826C229.676 310.149 229.273 310.625 228.98 311.256C228.701 311.872 228.562 312.62 228.562 313.5C228.562 314.365 228.708 315.113 229.002 315.744C229.295 316.375 229.706 316.859 230.234 317.196C230.776 317.519 231.422 317.68 232.17 317.68C232.976 317.68 233.629 317.526 234.128 317.218C234.641 316.91 235.052 316.492 235.36 315.964L236.746 316.778C236.467 317.277 236.108 317.709 235.668 318.076C235.242 318.443 234.736 318.729 234.15 318.934C233.578 319.125 232.932 319.22 232.214 319.22ZM250.363 302.94V316.206C250.363 316.763 250.466 317.152 250.671 317.372C250.876 317.577 251.206 317.68 251.661 317.68C251.954 317.68 252.196 317.658 252.387 317.614C252.578 317.57 252.834 317.489 253.157 317.372L252.871 318.912C252.636 319.015 252.38 319.088 252.101 319.132C251.822 319.191 251.536 319.22 251.243 319.22C250.348 319.22 249.681 318.978 249.241 318.494C248.816 318.01 248.603 317.269 248.603 316.272V302.94H250.363ZM260.454 319.22C259.412 319.22 258.481 318.993 257.66 318.538C256.853 318.083 256.222 317.431 255.768 316.58C255.313 315.715 255.086 314.688 255.086 313.5C255.086 312.312 255.313 311.293 255.768 310.442C256.222 309.577 256.846 308.917 257.638 308.462C258.43 308.007 259.332 307.78 260.344 307.78C261.37 307.78 262.243 308 262.962 308.44C263.695 308.88 264.252 309.481 264.634 310.244C265.015 310.992 265.206 311.835 265.206 312.774C265.206 313.023 265.198 313.251 265.184 313.456C265.169 313.661 265.147 313.845 265.118 314.006H256.23V312.444H264.348L263.446 312.62C263.446 311.564 263.152 310.75 262.566 310.178C261.994 309.606 261.238 309.32 260.3 309.32C259.581 309.32 258.958 309.489 258.43 309.826C257.916 310.149 257.513 310.625 257.22 311.256C256.941 311.872 256.802 312.62 256.802 313.5C256.802 314.365 256.948 315.113 257.242 315.744C257.535 316.375 257.946 316.859 258.474 317.196C259.016 317.519 259.662 317.68 260.41 317.68C261.216 317.68 261.869 317.526 262.368 317.218C262.881 316.91 263.292 316.492 263.6 315.964L264.986 316.778C264.707 317.277 264.348 317.709 263.908 318.076C263.482 318.443 262.976 318.729 262.39 318.934C261.818 319.125 261.172 319.22 260.454 319.22ZM272.953 319.22C271.882 319.22 270.892 318.993 269.983 318.538C269.088 318.083 268.399 317.438 267.915 316.602L269.411 315.524C269.734 316.199 270.203 316.727 270.819 317.108C271.45 317.489 272.205 317.68 273.085 317.68C273.862 317.68 274.471 317.533 274.911 317.24C275.351 316.932 275.571 316.536 275.571 316.052C275.571 315.744 275.468 315.465 275.263 315.216C275.072 314.952 274.698 314.761 274.141 314.644L271.501 314.094C270.43 313.874 269.66 313.507 269.191 312.994C268.736 312.481 268.509 311.843 268.509 311.08C268.509 310.479 268.678 309.929 269.015 309.43C269.367 308.931 269.858 308.535 270.489 308.242C271.134 307.934 271.89 307.78 272.755 307.78C273.84 307.78 274.757 307.993 275.505 308.418C276.253 308.843 276.81 309.445 277.177 310.222L275.703 311.19C275.454 310.545 275.05 310.075 274.493 309.782C273.936 309.474 273.356 309.32 272.755 309.32C272.227 309.32 271.772 309.393 271.391 309.54C271.024 309.687 270.738 309.892 270.533 310.156C270.342 310.405 270.247 310.691 270.247 311.014C270.247 311.337 270.357 311.637 270.577 311.916C270.797 312.18 271.208 312.371 271.809 312.488L274.559 313.06C275.586 313.265 276.304 313.603 276.715 314.072C277.126 314.541 277.331 315.113 277.331 315.788C277.331 316.477 277.148 317.086 276.781 317.614C276.414 318.127 275.901 318.523 275.241 318.802C274.581 319.081 273.818 319.22 272.953 319.22ZM284.994 319.22C283.924 319.22 282.934 318.993 282.024 318.538C281.13 318.083 280.44 317.438 279.956 316.602L281.452 315.524C281.775 316.199 282.244 316.727 282.86 317.108C283.491 317.489 284.246 317.68 285.126 317.68C285.904 317.68 286.512 317.533 286.952 317.24C287.392 316.932 287.612 316.536 287.612 316.052C287.612 315.744 287.51 315.465 287.304 315.216C287.114 314.952 286.74 314.761 286.182 314.644L283.542 314.094C282.472 313.874 281.702 313.507 281.232 312.994C280.778 312.481 280.55 311.843 280.55 311.08C280.55 310.479 280.719 309.929 281.056 309.43C281.408 308.931 281.9 308.535 282.53 308.242C283.176 307.934 283.931 307.78 284.796 307.78C285.882 307.78 286.798 307.993 287.546 308.418C288.294 308.843 288.852 309.445 289.218 310.222L287.744 311.19C287.495 310.545 287.092 310.075 286.534 309.782C285.977 309.474 285.398 309.32 284.796 309.32C284.268 309.32 283.814 309.393 283.432 309.54C283.066 309.687 282.78 309.892 282.574 310.156C282.384 310.405 282.288 310.691 282.288 311.014C282.288 311.337 282.398 311.637 282.618 311.916C282.838 312.18 283.249 312.371 283.85 312.488L286.6 313.06C287.627 313.265 288.346 313.603 288.756 314.072C289.167 314.541 289.372 315.113 289.372 315.788C289.372 316.477 289.189 317.086 288.822 317.614C288.456 318.127 287.942 318.523 287.282 318.802C286.622 319.081 285.86 319.22 284.994 319.22ZM305.568 307.78C306.609 307.78 307.526 308.007 308.318 308.462C309.125 308.917 309.755 309.577 310.21 310.442C310.665 311.293 310.892 312.312 310.892 313.5C310.892 314.688 310.665 315.715 310.21 316.58C309.755 317.431 309.125 318.083 308.318 318.538C307.526 318.993 306.609 319.22 305.568 319.22C304.541 319.22 303.625 318.993 302.818 318.538C302.011 318.083 301.381 317.431 300.926 316.58C300.471 315.715 300.244 314.688 300.244 313.5C300.244 312.312 300.471 311.293 300.926 310.442C301.381 309.577 302.011 308.917 302.818 308.462C303.625 308.007 304.541 307.78 305.568 307.78ZM305.568 309.298C304.82 309.298 304.182 309.467 303.654 309.804C303.126 310.141 302.715 310.625 302.422 311.256C302.143 311.872 302.004 312.62 302.004 313.5C302.004 314.365 302.143 315.113 302.422 315.744C302.715 316.375 303.126 316.859 303.654 317.196C304.182 317.533 304.82 317.702 305.568 317.702C306.316 317.702 306.954 317.533 307.482 317.196C308.01 316.859 308.413 316.375 308.692 315.744C308.985 315.113 309.132 314.365 309.132 313.5C309.132 312.62 308.985 311.872 308.692 311.256C308.413 310.625 308.01 310.141 307.482 309.804C306.954 309.467 306.316 309.298 305.568 309.298ZM318.918 302.83C319.299 302.83 319.659 302.874 319.996 302.962C320.333 303.05 320.597 303.175 320.788 303.336L320.326 304.766C320.15 304.649 319.959 304.568 319.754 304.524C319.549 304.465 319.321 304.436 319.072 304.436C318.441 304.436 317.95 304.59 317.598 304.898C317.246 305.191 317.07 305.668 317.07 306.328V308V308.572V319H315.31V306.152C315.31 305.668 315.383 305.221 315.53 304.81C315.677 304.399 315.897 304.047 316.19 303.754C316.498 303.461 316.879 303.233 317.334 303.072C317.789 302.911 318.317 302.83 318.918 302.83ZM320.744 308V309.518H313.11V308H320.744ZM170.47 341.894C170.47 341.073 170.25 340.442 169.81 340.002C169.37 339.547 168.747 339.32 167.94 339.32C167.177 339.32 166.532 339.489 166.004 339.826C165.476 340.149 165.087 340.677 164.838 341.41L163.408 340.53C163.701 339.709 164.244 339.049 165.036 338.55C165.828 338.037 166.811 337.78 167.984 337.78C168.776 337.78 169.495 337.919 170.14 338.198C170.785 338.462 171.291 338.873 171.658 339.43C172.039 339.973 172.23 340.677 172.23 341.542V346.866C172.23 347.394 172.509 347.658 173.066 347.658C173.345 347.658 173.616 347.621 173.88 347.548L173.792 348.934C173.499 349.081 173.117 349.154 172.648 349.154C172.223 349.154 171.841 349.073 171.504 348.912C171.167 348.751 170.903 348.509 170.712 348.186C170.521 347.849 170.426 347.431 170.426 346.932V346.712L170.866 346.778C170.69 347.35 170.389 347.819 169.964 348.186C169.539 348.538 169.062 348.802 168.534 348.978C168.006 349.139 167.485 349.22 166.972 349.22C166.327 349.22 165.725 349.11 165.168 348.89C164.611 348.67 164.163 348.34 163.826 347.9C163.503 347.445 163.342 346.888 163.342 346.228C163.342 345.407 163.613 344.732 164.156 344.204C164.713 343.661 165.483 343.295 166.466 343.104L170.822 342.246V343.698L167.28 344.424C166.561 344.571 166.026 344.776 165.674 345.04C165.322 345.304 165.146 345.671 165.146 346.14C165.146 346.595 165.322 346.969 165.674 347.262C166.041 347.541 166.554 347.68 167.214 347.68C167.639 347.68 168.043 347.629 168.424 347.526C168.82 347.409 169.172 347.24 169.48 347.02C169.788 346.785 170.03 346.499 170.206 346.162C170.382 345.81 170.47 345.399 170.47 344.93V341.894ZM184.369 349V338H185.799L186.041 339.804C186.349 339.129 186.797 338.623 187.383 338.286C187.985 337.949 188.711 337.78 189.561 337.78C189.752 337.78 189.957 337.795 190.177 337.824C190.412 337.853 190.61 337.912 190.771 338L190.463 339.606C190.302 339.547 190.126 339.503 189.935 339.474C189.745 339.445 189.473 339.43 189.121 339.43C188.667 339.43 188.205 339.562 187.735 339.826C187.281 340.09 186.899 340.493 186.591 341.036C186.283 341.564 186.129 342.239 186.129 343.06V349H184.369ZM194.67 335.888C194.274 335.888 193.951 335.771 193.702 335.536C193.467 335.287 193.35 334.964 193.35 334.568C193.35 334.172 193.467 333.857 193.702 333.622C193.951 333.373 194.274 333.248 194.67 333.248C195.066 333.248 195.381 333.373 195.616 333.622C195.865 333.857 195.99 334.172 195.99 334.568C195.99 334.964 195.865 335.287 195.616 335.536C195.381 335.771 195.066 335.888 194.67 335.888ZM195.55 338V349H193.79V338H195.55ZM204.034 349.22C202.963 349.22 201.973 348.993 201.064 348.538C200.169 348.083 199.48 347.438 198.996 346.602L200.492 345.524C200.814 346.199 201.284 346.727 201.9 347.108C202.53 347.489 203.286 347.68 204.166 347.68C204.943 347.68 205.552 347.533 205.992 347.24C206.432 346.932 206.652 346.536 206.652 346.052C206.652 345.744 206.549 345.465 206.344 345.216C206.153 344.952 205.779 344.761 205.222 344.644L202.582 344.094C201.511 343.874 200.741 343.507 200.272 342.994C199.817 342.481 199.59 341.843 199.59 341.08C199.59 340.479 199.758 339.929 200.096 339.43C200.448 338.931 200.939 338.535 201.57 338.242C202.215 337.934 202.97 337.78 203.836 337.78C204.921 337.78 205.838 337.993 206.586 338.418C207.334 338.843 207.891 339.445 208.258 340.222L206.784 341.19C206.534 340.545 206.131 340.075 205.574 339.782C205.016 339.474 204.437 339.32 203.836 339.32C203.308 339.32 202.853 339.393 202.472 339.54C202.105 339.687 201.819 339.892 201.614 340.156C201.423 340.405 201.328 340.691 201.328 341.014C201.328 341.337 201.438 341.637 201.658 341.916C201.878 342.18 202.288 342.371 202.89 342.488L205.64 343.06C206.666 343.265 207.385 343.603 207.796 344.072C208.206 344.541 208.412 345.113 208.412 345.788C208.412 346.477 208.228 347.086 207.862 347.614C207.495 348.127 206.982 348.523 206.322 348.802C205.662 349.081 204.899 349.22 204.034 349.22ZM221.773 338L217.021 342.752L216.603 343.17L212.995 346.778V344.578L219.551 338H221.773ZM213.875 332.94V349H212.115V332.94H213.875ZM217.175 341.85L222.037 349H219.903L215.701 342.84L217.175 341.85ZM245.781 338H247.739L243.911 349H242.151L239.049 340.244L236.123 349H234.363L230.535 338H232.493L235.265 346.954L238.257 338H240.017L243.009 346.954L245.781 338ZM255.072 349.22C254.031 349.22 253.1 348.993 252.278 348.538C251.472 348.083 250.841 347.431 250.386 346.58C249.932 345.715 249.704 344.688 249.704 343.5C249.704 342.312 249.932 341.293 250.386 340.442C250.841 339.577 251.464 338.917 252.256 338.462C253.048 338.007 253.95 337.78 254.962 337.78C255.989 337.78 256.862 338 257.58 338.44C258.314 338.88 258.871 339.481 259.252 340.244C259.634 340.992 259.824 341.835 259.824 342.774C259.824 343.023 259.817 343.251 259.802 343.456C259.788 343.661 259.766 343.845 259.736 344.006H250.848V342.444H258.966L258.064 342.62C258.064 341.564 257.771 340.75 257.184 340.178C256.612 339.606 255.857 339.32 254.918 339.32C254.2 339.32 253.576 339.489 253.048 339.826C252.535 340.149 252.132 340.625 251.838 341.256C251.56 341.872 251.42 342.62 251.42 343.5C251.42 344.365 251.567 345.113 251.86 345.744C252.154 346.375 252.564 346.859 253.092 347.196C253.635 347.519 254.28 347.68 255.028 347.68C255.835 347.68 256.488 347.526 256.986 347.218C257.5 346.91 257.91 346.492 258.218 345.964L259.604 346.778C259.326 347.277 258.966 347.709 258.526 348.076C258.101 348.443 257.595 348.729 257.008 348.934C256.436 349.125 255.791 349.22 255.072 349.22ZM277.974 341.894C277.974 341.073 277.754 340.442 277.314 340.002C276.874 339.547 276.25 339.32 275.444 339.32C274.681 339.32 274.036 339.489 273.508 339.826C272.98 340.149 272.591 340.677 272.342 341.41L270.912 340.53C271.205 339.709 271.748 339.049 272.54 338.55C273.332 338.037 274.314 337.78 275.488 337.78C276.28 337.78 276.998 337.919 277.644 338.198C278.289 338.462 278.795 338.873 279.162 339.43C279.543 339.973 279.734 340.677 279.734 341.542V346.866C279.734 347.394 280.012 347.658 280.57 347.658C280.848 347.658 281.12 347.621 281.384 347.548L281.296 348.934C281.002 349.081 280.621 349.154 280.152 349.154C279.726 349.154 279.345 349.073 279.008 348.912C278.67 348.751 278.406 348.509 278.216 348.186C278.025 347.849 277.93 347.431 277.93 346.932V346.712L278.37 346.778C278.194 347.35 277.893 347.819 277.468 348.186C277.042 348.538 276.566 348.802 276.038 348.978C275.51 349.139 274.989 349.22 274.476 349.22C273.83 349.22 273.229 349.11 272.672 348.89C272.114 348.67 271.667 348.34 271.33 347.9C271.007 347.445 270.846 346.888 270.846 346.228C270.846 345.407 271.117 344.732 271.66 344.204C272.217 343.661 272.987 343.295 273.97 343.104L278.326 342.246V343.698L274.784 344.424C274.065 344.571 273.53 344.776 273.178 345.04C272.826 345.304 272.65 345.671 272.65 346.14C272.65 346.595 272.826 346.969 273.178 347.262C273.544 347.541 274.058 347.68 274.718 347.68C275.143 347.68 275.546 347.629 275.928 347.526C276.324 347.409 276.676 347.24 276.984 347.02C277.292 346.785 277.534 346.499 277.71 346.162C277.886 345.81 277.974 345.399 277.974 344.93V341.894ZM284.45 349V338H285.88L286.122 339.804C286.43 339.129 286.878 338.623 287.464 338.286C288.066 337.949 288.792 337.78 289.642 337.78C289.833 337.78 290.038 337.795 290.258 337.824C290.493 337.853 290.691 337.912 290.852 338L290.544 339.606C290.383 339.547 290.207 339.503 290.016 339.474C289.826 339.445 289.554 339.43 289.202 339.43C288.748 339.43 288.286 339.562 287.816 339.826C287.362 340.09 286.98 340.493 286.672 341.036C286.364 341.564 286.21 342.239 286.21 343.06V349H284.45ZM298.125 349.22C297.084 349.22 296.153 348.993 295.331 348.538C294.525 348.083 293.894 347.431 293.439 346.58C292.985 345.715 292.757 344.688 292.757 343.5C292.757 342.312 292.985 341.293 293.439 340.442C293.894 339.577 294.517 338.917 295.309 338.462C296.101 338.007 297.003 337.78 298.015 337.78C299.042 337.78 299.915 338 300.633 338.44C301.367 338.88 301.924 339.481 302.305 340.244C302.687 340.992 302.877 341.835 302.877 342.774C302.877 343.023 302.87 343.251 302.855 343.456C302.841 343.661 302.819 343.845 302.789 344.006H293.901V342.444H302.019L301.117 342.62C301.117 341.564 300.824 340.75 300.237 340.178C299.665 339.606 298.91 339.32 297.971 339.32C297.253 339.32 296.629 339.489 296.101 339.826C295.588 340.149 295.185 340.625 294.891 341.256C294.613 341.872 294.473 342.62 294.473 343.5C294.473 344.365 294.62 345.113 294.913 345.744C295.207 346.375 295.617 346.859 296.145 347.196C296.688 347.519 297.333 347.68 298.081 347.68C298.888 347.68 299.541 347.526 300.039 347.218C300.553 346.91 300.963 346.492 301.271 345.964L302.657 346.778C302.379 347.277 302.019 347.709 301.579 348.076C301.154 348.443 300.648 348.729 300.061 348.934C299.489 349.125 298.844 349.22 298.125 349.22ZM321.026 341.894C321.026 341.073 320.806 340.442 320.366 340.002C319.926 339.547 319.303 339.32 318.496 339.32C317.734 339.32 317.088 339.489 316.56 339.826C316.032 340.149 315.644 340.677 315.394 341.41L313.964 340.53C314.258 339.709 314.8 339.049 315.592 338.55C316.384 338.037 317.367 337.78 318.54 337.78C319.332 337.78 320.051 337.919 320.696 338.198C321.342 338.462 321.848 338.873 322.214 339.43C322.596 339.973 322.786 340.677 322.786 341.542V346.866C322.786 347.394 323.065 347.658 323.622 347.658C323.901 347.658 324.172 347.621 324.436 347.548L324.348 348.934C324.055 349.081 323.674 349.154 323.204 349.154C322.779 349.154 322.398 349.073 322.06 348.912C321.723 348.751 321.459 348.509 321.268 348.186C321.078 347.849 320.982 347.431 320.982 346.932V346.712L321.422 346.778C321.246 347.35 320.946 347.819 320.52 348.186C320.095 348.538 319.618 348.802 319.09 348.978C318.562 349.139 318.042 349.22 317.528 349.22C316.883 349.22 316.282 349.11 315.724 348.89C315.167 348.67 314.72 348.34 314.382 347.9C314.06 347.445 313.898 346.888 313.898 346.228C313.898 345.407 314.17 344.732 314.712 344.204C315.27 343.661 316.04 343.295 317.022 343.104L321.378 342.246V343.698L317.836 344.424C317.118 344.571 316.582 344.776 316.23 345.04C315.878 345.304 315.702 345.671 315.702 346.14C315.702 346.595 315.878 346.969 316.23 347.262C316.597 347.541 317.11 347.68 317.77 347.68C318.196 347.68 318.599 347.629 318.98 347.526C319.376 347.409 319.728 347.24 320.036 347.02C320.344 346.785 320.586 346.499 320.762 346.162C320.938 345.81 321.026 345.399 321.026 344.93V341.894ZM329.67 334.876V345.964C329.67 346.507 329.824 346.91 330.132 347.174C330.44 347.438 330.836 347.57 331.32 347.57C331.745 347.57 332.112 347.497 332.42 347.35C332.728 347.203 333.006 347.005 333.256 346.756L333.872 348.23C333.534 348.538 333.131 348.78 332.662 348.956C332.207 349.132 331.679 349.22 331.078 349.22C330.52 349.22 330 349.125 329.516 348.934C329.032 348.729 328.643 348.413 328.35 347.988C328.071 347.548 327.924 346.976 327.91 346.272V335.36L329.67 334.876ZM333.674 338V339.518H325.71V338H333.674ZM168.512 362.83C168.893 362.83 169.253 362.874 169.59 362.962C169.927 363.05 170.191 363.175 170.382 363.336L169.92 364.766C169.744 364.649 169.553 364.568 169.348 364.524C169.143 364.465 168.915 364.436 168.666 364.436C168.035 364.436 167.544 364.59 167.192 364.898C166.84 365.191 166.664 365.668 166.664 366.328V368V368.572V379H164.904V366.152C164.904 365.668 164.977 365.221 165.124 364.81C165.271 364.399 165.491 364.047 165.784 363.754C166.092 363.461 166.473 363.233 166.928 363.072C167.383 362.911 167.911 362.83 168.512 362.83ZM170.338 368V369.518H162.704V368H170.338ZM177.376 367.78C178.417 367.78 179.334 368.007 180.126 368.462C180.933 368.917 181.563 369.577 182.018 370.442C182.473 371.293 182.7 372.312 182.7 373.5C182.7 374.688 182.473 375.715 182.018 376.58C181.563 377.431 180.933 378.083 180.126 378.538C179.334 378.993 178.417 379.22 177.376 379.22C176.349 379.22 175.433 378.993 174.626 378.538C173.819 378.083 173.189 377.431 172.734 376.58C172.279 375.715 172.052 374.688 172.052 373.5C172.052 372.312 172.279 371.293 172.734 370.442C173.189 369.577 173.819 368.917 174.626 368.462C175.433 368.007 176.349 367.78 177.376 367.78ZM177.376 369.298C176.628 369.298 175.99 369.467 175.462 369.804C174.934 370.141 174.523 370.625 174.23 371.256C173.951 371.872 173.812 372.62 173.812 373.5C173.812 374.365 173.951 375.113 174.23 375.744C174.523 376.375 174.934 376.859 175.462 377.196C175.99 377.533 176.628 377.702 177.376 377.702C178.124 377.702 178.762 377.533 179.29 377.196C179.818 376.859 180.221 376.375 180.5 375.744C180.793 375.113 180.94 374.365 180.94 373.5C180.94 372.62 180.793 371.872 180.5 371.256C180.221 370.625 179.818 370.141 179.29 369.804C178.762 369.467 178.124 369.298 177.376 369.298ZM186.453 379V368H187.883L188.125 369.804C188.433 369.129 188.881 368.623 189.467 368.286C190.069 367.949 190.795 367.78 191.645 367.78C191.836 367.78 192.041 367.795 192.261 367.824C192.496 367.853 192.694 367.912 192.855 368L192.547 369.606C192.386 369.547 192.21 369.503 192.019 369.474C191.829 369.445 191.557 369.43 191.205 369.43C190.751 369.43 190.289 369.562 189.819 369.826C189.365 370.09 188.983 370.493 188.675 371.036C188.367 371.564 188.213 372.239 188.213 373.06V379H186.453ZM205.463 364.876V375.964C205.463 376.507 205.617 376.91 205.925 377.174C206.233 377.438 206.629 377.57 207.113 377.57C207.538 377.57 207.905 377.497 208.213 377.35C208.521 377.203 208.799 377.005 209.049 376.756L209.665 378.23C209.327 378.538 208.924 378.78 208.455 378.956C208 379.132 207.472 379.22 206.871 379.22C206.313 379.22 205.793 379.125 205.309 378.934C204.825 378.729 204.436 378.413 204.143 377.988C203.864 377.548 203.717 376.976 203.703 376.272V365.36L205.463 364.876ZM209.467 368V369.518H201.503V368H209.467ZM212.523 379V362.94H214.283V369.65C214.665 368.99 215.171 368.513 215.801 368.22C216.432 367.927 217.121 367.78 217.869 367.78C218.661 367.78 219.38 367.934 220.025 368.242C220.671 368.535 221.184 368.99 221.565 369.606C221.961 370.222 222.159 371.007 222.159 371.96V379H220.399V372.576C220.399 371.359 220.135 370.515 219.607 370.046C219.094 369.562 218.456 369.32 217.693 369.32C217.165 369.32 216.637 369.445 216.109 369.694C215.581 369.943 215.141 370.354 214.789 370.926C214.452 371.483 214.283 372.231 214.283 373.17V379H212.523ZM227.464 365.888C227.068 365.888 226.746 365.771 226.496 365.536C226.262 365.287 226.144 364.964 226.144 364.568C226.144 364.172 226.262 363.857 226.496 363.622C226.746 363.373 227.068 363.248 227.464 363.248C227.86 363.248 228.176 363.373 228.41 363.622C228.66 363.857 228.784 364.172 228.784 364.568C228.784 364.964 228.66 365.287 228.41 365.536C228.176 365.771 227.86 365.888 227.464 365.888ZM228.344 368V379H226.584V368H228.344ZM236.828 379.22C235.758 379.22 234.768 378.993 233.858 378.538C232.964 378.083 232.274 377.438 231.79 376.602L233.286 375.524C233.609 376.199 234.078 376.727 234.694 377.108C235.325 377.489 236.08 377.68 236.96 377.68C237.738 377.68 238.346 377.533 238.786 377.24C239.226 376.932 239.446 376.536 239.446 376.052C239.446 375.744 239.344 375.465 239.138 375.216C238.948 374.952 238.574 374.761 238.016 374.644L235.376 374.094C234.306 373.874 233.536 373.507 233.066 372.994C232.612 372.481 232.384 371.843 232.384 371.08C232.384 370.479 232.553 369.929 232.89 369.43C233.242 368.931 233.734 368.535 234.364 368.242C235.01 367.934 235.765 367.78 236.63 367.78C237.716 367.78 238.632 367.993 239.38 368.418C240.128 368.843 240.686 369.445 241.052 370.222L239.578 371.19C239.329 370.545 238.926 370.075 238.368 369.782C237.811 369.474 237.232 369.32 236.63 369.32C236.102 369.32 235.648 369.393 235.266 369.54C234.9 369.687 234.614 369.892 234.408 370.156C234.218 370.405 234.122 370.691 234.122 371.014C234.122 371.337 234.232 371.637 234.452 371.916C234.672 372.18 235.083 372.371 235.684 372.488L238.434 373.06C239.461 373.265 240.18 373.603 240.59 374.072C241.001 374.541 241.206 375.113 241.206 375.788C241.206 376.477 241.023 377.086 240.656 377.614C240.29 378.127 239.776 378.523 239.116 378.802C238.456 379.081 237.694 379.22 236.828 379.22ZM164.046 409V392.94H165.806V399.65C166.187 398.99 166.693 398.513 167.324 398.22C167.955 397.927 168.644 397.78 169.392 397.78C170.184 397.78 170.903 397.934 171.548 398.242C172.193 398.535 172.707 398.99 173.088 399.606C173.484 400.222 173.682 401.007 173.682 401.96V409H171.922V402.576C171.922 401.359 171.658 400.515 171.13 400.046C170.617 399.562 169.979 399.32 169.216 399.32C168.688 399.32 168.16 399.445 167.632 399.694C167.104 399.943 166.664 400.354 166.312 400.926C165.975 401.483 165.806 402.231 165.806 403.17V409H164.046ZM184.531 401.894C184.531 401.073 184.311 400.442 183.871 400.002C183.431 399.547 182.808 399.32 182.001 399.32C181.238 399.32 180.593 399.489 180.065 399.826C179.537 400.149 179.148 400.677 178.899 401.41L177.469 400.53C177.762 399.709 178.305 399.049 179.097 398.55C179.889 398.037 180.872 397.78 182.045 397.78C182.837 397.78 183.556 397.919 184.201 398.198C184.846 398.462 185.352 398.873 185.719 399.43C186.1 399.973 186.291 400.677 186.291 401.542V406.866C186.291 407.394 186.57 407.658 187.127 407.658C187.406 407.658 187.677 407.621 187.941 407.548L187.853 408.934C187.56 409.081 187.178 409.154 186.709 409.154C186.284 409.154 185.902 409.073 185.565 408.912C185.228 408.751 184.964 408.509 184.773 408.186C184.582 407.849 184.487 407.431 184.487 406.932V406.712L184.927 406.778C184.751 407.35 184.45 407.819 184.025 408.186C183.6 408.538 183.123 408.802 182.595 408.978C182.067 409.139 181.546 409.22 181.033 409.22C180.388 409.22 179.786 409.11 179.229 408.89C178.672 408.67 178.224 408.34 177.887 407.9C177.564 407.445 177.403 406.888 177.403 406.228C177.403 405.407 177.674 404.732 178.217 404.204C178.774 403.661 179.544 403.295 180.527 403.104L184.883 402.246V403.698L181.341 404.424C180.622 404.571 180.087 404.776 179.735 405.04C179.383 405.304 179.207 405.671 179.207 406.14C179.207 406.595 179.383 406.969 179.735 407.262C180.102 407.541 180.615 407.68 181.275 407.68C181.7 407.68 182.104 407.629 182.485 407.526C182.881 407.409 183.233 407.24 183.541 407.02C183.849 406.785 184.091 406.499 184.267 406.162C184.443 405.81 184.531 405.399 184.531 404.93V401.894ZM191.008 413.62V398H192.548L192.702 400.684L192.46 400.376C192.651 399.863 192.937 399.415 193.318 399.034C193.699 398.638 194.161 398.33 194.704 398.11C195.247 397.89 195.833 397.78 196.464 397.78C197.359 397.78 198.18 398.007 198.928 398.462C199.691 398.917 200.299 399.569 200.754 400.42C201.209 401.271 201.436 402.297 201.436 403.5C201.436 404.688 201.201 405.715 200.732 406.58C200.277 407.431 199.669 408.083 198.906 408.538C198.143 408.993 197.307 409.22 196.398 409.22C195.489 409.22 194.689 409 194 408.56C193.325 408.105 192.841 407.533 192.548 406.844L192.768 406.514V413.62H191.008ZM196.222 407.68C197.307 407.68 198.151 407.299 198.752 406.536C199.368 405.773 199.676 404.761 199.676 403.5C199.676 402.239 199.375 401.227 198.774 400.464C198.187 399.701 197.359 399.32 196.288 399.32C195.584 399.32 194.968 399.496 194.44 399.848C193.912 400.185 193.501 400.669 193.208 401.3C192.915 401.916 192.768 402.649 192.768 403.5C192.768 404.336 192.907 405.069 193.186 405.7C193.479 406.331 193.883 406.822 194.396 407.174C194.924 407.511 195.533 407.68 196.222 407.68ZM205.241 413.62V398H206.781L206.935 400.684L206.693 400.376C206.884 399.863 207.17 399.415 207.551 399.034C207.932 398.638 208.394 398.33 208.937 398.11C209.48 397.89 210.066 397.78 210.697 397.78C211.592 397.78 212.413 398.007 213.161 398.462C213.924 398.917 214.532 399.569 214.987 400.42C215.442 401.271 215.669 402.297 215.669 403.5C215.669 404.688 215.434 405.715 214.965 406.58C214.51 407.431 213.902 408.083 213.139 408.538C212.376 408.993 211.54 409.22 210.631 409.22C209.722 409.22 208.922 409 208.233 408.56C207.558 408.105 207.074 407.533 206.781 406.844L207.001 406.514V413.62H205.241ZM210.455 407.68C211.54 407.68 212.384 407.299 212.985 406.536C213.601 405.773 213.909 404.761 213.909 403.5C213.909 402.239 213.608 401.227 213.007 400.464C212.42 399.701 211.592 399.32 210.521 399.32C209.817 399.32 209.201 399.496 208.673 399.848C208.145 400.185 207.734 400.669 207.441 401.3C207.148 401.916 207.001 402.649 207.001 403.5C207.001 404.336 207.14 405.069 207.419 405.7C207.712 406.331 208.116 406.822 208.629 407.174C209.157 407.511 209.766 407.68 210.455 407.68ZM224.072 409.22C223.031 409.22 222.099 408.993 221.278 408.538C220.471 408.083 219.841 407.431 219.386 406.58C218.931 405.715 218.704 404.688 218.704 403.5C218.704 402.312 218.931 401.293 219.386 400.442C219.841 399.577 220.464 398.917 221.256 398.462C222.048 398.007 222.95 397.78 223.962 397.78C224.989 397.78 225.861 398 226.58 398.44C227.313 398.88 227.871 399.481 228.252 400.244C228.633 400.992 228.824 401.835 228.824 402.774C228.824 403.023 228.817 403.251 228.802 403.456C228.787 403.661 228.765 403.845 228.736 404.006H219.848V402.444H227.966L227.064 402.62C227.064 401.564 226.771 400.75 226.184 400.178C225.612 399.606 224.857 399.32 223.918 399.32C223.199 399.32 222.576 399.489 222.048 399.826C221.535 400.149 221.131 400.625 220.838 401.256C220.559 401.872 220.42 402.62 220.42 403.5C220.42 404.365 220.567 405.113 220.86 405.744C221.153 406.375 221.564 406.859 222.092 407.196C222.635 407.519 223.28 407.68 224.028 407.68C224.835 407.68 225.487 407.526 225.986 407.218C226.499 406.91 226.91 406.492 227.218 405.964L228.604 406.778C228.325 407.277 227.966 407.709 227.526 408.076C227.101 408.443 226.595 408.729 226.008 408.934C225.436 409.125 224.791 409.22 224.072 409.22ZM232.611 409V398H234.151L234.305 400.464L234.019 400.222C234.254 399.635 234.569 399.166 234.965 398.814C235.361 398.447 235.816 398.183 236.329 398.022C236.857 397.861 237.4 397.78 237.957 397.78C238.749 397.78 239.468 397.934 240.113 398.242C240.759 398.535 241.272 398.99 241.653 399.606C242.049 400.222 242.247 401.007 242.247 401.96V409H240.487V402.576C240.487 401.359 240.223 400.515 239.695 400.046C239.182 399.562 238.544 399.32 237.781 399.32C237.253 399.32 236.725 399.445 236.197 399.694C235.669 399.943 235.229 400.347 234.877 400.904C234.54 401.461 234.371 402.209 234.371 403.148V409H232.611ZM247.552 395.888C247.156 395.888 246.834 395.771 246.584 395.536C246.35 395.287 246.232 394.964 246.232 394.568C246.232 394.172 246.35 393.857 246.584 393.622C246.834 393.373 247.156 393.248 247.552 393.248C247.948 393.248 248.264 393.373 248.498 393.622C248.748 393.857 248.872 394.172 248.872 394.568C248.872 394.964 248.748 395.287 248.498 395.536C248.264 395.771 247.948 395.888 247.552 395.888ZM248.432 398V409H246.672V398H248.432ZM252.956 409V398H254.496L254.65 400.464L254.364 400.222C254.599 399.635 254.914 399.166 255.31 398.814C255.706 398.447 256.161 398.183 256.674 398.022C257.202 397.861 257.745 397.78 258.302 397.78C259.094 397.78 259.813 397.934 260.458 398.242C261.103 398.535 261.617 398.99 261.998 399.606C262.394 400.222 262.592 401.007 262.592 401.96V409H260.832V402.576C260.832 401.359 260.568 400.515 260.04 400.046C259.527 399.562 258.889 399.32 258.126 399.32C257.598 399.32 257.07 399.445 256.542 399.694C256.014 399.943 255.574 400.347 255.222 400.904C254.885 401.461 254.716 402.209 254.716 403.148V409H252.956ZM276.279 395.976L276.675 397.538C276.661 397.538 276.639 397.538 276.609 397.538C276.58 397.538 276.551 397.538 276.521 397.538C275.803 397.538 275.245 397.685 274.849 397.978C274.468 398.257 274.277 398.711 274.277 399.342L273.199 398.792C273.199 398.22 273.331 397.721 273.595 397.296C273.859 396.871 274.219 396.548 274.673 396.328C275.128 396.093 275.627 395.976 276.169 395.976C276.184 395.976 276.199 395.976 276.213 395.976C276.243 395.976 276.265 395.976 276.279 395.976ZM272.935 407.592C273.977 407.592 274.791 407.834 275.377 408.318C275.964 408.787 276.257 409.418 276.257 410.21C276.257 410.929 276.015 411.552 275.531 412.08C275.062 412.608 274.424 413.011 273.617 413.29C272.825 413.583 271.931 413.73 270.933 413.73C269.203 413.73 267.905 413.437 267.039 412.85C266.189 412.263 265.763 411.559 265.763 410.738C265.763 410.151 265.954 409.623 266.335 409.154C266.731 408.699 267.391 408.443 268.315 408.384L268.161 408.714C267.663 408.582 267.237 408.362 266.885 408.054C266.548 407.731 266.379 407.269 266.379 406.668C266.379 406.067 266.599 405.553 267.039 405.128C267.494 404.688 268.161 404.417 269.041 404.314L270.207 404.908H269.987C269.269 404.981 268.755 405.165 268.447 405.458C268.154 405.737 268.007 406.045 268.007 406.382C268.007 406.793 268.154 407.101 268.447 407.306C268.755 407.497 269.181 407.592 269.723 407.592H272.935ZM270.911 412.256C271.762 412.256 272.459 412.168 273.001 411.992C273.559 411.816 273.969 411.589 274.233 411.31C274.497 411.031 274.629 410.731 274.629 410.408C274.629 410.012 274.468 409.697 274.145 409.462C273.837 409.227 273.273 409.11 272.451 409.11H269.063C268.594 409.11 268.198 409.227 267.875 409.462C267.553 409.711 267.391 410.049 267.391 410.474C267.391 411.017 267.699 411.449 268.315 411.772C268.946 412.095 269.811 412.256 270.911 412.256ZM270.757 397.78C271.637 397.78 272.415 397.941 273.089 398.264C273.779 398.572 274.314 399.005 274.695 399.562C275.077 400.119 275.267 400.765 275.267 401.498C275.267 402.217 275.077 402.862 274.695 403.434C274.314 403.991 273.779 404.431 273.089 404.754C272.415 405.062 271.637 405.216 270.757 405.216C269.305 405.216 268.191 404.871 267.413 404.182C266.636 403.478 266.247 402.583 266.247 401.498C266.247 400.765 266.438 400.119 266.819 399.562C267.215 399.005 267.751 398.572 268.425 398.264C269.1 397.941 269.877 397.78 270.757 397.78ZM270.757 399.21C269.995 399.21 269.357 399.423 268.843 399.848C268.33 400.259 268.073 400.809 268.073 401.498C268.073 402.173 268.33 402.723 268.843 403.148C269.357 403.573 269.995 403.786 270.757 403.786C271.52 403.786 272.158 403.573 272.671 403.148C273.185 402.723 273.441 402.173 273.441 401.498C273.441 400.809 273.185 400.259 272.671 399.848C272.158 399.423 271.52 399.21 270.757 399.21ZM280.046 406.36C280.471 406.36 280.816 406.492 281.08 406.756C281.344 407.02 281.476 407.365 281.476 407.79C281.476 408.215 281.344 408.56 281.08 408.824C280.816 409.088 280.471 409.22 280.046 409.22C279.621 409.22 279.276 409.088 279.012 408.824C278.748 408.56 278.616 408.215 278.616 407.79C278.616 407.365 278.748 407.02 279.012 406.756C279.276 406.492 279.621 406.36 280.046 406.36Z" fill="white"/>
<rect x="115" y="3" width="272" height="120" fill="#E3B93E" stroke="black" stroke-width="6"/>
<rect x="123" y="111" width="349" height="120" transform="rotate(90 123 111)" fill="#454E9E" stroke="black" stroke-width="6"/>
<rect x="3" y="3" width="120" height="120" fill="#018E42" stroke="black" stroke-width="6"/>
</svg>
 