<svg width="369" height="453" viewBox="0 0 369 453" fill="none" xmlns="http://www.w3.org/2000/svg">
<g clip-path="url(#clip0_0_1)">
<path d="M-228.679 95.3218L34.2863 47.931L98.2325 405.328L-165.582 452.872C-169.945 453.658 -174.11 450.738 -174.891 446.374L-235.85 105.669C-236.715 100.835 -233.511 96.1925 -228.679 95.3218Z" fill="#F3D194"/>
<path d="M368.881 348.842L329.075 126.313L352.637 109.204C354.125 108.129 354.869 106.293 354.542 104.472L339.28 19.0641C338.952 17.2577 337.599 15.8245 335.814 15.4214L308.087 9.04684L307.447 5.46393C306.807 1.85115 303.371 -0.537457 299.771 0.104482L34.5781 47.8916L98.5113 405.288L362.753 357.679C366.873 356.933 369.61 352.977 368.881 348.842Z" fill="#F3D194"/>
<path d="M302.143 23.3414L59.3965 67.0884L116.526 386.385L359.272 342.638L302.143 23.3414Z" fill="#BCBEC0"/>
<path d="M294.604 17.8683L51.8574 61.6152L108.987 380.911L351.733 337.165L294.604 17.8683Z" fill="white"/>
<path d="M92.9023 54.2363C92.9023 54.2363 88.1571 73.2706 99.1201 88.4233C99.1201 88.4233 85.0929 82.2876 57.3359 92.3197L92.9023 54.2363Z" fill="#D1D3D4"/>
<path d="M51.8477 61.6261L57.3366 92.3048L92.9029 54.2363L51.8477 61.6261Z" fill="#BCBEC0"/>
<path d="M248.348 29.5292C248.348 29.5292 248.898 24.6475 252.736 23.9309C255.354 23.4383 257.838 25.3044 258.463 27.902L264.487 53.1168C265.052 55.4905 263.758 58.0582 261.408 58.7002C261.215 58.7599 260.992 58.8047 260.783 58.8345C258.135 59.2077 255.696 57.2521 255.101 54.6395L251.1 37.128C250.772 35.6799 251.457 34.1124 252.84 33.575C254.06 33.1122 255.547 33.5152 256.693 36.9937L260.337 53.1317" stroke="#6D6E71" stroke-miterlimit="10"/>
<path d="M251.516 25.6477L245.135 26.7972L247.143 31.0967H251.263L251.516 25.6477Z" fill="white"/>
<path d="M34.5625 47.8916L98.5106 405.287" stroke="#231F20" stroke-width="0.25" stroke-miterlimit="10"/>
</g>
<path d="M102.449 131.909L104.835 144.981L102.411 145.424L100.025 132.352L95.2851 133.217L94.9138 131.183L106.817 129.01L107.188 131.044L102.449 131.909ZM109.435 127.593L111.794 127.162L113.026 133.914L113.134 133.895C113.197 133.585 113.291 133.285 113.417 132.993C113.555 132.685 113.736 132.413 113.962 132.178C114.184 131.929 114.458 131.715 114.784 131.536C115.109 131.358 115.502 131.226 115.964 131.142C117.089 130.936 118.066 131.138 118.892 131.748C119.719 132.357 120.257 133.34 120.504 134.696L121.816 141.882L119.457 142.312L118.208 135.473C117.884 133.699 116.95 132.952 115.407 133.234C115.104 133.289 114.816 133.387 114.543 133.526C114.268 133.651 114.029 133.813 113.827 134.014C113.625 134.215 113.475 134.451 113.375 134.723C113.29 134.992 113.276 135.285 113.334 135.603L114.717 143.177L112.358 143.608L109.435 127.593ZM130.728 140.523C129.877 140.678 129.087 140.681 128.359 140.531C127.631 140.38 126.99 140.095 126.436 139.674C125.882 139.253 125.418 138.712 125.044 138.05C124.667 137.373 124.396 136.587 124.233 135.693C124.07 134.798 124.045 133.968 124.159 133.202C124.287 132.433 124.528 131.755 124.883 131.169C125.25 130.565 125.733 130.067 126.332 129.674C126.932 129.281 127.628 129.013 128.422 128.868C129.201 128.726 129.933 128.734 130.618 128.892C131.3 129.036 131.909 129.312 132.446 129.721C132.983 130.13 133.429 130.652 133.783 131.288C134.152 131.922 134.412 132.649 134.562 133.472L134.724 134.359L126.717 135.821L126.784 136.189C126.944 137.069 127.35 137.74 128.001 138.203C128.65 138.651 129.457 138.787 130.424 138.611C131.145 138.479 131.731 138.215 132.18 137.82C132.642 137.408 132.984 136.913 133.206 136.336L134.915 137.366C134.659 138.084 134.182 138.737 133.484 139.327C132.801 139.914 131.882 140.312 130.728 140.523ZM128.749 130.664C128.331 130.74 127.955 130.884 127.62 131.094C127.3 131.301 127.036 131.566 126.826 131.887C126.628 132.192 126.49 132.538 126.411 132.925C126.333 133.312 126.333 133.722 126.412 134.155L126.44 134.306L132.045 133.283L132.006 133.066C131.845 132.186 131.465 131.533 130.865 131.105C130.277 130.661 129.572 130.514 128.749 130.664ZM151.722 136.422L149.683 125.255L151.696 124.887L151.961 126.338L152.069 126.318C152.155 125.81 152.327 125.361 152.583 124.971C152.855 124.579 153.293 124.328 153.899 124.217C154.491 124.109 154.976 124.192 155.354 124.466C155.743 124.723 156.033 125.124 156.222 125.671L156.309 125.656C156.419 125.114 156.622 124.637 156.92 124.225C157.215 123.798 157.701 123.523 158.379 123.399C159.245 123.241 159.899 123.435 160.342 123.98C160.798 124.523 161.134 125.379 161.347 126.547L162.781 134.404L160.768 134.771L159.39 127.218C159.247 126.439 159.056 125.922 158.816 125.668C158.573 125.399 158.242 125.303 157.824 125.379C157.449 125.448 157.155 125.635 156.943 125.942C156.742 126.232 156.688 126.63 156.78 127.135L158.258 135.229L156.245 135.597L154.866 128.043C154.724 127.264 154.533 126.748 154.293 126.493C154.064 126.222 153.741 126.124 153.322 126.201C152.933 126.272 152.632 126.461 152.419 126.768C152.219 127.058 152.165 127.456 152.257 127.961L153.735 136.055L151.722 136.422ZM170.719 133.223C169.897 133.373 169.129 133.371 168.415 133.218C167.716 133.063 167.089 132.775 166.535 132.354C165.996 131.931 165.538 131.381 165.161 130.704C164.784 130.027 164.514 129.242 164.35 128.347C164.187 127.453 164.162 126.622 164.276 125.856C164.389 125.09 164.624 124.414 164.979 123.827C165.348 123.238 165.833 122.747 166.432 122.354C167.046 121.959 167.764 121.686 168.586 121.536C169.408 121.386 170.169 121.389 170.869 121.544C171.582 121.697 172.209 121.985 172.748 122.409C173.302 122.829 173.768 123.378 174.145 124.055C174.522 124.731 174.792 125.517 174.955 126.411C175.118 127.306 175.143 128.136 175.03 128.903C174.916 129.669 174.675 130.346 174.305 130.936C173.95 131.522 173.466 132.013 172.852 132.409C172.253 132.801 171.542 133.073 170.719 133.223ZM170.38 131.362C171.245 131.204 171.883 130.819 172.293 130.207C172.715 129.578 172.832 128.745 172.642 127.706L172.334 126.018C172.144 124.979 171.742 124.247 171.128 123.823C170.526 123.381 169.792 123.239 168.926 123.397C168.06 123.555 167.416 123.949 166.994 124.577C166.584 125.189 166.474 126.014 166.664 127.053L166.972 128.741C167.161 129.78 167.557 130.52 168.16 130.962C168.774 131.386 169.514 131.52 170.38 131.362ZM178.886 129.496L181.851 128.954L180.508 121.596L177.543 122.137L177.195 120.233L182.519 119.261L183.061 122.226L183.191 122.202C183.22 121.794 183.296 121.393 183.418 120.998C183.54 120.603 183.721 120.249 183.962 119.937C184.201 119.61 184.515 119.329 184.904 119.094C185.291 118.844 185.766 118.668 186.328 118.565L187.67 118.321L188.081 120.571L185.874 120.974C185.008 121.132 184.348 121.521 183.895 122.141C183.439 122.746 183.29 123.481 183.448 124.347L184.21 128.524L188.257 127.785L188.605 129.689L179.234 131.4L178.886 129.496ZM197.777 128.283C196.926 128.439 196.136 128.441 195.408 128.291C194.68 128.141 194.039 127.855 193.485 127.434C192.931 127.014 192.467 126.472 192.093 125.81C191.716 125.133 191.445 124.348 191.282 123.453C191.119 122.559 191.094 121.728 191.208 120.962C191.336 120.193 191.577 119.516 191.932 118.929C192.299 118.325 192.782 117.827 193.381 117.435C193.981 117.042 194.677 116.773 195.471 116.628C196.25 116.486 196.982 116.494 197.667 116.652C198.349 116.796 198.958 117.072 199.495 117.481C200.032 117.89 200.478 118.413 200.832 119.049C201.202 119.682 201.461 120.41 201.611 121.232L201.773 122.12L193.766 123.581L193.833 123.949C193.993 124.83 194.399 125.501 195.05 125.963C195.699 126.412 196.506 126.548 197.473 126.371C198.194 126.239 198.78 125.976 199.229 125.581C199.691 125.169 200.033 124.674 200.256 124.096L201.964 125.126C201.708 125.844 201.231 126.498 200.533 127.087C199.85 127.674 198.931 128.073 197.777 128.283ZM195.799 118.425C195.38 118.501 195.004 118.644 194.669 118.854C194.349 119.062 194.085 119.326 193.875 119.648C193.677 119.952 193.539 120.298 193.46 120.685C193.382 121.072 193.382 121.482 193.461 121.915L193.489 122.066L199.094 121.043L199.055 120.827C198.894 119.947 198.514 119.293 197.914 118.866C197.326 118.422 196.621 118.274 195.799 118.425ZM102.009 163.437L104.368 163.006L104.716 164.911L104.846 164.887C105.054 164.148 105.398 163.541 105.878 163.066C106.355 162.576 107.005 162.257 107.827 162.106C109.14 161.867 110.275 162.166 111.234 163.005C112.192 163.844 112.848 165.23 113.2 167.164C113.553 169.097 113.43 170.625 112.83 171.749C112.23 172.872 111.273 173.554 109.96 173.793C109.138 173.943 108.418 173.881 107.802 173.606C107.182 173.316 106.645 172.863 106.189 172.245L106.059 172.269L107.197 178.502L104.838 178.933L102.009 163.437ZM108.635 172.045C109.529 171.882 110.165 171.482 110.541 170.847C110.931 170.209 111.043 169.436 110.878 168.527L110.546 166.709C110.38 165.8 110.001 165.116 109.411 164.658C108.835 164.196 108.099 164.047 107.205 164.21C106.858 164.274 106.542 164.376 106.254 164.518C105.967 164.66 105.724 164.839 105.525 165.054C105.326 165.269 105.177 165.52 105.081 165.806C104.996 166.075 104.985 166.382 105.048 166.729L105.727 170.451C105.791 170.797 105.911 171.089 106.088 171.325C106.277 171.544 106.503 171.718 106.765 171.849C107.028 171.98 107.318 172.062 107.637 172.093C107.956 172.124 108.289 172.108 108.635 172.045ZM117.045 170.264L120.01 169.722L118.667 162.364L115.702 162.905L115.354 161.001L120.678 160.029L121.219 162.994L121.349 162.97C121.379 162.562 121.455 162.161 121.577 161.766C121.698 161.371 121.88 161.017 122.121 160.705C122.36 160.378 122.673 160.097 123.063 159.862C123.45 159.612 123.925 159.436 124.487 159.334L125.829 159.089L126.24 161.339L124.032 161.742C123.167 161.9 122.507 162.289 122.054 162.909C121.598 163.514 121.449 164.249 121.607 165.115L122.369 169.292L126.416 168.553L126.764 170.458L117.393 172.168L117.045 170.264ZM133.933 155.507C133.327 155.618 132.879 155.573 132.589 155.372C132.313 155.169 132.143 154.887 132.077 154.526L131.994 154.072C131.928 153.711 131.988 153.387 132.174 153.1C132.375 152.81 132.771 152.611 133.362 152.503C133.968 152.392 134.409 152.438 134.685 152.642C134.975 152.842 135.153 153.123 135.218 153.483L135.301 153.938C135.367 154.299 135.3 154.624 135.099 154.914C134.913 155.201 134.525 155.399 133.933 155.507ZM130.996 167.717L134.805 167.022L133.462 159.663L129.653 160.359L129.305 158.454L135.473 157.328L137.164 166.591L140.735 165.939L141.083 167.844L131.344 169.622L130.996 167.717ZM147.61 166.652L141.568 156.216L144.013 155.769L146.411 160.207L148.679 164.422L148.809 164.398L149.441 159.654L150.116 154.655L152.476 154.224L150.51 166.123L147.61 166.652ZM166.625 163.181C165.947 163.305 165.403 163.225 164.994 162.942C164.599 162.656 164.314 162.239 164.139 161.689L164.031 161.709C163.938 162.427 163.638 163.026 163.129 163.506C162.635 163.984 161.948 164.303 161.067 164.464C159.928 164.672 158.965 164.542 158.178 164.074C157.39 163.592 156.899 162.824 156.707 161.771C156.509 160.689 156.756 159.794 157.447 159.087C158.15 158.362 159.33 157.848 160.99 157.545L163.132 157.154L162.974 156.289C162.698 154.774 161.759 154.162 160.157 154.455C159.436 154.586 158.878 154.837 158.483 155.208C158.086 155.563 157.778 156 157.559 156.517L155.943 155.626C156.15 154.963 156.589 154.346 157.26 153.776C157.929 153.192 158.855 152.792 160.038 152.576C161.452 152.317 162.625 152.454 163.556 152.984C164.488 153.515 165.071 154.422 165.306 155.706L166.329 161.312L167.736 161.055L168.075 162.916L166.625 163.181ZM161.422 162.61C162.187 162.47 162.783 162.183 163.21 161.747C163.638 161.311 163.801 160.819 163.701 160.271L163.405 158.648L161.306 159.031C159.603 159.342 158.845 160.009 159.032 161.034L159.111 161.466C159.204 161.971 159.454 162.321 159.862 162.515C160.267 162.694 160.787 162.726 161.422 162.61ZM176.338 161.676C175.502 161.829 174.726 161.829 174.013 161.676C173.313 161.52 172.687 161.232 172.133 160.811C171.593 160.388 171.135 159.838 170.758 159.161C170.396 158.482 170.133 157.695 169.969 156.801C169.806 155.906 169.774 155.077 169.873 154.314C169.987 153.547 170.221 152.871 170.576 152.284C170.946 151.695 171.43 151.204 172.029 150.811C172.643 150.416 173.361 150.143 174.183 149.993C175.338 149.783 176.306 149.859 177.088 150.223C177.884 150.585 178.527 151.124 179.016 151.84L177.358 153.171C177.061 152.688 176.676 152.334 176.202 152.107C175.743 151.878 175.188 151.823 174.539 151.941C173.644 152.104 173.002 152.505 172.611 153.143C172.218 153.766 172.103 154.525 172.267 155.42L172.606 157.281C172.767 158.161 173.143 158.831 173.733 159.289C174.324 159.748 175.081 159.893 176.005 159.725C176.697 159.598 177.231 159.337 177.606 158.94C177.995 158.541 178.27 158.044 178.429 157.448L180.354 158.193C180.136 159.037 179.705 159.78 179.061 160.419C178.415 161.044 177.507 161.463 176.338 161.676ZM190.519 147.28L192.9 146.845L189.923 161.164C189.766 161.939 189.482 162.549 189.072 162.997C188.676 163.442 188.038 163.745 187.158 163.906L185.275 164.249L184.928 162.345L187.568 161.863L188.115 159.102L181.602 148.907L184.07 148.457L186.698 152.808L188.782 156.386L188.912 156.362L189.598 152.278L190.519 147.28ZM208.011 144.087L210.024 143.719L212.82 152.914L213.015 152.879L212.967 143.182L215.261 142.763L218.62 151.856L218.815 151.82L218.204 142.226L220.131 141.874L220.611 153.326L217.711 153.856L214.637 145.471L214.442 145.507L214.508 154.44L211.608 154.97L208.011 144.087ZM229.805 151.916C228.953 152.072 228.164 152.074 227.435 151.924C226.707 151.773 226.066 151.488 225.512 151.067C224.958 150.647 224.494 150.105 224.12 149.443C223.743 148.766 223.473 147.981 223.31 147.086C223.146 146.192 223.121 145.361 223.235 144.595C223.363 143.826 223.605 143.148 223.96 142.562C224.327 141.958 224.81 141.46 225.409 141.067C226.008 140.675 226.704 140.406 227.498 140.261C228.277 140.119 229.009 140.127 229.694 140.285C230.376 140.429 230.986 140.705 231.523 141.114C232.059 141.523 232.505 142.045 232.86 142.681C233.229 143.315 233.489 144.043 233.639 144.865L233.801 145.752L225.793 147.214L225.86 147.582C226.021 148.462 226.427 149.134 227.078 149.596C227.726 150.044 228.533 150.18 229.5 150.004C230.222 149.872 230.807 149.609 231.257 149.214C231.718 148.801 232.06 148.306 232.283 147.729L233.992 148.759C233.735 149.477 233.258 150.13 232.561 150.72C231.877 151.307 230.959 151.706 229.805 151.916ZM227.826 142.057C227.408 142.134 227.031 142.277 226.697 142.487C226.377 142.695 226.112 142.959 225.902 143.281C225.704 143.585 225.566 143.931 225.488 144.318C225.409 144.705 225.41 145.115 225.489 145.548L225.516 145.699L231.122 144.676L231.082 144.46C230.922 143.579 230.541 142.926 229.942 142.499C229.354 142.054 228.648 141.907 227.826 142.057ZM106.44 187.098L108.799 186.667L110.032 193.42L110.14 193.4C110.203 193.09 110.297 192.79 110.423 192.498C110.56 192.19 110.742 191.918 110.967 191.683C111.19 191.434 111.464 191.22 111.789 191.041C112.115 190.863 112.508 190.731 112.97 190.647C114.095 190.441 115.071 190.643 115.898 191.253C116.725 191.862 117.262 192.845 117.51 194.201L118.822 201.387L116.463 201.817L115.214 194.978C114.89 193.204 113.956 192.457 112.412 192.739C112.109 192.794 111.822 192.892 111.549 193.031C111.273 193.156 111.035 193.318 110.833 193.519C110.631 193.72 110.48 193.956 110.381 194.228C110.296 194.497 110.282 194.79 110.34 195.108L111.723 202.682L109.364 203.113L106.44 187.098ZM131.604 199.053C130.926 199.177 130.382 199.097 129.972 198.814C129.577 198.529 129.292 198.111 129.117 197.562L129.009 197.581C128.917 198.299 128.616 198.898 128.107 199.378C127.613 199.856 126.926 200.176 126.046 200.336C124.906 200.544 123.943 200.414 123.157 199.947C122.368 199.464 121.878 198.697 121.685 197.643C121.488 196.561 121.734 195.667 122.425 194.959C123.128 194.234 124.309 193.721 125.968 193.418L128.111 193.027L127.953 192.161C127.676 190.646 126.737 190.035 125.136 190.327C124.414 190.459 123.856 190.71 123.461 191.08C123.064 191.436 122.756 191.872 122.538 192.389L120.921 191.499C121.128 190.835 121.567 190.218 122.239 189.648C122.907 189.064 123.833 188.664 125.016 188.448C126.43 188.19 127.603 188.326 128.535 188.857C129.466 189.387 130.05 190.295 130.284 191.579L131.307 197.184L132.714 196.927L133.054 198.789L131.604 199.053ZM126.401 198.482C127.165 198.343 127.761 198.055 128.189 197.619C128.616 197.183 128.78 196.691 128.68 196.143L128.383 194.52L126.284 194.903C124.581 195.214 123.824 195.882 124.011 196.906L124.09 197.339C124.182 197.844 124.432 198.193 124.84 198.387C125.246 198.566 125.766 198.598 126.401 198.482ZM139.408 197.629L133.366 187.192L135.811 186.746L138.209 191.183L140.477 195.398L140.607 195.375L141.239 190.63L141.914 185.632L144.273 185.201L142.308 197.099L139.408 197.629ZM154.553 195.132C153.702 195.288 152.912 195.29 152.184 195.14C151.456 194.989 150.815 194.704 150.261 194.283C149.707 193.863 149.243 193.321 148.869 192.659C148.492 191.982 148.222 191.197 148.058 190.302C147.895 189.408 147.87 188.577 147.984 187.811C148.112 187.042 148.354 186.364 148.709 185.778C149.075 185.174 149.559 184.676 150.158 184.283C150.757 183.891 151.453 183.622 152.247 183.477C153.026 183.335 153.758 183.343 154.443 183.501C155.125 183.645 155.735 183.921 156.272 184.33C156.808 184.739 157.254 185.261 157.609 185.897C157.978 186.531 158.237 187.259 158.388 188.081L158.55 188.968L150.542 190.43L150.609 190.798C150.77 191.678 151.176 192.35 151.827 192.812C152.475 193.26 153.282 193.396 154.249 193.22C154.971 193.088 155.556 192.825 156.006 192.43C156.467 192.017 156.809 191.522 157.032 190.945L158.741 191.975C158.484 192.693 158.007 193.346 157.309 193.936C156.626 194.523 155.708 194.922 154.553 195.132ZM152.575 185.273C152.156 185.35 151.78 185.493 151.446 185.703C151.126 185.911 150.861 186.175 150.651 186.497C150.453 186.801 150.315 187.147 150.237 187.534C150.158 187.921 150.159 188.331 150.238 188.764L150.265 188.915L155.871 187.892L155.831 187.676C155.671 186.795 155.29 186.142 154.69 185.715C154.102 185.27 153.397 185.123 152.575 185.273ZM165.865 189.4L169.22 188.787L167.71 195.705L165.87 196.041L165.865 189.4ZM195.168 187.45C194.187 187.629 193.418 187.501 192.862 187.066C192.303 186.616 191.947 185.973 191.794 185.136L190.621 178.708L187.179 179.337L186.832 177.432L189.277 176.986C189.696 176.909 189.977 176.776 190.121 176.586C190.263 176.381 190.294 176.062 190.215 175.629L189.705 172.837L191.913 172.434L192.632 176.373L197.393 175.504L197.741 177.409L192.98 178.278L194.323 185.636L199.084 184.767L199.432 186.672L195.168 187.45ZM200.309 169.962L202.668 169.532L203.901 176.284L204.009 176.264C204.072 175.955 204.166 175.654 204.292 175.363C204.429 175.055 204.611 174.783 204.836 174.548C205.059 174.299 205.333 174.085 205.658 173.906C205.983 173.727 206.377 173.596 206.838 173.512C207.964 173.306 208.94 173.508 209.767 174.117C210.594 174.727 211.131 175.71 211.379 177.066L212.69 184.251L210.331 184.682L209.083 177.843C208.759 176.068 207.825 175.322 206.281 175.604C205.978 175.659 205.69 175.756 205.417 175.895C205.142 176.02 204.903 176.183 204.702 176.384C204.5 176.585 204.349 176.821 204.249 177.093C204.164 177.362 204.151 177.655 204.209 177.972L205.591 185.547L203.232 185.978L200.309 169.962ZM221.603 182.893C220.751 183.048 219.962 183.051 219.233 182.9C218.505 182.75 217.864 182.464 217.31 182.044C216.756 181.623 216.292 181.082 215.918 180.419C215.541 179.743 215.271 178.957 215.108 178.063C214.944 177.168 214.919 176.338 215.033 175.571C215.161 174.803 215.403 174.125 215.758 173.538C216.125 172.935 216.608 172.436 217.207 172.044C217.806 171.651 218.502 171.382 219.296 171.237C220.075 171.095 220.807 171.103 221.492 171.261C222.174 171.405 222.784 171.682 223.321 172.091C223.857 172.499 224.303 173.022 224.658 173.658C225.027 174.291 225.286 175.019 225.437 175.842L225.599 176.729L217.591 178.191L217.658 178.559C217.819 179.439 218.225 180.11 218.876 180.573C219.524 181.021 220.331 181.157 221.298 180.98C222.02 180.849 222.605 180.585 223.055 180.19C223.516 179.778 223.858 179.283 224.081 178.706L225.79 179.735C225.533 180.453 225.056 181.107 224.358 181.696C223.675 182.283 222.757 182.682 221.603 182.893ZM219.624 173.034C219.205 173.11 218.829 173.253 218.495 173.464C218.175 173.671 217.91 173.936 217.7 174.257C217.502 174.562 217.364 174.907 217.286 175.294C217.207 175.681 217.208 176.091 217.287 176.524L217.314 176.676L222.92 175.652L222.88 175.436C222.72 174.556 222.339 173.902 221.74 173.475C221.152 173.031 220.446 172.884 219.624 173.034ZM242.596 178.792L240.558 167.625L242.57 167.257L242.835 168.707L242.943 168.687C243.03 168.18 243.201 167.731 243.458 167.341C243.729 166.949 244.168 166.697 244.774 166.587C245.365 166.479 245.85 166.562 246.228 166.835C246.618 167.092 246.907 167.494 247.097 168.041L247.183 168.025C247.293 167.483 247.497 167.006 247.794 166.594C248.089 166.168 248.576 165.893 249.254 165.769C250.119 165.611 250.774 165.804 251.216 166.35C251.673 166.893 252.008 167.748 252.221 168.917L253.655 176.773L251.643 177.141L250.264 169.587C250.122 168.808 249.93 168.292 249.69 168.037C249.447 167.769 249.117 167.672 248.698 167.749C248.323 167.817 248.029 168.005 247.817 168.312C247.617 168.602 247.562 169 247.655 169.505L249.132 177.599L247.119 177.966L245.741 170.413C245.598 169.634 245.407 169.117 245.167 168.863C244.939 168.592 244.615 168.494 244.197 168.57C243.807 168.642 243.506 168.831 243.294 169.138C243.093 169.428 243.039 169.825 243.131 170.33L244.609 178.425L242.596 178.792ZM261.594 175.592C260.771 175.743 260.003 175.741 259.29 175.588C258.59 175.433 257.964 175.144 257.41 174.724C256.87 174.3 256.412 173.75 256.035 173.074C255.658 172.397 255.388 171.611 255.225 170.717C255.061 169.822 255.037 168.992 255.15 168.226C255.264 167.46 255.498 166.783 255.853 166.197C256.223 165.607 256.707 165.116 257.306 164.724C257.92 164.328 258.638 164.056 259.46 163.906C260.283 163.755 261.044 163.758 261.743 163.914C262.457 164.067 263.083 164.355 263.623 164.778C264.177 165.199 264.642 165.748 265.019 166.424C265.396 167.101 265.666 167.887 265.83 168.781C265.993 169.676 266.018 170.506 265.904 171.272C265.791 172.038 265.549 172.716 265.179 173.305C264.824 173.892 264.34 174.383 263.726 174.778C263.127 175.171 262.416 175.442 261.594 175.592ZM261.254 173.731C262.12 173.573 262.758 173.188 263.168 172.577C263.59 171.948 263.706 171.114 263.516 170.076L263.208 168.387C263.019 167.349 262.617 166.617 262.002 166.192C261.4 165.751 260.666 165.609 259.8 165.767C258.935 165.925 258.291 166.318 257.869 166.947C257.459 167.558 257.348 168.384 257.538 169.423L257.846 171.111C258.036 172.149 258.432 172.89 259.034 173.331C259.648 173.756 260.388 173.889 261.254 173.731ZM269.761 171.865L272.726 171.324L271.382 163.966L268.417 164.507L268.07 162.602L273.394 161.63L273.935 164.595L274.065 164.572C274.095 164.164 274.171 163.762 274.292 163.367C274.414 162.972 274.596 162.619 274.837 162.306C275.075 161.98 275.389 161.699 275.779 161.463C276.165 161.214 276.64 161.038 277.203 160.935L278.545 160.69L278.956 162.941L276.748 163.344C275.882 163.502 275.223 163.891 274.769 164.51C274.313 165.115 274.164 165.851 274.322 166.716L275.085 170.893L279.132 170.155L279.48 172.059L270.108 173.77L269.761 171.865ZM288.652 170.653C287.8 170.809 287.011 170.811 286.282 170.661C285.554 170.51 284.913 170.225 284.359 169.804C283.805 169.383 283.341 168.842 282.967 168.18C282.59 167.503 282.32 166.718 282.157 165.823C281.993 164.928 281.968 164.098 282.082 163.332C282.21 162.563 282.452 161.885 282.807 161.299C283.174 160.695 283.657 160.197 284.256 159.804C284.855 159.412 285.551 159.143 286.345 158.998C287.124 158.856 287.856 158.864 288.541 159.022C289.223 159.166 289.833 159.442 290.37 159.851C290.906 160.26 291.352 160.782 291.707 161.418C292.076 162.052 292.336 162.78 292.486 163.602L292.648 164.489L284.64 165.951L284.707 166.319C284.868 167.199 285.274 167.871 285.925 168.333C286.573 168.781 287.38 168.917 288.347 168.741C289.069 168.609 289.654 168.346 290.104 167.95C290.565 167.538 290.907 167.043 291.13 166.466L292.839 167.496C292.582 168.214 292.105 168.867 291.408 169.457C290.724 170.044 289.806 170.442 288.652 170.653ZM286.673 160.794C286.255 160.871 285.878 161.014 285.544 161.224C285.224 161.431 284.959 161.696 284.749 162.018C284.551 162.322 284.413 162.668 284.335 163.055C284.256 163.442 284.257 163.852 284.336 164.285L284.363 164.436L289.969 163.413L289.929 163.197C289.769 162.316 289.388 161.663 288.789 161.235C288.201 160.791 287.495 160.644 286.673 160.794ZM119.705 230.973C118.868 231.126 118.093 231.126 117.379 230.973C116.68 230.817 116.053 230.529 115.499 230.108C114.96 229.685 114.502 229.135 114.125 228.458C113.762 227.779 113.499 226.992 113.336 226.097C113.173 225.203 113.141 224.374 113.24 223.61C113.353 222.844 113.588 222.168 113.943 221.581C114.312 220.992 114.797 220.501 115.396 220.108C116.009 219.713 116.728 219.44 117.55 219.29C118.704 219.079 119.672 219.156 120.454 219.52C121.251 219.882 121.894 220.42 122.382 221.136L120.724 222.468C120.427 221.985 120.042 221.631 119.568 221.404C119.109 221.175 118.555 221.119 117.905 221.238C117.011 221.401 116.368 221.802 115.978 222.44C115.585 223.063 115.47 223.822 115.633 224.716L115.973 226.578C116.134 227.458 116.509 228.127 117.1 228.586C117.691 229.045 118.448 229.19 119.371 229.021C120.064 228.895 120.597 228.633 120.972 228.237C121.362 227.838 121.636 227.34 121.796 226.745L123.721 227.489C123.502 228.334 123.071 229.076 122.427 229.716C121.781 230.34 120.874 230.76 119.705 230.973ZM132.704 228.6C131.881 228.75 131.113 228.749 130.399 228.596C129.7 228.44 129.073 228.152 128.52 227.731C127.98 227.308 127.522 226.758 127.145 226.081C126.768 225.405 126.498 224.619 126.334 223.725C126.171 222.83 126.146 222 126.26 221.233C126.374 220.467 126.608 219.791 126.963 219.204C127.332 218.615 127.817 218.124 128.416 217.731C129.03 217.336 129.748 217.063 130.57 216.913C131.393 216.763 132.153 216.766 132.853 216.921C133.566 217.074 134.193 217.363 134.733 217.786C135.286 218.207 135.752 218.755 136.129 219.432C136.506 220.109 136.776 220.894 136.939 221.789C137.103 222.683 137.127 223.514 137.014 224.28C136.9 225.046 136.659 225.724 136.289 226.313C135.934 226.9 135.45 227.391 134.836 227.786C134.237 228.179 133.526 228.45 132.704 228.6ZM132.364 226.739C133.229 226.581 133.867 226.196 134.278 225.584C134.7 224.956 134.816 224.122 134.626 223.083L134.318 221.395C134.128 220.356 133.726 219.625 133.112 219.2C132.51 218.758 131.776 218.616 130.91 218.774C130.044 218.932 129.4 219.326 128.978 219.955C128.568 220.566 128.458 221.391 128.648 222.43L128.956 224.118C129.145 225.157 129.541 225.897 130.144 226.339C130.758 226.764 131.498 226.897 132.364 226.739ZM141.391 226.746L139.353 215.578L141.712 215.148L142.059 217.052L142.168 217.033C142.23 216.723 142.325 216.422 142.45 216.131C142.588 215.823 142.769 215.551 142.995 215.316C143.218 215.067 143.492 214.853 143.817 214.674C144.142 214.495 144.535 214.364 144.997 214.28C146.123 214.074 147.099 214.276 147.926 214.886C148.752 215.495 149.29 216.478 149.537 217.834L150.849 225.019L148.49 225.45L147.241 218.611C146.918 216.836 145.984 216.09 144.44 216.372C144.137 216.427 143.849 216.524 143.576 216.664C143.301 216.788 143.062 216.951 142.86 217.152C142.658 217.353 142.508 217.589 142.408 217.861C142.323 218.13 142.31 218.423 142.367 218.74L143.75 226.315L141.391 226.746ZM160.147 223.322C159.166 223.501 158.397 223.373 157.84 222.938C157.281 222.488 156.925 221.845 156.772 221.008L155.599 214.581L152.158 215.209L151.81 213.304L154.256 212.858C154.674 212.781 154.955 212.648 155.1 212.458C155.241 212.253 155.272 211.934 155.193 211.501L154.684 208.71L156.891 208.307L157.61 212.246L162.372 211.376L162.719 213.281L157.958 214.15L159.301 221.508L164.063 220.639L164.41 222.544L160.147 223.322ZM167.69 219.977L170.655 219.436L169.312 212.077L166.347 212.619L165.999 210.714L171.323 209.742L171.864 212.707L171.994 212.684C172.024 212.276 172.1 211.874 172.222 211.479C172.343 211.084 172.525 210.731 172.766 210.418C173.004 210.091 173.318 209.81 173.708 209.575C174.095 209.326 174.569 209.15 175.132 209.047L176.474 208.802L176.885 211.053L174.677 211.456C173.812 211.614 173.152 212.003 172.699 212.622C172.243 213.227 172.094 213.963 172.252 214.828L173.014 219.005L177.061 218.266L177.409 220.171L168.038 221.882L167.69 219.977ZM186.343 218.808C185.52 218.959 184.752 218.957 184.039 218.804C183.339 218.649 182.713 218.36 182.159 217.94C181.619 217.516 181.161 216.966 180.784 216.29C180.407 215.613 180.137 214.828 179.974 213.933C179.81 213.038 179.786 212.208 179.899 211.442C180.013 210.676 180.247 209.999 180.602 209.413C180.972 208.823 181.456 208.332 182.055 207.94C182.669 207.544 183.387 207.272 184.209 207.122C185.032 206.971 185.793 206.974 186.492 207.13C187.206 207.283 187.832 207.571 188.372 207.994C188.926 208.415 189.391 208.964 189.768 209.64C190.145 210.317 190.415 211.103 190.578 211.997C190.742 212.892 190.767 213.722 190.653 214.488C190.539 215.254 190.298 215.932 189.928 216.521C189.573 217.108 189.089 217.599 188.475 217.994C187.876 218.387 187.165 218.658 186.343 218.808ZM186.003 216.947C186.869 216.789 187.507 216.404 187.917 215.793C188.339 215.164 188.455 214.33 188.265 213.292L187.957 211.603C187.768 210.565 187.366 209.833 186.751 209.408C186.149 208.967 185.415 208.825 184.549 208.983C183.683 209.141 183.04 209.534 182.618 210.163C182.208 210.774 182.097 211.6 182.287 212.639L182.595 214.327C182.785 215.365 183.181 216.106 183.783 216.547C184.397 216.972 185.137 217.105 186.003 216.947ZM194.488 215.085L198.189 214.41L195.961 202.203L192.26 202.879L191.912 200.974L197.972 199.868L200.548 213.979L204.249 213.303L204.596 215.208L194.836 216.99L194.488 215.085ZM218.426 201.144L220.439 200.776L223.236 209.972L223.431 209.936L223.382 200.239L225.677 199.82L229.036 208.913L229.231 208.877L228.62 199.283L230.546 198.931L231.026 210.383L228.126 210.913L225.053 202.528L224.858 202.564L224.923 211.497L222.023 212.027L218.426 201.144ZM240.22 208.973C239.369 209.129 238.579 209.131 237.851 208.981C237.123 208.831 236.482 208.545 235.928 208.124C235.374 207.704 234.91 207.162 234.536 206.5C234.159 205.823 233.888 205.038 233.725 204.143C233.562 203.249 233.537 202.418 233.651 201.652C233.779 200.883 234.02 200.206 234.375 199.619C234.742 199.015 235.225 198.517 235.824 198.124C236.424 197.732 237.12 197.463 237.914 197.318C238.693 197.176 239.425 197.184 240.11 197.342C240.792 197.486 241.401 197.762 241.938 198.171C242.475 198.58 242.921 199.103 243.275 199.739C243.644 200.372 243.904 201.1 244.054 201.922L244.216 202.81L236.208 204.271L236.276 204.639C236.436 205.519 236.842 206.191 237.493 206.653C238.142 207.102 238.949 207.237 239.916 207.061C240.637 206.929 241.223 206.666 241.672 206.271C242.134 205.858 242.476 205.364 242.698 204.786L244.407 205.816C244.151 206.534 243.674 207.188 242.976 207.777C242.293 208.364 241.374 208.763 240.22 208.973ZM238.241 199.114C237.823 199.191 237.447 199.334 237.112 199.544C236.792 199.752 236.528 200.016 236.318 200.338C236.12 200.642 235.982 200.988 235.903 201.375C235.825 201.762 235.825 202.172 235.904 202.605L235.932 202.756L241.537 201.733L241.498 201.517C241.337 200.637 240.957 199.983 240.357 199.556C239.769 199.111 239.064 198.964 238.241 199.114ZM116.856 244.155L119.215 243.724L120.447 250.477L120.556 250.457C120.618 250.147 120.713 249.847 120.838 249.555C120.976 249.247 121.157 248.975 121.383 248.74C121.606 248.491 121.88 248.277 122.205 248.098C122.53 247.92 122.924 247.788 123.385 247.704C124.511 247.499 125.487 247.701 126.314 248.31C127.141 248.919 127.678 249.902 127.925 251.258L129.237 258.444L126.878 258.874L125.63 252.035C125.306 250.261 124.372 249.514 122.828 249.796C122.525 249.851 122.237 249.949 121.964 250.088C121.689 250.213 121.45 250.376 121.248 250.576C121.047 250.777 120.896 251.014 120.796 251.285C120.711 251.554 120.698 251.847 120.756 252.165L122.138 259.74L119.779 260.17L116.856 244.155ZM142.019 256.11C141.341 256.234 140.797 256.155 140.388 255.871C139.993 255.586 139.708 255.168 139.533 254.619L139.425 254.638C139.332 255.356 139.031 255.955 138.523 256.436C138.029 256.913 137.341 257.233 136.461 257.393C135.321 257.601 134.358 257.472 133.572 257.004C132.784 256.522 132.293 255.754 132.101 254.701C131.903 253.619 132.15 252.724 132.841 252.016C133.543 251.291 134.724 250.778 136.384 250.475L138.526 250.084L138.368 249.218C138.092 247.703 137.153 247.092 135.551 247.384C134.83 247.516 134.272 247.767 133.877 248.137C133.48 248.493 133.172 248.929 132.953 249.446L131.337 248.556C131.544 247.892 131.983 247.275 132.654 246.705C133.323 246.121 134.249 245.721 135.432 245.505C136.846 245.247 138.019 245.383 138.95 245.914C139.882 246.444 140.465 247.352 140.7 248.636L141.723 254.241L143.13 253.984L143.469 255.846L142.019 256.11ZM136.816 255.539C137.581 255.4 138.177 255.112 138.604 254.676C139.032 254.241 139.195 253.748 139.095 253.2L138.799 251.577L136.7 251.96C134.997 252.271 134.239 252.939 134.426 253.963L134.505 254.396C134.597 254.901 134.848 255.25 135.256 255.444C135.661 255.624 136.181 255.655 136.816 255.539ZM149.824 254.686L143.781 244.249L146.227 243.803L148.625 248.24L150.893 252.456L151.022 252.432L151.655 247.687L152.33 242.689L154.689 242.258L152.724 254.156L149.824 254.686ZM164.969 252.189C164.118 252.345 163.328 252.347 162.6 252.197C161.872 252.047 161.231 251.761 160.677 251.34C160.123 250.92 159.659 250.378 159.284 249.716C158.907 249.039 158.637 248.254 158.474 247.359C158.311 246.465 158.286 245.634 158.399 244.868C158.528 244.099 158.769 243.422 159.124 242.835C159.491 242.231 159.974 241.733 160.573 241.34C161.173 240.948 161.869 240.679 162.662 240.534C163.442 240.392 164.174 240.4 164.859 240.558C165.541 240.702 166.15 240.978 166.687 241.387C167.224 241.796 167.67 242.319 168.024 242.955C168.393 243.588 168.653 244.316 168.803 245.138L168.965 246.026L160.957 247.487L161.025 247.855C161.185 248.735 161.591 249.407 162.242 249.869C162.89 250.318 163.698 250.453 164.665 250.277C165.386 250.145 165.972 249.882 166.421 249.487C166.883 249.074 167.225 248.58 167.447 248.002L169.156 249.032C168.9 249.75 168.422 250.404 167.725 250.993C167.042 251.58 166.123 251.979 164.969 252.189ZM162.99 242.33C162.572 242.407 162.196 242.55 161.861 242.76C161.541 242.968 161.276 243.232 161.067 243.554C160.869 243.858 160.731 244.204 160.652 244.591C160.574 244.978 160.574 245.388 160.653 245.821L160.681 245.972L166.286 244.949L166.247 244.733C166.086 243.853 165.706 243.199 165.106 242.772C164.518 242.327 163.813 242.18 162.99 242.33ZM191.551 247.337C190.728 247.487 189.96 247.486 189.246 247.333C188.547 247.177 187.92 246.889 187.367 246.468C186.827 246.045 186.369 245.495 185.992 244.818C185.615 244.142 185.345 243.356 185.181 242.462C185.018 241.567 184.993 240.737 185.107 239.97C185.221 239.204 185.455 238.528 185.81 237.941C186.179 237.352 186.664 236.861 187.263 236.468C187.877 236.073 188.595 235.8 189.417 235.65C190.24 235.5 191 235.503 191.7 235.658C192.414 235.811 193.04 236.1 193.58 236.523C194.133 236.944 194.599 237.492 194.976 238.169C195.353 238.846 195.623 239.631 195.786 240.526C195.95 241.42 195.974 242.251 195.861 243.017C195.747 243.783 195.506 244.461 195.136 245.05C194.781 245.637 194.297 246.128 193.683 246.523C193.084 246.916 192.373 247.187 191.551 247.337ZM191.211 245.476C192.077 245.318 192.714 244.933 193.125 244.321C193.547 243.693 193.663 242.859 193.473 241.82L193.165 240.132C192.975 239.093 192.573 238.361 191.959 237.937C191.357 237.495 190.623 237.353 189.757 237.511C188.891 237.669 188.247 238.063 187.825 238.691C187.415 239.303 187.305 240.128 187.495 241.167L187.803 242.855C187.992 243.894 188.388 244.634 188.991 245.076C189.605 245.501 190.345 245.634 191.211 245.476ZM203.463 244.894L197.421 234.458L199.866 234.011L202.264 238.449L204.532 242.664L204.662 242.64L205.294 237.896L205.969 232.897L208.328 232.466L206.363 244.365L203.463 244.894ZM218.608 242.398C217.757 242.553 216.967 242.556 216.239 242.405C215.511 242.255 214.87 241.969 214.316 241.549C213.762 241.128 213.298 240.587 212.924 239.924C212.547 239.248 212.277 238.462 212.113 237.568C211.95 236.673 211.925 235.843 212.039 235.076C212.167 234.308 212.408 233.63 212.763 233.043C213.13 232.44 213.613 231.941 214.213 231.549C214.812 231.156 215.508 230.887 216.302 230.742C217.081 230.6 217.813 230.608 218.498 230.767C219.18 230.91 219.79 231.187 220.326 231.596C220.863 232.005 221.309 232.527 221.664 233.163C222.033 233.796 222.292 234.524 222.442 235.347L222.604 236.234L214.597 237.696L214.664 238.064C214.824 238.944 215.23 239.615 215.881 240.078C216.53 240.526 217.337 240.662 218.304 240.485C219.025 240.354 219.611 240.09 220.061 239.695C220.522 239.283 220.864 238.788 221.087 238.211L222.795 239.241C222.539 239.958 222.062 240.612 221.364 241.201C220.681 241.788 219.763 242.187 218.608 242.398ZM216.63 232.539C216.211 232.615 215.835 232.758 215.5 232.969C215.181 233.176 214.916 233.441 214.706 233.762C214.508 234.067 214.37 234.412 214.292 234.799C214.213 235.186 214.213 235.596 214.292 236.029L214.32 236.181L219.925 235.158L219.886 234.941C219.725 234.061 219.345 233.407 218.745 232.98C218.157 232.536 217.452 232.389 216.63 232.539ZM226.537 238.714L229.502 238.173L228.159 230.814L225.194 231.356L224.846 229.451L230.17 228.479L230.711 231.444L230.841 231.421C230.871 231.013 230.947 230.611 231.069 230.216C231.19 229.821 231.372 229.467 231.613 229.155C231.851 228.828 232.165 228.547 232.555 228.312C232.942 228.063 233.417 227.887 233.979 227.784L235.321 227.539L235.732 229.79L233.524 230.193C232.659 230.351 231.999 230.74 231.546 231.359C231.09 231.964 230.941 232.699 231.099 233.565L231.861 237.742L235.908 237.003L236.256 238.908L226.885 240.619L226.537 238.714ZM250.454 224.777L252.467 224.409L255.263 233.604L255.458 233.569L255.41 223.872L257.704 223.453L261.063 232.546L261.258 232.51L260.647 222.916L262.573 222.564L263.054 234.016L260.154 234.545L257.08 226.161L256.885 226.197L256.951 235.13L254.051 235.66L250.454 224.777ZM264.364 217.228L266.723 216.797L267.955 223.55L268.064 223.53C268.126 223.22 268.221 222.92 268.346 222.628C268.484 222.32 268.665 222.048 268.891 221.813C269.114 221.564 269.388 221.35 269.713 221.171C270.038 220.993 270.432 220.861 270.893 220.777C272.019 220.572 272.995 220.774 273.822 221.383C274.649 221.992 275.186 222.975 275.433 224.332L276.745 231.517L274.386 231.947L273.138 225.108C272.814 223.334 271.88 222.587 270.336 222.869C270.033 222.924 269.745 223.022 269.472 223.161C269.197 223.286 268.958 223.449 268.756 223.649C268.554 223.85 268.404 224.087 268.304 224.358C268.219 224.627 268.206 224.92 268.264 225.238L269.646 232.813L267.287 233.243L264.364 217.228ZM289.527 229.183C288.849 229.307 288.305 229.228 287.896 228.945C287.501 228.659 287.216 228.241 287.041 227.692L286.933 227.711C286.84 228.429 286.539 229.028 286.031 229.509C285.536 229.986 284.849 230.306 283.969 230.466C282.829 230.674 281.866 230.545 281.08 230.077C280.292 229.595 279.801 228.827 279.609 227.774C279.411 226.692 279.658 225.797 280.349 225.089C281.051 224.365 282.232 223.851 283.892 223.548L286.034 223.157L285.876 222.291C285.6 220.776 284.66 220.165 283.059 220.457C282.338 220.589 281.78 220.84 281.385 221.21C280.988 221.566 280.68 222.002 280.461 222.519L278.845 221.629C279.052 220.965 279.491 220.348 280.162 219.778C280.831 219.194 281.756 218.794 282.94 218.578C284.354 218.32 285.526 218.456 286.458 218.987C287.39 219.517 287.973 220.425 288.207 221.709L289.231 227.314L290.637 227.057L290.977 228.919L289.527 229.183ZM284.324 228.613C285.089 228.473 285.685 228.185 286.112 227.749C286.539 227.314 286.703 226.822 286.603 226.273L286.307 224.65L284.207 225.033C282.505 225.344 281.747 226.012 281.934 227.036L282.013 227.469C282.105 227.974 282.355 228.323 282.764 228.517C283.169 228.697 283.689 228.728 284.324 228.613ZM299.453 227.372C298.471 227.551 297.703 227.423 297.146 226.988C296.587 226.538 296.231 225.895 296.078 225.058L294.905 218.63L291.464 219.258L291.116 217.354L293.562 216.907C293.98 216.831 294.261 216.698 294.406 216.507C294.547 216.303 294.578 215.984 294.499 215.551L293.99 212.759L296.197 212.356L296.916 216.295L301.678 215.426L302.025 217.33L297.264 218.2L298.607 225.558L303.368 224.689L303.716 226.593L299.453 227.372ZM129.709 288.105C128.887 288.255 128.119 288.254 127.405 288.101C126.706 287.945 126.079 287.657 125.525 287.236C124.986 286.813 124.528 286.263 124.151 285.586C123.774 284.91 123.504 284.124 123.34 283.23C123.177 282.335 123.152 281.505 123.266 280.739C123.379 279.972 123.614 279.296 123.969 278.709C124.338 278.12 124.823 277.629 125.422 277.236C126.035 276.841 126.754 276.568 127.576 276.418C128.398 276.268 129.159 276.271 129.859 276.426C130.572 276.579 131.199 276.868 131.738 277.291C132.292 277.712 132.758 278.26 133.135 278.937C133.512 279.614 133.782 280.399 133.945 281.294C134.108 282.188 134.133 283.019 134.02 283.785C133.906 284.551 133.664 285.229 133.295 285.818C132.94 286.405 132.455 286.896 131.842 287.291C131.243 287.684 130.532 287.955 129.709 288.105ZM129.37 286.244C130.235 286.086 130.873 285.701 131.283 285.089C131.705 284.461 131.821 283.627 131.632 282.588L131.324 280.9C131.134 279.861 130.732 279.13 130.118 278.705C129.515 278.263 128.781 278.121 127.916 278.28C127.05 278.438 126.406 278.831 125.984 279.46C125.574 280.071 125.464 280.896 125.653 281.935L125.962 283.623C126.151 284.662 126.547 285.402 127.15 285.844C127.764 286.269 128.504 286.402 129.37 286.244ZM143.743 285.275C142.762 285.454 141.993 285.326 141.436 284.891C140.877 284.441 140.521 283.798 140.368 282.961L139.195 276.534L135.754 277.162L135.406 275.257L137.852 274.811C138.27 274.734 138.551 274.601 138.696 274.411C138.837 274.206 138.868 273.887 138.789 273.454L138.28 270.663L140.487 270.26L141.206 274.198L145.968 273.329L146.315 275.234L141.554 276.103L142.897 283.461L147.659 282.592L148.006 284.497L143.743 285.275ZM148.883 267.788L151.242 267.357L152.475 274.109L152.583 274.09C152.646 273.78 152.74 273.48 152.866 273.188C153.003 272.88 153.185 272.608 153.41 272.373C153.633 272.124 153.907 271.91 154.232 271.731C154.558 271.553 154.951 271.421 155.413 271.337C156.538 271.131 157.514 271.333 158.341 271.943C159.168 272.552 159.705 273.535 159.953 274.891L161.264 282.077L158.905 282.507L157.657 275.668C157.333 273.893 156.399 273.147 154.855 273.429C154.552 273.484 154.264 273.581 153.992 273.721C153.716 273.846 153.478 274.008 153.276 274.209C153.074 274.41 152.923 274.646 152.824 274.918C152.739 275.187 152.725 275.48 152.783 275.798L154.166 283.372L151.807 283.803L148.883 267.788ZM170.177 280.718C169.326 280.873 168.536 280.876 167.808 280.726C167.079 280.575 166.438 280.29 165.885 279.869C165.331 279.448 164.867 278.907 164.492 278.245C164.115 277.568 163.845 276.782 163.682 275.888C163.519 274.993 163.494 274.163 163.607 273.397C163.735 272.628 163.977 271.95 164.332 271.363C164.699 270.76 165.182 270.262 165.781 269.869C166.38 269.476 167.077 269.208 167.87 269.063C168.649 268.92 169.381 268.928 170.066 269.087C170.749 269.231 171.358 269.507 171.895 269.916C172.432 270.325 172.877 270.847 173.232 271.483C173.601 272.117 173.861 272.844 174.011 273.667L174.173 274.554L166.165 276.016L166.232 276.384C166.393 277.264 166.799 277.935 167.45 278.398C168.098 278.846 168.906 278.982 169.872 278.806C170.594 278.674 171.179 278.41 171.629 278.015C172.091 277.603 172.433 277.108 172.655 276.531L174.364 277.561C174.107 278.278 173.63 278.932 172.933 279.522C172.25 280.108 171.331 280.507 170.177 280.718ZM168.198 270.859C167.78 270.935 167.403 271.079 167.069 271.289C166.749 271.496 166.484 271.761 166.275 272.082C166.077 272.387 165.939 272.733 165.86 273.12C165.782 273.507 165.782 273.917 165.861 274.349L165.889 274.501L171.494 273.478L171.455 273.261C171.294 272.381 170.914 271.727 170.314 271.3C169.726 270.856 169.021 270.709 168.198 270.859ZM178.106 277.034L181.071 276.493L179.727 269.135L176.762 269.676L176.415 267.771L181.739 266.799L182.28 269.764L182.41 269.741C182.44 269.333 182.515 268.931 182.637 268.536C182.759 268.141 182.94 267.788 183.182 267.475C183.42 267.148 183.734 266.868 184.123 266.632C184.51 266.383 184.985 266.207 185.548 266.104L186.89 265.859L187.3 268.11L185.093 268.513C184.227 268.671 183.568 269.06 183.114 269.679C182.658 270.284 182.509 271.02 182.667 271.885L183.43 276.062L187.477 275.324L187.824 277.228L178.453 278.939L178.106 277.034ZM196.78 275.862C195.568 276.083 194.486 276.079 193.535 275.85C192.598 275.619 191.804 275.227 191.151 274.675L192.364 273.112C192.952 273.556 193.576 273.867 194.234 274.045C194.905 274.206 195.659 274.21 196.495 274.057C197.26 273.918 197.85 273.676 198.264 273.332C198.693 272.985 198.857 272.538 198.757 271.99C198.715 271.759 198.636 271.572 198.52 271.429C198.405 271.286 198.258 271.179 198.081 271.107C197.904 271.035 197.702 270.99 197.475 270.971C197.263 270.95 197.038 270.947 196.802 270.96L194.976 271.003C194.533 271.024 194.076 271.01 193.605 270.962C193.134 270.914 192.697 270.807 192.294 270.642C191.903 270.46 191.558 270.203 191.258 269.87C190.973 269.534 190.778 269.078 190.673 268.501C190.465 267.361 190.74 266.416 191.497 265.667C192.269 264.914 193.37 264.408 194.798 264.147C195.837 263.957 196.76 263.953 197.569 264.133C198.389 264.297 199.101 264.607 199.706 265.063L198.639 266.689C198.29 266.41 197.823 266.182 197.239 266.005C196.653 265.814 195.92 265.799 195.039 265.959C193.467 266.246 192.771 266.888 192.953 267.883C193.04 268.359 193.266 268.661 193.633 268.788C194.01 268.898 194.435 268.939 194.908 268.913L196.734 268.87C197.194 268.861 197.651 268.874 198.105 268.911C198.574 268.944 199.003 269.052 199.394 269.234C199.797 269.399 200.141 269.65 200.426 269.985C200.725 270.318 200.928 270.773 201.033 271.351C201.238 272.476 200.96 273.444 200.199 274.254C199.449 275.046 198.309 275.582 196.78 275.862ZM216.019 255.532L218.378 255.102L220.144 264.776L220.252 264.756L221.677 262.64L224.262 259.037L227.054 258.527L223.333 263.746L229.59 269.604L226.755 270.121L221.868 265.4L220.574 267.135L221.301 271.117L218.942 271.548L216.019 255.532ZM232.266 269.116L230.227 257.948L232.586 257.517L232.934 259.422L233.042 259.402C233.105 259.093 233.199 258.792 233.325 258.501C233.462 258.192 233.644 257.921 233.869 257.686C234.092 257.436 234.366 257.222 234.691 257.044C235.016 256.865 235.41 256.734 235.872 256.649C236.997 256.444 237.973 256.646 238.8 257.255C239.627 257.865 240.164 258.848 240.412 260.204L241.723 267.389L239.364 267.82L238.116 260.981C237.792 259.206 236.858 258.46 235.314 258.741C235.011 258.797 234.723 258.894 234.451 259.033C234.175 259.158 233.937 259.321 233.735 259.522C233.533 259.723 233.382 259.959 233.283 260.23C233.198 260.499 233.184 260.793 233.242 261.11L234.625 268.685L232.266 269.116ZM250.398 266.074C249.575 266.224 248.807 266.223 248.093 266.07C247.394 265.914 246.767 265.626 246.214 265.205C245.674 264.782 245.216 264.232 244.839 263.555C244.462 262.879 244.192 262.093 244.029 261.198C243.865 260.304 243.84 259.474 243.954 258.707C244.068 257.941 244.302 257.265 244.657 256.678C245.026 256.089 245.511 255.598 246.11 255.205C246.724 254.81 247.442 254.537 248.264 254.387C249.087 254.237 249.847 254.24 250.547 254.395C251.261 254.548 251.887 254.836 252.427 255.26C252.98 255.681 253.446 256.229 253.823 256.906C254.2 257.582 254.47 258.368 254.633 259.263C254.797 260.157 254.821 260.988 254.708 261.754C254.594 262.52 254.353 263.198 253.983 263.787C253.628 264.374 253.144 264.864 252.53 265.26C251.931 265.652 251.22 265.924 250.398 266.074ZM250.058 264.213C250.924 264.055 251.561 263.67 251.972 263.058C252.394 262.43 252.51 261.596 252.32 260.557L252.012 258.869C251.822 257.83 251.42 257.098 250.806 256.674C250.204 256.232 249.47 256.09 248.604 256.248C247.738 256.406 247.094 256.8 246.672 257.428C246.262 258.04 246.152 258.865 246.342 259.904L246.65 261.592C246.839 262.631 247.235 263.371 247.838 263.813C248.452 264.237 249.192 264.371 250.058 264.213ZM255.662 253.305L257.674 252.938L260.471 262.133L260.666 262.097L260.618 252.4L262.912 251.982L266.271 261.074L266.466 261.039L265.855 251.444L267.781 251.093L268.262 262.545L265.362 263.074L262.288 254.69L262.093 254.725L262.158 263.659L259.258 264.188L255.662 253.305ZM139.025 315.615C138.347 315.739 137.803 315.66 137.394 315.377C136.999 315.091 136.714 314.673 136.539 314.124L136.43 314.143C136.338 314.861 136.037 315.46 135.529 315.941C135.034 316.418 134.347 316.738 133.467 316.898C132.327 317.106 131.364 316.977 130.578 316.509C129.789 316.027 129.299 315.259 129.107 314.206C128.909 313.124 129.156 312.229 129.847 311.521C130.549 310.797 131.73 310.283 133.389 309.98L135.532 309.589L135.374 308.723C135.097 307.208 134.158 306.597 132.557 306.889C131.835 307.021 131.277 307.272 130.883 307.642C130.486 307.998 130.178 308.434 129.959 308.951L128.343 308.061C128.55 307.397 128.989 306.78 129.66 306.21C130.328 305.626 131.254 305.226 132.437 305.01C133.851 304.752 135.024 304.888 135.956 305.419C136.888 305.949 137.471 306.857 137.705 308.141L138.729 313.746L140.135 313.49L140.475 315.351L139.025 315.615ZM133.822 315.045C134.587 314.905 135.183 314.617 135.61 314.181C136.037 313.746 136.201 313.254 136.101 312.705L135.805 311.082L133.705 311.465C132.003 311.776 131.245 312.444 131.432 313.468L131.511 313.901C131.603 314.406 131.853 314.755 132.261 314.949C132.667 315.129 133.187 315.16 133.822 315.045ZM140.573 298.784L142.932 298.353L144.165 305.106L144.294 305.082C144.503 304.343 144.846 303.736 145.326 303.261C145.803 302.771 146.453 302.452 147.276 302.301C148.589 302.062 149.724 302.361 150.682 303.2C151.641 304.039 152.296 305.425 152.649 307.359C153.002 309.292 152.879 310.82 152.279 311.944C151.678 313.067 150.722 313.749 149.409 313.988C148.587 314.138 147.867 314.076 147.25 313.801C146.631 313.511 146.093 313.058 145.638 312.44L145.508 312.464L145.856 314.369L143.497 314.799L140.573 298.784ZM148.083 312.24C148.978 312.077 149.613 311.677 149.989 311.042C150.38 310.404 150.492 309.631 150.326 308.722L149.994 306.904C149.828 305.995 149.45 305.311 148.859 304.852C148.283 304.391 147.548 304.242 146.653 304.405C146.307 304.469 145.99 304.571 145.703 304.713C145.416 304.855 145.173 305.033 144.973 305.249C144.774 305.464 144.626 305.715 144.529 306.001C144.444 306.27 144.433 306.577 144.496 306.924L145.176 310.646C145.239 310.992 145.359 311.283 145.537 311.52C145.726 311.738 145.952 311.913 146.214 312.044C146.476 312.175 146.767 312.257 147.086 312.288C147.405 312.319 147.737 312.303 148.083 312.24ZM161.737 311.738C160.914 311.888 160.146 311.887 159.432 311.734C158.733 311.578 158.107 311.29 157.553 310.869C157.013 310.446 156.555 309.896 156.178 309.219C155.801 308.543 155.531 307.757 155.368 306.862C155.204 305.968 155.179 305.137 155.293 304.371C155.407 303.605 155.641 302.929 155.996 302.342C156.366 301.753 156.85 301.262 157.449 300.869C158.063 300.474 158.781 300.201 159.603 300.051C160.426 299.901 161.187 299.904 161.886 300.059C162.6 300.212 163.226 300.5 163.766 300.924C164.32 301.344 164.785 301.893 165.162 302.57C165.539 303.246 165.809 304.032 165.972 304.927C166.136 305.821 166.161 306.651 166.047 307.418C165.933 308.184 165.692 308.862 165.322 309.451C164.967 310.037 164.483 310.528 163.869 310.924C163.27 311.316 162.559 311.588 161.737 311.738ZM161.397 309.877C162.263 309.719 162.901 309.334 163.311 308.722C163.733 308.094 163.849 307.26 163.659 306.221L163.351 304.533C163.161 303.494 162.76 302.762 162.145 302.338C161.543 301.896 160.809 301.754 159.943 301.912C159.077 302.07 158.434 302.464 158.012 303.092C157.601 303.704 157.491 304.529 157.681 305.568L157.989 307.256C158.179 308.295 158.575 309.035 159.177 309.477C159.791 309.901 160.531 310.035 161.397 309.877ZM177.067 306.703L176.959 306.723C176.896 307.032 176.796 307.341 176.659 307.65C176.533 307.941 176.359 308.211 176.136 308.461C175.91 308.696 175.635 308.903 175.31 309.081C174.984 309.26 174.591 309.391 174.129 309.476C173.004 309.681 172.028 309.479 171.201 308.87C170.374 308.26 169.837 307.277 169.589 305.921L168.278 298.736L170.637 298.305L171.885 305.144C172.209 306.919 173.143 307.665 174.687 307.384C174.99 307.328 175.279 307.238 175.554 307.113C175.827 306.974 176.064 306.804 176.266 306.603C176.468 306.402 176.613 306.175 176.701 305.92C176.8 305.648 176.82 305.347 176.759 305.015L175.376 297.44L177.735 297.009L179.774 308.177L177.415 308.608L177.067 306.703ZM189.18 306.46C188.199 306.639 187.43 306.511 186.873 306.076C186.314 305.626 185.958 304.983 185.805 304.146L184.632 297.718L181.191 298.347L180.843 296.442L183.289 295.996C183.707 295.919 183.989 295.786 184.133 295.596C184.274 295.391 184.306 295.072 184.227 294.639L183.717 291.847L185.924 291.444L186.643 295.383L191.405 294.514L191.752 296.419L186.991 297.288L188.334 304.646L193.096 303.777L193.443 305.682L189.18 306.46ZM217.297 299.359L217.188 299.379C217.126 299.689 217.026 299.998 216.888 300.306C216.762 300.597 216.588 300.868 216.365 301.117C216.14 301.352 215.864 301.559 215.539 301.738C215.214 301.916 214.82 302.048 214.359 302.132C213.233 302.337 212.257 302.135 211.43 301.526C210.603 300.917 210.066 299.934 209.819 298.577L208.507 291.392L210.866 290.962L212.114 297.801C212.438 299.575 213.372 300.322 214.916 300.04C215.219 299.985 215.508 299.894 215.784 299.77C216.056 299.63 216.294 299.46 216.496 299.259C216.698 299.059 216.842 298.831 216.93 298.576C217.03 298.305 217.049 298.003 216.988 297.671L215.606 290.096L217.965 289.666L220.003 300.833L217.644 301.264L217.297 299.359ZM228.807 299.494C227.595 299.716 226.514 299.712 225.563 299.483C224.626 299.251 223.831 298.86 223.179 298.308L224.392 296.745C224.98 297.189 225.603 297.5 226.262 297.678C226.932 297.839 227.686 297.843 228.523 297.69C229.287 297.551 229.877 297.309 230.291 296.965C230.72 296.618 230.884 296.171 230.784 295.622C230.742 295.392 230.663 295.205 230.548 295.062C230.432 294.919 230.286 294.811 230.109 294.739C229.932 294.667 229.729 294.622 229.502 294.604C229.29 294.583 229.066 294.579 228.83 294.593L227.003 294.635C226.56 294.657 226.103 294.643 225.632 294.595C225.161 294.547 224.724 294.44 224.321 294.275C223.93 294.093 223.585 293.836 223.286 293.503C223.001 293.167 222.806 292.711 222.7 292.133C222.492 290.994 222.767 290.049 223.525 289.299C224.297 288.547 225.397 288.041 226.825 287.78C227.864 287.59 228.788 287.586 229.596 287.766C230.416 287.93 231.129 288.239 231.734 288.695L230.666 290.321C230.317 290.042 229.851 289.814 229.267 289.638C228.68 289.447 227.947 289.431 227.067 289.592C225.494 289.879 224.799 290.52 224.98 291.516C225.067 291.992 225.294 292.294 225.66 292.421C226.038 292.531 226.463 292.572 226.935 292.546L228.761 292.503C229.222 292.494 229.679 292.507 230.133 292.543C230.601 292.577 231.031 292.685 231.422 292.867C231.825 293.032 232.169 293.282 232.453 293.618C232.753 293.951 232.955 294.406 233.06 294.983C233.266 296.109 232.988 297.076 232.226 297.886C231.476 298.679 230.337 299.215 228.807 299.494ZM242.188 297.007C241.495 297.134 240.978 297.079 240.637 296.843C240.31 296.604 240.109 296.276 240.032 295.858L239.929 295.295C239.853 294.876 239.926 294.498 240.147 294.159C240.383 293.818 240.847 293.584 241.54 293.458C242.232 293.331 242.742 293.387 243.069 293.626C243.41 293.862 243.619 294.189 243.695 294.607L243.798 295.17C243.874 295.589 243.795 295.968 243.559 296.31C243.337 296.648 242.88 296.881 242.188 297.007Z" fill="black"/>
<defs>
<clipPath id="clip0_0_1">
<rect width="605" height="453" fill="white" transform="translate(-236)"/>
</clipPath>
</defs>
</svg>
