<svg width="376" height="394" viewBox="0 0 376 394" fill="none" xmlns="http://www.w3.org/2000/svg">
<path d="M49.6777 142C49.511 177.666 49.2777 432.7 49.6777 433.5H6.17771V145C6.17771 138.6 2.17771 138.5 0.677711 134.5C-0.822289 130.5 0.542969 66 1.17771 64C1.81245 62 4.67771 58.4 8.67771 58C12.6777 57.6 14.543 62 15.043 63.5C15.543 65 15.143 92.1 15.543 92.5C15.943 92.9 16.1777 92.3333 16.1777 92V51.5C16.011 49.5 16.9777 45.5 22.1777 45.5C27.3777 45.5 29.011 48.8333 29.1777 50.5V89C29.1777 89.8 30.1777 90 30.1777 89C30.1777 89 29.543 48 30.1777 45.5C30.8125 43 32.7777 40 37.1777 40C41.5777 40 43.3125 43.5 43.6777 45.5C44.043 47.5 43.6777 87.4 43.6777 89C43.6777 90.6 44.543 90.5 44.543 89L45.1777 57C45.3444 55 46.7777 51 51.1777 51C55.5777 51 57.3125 53.5 57.6777 57C58.043 60.5 57.6777 103 57.6777 103C61.6777 102.5 61.1777 95.9996 71.1777 89.9996C79.1777 85.1996 85.6777 92.5 83.6777 95.9996C81.6777 99.4991 73.8777 108.8 70.6777 118C67.4777 127.2 55.3444 137.833 49.6777 142Z" fill="#BF1A2F"/>
<path d="M151.365 102C151.532 137.666 151.765 392.7 151.365 393.5H194.865V105C194.865 98.6 198.865 98.5 200.365 94.5C201.865 90.5 200.5 26 199.865 24C199.231 22 196.365 18.4 192.365 18C188.365 17.6 186.5 22 186 23.5C185.5 25 185.9 52.1 185.5 52.5C185.1 52.9 184.865 52.3333 184.865 52V11.5C185.032 9.5 184.065 5.5 178.865 5.5C173.665 5.5 172.032 8.83333 171.865 10.5V49C171.865 49.8 170.865 50 170.865 49C170.865 49 171.5 8 170.865 5.5C170.231 3 168.265 0 163.865 0C159.465 0 157.731 3.5 157.365 5.5C157 7.5 157.365 47.4 157.365 49C157.365 50.6 156.5 50.5 156.5 49L155.865 17C155.699 15 154.265 11 149.865 11C145.465 11 143.731 13.5 143.365 17C143 20.5 143.365 63 143.365 63C139.365 62.5 139.865 55.9996 129.865 49.9996C121.865 45.1996 115.365 52.5 117.365 55.9996C119.365 59.4991 127.165 68.7996 130.365 77.9996C133.565 87.1996 145.699 97.8329 151.365 102Z" fill="#BF1A2F"/>
<path d="M90.3653 174C90.5319 209.666 90.7653 464.7 90.3653 465.5H133.865V177C133.865 170.6 137.865 170.5 139.365 166.5C140.865 162.5 139.5 98 138.865 96C138.231 94 135.365 90.4 131.365 90C127.365 89.6 125.5 94 125 95.5C124.5 97 124.9 124.1 124.5 124.5C124.1 124.9 123.865 124.333 123.865 124V83.5C124.032 81.5 123.065 77.5 117.865 77.5C112.665 77.5 111.032 80.8333 110.865 82.5V121C110.865 121.8 109.865 122 109.865 121C109.865 121 110.5 80 109.865 77.5C109.231 75 107.265 72 102.865 72C98.4653 72 96.7305 75.5 96.3653 77.5C96 79.5 96.3653 119.4 96.3653 121C96.3653 122.6 95.5 122.5 95.5 121L94.8653 89C94.6986 87 93.2653 83 88.8653 83C84.4653 83 82.7305 85.5 82.3653 89C82 92.5 82.3653 135 82.3653 135C78.3653 134.5 78.8653 128 68.8653 122C60.8653 117.2 54.3653 124.5 56.3653 128C58.3653 131.499 66.1653 140.8 69.3653 150C72.5653 159.2 84.6986 169.833 90.3653 174Z" fill="#454E9E"/>
<path d="M214.365 167C214.532 202.666 214.765 457.7 214.365 458.5H257.865V170C257.865 163.6 261.865 163.5 263.365 159.5C264.865 155.5 263.5 91 262.865 89C262.231 87 259.365 83.4 255.365 83C251.365 82.6 249.5 87 249 88.5C248.5 90 248.9 117.1 248.5 117.5C248.1 117.9 247.865 117.333 247.865 117V76.5C248.032 74.5 247.065 70.5 241.865 70.5C236.665 70.5 235.032 73.8333 234.865 75.5V114C234.865 114.8 233.865 115 233.865 114C233.865 114 234.5 73 233.865 70.5C233.231 68 231.265 65 226.865 65C222.465 65 220.731 68.5 220.365 70.5C220 72.5 220.365 112.4 220.365 114C220.365 115.6 219.5 115.5 219.5 114L218.865 82C218.699 80 217.265 76 212.865 76C208.465 76 206.731 78.5 206.365 82C206 85.5 206.365 128 206.365 128C202.365 127.5 202.865 121 192.865 115C184.865 110.2 178.365 117.5 180.365 121C182.365 124.499 190.165 133.8 193.365 143C196.565 152.2 208.699 162.833 214.365 167Z" fill="#018E42"/>
<path d="M324.365 106C324.532 141.666 324.765 396.7 324.365 397.5H367.865V109C367.865 102.6 371.865 102.5 373.365 98.5C374.865 94.5 373.5 30 372.865 28C372.231 26 369.365 22.4 365.365 22C361.365 21.6 359.5 26 359 27.5C358.5 29 358.9 56.1 358.5 56.5C358.1 56.9 357.865 56.3333 357.865 56V15.5C358.032 13.5 357.065 9.5 351.865 9.5C346.665 9.5 345.032 12.8333 344.865 14.5V53C344.865 53.8 343.865 54 343.865 53C343.865 53 344.5 12 343.865 9.5C343.231 7 341.265 4 336.865 4C332.465 4 330.731 7.5 330.365 9.5C330 11.5 330.365 51.4 330.365 53C330.365 54.6 329.5 54.5 329.5 53L328.865 21C328.699 19 327.265 15 322.865 15C318.465 15 316.731 17.5 316.365 21C316 24.5 316.365 67 316.365 67C312.365 66.5 312.865 59.9996 302.865 53.9996C294.865 49.1996 288.365 56.5 290.365 59.9996C292.365 63.4991 300.165 72.7996 303.365 81.9996C306.565 91.1996 318.699 101.833 324.365 106Z" fill="#E3B93E"/>
<path d="M55.3653 296C55.5319 331.666 55.7653 403.2 55.3653 404H98.8653V299C98.8653 292.6 102.865 292.5 104.365 288.5C105.865 284.5 104.5 220 103.865 218C103.231 216 100.365 212.4 96.3653 212C92.3653 211.6 90.5 216 90 217.5C89.5 219 89.9 246.1 89.5 246.5C89.1 246.9 88.8653 246.333 88.8653 246V205.5C89.0319 203.5 88.0653 199.5 82.8653 199.5C77.6653 199.5 76.0319 202.833 75.8653 204.5V243C75.8653 243.8 74.8653 244 74.8653 243C74.8653 243 75.5 202 74.8653 199.5C74.2305 197 72.2653 194 67.8653 194C63.4653 194 61.7305 197.5 61.3653 199.5C61 201.5 61.3653 241.4 61.3653 243C61.3653 244.6 60.5 244.5 60.5 243L59.8653 211C59.6986 209 58.2653 205 53.8653 205C49.4653 205 47.7305 207.5 47.3653 211C47 214.5 47.3653 257 47.3653 257C43.3653 256.5 43.8653 250 33.8653 244C25.8653 239.2 19.3653 246.5 21.3653 250C23.3653 253.499 31.1653 262.8 34.3653 272C37.5653 281.2 49.6986 291.833 55.3653 296Z" fill="#018E42"/>
<path d="M215.678 313C215.511 348.666 215.278 420.2 215.678 421H172.178V316C172.178 309.6 168.178 309.5 166.678 305.5C165.178 301.5 166.543 237 167.178 235C167.812 233 170.678 229.4 174.678 229C178.678 228.6 180.543 233 181.043 234.5C181.543 236 181.143 263.1 181.543 263.5C181.943 263.9 182.178 263.333 182.178 263V222.5C182.011 220.5 182.978 216.5 188.178 216.5C193.378 216.5 195.011 219.833 195.178 221.5V260C195.178 260.8 196.178 261 196.178 260C196.178 260 195.543 219 196.178 216.5C196.812 214 198.778 211 203.178 211C207.578 211 209.312 214.5 209.678 216.5C210.043 218.5 209.678 258.4 209.678 260C209.678 261.6 210.543 261.5 210.543 260L211.178 228C211.344 226 212.778 222 217.178 222C221.578 222 223.312 224.5 223.678 228C224.043 231.5 223.678 274 223.678 274C227.678 273.5 227.178 267 237.178 261C245.178 256.2 251.678 263.5 249.678 267C247.678 270.499 239.878 279.8 236.678 289C233.478 298.2 221.344 308.833 215.678 313Z" fill="#E3B93E"/>
<path d="M306.649 399.3C306.664 413.797 306.678 417 306.678 399.3H306.649C306.61 362.608 306.558 253.565 306.678 228C312.344 223.833 324.478 213.2 327.678 204C330.878 194.8 338.678 185.499 340.678 182C342.678 178.5 336.178 171.2 328.178 176C318.178 182 318.678 188.5 314.678 189C314.678 189 315.043 146.5 314.678 143C314.312 139.5 312.578 137 308.178 137C303.778 137 302.344 141 302.178 143L301.543 175C301.543 176.5 300.678 176.6 300.678 175C300.678 173.4 301.043 133.5 300.678 131.5C300.312 129.5 298.578 126 294.178 126C289.778 126 287.812 129 287.178 131.5C286.543 134 287.178 175 287.178 175C287.178 176 286.178 175.8 286.178 175V136.5C286.011 134.833 284.378 131.5 279.178 131.5C273.978 131.5 273.011 135.5 273.178 137.5V178C273.178 178.333 272.943 178.9 272.543 178.5C272.143 178.1 272.543 151 272.043 149.5C271.543 148 269.678 143.6 265.678 144C261.678 144.4 258.812 148 258.178 150C257.543 152 256.178 216.5 257.678 220.5C259.178 224.5 263.178 224.6 263.178 231C263.178 237.4 263.578 366.967 263.578 399.3H306.649Z" fill="#454E9E"/>
<path d="M340.649 496.3C340.664 510.797 340.678 514 340.678 496.3H340.649C340.61 459.608 340.558 350.565 340.678 325C346.344 320.833 358.478 310.2 361.678 301C364.878 291.8 372.678 282.499 374.678 279C376.678 275.5 370.178 268.2 362.178 273C352.178 279 352.678 285.5 348.678 286C348.678 286 349.043 243.5 348.678 240C348.312 236.5 346.578 234 342.178 234C337.778 234 336.344 238 336.178 240L335.543 272C335.543 273.5 334.678 273.6 334.678 272C334.678 270.4 335.043 230.5 334.678 228.5C334.312 226.5 332.578 223 328.178 223C323.778 223 321.812 226 321.178 228.5C320.543 231 321.178 272 321.178 272C321.178 273 320.178 272.8 320.178 272V233.5C320.011 231.833 318.378 228.5 313.178 228.5C307.978 228.5 307.011 232.5 307.178 234.5V275C307.178 275.333 306.943 275.9 306.543 275.5C306.143 275.1 306.543 248 306.043 246.5C305.543 245 303.678 240.6 299.678 241C295.678 241.4 292.812 245 292.178 247C291.543 249 290.178 313.5 291.678 317.5C293.178 321.5 297.178 321.6 297.178 328C297.178 334.4 297.578 463.967 297.578 496.3H340.649Z" fill="#BF1A2F"/>
</svg>
