<svg width="380" height="625" viewBox="0 0 380 625" fill="none" xmlns="http://www.w3.org/2000/svg">
<path d="M354.748 492.565C354.748 492.565 349.258 491.735 344.608 456.655C339.948 421.575 336.628 411.265 336.628 411.265C336.628 411.265 332.808 401.785 325.158 389.645C317.508 377.505 318.178 359.885 318.178 359.885C318.178 359.885 325.028 343.545 316.128 327.095C315.198 325.365 315.128 323.305 315.848 321.475C316.498 319.805 317.328 317.495 318.138 314.725C319.198 314.555 320.248 314.385 321.298 314.225C337.398 311.955 353.988 311.985 370.198 313.125C359.508 312.215 348.228 311.735 337.518 312.175C331.128 312.465 324.718 312.935 318.388 313.865C318.788 312.425 319.178 310.865 319.538 309.215C319.908 309.145 320.278 309.075 320.638 309.015C330.808 307.365 341.218 307.475 351.438 308.695C353.488 308.955 355.518 309.285 357.568 309.585C355.528 309.255 353.498 308.875 351.458 308.575C340.988 307.185 330.188 306.745 319.718 308.395C320.118 306.445 320.468 304.365 320.728 302.205C320.918 302.175 321.108 302.145 321.298 302.115C334.188 300.135 347.158 298.445 360.188 297.735C366.698 297.415 373.258 297.235 379.738 298.115C366.768 296.425 353.608 297.745 340.638 298.955C334.018 299.655 327.408 300.475 320.818 301.415C321.068 299.135 321.218 296.755 321.218 294.325C321.218 277.915 337.178 232.695 337.178 232.695C337.178 232.695 339.838 214.075 325.868 223.825C314.538 231.745 295.458 249.005 288.678 255.225C287.168 256.615 285.118 257.245 283.078 256.975C282.888 256.945 282.688 256.925 282.488 256.895C284.208 250.995 286.838 245.455 291.058 241.965C286.698 245.355 283.878 250.905 281.958 256.835C280.828 256.705 279.448 256.565 277.778 256.435C279.228 252.075 280.868 247.735 283.508 243.965C280.728 247.695 278.968 252.035 277.378 256.405C273.438 256.125 267.988 255.905 260.628 255.975C255.898 256.015 252.768 256.025 250.608 255.925C250.608 255.075 250.618 254.225 250.608 253.375C250.388 248.735 250.448 243.755 248.258 239.535C250.298 243.815 250.058 248.745 250.108 253.375C250.088 254.215 250.058 255.055 250.018 255.895C244.128 255.515 246.328 254.025 240.008 249.165C231.358 242.515 216.398 224.555 208.918 222.225C201.438 219.895 201.108 221.555 199.938 230.205C198.778 238.855 200.108 248.995 203.758 257.475C207.408 265.955 206.588 281.755 210.578 291.225C211.978 294.545 212.088 297.855 212.078 301.475C202.628 299.685 193.098 298.335 183.518 298.115C193.118 298.515 202.648 300.035 212.078 302.005C212.078 303.705 212.048 305.465 212.138 307.345C207.868 306.415 203.608 305.505 199.488 304.675C188.628 302.545 177.728 300.335 166.668 299.615C182.058 300.995 197.138 304.625 212.168 308.095C212.208 308.695 212.248 309.295 212.308 309.915C211.308 309.775 210.308 309.625 209.318 309.495C194.248 307.655 178.938 305.835 163.778 307.555C180.008 306.125 196.298 308.215 212.398 310.765C212.528 311.855 212.718 312.985 212.968 314.155C209.698 314.195 206.438 314.265 203.168 314.385C196.588 314.715 189.928 314.895 183.498 316.455C189.948 315.055 196.608 315.045 203.178 314.885C206.498 314.845 209.818 314.855 213.138 314.895C213.868 317.975 215.098 321.345 217.138 325.095C217.808 326.335 218.058 327.755 217.828 329.145C216.838 335.055 214.298 351.485 215.378 359.715C216.708 369.855 210.058 385.485 210.058 385.985C210.058 386.485 201.258 404.105 199.508 420.735C197.758 437.365 196.428 449.995 196.098 450.495C195.768 450.995 195.428 491.235 184.288 491.565C182.548 491.615 180.878 491.905 179.298 492.355C169.248 495.205 162.618 504.685 162.638 515.135C162.658 523.925 164.878 537.115 173.658 554.755C173.658 554.755 120.288 548.765 85.6977 573.375C71.0177 583.825 64.8977 592.655 62.7277 599.355C60.5177 606.185 63.4777 613.625 69.7577 617.105C78.2277 621.795 94.2977 628.545 106.318 621.595C122.888 612.005 96.7277 609.345 89.0777 607.355C87.9577 607.065 85.1377 605.625 84.1977 604.945C82.5377 603.745 81.3577 601.375 86.8577 597.325C95.6677 590.845 120.818 567.235 199.528 590.005C199.528 590.005 202.748 595.325 212.228 598.815C212.228 598.815 207.908 609.295 226.858 613.775C226.858 613.775 249.308 619.925 267.758 613.445C267.758 613.445 291.038 620.595 303.508 616.605C315.978 612.615 322.798 599.975 322.798 599.975C322.798 599.975 368.518 569.215 374.338 526.985C380.158 484.755 354.718 492.565 354.718 492.565H354.748Z" fill="#231F20"/>
<path d="M243.887 281.514C243.887 281.514 234.537 281.614 236.587 291.334C237.957 297.824 253.437 294.534 253.437 294.534C253.437 294.534 253.207 285.194 247.447 282.354C247.447 282.354 248.147 283.094 247.707 283.774C247.327 284.374 245.427 285.354 247.567 286.574C247.567 286.574 246.587 294.034 243.747 293.564C240.907 293.094 240.307 285.464 243.897 281.504L243.887 281.514Z" fill="white"/>
<path d="M285.538 284.665C285.538 284.665 276.948 286.705 278.068 296.065C278.068 296.065 278.158 295.835 284.708 297.695C291.258 299.555 296.528 294.635 296.088 291.565C295.648 288.495 293.808 284.895 288.778 283.765C288.778 283.765 289.368 285.085 289.058 285.315C288.748 285.545 287.888 286.865 289.758 287.675C289.758 287.675 291.048 296.565 287.978 296.005C284.908 295.445 283.958 288.745 285.528 284.675L285.538 284.665Z" fill="white"/>
<rect x="108.578" y="23.708" width="14.8763" height="499.484" rx="2" transform="rotate(-16.3017 108.578 23.708)" fill="#5C3D0D"/>
<rect x="-19" y="80.5596" width="287" height="212" transform="rotate(-16.3017 -19 80.5596)" fill="#ECE0E0"/>
<path d="M61.5737 89.9477C61.1258 90.0786 60.7485 90.0709 60.4417 89.9245C60.144 89.7615 59.9352 89.4752 59.8155 89.0657C59.6957 88.6562 59.7192 88.309 59.8859 88.0241C60.0654 87.7354 60.3791 87.5256 60.8271 87.3946C61.2622 87.2673 61.6267 87.2788 61.9207 87.429C62.2274 87.5754 62.4407 87.8534 62.5605 88.2629C62.6802 88.6724 62.6522 89.0279 62.4765 89.3294C62.3097 89.6143 62.0088 89.8204 61.5737 89.9477ZM63.0627 91.2626L65.8696 100.861L63.8156 101.461L61.0087 91.8633L63.0627 91.2626ZM68.6376 86.569L71.4277 96.1094C71.5662 96.5829 71.7888 96.8929 72.0956 97.0393C72.4152 97.182 72.7861 97.1916 73.2084 97.0681C73.5539 96.9671 73.8397 96.8279 74.0657 96.6507C74.288 96.4607 74.4798 96.2378 74.6412 95.9823L75.5398 97.3448C75.3203 97.6868 75.0155 97.9983 74.6253 98.2791C74.2442 98.5434 73.7912 98.7522 73.2665 98.9057C72.7163 99.0666 72.1846 99.1248 71.6715 99.0804C71.1584 99.036 70.7158 98.8528 70.3439 98.531C69.9682 98.1963 69.6785 97.7045 69.4748 97.0556L66.7521 87.7456L68.6376 86.569ZM72.7646 88.4252L73.2361 90.0377L66.0376 92.1429L65.5661 90.5304L72.7646 88.4252ZM82.3713 83.8653C81.9234 83.9963 81.5461 83.9886 81.2393 83.8421C80.9416 83.6792 80.7328 83.3929 80.6131 82.9834C80.4933 82.5739 80.5168 82.2267 80.6835 81.9417C80.863 81.6531 81.1767 81.4433 81.6247 81.3123C82.0598 81.185 82.4243 81.1965 82.7183 81.3467C83.025 81.4931 83.2383 81.7711 83.3581 82.1806C83.4778 82.5901 83.4498 82.9456 83.2741 83.2471C83.1073 83.532 82.8064 83.7381 82.3713 83.8653ZM83.8603 85.1802L86.6672 94.7782L84.6132 95.3789L81.8063 85.7809L83.8603 85.1802ZM93.9682 92.8514C93.0084 93.1321 92.0775 93.2029 91.1755 93.0638C90.2735 92.9247 89.493 92.5834 88.834 92.0399L89.8952 90.396C90.3302 90.8383 90.8568 91.1427 91.475 91.3092C92.1024 91.4592 92.7871 91.4256 93.5294 91.2085C94.118 91.0364 94.5552 90.7974 94.8409 90.4916C95.1265 90.1858 95.2151 89.8473 95.1065 89.4762C95.0354 89.233 94.8905 89.0462 94.6717 88.9157C94.462 88.7686 94.1182 88.7094 93.6404 88.738L91.5013 88.9052C90.4176 88.9998 89.5928 88.8868 89.0267 88.5662C88.4568 88.2327 88.069 87.7141 87.8631 87.0102C87.7097 86.4855 87.721 85.9543 87.8972 85.4166C88.0733 84.8789 88.4164 84.3896 88.9265 83.9487C89.4456 83.4912 90.1211 83.1409 90.9529 82.8976C91.9127 82.6169 92.7823 82.5501 93.5616 82.6973C94.3372 82.8317 94.9958 83.16 95.5375 83.6823L94.4651 85.2878C94.0722 84.8471 93.6035 84.5743 93.0589 84.4697C92.5105 84.3522 91.9804 84.3683 91.4685 84.518C91.059 84.6378 90.7221 84.7919 90.4577 84.9803C90.1933 85.1688 90.0105 85.3751 89.9093 85.5991C89.8081 85.8232 89.7931 86.0568 89.8642 86.3C89.9391 86.5559 90.1005 86.7518 90.3486 86.8876C90.5967 87.0234 90.9853 87.0696 91.5143 87.026L93.8374 86.8467C94.8112 86.7564 95.5473 86.8745 96.0457 87.2011C96.5531 87.5111 96.8966 87.9733 97.0763 88.5876C97.2559 89.2018 97.255 89.7925 97.0736 90.3596C96.8884 90.9138 96.5324 91.4069 96.0058 91.8387C95.4792 92.2706 94.8 92.6081 93.9682 92.8514ZM110.475 77.3966L112.625 76.7678L111.612 87.483L109.366 88.1398L102.72 79.6646L104.966 79.0078L109.977 86.0234L110.475 77.3966ZM115.325 74.2278C114.877 74.3588 114.5 74.3511 114.193 74.2046C113.896 74.0417 113.687 73.7554 113.567 73.3459C113.447 72.9364 113.471 72.5892 113.638 72.3042C113.817 72.0156 114.131 71.8057 114.579 71.6748C115.014 71.5475 115.378 71.559 115.672 71.7092C115.979 71.8556 116.192 72.1336 116.312 72.5431C116.432 72.9526 116.404 73.3081 116.228 73.6096C116.061 73.8945 115.76 74.1006 115.325 74.2278ZM116.814 75.5427L119.621 85.1407L117.567 85.7414L114.76 76.1434L116.814 75.5427ZM122.389 70.8492L125.179 80.3896C125.318 80.8631 125.54 81.173 125.847 81.3195C126.167 81.4622 126.538 81.4718 126.96 81.3483C127.306 81.2472 127.591 81.1081 127.817 80.9308C128.04 80.7408 128.231 80.518 128.393 80.2624L129.291 81.625C129.072 81.967 128.767 82.2784 128.377 82.5592C127.996 82.8235 127.543 83.0324 127.018 83.1858C126.468 83.3468 125.936 83.405 125.423 83.3606C124.91 83.3161 124.467 83.133 124.095 82.8111C123.72 82.4765 123.43 81.9847 123.226 81.3358L120.504 72.0257L122.389 70.8492ZM126.516 72.7054L126.988 74.3178L119.789 76.4231L119.318 74.8106L126.516 72.7054ZM135.54 73.7962C135.353 73.1563 135.03 72.716 134.571 72.4753C134.12 72.218 133.588 72.1792 132.974 72.3589C132.398 72.5273 131.944 72.8057 131.613 73.1942C131.283 73.5828 131.109 74.1058 131.093 74.7634L129.152 74.5392C129.167 73.6875 129.457 72.9219 130.022 72.2426C130.601 71.5595 131.453 71.0533 132.579 70.7239C133.347 70.4994 134.062 70.429 134.726 70.5128C135.386 70.5838 135.955 70.8202 136.434 71.222C136.925 71.62 137.285 72.2093 137.513 72.99L138.765 77.2707C138.904 77.7442 139.21 77.9117 139.683 77.7732C139.914 77.7058 140.128 77.6083 140.327 77.4807L140.627 78.9349C140.374 79.1618 140.024 79.3407 139.576 79.4717C139.166 79.5914 138.774 79.6296 138.401 79.5861C138.036 79.5261 137.714 79.377 137.436 79.1388C137.167 78.8841 136.967 78.5328 136.836 78.0849L136.797 77.9505L137.214 77.8078C137.244 78.3406 137.129 78.8257 136.868 79.2632C136.604 79.688 136.259 80.0527 135.834 80.3576C135.405 80.6496 134.948 80.8668 134.462 81.009C133.86 81.1849 133.288 81.248 132.746 81.1982C132.216 81.1447 131.754 80.9672 131.36 80.6656C130.976 80.3475 130.699 79.9005 130.531 79.3246C130.321 78.608 130.379 77.9519 130.705 77.3565C131.044 76.7573 131.618 76.2492 132.427 75.8321L135.937 74.0135L136.339 75.4588L133.795 76.8071C133.288 77.0666 132.928 77.3317 132.715 77.6022C132.502 77.8728 132.45 78.1936 132.559 78.5648C132.664 78.9231 132.882 79.1717 133.215 79.3107C133.556 79.4331 133.957 79.4269 134.418 79.2922C134.738 79.1986 135.034 79.0704 135.306 78.9076C135.59 78.741 135.83 78.5389 136.024 78.3015C136.215 78.0512 136.335 77.773 136.385 77.4668C136.443 77.1441 136.416 76.7908 136.304 76.4068L135.54 73.7962ZM141.053 63.7656L144.337 74.9953C144.475 75.4688 144.654 75.7708 144.873 75.9013C145.091 76.0318 145.393 76.0409 145.777 75.9286C146.007 75.8613 146.195 75.7923 146.341 75.7218C146.496 75.6348 146.682 75.5109 146.899 75.3502L147.118 76.9533C146.931 77.1193 146.704 77.269 146.437 77.4026C146.174 77.5489 145.902 77.6632 145.62 77.7455C144.763 77.9963 144.066 77.964 143.529 77.6487C143.001 77.3168 142.603 76.6901 142.333 75.7687L138.999 64.3663L141.053 63.7656ZM155.233 59.4726C155.63 59.3566 156.001 59.2966 156.347 59.2926C156.703 59.2721 156.984 59.3079 157.192 59.4L157.24 60.9904C157.073 60.942 156.894 60.9248 156.704 60.9388C156.51 60.94 156.297 60.9743 156.067 61.0416C155.542 61.1951 155.162 61.4383 154.926 61.7713C154.703 62.1005 154.672 62.5402 154.833 63.0905L155.242 64.4918L155.452 64.9933L158.056 73.9002L156.002 74.5009L152.791 63.5208C152.649 63.0345 152.592 62.5788 152.621 62.1537C152.662 61.7249 152.792 61.3395 153.012 60.9975C153.228 60.6426 153.522 60.3413 153.894 60.0936C154.275 59.8293 154.721 59.6223 155.233 59.4726ZM158.302 63.4096L158.773 65.0221L151.863 67.0431L151.391 65.4306L158.302 63.4096ZM164.439 61.4063C165.373 61.1331 166.257 61.0901 167.089 61.2772C167.922 61.4643 168.647 61.8774 169.265 62.5164C169.891 63.1389 170.356 63.9685 170.659 65.005C170.962 66.0416 171.02 66.9973 170.831 67.8721C170.651 68.7304 170.261 69.4627 169.661 70.069C169.06 70.6753 168.292 71.115 167.358 71.3882C166.424 71.6614 165.541 71.7045 164.708 71.5173C163.875 71.3302 163.146 70.9254 162.519 70.3029C161.889 69.6677 161.422 68.8317 161.119 67.7951C160.816 66.7586 160.76 65.8093 160.953 64.9473C161.141 64.0725 161.536 63.3319 162.137 62.7256C162.737 62.1193 163.505 61.6796 164.439 61.4063ZM164.911 63.0188C164.335 63.1872 163.881 63.4657 163.55 63.8542C163.229 64.2262 163.032 64.6935 162.96 65.2562C162.889 65.8189 162.959 66.465 163.173 67.1945C163.382 67.9111 163.671 68.4936 164.038 68.9418C164.402 69.3773 164.821 69.6714 165.296 69.8241C165.781 69.9603 166.311 69.9442 166.887 69.7758C167.463 69.6074 167.911 69.3372 168.233 68.9652C168.551 68.5804 168.746 68.1067 168.818 67.544C168.886 66.9685 168.815 66.3224 168.605 65.6057C168.392 64.8763 168.104 64.2938 167.74 63.8583C167.376 63.4229 166.959 63.1352 166.487 62.9953C166.012 62.8425 165.486 62.8504 164.911 63.0188ZM175.031 68.9361L172.224 59.3381L173.97 58.8272L174.668 60.4987C174.74 59.7968 174.979 59.2129 175.385 58.747C175.799 58.2646 176.378 57.9148 177.12 57.6977C177.312 57.6416 177.51 57.6047 177.713 57.5869C177.912 57.5564 178.085 57.5544 178.232 57.5809L178.472 59.4696C178.316 59.4595 178.145 59.4679 177.958 59.4947C177.781 59.505 177.545 59.5532 177.25 59.6392C176.854 59.7553 176.495 59.9782 176.175 60.308C175.851 60.6251 175.622 61.0322 175.49 61.5293C175.37 62.0227 175.406 62.5958 175.597 63.2484L177.085 68.3354L175.031 68.9361ZM193.322 56.8977C193.135 56.2578 192.812 55.8175 192.353 55.5768C191.902 55.3195 191.37 55.2807 190.756 55.4603C190.18 55.6287 189.726 55.9072 189.395 56.2957C189.065 56.6842 188.891 57.2073 188.875 57.8649L186.934 57.6407C186.949 56.7889 187.239 56.0234 187.804 55.3441C188.383 54.661 189.235 54.1548 190.361 53.8254C191.129 53.6008 191.844 53.5305 192.508 53.6142C193.168 53.6852 193.737 53.9216 194.216 54.3234C194.707 54.7215 195.067 55.3108 195.295 56.0914L196.547 60.3721C196.686 60.8456 196.992 61.0131 197.465 60.8747C197.696 60.8073 197.91 60.7098 198.109 60.5822L198.409 62.0364C198.156 62.2632 197.806 62.4421 197.358 62.5731C196.948 62.6929 196.556 62.731 196.183 62.6876C195.818 62.6276 195.496 62.4785 195.218 62.2403C194.949 61.9855 194.749 61.6342 194.618 61.1863L194.579 61.0519L194.996 60.9092C195.026 61.442 194.911 61.9272 194.65 62.3647C194.386 62.7894 194.041 63.1542 193.616 63.459C193.187 63.7511 192.73 63.9682 192.244 64.1104C191.642 64.2863 191.07 64.3494 190.528 64.2997C189.998 64.2462 189.536 64.0687 189.143 63.7671C188.758 63.449 188.481 63.002 188.313 62.4261C188.103 61.7094 188.161 61.0534 188.487 60.458C188.826 59.8588 189.4 59.3506 190.209 58.9335L193.719 57.115L194.121 58.5603L191.577 59.9085C191.07 60.1681 190.71 60.4332 190.497 60.7037C190.284 60.9743 190.232 61.2951 190.341 61.6662C190.446 62.0245 190.664 62.2732 190.997 62.4121C191.338 62.5346 191.739 62.5284 192.2 62.3937C192.52 62.3001 192.816 62.1719 193.088 62.009C193.372 61.8424 193.612 61.6404 193.806 61.4029C193.997 61.1526 194.117 60.8744 194.167 60.5682C194.225 60.2455 194.198 59.8922 194.086 59.5083L193.322 56.8977ZM28.3233 125.761C28.72 125.645 29.0915 125.585 29.4376 125.581C29.7928 125.56 30.0741 125.596 30.2817 125.688L30.33 127.278C30.1631 127.23 29.9844 127.213 29.794 127.227C29.5999 127.228 29.3876 127.262 29.1573 127.33C28.6326 127.483 28.2522 127.726 28.0162 128.059C27.793 128.389 27.7618 128.828 27.9228 129.379L28.3326 130.78L28.5417 131.281L31.1466 140.188L29.0926 140.789L25.8815 129.809C25.7392 129.323 25.6824 128.867 25.7109 128.442C25.7522 128.013 25.8825 127.628 26.102 127.285C26.3178 126.931 26.6117 126.629 26.9838 126.382C27.3649 126.117 27.8114 125.91 28.3233 125.761ZM31.3918 129.698L31.8634 131.31L24.9528 133.331L24.4812 131.719L31.3918 129.698ZM39.906 137.835C39.2789 138.018 38.663 138.073 38.0581 138C37.466 137.923 36.9352 137.676 36.4656 137.257C35.9959 136.839 35.6413 136.22 35.4018 135.401L33.5492 129.067L35.6032 128.466L37.3042 134.282C37.5587 135.153 37.9202 135.7 38.3886 135.924C38.8533 136.135 39.4184 136.144 40.0838 135.949C40.4037 135.856 40.6959 135.715 40.9603 135.526C41.2338 135.321 41.4584 135.068 41.6342 134.766C41.8062 134.452 41.9019 134.091 41.9214 133.682C41.9536 133.27 41.8967 132.814 41.7508 132.315L40.2294 127.113L42.2834 126.512L45.0903 136.11L43.2859 136.638L42.7352 135.111C42.5784 135.81 42.2596 136.383 41.7789 136.829C41.2981 137.275 40.6738 137.61 39.906 137.835ZM48.6831 135.06L45.8762 125.462L47.6998 124.928L48.564 127.385L48.2166 127.194C48.2349 126.592 48.3579 126.063 48.5859 125.607C48.8229 125.135 49.1474 124.748 49.5594 124.447C49.9843 124.142 50.459 123.913 50.9837 123.76C51.662 123.561 52.3092 123.518 52.9252 123.629C53.5504 123.724 54.0996 123.987 54.573 124.419C55.0464 124.85 55.401 125.468 55.6368 126.275L57.4557 132.494L55.4017 133.095L53.7681 127.509C53.4911 126.562 53.1019 125.967 52.6004 125.725C52.1079 125.466 51.5673 125.423 50.9787 125.595C50.5564 125.718 50.1768 125.94 49.8399 126.261C49.4994 126.569 49.2583 126.98 49.1168 127.494C48.9881 128.004 49.0305 128.623 49.2438 129.353L50.7371 134.459L48.6831 135.06ZM62.2353 120.469C63.0031 120.244 63.6894 120.169 64.2943 120.242C64.9082 120.299 65.4606 120.477 65.9515 120.778C66.4424 121.079 66.8605 121.464 67.2059 121.933L65.4917 123.267C65.1532 122.727 64.7534 122.358 64.2925 122.16C63.8406 121.944 63.3203 121.923 62.7316 122.095C62.1558 122.263 61.7024 122.542 61.3714 122.93C61.0368 123.306 60.8336 123.775 60.7621 124.338C60.7033 124.897 60.7805 125.541 60.9939 126.271C61.2034 126.987 61.49 127.563 61.8535 127.999C62.217 128.434 62.641 128.72 63.1253 128.856C63.6097 128.993 64.1334 128.978 64.6965 128.814C65.1316 128.686 65.4885 128.506 65.7673 128.271C66.0423 128.024 66.2429 127.736 66.3691 127.408C66.5043 127.062 66.5523 126.68 66.5131 126.261L68.5603 126.35C68.5496 126.978 68.4159 127.566 68.1592 128.114C67.9116 128.644 67.5418 129.114 67.0498 129.522C66.5541 129.917 65.9415 130.221 65.2121 130.434C64.2651 130.711 63.3688 130.758 62.5234 130.574C61.6779 130.391 60.9419 129.988 60.3153 129.366C59.6978 128.727 59.2374 127.889 58.9343 126.852C58.6311 125.816 58.5694 124.868 58.749 124.01C58.9377 123.135 59.3324 122.395 59.933 121.788C60.5464 121.178 61.3138 120.738 62.2353 120.469ZM71.2853 114.968L74.0754 124.508C74.2139 124.981 74.4365 125.291 74.7433 125.438C75.0629 125.581 75.4338 125.59 75.8561 125.467C76.2017 125.366 76.4874 125.226 76.7134 125.049C76.9357 124.859 77.1275 124.636 77.2889 124.381L78.1875 125.743C77.968 126.085 77.6632 126.397 77.273 126.678C76.8919 126.942 76.4389 127.151 75.9143 127.304C75.364 127.465 74.8323 127.523 74.3192 127.479C73.8061 127.434 73.3636 127.251 72.9916 126.929C72.6159 126.595 72.3262 126.103 72.1225 125.454L69.3998 116.144L71.2853 114.968ZM75.4123 116.824L75.8838 118.436L68.6854 120.541L68.2138 118.929L75.4123 116.824ZM78.3927 114.202C77.9448 114.333 77.5674 114.325 77.2606 114.179C76.9629 114.016 76.7542 113.729 76.6344 113.32C76.5147 112.91 76.5381 112.563 76.7049 112.278C76.8844 111.989 77.1981 111.78 77.646 111.649C78.0811 111.521 78.4457 111.533 78.7396 111.683C79.0464 111.83 79.2597 112.108 79.3794 112.517C79.4992 112.927 79.4712 113.282 79.2954 113.583C79.1287 113.868 78.8278 114.074 78.3927 114.202ZM79.8816 115.517L82.6886 125.115L80.6346 125.715L77.8277 116.117L79.8816 115.517ZM87.5886 113.054C88.5228 112.781 89.4062 112.738 90.2389 112.925C91.0716 113.112 91.7967 113.525 92.4142 114.164C93.0408 114.787 93.5056 115.616 93.8088 116.653C94.1119 117.69 94.1692 118.645 93.9805 119.52C93.8008 120.378 93.4107 121.111 92.8101 121.717C92.2094 122.323 91.442 122.763 90.5078 123.036C89.5736 123.309 88.6902 123.352 87.8575 123.165C87.0248 122.978 86.2952 122.573 85.6686 121.951C85.0383 121.316 84.5716 120.48 84.2684 119.443C83.9653 118.407 83.9099 117.457 84.1024 116.595C84.2911 115.72 84.6857 114.98 85.2863 114.374C85.887 113.767 86.6544 113.328 87.5886 113.054ZM88.0602 114.667C87.4843 114.835 87.0309 115.114 86.7 115.502C86.3781 115.874 86.1814 116.342 86.1098 116.904C86.0382 117.467 86.1091 118.113 86.3224 118.842C86.532 119.559 86.8204 120.142 87.1876 120.59C87.5512 121.025 87.9706 121.319 88.4459 121.472C88.9303 121.608 89.4604 121.592 90.0363 121.424C90.6121 121.255 91.061 120.985 91.3829 120.613C91.701 120.228 91.8958 119.755 91.9674 119.192C92.0353 118.616 91.9644 117.97 91.7548 117.254C91.5415 116.524 91.2531 115.942 90.8896 115.506C90.526 115.071 90.1085 114.783 89.6369 114.643C89.1616 114.491 88.636 114.498 88.0602 114.667ZM98.1801 120.584L95.3732 110.986L97.1968 110.453L98.061 112.909L97.7136 112.719C97.7319 112.116 97.855 111.587 98.0829 111.131C98.3199 110.659 98.6444 110.273 99.0565 109.971C99.4813 109.667 99.9561 109.437 100.481 109.284C101.159 109.086 101.806 109.042 102.422 109.154C103.047 109.249 103.597 109.512 104.07 109.943C104.543 110.374 104.898 110.993 105.134 111.799L106.953 118.019L104.899 118.619L103.265 113.033C102.988 112.086 102.599 111.492 102.097 111.249C101.605 110.99 101.064 110.947 100.476 111.119C100.053 111.243 99.6738 111.465 99.337 111.786C98.9964 112.094 98.7554 112.504 98.6139 113.018C98.4852 113.528 98.5275 114.148 98.7408 114.877L100.234 119.983L98.1801 120.584ZM108.207 105.482C107.759 105.613 107.382 105.606 107.075 105.459C106.777 105.296 106.569 105.01 106.449 104.6C106.329 104.191 106.353 103.844 106.519 103.559C106.699 103.27 107.013 103.06 107.46 102.929C107.896 102.802 108.26 102.814 108.554 102.964C108.861 103.11 109.074 103.388 109.194 103.798C109.314 104.207 109.286 104.563 109.11 104.864C108.943 105.149 108.642 105.355 108.207 105.482ZM109.696 106.797L112.503 116.395L110.449 116.996L107.642 107.398L109.696 106.797ZM116.101 115.343L113.294 105.745L115.117 105.212L115.981 107.668L115.634 107.478C115.652 106.875 115.775 106.346 116.003 105.89C116.24 105.418 116.565 105.032 116.977 104.731C117.402 104.426 117.877 104.197 118.401 104.043C119.079 103.845 119.727 103.801 120.343 103.913C120.968 104.008 121.517 104.271 121.99 104.702C122.464 105.133 122.818 105.752 123.054 106.558L124.873 112.778L122.819 113.378L121.186 107.792C120.909 106.845 120.519 106.251 120.018 106.008C119.525 105.749 118.985 105.706 118.396 105.878C117.974 106.002 117.594 106.224 117.257 106.545C116.917 106.853 116.676 107.264 116.534 107.777C116.406 108.287 116.448 108.907 116.661 109.636L118.155 114.742L116.101 115.343ZM133.419 97.6714L134.217 99.1884C134.179 99.1997 134.14 99.2109 134.102 99.2221C134.06 99.2206 134.02 99.2254 133.981 99.2366C133.367 99.4163 132.939 99.6872 132.698 100.05C132.453 100.399 132.403 100.823 132.549 101.322L131.416 101.154C131.267 100.642 131.242 100.156 131.344 99.6953C131.442 99.2222 131.655 98.8124 131.985 98.4661C132.327 98.1159 132.754 97.866 133.266 97.7163C133.291 97.7088 133.317 97.7014 133.343 97.6939C133.368 97.6864 133.394 97.6789 133.419 97.6714ZM133.345 108.675C134.317 108.39 135.136 108.387 135.801 108.665C136.462 108.93 136.903 109.44 137.124 110.195C137.318 110.861 137.274 111.492 136.99 112.089C136.71 112.699 136.242 113.238 135.588 113.707C134.946 114.173 134.158 114.542 133.224 114.816C131.65 115.276 130.414 115.373 129.517 115.108C128.619 114.842 128.064 114.345 127.851 113.615C127.701 113.104 127.749 112.603 127.995 112.115C128.254 111.622 128.811 111.223 129.666 110.917L129.641 111.258C129.07 111.3 128.575 111.223 128.156 111.026C127.746 110.812 127.461 110.43 127.3 109.88C127.139 109.33 127.214 108.801 127.524 108.293C127.834 107.786 128.363 107.388 129.113 107.099L130.339 107.303L130.109 107.371C129.535 107.594 129.158 107.85 128.979 108.139C128.799 108.427 128.749 108.706 128.827 108.975C128.921 109.295 129.105 109.498 129.381 109.584C129.669 109.666 130.03 109.644 130.465 109.517L133.345 108.675ZM132.775 113.28C133.478 113.074 134.034 112.835 134.44 112.563C134.864 112.301 135.152 112.029 135.306 111.748C135.477 111.476 135.525 111.211 135.45 110.956C135.364 110.661 135.173 110.46 134.877 110.352C134.595 110.24 134.146 110.274 133.532 110.454L130.441 111.358C130.083 111.462 129.808 111.64 129.618 111.89C129.431 112.153 129.384 112.445 129.477 112.765C129.601 113.187 129.954 113.445 130.537 113.538C131.12 113.632 131.866 113.546 132.775 113.28ZM129.077 100.921C129.921 100.674 130.69 100.595 131.383 100.684C132.089 100.769 132.679 101.007 133.154 101.396C133.642 101.781 133.981 102.3 134.172 102.952C134.363 103.605 134.357 104.225 134.153 104.812C133.963 105.396 133.593 105.914 133.045 106.366C132.509 106.814 131.819 107.162 130.974 107.409C129.643 107.798 128.534 107.803 127.645 107.424C126.765 107.029 126.183 106.345 125.898 105.372C125.708 104.719 125.714 104.099 125.917 103.512C126.12 102.925 126.49 102.407 127.026 101.958C127.574 101.506 128.258 101.16 129.077 100.921ZM129.498 102.361C128.909 102.533 128.465 102.843 128.166 103.292C127.875 103.724 127.811 104.215 127.972 104.766C128.133 105.316 128.454 105.701 128.935 105.922C129.429 106.139 129.97 106.161 130.559 105.989C131.16 105.813 131.604 105.502 131.891 105.057C132.19 104.609 132.26 104.109 132.099 103.559C131.938 103.008 131.612 102.631 131.122 102.427C130.641 102.207 130.099 102.185 129.498 102.361ZM149.488 105.787C148.695 106.019 147.914 106.032 147.145 105.827C146.389 105.617 145.717 105.195 145.129 104.562C144.541 103.928 144.095 103.093 143.792 102.056C143.477 100.981 143.41 100.015 143.59 99.1563C143.769 98.2981 144.136 97.5797 144.689 97.0011C145.238 96.4098 145.91 95.9981 146.703 95.7661C147.522 95.5265 148.279 95.5484 148.973 95.8316C149.667 96.1149 150.215 96.5867 150.616 97.2472L150.448 97.5258L148.472 90.7688L150.526 90.1681L154.596 104.085L152.772 104.618L151.855 102.053L152.129 101.993C152.208 102.595 152.143 103.156 151.934 103.676C151.721 104.183 151.398 104.624 150.967 105.001C150.544 105.36 150.051 105.623 149.488 105.787ZM149.447 104.007C149.997 103.846 150.429 103.567 150.744 103.17C151.058 102.772 151.249 102.285 151.317 101.71C151.385 101.134 151.314 100.488 151.105 99.7717C150.91 99.1062 150.635 98.5686 150.279 98.1587C149.919 97.736 149.503 97.4547 149.032 97.3148C148.573 97.1711 148.087 97.1741 147.576 97.3238C146.718 97.5746 146.139 98.0636 145.837 98.7907C145.536 99.5179 145.537 100.4 145.84 101.436C146.143 102.473 146.613 103.225 147.25 103.691C147.883 104.145 148.615 104.251 149.447 104.007ZM162.444 101.998C161.485 102.279 160.582 102.327 159.737 102.144C158.891 101.961 158.155 101.558 157.528 100.935C156.911 100.296 156.451 99.4585 156.147 98.4219C155.844 97.3853 155.783 96.4379 155.962 95.5796C156.151 94.7048 156.546 93.9643 157.146 93.358C157.747 92.7517 158.501 92.3157 159.41 92.0499C160.344 91.7767 161.194 91.7366 161.959 91.9297C162.724 92.1227 163.376 92.5015 163.916 93.0659C164.457 93.6303 164.85 94.3348 165.097 95.1794C165.164 95.4098 165.222 95.6292 165.269 95.8377C165.316 96.0462 165.349 96.231 165.368 96.392L157.652 98.6488L157.191 97.0747L164.006 95.0818L163.078 95.6865C162.824 94.8163 162.412 94.2144 161.842 93.881C161.268 93.5347 160.604 93.472 159.849 93.6928C159.299 93.8537 158.856 94.1221 158.521 94.4978C158.187 94.8735 157.985 95.3491 157.918 95.9246C157.846 96.4873 157.917 97.1334 158.13 97.8629C158.34 98.5795 158.633 99.1537 159.009 99.5854C159.385 100.017 159.822 100.299 160.319 100.432C160.816 100.564 161.353 100.546 161.929 100.378C162.569 100.191 163.051 99.9174 163.377 99.5583C163.703 99.1991 163.917 98.7683 164.02 98.2658L165.876 98.5564C165.781 99.0845 165.585 99.5793 165.289 100.041C165.003 100.486 164.617 100.877 164.132 101.213C163.647 101.549 163.084 101.811 162.444 101.998ZM169.647 99.6834L166.84 90.0854L168.663 89.5521L169.231 91.1365C169.384 90.4249 169.693 89.8415 170.157 89.3862C170.634 88.9272 171.186 88.606 171.813 88.4226C172.504 88.2205 173.184 88.1952 173.854 88.3468C174.532 88.4817 175.11 88.8197 175.588 89.3607C175.669 88.8785 175.848 88.4442 176.124 88.0579C176.4 87.6716 176.737 87.3508 177.134 87.0956C177.528 86.8276 177.937 86.6318 178.359 86.5083C178.973 86.3286 179.586 86.2882 180.199 86.387C180.811 86.4857 181.36 86.7488 181.847 87.1762C182.333 87.6035 182.696 88.2267 182.935 89.0458L184.754 95.2653L182.7 95.8659L180.977 89.9728C180.748 89.1922 180.398 88.6833 179.926 88.4464C179.454 88.2094 178.93 88.1751 178.354 88.3435C177.906 88.4745 177.522 88.7049 177.201 89.0347C176.894 89.3608 176.689 89.7751 176.586 90.2776C176.479 90.7673 176.517 91.3256 176.7 91.9527L178.227 97.174L176.173 97.7747L174.45 91.8815C174.222 91.1009 173.871 90.5921 173.399 90.3551C172.927 90.1181 172.403 90.0838 171.827 90.2522C171.443 90.3645 171.089 90.5792 170.765 90.8962C170.441 91.2132 170.215 91.6267 170.086 92.1367C169.957 92.6466 169.998 93.26 170.207 93.9766L171.701 99.0827L169.647 99.6834ZM189.554 83.2342C190.488 82.9609 191.372 82.9179 192.205 83.105C193.037 83.2922 193.762 83.7052 194.38 84.3443C195.006 84.9667 195.471 85.7963 195.774 86.8328C196.078 87.8694 196.135 88.8251 195.946 89.6999C195.766 90.5582 195.376 91.2905 194.776 91.8968C194.175 92.5031 193.408 92.9428 192.473 93.216C191.539 93.4893 190.656 93.5323 189.823 93.3452C188.991 93.158 188.261 92.7532 187.634 92.1307C187.004 91.4955 186.537 90.6595 186.234 89.623C185.931 88.5864 185.876 87.6371 186.068 86.7751C186.257 85.9003 186.651 85.1597 187.252 84.5534C187.853 83.9471 188.62 83.5074 189.554 83.2342ZM190.026 84.8466C189.45 85.015 188.997 85.2935 188.666 85.682C188.344 86.054 188.147 86.5213 188.075 87.084C188.004 87.6467 188.075 88.2928 188.288 89.0223C188.498 89.7389 188.786 90.3214 189.153 90.7696C189.517 91.2051 189.936 91.4992 190.412 91.6519C190.896 91.7881 191.426 91.772 192.002 91.6036C192.578 91.4352 193.027 91.165 193.349 90.793C193.667 90.4082 193.862 89.9345 193.933 89.3718C194.001 88.7963 193.93 88.1502 193.72 87.4335C193.507 86.7041 193.219 86.1216 192.855 85.6862C192.492 85.2507 192.074 84.963 191.603 84.8231C191.127 84.6703 190.602 84.6782 190.026 84.8466ZM201.429 79.7613C202.197 79.5368 202.883 79.4611 203.488 79.5342C204.102 79.5909 204.654 79.7697 205.145 80.0706C205.636 80.3716 206.054 80.7564 206.4 81.2249L204.685 82.5598C204.347 82.0198 203.947 81.6504 203.486 81.4518C203.034 81.2367 202.514 81.2152 201.925 81.3874C201.35 81.5558 200.896 81.8343 200.565 82.2228C200.231 82.5985 200.027 83.0677 199.956 83.6304C199.897 84.1894 199.974 84.8336 200.188 85.563C200.397 86.2797 200.684 86.8557 201.047 87.2912C201.411 87.7267 201.835 88.0125 202.319 88.1487C202.803 88.2849 203.327 88.2706 203.89 88.106C204.325 87.9787 204.682 87.7979 204.961 87.5636C205.236 87.3164 205.437 87.0286 205.563 86.6999C205.698 86.3548 205.746 85.9726 205.707 85.5534L207.754 85.6424C207.743 86.2706 207.61 86.8585 207.353 87.4058C207.105 87.9367 206.736 88.406 206.244 88.8138C205.748 89.2089 205.135 89.5131 204.406 89.7264C203.459 90.0033 202.563 90.0501 201.717 89.8667C200.872 89.6833 200.136 89.2804 199.509 88.6579C198.892 88.0189 198.431 87.1811 198.128 86.1445C197.825 85.1079 197.763 84.1605 197.943 83.3023C198.131 82.4275 198.526 81.6869 199.127 81.0806C199.74 80.4706 200.508 80.0308 201.429 79.7613ZM211.309 87.4992L208.502 77.9013L210.249 77.3904L210.946 79.0619C211.018 78.36 211.257 77.7761 211.663 77.3102C212.077 76.8277 212.656 76.478 213.398 76.2609C213.59 76.2048 213.788 76.1678 213.991 76.1501C214.19 76.1196 214.363 76.1176 214.51 76.1441L214.75 78.0327C214.594 78.0227 214.423 78.0311 214.236 78.0579C214.059 78.0682 213.823 78.1164 213.528 78.2024C213.132 78.3185 212.773 78.5414 212.453 78.8712C212.129 79.1882 211.901 79.5953 211.768 80.0925C211.648 80.5859 211.684 81.159 211.875 81.8116L213.363 86.8986L211.309 87.4992ZM223.18 77.3384C222.993 76.6986 222.67 76.2583 222.211 76.0175C221.76 75.7603 221.228 75.7215 220.614 75.9011C220.038 76.0695 219.584 76.348 219.253 76.7365C218.923 77.125 218.749 77.6481 218.733 78.3057L216.792 78.0815C216.807 77.2297 217.097 76.4642 217.662 75.7848C218.241 75.1018 219.093 74.5955 220.219 74.2662C220.987 74.0416 221.702 73.9712 222.366 74.055C223.026 74.126 223.595 74.3624 224.074 74.7642C224.565 75.1622 224.925 75.7516 225.153 76.5322L226.405 80.8129C226.544 81.2864 226.85 81.4539 227.323 81.3154C227.554 81.2481 227.768 81.1506 227.967 81.023L228.267 82.4772C228.014 82.704 227.663 82.8829 227.216 83.0139C226.806 83.1337 226.414 83.1718 226.04 83.1284C225.676 83.0684 225.354 82.9193 225.076 82.6811C224.807 82.4263 224.607 82.075 224.476 81.6271L224.437 81.4927L224.854 81.35C224.884 81.8828 224.769 82.368 224.508 82.8055C224.243 83.2302 223.899 83.595 223.474 83.8998C223.045 84.1919 222.588 84.409 222.102 84.5512C221.5 84.7271 220.928 84.7902 220.386 84.7405C219.856 84.687 219.394 84.5095 219 84.2079C218.616 83.8898 218.339 83.4428 218.171 82.8669C217.961 82.1502 218.019 81.4942 218.345 80.8987C218.684 80.2996 219.258 79.7914 220.067 79.3743L223.577 77.5558L223.979 79.0011L221.435 80.3493C220.928 80.6089 220.568 80.8739 220.355 81.1445C220.142 81.415 220.09 81.7359 220.199 82.107C220.304 82.4653 220.522 82.714 220.855 82.8529C221.196 82.9753 221.597 82.9692 222.058 82.8345C222.378 82.7409 222.674 82.6127 222.946 82.4498C223.23 82.2832 223.47 82.0812 223.664 81.8437C223.855 81.5934 223.975 81.3152 224.025 81.009C224.083 80.6863 224.056 80.333 223.944 79.9491L223.18 77.3384ZM232.031 70.8117C232.799 70.5872 233.485 70.5115 234.09 70.5847C234.704 70.6413 235.256 70.8201 235.747 71.121C236.238 71.422 236.656 71.8068 237.001 72.2753L235.287 73.6102C234.949 73.0702 234.549 72.7009 234.088 72.5023C233.636 72.2871 233.116 72.2656 232.527 72.4378C231.951 72.6062 231.498 72.8847 231.167 73.2732C230.832 73.6489 230.629 74.1181 230.558 74.6808C230.499 75.2398 230.576 75.884 230.789 76.6134C230.999 77.3301 231.286 77.9062 231.649 78.3416C232.013 78.7771 232.437 79.0629 232.921 79.1991C233.405 79.3353 233.929 79.321 234.492 79.1564C234.927 79.0291 235.284 78.8483 235.563 78.614C235.838 78.3669 236.038 78.079 236.165 77.7503C236.3 77.4052 236.348 77.023 236.309 76.6038L238.356 76.6928C238.345 77.321 238.211 77.9089 237.955 78.4563C237.707 78.9871 237.337 79.4564 236.845 79.8643C236.35 80.2593 235.737 80.5635 235.008 80.7768C234.061 81.0537 233.164 81.1005 232.319 80.9171C231.473 80.7337 230.737 80.3308 230.111 79.7083C229.493 79.0693 229.033 78.2315 228.73 77.1949C228.427 76.1584 228.365 75.2109 228.545 74.3527C228.733 73.4779 229.128 72.7373 229.729 72.131C230.342 71.521 231.109 71.0812 232.031 70.8117ZM247.231 66.5749L246.165 78.5349C246.1 79.3595 245.965 80.0379 245.76 80.5704C245.567 81.099 245.288 81.5211 244.922 81.8366C244.555 82.152 244.091 82.3921 243.528 82.5568C243.067 82.6915 242.62 82.7529 242.186 82.741C241.768 82.7381 241.382 82.6773 241.028 82.5586L241.061 80.8194C241.364 80.953 241.665 81.0317 241.963 81.0555C242.275 81.0756 242.591 81.0388 242.911 80.9452C243.256 80.8442 243.535 80.6584 243.748 80.3878C243.977 80.1263 244.12 79.6886 244.176 79.0747L244.296 77.9146L242.582 75.8319L237.46 69.4324L239.763 68.7587L243.657 74.1631L244.741 75.8047L244.797 73.6423L245.1 67.198L247.231 66.5749ZM40.0799 153.266L42.8701 162.807C43.0085 163.28 43.2312 163.59 43.5379 163.737C43.8575 163.879 44.2284 163.889 44.6508 163.766C44.9963 163.665 45.282 163.525 45.5081 163.348C45.7303 163.158 45.9222 162.935 46.0836 162.68L46.9822 164.042C46.7627 164.384 46.4578 164.696 46.0676 164.977C45.6865 165.241 45.2336 165.45 44.7089 165.603C44.1586 165.764 43.6269 165.822 43.1138 165.778C42.6007 165.733 42.1582 165.55 41.7862 165.228C41.4105 164.894 41.1208 164.402 40.9171 163.753L38.1944 154.443L40.0799 153.266ZM44.2069 155.123L44.6785 156.735L37.48 158.84L37.0084 157.228L44.2069 155.123ZM49.5042 163.992L45.4341 150.075L47.4881 149.475L49.2003 155.329C49.3444 154.634 49.6458 154.074 50.1047 153.648C50.5727 153.205 51.1394 152.887 51.8048 152.692C52.4831 152.494 53.1303 152.451 53.7463 152.562C54.3715 152.657 54.9207 152.92 55.3941 153.351C55.8675 153.782 56.2221 154.401 56.4579 155.207L58.2768 161.427L56.2228 162.027L54.5948 156.461C54.3178 155.514 53.9267 154.913 53.4215 154.657C52.929 154.399 52.3884 154.355 51.7998 154.527C51.3902 154.647 51.0107 154.869 50.661 155.194C50.3205 155.502 50.0813 155.919 49.9435 156.446C49.8149 156.956 49.859 157.582 50.0761 158.324L51.5582 163.392L49.5042 163.992ZM65.5187 152.62C65.3315 151.98 65.0083 151.54 64.5489 151.299C64.0986 151.042 63.5663 151.003 62.952 151.183C62.3762 151.351 61.9228 151.629 61.5918 152.018C61.2609 152.406 61.0874 152.93 61.0714 153.587L59.1304 153.363C59.1453 152.511 59.4354 151.746 60.0008 151.066C60.5789 150.383 61.4311 149.877 62.5573 149.548C63.3251 149.323 64.0408 149.253 64.7043 149.337C65.3641 149.408 65.9333 149.644 66.412 150.046C66.9035 150.444 67.2634 151.033 67.4917 151.814L68.7436 156.094C68.8821 156.568 69.1881 156.735 69.6616 156.597C69.8919 156.53 70.1065 156.432 70.3054 156.304L70.6056 157.759C70.3524 157.986 70.0019 158.164 69.554 158.295C69.1445 158.415 68.7528 158.453 68.3789 158.41C68.014 158.35 67.6926 158.201 67.4146 157.963C67.1456 157.708 66.9456 157.357 66.8146 156.909L66.7753 156.774L67.192 156.632C67.2228 157.164 67.1077 157.649 66.8466 158.087C66.5819 158.512 66.2371 158.876 65.8122 159.181C65.3836 159.473 64.9262 159.691 64.4399 159.833C63.8384 160.009 63.2665 160.072 62.724 160.022C62.1944 159.968 61.7327 159.791 61.3389 159.489C60.9541 159.171 60.6775 158.724 60.5091 158.148C60.2995 157.432 60.3577 156.776 60.6837 156.18C61.0224 155.581 61.5962 155.073 62.405 154.656L65.9156 152.837L66.3175 154.283L63.7737 155.631C63.2661 155.89 62.906 156.155 62.6934 156.426C62.4808 156.697 62.4288 157.017 62.5373 157.389C62.6421 157.747 62.8607 157.995 63.1931 158.134C63.5345 158.257 63.9356 158.251 64.3963 158.116C64.7162 158.022 65.0121 157.894 65.284 157.731C65.5687 157.565 65.8083 157.363 66.0027 157.125C66.1935 156.875 66.3136 156.597 66.3629 156.291C66.4214 155.968 66.3945 155.615 66.2822 155.231L65.5187 152.62ZM71.9002 143.961L74.6903 153.501C74.8288 153.974 75.0514 154.284 75.3582 154.431C75.6778 154.574 76.0487 154.583 76.471 154.46C76.8165 154.359 77.1023 154.219 77.3283 154.042C77.5506 153.852 77.7424 153.629 77.9038 153.374L78.8024 154.736C78.5829 155.078 78.2781 155.39 77.8879 155.671C77.5068 155.935 77.0538 156.144 76.5291 156.297C75.9789 156.458 75.4472 156.516 74.9341 156.472C74.421 156.428 73.9784 156.244 73.6065 155.923C73.2308 155.588 72.9411 155.096 72.7374 154.447L70.0147 145.137L71.9002 143.961ZM76.0272 145.817L76.4987 147.429L69.3002 149.534L68.8287 147.922L76.0272 145.817ZM89.1591 141.768C89.9269 141.543 90.6133 141.468 91.2181 141.541C91.832 141.597 92.3844 141.776 92.8753 142.077C93.3662 142.378 93.7843 142.763 94.1297 143.231L92.4155 144.566C92.077 144.026 91.6772 143.657 91.2163 143.458C90.7644 143.243 90.2441 143.222 89.6554 143.394C89.0796 143.562 88.6262 143.841 88.2953 144.229C87.9606 144.605 87.7575 145.074 87.6859 145.637C87.6271 146.196 87.7043 146.84 87.9177 147.57C88.1273 148.286 88.4138 148.862 88.7773 149.298C89.1408 149.733 89.5648 150.019 90.0491 150.155C90.5335 150.291 91.0572 150.277 91.6203 150.113C92.0554 149.985 92.4124 149.804 92.6911 149.57C92.9661 149.323 93.1667 149.035 93.2929 148.707C93.4281 148.361 93.4761 147.979 93.4369 147.56L95.4841 147.649C95.4734 148.277 95.3397 148.865 95.083 149.412C94.8354 149.943 94.4656 150.413 93.9736 150.82C93.4779 151.215 92.8653 151.52 92.1359 151.733C91.1889 152.01 90.2927 152.057 89.4472 151.873C88.6017 151.69 87.8657 151.287 87.2391 150.664C86.6216 150.025 86.1612 149.188 85.8581 148.151C85.5549 147.115 85.4932 146.167 85.6728 145.309C85.8615 144.434 86.2562 143.693 86.8568 143.087C87.4703 142.477 88.2377 142.037 89.1591 141.768ZM96.7968 137.992C96.3489 138.123 95.9715 138.115 95.6648 137.969C95.3671 137.806 95.1583 137.52 95.0385 137.11C94.9188 136.701 94.9423 136.354 95.109 136.069C95.2885 135.78 95.6022 135.57 96.0501 135.439C96.4852 135.312 96.8498 135.323 97.1438 135.474C97.4505 135.62 97.6638 135.898 97.7836 136.308C97.9033 136.717 97.8753 137.073 97.6995 137.374C97.5328 137.659 97.2319 137.865 96.7968 137.992ZM98.2857 139.307L101.093 148.905L99.0387 149.506L96.2318 139.908L98.2857 139.307ZM103.861 134.614L106.651 144.154C106.789 144.627 107.012 144.937 107.319 145.084C107.638 145.227 108.009 145.236 108.432 145.113C108.777 145.012 109.063 144.872 109.289 144.695C109.511 144.505 109.703 144.282 109.864 144.027L110.763 145.389C110.543 145.731 110.239 146.043 109.848 146.324C109.467 146.588 109.014 146.797 108.49 146.95C107.939 147.111 107.408 147.169 106.895 147.125C106.381 147.081 105.939 146.897 105.567 146.576C105.191 146.241 104.902 145.749 104.698 145.1L101.975 135.79L103.861 134.614ZM107.988 136.47L108.459 138.082L101.261 140.187L100.789 138.575L107.988 136.47ZM110.968 133.848C110.52 133.979 110.143 133.971 109.836 133.825C109.538 133.662 109.33 133.375 109.21 132.966C109.09 132.556 109.114 132.209 109.28 131.924C109.46 131.636 109.773 131.426 110.221 131.295C110.656 131.167 111.021 131.179 111.315 131.329C111.622 131.476 111.835 131.754 111.955 132.163C112.075 132.573 112.047 132.928 111.871 133.23C111.704 133.514 111.403 133.721 110.968 133.848ZM112.457 135.163L115.264 144.761L113.21 145.361L110.403 135.763L112.457 135.163ZM118.247 143.888L117.832 142.468L120.894 135.696L121.717 134.163L120.058 134.69L115.95 135.891L115.479 134.279L123.522 131.927L123.937 133.347L120.875 140.119L120.071 141.646L121.884 141.074L126.03 139.862L126.502 141.474L118.247 143.888ZM133.554 139.62C132.594 139.901 131.691 139.949 130.846 139.766C130 139.583 129.264 139.18 128.638 138.557C128.02 137.918 127.56 137.08 127.257 136.044C126.954 135.007 126.892 134.06 127.072 133.202C127.26 132.327 127.655 131.586 128.256 130.98C128.856 130.374 129.611 129.938 130.519 129.672C131.454 129.399 132.303 129.359 133.068 129.552C133.833 129.745 134.486 130.123 135.026 130.688C135.566 131.252 135.959 131.957 136.206 132.801C136.274 133.032 136.331 133.251 136.378 133.46C136.425 133.668 136.458 133.853 136.478 134.014L128.761 136.271L128.301 134.697L135.115 132.704L134.188 133.308C133.933 132.438 133.521 131.836 132.951 131.503C132.378 131.157 131.713 131.094 130.958 131.315C130.408 131.476 129.965 131.744 129.631 132.12C129.296 132.495 129.095 132.971 129.027 133.547C128.955 134.109 129.026 134.755 129.24 135.485C129.449 136.202 129.742 136.776 130.118 137.207C130.495 137.639 130.932 137.921 131.429 138.054C131.926 138.186 132.462 138.168 133.038 138C133.678 137.813 134.161 137.539 134.486 137.18C134.812 136.821 135.026 136.39 135.13 135.888L136.986 136.178C136.89 136.707 136.694 137.201 136.399 137.663C136.112 138.108 135.726 138.499 135.241 138.835C134.756 139.171 134.194 139.433 133.554 139.62ZM140.756 137.305L137.949 127.707L139.773 127.174L140.637 129.63L140.29 129.44C140.308 128.837 140.431 128.308 140.659 127.853C140.896 127.381 141.22 126.994 141.632 126.693C142.057 126.388 142.532 126.159 143.057 126.005C143.735 125.807 144.382 125.764 144.998 125.875C145.623 125.97 146.173 126.233 146.646 126.664C147.119 127.095 147.474 127.714 147.71 128.52L149.529 134.74L147.475 135.341L145.841 129.755C145.564 128.808 145.175 128.213 144.673 127.971C144.181 127.712 143.64 127.668 143.052 127.841C142.629 127.964 142.25 128.186 141.913 128.507C141.572 128.815 141.331 129.226 141.19 129.739C141.061 130.249 141.103 130.869 141.317 131.599L142.81 136.705L140.756 137.305ZM156.728 132.843C155.769 133.123 154.838 133.194 153.936 133.055C153.034 132.916 152.253 132.575 151.594 132.031L152.655 130.387C153.09 130.83 153.617 131.134 154.235 131.3C154.863 131.45 155.547 131.417 156.29 131.2C156.878 131.028 157.315 130.789 157.601 130.483C157.887 130.177 157.975 129.839 157.867 129.467C157.796 129.224 157.651 129.037 157.432 128.907C157.222 128.76 156.878 128.701 156.401 128.729L154.262 128.896C153.178 128.991 152.353 128.878 151.787 128.557C151.217 128.224 150.829 127.705 150.623 127.001C150.47 126.477 150.481 125.946 150.657 125.408C150.834 124.87 151.177 124.381 151.687 123.94C152.206 123.482 152.881 123.132 153.713 122.889C154.673 122.608 155.543 122.541 156.322 122.689C157.097 122.823 157.756 123.151 158.298 123.674L157.225 125.279C156.832 124.838 156.364 124.566 155.819 124.461C155.271 124.343 154.741 124.36 154.229 124.509C153.819 124.629 153.482 124.783 153.218 124.972C152.954 125.16 152.771 125.366 152.67 125.59C152.568 125.814 152.553 126.048 152.624 126.291C152.699 126.547 152.861 126.743 153.109 126.879C153.357 127.015 153.746 127.061 154.275 127.017L156.598 126.838C157.571 126.748 158.308 126.866 158.806 127.192C159.313 127.502 159.657 127.965 159.837 128.579C160.016 129.193 160.015 129.784 159.834 130.351C159.649 130.905 159.293 131.398 158.766 131.83C158.239 132.262 157.56 132.599 156.728 132.843ZM169.875 113.536C170.271 113.42 170.643 113.36 170.989 113.356C171.344 113.336 171.625 113.372 171.833 113.464L171.881 115.054C171.714 115.006 171.536 114.989 171.345 115.003C171.151 115.004 170.939 115.038 170.709 115.105C170.184 115.259 169.804 115.502 169.567 115.835C169.344 116.164 169.313 116.604 169.474 117.154L169.884 118.556L170.093 119.057L172.698 127.964L170.644 128.565L167.433 117.585C167.291 117.098 167.234 116.643 167.262 116.217C167.303 115.789 167.434 115.403 167.653 115.061C167.869 114.706 168.163 114.405 168.535 114.157C168.916 113.893 169.363 113.686 169.875 113.536ZM172.943 117.473L173.415 119.086L166.504 121.107L166.033 119.494L172.943 117.473ZM182.057 125.435C181.098 125.716 180.195 125.764 179.349 125.581C178.504 125.398 177.768 124.995 177.141 124.372C176.524 123.733 176.063 122.895 175.76 121.859C175.457 120.822 175.395 119.875 175.575 119.017C175.764 118.142 176.158 117.401 176.759 116.795C177.36 116.189 178.114 115.753 179.023 115.487C179.957 115.214 180.807 115.174 181.572 115.367C182.337 115.56 182.989 115.938 183.529 116.503C184.069 117.067 184.463 117.772 184.71 118.616C184.777 118.847 184.835 119.066 184.882 119.275C184.929 119.483 184.962 119.668 184.981 119.829L177.264 122.086L176.804 120.512L183.619 118.519L182.691 119.123C182.437 118.253 182.024 117.651 181.455 117.318C180.881 116.972 180.217 116.909 179.462 117.13C178.911 117.291 178.469 117.559 178.134 117.935C177.8 118.31 177.598 118.786 177.53 119.362C177.459 119.924 177.53 120.57 177.743 121.3C177.953 122.017 178.246 122.591 178.622 123.022C178.998 123.454 179.435 123.736 179.932 123.869C180.429 124.001 180.966 123.983 181.542 123.815C182.182 123.628 182.664 123.354 182.99 122.995C183.316 122.636 183.53 122.205 183.633 121.703L185.489 121.993C185.394 122.522 185.198 123.016 184.902 123.478C184.616 123.923 184.23 124.314 183.745 124.65C183.26 124.986 182.697 125.248 182.057 125.435ZM193.539 122.077C192.579 122.358 191.676 122.407 190.831 122.223C189.985 122.04 189.249 121.637 188.623 121.014C188.005 120.375 187.545 119.538 187.242 118.501C186.939 117.464 186.877 116.517 187.057 115.659C187.245 114.784 187.64 114.043 188.241 113.437C188.841 112.831 189.596 112.395 190.504 112.129C191.439 111.856 192.288 111.816 193.053 112.009C193.818 112.202 194.471 112.581 195.011 113.145C195.551 113.709 195.945 114.414 196.192 115.259C196.259 115.489 196.316 115.708 196.363 115.917C196.41 116.125 196.443 116.31 196.463 116.471L188.746 118.728L188.286 117.154L195.1 115.161L194.173 115.766C193.918 114.895 193.506 114.294 192.936 113.96C192.363 113.614 191.698 113.551 190.943 113.772C190.393 113.933 189.95 114.201 189.616 114.577C189.281 114.953 189.08 115.428 189.012 116.004C188.94 116.567 189.011 117.213 189.225 117.942C189.434 118.659 189.727 119.233 190.104 119.665C190.48 120.096 190.917 120.378 191.414 120.511C191.911 120.643 192.447 120.625 193.023 120.457C193.663 120.27 194.146 119.997 194.471 119.637C194.797 119.278 195.011 118.847 195.115 118.345L196.971 118.636C196.875 119.164 196.68 119.658 196.384 120.12C196.097 120.565 195.711 120.956 195.226 121.292C194.741 121.628 194.179 121.89 193.539 122.077ZM198.667 105.262L201.952 116.491C202.09 116.965 202.269 117.267 202.487 117.397C202.706 117.528 203.008 117.537 203.392 117.425C203.622 117.357 203.81 117.288 203.956 117.218C204.111 117.131 204.297 117.007 204.514 116.846L204.733 118.449C204.545 118.615 204.318 118.765 204.052 118.899C203.789 119.045 203.517 119.159 203.235 119.242C202.378 119.492 201.681 119.46 201.144 119.145C200.616 118.813 200.218 118.186 199.948 117.265L196.614 105.862L198.667 105.262ZM212.04 102.976L214.83 112.517C214.968 112.99 215.191 113.3 215.498 113.447C215.817 113.589 216.188 113.599 216.61 113.475C216.956 113.374 217.242 113.235 217.468 113.058C217.69 112.868 217.882 112.645 218.043 112.39L218.942 113.752C218.722 114.094 218.417 114.406 218.027 114.686C217.646 114.951 217.193 115.16 216.668 115.313C216.118 115.474 215.587 115.532 215.073 115.488C214.56 115.443 214.118 115.26 213.746 114.938C213.37 114.604 213.08 114.112 212.877 113.463L210.154 104.153L212.04 102.976ZM216.166 104.833L216.638 106.445L209.44 108.55L208.968 106.938L216.166 104.833ZM221.464 113.702L217.394 99.7851L219.448 99.1844L221.16 105.039C221.304 104.344 221.605 103.784 222.064 103.358C222.532 102.915 223.099 102.597 223.764 102.402C224.443 102.204 225.09 102.16 225.706 102.272C226.331 102.367 226.88 102.63 227.354 103.061C227.827 103.492 228.182 104.111 228.417 104.917L230.236 111.137L228.182 111.737L226.554 106.17C226.277 105.223 225.886 104.622 225.381 104.367C224.889 104.109 224.348 104.065 223.759 104.237C223.35 104.357 222.97 104.579 222.621 104.904C222.28 105.212 222.041 105.629 221.903 106.155C221.774 106.665 221.819 107.292 222.036 108.034L223.518 113.102L221.464 113.702ZM238.012 109.071C237.052 109.352 236.15 109.4 235.304 109.217C234.459 109.034 233.723 108.631 233.096 108.008C232.478 107.369 232.018 106.531 231.715 105.495C231.412 104.458 231.35 103.511 231.53 102.653C231.718 101.778 232.113 101.037 232.714 100.431C233.314 99.8245 234.069 99.3885 234.978 99.1228C235.912 98.8496 236.761 98.8095 237.526 99.0026C238.291 99.1956 238.944 99.5743 239.484 100.139C240.024 100.703 240.418 101.408 240.665 102.252C240.732 102.483 240.789 102.702 240.836 102.911C240.883 103.119 240.917 103.304 240.936 103.465L233.219 105.722L232.759 104.148L239.573 102.155L238.646 102.759C238.391 101.889 237.979 101.287 237.409 100.954C236.836 100.608 236.171 100.545 235.416 100.766C234.866 100.927 234.424 101.195 234.089 101.571C233.754 101.946 233.553 102.422 233.485 102.997C233.414 103.56 233.484 104.206 233.698 104.936C233.907 105.652 234.2 106.227 234.577 106.658C234.953 107.09 235.39 107.372 235.887 107.505C236.384 107.637 236.92 107.619 237.496 107.451C238.136 107.263 238.619 106.99 238.945 106.631C239.27 106.272 239.485 105.841 239.588 105.339L241.444 105.629C241.348 106.157 241.153 106.652 240.857 107.114C240.57 107.559 240.184 107.949 239.699 108.286C239.214 108.622 238.652 108.884 238.012 109.071ZM250.403 94.8199L249.337 106.78C249.273 107.604 249.138 108.283 248.933 108.815C248.74 109.344 248.46 109.766 248.094 110.082C247.728 110.397 247.263 110.637 246.7 110.802C246.24 110.937 245.792 110.998 245.358 110.986C244.941 110.983 244.555 110.922 244.2 110.804L244.234 109.064C244.537 109.198 244.837 109.277 245.136 109.301C245.448 109.321 245.763 109.284 246.083 109.19C246.429 109.089 246.708 108.903 246.92 108.633C247.15 108.371 247.292 107.934 247.349 107.32L247.468 106.16L245.755 104.077L240.632 97.6774L242.936 97.0037L246.829 102.408L247.914 104.05L247.969 101.887L248.272 95.443L250.403 94.8199ZM69.547 176.676C70.3148 176.452 71.0012 176.376 71.606 176.449C72.2199 176.506 72.7723 176.685 73.2632 176.986C73.7541 177.287 74.1722 177.671 74.5177 178.14L72.8034 179.475C72.4649 178.935 72.0652 178.565 71.6042 178.367C71.1523 178.152 70.632 178.13 70.0434 178.302C69.4675 178.471 69.0141 178.749 68.6832 179.138C68.3485 179.513 68.1454 179.983 68.0738 180.545C68.015 181.104 68.0923 181.749 68.3056 182.478C68.5152 183.195 68.8017 183.771 69.1652 184.206C69.5288 184.642 69.9527 184.928 70.4371 185.064C70.9214 185.2 71.4452 185.186 72.0082 185.021C72.4433 184.894 72.8003 184.713 73.079 184.479C73.3541 184.231 73.5547 183.944 73.6808 183.615C73.816 183.27 73.864 182.888 73.8248 182.468L75.8721 182.557C75.8613 183.186 75.7276 183.773 75.4709 184.321C75.2233 184.852 74.8535 185.321 74.3616 185.729C73.8658 186.124 73.2533 186.428 72.5238 186.641C71.5768 186.918 70.6806 186.965 69.8351 186.782C68.9896 186.598 68.2536 186.195 67.627 185.573C67.0095 184.934 66.5492 184.096 66.246 183.06C65.9429 182.023 65.8811 181.076 66.0608 180.217C66.2495 179.342 66.6441 178.602 67.2447 177.996C67.8582 177.386 68.6256 176.946 69.547 176.676ZM83.1722 176.63C82.9851 175.99 82.6618 175.55 82.2025 175.309C81.7521 175.052 81.2198 175.013 80.6056 175.193C80.0297 175.361 79.5763 175.639 79.2454 176.028C78.9145 176.416 78.741 176.94 78.7249 177.597L76.7839 177.373C76.7988 176.521 77.0889 175.756 77.6543 175.076C78.2325 174.393 79.0846 173.887 80.2108 173.558C80.9786 173.333 81.6943 173.263 82.3578 173.347C83.0176 173.418 83.5869 173.654 84.0655 174.056C84.557 174.454 84.9169 175.043 85.1452 175.824L86.3971 180.104C86.5356 180.578 86.8416 180.745 87.3151 180.607C87.5454 180.54 87.76 180.442 87.9589 180.314L88.2591 181.769C88.006 181.996 87.6554 182.174 87.2075 182.305C86.798 182.425 86.4063 182.463 86.0324 182.42C85.6676 182.36 85.3461 182.211 85.0681 181.973C84.7991 181.718 84.5991 181.367 84.4681 180.919L84.4288 180.784L84.8455 180.642C84.8763 181.174 84.7612 181.659 84.5002 182.097C84.2354 182.522 83.8906 182.886 83.4658 183.191C83.0372 183.483 82.5797 183.701 82.0934 183.843C81.492 184.019 80.92 184.082 80.3776 184.032C79.8479 183.978 79.3862 183.801 78.9924 183.499C78.6076 183.181 78.331 182.734 78.1626 182.158C77.953 181.442 78.0112 180.786 78.3372 180.19C78.676 179.591 79.2497 179.083 80.0585 178.666L83.5692 176.847L83.971 178.293L81.4272 179.641C80.9196 179.9 80.5596 180.165 80.347 180.436C80.1344 180.707 80.0823 181.027 80.1909 181.399C80.2957 181.757 80.5142 182.005 80.8466 182.144C81.188 182.267 81.5891 182.261 82.0498 182.126C82.3697 182.032 82.6656 181.904 82.9375 181.741C83.2222 181.575 83.4618 181.373 83.6563 181.135C83.847 180.885 83.9671 180.607 84.0165 180.301C84.0749 179.978 84.048 179.625 83.9357 179.241L83.1722 176.63ZM90.7583 181.1L87.9513 171.502L89.7749 170.969L90.6391 173.425L90.2917 173.235C90.31 172.632 90.4331 172.103 90.661 171.648C90.898 171.175 91.2225 170.789 91.6346 170.488C92.0594 170.183 92.5342 169.954 93.0589 169.8C93.7371 169.602 94.3843 169.558 95.0004 169.67C95.6255 169.765 96.1748 170.028 96.6481 170.459C97.1215 170.89 97.4761 171.509 97.7119 172.315L99.5308 178.535L97.4768 179.135L95.8432 173.549C95.5662 172.602 95.177 172.008 94.6755 171.765C94.183 171.507 93.6425 171.463 93.0538 171.635C92.6315 171.759 92.2519 171.981 91.9151 172.302C91.5745 172.61 91.3335 173.021 91.192 173.534C91.0633 174.044 91.1056 174.664 91.3189 175.393L92.8122 180.5L90.7583 181.1ZM113.933 174.531C112.973 174.812 112.07 174.861 111.225 174.677C110.379 174.494 109.643 174.091 109.017 173.468C108.399 172.829 107.939 171.992 107.636 170.955C107.333 169.918 107.271 168.971 107.45 168.113C107.639 167.238 108.034 166.497 108.634 165.891C109.235 165.285 109.99 164.849 110.898 164.583C111.833 164.31 112.682 164.27 113.447 164.463C114.212 164.656 114.865 165.035 115.405 165.599C115.945 166.163 116.338 166.868 116.585 167.712C116.653 167.943 116.71 168.162 116.757 168.371C116.804 168.579 116.837 168.764 116.857 168.925L109.14 171.182L108.68 169.608L115.494 167.615L114.567 168.22C114.312 167.349 113.9 166.748 113.33 166.414C112.756 166.068 112.092 166.005 111.337 166.226C110.787 166.387 110.344 166.655 110.01 167.031C109.675 167.407 109.474 167.882 109.406 168.458C109.334 169.02 109.405 169.667 109.619 170.396C109.828 171.113 110.121 171.687 110.497 172.119C110.874 172.55 111.31 172.832 111.808 172.965C112.305 173.097 112.841 173.079 113.417 172.911C114.057 172.724 114.54 172.451 114.865 172.091C115.191 171.732 115.405 171.301 115.508 170.799L117.365 171.09C117.269 171.618 117.073 172.112 116.778 172.574C116.491 173.019 116.105 173.41 115.62 173.746C115.135 174.082 114.573 174.344 113.933 174.531ZM119.432 162.296L123.34 165.612L123.74 165.557L129.226 169.85L126.788 170.563L122.731 167.165L122.245 167.141L116.955 163.02L119.432 162.296ZM126.361 160.269L124.104 166.514L123.676 166.618L121.912 171.989L119.57 172.674L122.059 166.007L122.474 165.928L124 160.96L126.361 160.269ZM132.858 173.164L128.872 159.535L130.696 159.002L131.636 161.644L131.271 161.396C131.279 160.852 131.387 160.342 131.594 159.864C131.802 159.387 132.111 158.97 132.521 158.614C132.943 158.254 133.442 157.99 134.018 157.821C134.799 157.593 135.567 157.584 136.323 157.793C137.079 158.003 137.751 158.425 138.339 159.058C138.924 159.679 139.369 160.514 139.676 161.564C139.983 162.613 140.055 163.572 139.892 164.439C139.738 165.29 139.393 166.009 138.856 166.596C138.332 167.18 137.673 167.588 136.88 167.82C136.061 168.06 135.302 168.053 134.602 167.799C133.899 167.532 133.329 167.101 132.891 166.507L133.026 166.113L134.912 172.563L132.858 173.164ZM135.95 166.279C136.782 166.036 137.342 165.553 137.631 164.829C137.932 164.102 137.931 163.22 137.628 162.184C137.325 161.147 136.857 160.402 136.224 159.948C135.587 159.481 134.859 159.368 134.04 159.607C133.503 159.764 133.071 160.044 132.743 160.445C132.425 160.83 132.224 161.305 132.14 161.872C132.064 162.422 132.128 163.042 132.33 163.733C132.528 164.411 132.809 164.968 133.173 165.404C133.536 165.839 133.956 166.133 134.431 166.286C134.906 166.439 135.413 166.436 135.95 166.279ZM144.098 165.501L141.291 155.903L143.038 155.392L143.735 157.064C143.808 156.362 144.047 155.778 144.452 155.312C144.867 154.829 145.445 154.48 146.188 154.263C146.38 154.206 146.577 154.169 146.78 154.152C146.98 154.121 147.153 154.119 147.3 154.146L147.539 156.034C147.384 156.024 147.212 156.033 147.026 156.06C146.848 156.07 146.612 156.118 146.318 156.204C145.921 156.32 145.563 156.543 145.242 156.873C144.918 157.19 144.69 157.597 144.558 158.094C144.438 158.588 144.474 159.161 144.664 159.813L146.152 164.9L144.098 165.501ZM156.466 162.092C155.506 162.373 154.604 162.422 153.758 162.238C152.913 162.055 152.177 161.652 151.55 161.029C150.932 160.39 150.472 159.553 150.169 158.516C149.866 157.479 149.804 156.532 149.984 155.674C150.172 154.799 150.567 154.058 151.168 153.452C151.768 152.846 152.523 152.41 153.432 152.144C154.366 151.871 155.215 151.831 155.98 152.024C156.745 152.217 157.398 152.596 157.938 153.16C158.478 153.724 158.872 154.429 159.119 155.274C159.186 155.504 159.243 155.723 159.29 155.932C159.337 156.14 159.371 156.325 159.39 156.486L151.673 158.743L151.213 157.169L158.027 155.176L157.1 155.781C156.845 154.91 156.433 154.309 155.863 153.975C155.29 153.629 154.625 153.566 153.87 153.787C153.32 153.948 152.878 154.216 152.543 154.592C152.208 154.968 152.007 155.443 151.939 156.019C151.868 156.581 151.938 157.228 152.152 157.957C152.361 158.674 152.654 159.248 153.031 159.68C153.407 160.111 153.844 160.393 154.341 160.526C154.838 160.658 155.375 160.64 155.95 160.472C156.59 160.285 157.073 160.012 157.399 159.652C157.724 159.293 157.939 158.862 158.042 158.36L159.898 158.651C159.802 159.179 159.607 159.673 159.311 160.135C159.024 160.58 158.639 160.971 158.153 161.307C157.668 161.643 157.106 161.905 156.466 162.092ZM167.372 158.903C166.412 159.184 165.481 159.254 164.579 159.115C163.677 158.976 162.897 158.635 162.237 158.091L163.299 156.447C163.734 156.89 164.26 157.194 164.879 157.361C165.506 157.511 166.191 157.477 166.933 157.26C167.522 157.088 167.959 156.849 168.244 156.543C168.53 156.237 168.619 155.899 168.51 155.528C168.439 155.284 168.294 155.098 168.075 154.967C167.866 154.82 167.522 154.761 167.044 154.789L164.905 154.957C163.821 155.051 162.996 154.938 162.43 154.618C161.86 154.284 161.472 153.766 161.267 153.062C161.113 152.537 161.125 152.006 161.301 151.468C161.477 150.93 161.82 150.441 162.33 150C162.849 149.543 163.525 149.192 164.356 148.949C165.316 148.668 166.186 148.602 166.965 148.749C167.741 148.883 168.399 149.211 168.941 149.734L167.869 151.339C167.476 150.898 167.007 150.626 166.462 150.521C165.914 150.404 165.384 150.42 164.872 150.569C164.463 150.689 164.126 150.843 163.861 151.032C163.597 151.22 163.414 151.426 163.313 151.651C163.212 151.875 163.197 152.108 163.268 152.351C163.343 152.607 163.504 152.803 163.752 152.939C164 153.075 164.389 153.121 164.918 153.077L167.241 152.898C168.215 152.808 168.951 152.926 169.449 153.253C169.957 153.563 170.3 154.025 170.48 154.639C170.659 155.253 170.659 155.844 170.477 156.411C170.292 156.965 169.936 157.458 169.409 157.89C168.883 158.322 168.204 158.66 167.372 158.903ZM177.916 155.819C176.956 156.1 176.025 156.171 175.123 156.032C174.221 155.892 173.441 155.551 172.782 155.008L173.843 153.364C174.278 153.806 174.805 154.11 175.423 154.277C176.05 154.427 176.735 154.393 177.477 154.176C178.066 154.004 178.503 153.765 178.789 153.459C179.074 153.153 179.163 152.815 179.054 152.444C178.983 152.201 178.838 152.014 178.62 151.883C178.41 151.736 178.066 151.677 177.588 151.706L175.449 151.873C174.365 151.968 173.541 151.855 172.974 151.534C172.405 151.2 172.017 150.682 171.811 149.978C171.657 149.453 171.669 148.922 171.845 148.384C172.021 147.847 172.364 147.357 172.874 146.916C173.393 146.459 174.069 146.109 174.901 145.865C175.861 145.585 176.73 145.518 177.509 145.665C178.285 145.799 178.944 146.128 179.485 146.65L178.413 148.256C178.02 147.815 177.551 147.542 177.007 147.437C176.458 147.32 175.928 147.336 175.416 147.486C175.007 147.605 174.67 147.76 174.405 147.948C174.141 148.137 173.958 148.343 173.857 148.567C173.756 148.791 173.741 149.025 173.812 149.268C173.887 149.524 174.048 149.72 174.296 149.855C174.545 149.991 174.933 150.037 175.462 149.994L177.785 149.814C178.759 149.724 179.495 149.842 179.993 150.169C180.501 150.479 180.844 150.941 181.024 151.555C181.204 152.17 181.203 152.76 181.021 153.327C180.836 153.882 180.48 154.375 179.954 154.806C179.427 155.238 178.748 155.576 177.916 155.819ZM190.254 138.521L193.044 148.061C193.182 148.534 193.405 148.844 193.712 148.991C194.031 149.134 194.402 149.143 194.824 149.02C195.17 148.919 195.456 148.779 195.682 148.602C195.904 148.412 196.096 148.189 196.257 147.934L197.156 149.296C196.936 149.638 196.632 149.95 196.241 150.231C195.86 150.495 195.407 150.704 194.883 150.857C194.332 151.018 193.801 151.076 193.288 151.032C192.774 150.987 192.332 150.804 191.96 150.482C191.584 150.148 191.295 149.656 191.091 149.007L188.368 139.697L190.254 138.521ZM194.381 140.377L194.852 141.989L187.654 144.094L187.182 142.482L194.381 140.377ZM199.678 149.246L195.608 135.329L197.662 134.729L199.374 140.583C199.518 139.888 199.82 139.328 200.278 138.902C200.746 138.459 201.313 138.141 201.979 137.946C202.657 137.748 203.304 137.705 203.92 137.816C204.545 137.911 205.094 138.174 205.568 138.605C206.041 139.036 206.396 139.655 206.632 140.461L208.45 146.681L206.397 147.282L204.768 141.715C204.492 140.768 204.1 140.167 203.595 139.912C203.103 139.653 202.562 139.609 201.973 139.782C201.564 139.901 201.184 140.123 200.835 140.448C200.494 140.756 200.255 141.173 200.117 141.7C199.989 142.21 200.033 142.836 200.25 143.578L201.732 148.646L199.678 149.246ZM216.226 144.615C215.266 144.896 214.364 144.945 213.518 144.761C212.673 144.578 211.937 144.175 211.31 143.552C210.693 142.913 210.232 142.076 209.929 141.039C209.626 140.002 209.564 139.055 209.744 138.197C209.933 137.322 210.327 136.581 210.928 135.975C211.528 135.369 212.283 134.933 213.192 134.667C214.126 134.394 214.975 134.354 215.74 134.547C216.505 134.74 217.158 135.119 217.698 135.683C218.238 136.247 218.632 136.952 218.879 137.796C218.946 138.027 219.003 138.246 219.05 138.455C219.098 138.663 219.131 138.848 219.15 139.009L211.433 141.266L210.973 139.692L217.787 137.699L216.86 138.304C216.605 137.433 216.193 136.831 215.623 136.498C215.05 136.152 214.386 136.089 213.63 136.31C213.08 136.471 212.638 136.739 212.303 137.115C211.968 137.491 211.767 137.966 211.699 138.542C211.628 139.104 211.699 139.75 211.912 140.48C212.121 141.197 212.414 141.771 212.791 142.202C213.167 142.634 213.604 142.916 214.101 143.049C214.598 143.181 215.135 143.163 215.711 142.995C216.35 142.808 216.833 142.534 217.159 142.175C217.484 141.816 217.699 141.385 217.802 140.883L219.658 141.174C219.562 141.702 219.367 142.196 219.071 142.658C218.784 143.103 218.399 143.494 217.914 143.83C217.428 144.166 216.866 144.428 216.226 144.615ZM221.186 130.787C220.739 130.918 220.361 130.91 220.054 130.764C219.757 130.601 219.548 130.314 219.428 129.905C219.308 129.495 219.332 129.148 219.499 128.863C219.678 128.575 219.992 128.365 220.44 128.234C220.875 128.107 221.239 128.118 221.533 128.268C221.84 128.415 222.053 128.693 222.173 129.102C222.293 129.512 222.265 129.867 222.089 130.169C221.922 130.454 221.622 130.66 221.186 130.787ZM222.675 132.102L225.482 141.7L223.428 142.3L220.621 132.703L222.675 132.102ZM229.08 140.648L226.273 131.05L228.02 130.539L228.717 132.21C228.79 131.508 229.029 130.924 229.434 130.459C229.849 129.976 230.427 129.626 231.169 129.409C231.361 129.353 231.559 129.316 231.762 129.299C231.962 129.268 232.135 129.266 232.281 129.293L232.521 131.181C232.365 131.171 232.194 131.18 232.008 131.206C231.83 131.217 231.594 131.265 231.3 131.351C230.903 131.467 230.544 131.69 230.224 132.02C229.9 132.337 229.672 132.744 229.539 133.241C229.42 133.734 229.455 134.307 229.646 134.96L231.134 140.047L229.08 140.648ZM68.9747 204.475C68.5268 204.606 68.1495 204.598 67.8427 204.451C67.545 204.288 67.3362 204.002 67.2165 203.593C67.0967 203.183 67.1202 202.836 67.2869 202.551C67.4664 202.262 67.7802 202.052 68.2281 201.922C68.6632 201.794 69.0277 201.806 69.3217 201.956C69.6285 202.102 69.8417 202.38 69.9615 202.79C70.0813 203.199 70.0532 203.555 69.8775 203.856C69.7107 204.141 69.4098 204.347 68.9747 204.475ZM70.4637 205.789L73.2706 215.387L71.2167 215.988L68.4097 206.39L70.4637 205.789ZM80.61 213.449C79.8165 213.681 79.0355 213.695 78.2668 213.489C77.5109 213.279 76.8389 212.857 76.2507 212.224C75.6625 211.59 75.2168 210.755 74.9137 209.718C74.5993 208.643 74.5319 207.677 74.7116 206.818C74.8912 205.96 75.2576 205.242 75.8108 204.663C76.3602 204.072 77.0317 203.66 77.8251 203.428C78.6441 203.189 79.4007 203.211 80.0948 203.494C80.7888 203.777 81.3366 204.249 81.7382 204.909L81.5696 205.188L79.5935 198.431L81.6475 197.83L85.7175 211.747L83.8939 212.281L82.9769 209.715L83.2512 209.655C83.3301 210.258 83.2649 210.818 83.0556 211.338C82.8427 211.845 82.5203 212.286 82.0886 212.663C81.6659 213.023 81.1731 213.285 80.61 213.449ZM80.5687 211.669C81.119 211.509 81.5513 211.229 81.8657 210.832C82.1801 210.434 82.3712 209.948 82.439 209.372C82.5069 208.797 82.436 208.15 82.2264 207.434C82.0318 206.768 81.7565 206.231 81.4004 205.821C81.0407 205.398 80.625 205.117 80.1534 204.977C79.6947 204.833 79.2093 204.836 78.6974 204.986C77.84 205.237 77.2606 205.726 76.9593 206.453C76.658 207.18 76.6589 208.062 76.962 209.098C77.2652 210.135 77.7351 210.887 78.3717 211.353C79.0045 211.807 79.7369 211.913 80.5687 211.669ZM93.5663 209.66C92.6065 209.941 91.7039 209.99 90.8584 209.806C90.013 209.623 89.2769 209.22 88.6504 208.597C88.0328 207.958 87.5725 207.121 87.2693 206.084C86.9662 205.047 86.9044 204.1 87.0841 203.242C87.2728 202.367 87.6674 201.626 88.2681 201.02C88.8687 200.414 89.6233 199.978 90.5319 199.712C91.4661 199.439 92.3157 199.399 93.0806 199.592C93.8456 199.785 94.4981 200.164 95.0383 200.728C95.5784 201.292 95.972 201.997 96.219 202.842C96.2864 203.072 96.3436 203.291 96.3907 203.5C96.4378 203.708 96.471 203.893 96.4903 204.054L88.7735 206.311L88.3132 204.737L95.1277 202.744L94.2002 203.349C93.9457 202.478 93.5335 201.877 92.9636 201.543C92.3901 201.197 91.7257 201.134 90.9707 201.355C90.4204 201.516 89.978 201.784 89.6433 202.16C89.3086 202.536 89.1074 203.011 89.0395 203.587C88.9679 204.149 89.0388 204.796 89.2521 205.525C89.4617 206.242 89.7547 206.816 90.131 207.248C90.5073 207.679 90.944 207.961 91.4412 208.094C91.9384 208.226 92.4749 208.208 93.0508 208.04C93.6906 207.853 94.1734 207.58 94.499 207.22C94.8246 206.861 95.0389 206.43 95.142 205.928L96.9982 206.219C96.9026 206.747 96.707 207.241 96.4113 207.703C96.1247 208.148 95.7389 208.539 95.2538 208.875C94.7687 209.211 94.2062 209.473 93.5663 209.66ZM104.514 199.561C104.327 198.921 104.004 198.481 103.544 198.24C103.094 197.983 102.562 197.944 101.948 198.124C101.372 198.292 100.918 198.571 100.587 198.959C100.256 199.348 100.083 199.871 100.067 200.528L98.126 200.304C98.1408 199.453 98.4309 198.687 98.9963 198.008C99.5745 197.325 100.427 196.818 101.553 196.489C102.321 196.264 103.036 196.194 103.7 196.278C104.36 196.349 104.929 196.585 105.408 196.987C105.899 197.385 106.259 197.974 106.487 198.755L107.739 203.036C107.878 203.509 108.184 203.677 108.657 203.538C108.887 203.471 109.102 203.373 109.301 203.246L109.601 204.7C109.348 204.927 108.997 205.106 108.55 205.237C108.14 205.356 107.748 205.395 107.374 205.351C107.01 205.291 106.688 205.142 106.41 204.904C106.141 204.649 105.941 204.298 105.81 203.85L105.771 203.716L106.188 203.573C106.218 204.106 106.103 204.591 105.842 205.028C105.577 205.453 105.233 205.818 104.808 206.123C104.379 206.415 103.922 206.632 103.435 206.774C102.834 206.95 102.262 207.013 101.72 206.963C101.19 206.91 100.728 206.732 100.334 206.431C99.9496 206.113 99.673 205.666 99.5046 205.09C99.295 204.373 99.3532 203.717 99.6792 203.122C100.018 202.522 100.592 202.014 101.4 201.597L104.911 199.779L105.313 201.224L102.769 202.572C102.262 202.832 101.902 203.097 101.689 203.367C101.476 203.638 101.424 203.959 101.533 204.33C101.638 204.688 101.856 204.937 102.189 205.076C102.53 205.198 102.931 205.192 103.392 205.057C103.712 204.964 104.008 204.835 104.28 204.673C104.564 204.506 104.804 204.304 104.998 204.066C105.189 203.816 105.309 203.538 105.358 203.232C105.417 202.909 105.39 202.556 105.278 202.172L104.514 199.561ZM115.804 203.157C114.844 203.438 113.913 203.508 113.011 203.369C112.109 203.23 111.328 202.889 110.669 202.345L111.731 200.701C112.166 201.144 112.692 201.448 113.311 201.615C113.938 201.765 114.623 201.731 115.365 201.514C115.954 201.342 116.391 201.103 116.676 200.797C116.962 200.491 117.051 200.153 116.942 199.782C116.871 199.539 116.726 199.352 116.507 199.221C116.297 199.074 115.954 199.015 115.476 199.044L113.337 199.211C112.253 199.305 111.428 199.192 110.862 198.872C110.292 198.538 109.904 198.02 109.699 197.316C109.545 196.791 109.556 196.26 109.733 195.722C109.909 195.184 110.252 194.695 110.762 194.254C111.281 193.797 111.957 193.446 112.788 193.203C113.748 192.922 114.618 192.856 115.397 193.003C116.173 193.137 116.831 193.466 117.373 193.988L116.301 195.593C115.908 195.153 115.439 194.88 114.894 194.775C114.346 194.658 113.816 194.674 113.304 194.824C112.894 194.943 112.558 195.097 112.293 195.286C112.029 195.474 111.846 195.681 111.745 195.905C111.644 196.129 111.629 196.362 111.7 196.605C111.775 196.861 111.936 197.057 112.184 197.193C112.432 197.329 112.821 197.375 113.35 197.331L115.673 197.152C116.647 197.062 117.383 197.18 117.881 197.507C118.389 197.817 118.732 198.279 118.912 198.893C119.091 199.507 119.09 200.098 118.909 200.665C118.724 201.219 118.368 201.712 117.841 202.144C117.315 202.576 116.635 202.914 115.804 203.157ZM138.241 185.968L140.468 185.316L140.05 195.858L137.804 196.514L133.303 190.1L133.101 197.89L130.855 198.547L124.843 189.886L127.05 189.241L131.456 196.183L131.619 187.904L133.673 187.304L138.271 194.19L138.241 185.968ZM143.403 182.708C142.955 182.839 142.578 182.831 142.271 182.685C141.973 182.522 141.765 182.235 141.645 181.826C141.525 181.416 141.549 181.069 141.715 180.784C141.895 180.495 142.209 180.286 142.657 180.155C143.092 180.027 143.456 180.039 143.75 180.189C144.057 180.335 144.27 180.613 144.39 181.023C144.51 181.433 144.482 181.788 144.306 182.089C144.139 182.374 143.838 182.58 143.403 182.708ZM144.892 184.023L147.699 193.621L145.645 194.221L142.838 184.623L144.892 184.023ZM150.467 179.329L153.257 188.869C153.396 189.343 153.618 189.653 153.925 189.799C154.245 189.942 154.616 189.952 155.038 189.828C155.383 189.727 155.669 189.588 155.895 189.411C156.117 189.221 156.309 188.998 156.471 188.742L157.369 190.105C157.15 190.447 156.845 190.758 156.455 191.039C156.074 191.303 155.621 191.512 155.096 191.666C154.546 191.827 154.014 191.885 153.501 191.84C152.988 191.796 152.545 191.613 152.173 191.291C151.798 190.956 151.508 190.465 151.304 189.816L148.582 180.506L150.467 179.329ZM154.594 181.185L155.066 182.798L147.867 184.903L147.396 183.29L154.594 181.185ZM159.891 190.055L155.821 176.138L157.875 175.537L159.588 181.392C159.732 180.697 160.033 180.136 160.492 179.71C160.96 179.268 161.527 178.949 162.192 178.755C162.87 178.556 163.517 178.513 164.134 178.625C164.759 178.72 165.308 178.983 165.781 179.414C166.255 179.845 166.609 180.464 166.845 181.27L168.664 187.489L166.61 188.09L164.982 182.523C164.705 181.576 164.314 180.975 163.809 180.72C163.316 180.461 162.776 180.418 162.187 180.59C161.777 180.71 161.398 180.932 161.048 181.256C160.708 181.564 160.468 181.982 160.331 182.508C160.202 183.018 160.246 183.644 160.463 184.387L161.945 189.454L159.891 190.055ZM173.463 175.459C174.397 175.185 175.28 175.142 176.113 175.33C176.946 175.517 177.671 175.93 178.288 176.569C178.915 177.191 179.38 178.021 179.683 179.057C179.986 180.094 180.043 181.05 179.855 181.924C179.675 182.783 179.285 183.515 178.684 184.121C178.084 184.728 177.316 185.167 176.382 185.441C175.448 185.714 174.564 185.757 173.732 185.57C172.899 185.383 172.169 184.978 171.543 184.355C170.912 183.72 170.446 182.884 170.143 181.848C169.839 180.811 169.784 179.862 169.976 179C170.165 178.125 170.56 177.384 171.16 176.778C171.761 176.172 172.529 175.732 173.463 175.459ZM173.934 177.071C173.358 177.24 172.905 177.518 172.574 177.907C172.252 178.279 172.055 178.746 171.984 179.309C171.912 179.871 171.983 180.517 172.196 181.247C172.406 181.963 172.695 182.546 173.062 182.994C173.425 183.43 173.845 183.724 174.32 183.876C174.804 184.013 175.334 183.997 175.91 183.828C176.486 183.66 176.935 183.39 177.257 183.018C177.575 182.633 177.77 182.159 177.842 181.596C177.909 181.021 177.839 180.375 177.629 179.658C177.416 178.929 177.127 178.346 176.764 177.911C176.4 177.475 175.983 177.188 175.511 177.048C175.036 176.895 174.51 176.903 173.934 177.071ZM187.527 182.181C186.9 182.364 186.284 182.42 185.679 182.346C185.087 182.27 184.557 182.022 184.087 181.604C183.617 181.185 183.263 180.567 183.023 179.748L181.171 173.413L183.224 172.812L184.926 178.629C185.18 179.499 185.541 180.046 186.01 180.27C186.475 180.482 187.04 180.49 187.705 180.295C188.025 180.202 188.317 180.061 188.582 179.872C188.855 179.667 189.08 179.414 189.255 179.113C189.428 178.798 189.523 178.437 189.543 178.028C189.575 177.616 189.518 177.16 189.372 176.661L187.851 171.459L189.905 170.859L192.712 180.457L190.907 180.984L190.357 179.457C190.2 180.156 189.881 180.729 189.4 181.175C188.919 181.621 188.295 181.957 187.527 182.181ZM195.475 166.166L198.265 175.707C198.403 176.18 198.626 176.49 198.933 176.637C199.252 176.779 199.623 176.789 200.046 176.665C200.391 176.564 200.677 176.425 200.903 176.248C201.125 176.058 201.317 175.835 201.478 175.58L202.377 176.942C202.158 177.284 201.853 177.596 201.463 177.876C201.081 178.141 200.628 178.35 200.104 178.503C199.554 178.664 199.022 178.722 198.509 178.678C197.996 178.633 197.553 178.45 197.181 178.128C196.805 177.794 196.516 177.302 196.312 176.653L193.589 167.343L195.475 166.166ZM199.602 168.023L200.073 169.635L192.875 171.74L192.403 170.128L199.602 168.023ZM211.129 159.817C211.526 159.701 211.898 159.641 212.244 159.637C212.599 159.616 212.88 159.652 213.088 159.744L213.136 161.335C212.969 161.286 212.79 161.269 212.6 161.283C212.406 161.284 212.194 161.319 211.963 161.386C211.439 161.539 211.058 161.783 210.822 162.116C210.599 162.445 210.568 162.885 210.729 163.435L211.139 164.836L211.348 165.338L213.953 174.245L211.899 174.845L208.688 163.865C208.545 163.379 208.488 162.923 208.517 162.498C208.558 162.069 208.689 161.684 208.908 161.342C209.124 160.987 209.418 160.686 209.79 160.438C210.171 160.174 210.618 159.967 211.129 159.817ZM214.198 163.754L214.669 165.366L207.759 167.387L207.287 165.775L214.198 163.754ZM223.312 171.716C222.352 171.996 221.45 172.045 220.604 171.862C219.759 171.678 219.023 171.275 218.396 170.653C217.779 170.014 217.318 169.176 217.015 168.139C216.712 167.103 216.65 166.155 216.83 165.297C217.019 164.422 217.413 163.682 218.014 163.076C218.614 162.469 219.369 162.033 220.278 161.768C221.212 161.494 222.061 161.454 222.826 161.647C223.591 161.84 224.244 162.219 224.784 162.783C225.324 163.348 225.718 164.052 225.965 164.897C226.032 165.127 226.089 165.347 226.136 165.555C226.184 165.764 226.217 165.949 226.236 166.11L218.519 168.366L218.059 166.792L224.873 164.799L223.946 165.404C223.691 164.534 223.279 163.932 222.709 163.599C222.136 163.252 221.472 163.19 220.716 163.41C220.166 163.571 219.724 163.84 219.389 164.215C219.054 164.591 218.853 165.067 218.785 165.642C218.714 166.205 218.785 166.851 218.998 167.58C219.207 168.297 219.5 168.871 219.877 169.303C220.253 169.735 220.69 170.017 221.187 170.149C221.684 170.282 222.221 170.264 222.797 170.095C223.436 169.908 223.919 169.635 224.245 169.276C224.57 168.917 224.785 168.486 224.888 167.983L226.744 168.274C226.648 168.802 226.453 169.297 226.157 169.758C225.87 170.203 225.485 170.594 225 170.93C224.514 171.267 223.952 171.529 223.312 171.716ZM234.26 161.617C234.073 160.977 233.75 160.537 233.29 160.296C232.84 160.038 232.308 160 231.693 160.179C231.117 160.348 230.664 160.626 230.333 161.015C230.002 161.403 229.829 161.926 229.813 162.584L227.872 162.36C227.887 161.508 228.177 160.742 228.742 160.063C229.32 159.38 230.172 158.874 231.299 158.544C232.066 158.32 232.782 158.249 233.446 158.333C234.105 158.404 234.675 158.641 235.153 159.042C235.645 159.44 236.005 160.03 236.233 160.81L237.485 165.091C237.623 165.565 237.929 165.732 238.403 165.594C238.633 165.526 238.848 165.429 239.047 165.301L239.347 166.755C239.094 166.982 238.743 167.161 238.295 167.292C237.886 167.412 237.494 167.45 237.12 167.407C236.755 167.347 236.434 167.197 236.156 166.959C235.887 166.705 235.687 166.353 235.556 165.905L235.517 165.771L235.933 165.628C235.964 166.161 235.849 166.646 235.588 167.084C235.323 167.508 234.978 167.873 234.554 168.178C234.125 168.47 233.668 168.687 233.181 168.829C232.58 169.005 232.008 169.068 231.465 169.019C230.936 168.965 230.474 168.788 230.08 168.486C229.695 168.168 229.419 167.721 229.25 167.145C229.041 166.428 229.099 165.772 229.425 165.177C229.764 164.578 230.337 164.07 231.146 163.653L234.657 161.834L235.059 163.279L232.515 164.628C232.007 164.887 231.647 165.152 231.435 165.423C231.222 165.693 231.17 166.014 231.279 166.385C231.383 166.744 231.602 166.992 231.934 167.131C232.276 167.254 232.677 167.247 233.138 167.113C233.457 167.019 233.753 166.891 234.025 166.728C234.31 166.561 234.55 166.359 234.744 166.122C234.935 165.872 235.055 165.593 235.104 165.287C235.163 164.965 235.136 164.611 235.023 164.227L234.26 161.617ZM241.846 166.087L239.039 156.489L240.786 155.978L241.483 157.65C241.556 156.948 241.795 156.364 242.2 155.898C242.615 155.416 243.193 155.066 243.935 154.849C244.127 154.793 244.325 154.756 244.528 154.738C244.728 154.707 244.901 154.705 245.047 154.732L245.287 156.621C245.131 156.61 244.96 156.619 244.774 156.646C244.596 156.656 244.36 156.704 244.066 156.79C243.669 156.906 243.31 157.129 242.99 157.459C242.666 157.776 242.438 158.183 242.305 158.68C242.186 159.174 242.221 159.747 242.412 160.399L243.9 165.486L241.846 166.087ZM106.768 224.137C107.702 223.863 108.585 223.82 109.418 224.008C110.251 224.195 110.976 224.608 111.593 225.247C112.22 225.869 112.685 226.699 112.988 227.735C113.291 228.772 113.348 229.728 113.16 230.602C112.98 231.461 112.59 232.193 111.989 232.799C111.389 233.406 110.621 233.845 109.687 234.119C108.753 234.392 107.869 234.435 107.037 234.248C106.204 234.061 105.474 233.656 104.848 233.033C104.217 232.398 103.751 231.562 103.448 230.526C103.144 229.489 103.089 228.54 103.281 227.678C103.47 226.803 103.865 226.062 104.465 225.456C105.066 224.85 105.834 224.41 106.768 224.137ZM107.239 225.749C106.663 225.918 106.21 226.196 105.879 226.585C105.557 226.957 105.361 227.424 105.289 227.987C105.217 228.549 105.288 229.195 105.502 229.925C105.711 230.641 106 231.224 106.367 231.672C106.73 232.108 107.15 232.402 107.625 232.554C108.109 232.691 108.64 232.675 109.215 232.506C109.791 232.338 110.24 232.068 110.562 231.696C110.88 231.311 111.075 230.837 111.147 230.274C111.214 229.699 111.144 229.053 110.934 228.336C110.721 227.607 110.432 227.024 110.069 226.589C109.705 226.153 109.288 225.866 108.816 225.726C108.341 225.573 107.815 225.581 107.239 225.749ZM117.188 216.463C117.585 216.347 117.956 216.287 118.302 216.283C118.658 216.263 118.939 216.298 119.147 216.391L119.195 217.981C119.028 217.933 118.849 217.915 118.659 217.929C118.465 217.931 118.253 217.965 118.022 218.032C117.497 218.186 117.117 218.429 116.881 218.762C116.658 219.091 116.627 219.531 116.788 220.081L117.197 221.482L117.407 221.984L120.011 230.891L117.958 231.491L114.746 220.511C114.604 220.025 114.547 219.569 114.576 219.144C114.617 218.715 114.747 218.33 114.967 217.988C115.183 217.633 115.477 217.332 115.849 217.084C116.23 216.82 116.676 216.613 117.188 216.463ZM120.257 220.4L120.728 222.013L113.818 224.034L113.346 222.421L120.257 220.4ZM131.287 227.593L128.48 217.995L130.227 217.484L130.924 219.156C130.996 218.454 131.236 217.87 131.641 217.404C132.056 216.922 132.634 216.572 133.376 216.355C133.568 216.299 133.766 216.262 133.969 216.244C134.168 216.214 134.342 216.212 134.488 216.238L134.728 218.127C134.572 218.117 134.401 218.125 134.214 218.152C134.037 218.162 133.801 218.21 133.506 218.296C133.11 218.412 132.751 218.635 132.431 218.965C132.107 219.282 131.879 219.689 131.746 220.187C131.627 220.68 131.662 221.253 131.853 221.906L133.341 226.993L131.287 227.593ZM143.655 224.185C142.695 224.465 141.792 224.514 140.947 224.331C140.101 224.147 139.365 223.744 138.739 223.122C138.121 222.483 137.661 221.645 137.358 220.608C137.054 219.572 136.993 218.624 137.172 217.766C137.361 216.891 137.756 216.151 138.356 215.544C138.957 214.938 139.712 214.502 140.62 214.236C141.554 213.963 142.404 213.923 143.169 214.116C143.934 214.309 144.586 214.688 145.127 215.252C145.667 215.817 146.06 216.521 146.307 217.366C146.375 217.596 146.432 217.816 146.479 218.024C146.526 218.233 146.559 218.417 146.579 218.579L138.862 220.835L138.401 219.261L145.216 217.268L144.288 217.873C144.034 217.003 143.622 216.401 143.052 216.067C142.478 215.721 141.814 215.659 141.059 215.879C140.509 216.04 140.066 216.309 139.732 216.684C139.397 217.06 139.196 217.536 139.128 218.111C139.056 218.674 139.127 219.32 139.34 220.049C139.55 220.766 139.843 221.34 140.219 221.772C140.596 222.204 141.032 222.486 141.529 222.618C142.027 222.751 142.563 222.733 143.139 222.564C143.779 222.377 144.262 222.104 144.587 221.745C144.913 221.386 145.127 220.955 145.23 220.452L147.087 220.743C146.991 221.271 146.795 221.766 146.5 222.227C146.213 222.672 145.827 223.063 145.342 223.399C144.857 223.736 144.294 223.998 143.655 224.185ZM149.802 208.696L152.593 218.237C152.731 218.71 152.954 219.02 153.26 219.167C153.58 219.309 153.951 219.319 154.373 219.195C154.719 219.094 155.004 218.955 155.231 218.778C155.453 218.588 155.645 218.365 155.806 218.11L156.705 219.472C156.485 219.814 156.18 220.126 155.79 220.406C155.409 220.671 154.956 220.88 154.431 221.033C153.881 221.194 153.349 221.252 152.836 221.208C152.323 221.163 151.881 220.98 151.509 220.658C151.133 220.324 150.843 219.832 150.64 219.183L147.917 209.873L149.802 208.696ZM153.929 210.553L154.401 212.165L147.202 214.27L146.731 212.658L153.929 210.553ZM162.953 211.643C162.766 211.003 162.443 210.563 161.984 210.322C161.533 210.065 161.001 210.026 160.387 210.206C159.811 210.374 159.358 210.653 159.027 211.041C158.696 211.43 158.522 211.953 158.506 212.611L156.565 212.386C156.58 211.535 156.87 210.769 157.436 210.09C158.014 209.407 158.866 208.9 159.992 208.571C160.76 208.347 161.476 208.276 162.139 208.36C162.799 208.431 163.368 208.667 163.847 209.069C164.338 209.467 164.698 210.056 164.927 210.837L166.178 215.118C166.317 215.591 166.623 215.759 167.096 215.62C167.327 215.553 167.541 215.455 167.74 215.328L168.04 216.782C167.787 217.009 167.437 217.188 166.989 217.319C166.579 217.439 166.188 217.477 165.814 217.433C165.449 217.373 165.127 217.224 164.849 216.986C164.58 216.731 164.38 216.38 164.249 215.932L164.21 215.798L164.627 215.655C164.658 216.188 164.542 216.673 164.281 217.11C164.017 217.535 163.672 217.9 163.247 218.205C162.818 218.497 162.361 218.714 161.875 218.856C161.273 219.032 160.701 219.095 160.159 219.045C159.629 218.992 159.167 218.814 158.774 218.513C158.389 218.195 158.112 217.748 157.944 217.172C157.734 216.455 157.792 215.799 158.118 215.204C158.457 214.604 159.031 214.096 159.84 213.679L163.35 211.861L163.752 213.306L161.208 214.654C160.701 214.914 160.341 215.179 160.128 215.449C159.916 215.72 159.864 216.041 159.972 216.412C160.077 216.77 160.296 217.019 160.628 217.158C160.969 217.28 161.37 217.274 161.831 217.139C162.151 217.046 162.447 216.918 162.719 216.755C163.003 216.588 163.243 216.386 163.438 216.149C163.628 215.898 163.748 215.62 163.798 215.314C163.856 214.991 163.829 214.638 163.717 214.254L162.953 211.643ZM168.466 201.613L171.75 212.842C171.888 213.316 172.067 213.618 172.286 213.748C172.505 213.879 172.806 213.888 173.19 213.776C173.42 213.708 173.608 213.639 173.754 213.569C173.91 213.482 174.096 213.358 174.313 213.197L174.531 214.8C174.344 214.966 174.117 215.116 173.85 215.25C173.587 215.396 173.315 215.51 173.034 215.593C172.176 215.843 171.479 215.811 170.942 215.496C170.415 215.164 170.016 214.537 169.747 213.616L166.412 202.213L168.466 201.613ZM174.661 202.739C174.214 202.87 173.836 202.862 173.529 202.716C173.232 202.553 173.023 202.267 172.903 201.857C172.783 201.448 172.807 201.1 172.974 200.815C173.153 200.527 173.467 200.317 173.915 200.186C174.35 200.059 174.714 200.07 175.008 200.22C175.315 200.367 175.528 200.645 175.648 201.054C175.768 201.464 175.74 201.819 175.564 202.121C175.398 202.406 175.097 202.612 174.661 202.739ZM176.15 204.054L178.957 213.652L176.903 214.253L174.096 204.655L176.15 204.054ZM186.301 204.815C186.113 204.176 185.79 203.735 185.331 203.495C184.88 203.237 184.348 203.198 183.734 203.378C183.158 203.546 182.705 203.825 182.374 204.213C182.043 204.602 181.869 205.125 181.853 205.783L179.912 205.558C179.927 204.707 180.217 203.941 180.783 203.262C181.361 202.579 182.213 202.073 183.339 201.743C184.107 201.519 184.823 201.448 185.486 201.532C186.146 201.603 186.715 201.839 187.194 202.241C187.685 202.639 188.045 203.229 188.274 204.009L189.525 208.29C189.664 208.763 189.97 208.931 190.443 208.792C190.674 208.725 190.888 208.628 191.087 208.5L191.387 209.954C191.134 210.181 190.784 210.36 190.336 210.491C189.926 210.611 189.535 210.649 189.161 210.605C188.796 210.545 188.474 210.396 188.196 210.158C187.927 209.903 187.727 209.552 187.596 209.104L187.557 208.97L187.974 208.827C188.005 209.36 187.89 209.845 187.629 210.282C187.364 210.707 187.019 211.072 186.594 211.377C186.166 211.669 185.708 211.886 185.222 212.028C184.62 212.204 184.048 212.267 183.506 212.217C182.976 212.164 182.515 211.986 182.121 211.685C181.736 211.367 181.459 210.92 181.291 210.344C181.081 209.627 181.14 208.971 181.466 208.376C181.804 207.777 182.378 207.268 183.187 206.851L186.698 205.033L187.099 206.478L184.556 207.826C184.048 208.086 183.688 208.351 183.475 208.621C183.263 208.892 183.211 209.213 183.319 209.584C183.424 209.942 183.643 210.191 183.975 210.33C184.316 210.452 184.717 210.446 185.178 210.311C185.498 210.218 185.794 210.09 186.066 209.927C186.351 209.76 186.59 209.558 186.785 209.321C186.975 209.07 187.095 208.792 187.145 208.486C187.203 208.163 187.176 207.81 187.064 207.426L186.301 204.815ZM192.682 196.156L195.472 205.696C195.611 206.17 195.833 206.48 196.14 206.626C196.46 206.769 196.831 206.779 197.253 206.655C197.598 206.554 197.884 206.415 198.11 206.238C198.332 206.048 198.524 205.825 198.686 205.569L199.584 206.932C199.365 207.274 199.06 207.585 198.67 207.866C198.289 208.13 197.836 208.339 197.311 208.493C196.761 208.654 196.229 208.712 195.716 208.667C195.203 208.623 194.76 208.44 194.388 208.118C194.013 207.783 193.723 207.292 193.519 206.643L190.797 197.333L192.682 196.156ZM196.809 198.012L197.281 199.625L190.082 201.73L189.611 200.117L196.809 198.012ZM199.789 195.39C199.342 195.521 198.964 195.513 198.657 195.367C198.36 195.204 198.151 194.918 198.031 194.508C197.911 194.099 197.935 193.752 198.102 193.467C198.281 193.178 198.595 192.968 199.043 192.837C199.478 192.71 199.842 192.721 200.136 192.872C200.443 193.018 200.656 193.296 200.776 193.706C200.896 194.115 200.868 194.471 200.692 194.772C200.525 195.057 200.225 195.263 199.789 195.39ZM201.278 196.705L204.085 206.303L202.031 206.904L199.224 197.306L201.278 196.705ZM208.985 194.243C209.92 193.97 210.803 193.927 211.636 194.114C212.468 194.301 213.193 194.714 213.811 195.353C214.438 195.975 214.902 196.805 215.206 197.842C215.509 198.878 215.566 199.834 215.377 200.709C215.198 201.567 214.807 202.299 214.207 202.905C213.606 203.512 212.839 203.952 211.905 204.225C210.97 204.498 210.087 204.541 209.254 204.354C208.422 204.167 207.692 203.762 207.065 203.139C206.435 202.504 205.968 201.668 205.665 200.632C205.362 199.595 205.307 198.646 205.499 197.784C205.688 196.909 206.082 196.168 206.683 195.562C207.284 194.956 208.051 194.516 208.985 194.243ZM209.457 195.855C208.881 196.024 208.428 196.302 208.097 196.691C207.775 197.063 207.578 197.53 207.507 198.093C207.435 198.655 207.506 199.302 207.719 200.031C207.929 200.748 208.217 201.33 208.584 201.778C208.948 202.214 209.367 202.508 209.843 202.661C210.327 202.797 210.857 202.781 211.433 202.612C212.009 202.444 212.458 202.174 212.78 201.802C213.098 201.417 213.293 200.943 213.364 200.38C213.432 199.805 213.361 199.159 213.152 198.442C212.938 197.713 212.65 197.13 212.286 196.695C211.923 196.259 211.505 195.972 211.034 195.832C210.558 195.679 210.033 195.687 209.457 195.855ZM219.577 201.773L216.77 192.175L218.594 191.641L219.458 194.097L219.11 193.907C219.129 193.305 219.252 192.775 219.48 192.32C219.717 191.848 220.041 191.461 220.453 191.16C220.878 190.855 221.353 190.626 221.878 190.472C222.556 190.274 223.203 190.231 223.819 190.342C224.444 190.437 224.993 190.7 225.467 191.131C225.94 191.563 226.295 192.181 226.531 192.988L228.349 199.207L226.295 199.808L224.662 194.222C224.385 193.275 223.996 192.68 223.494 192.438C223.002 192.179 222.461 192.136 221.872 192.308C221.45 192.431 221.071 192.653 220.734 192.974C220.393 193.282 220.152 193.693 220.011 194.207C219.882 194.717 219.924 195.336 220.138 196.066L221.631 201.172L219.577 201.773ZM232.125 195.29C232.56 195.163 232.943 195.19 233.273 195.371C233.613 195.535 233.845 195.829 233.968 196.251C234.092 196.673 234.057 197.052 233.863 197.386C233.682 197.717 233.374 197.946 232.939 198.073C232.491 198.204 232.095 198.181 231.751 198.004C231.42 197.823 231.193 197.521 231.07 197.099C230.946 196.676 230.977 196.306 231.162 195.988C231.356 195.654 231.677 195.421 232.125 195.29Z" fill="#181718"/>
<path d="M231.993 396.987C214.955 403.337 212.727 394.475 209.5 387.5C203.907 392.791 183.5 392.5 186.998 418.5C188.833 432.136 215.643 428.734 226.83 426.57C234.058 436.959 247.913 440.519 253.936 441C251.14 433.304 247.87 417.623 257.163 416.468C266.457 415.314 267.49 403 266.844 396.987C262.327 394.342 249.031 390.638 231.993 396.987Z" fill="#231F20"/>
</svg>
