<svg width="72" height="86" viewBox="0 0 72 86" fill="none" xmlns="http://www.w3.org/2000/svg">
<path d="M3.528 86V68.08C9.928 64.6667 15.4747 61.2533 20.168 57.84C24.9467 54.4267 28.872 51.0987 31.944 47.856C35.1013 44.528 37.448 41.4133 38.984 38.512C40.52 35.5253 41.288 32.7947 41.288 30.32C41.288 28.272 40.776 26.48 39.752 24.944C38.728 23.408 36.936 22.64 34.376 22.64C31.4747 22.64 29.3413 23.8347 27.976 26.224C26.6107 28.6133 26.0133 32.4107 26.184 37.616L0.712 31.472C0.541333 24.304 2.03467 18.416 5.192 13.808C8.34933 9.2 12.6587 5.78666 18.12 3.56799C23.6667 1.34933 29.768 0.239998 36.424 0.239998C42.824 0.239998 48.2 1.136 52.552 2.92799C56.9893 4.63466 60.5307 6.896 63.176 9.712C65.8213 12.4427 67.6987 15.4293 68.808 18.672C70.0027 21.8293 70.6 24.8587 70.6 27.76C70.6 33.392 69.1067 38.4693 66.12 42.992C63.2187 47.5147 59.2933 51.568 54.344 55.152C49.3947 58.736 43.8907 61.9787 37.832 64.88V65.136C39.624 64.9653 41.5867 64.8373 43.72 64.752C45.9387 64.5813 48.2427 64.496 50.632 64.496C53.1067 64.4107 55.5387 64.368 57.928 64.368H71.112V86H3.528Z" fill="white"/>
</svg>
