<svg width="72" height="88" viewBox="0 0 72 88" fill="none" xmlns="http://www.w3.org/2000/svg">
<path d="M37.552 87.28C27.4827 87.28 19.3333 85.5307 13.104 82.032C6.96 78.448 2.65067 73.0293 0.176 65.776L27.056 54.896C26.9707 57.7973 27.312 60.016 28.08 61.552C28.848 63.088 29.872 64.112 31.152 64.624C32.5173 65.136 33.8827 65.392 35.248 65.392C36.6987 65.392 37.9787 65.1787 39.088 64.752C40.1973 64.24 41.0507 63.472 41.648 62.448C42.3307 61.424 42.672 60.1867 42.672 58.736C42.672 57.1147 42.288 55.8773 41.52 55.024C40.8373 54.0853 39.9413 53.4453 38.832 53.104C37.7227 52.6773 36.528 52.464 35.248 52.464C33.968 52.464 32.9013 52.5067 32.048 52.592C31.1947 52.6773 30.1707 52.8053 28.976 52.976V35.824C29.6587 35.9093 30.3413 35.9947 31.024 36.08C31.7067 36.08 32.6027 36.08 33.712 36.08C36.1867 36.08 38.0213 35.5253 39.216 34.416C40.4107 33.3067 41.008 31.472 41.008 28.912C41.008 26.7787 40.4533 25.1147 39.344 23.92C38.2347 22.7253 36.6987 22.128 34.736 22.128C32.7733 22.128 30.9813 22.8533 29.36 24.304C27.7387 25.6693 26.9707 28.4427 27.056 32.624L1.328 24.688C1.92533 19.2267 3.84533 14.704 7.088 11.12C10.416 7.536 14.64 4.848 19.76 3.056C24.9653 1.17867 30.6827 0.239998 36.912 0.239998C43.824 0.239998 49.712 1.17867 54.576 3.056C59.44 4.848 63.152 7.536 65.712 11.12C68.272 14.704 69.552 19.0987 69.552 24.304C69.552 28.3147 68.8693 31.6 67.504 34.16C66.1387 36.6347 64.4747 38.5547 62.512 39.92C60.6347 41.2853 58.8427 42.224 57.136 42.736C55.4293 43.248 54.2773 43.504 53.68 43.504V44.016C54.2773 44.016 55.472 44.1867 57.264 44.528C59.1413 44.784 61.1467 45.4667 63.28 46.576C65.4133 47.6 67.248 49.3067 68.784 51.696C70.32 54.0853 71.088 57.328 71.088 61.424C71.088 66.8853 69.552 71.5787 66.48 75.504C63.4933 79.344 59.44 82.288 54.32 84.336C49.2853 86.2987 43.696 87.28 37.552 87.28Z" fill="white"/>
</svg>
