<svg width="79" height="85" viewBox="0 0 79 85" fill="none" xmlns="http://www.w3.org/2000/svg">
<path d="M41.72 85V68.872H0.504V50.824C1.69867 48.6053 3.32 45.8747 5.368 42.632C7.50133 39.304 9.976 35.5067 12.792 31.24L32.888 0.519997H67.32V49.544H78.712V68.872H67.32V85H41.72ZM22.52 49.544H42.104V27.912C42.104 26.632 42.104 25.224 42.104 23.688C42.1893 22.152 42.2747 20.5733 42.36 18.952H42.104C41.336 20.4027 40.5253 21.8533 39.672 23.304C38.904 24.7547 38.0933 26.12 37.24 27.4L27 43.144C26.3173 44.2533 25.592 45.32 24.824 46.344C24.1413 47.368 23.3733 48.4347 22.52 49.544Z" fill="white"/>
</svg>
