<svg width="298" height="326" viewBox="0 0 298 326" fill="none" xmlns="http://www.w3.org/2000/svg">
<mask id="mask0_0_1" style="mask-type:alpha" maskUnits="userSpaceOnUse" x="4" y="3" width="289" height="318">
<path d="M4.5 320.5C22 284 22.5 278.5 4.5 236.5H293V320.5H4.5Z" fill="white"/>
<path d="M43.5 226C61.1 203.2 50.8333 179.167 43.5 170H279V226H43.5Z" fill="white"/>
<path d="M11.5 161C21.5 145 15.6667 126.333 11.5 119H293V161H11.5Z" fill="white"/>
<path d="M31.5 53.5C46.3 34.3 37.6667 12.1667 31.5 3.5H262.5V53.5H31.5Z" fill="white"/>
</mask>
<g mask="url(#mask0_0_1)">
<path d="M4.5 320.5C22 284 22.5 278.5 4.5 236.5H293V320.5H4.5Z" fill="white"/>
<path d="M43.5 226C61.1 203.2 50.8333 179.167 43.5 170H279V226H43.5Z" fill="white"/>
<path d="M11.5 161C21.5 145 15.6667 126.333 11.5 119H293V161H11.5Z" fill="white"/>
<path d="M31.5 53.5C46.3 34.3 37.6667 12.1667 31.5 3.5H262.5V53.5H31.5Z" fill="white"/>
<path d="M29 12H273" stroke="#D9D9D9" stroke-width="0.5"/>
<path d="M29 15H273" stroke="#D9D9D9" stroke-width="0.5"/>
<path d="M29 19H273" stroke="#D9D9D9" stroke-width="0.5"/>
<path d="M29 23H273" stroke="#D9D9D9" stroke-width="0.5"/>
<path d="M29 27H273" stroke="#D9D9D9" stroke-width="0.5"/>
<path d="M29 30H273" stroke="#D9D9D9" stroke-width="0.5"/>
<path d="M29 33H273" stroke="#D9D9D9" stroke-width="0.5"/>
<path d="M29 35H273" stroke="#D9D9D9" stroke-width="0.5"/>
<path d="M29 38H273" stroke="#D9D9D9" stroke-width="0.5"/>
<path d="M29 43H273" stroke="#D9D9D9" stroke-width="0.5"/>
<path d="M29 41H273" stroke="#D9D9D9" stroke-width="0.5"/>
<path d="M29 45H273" stroke="#D9D9D9" stroke-width="0.5"/>
<path d="M29 47H273" stroke="#D9D9D9" stroke-width="0.5"/>
<path d="M29 47H273" stroke="#D9D9D9" stroke-width="0.5"/>
<path d="M-3.5 128H306.5" stroke="#D9D9D9" stroke-width="0.5"/>
<path d="M-3.5 132H306.5" stroke="#D9D9D9" stroke-width="0.5"/>
<path d="M-3.5 136H306.5" stroke="#D9D9D9" stroke-width="0.5"/>
<path d="M-3.5 140H306.5" stroke="#D9D9D9" stroke-width="0.5"/>
<path d="M-3.5 143H306.5" stroke="#D9D9D9" stroke-width="0.5"/>
<path d="M-3.5 147H306.5" stroke="#D9D9D9" stroke-width="0.5"/>
<path d="M-3.5 150H306.5" stroke="#D9D9D9" stroke-width="0.5"/>
<path d="M-3.5 153H306.5" stroke="#D9D9D9" stroke-width="0.5"/>
<path d="M-3.5 180H306.5" stroke="#D9D9D9" stroke-width="0.5"/>
<path d="M-3.5 177H306.5" stroke="#D9D9D9" stroke-width="0.5"/>
<path d="M-3.5 183H306.5" stroke="#D9D9D9" stroke-width="0.5"/>
<path d="M-3.5 188H306.5" stroke="#D9D9D9" stroke-width="0.5"/>
<path d="M-3.5 193H306.5" stroke="#D9D9D9" stroke-width="0.5"/>
<path d="M-3.5 198H306.5" stroke="#D9D9D9" stroke-width="0.5"/>
<path d="M-3.5 201H306.5" stroke="#D9D9D9" stroke-width="0.5"/>
<path d="M-3.5 205H306.5" stroke="#D9D9D9" stroke-width="0.5"/>
<path d="M-3.5 209H306.5" stroke="#D9D9D9" stroke-width="0.5"/>
<path d="M-3.5 213H306.5" stroke="#D9D9D9" stroke-width="0.5"/>
<path d="M-3.5 218H306.5" stroke="#D9D9D9" stroke-width="0.5"/>
<path d="M-3.5 242H306.5" stroke="#D9D9D9" stroke-width="0.5"/>
<path d="M-3.5 247H306.5" stroke="#D9D9D9" stroke-width="0.5"/>
<path d="M-3.5 252H306.5" stroke="#D9D9D9" stroke-width="0.5"/>
<path d="M-3.5 257H306.5" stroke="#D9D9D9" stroke-width="0.5"/>
<path d="M-3.5 261H306.5" stroke="#D9D9D9" stroke-width="0.5"/>
<path d="M-3.5 268H306.5" stroke="#D9D9D9" stroke-width="0.5"/>
<path d="M-3.5 275H306.5" stroke="#D9D9D9" stroke-width="0.5"/>
<path d="M-3.5 278H306.5" stroke="#D9D9D9" stroke-width="0.5"/>
<path d="M-3.5 281H306.5" stroke="#D9D9D9" stroke-width="0.5"/>
<path d="M-3.5 287H306.5" stroke="#D9D9D9" stroke-width="0.5"/>
<path d="M-3.5 292H306.5" stroke="#D9D9D9" stroke-width="0.5"/>
<path d="M-3.5 299H306.5" stroke="#D9D9D9" stroke-width="0.5"/>
<path d="M-3.5 305H306.5" stroke="#D9D9D9" stroke-width="0.5"/>
<path d="M-3.5 302H306.5" stroke="#D9D9D9" stroke-width="0.5"/>
<path d="M-3.5 309H306.5" stroke="#D9D9D9" stroke-width="0.5"/>
<path d="M-3.5 313H306.5" stroke="#D9D9D9" stroke-width="0.5"/>
<path d="M-3.5 296H306.5" stroke="#D9D9D9" stroke-width="0.5"/>
<path d="M-3.5 264H306.5" stroke="#D9D9D9" stroke-width="0.5"/>
</g>
<rect x="22.5" y="59" width="270" height="56" rx="4" fill="#E3B93E"/>
<path d="M85.5 115C94.2452 93.4667 89.1438 68.0278 85.5 58H105.281C111.111 77.4222 107.71 104.093 105.281 115H85.5Z" fill="#018E42"/>
<path fill-rule="evenodd" clip-rule="evenodd" d="M28.5 4.5C28.5 2.01472 30.5105 0 32.9906 0H260.018C264.702 0 268.5 3.80558 268.5 8.5V50.5C268.5 55.1944 264.702 59 260.018 59H32.9906C30.5105 59 28.5 56.9853 28.5 54.5C28.5 52.0147 30.5105 50 32.9906 50H259.519V9H32.9906C30.5105 9 28.5 6.98528 28.5 4.5Z" fill="#454E9E"/>
<path fill-rule="evenodd" clip-rule="evenodd" d="M8.5 119.369C8.5 116.956 10.5182 115 13.0078 115H288.985C293.688 115 297.5 118.695 297.5 123.252V156.748C297.5 161.305 293.688 165 288.985 165H13.0078C10.5182 165 8.5 163.044 8.5 160.631C8.5 158.218 10.5182 156.262 13.0078 156.262H288.484V123.738H13.0078C10.5182 123.738 8.5 121.782 8.5 119.369Z" fill="#E0919D"/>
<path fill-rule="evenodd" clip-rule="evenodd" d="M40.5 169.569C40.5 167.046 42.5147 165 45 165H277C281.694 165 285.5 168.864 285.5 173.631V222.369C285.5 227.136 281.694 231 277 231H45C42.5147 231 40.5 228.954 40.5 226.431C40.5 223.907 42.5147 221.862 45 221.862H276.5V174.138H45C42.5147 174.138 40.5 172.093 40.5 169.569Z" fill="#454E9E"/>
<path fill-rule="evenodd" clip-rule="evenodd" d="M0 235C0 232.515 2.01472 230.5 4.5 230.5H288.5C293.194 230.5 297 234.306 297 239V317C297 321.694 293.194 325.5 288.5 325.5H4.5C2.01472 325.5 0 323.485 0 321C0 318.515 2.01472 316.5 4.5 316.5H288V239.5H4.5C2.01472 239.5 0 237.485 0 235Z" fill="#018E42"/>
</svg>
