<svg width="390" height="381" viewBox="0 0 390 381" fill="none" xmlns="http://www.w3.org/2000/svg">
<rect x="36" width="318" height="380.5" fill="#E3B93E"/>
<path d="M362.409 348.145C371.643 346.711 381.054 345.775 390.383 346.77C367.518 344.246 337.445 351.417 311.035 359.928C310.81 357.628 310.585 355.187 310.371 352.662C314.947 349.343 320.506 347.328 326.042 346.296C329.278 345.633 332.763 345.443 336.058 345.301L341.12 345.395L336.07 345.004C333.189 344.933 330.06 344.992 327.18 345.253C326.374 345.36 324.216 345.68 323.387 345.787C318.835 346.688 314.236 348.145 310.205 350.516C309.601 343.191 309.079 335.13 308.795 327.07C307.989 303.931 311.047 299.617 312.742 287.253C318.586 244.474 322.592 248.231 319.439 224.18C316.286 200.141 304.065 215.906 287.506 227.724C275.095 236.591 256.698 259.717 241.122 270.398C241.62 268.726 242.13 267.067 242.687 265.419C247.476 251.444 254.541 238.037 264.841 227.321C252.265 239.543 243.754 255.391 238.503 272.069C236.405 273.337 234.366 274.333 232.41 274.997C233.05 272.97 233.714 270.966 234.271 269.343C241.513 248.8 253.106 229.562 268.706 214.282C270.247 212.896 274.075 209.446 275.687 208C274.075 209.387 270.14 212.753 268.563 214.116C265.043 217.507 260.882 221.703 257.788 225.484C255.37 228.127 252.277 232.513 250.095 235.394C241.644 247.781 234.828 261.353 230.158 275.625C229.008 275.862 227.894 275.969 226.815 275.921C212.946 275.281 196.707 265.407 164.074 268.525C156.499 252.913 146.341 238.547 133.657 226.717C132.081 225.366 128.169 222.011 126.533 220.6C128.11 222.023 131.962 225.472 133.515 226.883C145.653 238.843 155.444 253.162 162.604 268.691C159.166 269.058 155.551 269.556 151.746 270.232C151.307 268.963 150.845 267.707 150.359 266.45C144.977 252.57 137.332 239.329 126.533 228.969C137.605 240.609 145.155 255.237 149.814 270.587C146.578 271.204 143.223 271.915 139.703 272.78C139.703 272.78 98.7128 206.554 83.3386 212.86C67.9644 219.166 71.9117 257.797 71.9117 257.797C71.9117 257.797 74.555 274.985 71.4613 296.547C70.4893 303.279 70.6433 308.957 71.2953 313.568C72.5281 322.269 71.9354 331.159 68.9838 339.433C68.3438 341.211 67.7629 343.285 67.2651 345.668C50.7767 341.365 33.8378 337.762 16.733 338.307C33.8615 338.141 50.67 342.112 67.0517 346.782C66.6842 348.726 66.376 350.884 66.1508 353.266C58.0429 351.453 49.8165 350.303 41.5664 351.18C49.8521 350.516 58.0666 352.377 66.056 354.44C65.9375 355.85 65.8545 357.332 65.8071 358.897C63.4838 358.624 61.1604 358.375 58.8253 358.174C38.7571 356.538 18.1555 357.569 -1 364.1C20.5499 357.593 43.5578 357.486 65.7478 360.936C65.653 366.519 65.9493 373.026 66.7909 380.66H313.418C313.418 380.66 312.718 375.587 311.865 367.657C334.837 364.136 358.07 361.493 381.339 362.536C358.07 361.09 334.778 362.856 311.687 365.985C311.545 364.622 311.391 363.188 311.248 361.682C327.974 355.981 344.996 351.026 362.444 348.145H362.409Z" fill="black"/>
<path d="M247.345 321.486C245.425 356.123 226.803 327.816 226.803 327.816C219.549 333.814 216.301 341.792 216.301 341.792C263.265 378.692 266.027 328.373 266.027 328.373C258.986 324.071 252.774 322.02 247.345 321.475V321.486Z" fill="white" stroke="black" stroke-miterlimit="10"/>
<path d="M155.646 327.508C132.603 354.748 135.377 321.391 135.377 321.32C130.801 321.854 125.787 323.62 120.358 327.14C120.358 327.14 119.173 378.882 168.057 342.562C168.057 342.562 163.742 333.814 155.646 327.496V327.508Z" fill="white" stroke="black" stroke-miterlimit="10"/>
</svg>
