<svg width="296" height="173" viewBox="0 0 296 173" fill="none" xmlns="http://www.w3.org/2000/svg">
<path d="M209 54L108.5 121M108.5 121H3V169.5H233V121H108.5Z" stroke="black" stroke-width="6" stroke-dasharray="16 16"/>
<path d="M168 31.0309C200.915 0.466659 233.439 -15.0506 293 31.0309C271.448 58.9829 216.276 98.1157 168 31.0309Z" fill="#D9D9D9" stroke="black" stroke-width="4"/>
<circle cx="235.791" cy="34.9497" r="23.4702" fill="#018E42" stroke="black" stroke-width="4"/>
<path d="M243.997 39.4984C243.997 47.5057 237.506 53.9969 229.498 53.9969C221.491 53.9969 215 47.5057 215 39.4984C215 31.4912 221.491 25 229.498 25C237.506 25 243.997 31.4912 243.997 39.4984Z" fill="black"/>
<path d="M42.484 140L37.666 152.298C37.3433 153.149 36.9913 153.823 36.61 154.322C36.2433 154.821 35.818 155.18 35.334 155.4C34.85 155.62 34.2853 155.73 33.64 155.73C33.112 155.73 32.6207 155.657 32.166 155.51C31.726 155.378 31.3373 155.195 31 154.96L31.572 153.134C31.8507 153.369 32.144 153.545 32.452 153.662C32.7747 153.779 33.1193 153.838 33.486 153.838C33.882 153.838 34.234 153.728 34.542 153.508C34.8647 153.303 35.1507 152.885 35.4 152.254L35.884 151.066L34.718 148.338L31.286 140H33.926L36.368 146.908L37.006 148.976L37.732 146.71L40.042 140H42.484ZM49.6416 139.78C50.7122 139.78 51.6582 140.007 52.4796 140.462C53.3009 140.917 53.9389 141.577 54.3936 142.442C54.8629 143.293 55.0976 144.312 55.0976 145.5C55.0976 146.688 54.8629 147.715 54.3936 148.58C53.9389 149.431 53.3009 150.083 52.4796 150.538C51.6582 150.993 50.7122 151.22 49.6416 151.22C48.5709 151.22 47.6249 150.993 46.8036 150.538C45.9822 150.083 45.3369 149.431 44.8676 148.58C44.3982 147.715 44.1636 146.688 44.1636 145.5C44.1636 144.312 44.3982 143.293 44.8676 142.442C45.3369 141.577 45.9822 140.917 46.8036 140.462C47.6249 140.007 48.5709 139.78 49.6416 139.78ZM49.6416 141.628C48.9816 141.628 48.4169 141.782 47.9476 142.09C47.4929 142.383 47.1409 142.816 46.8916 143.388C46.6422 143.96 46.5176 144.664 46.5176 145.5C46.5176 146.321 46.6422 147.025 46.8916 147.612C47.1409 148.184 47.4929 148.624 47.9476 148.932C48.4169 149.225 48.9816 149.372 49.6416 149.372C50.3016 149.372 50.8589 149.225 51.3136 148.932C51.7682 148.624 52.1202 148.184 52.3696 147.612C52.6189 147.025 52.7436 146.321 52.7436 145.5C52.7436 144.664 52.6189 143.96 52.3696 143.388C52.1202 142.816 51.7682 142.383 51.3136 142.09C50.8589 141.782 50.3016 141.628 49.6416 141.628ZM62.415 151.22C61.6963 151.22 61.029 151.088 60.413 150.824C59.8116 150.56 59.3276 150.135 58.961 149.548C58.5943 148.961 58.411 148.199 58.411 147.26V140H60.765V146.666C60.765 147.663 60.9776 148.353 61.403 148.734C61.8283 149.101 62.4223 149.284 63.185 149.284C63.5516 149.284 63.9036 149.225 64.241 149.108C64.593 148.976 64.9083 148.778 65.187 148.514C65.4656 148.235 65.6783 147.883 65.825 147.458C65.9863 147.033 66.067 146.534 66.067 145.962V140H68.421V151H66.353L66.243 149.218C65.8616 149.907 65.3483 150.413 64.703 150.736C64.0576 151.059 63.295 151.22 62.415 151.22ZM81.2506 155.224C79.8719 155.224 78.6179 155.011 77.4886 154.586C76.3592 154.161 75.3839 153.545 74.5626 152.738C73.7559 151.946 73.1252 150.985 72.6706 149.856C72.2306 148.727 72.0106 147.458 72.0106 146.05C72.0106 144.627 72.2452 143.329 72.7146 142.156C73.1986 140.983 73.8732 139.971 74.7386 139.12C75.6186 138.255 76.6452 137.595 77.8186 137.14C79.0066 136.671 80.3046 136.436 81.7126 136.436C83.0619 136.436 84.2719 136.656 85.3426 137.096C86.4132 137.536 87.3226 138.145 88.0706 138.922C88.8332 139.699 89.4052 140.601 89.7866 141.628C90.1826 142.655 90.3806 143.755 90.3806 144.928C90.3806 145.94 90.2486 146.835 89.9846 147.612C89.7352 148.389 89.3906 149.042 88.9506 149.57C88.5106 150.098 88.0119 150.501 87.4546 150.78C86.9119 151.044 86.3619 151.176 85.8046 151.176C84.9539 151.176 84.3159 150.956 83.8906 150.516C83.4652 150.076 83.2819 149.511 83.3406 148.822C83.0179 149.482 82.5339 150.003 81.8886 150.384C81.2579 150.765 80.5906 150.956 79.8866 150.956C79.1679 150.956 78.5299 150.78 77.9726 150.428C77.4152 150.076 76.9752 149.577 76.6526 148.932C76.3446 148.287 76.1906 147.531 76.1906 146.666C76.1906 145.874 76.3079 145.126 76.5426 144.422C76.7919 143.703 77.1366 143.073 77.5766 142.53C78.0166 141.987 78.5372 141.562 79.1386 141.254C79.7546 140.946 80.4219 140.792 81.1406 140.792C81.6686 140.792 82.1452 140.887 82.5706 141.078C83.0106 141.254 83.3772 141.518 83.6706 141.87C83.9786 142.222 84.1912 142.655 84.3086 143.168L84.8146 140.99H86.8826L85.2766 147.898C85.2472 148.059 85.2179 148.206 85.1886 148.338C85.1739 148.47 85.1666 148.602 85.1666 148.734C85.1666 149.13 85.2692 149.401 85.4746 149.548C85.6799 149.68 85.9219 149.746 86.2006 149.746C86.6846 149.746 87.1319 149.577 87.5426 149.24C87.9679 148.888 88.3126 148.36 88.5766 147.656C88.8406 146.937 88.9726 146.043 88.9726 144.972C88.9726 143.931 88.8039 142.977 88.4666 142.112C88.1292 141.232 87.6452 140.477 87.0146 139.846C86.3839 139.201 85.6212 138.709 84.7266 138.372C83.8466 138.02 82.8566 137.844 81.7566 137.844C80.5539 137.844 79.4539 138.035 78.4566 138.416C77.4739 138.797 76.6159 139.347 75.8826 140.066C75.1639 140.785 74.5992 141.65 74.1886 142.662C73.7926 143.674 73.5946 144.803 73.5946 146.05C73.5946 147.282 73.7926 148.382 74.1886 149.35C74.5846 150.303 75.1346 151.11 75.8386 151.77C76.5426 152.445 77.3566 152.958 78.2806 153.31C79.2192 153.662 80.2239 153.838 81.2946 153.838C82.4679 153.838 83.4066 153.684 84.1106 153.376C84.8146 153.083 85.4159 152.76 85.9146 152.408L86.6846 153.574C86.2886 153.867 85.8412 154.139 85.3426 154.388C84.8586 154.637 84.2866 154.835 83.6266 154.982C82.9666 155.143 82.1746 155.224 81.2506 155.224ZM80.7006 149.306C81.2579 149.306 81.7639 149.115 82.2186 148.734C82.6732 148.338 83.0326 147.817 83.2966 147.172C83.5752 146.512 83.7146 145.801 83.7146 145.038C83.7146 144.525 83.6192 144.077 83.4286 143.696C83.2379 143.315 82.9739 143.021 82.6366 142.816C82.2992 142.596 81.9032 142.486 81.4486 142.486C80.9646 142.486 80.5246 142.596 80.1286 142.816C79.7472 143.036 79.4172 143.344 79.1386 143.74C78.8599 144.121 78.6399 144.561 78.4786 145.06C78.3319 145.559 78.2586 146.087 78.2586 146.644C78.2586 147.201 78.3539 147.685 78.5446 148.096C78.7352 148.492 79.0066 148.793 79.3586 148.998C79.7252 149.203 80.1726 149.306 80.7006 149.306ZM98.7229 151.22C97.6229 151.22 96.6549 150.993 95.8189 150.538C94.9829 150.083 94.3302 149.431 93.8609 148.58C93.4062 147.715 93.1789 146.688 93.1789 145.5C93.1789 144.312 93.4062 143.293 93.8609 142.442C94.3302 141.577 94.9755 140.917 95.7969 140.462C96.6182 140.007 97.5495 139.78 98.5909 139.78C99.6615 139.78 100.571 140 101.319 140.44C102.067 140.88 102.639 141.481 103.035 142.244C103.431 143.007 103.629 143.872 103.629 144.84C103.629 145.104 103.622 145.353 103.607 145.588C103.592 145.823 103.57 146.028 103.541 146.204H94.6969V144.4H102.507L101.341 144.752C101.341 143.755 101.092 142.992 100.593 142.464C100.094 141.921 99.4122 141.65 98.5469 141.65C97.9162 141.65 97.3662 141.797 96.8969 142.09C96.4275 142.383 96.0682 142.823 95.8189 143.41C95.5695 143.982 95.4449 144.686 95.4449 145.522C95.4449 146.343 95.5769 147.04 95.8409 147.612C96.1049 148.184 96.4789 148.617 96.9629 148.91C97.4469 149.203 98.0189 149.35 98.6789 149.35C99.4122 149.35 100.006 149.211 100.461 148.932C100.916 148.653 101.275 148.265 101.539 147.766L103.409 148.646C103.145 149.174 102.786 149.636 102.331 150.032C101.891 150.413 101.363 150.707 100.747 150.912C100.131 151.117 99.4562 151.22 98.7229 151.22ZM107.042 151V140H109.132L109.242 141.848C109.623 141.144 110.129 140.623 110.76 140.286C111.405 139.949 112.087 139.78 112.806 139.78C113.598 139.78 114.324 139.963 114.984 140.33C115.658 140.682 116.164 141.217 116.502 141.936C116.736 141.452 117.059 141.049 117.47 140.726C117.88 140.403 118.335 140.169 118.834 140.022C119.332 139.861 119.824 139.78 120.308 139.78C121.012 139.78 121.672 139.927 122.288 140.22C122.904 140.513 123.402 140.961 123.784 141.562C124.165 142.163 124.356 142.933 124.356 143.872V151H122.002V144.246C122.002 143.351 121.789 142.706 121.364 142.31C120.938 141.914 120.396 141.716 119.736 141.716C119.222 141.716 118.746 141.841 118.306 142.09C117.88 142.339 117.536 142.713 117.272 143.212C117.008 143.696 116.876 144.297 116.876 145.016V151H114.522V144.246C114.522 143.351 114.309 142.706 113.884 142.31C113.458 141.914 112.916 141.716 112.256 141.716C111.816 141.716 111.376 141.833 110.936 142.068C110.496 142.303 110.129 142.669 109.836 143.168C109.542 143.667 109.396 144.327 109.396 145.148V151H107.042ZM134.722 143.938C134.722 143.205 134.517 142.64 134.106 142.244C133.71 141.833 133.16 141.628 132.456 141.628C131.796 141.628 131.232 141.782 130.762 142.09C130.293 142.398 129.948 142.897 129.728 143.586L127.748 142.75C128.027 141.855 128.57 141.137 129.376 140.594C130.198 140.051 131.254 139.78 132.544 139.78C133.424 139.78 134.202 139.927 134.876 140.22C135.551 140.499 136.079 140.924 136.46 141.496C136.856 142.068 137.054 142.801 137.054 143.696V148.602C137.054 149.145 137.326 149.416 137.868 149.416C138.132 149.416 138.389 149.379 138.638 149.306L138.506 150.934C138.169 151.095 137.744 151.176 137.23 151.176C136.761 151.176 136.336 151.095 135.954 150.934C135.588 150.758 135.294 150.501 135.074 150.164C134.869 149.812 134.766 149.379 134.766 148.866V148.712L135.25 148.69C135.118 149.262 134.847 149.739 134.436 150.12C134.026 150.487 133.549 150.765 133.006 150.956C132.464 151.132 131.914 151.22 131.356 151.22C130.667 151.22 130.044 151.11 129.486 150.89C128.944 150.67 128.511 150.34 128.188 149.9C127.88 149.445 127.726 148.888 127.726 148.228C127.726 147.407 127.99 146.732 128.518 146.204C129.061 145.676 129.824 145.317 130.806 145.126L135.074 144.29L135.052 145.94L131.95 146.578C131.334 146.695 130.872 146.864 130.564 147.084C130.256 147.304 130.102 147.627 130.102 148.052C130.102 148.463 130.256 148.793 130.564 149.042C130.887 149.277 131.312 149.394 131.84 149.394C132.207 149.394 132.559 149.35 132.896 149.262C133.248 149.174 133.564 149.035 133.842 148.844C134.121 148.639 134.334 148.382 134.48 148.074C134.642 147.751 134.722 147.37 134.722 146.93V143.938ZM142.539 138.152C142.026 138.152 141.63 138.027 141.351 137.778C141.087 137.514 140.955 137.147 140.955 136.678C140.955 136.209 141.087 135.849 141.351 135.6C141.63 135.351 142.026 135.226 142.539 135.226C143.038 135.226 143.419 135.351 143.683 135.6C143.962 135.849 144.101 136.209 144.101 136.678C144.101 137.147 143.962 137.514 143.683 137.778C143.419 138.027 143.038 138.152 142.539 138.152ZM143.705 140V151H141.351V140H143.705ZM150.116 135.05V147.92C150.116 148.463 150.212 148.837 150.402 149.042C150.593 149.247 150.908 149.35 151.348 149.35C151.612 149.35 151.832 149.335 152.008 149.306C152.199 149.262 152.434 149.189 152.712 149.086L152.448 150.846C152.199 150.963 151.913 151.051 151.59 151.11C151.268 151.183 150.945 151.22 150.622 151.22C149.64 151.22 148.914 150.971 148.444 150.472C147.99 149.959 147.762 149.174 147.762 148.118V135.05H150.116ZM156.439 148.03C156.938 148.03 157.334 148.177 157.627 148.47C157.935 148.749 158.089 149.13 158.089 149.614C158.089 150.098 157.935 150.487 157.627 150.78C157.334 151.073 156.938 151.22 156.439 151.22C155.926 151.22 155.515 151.073 155.207 150.78C154.914 150.487 154.767 150.098 154.767 149.614C154.767 149.13 154.914 148.749 155.207 148.47C155.515 148.177 155.926 148.03 156.439 148.03ZM166.05 139.78C166.93 139.78 167.678 139.912 168.294 140.176C168.925 140.425 169.453 140.785 169.878 141.254C170.304 141.723 170.626 142.259 170.846 142.86L168.624 143.74C168.434 143.065 168.126 142.552 167.7 142.2C167.29 141.833 166.747 141.65 166.072 141.65C165.412 141.65 164.848 141.804 164.378 142.112C163.909 142.405 163.55 142.838 163.3 143.41C163.066 143.982 162.948 144.686 162.948 145.522C162.948 146.343 163.073 147.04 163.322 147.612C163.572 148.184 163.931 148.617 164.4 148.91C164.87 149.203 165.427 149.35 166.072 149.35C166.571 149.35 167.004 149.269 167.37 149.108C167.737 148.932 168.038 148.69 168.272 148.382C168.522 148.059 168.69 147.671 168.778 147.216L170.912 147.942C170.707 148.602 170.384 149.181 169.944 149.68C169.519 150.164 168.984 150.545 168.338 150.824C167.693 151.088 166.952 151.22 166.116 151.22C165.031 151.22 164.07 150.993 163.234 150.538C162.398 150.083 161.746 149.431 161.276 148.58C160.822 147.715 160.594 146.688 160.594 145.5C160.594 144.312 160.822 143.293 161.276 142.442C161.746 141.577 162.391 140.917 163.212 140.462C164.048 140.007 164.994 139.78 166.05 139.78ZM178.866 139.78C179.936 139.78 180.882 140.007 181.704 140.462C182.525 140.917 183.163 141.577 183.618 142.442C184.087 143.293 184.322 144.312 184.322 145.5C184.322 146.688 184.087 147.715 183.618 148.58C183.163 149.431 182.525 150.083 181.704 150.538C180.882 150.993 179.936 151.22 178.866 151.22C177.795 151.22 176.849 150.993 176.028 150.538C175.206 150.083 174.561 149.431 174.092 148.58C173.622 147.715 173.388 146.688 173.388 145.5C173.388 144.312 173.622 143.293 174.092 142.442C174.561 141.577 175.206 140.917 176.028 140.462C176.849 140.007 177.795 139.78 178.866 139.78ZM178.866 141.628C178.206 141.628 177.641 141.782 177.172 142.09C176.717 142.383 176.365 142.816 176.116 143.388C175.866 143.96 175.742 144.664 175.742 145.5C175.742 146.321 175.866 147.025 176.116 147.612C176.365 148.184 176.717 148.624 177.172 148.932C177.641 149.225 178.206 149.372 178.866 149.372C179.526 149.372 180.083 149.225 180.538 148.932C180.992 148.624 181.344 148.184 181.594 147.612C181.843 147.025 181.968 146.321 181.968 145.5C181.968 144.664 181.843 143.96 181.594 143.388C181.344 142.816 180.992 142.383 180.538 142.09C180.083 141.782 179.526 141.628 178.866 141.628ZM187.723 151V140H189.813L189.923 141.848C190.305 141.144 190.811 140.623 191.441 140.286C192.087 139.949 192.769 139.78 193.487 139.78C194.279 139.78 195.005 139.963 195.665 140.33C196.34 140.682 196.846 141.217 197.183 141.936C197.418 141.452 197.741 141.049 198.151 140.726C198.562 140.403 199.017 140.169 199.515 140.022C200.014 139.861 200.505 139.78 200.989 139.78C201.693 139.78 202.353 139.927 202.969 140.22C203.585 140.513 204.084 140.961 204.465 141.562C204.847 142.163 205.037 142.933 205.037 143.872V151H202.683V144.246C202.683 143.351 202.471 142.706 202.045 142.31C201.62 141.914 201.077 141.716 200.417 141.716C199.904 141.716 199.427 141.841 198.987 142.09C198.562 142.339 198.217 142.713 197.953 143.212C197.689 143.696 197.557 144.297 197.557 145.016V151H195.203V144.246C195.203 143.351 194.991 142.706 194.565 142.31C194.14 141.914 193.597 141.716 192.937 141.716C192.497 141.716 192.057 141.833 191.617 142.068C191.177 142.303 190.811 142.669 190.517 143.168C190.224 143.667 190.077 144.327 190.077 145.148V151H187.723Z" fill="white"/>
</svg>
