<svg width="238" height="45" viewBox="0 0 238 45" fill="none" xmlns="http://www.w3.org/2000/svg">
<path fill-rule="evenodd" clip-rule="evenodd" d="M41.0232 30.8665C24.1605 26.9317 11.5127 13.5238 5 2.49195L8.57207 0.29328C14.7452 10.75 26.5841 23.1286 41.9524 26.7147C57.0962 30.2485 76.3511 25.3872 97.8447 0L101 2.78523C78.8306 28.9707 58.1103 34.8538 41.0232 30.8665Z" fill="black"/>
<path fill-rule="evenodd" clip-rule="evenodd" d="M104.035 19.5616L93.3554 8.94742L96.3209 6L107 16.6141L104.035 19.5616ZM0 18.0066L10.9758 8.27702L13.7672 11.3878L2.79146 21.1174L0 18.0066ZM94.184 29.5225L84.0982 18.6135L87.1862 15.7932L97.2721 26.7021L94.184 29.5225ZM9.86408 29.1447L19.6533 17.3512L22.8883 20.0038L13.0991 31.7973L9.86408 29.1447ZM80.2953 38.932L72.2859 25.9591L75.8604 23.7791L83.8697 36.7519L80.2953 38.932ZM24.168 37.7435L30.9908 25.0655L34.6889 27.0314L27.8661 39.7094L24.168 37.7435ZM62.0023 45L57.256 31.1427L61.2261 29.7994L65.9723 43.6567L62.0023 45ZM40.5607 44.2806L42.9338 30.1284L47.0706 30.8136L44.6974 44.9658L40.5607 44.2806Z" fill="black"/>
<path fill-rule="evenodd" clip-rule="evenodd" d="M172.023 30.8665C155.161 26.9317 142.513 13.5238 136 2.49195L139.572 0.29328C145.745 10.75 157.584 23.1286 172.952 26.7147C188.096 30.2485 207.351 25.3872 228.845 0L232 2.78523C209.831 28.9707 189.11 34.8538 172.023 30.8665Z" fill="black"/>
<path fill-rule="evenodd" clip-rule="evenodd" d="M235.035 19.5616L224.355 8.94742L227.321 6L238 16.6141L235.035 19.5616ZM131 18.0066L141.976 8.27702L144.767 11.3878L133.791 21.1174L131 18.0066ZM225.184 29.5225L215.098 18.6135L218.186 15.7932L228.272 26.7021L225.184 29.5225ZM140.864 29.1447L150.653 17.3512L153.888 20.0038L144.099 31.7973L140.864 29.1447ZM211.295 38.932L203.286 25.9591L206.86 23.7791L214.87 36.7519L211.295 38.932ZM155.168 37.7435L161.991 25.0655L165.689 27.0314L158.866 39.7094L155.168 37.7435ZM193.002 45L188.256 31.1427L192.226 29.7994L196.972 43.6567L193.002 45ZM171.561 44.2806L173.934 30.1284L178.071 30.8136L175.697 44.9658L171.561 44.2806Z" fill="black"/>
</svg>
