<svg width="334" height="203" viewBox="0 0 334 203" fill="none" xmlns="http://www.w3.org/2000/svg">
<path d="M130 31.0309C162.915 0.466659 195.439 -15.0506 255 31.0309C233.448 58.9829 178.276 98.1157 130 31.0309Z" fill="#D9D9D9" stroke="black" stroke-width="4"/>
<circle cx="197.791" cy="34.9497" r="23.4702" fill="#BF1A2F" stroke="black" stroke-width="4"/>
<path d="M206.2 26.9877C206.2 34.995 199.709 41.4861 191.702 41.4861C183.694 41.4861 177.203 34.995 177.203 26.9877C177.203 18.9804 183.694 12.4893 191.702 12.4893C199.709 12.4893 206.2 18.9804 206.2 26.9877Z" fill="black"/>
<rect x="79" y="41" width="97" height="44" rx="4" fill="#BF1A2F"/>
<rect x="180" y="41" width="82" height="44" rx="4" fill="#BF1A2F"/>
<rect x="266" y="41" width="68" height="44" rx="4" fill="#BF1A2F"/>
<rect x="259" y="135" width="65" height="44" rx="4" fill="#BF1A2F"/>
<rect x="107" y="88" width="102" height="44" rx="4" fill="#BF1A2F"/>
<rect x="213" y="88" width="94" height="44" rx="4" fill="#BF1A2F"/>
<rect x="120" y="135" width="56" height="44" rx="4" fill="#BF1A2F"/>
<rect x="180" y="135" width="75" height="44" rx="4" fill="#BF1A2F"/>
<path d="M1.43107 150.928C5.12142 186.856 32.3548 199.279 45.5103 201C38.3344 188.267 30.4326 161.719 48.5849 146.799C67.1188 131.567 64.3031 108.428 59.861 97.244C70.933 104.264 77.8823 118.662 74.7249 138.024C71.5675 157.386 73.1669 166.668 83.0078 168.733C92.8487 170.798 92.4933 146.627 91.1265 138.024C114.288 162.351 106.926 184.554 96.7645 201C169.5 146.799 118.292 96.7278 89.0763 60.5936C65.7041 31.6864 73.1873 9.66143 79.8504 2.26237C64.4739 -1.86724 38.2329 43.6638 41.4093 74.5306C43.029 90.2704 40.9788 93.8874 35.7712 100.857C35.3612 81.8607 20.2243 70.2289 12.7071 66.7876C31.1589 106.535 -3.18187 106.019 1.43107 150.928Z" fill="#BF1A2F" stroke="#E3B93E" stroke-width="2"/>
</svg>
