<svg width="239" height="241" viewBox="0 0 239 241" fill="none" xmlns="http://www.w3.org/2000/svg">
<path d="M161.159 147.517L46.8027 104.189L87.0523 86.1953L161.159 147.517Z" fill="#B3B3B3"/>
<path d="M45.6172 102.768L54.3774 69.3848L85.3933 84.7743L45.6172 102.768Z" fill="#CCCCCC"/>
<path d="M88.9453 85.7223L139.849 49.7344L167.314 150.832L88.9453 85.7223Z" fill="#D9D9D9"/>
<path d="M167.313 142.78L179.151 21.084L141.506 48.0749L167.313 142.78Z" fill="white"/>
<path d="M88.707 83.8273L100.545 45.9453L141.032 48.0762L88.707 83.8273Z" fill="#E6E6E6"/>
<path d="M99.3627 46.8945L56.0352 67.7296L87.5246 84.303L99.3627 46.8945Z" fill="#D9D9D9"/>
<path d="M100.547 46.1817L133.457 16.3496L91.313 34.3435L61.2441 63.7021L100.547 46.1817Z" fill="#E6E6E6"/>
<path d="M103.15 44.0502L139.849 13.5078L141.506 47.3648L103.15 44.0502Z" fill="#D9D9D9"/>
<path d="M141.27 47.6027V11.8516L178.915 20.1382L141.27 47.6027Z" fill="#D9D9D9"/>
<path fill-rule="evenodd" clip-rule="evenodd" d="M140.327 9.33607L141.795 9.19141L179.204 18.1884L180.919 20.5614L170.028 151.728L166.982 153.642L43.3919 106.289L42.0215 103.617L51.492 67.6288L52.1728 66.5201L90.5283 32.4264L91.0801 32.0653L140.327 9.33607ZM126.8 20.5336L93.2679 36.01L67.4909 58.9229L99.7861 43.0982L126.8 20.5336ZM97.1399 49.4044L58.7087 68.2357L85.9949 82.0709L97.1399 49.4044ZM82.0278 85.1031L55.1337 71.4667L47.5579 100.255L82.0278 85.1031ZM50.1109 104.046L155.701 144.502L86.9257 87.8641L50.1109 104.046ZM91.0133 85.4027L163.902 145.429L139.892 51.531L91.0133 85.4027ZM143.825 48.7539L166.652 138.025L176.027 25.1113L143.825 48.7539ZM173.441 21.4293L143.518 14.2326V43.398L173.441 21.4293ZM134.732 49.6331L102.589 47.3642L91.6226 79.5074L134.732 49.6331ZM106.744 43.1478L139.02 16.1877V45.4261L106.744 43.1478Z" fill="black"/>
<path d="M0 107.845C11.1951 107.845 14.9268 94.0968 14.9268 87C14.9268 102.324 23.0488 107.845 27 107.845C20.4146 107.845 14.9268 116.677 14.9268 127C14.9268 115.282 8.56098 107.845 0 107.845Z" fill="white"/>
<path d="M46 26.3662C57.1951 26.3662 60.9268 12.2742 60.9268 5C60.9268 20.707 69.0488 26.3662 73 26.3662C66.4146 26.3662 60.9268 35.4194 60.9268 46C60.9268 33.9887 54.561 26.3662 46 26.3662Z" fill="white"/>
<path d="M42 49.4648C47.8049 49.4648 49.7398 41.9032 49.7398 38C49.7398 46.4282 53.9512 49.4648 56 49.4648C52.5854 49.4648 49.7398 54.3226 49.7398 60C49.7398 53.5549 46.439 49.4648 42 49.4648Z" fill="white"/>
<path d="M222 13.0282C229.049 13.0282 231.398 4.43548 231.398 0C231.398 9.57747 236.512 13.0282 239 13.0282C234.854 13.0282 231.398 18.5484 231.398 25C231.398 17.6761 227.39 13.0282 222 13.0282Z" fill="white"/>
<path d="M190 39.662C205.341 39.662 210.455 20.7581 210.455 11C210.455 32.0704 221.585 39.662 227 39.662C217.976 39.662 210.455 51.8064 210.455 66C210.455 49.8873 201.732 39.662 190 39.662Z" fill="white"/>
<path d="M136.745 173.96C136.644 173.997 136.529 173.997 136.4 173.961C136.273 173.912 136.177 173.807 136.11 173.647C135.948 173.334 135.715 173.152 135.413 173.099C135.137 173.051 134.876 173.074 134.63 173.166C134.4 173.248 134.181 173.379 133.973 173.559C133.781 173.729 133.611 173.929 133.463 174.161C133.314 174.392 133.198 174.629 133.116 174.872C132.97 175.32 132.981 175.721 133.15 176.075C133.318 176.429 133.639 176.648 134.112 176.73C134.491 176.809 134.93 176.811 135.43 176.736C135.946 176.65 136.437 176.512 136.903 176.322C137.101 176.275 137.279 176.259 137.439 176.273C137.599 176.288 137.717 176.389 137.792 176.578C137.887 176.811 137.817 177.022 137.581 177.212C137.347 177.387 137.051 177.532 136.693 177.646C136.333 177.773 135.956 177.876 135.563 177.957C135.186 178.026 134.807 178.062 134.428 178.064C134.051 178.052 133.683 177.988 133.325 177.872C132.979 177.758 132.666 177.575 132.385 177.323C131.945 176.894 131.727 176.356 131.732 175.707C131.737 175.058 131.896 174.416 132.209 173.78C132.331 173.544 132.487 173.314 132.674 173.09C132.865 172.852 133.077 172.645 133.31 172.469C133.557 172.296 133.818 172.159 134.092 172.057C134.369 171.943 134.663 171.886 134.975 171.886C135.474 171.892 135.932 172.026 136.346 172.287C136.763 172.536 137.003 172.909 137.065 173.407C137.073 173.517 137.054 173.628 137.007 173.742C136.962 173.842 136.875 173.915 136.745 173.96Z" fill="white"/>
<path d="M142.125 170.613C141.941 172.056 141.795 173.56 141.685 175.124C141.578 176.675 141.495 178.163 141.437 179.587C141.375 180.172 141.166 180.44 140.809 180.392C140.731 180.378 140.656 180.338 140.587 180.272C140.519 180.193 140.461 180.101 140.411 179.998C140.361 179.894 140.313 179.784 140.265 179.668C140.231 179.554 140.214 179.456 140.215 179.375C140.226 178.687 140.251 177.96 140.29 177.196C140.328 176.431 140.373 175.667 140.424 174.905C140.491 174.131 140.561 173.379 140.634 172.647C140.707 171.916 140.79 171.247 140.882 170.64C140.963 170.329 141.055 170.075 141.157 169.876C141.261 169.664 141.418 169.583 141.625 169.633C141.846 169.685 141.988 169.804 142.05 169.991C142.128 170.167 142.153 170.374 142.125 170.613Z" fill="white"/>
<path d="M148.086 172.868C148.037 172.994 147.933 173.051 147.773 173.036C147.613 173.022 147.48 173.006 147.375 172.988C147.045 172.944 146.697 172.917 146.333 172.908C145.983 172.901 145.608 172.917 145.209 172.956C145.042 172.981 144.874 172.932 144.707 172.808C144.539 172.684 144.459 172.48 144.468 172.198C144.486 172.092 144.54 172.014 144.63 171.962C144.721 171.91 144.823 171.867 144.937 171.833C145.122 171.784 145.337 171.753 145.582 171.742C145.83 171.717 146.074 171.712 146.316 171.727C146.57 171.744 146.807 171.779 147.028 171.831C147.252 171.87 147.432 171.922 147.57 171.986C147.768 172.088 147.916 172.215 148.011 172.367C148.119 172.522 148.145 172.688 148.086 172.868ZM146.492 179.35C146.547 179.576 146.553 179.814 146.51 180.064C146.482 180.303 146.387 180.455 146.227 180.522C146.022 180.608 145.827 180.568 145.639 180.4C145.452 180.232 145.325 180.027 145.259 179.785C145.162 179.484 145.109 179.13 145.099 178.722C145.091 178.301 145.101 177.89 145.13 177.489C145.16 177.089 145.197 176.716 145.244 176.372C145.303 176.031 145.348 175.775 145.377 175.604C145.422 175.422 145.505 175.261 145.624 175.119C145.743 174.977 145.878 174.906 146.027 174.905C146.261 174.959 146.432 175.104 146.54 175.339C146.65 175.561 146.672 175.822 146.607 176.122C146.566 176.359 146.526 176.623 146.489 176.914C146.452 177.205 146.428 177.499 146.417 177.795C146.406 178.09 146.403 178.381 146.408 178.666C146.415 178.938 146.443 179.166 146.492 179.35Z" fill="white"/>
<path d="M153.957 176.954C153.855 176.991 153.74 176.991 153.611 176.955C153.485 176.906 153.388 176.801 153.321 176.641C153.159 176.328 152.927 176.146 152.624 176.093C152.349 176.045 152.088 176.067 151.841 176.16C151.611 176.242 151.392 176.373 151.184 176.553C150.992 176.723 150.822 176.923 150.674 177.154C150.525 177.386 150.409 177.623 150.327 177.866C150.181 178.314 150.192 178.715 150.361 179.069C150.529 179.423 150.85 179.642 151.323 179.724C151.702 179.803 152.141 179.805 152.641 179.73C153.157 179.644 153.648 179.506 154.114 179.316C154.312 179.269 154.49 179.253 154.65 179.267C154.81 179.282 154.928 179.383 155.003 179.572C155.098 179.805 155.028 180.016 154.792 180.205C154.558 180.381 154.262 180.526 153.904 180.64C153.544 180.766 153.167 180.87 152.774 180.951C152.397 181.02 152.018 181.056 151.639 181.058C151.262 181.046 150.894 180.982 150.536 180.866C150.19 180.751 149.877 180.568 149.596 180.317C149.156 179.888 148.938 179.35 148.943 178.701C148.948 178.052 149.107 177.41 149.42 176.774C149.543 176.538 149.698 176.308 149.886 176.084C150.076 175.846 150.288 175.639 150.521 175.463C150.768 175.29 151.029 175.152 151.303 175.051C151.58 174.937 151.875 174.88 152.186 174.88C152.686 174.886 153.143 175.019 153.557 175.281C153.974 175.529 154.214 175.903 154.276 176.401C154.284 176.51 154.265 176.622 154.218 176.736C154.173 176.836 154.086 176.909 153.957 176.954Z" fill="white"/>
<path d="M162.616 177.039C162.671 177.035 162.751 177.043 162.856 177.061C162.963 177.066 163.061 177.09 163.148 177.132C163.251 177.163 163.331 177.211 163.387 177.275C163.459 177.328 163.496 177.389 163.498 177.457C163.497 177.619 163.445 177.759 163.343 177.876C163.257 177.983 163.114 178.067 162.914 178.127C162.374 178.276 161.808 178.455 161.217 178.664C160.628 178.859 160.123 179.042 159.701 179.212C159.91 179.411 160.148 179.635 160.416 179.884C160.697 180.136 160.982 180.403 161.272 180.683C161.564 180.95 161.852 181.237 162.137 181.544C162.424 181.838 162.692 182.128 162.94 182.414C163.164 182.683 163.174 182.895 162.971 183.049C162.877 183.127 162.734 183.17 162.543 183.178C162.365 183.187 162.205 183.139 162.061 183.033C161.797 182.838 161.511 182.613 161.204 182.356C160.899 182.087 160.588 181.816 160.269 181.544C159.954 181.259 159.643 180.982 159.338 180.712C159.049 180.432 158.782 180.175 158.538 179.944C158.511 180.412 158.477 180.88 158.436 181.347C158.409 181.816 158.375 182.283 158.334 182.75C158.37 183.013 158.328 183.216 158.208 183.357C158.089 183.499 157.925 183.545 157.717 183.495C157.501 183.417 157.351 183.303 157.269 183.154C157.189 182.991 157.142 182.793 157.129 182.561C157.144 182.008 157.162 181.355 157.185 180.601C157.221 179.85 157.255 179.071 157.287 178.264C157.319 177.458 157.348 176.671 157.373 175.904C157.411 175.139 157.441 174.461 157.463 173.869C157.469 173.681 157.483 173.481 157.507 173.268C157.546 173.045 157.643 172.913 157.799 172.872C158.01 172.828 158.205 172.909 158.386 173.116C158.569 173.311 158.684 173.581 158.732 173.928C158.732 174.55 158.723 175.225 158.704 175.953C158.686 176.681 158.661 177.448 158.629 178.254C158.919 178.142 159.251 178.024 159.624 177.899C160.013 177.764 160.394 177.641 160.765 177.529C161.151 177.407 161.508 177.3 161.836 177.208C162.163 177.116 162.423 177.06 162.616 177.039Z" fill="white"/>
<path d="M172.682 178.872C172.658 179.084 172.632 179.35 172.604 179.67C172.59 179.979 172.574 180.308 172.554 180.656C172.536 180.991 172.518 181.327 172.501 181.662C172.496 181.999 172.49 182.309 172.481 182.592C172.676 182.328 172.915 182.004 173.198 181.621C173.481 181.237 173.768 180.874 174.057 180.532C174.362 180.179 174.656 179.892 174.938 179.67C175.236 179.438 175.483 179.339 175.68 179.373C175.89 179.409 176.062 179.548 176.197 179.787C176.346 180.016 176.462 180.287 176.543 180.599C176.624 180.911 176.682 181.239 176.717 181.583C176.765 181.93 176.8 182.234 176.822 182.495C176.904 182.333 177.003 182.154 177.118 181.958C177.249 181.75 177.38 181.543 177.511 181.336C177.657 181.117 177.809 180.907 177.966 180.704C178.136 180.504 178.308 180.331 178.482 180.185C178.685 180.031 178.892 179.931 179.103 179.887C179.316 179.829 179.468 179.808 179.56 179.824C179.678 179.845 179.809 179.908 179.953 180.015C180.113 180.11 180.267 180.232 180.418 180.38C180.568 180.528 180.7 180.699 180.815 180.895C180.945 181.08 181.041 181.266 181.104 181.453C181.226 181.84 181.303 182.252 181.335 182.691C181.38 183.132 181.396 183.547 181.382 183.938C181.368 184.328 181.342 184.675 181.302 184.979C181.278 185.273 181.263 185.48 181.255 185.6C181.226 185.771 181.183 185.899 181.128 185.984C181.074 186.056 180.991 186.109 180.877 186.144C180.721 186.184 180.591 186.189 180.488 186.157C180.388 186.113 180.311 186.052 180.256 185.975C180.202 185.898 180.162 185.816 180.136 185.731C180.113 185.632 180.1 185.548 180.099 185.48C180.112 185.171 180.12 184.855 180.122 184.53C180.137 184.208 180.144 183.898 180.142 183.6C180.142 183.289 180.124 183.001 180.088 182.738C180.069 182.464 180.036 182.221 179.992 182.011C179.975 181.954 179.94 181.88 179.888 181.79C179.852 181.689 179.801 181.592 179.736 181.499C179.684 181.409 179.629 181.332 179.573 181.268C179.516 181.204 179.476 181.163 179.452 181.145C179.321 181.123 179.161 181.223 178.973 181.448C178.787 181.659 178.599 181.924 178.409 182.243C178.218 182.562 178.03 182.901 177.846 183.261C177.677 183.611 177.543 183.913 177.445 184.166C177.385 184.508 177.275 184.752 177.114 184.9C176.955 185.035 176.804 185.09 176.659 185.065C176.515 185.04 176.366 184.96 176.214 184.825C176.076 184.679 175.994 184.53 175.967 184.376C175.925 184.152 175.88 183.901 175.834 183.622C175.788 183.343 175.736 183.057 175.679 182.763C175.635 182.471 175.583 182.184 175.524 181.903C175.478 181.625 175.427 181.372 175.372 181.146C175.144 181.364 174.912 181.608 174.676 181.878C174.453 182.15 174.228 182.429 174.002 182.715C173.79 183.003 173.578 183.29 173.365 183.578C173.168 183.855 172.983 184.101 172.811 184.314C172.694 184.443 172.572 184.557 172.447 184.657C172.323 184.744 172.189 184.774 172.045 184.749C171.94 184.731 171.836 184.666 171.734 184.553C171.634 184.427 171.544 184.283 171.464 184.121C171.384 183.958 171.314 183.776 171.254 183.576C171.207 183.379 171.18 183.185 171.173 182.994C171.166 182.411 171.181 181.777 171.219 181.094C171.272 180.399 171.322 179.724 171.368 179.069C171.394 178.844 171.456 178.645 171.553 178.472C171.666 178.289 171.834 178.183 172.055 178.154C172.285 178.153 172.451 178.216 172.55 178.341C172.65 178.467 172.694 178.644 172.682 178.872Z" fill="white"/>
<path d="M188.598 183.427C188.033 183.64 187.441 183.78 186.82 183.848C186.201 183.903 185.55 183.871 184.867 183.752C184.814 184.216 184.881 184.607 185.069 184.924C185.26 185.228 185.528 185.437 185.874 185.551C186.079 185.614 186.291 185.644 186.508 185.641C186.738 185.641 186.952 185.617 187.149 185.57C187.363 185.512 187.557 185.445 187.733 185.367C187.909 185.289 188.065 185.208 188.202 185.124C188.338 185.039 188.474 184.995 188.61 184.992C188.748 184.975 188.848 184.986 188.909 185.024C189.082 185.121 189.113 185.33 189.003 185.649C188.72 186.033 188.355 186.341 187.909 186.575C187.464 186.795 186.992 186.903 186.492 186.897C186.058 186.903 185.628 186.808 185.202 186.612C184.776 186.416 184.415 186.116 184.12 185.713C183.871 185.358 183.702 184.964 183.616 184.529C183.529 184.094 183.503 183.657 183.539 183.217C183.571 182.802 183.671 182.421 183.84 182.071C184.022 181.724 184.256 181.433 184.54 181.198C184.827 180.95 185.164 180.765 185.55 180.643C185.937 180.521 186.369 180.488 186.846 180.544C187.418 180.603 187.912 180.797 188.328 181.126C188.745 181.456 189.006 181.86 189.112 182.339C189.174 182.607 189.163 182.828 189.078 183.003C189.007 183.18 188.847 183.321 188.598 183.427ZM186.565 181.693C186.429 181.696 186.277 181.717 186.108 181.755C185.952 181.796 185.799 181.857 185.65 181.939C185.515 182.011 185.384 182.103 185.256 182.216C185.144 182.318 185.067 182.447 185.027 182.602C185.25 182.641 185.496 182.664 185.766 182.67C186.049 182.679 186.319 182.678 186.578 182.669C186.852 182.649 187.101 182.618 187.325 182.576C187.562 182.536 187.761 182.483 187.922 182.416C187.86 182.148 187.689 181.962 187.409 181.86C187.145 181.746 186.863 181.69 186.565 181.693Z" fill="white"/>
<path d="M134.153 188.511C134.405 188.542 134.645 188.644 134.871 188.819C135.098 188.994 135.187 189.219 135.139 189.495C135.074 189.714 134.924 189.836 134.69 189.863C134.47 189.879 134.295 189.876 134.164 189.853C133.901 189.807 133.617 189.765 133.313 189.725C133.009 189.686 132.696 189.652 132.377 189.623C132.275 190.052 132.178 190.455 132.085 190.831C132.006 191.21 131.933 191.549 131.868 191.849C131.804 192.136 131.757 192.371 131.725 192.555C131.693 192.739 131.682 192.838 131.693 192.854C131.991 192.852 132.315 192.82 132.663 192.759C133.028 192.687 133.387 192.607 133.74 192.52C134.109 192.422 134.465 192.321 134.808 192.218C135.166 192.105 135.502 192.001 135.816 191.907C135.959 191.864 136.081 191.865 136.181 191.909C136.295 191.956 136.357 192.028 136.367 192.124C136.368 192.273 136.318 192.447 136.215 192.646C136.113 192.845 135.962 193.015 135.761 193.156C135.537 193.279 135.242 193.417 134.877 193.57C134.528 193.712 134.153 193.843 133.753 193.963C133.353 194.083 132.95 194.182 132.544 194.261C132.154 194.328 131.812 194.35 131.518 194.326C131.078 194.29 130.77 194.114 130.594 193.8C130.419 193.485 130.355 193.115 130.402 192.69C130.449 192.265 130.527 191.778 130.636 191.229C130.758 190.682 130.886 190.102 131.02 189.489C130.765 189.472 130.518 189.456 130.277 189.441C130.051 189.415 129.831 189.397 129.616 189.387C129.446 189.357 129.262 189.284 129.065 189.169C128.882 189.056 128.81 188.888 128.849 188.665C128.862 188.586 128.914 188.486 129.002 188.366C129.091 188.246 129.252 188.173 129.487 188.146C130.042 188.148 130.653 188.173 131.321 188.222C131.468 187.611 131.618 187.021 131.771 186.453C131.924 185.884 132.061 185.366 132.183 184.9C132.224 184.745 132.294 184.615 132.393 184.51C132.492 184.406 132.588 184.362 132.68 184.378C132.906 184.403 133.106 184.499 133.28 184.665C133.469 184.819 133.55 184.976 133.523 185.133C133.393 185.571 133.252 186.067 133.101 186.623C132.964 187.181 132.824 187.752 132.682 188.337C132.949 188.356 133.201 188.386 133.437 188.427C133.689 188.458 133.928 188.486 134.153 188.511Z" fill="white"/>
<path d="M142.928 188.393C143.296 188.606 143.587 188.88 143.8 189.215C144.025 189.552 144.178 189.917 144.259 190.31C144.342 190.69 144.356 191.071 144.303 191.454C144.263 191.84 144.162 192.188 144 192.498C143.792 192.84 143.545 193.17 143.26 193.486C142.975 193.801 142.664 194.072 142.327 194.298C141.99 194.523 141.623 194.689 141.225 194.796C140.828 194.903 140.405 194.918 139.959 194.84C139.42 194.746 138.989 194.543 138.664 194.229C138.34 193.915 138.107 193.543 137.965 193.113C137.824 192.682 137.763 192.211 137.785 191.701C137.819 191.193 137.919 190.696 138.085 190.21C138.201 189.851 138.348 189.512 138.526 189.191C138.719 188.859 138.937 188.579 139.179 188.35C139.424 188.109 139.687 187.924 139.966 187.797C140.258 187.672 140.569 187.638 140.897 187.695C141.081 187.727 141.304 187.806 141.566 187.933C141.831 188.047 142.07 188.19 142.283 188.362C142.481 188.234 142.696 188.245 142.928 188.393ZM141.929 189.701C141.8 189.584 141.65 189.436 141.478 189.258C141.321 189.068 141.171 188.961 141.026 188.935C140.869 188.908 140.699 188.953 140.516 189.07C140.346 189.189 140.185 189.337 140.033 189.514C139.896 189.679 139.771 189.854 139.657 190.037C139.544 190.22 139.464 190.369 139.418 190.483C139.344 190.673 139.276 190.905 139.215 191.178C139.154 191.452 139.126 191.731 139.13 192.016C139.137 192.288 139.194 192.548 139.299 192.797C139.42 193.034 139.624 193.225 139.91 193.37C140.085 193.454 140.302 193.492 140.56 193.483C140.821 193.461 141.084 193.391 141.348 193.275C141.625 193.161 141.891 192.99 142.147 192.764C142.416 192.54 142.639 192.268 142.817 191.947C143.015 191.589 143.083 191.195 143.023 190.765C142.977 190.324 142.78 189.978 142.431 189.728C142.328 189.778 142.23 189.795 142.138 189.779C142.047 189.763 141.977 189.737 141.929 189.701Z" fill="white"/>
<path d="M156.009 192.151C156.089 192.313 156.155 192.514 156.208 192.754C156.277 192.982 156.318 193.213 156.331 193.445C156.349 193.813 156.367 194.216 156.385 194.652C156.42 195.078 156.444 195.522 156.458 195.984C156.486 196.449 156.499 196.918 156.498 197.392C156.51 197.868 156.512 198.321 156.504 198.753C156.483 199.345 156.341 199.889 156.079 200.384C155.827 200.896 155.474 201.328 155.02 201.682C154.566 202.036 154.035 202.289 153.427 202.44C152.819 202.592 152.158 202.619 151.444 202.522C151.288 202.481 151.138 202.374 150.992 202.2C150.844 202.039 150.783 201.886 150.808 201.741C150.82 201.594 150.906 201.488 151.067 201.421C151.238 201.369 151.405 201.344 151.567 201.345C151.847 201.367 152.14 201.357 152.445 201.316C152.761 201.289 153.064 201.22 153.354 201.108C153.644 200.996 153.914 200.847 154.163 200.66C154.425 200.476 154.642 200.243 154.812 199.961C154.945 199.741 155.042 199.46 155.101 199.118C155.163 198.764 155.197 198.411 155.204 198.06C155.224 197.712 155.221 197.38 155.195 197.064C155.184 196.737 155.166 196.49 155.141 196.324C155.033 196.4 154.897 196.478 154.734 196.557C154.585 196.64 154.417 196.712 154.23 196.774C154.043 196.836 153.84 196.876 153.621 196.892C153.415 196.91 153.208 196.894 153 196.844C152.779 196.792 152.582 196.677 152.41 196.498C152.251 196.322 152.119 196.109 152.014 195.861C151.91 195.599 151.839 195.309 151.799 194.991C151.773 194.675 151.789 194.353 151.846 194.025C152.009 193.241 152.327 192.579 152.8 192.039C153.289 191.488 153.976 191.114 154.863 190.916C154.931 190.914 155.019 190.916 155.126 190.921C155.247 190.929 155.365 190.949 155.481 190.983C155.599 191.003 155.708 191.036 155.809 191.081C155.923 191.127 156.014 191.184 156.084 191.25C156.21 191.38 156.256 191.544 156.222 191.741C156.188 191.938 156.116 192.075 156.009 192.151ZM153.056 194.418C153.031 194.563 153.016 194.729 153.01 194.918C153.007 195.093 153.07 195.233 153.201 195.337C153.343 195.456 153.531 195.502 153.766 195.475C154.013 195.451 154.25 195.377 154.474 195.254C154.683 195.141 154.829 195.004 154.911 194.842C155.009 194.67 155.051 194.427 155.038 194.113C155.025 193.8 155.007 193.472 154.986 193.13C154.964 192.788 154.963 192.483 154.982 192.216C154.811 192.267 154.621 192.349 154.412 192.462C154.216 192.576 154.026 192.733 153.843 192.931C153.662 193.116 153.496 193.331 153.345 193.575C153.207 193.822 153.111 194.103 153.056 194.418Z" fill="white"/>
<path d="M164.276 192.107C164.645 192.32 164.935 192.594 165.148 192.928C165.373 193.265 165.526 193.63 165.607 194.023C165.69 194.403 165.705 194.785 165.651 195.168C165.611 195.553 165.51 195.901 165.348 196.211C165.14 196.554 164.893 196.883 164.608 197.199C164.323 197.515 164.012 197.786 163.675 198.011C163.338 198.237 162.971 198.403 162.573 198.51C162.176 198.617 161.754 198.631 161.307 198.553C160.768 198.46 160.337 198.256 160.013 197.942C159.688 197.629 159.455 197.257 159.314 196.826C159.172 196.396 159.112 195.925 159.133 195.414C159.167 194.906 159.267 194.409 159.433 193.924C159.549 193.565 159.696 193.225 159.874 192.904C160.067 192.572 160.285 192.292 160.528 192.064C160.773 191.822 161.035 191.638 161.314 191.51C161.607 191.385 161.917 191.351 162.245 191.408C162.429 191.44 162.652 191.52 162.914 191.647C163.179 191.76 163.418 191.903 163.631 192.076C163.83 191.948 164.044 191.958 164.276 192.107ZM163.277 193.415C163.148 193.298 162.998 193.15 162.826 192.971C162.67 192.782 162.519 192.674 162.375 192.649C162.217 192.622 162.047 192.666 161.864 192.783C161.694 192.903 161.533 193.051 161.381 193.227C161.244 193.393 161.119 193.567 161.006 193.751C160.893 193.934 160.813 194.082 160.766 194.196C160.692 194.386 160.625 194.618 160.564 194.892C160.502 195.165 160.474 195.445 160.479 195.73C160.486 196.001 160.542 196.262 160.647 196.51C160.768 196.748 160.972 196.939 161.258 197.083C161.433 197.168 161.65 197.205 161.908 197.196C162.169 197.174 162.432 197.105 162.696 196.988C162.973 196.874 163.239 196.704 163.495 196.478C163.764 196.254 163.987 195.981 164.165 195.66C164.363 195.302 164.431 194.908 164.371 194.478C164.326 194.037 164.129 193.692 163.78 193.441C163.676 193.491 163.579 193.508 163.487 193.492C163.395 193.476 163.325 193.45 163.277 193.415Z" fill="white"/>
<path d="M175.722 192.19C175.667 192.505 175.599 192.858 175.517 193.25C175.449 193.644 175.378 194.052 175.305 194.472C175.245 194.895 175.176 195.329 175.098 195.776C175.034 196.225 174.973 196.654 174.915 197.063C175.092 196.824 175.294 196.595 175.522 196.377C175.751 196.146 175.995 195.952 176.252 195.794C176.523 195.638 176.794 195.523 177.064 195.448C177.347 195.375 177.64 195.365 177.942 195.418C178.27 195.475 178.541 195.63 178.754 195.884C178.98 196.14 179.154 196.461 179.277 196.848C179.414 197.223 179.511 197.64 179.567 198.096C179.625 198.539 179.655 198.991 179.656 199.451C179.673 199.901 179.665 200.332 179.634 200.747C179.605 201.147 179.578 201.495 179.554 201.788C179.517 201.998 179.435 202.16 179.307 202.273C179.179 202.386 179.043 202.43 178.899 202.405C178.793 202.387 178.674 202.298 178.539 202.14C178.419 201.97 178.344 201.781 178.313 201.572C178.301 201.408 178.301 201.171 178.314 200.862C178.327 200.553 178.337 200.223 178.344 199.873C178.354 199.509 178.35 199.143 178.332 198.774C178.315 198.406 178.272 198.074 178.201 197.777C178.147 197.47 178.054 197.224 177.924 197.039C177.794 196.854 177.62 196.763 177.403 196.765C177.063 196.774 176.734 196.954 176.416 197.304C176.111 197.657 175.823 198.067 175.552 198.534C175.295 199.004 175.062 199.484 174.855 199.976C174.661 200.47 174.51 200.87 174.403 201.176C174.309 201.404 174.208 201.555 174.1 201.631C174.008 201.696 173.909 201.72 173.804 201.702C173.699 201.683 173.609 201.614 173.536 201.493C173.475 201.374 173.418 201.235 173.364 201.077C173.326 200.908 173.294 200.74 173.269 200.573C173.246 200.393 173.239 200.243 173.246 200.123C173.304 199.402 173.369 198.716 173.442 198.066C173.516 197.402 173.598 196.74 173.686 196.078C173.787 195.419 173.897 194.748 174.016 194.065C174.137 193.369 174.279 192.629 174.442 191.845C174.557 191.188 174.844 190.934 175.306 191.082C175.459 191.136 175.576 191.278 175.658 191.509C175.742 191.726 175.763 191.953 175.722 192.19Z" fill="white"/>
<path d="M187.086 196.075C187.455 196.288 187.746 196.562 187.958 196.896C188.184 197.233 188.337 197.598 188.418 197.991C188.5 198.371 188.515 198.752 188.462 199.136C188.422 199.521 188.321 199.869 188.159 200.179C187.95 200.522 187.704 200.851 187.419 201.167C187.134 201.483 186.823 201.753 186.486 201.979C186.149 202.205 185.781 202.371 185.384 202.478C184.986 202.584 184.564 202.599 184.118 202.521C183.579 202.428 183.148 202.224 182.823 201.91C182.499 201.597 182.266 201.225 182.124 200.794C181.982 200.363 181.922 199.893 181.943 199.382C181.978 198.874 182.078 198.377 182.243 197.892C182.36 197.533 182.507 197.193 182.685 196.872C182.878 196.54 183.095 196.26 183.338 196.032C183.583 195.79 183.845 195.606 184.125 195.478C184.417 195.353 184.728 195.319 185.056 195.376C185.24 195.408 185.463 195.488 185.725 195.615C185.989 195.728 186.228 195.871 186.442 196.044C186.64 195.916 186.855 195.926 187.086 196.075ZM186.087 197.383C185.959 197.266 185.809 197.118 185.637 196.939C185.48 196.749 185.33 196.642 185.185 196.617C185.028 196.589 184.857 196.634 184.675 196.751C184.505 196.871 184.344 197.019 184.191 197.195C184.054 197.361 183.929 197.535 183.816 197.719C183.703 197.902 183.623 198.05 183.576 198.164C183.503 198.354 183.435 198.586 183.374 198.86C183.313 199.133 183.285 199.413 183.289 199.698C183.296 199.969 183.352 200.23 183.458 200.478C183.579 200.716 183.783 200.907 184.069 201.051C184.244 201.136 184.46 201.173 184.719 201.164C184.98 201.142 185.242 201.073 185.506 200.956C185.783 200.842 186.05 200.672 186.306 200.446C186.575 200.222 186.798 199.949 186.976 199.628C187.173 199.27 187.242 198.876 187.181 198.446C187.136 198.005 186.939 197.66 186.59 197.409C186.487 197.459 186.389 197.476 186.297 197.46C186.205 197.444 186.135 197.418 186.087 197.383Z" fill="white"/>
<path d="M192.008 197.459C191.984 197.671 191.958 197.937 191.93 198.257C191.917 198.566 191.9 198.895 191.88 199.243C191.862 199.578 191.845 199.914 191.827 200.249C191.822 200.586 191.816 200.897 191.807 201.179C192.002 200.915 192.241 200.592 192.524 200.208C192.808 199.824 193.094 199.461 193.384 199.119C193.689 198.766 193.982 198.479 194.264 198.257C194.562 198.025 194.809 197.926 195.006 197.96C195.217 197.996 195.389 198.135 195.523 198.374C195.673 198.604 195.788 198.874 195.869 199.186C195.95 199.498 196.008 199.826 196.043 200.17C196.091 200.517 196.126 200.821 196.148 201.082C196.23 200.92 196.329 200.741 196.445 200.545C196.575 200.337 196.706 200.13 196.837 199.923C196.983 199.704 197.135 199.494 197.292 199.291C197.462 199.091 197.634 198.918 197.809 198.772C198.011 198.618 198.218 198.519 198.429 198.474C198.642 198.416 198.794 198.395 198.886 198.411C199.005 198.432 199.136 198.495 199.28 198.602C199.439 198.697 199.594 198.819 199.744 198.967C199.894 199.115 200.027 199.286 200.141 199.482C200.272 199.667 200.368 199.853 200.43 200.04C200.552 200.427 200.629 200.839 200.661 201.278C200.706 201.719 200.722 202.134 200.708 202.525C200.695 202.915 200.668 203.262 200.629 203.566C200.605 203.86 200.589 204.067 200.582 204.187C200.552 204.358 200.509 204.486 200.454 204.571C200.401 204.643 200.317 204.696 200.203 204.731C200.047 204.771 199.918 204.776 199.815 204.744C199.714 204.7 199.637 204.639 199.583 204.562C199.528 204.485 199.488 204.403 199.463 204.318C199.439 204.219 199.427 204.135 199.425 204.067C199.438 203.758 199.446 203.442 199.448 203.117C199.464 202.795 199.47 202.485 199.468 202.187C199.468 201.876 199.45 201.588 199.415 201.325C199.395 201.051 199.363 200.809 199.318 200.598C199.301 200.541 199.266 200.467 199.214 200.377C199.178 200.276 199.127 200.179 199.062 200.086C199.01 199.996 198.956 199.919 198.899 199.855C198.843 199.791 198.802 199.75 198.778 199.732C198.647 199.71 198.487 199.81 198.299 200.035C198.114 200.246 197.926 200.511 197.735 200.83C197.544 201.149 197.356 201.488 197.172 201.848C197.003 202.198 196.869 202.5 196.771 202.753C196.712 203.095 196.601 203.339 196.44 203.487C196.281 203.622 196.13 203.677 195.985 203.652C195.841 203.627 195.692 203.547 195.54 203.412C195.403 203.266 195.321 203.117 195.293 202.963C195.251 202.739 195.207 202.488 195.16 202.209C195.114 201.93 195.062 201.644 195.005 201.35C194.961 201.058 194.91 200.772 194.85 200.491C194.804 200.212 194.753 199.959 194.698 199.733C194.471 199.951 194.239 200.195 194.002 200.465C193.779 200.737 193.554 201.016 193.329 201.302C193.116 201.59 192.904 201.877 192.691 202.165C192.494 202.442 192.31 202.688 192.137 202.901C192.02 203.03 191.899 203.144 191.773 203.244C191.65 203.331 191.516 203.362 191.371 203.336C191.266 203.318 191.162 203.253 191.06 203.14C190.96 203.015 190.87 202.87 190.79 202.708C190.71 202.545 190.64 202.363 190.58 202.164C190.534 201.966 190.507 201.772 190.499 201.581C190.492 200.998 190.508 200.364 190.545 199.681C190.599 198.986 190.648 198.312 190.695 197.656C190.72 197.431 190.782 197.232 190.88 197.059C190.993 196.876 191.16 196.77 191.382 196.741C191.612 196.74 191.777 196.803 191.877 196.928C191.977 197.054 192.02 197.231 192.008 197.459Z" fill="white"/>
<path d="M207.925 202.014C207.36 202.227 206.767 202.367 206.146 202.435C205.528 202.49 204.877 202.458 204.194 202.339C204.14 202.803 204.207 203.194 204.396 203.511C204.587 203.815 204.855 204.024 205.2 204.138C205.406 204.201 205.617 204.231 205.834 204.228C206.064 204.228 206.278 204.204 206.476 204.157C206.689 204.099 206.883 204.032 207.059 203.954C207.235 203.876 207.391 203.795 207.528 203.711C207.664 203.626 207.801 203.582 207.937 203.579C208.075 203.562 208.174 203.573 208.236 203.611C208.408 203.708 208.439 203.917 208.33 204.236C208.046 204.62 207.681 204.928 207.235 205.162C206.79 205.382 206.318 205.49 205.819 205.484C205.385 205.49 204.955 205.395 204.528 205.199C204.102 205.003 203.742 204.703 203.447 204.3C203.197 203.945 203.029 203.551 202.942 203.116C202.855 202.681 202.83 202.244 202.866 201.804C202.897 201.39 202.997 201.008 203.166 200.658C203.349 200.311 203.582 200.02 203.866 199.785C204.153 199.537 204.49 199.352 204.877 199.23C205.263 199.108 205.695 199.075 206.173 199.131C206.744 199.19 207.238 199.384 207.655 199.713C208.071 200.043 208.332 200.447 208.439 200.926C208.5 201.194 208.489 201.415 208.404 201.59C208.333 201.767 208.173 201.908 207.925 202.014ZM205.892 200.28C205.756 200.283 205.603 200.304 205.434 200.342C205.278 200.383 205.126 200.444 204.976 200.526C204.842 200.598 204.711 200.69 204.583 200.803C204.47 200.905 204.394 201.034 204.353 201.189C204.576 201.228 204.823 201.251 205.092 201.257C205.375 201.266 205.646 201.265 205.905 201.256C206.179 201.236 206.428 201.205 206.652 201.163C206.889 201.123 207.087 201.07 207.248 201.003C207.186 200.735 207.015 200.55 206.736 200.447C206.471 200.333 206.19 200.277 205.892 200.28Z" fill="white"/>
<path d="M214.562 197.301C214.343 197.859 214.119 198.409 213.889 198.951C213.673 199.495 213.463 200.04 213.26 200.587C213.056 201.133 212.879 201.685 212.729 202.24C212.578 202.796 212.473 203.36 212.414 203.931C212.415 204.081 212.365 204.214 212.263 204.332C212.175 204.451 212.081 204.523 211.982 204.547C211.675 204.601 211.477 204.493 211.389 204.22C211.348 203.523 211.378 202.845 211.479 202.185C211.594 201.529 211.753 200.886 211.957 200.259C212.174 199.633 212.416 199.019 212.683 198.416C212.966 197.802 213.248 197.195 213.528 196.594C213.639 196.342 213.77 196.216 213.919 196.215C214.068 196.214 214.203 196.251 214.326 196.327C214.511 196.426 214.613 196.58 214.631 196.786C214.65 196.992 214.627 197.164 214.562 197.301ZM211.93 207.765C211.905 207.91 211.851 208.103 211.768 208.346C211.701 208.578 211.609 208.792 211.494 208.989C211.392 209.187 211.263 209.341 211.109 209.449C210.968 209.56 210.812 209.56 210.642 209.449C210.549 209.365 210.465 209.222 210.392 209.02C210.319 208.818 210.303 208.639 210.343 208.484C210.424 208.173 210.544 207.876 210.701 207.592C210.859 207.308 211.029 207.148 211.211 207.112C211.295 207.1 211.38 207.115 211.467 207.157C211.568 207.201 211.652 207.263 211.719 207.343C211.789 207.409 211.843 207.486 211.882 207.574C211.923 207.649 211.939 207.713 211.93 207.765Z" fill="white"/>
<path fill-rule="evenodd" clip-rule="evenodd" d="M127.345 173.726C127.323 173.451 127.082 173.246 126.807 173.268C126.733 173.274 126.615 173.253 126.445 173.172C126.279 173.092 126.097 172.969 125.908 172.818C125.564 172.542 125.247 172.212 125.012 171.966C124.988 171.941 124.964 171.917 124.942 171.894C123.716 170.62 123.008 168.689 122.57 166.888C122.414 166.245 122.372 165.486 122.496 164.774C122.62 164.061 122.903 163.43 123.364 162.993C123.564 162.803 123.572 162.486 123.382 162.286C123.192 162.086 122.876 162.077 122.675 162.268C122.014 162.895 121.659 163.747 121.51 164.603C121.361 165.461 121.412 166.358 121.599 167.124C122.046 168.966 122.805 171.115 124.222 172.587C124.243 172.61 124.266 172.634 124.291 172.659C124.522 172.901 124.884 173.279 125.283 173.599C125.505 173.776 125.753 173.948 126.012 174.073C126.267 174.196 126.57 174.29 126.887 174.264C127.162 174.242 127.368 174.001 127.345 173.726Z" fill="white"/>
<path fill-rule="evenodd" clip-rule="evenodd" d="M126.837 166.102C127.059 165.938 127.107 165.625 126.943 165.403C126.82 165.236 126.663 165.11 126.554 165.024C126.541 165.013 126.528 165.003 126.516 164.994C126.412 164.911 126.345 164.858 126.289 164.798C125.713 164.174 125.284 163.491 124.826 162.761C124.622 162.435 124.411 162.099 124.179 161.756C124.128 161.68 124.097 161.63 124.065 161.578C124.043 161.544 124.021 161.508 123.992 161.464L123.992 161.464C123.946 161.392 123.854 161.252 123.707 161.158C123.515 161.035 123.314 161.036 123.154 161.073C123.02 161.104 122.88 161.168 122.752 161.229C122.49 161.357 122.221 161.482 121.949 161.61C120.683 162.203 119.34 162.832 118.214 163.783C118.003 163.962 117.977 164.277 118.155 164.488C118.334 164.699 118.649 164.725 118.86 164.547C119.874 163.689 121.07 163.128 122.331 162.536C122.614 162.403 122.9 162.269 123.188 162.129C123.199 162.124 123.21 162.119 123.22 162.114C123.224 162.121 123.229 162.128 123.233 162.135C123.266 162.187 123.305 162.247 123.35 162.315C123.542 162.599 123.731 162.9 123.924 163.208C124.405 163.973 124.913 164.781 125.554 165.476C125.668 165.599 125.801 165.704 125.897 165.779C125.91 165.789 125.922 165.798 125.933 165.807C126.046 165.897 126.103 165.949 126.138 165.996C126.302 166.218 126.615 166.266 126.837 166.102Z" fill="white"/>
</svg>
