<svg width="359" height="455" viewBox="0 0 359 455" fill="none" xmlns="http://www.w3.org/2000/svg">
<path d="M0 454.981L86 127.981H166.5L260 454.981H0Z" fill="#E3B93E"/>
<path d="M112.471 159.981V145.461H118.191C119.936 145.461 121.212 145.813 122.019 146.517C122.826 147.221 123.229 148.197 123.229 149.443C123.229 150.206 123.009 150.888 122.569 151.489C122.129 152.076 121.484 152.45 120.633 152.611V152.633C121.572 152.78 122.298 153.169 122.811 153.799C123.339 154.415 123.603 155.134 123.603 155.955C123.603 157.202 123.148 158.185 122.239 158.903C121.33 159.622 120.01 159.981 118.279 159.981H112.471ZM114.781 158.023H118.389C119.313 158.023 120.002 157.833 120.457 157.451C120.926 157.07 121.161 156.535 121.161 155.845C121.161 155.156 120.926 154.621 120.457 154.239C120.002 153.858 119.313 153.667 118.389 153.667H114.781V158.023ZM114.781 151.709H118.015C119.863 151.709 120.787 150.998 120.787 149.575C120.787 148.153 119.863 147.441 118.015 147.441H114.781V151.709ZM131.063 160.201C130.345 160.201 129.677 160.069 129.061 159.805C128.46 159.541 127.976 159.116 127.609 158.529C127.243 157.943 127.059 157.18 127.059 156.241V148.981H129.413V155.647C129.413 156.645 129.626 157.334 130.051 157.715C130.477 158.082 131.071 158.265 131.833 158.265C132.2 158.265 132.552 158.207 132.889 158.089C133.241 157.957 133.557 157.759 133.835 157.495C134.114 157.217 134.327 156.865 134.473 156.439C134.635 156.014 134.715 155.515 134.715 154.943V148.981H137.069V159.981H135.001L134.891 158.199C134.51 158.889 133.997 159.395 133.351 159.717C132.706 160.04 131.943 160.201 131.063 160.201ZM144.399 145.747V156.681C144.399 157.224 144.538 157.62 144.817 157.869C145.11 158.119 145.499 158.243 145.983 158.243C146.379 158.243 146.724 158.185 147.017 158.067C147.31 157.935 147.582 157.759 147.831 157.539L148.359 159.255C148.022 159.549 147.604 159.783 147.105 159.959C146.621 160.121 146.078 160.201 145.477 160.201C144.846 160.201 144.267 160.099 143.739 159.893C143.211 159.688 142.8 159.358 142.507 158.903C142.214 158.434 142.06 157.825 142.045 157.077V146.407L144.399 145.747ZM148.183 148.981V150.829H139.933V148.981H148.183ZM91.9142 187.981V172.031H94.2682V178.741C94.6349 178.052 95.1262 177.553 95.7422 177.245C96.3729 176.923 97.0695 176.761 97.8322 176.761C98.6095 176.761 99.3062 176.915 99.9222 177.223C100.553 177.517 101.052 177.964 101.418 178.565C101.785 179.167 101.968 179.929 101.968 180.853V187.981H99.6142V181.601C99.6142 180.516 99.3869 179.761 98.9322 179.335C98.4922 178.91 97.9349 178.697 97.2602 178.697C96.7909 178.697 96.3215 178.815 95.8522 179.049C95.3975 179.269 95.0162 179.636 94.7082 180.149C94.4149 180.648 94.2682 181.323 94.2682 182.173V187.981H91.9142ZM112.333 180.919C112.333 180.186 112.128 179.621 111.717 179.225C111.321 178.815 110.771 178.609 110.067 178.609C109.407 178.609 108.843 178.763 108.373 179.071C107.904 179.379 107.559 179.878 107.339 180.567L105.359 179.731C105.638 178.837 106.181 178.118 106.987 177.575C107.809 177.033 108.865 176.761 110.155 176.761C111.035 176.761 111.813 176.908 112.487 177.201C113.162 177.48 113.69 177.905 114.071 178.477C114.467 179.049 114.665 179.783 114.665 180.677V185.583C114.665 186.126 114.937 186.397 115.479 186.397C115.743 186.397 116 186.361 116.249 186.287L116.117 187.915C115.78 188.077 115.355 188.157 114.841 188.157C114.372 188.157 113.947 188.077 113.565 187.915C113.199 187.739 112.905 187.483 112.685 187.145C112.48 186.793 112.377 186.361 112.377 185.847V185.693L112.861 185.671C112.729 186.243 112.458 186.72 112.047 187.101C111.637 187.468 111.16 187.747 110.617 187.937C110.075 188.113 109.525 188.201 108.967 188.201C108.278 188.201 107.655 188.091 107.097 187.871C106.555 187.651 106.122 187.321 105.799 186.881C105.491 186.427 105.337 185.869 105.337 185.209C105.337 184.388 105.601 183.713 106.129 183.185C106.672 182.657 107.435 182.298 108.417 182.107L112.685 181.271L112.663 182.921L109.561 183.559C108.945 183.677 108.483 183.845 108.175 184.065C107.867 184.285 107.713 184.608 107.713 185.033C107.713 185.444 107.867 185.774 108.175 186.023C108.498 186.258 108.923 186.375 109.451 186.375C109.818 186.375 110.17 186.331 110.507 186.243C110.859 186.155 111.175 186.016 111.453 185.825C111.732 185.62 111.945 185.363 112.091 185.055C112.253 184.733 112.333 184.351 112.333 183.911V180.919ZM125.813 176.981H128.277L123.899 187.981H121.325L116.925 176.981H119.499L122.623 185.935L125.813 176.981ZM131.912 175.133C131.399 175.133 131.003 175.009 130.724 174.759C130.46 174.495 130.328 174.129 130.328 173.659C130.328 173.19 130.46 172.831 130.724 172.581C131.003 172.332 131.399 172.207 131.912 172.207C132.411 172.207 132.792 172.332 133.056 172.581C133.335 172.831 133.474 173.19 133.474 173.659C133.474 174.129 133.335 174.495 133.056 174.759C132.792 175.009 132.411 175.133 131.912 175.133ZM133.078 176.981V187.981H130.724V176.981H133.078ZM137.202 187.981V176.981H139.292L139.446 179.841L139.138 179.533C139.343 178.903 139.636 178.382 140.018 177.971C140.414 177.546 140.876 177.238 141.404 177.047C141.946 176.857 142.518 176.761 143.12 176.761C143.897 176.761 144.594 176.915 145.21 177.223C145.84 177.517 146.339 177.964 146.706 178.565C147.072 179.167 147.256 179.929 147.256 180.853V187.981H144.902V181.579C144.902 180.494 144.674 179.746 144.22 179.335C143.78 178.91 143.222 178.697 142.548 178.697C142.064 178.697 141.594 178.815 141.14 179.049C140.685 179.269 140.304 179.629 139.996 180.127C139.702 180.626 139.556 181.293 139.556 182.129V187.981H137.202ZM160.943 174.671L161.317 176.519C161.273 176.519 161.229 176.519 161.185 176.519C161.141 176.505 161.097 176.497 161.053 176.497C160.349 176.497 159.813 176.651 159.447 176.959C159.08 177.253 158.897 177.685 158.897 178.257L157.753 177.729C157.753 177.143 157.877 176.622 158.127 176.167C158.376 175.698 158.728 175.331 159.183 175.067C159.652 174.803 160.18 174.671 160.767 174.671C160.796 174.671 160.825 174.671 160.855 174.671C160.884 174.671 160.913 174.671 160.943 174.671ZM157.467 186.265C158.581 186.265 159.447 186.515 160.063 187.013C160.679 187.497 160.987 188.172 160.987 189.037C160.987 189.8 160.745 190.453 160.261 190.995C159.777 191.553 159.117 191.978 158.281 192.271C157.459 192.565 156.513 192.711 155.443 192.711C153.639 192.711 152.304 192.433 151.439 191.875C150.573 191.318 150.141 190.621 150.141 189.785C150.141 189.199 150.346 188.685 150.757 188.245C151.182 187.805 151.893 187.556 152.891 187.497L152.759 187.849C152.143 187.717 151.644 187.483 151.263 187.145C150.896 186.793 150.713 186.302 150.713 185.671C150.713 185.041 150.955 184.505 151.439 184.065C151.923 183.625 152.605 183.369 153.485 183.295L154.717 183.889H154.453C153.778 183.948 153.301 184.102 153.023 184.351C152.744 184.601 152.605 184.879 152.605 185.187C152.605 185.554 152.737 185.825 153.001 186.001C153.279 186.177 153.668 186.265 154.167 186.265H157.467ZM155.443 190.951C156.249 190.951 156.909 190.871 157.423 190.709C157.951 190.563 158.339 190.365 158.589 190.115C158.853 189.881 158.985 189.617 158.985 189.323C158.985 188.986 158.845 188.715 158.567 188.509C158.303 188.304 157.819 188.201 157.115 188.201H153.573C153.162 188.201 152.817 188.304 152.539 188.509C152.26 188.729 152.121 189.023 152.121 189.389C152.121 189.873 152.414 190.255 153.001 190.533C153.587 190.812 154.401 190.951 155.443 190.951ZM155.355 176.761C156.323 176.761 157.159 176.915 157.863 177.223C158.581 177.531 159.131 177.964 159.513 178.521C159.909 179.079 160.107 179.731 160.107 180.479C160.107 181.227 159.909 181.88 159.513 182.437C159.131 182.995 158.581 183.427 157.863 183.735C157.159 184.043 156.323 184.197 155.355 184.197C153.829 184.197 152.656 183.86 151.835 183.185C151.028 182.496 150.625 181.594 150.625 180.479C150.625 179.731 150.823 179.079 151.219 178.521C151.615 177.964 152.165 177.531 152.869 177.223C153.587 176.915 154.416 176.761 155.355 176.761ZM155.355 178.411C154.68 178.411 154.115 178.602 153.661 178.983C153.221 179.35 153.001 179.849 153.001 180.479C153.001 181.11 153.221 181.616 153.661 181.997C154.115 182.379 154.68 182.569 155.355 182.569C156.044 182.569 156.609 182.379 157.049 181.997C157.503 181.616 157.731 181.11 157.731 180.479C157.731 179.849 157.503 179.35 157.049 178.983C156.609 178.602 156.044 178.411 155.355 178.411ZM83.2069 208.919C83.2069 208.186 83.0016 207.621 82.5909 207.225C82.1949 206.815 81.6449 206.609 80.9409 206.609C80.2809 206.609 79.7163 206.763 79.2469 207.071C78.7776 207.379 78.4329 207.878 78.2129 208.567L76.2329 207.731C76.5116 206.837 77.0543 206.118 77.8609 205.575C78.6823 205.033 79.7383 204.761 81.0289 204.761C81.9089 204.761 82.6863 204.908 83.3609 205.201C84.0356 205.48 84.5636 205.905 84.9449 206.477C85.3409 207.049 85.5389 207.783 85.5389 208.677V213.583C85.5389 214.126 85.8103 214.397 86.3529 214.397C86.6169 214.397 86.8736 214.361 87.1229 214.287L86.9909 215.915C86.6536 216.077 86.2283 216.157 85.7149 216.157C85.2456 216.157 84.8203 216.077 84.4389 215.915C84.0723 215.739 83.7789 215.483 83.5589 215.145C83.3536 214.793 83.2509 214.361 83.2509 213.847V213.693L83.7349 213.671C83.6029 214.243 83.3316 214.72 82.9209 215.101C82.5103 215.468 82.0336 215.747 81.4909 215.937C80.9483 216.113 80.3983 216.201 79.8409 216.201C79.1516 216.201 78.5283 216.091 77.9709 215.871C77.4283 215.651 76.9956 215.321 76.6729 214.881C76.3649 214.427 76.2109 213.869 76.2109 213.209C76.2109 212.388 76.4749 211.713 77.0029 211.185C77.5456 210.657 78.3083 210.298 79.2909 210.107L83.5589 209.271L83.5369 210.921L80.4349 211.559C79.8189 211.677 79.3569 211.845 79.0489 212.065C78.7409 212.285 78.5869 212.608 78.5869 213.033C78.5869 213.444 78.7409 213.774 79.0489 214.023C79.3716 214.258 79.7969 214.375 80.3249 214.375C80.6916 214.375 81.0436 214.331 81.3809 214.243C81.7329 214.155 82.0483 214.016 82.3269 213.825C82.6056 213.62 82.8183 213.363 82.9649 213.055C83.1263 212.733 83.2069 212.351 83.2069 211.911V208.919ZM106.68 202.671L107.054 204.519C107.01 204.519 106.966 204.519 106.922 204.519C106.878 204.505 106.834 204.497 106.79 204.497C106.086 204.497 105.551 204.651 105.184 204.959C104.818 205.253 104.634 205.685 104.634 206.257L103.49 205.729C103.49 205.143 103.615 204.622 103.864 204.167C104.114 203.698 104.466 203.331 104.92 203.067C105.39 202.803 105.918 202.671 106.504 202.671C106.534 202.671 106.563 202.671 106.592 202.671C106.622 202.671 106.651 202.671 106.68 202.671ZM103.204 214.265C104.319 214.265 105.184 214.515 105.8 215.013C106.416 215.497 106.724 216.172 106.724 217.037C106.724 217.8 106.482 218.453 105.998 218.995C105.514 219.553 104.854 219.978 104.018 220.271C103.197 220.565 102.251 220.711 101.18 220.711C99.3764 220.711 98.0417 220.433 97.1764 219.875C96.3111 219.318 95.8784 218.621 95.8784 217.785C95.8784 217.199 96.0837 216.685 96.4944 216.245C96.9197 215.805 97.6311 215.556 98.6284 215.497L98.4964 215.849C97.8804 215.717 97.3817 215.483 97.0004 215.145C96.6337 214.793 96.4504 214.302 96.4504 213.671C96.4504 213.041 96.6924 212.505 97.1764 212.065C97.6604 211.625 98.3424 211.369 99.2224 211.295L100.454 211.889H100.19C99.5157 211.948 99.0391 212.102 98.7604 212.351C98.4817 212.601 98.3424 212.879 98.3424 213.187C98.3424 213.554 98.4744 213.825 98.7384 214.001C99.0171 214.177 99.4057 214.265 99.9044 214.265H103.204ZM101.18 218.951C101.987 218.951 102.647 218.871 103.16 218.709C103.688 218.563 104.077 218.365 104.326 218.115C104.59 217.881 104.722 217.617 104.722 217.323C104.722 216.986 104.583 216.715 104.304 216.509C104.04 216.304 103.556 216.201 102.852 216.201H99.3104C98.8997 216.201 98.5551 216.304 98.2764 216.509C97.9977 216.729 97.8584 217.023 97.8584 217.389C97.8584 217.873 98.1517 218.255 98.7384 218.533C99.3251 218.812 100.139 218.951 101.18 218.951ZM101.092 204.761C102.06 204.761 102.896 204.915 103.6 205.223C104.319 205.531 104.869 205.964 105.25 206.521C105.646 207.079 105.844 207.731 105.844 208.479C105.844 209.227 105.646 209.88 105.25 210.437C104.869 210.995 104.319 211.427 103.6 211.735C102.896 212.043 102.06 212.197 101.092 212.197C99.5671 212.197 98.3937 211.86 97.5724 211.185C96.7657 210.496 96.3624 209.594 96.3624 208.479C96.3624 207.731 96.5604 207.079 96.9564 206.521C97.3524 205.964 97.9024 205.531 98.6064 205.223C99.3251 204.915 100.154 204.761 101.092 204.761ZM101.092 206.411C100.418 206.411 99.8531 206.602 99.3984 206.983C98.9584 207.35 98.7384 207.849 98.7384 208.479C98.7384 209.11 98.9584 209.616 99.3984 209.997C99.8531 210.379 100.418 210.569 101.092 210.569C101.782 210.569 102.346 210.379 102.786 209.997C103.241 209.616 103.468 209.11 103.468 208.479C103.468 207.849 103.241 207.35 102.786 206.983C102.346 206.602 101.782 206.411 101.092 206.411ZM114.161 216.201C113.061 216.201 112.093 215.974 111.257 215.519C110.421 215.065 109.769 214.412 109.299 213.561C108.845 212.696 108.617 211.669 108.617 210.481C108.617 209.293 108.845 208.274 109.299 207.423C109.769 206.558 110.414 205.898 111.235 205.443C112.057 204.989 112.988 204.761 114.029 204.761C115.1 204.761 116.009 204.981 116.757 205.421C117.505 205.861 118.077 206.463 118.473 207.225C118.869 207.988 119.067 208.853 119.067 209.821C119.067 210.085 119.06 210.335 119.045 210.569C119.031 210.804 119.009 211.009 118.979 211.185H110.135V209.381H117.945L116.779 209.733C116.779 208.736 116.53 207.973 116.031 207.445C115.533 206.903 114.851 206.631 113.985 206.631C113.355 206.631 112.805 206.778 112.335 207.071C111.866 207.365 111.507 207.805 111.257 208.391C111.008 208.963 110.883 209.667 110.883 210.503C110.883 211.325 111.015 212.021 111.279 212.593C111.543 213.165 111.917 213.598 112.401 213.891C112.885 214.185 113.457 214.331 114.117 214.331C114.851 214.331 115.445 214.192 115.899 213.913C116.354 213.635 116.713 213.246 116.977 212.747L118.847 213.627C118.583 214.155 118.224 214.617 117.769 215.013C117.329 215.395 116.801 215.688 116.185 215.893C115.569 216.099 114.895 216.201 114.161 216.201ZM122.48 215.981V204.981H124.57L124.724 207.841L124.416 207.533C124.621 206.903 124.915 206.382 125.296 205.971C125.692 205.546 126.154 205.238 126.682 205.047C127.225 204.857 127.797 204.761 128.398 204.761C129.175 204.761 129.872 204.915 130.488 205.223C131.119 205.517 131.617 205.964 131.984 206.565C132.351 207.167 132.534 207.929 132.534 208.853V215.981H130.18V209.579C130.18 208.494 129.953 207.746 129.498 207.335C129.058 206.91 128.501 206.697 127.826 206.697C127.342 206.697 126.873 206.815 126.418 207.049C125.963 207.269 125.582 207.629 125.274 208.127C124.981 208.626 124.834 209.293 124.834 210.129V215.981H122.48ZM141.381 216.201C140.281 216.201 139.313 215.974 138.477 215.519C137.641 215.065 136.988 214.412 136.519 213.561C136.064 212.696 135.837 211.669 135.837 210.481C135.837 209.293 136.064 208.274 136.519 207.423C136.988 206.558 137.634 205.898 138.455 205.443C139.276 204.989 140.208 204.761 141.249 204.761C142.32 204.761 143.229 204.981 143.977 205.421C144.725 205.861 145.297 206.463 145.693 207.225C146.089 207.988 146.287 208.853 146.287 209.821C146.287 210.085 146.28 210.335 146.265 210.569C146.25 210.804 146.228 211.009 146.199 211.185H137.355V209.381H145.165L143.999 209.733C143.999 208.736 143.75 207.973 143.251 207.445C142.752 206.903 142.07 206.631 141.205 206.631C140.574 206.631 140.024 206.778 139.555 207.071C139.086 207.365 138.726 207.805 138.477 208.391C138.228 208.963 138.103 209.667 138.103 210.503C138.103 211.325 138.235 212.021 138.499 212.593C138.763 213.165 139.137 213.598 139.621 213.891C140.105 214.185 140.677 214.331 141.337 214.331C142.07 214.331 142.664 214.192 143.119 213.913C143.574 213.635 143.933 213.246 144.197 212.747L146.067 213.627C145.803 214.155 145.444 214.617 144.989 215.013C144.549 215.395 144.021 215.688 143.405 215.893C142.789 216.099 142.114 216.201 141.381 216.201ZM149.7 215.981V204.981H151.702L151.922 206.961C152.215 206.243 152.648 205.7 153.22 205.333C153.807 204.952 154.525 204.761 155.376 204.761C155.596 204.761 155.816 204.783 156.036 204.827C156.256 204.857 156.439 204.908 156.586 204.981L156.256 207.049C156.095 206.991 155.911 206.947 155.706 206.917C155.515 206.873 155.251 206.851 154.914 206.851C154.459 206.851 154.012 206.976 153.572 207.225C153.132 207.46 152.765 207.819 152.472 208.303C152.193 208.787 152.054 209.403 152.054 210.151V215.981H149.7ZM165.371 208.919C165.371 208.186 165.166 207.621 164.755 207.225C164.359 206.815 163.809 206.609 163.105 206.609C162.445 206.609 161.88 206.763 161.411 207.071C160.942 207.379 160.597 207.878 160.377 208.567L158.397 207.731C158.676 206.837 159.218 206.118 160.025 205.575C160.846 205.033 161.902 204.761 163.193 204.761C164.073 204.761 164.85 204.908 165.525 205.201C166.2 205.48 166.728 205.905 167.109 206.477C167.505 207.049 167.703 207.783 167.703 208.677V213.583C167.703 214.126 167.974 214.397 168.517 214.397C168.781 214.397 169.038 214.361 169.287 214.287L169.155 215.915C168.818 216.077 168.392 216.157 167.879 216.157C167.41 216.157 166.984 216.077 166.603 215.915C166.236 215.739 165.943 215.483 165.723 215.145C165.518 214.793 165.415 214.361 165.415 213.847V213.693L165.899 213.671C165.767 214.243 165.496 214.72 165.085 215.101C164.674 215.468 164.198 215.747 163.655 215.937C163.112 216.113 162.562 216.201 162.005 216.201C161.316 216.201 160.692 216.091 160.135 215.871C159.592 215.651 159.16 215.321 158.837 214.881C158.529 214.427 158.375 213.869 158.375 213.209C158.375 212.388 158.639 211.713 159.167 211.185C159.71 210.657 160.472 210.298 161.455 210.107L165.723 209.271L165.701 210.921L162.599 211.559C161.983 211.677 161.521 211.845 161.213 212.065C160.905 212.285 160.751 212.608 160.751 213.033C160.751 213.444 160.905 213.774 161.213 214.023C161.536 214.258 161.961 214.375 162.489 214.375C162.856 214.375 163.208 214.331 163.545 214.243C163.897 214.155 164.212 214.016 164.491 213.825C164.77 213.62 164.982 213.363 165.129 213.055C165.29 212.733 165.371 212.351 165.371 211.911V208.919ZM174.288 200.031V212.901C174.288 213.444 174.383 213.818 174.574 214.023C174.764 214.229 175.08 214.331 175.52 214.331C175.784 214.331 176.004 214.317 176.18 214.287C176.37 214.243 176.605 214.17 176.884 214.067L176.62 215.827C176.37 215.945 176.084 216.033 175.762 216.091C175.439 216.165 175.116 216.201 174.794 216.201C173.811 216.201 173.085 215.952 172.616 215.453C172.161 214.94 171.934 214.155 171.934 213.099V200.031H174.288ZM90.9271 231.133C90.4138 231.133 90.0178 231.009 89.7391 230.759C89.4751 230.495 89.3431 230.129 89.3431 229.659C89.3431 229.19 89.4751 228.831 89.7391 228.581C90.0178 228.332 90.4138 228.207 90.9271 228.207C91.4258 228.207 91.8071 228.332 92.0711 228.581C92.3498 228.831 92.4891 229.19 92.4891 229.659C92.4891 230.129 92.3498 230.495 92.0711 230.759C91.8071 231.009 91.4258 231.133 90.9271 231.133ZM92.0931 232.981V243.981H89.7391V232.981H92.0931ZM100.44 244.201C99.5309 244.201 98.7022 243.974 97.9542 243.519C97.2209 243.065 96.6416 242.412 96.2162 241.561C95.7909 240.711 95.5782 239.691 95.5782 238.503C95.5782 237.271 95.8056 236.23 96.2602 235.379C96.7149 234.529 97.3236 233.883 98.0862 233.443C98.8489 232.989 99.6849 232.761 100.594 232.761C101.533 232.761 102.325 233.018 102.97 233.531C103.616 234.045 104.048 234.712 104.268 235.533L104.004 235.775V228.031H106.358V243.981H104.268L104.092 240.989L104.4 241.011C104.298 241.671 104.056 242.243 103.674 242.727C103.293 243.197 102.816 243.563 102.244 243.827C101.687 244.077 101.086 244.201 100.44 244.201ZM100.946 242.309C101.577 242.309 102.12 242.148 102.574 241.825C103.029 241.503 103.381 241.048 103.63 240.461C103.88 239.875 104.004 239.171 104.004 238.349C104.004 237.587 103.88 236.934 103.63 236.391C103.381 235.834 103.029 235.409 102.574 235.115C102.134 234.822 101.621 234.675 101.034 234.675C100.052 234.675 99.2889 235.013 98.7462 235.687C98.2036 236.362 97.9322 237.293 97.9322 238.481C97.9322 239.669 98.1962 240.608 98.7242 241.297C99.2522 241.972 99.9929 242.309 100.946 242.309ZM115.289 244.201C114.189 244.201 113.221 243.974 112.385 243.519C111.549 243.065 110.897 242.412 110.427 241.561C109.973 240.696 109.745 239.669 109.745 238.481C109.745 237.293 109.973 236.274 110.427 235.423C110.897 234.558 111.542 233.898 112.363 233.443C113.185 232.989 114.116 232.761 115.157 232.761C116.228 232.761 117.137 232.981 117.885 233.421C118.633 233.861 119.205 234.463 119.601 235.225C119.997 235.988 120.195 236.853 120.195 237.821C120.195 238.085 120.188 238.335 120.173 238.569C120.159 238.804 120.137 239.009 120.107 239.185H111.263V237.381H119.073L117.907 237.733C117.907 236.736 117.658 235.973 117.159 235.445C116.661 234.903 115.979 234.631 115.113 234.631C114.483 234.631 113.933 234.778 113.463 235.071C112.994 235.365 112.635 235.805 112.385 236.391C112.136 236.963 112.011 237.667 112.011 238.503C112.011 239.325 112.143 240.021 112.407 240.593C112.671 241.165 113.045 241.598 113.529 241.891C114.013 242.185 114.585 242.331 115.245 242.331C115.979 242.331 116.573 242.192 117.027 241.913C117.482 241.635 117.841 241.246 118.105 240.747L119.975 241.627C119.711 242.155 119.352 242.617 118.897 243.013C118.457 243.395 117.929 243.688 117.313 243.893C116.697 244.099 116.023 244.201 115.289 244.201ZM129.966 236.919C129.966 236.186 129.761 235.621 129.35 235.225C128.954 234.815 128.404 234.609 127.7 234.609C127.04 234.609 126.475 234.763 126.006 235.071C125.537 235.379 125.192 235.878 124.972 236.567L122.992 235.731C123.271 234.837 123.813 234.118 124.62 233.575C125.441 233.033 126.497 232.761 127.788 232.761C128.668 232.761 129.445 232.908 130.12 233.201C130.795 233.48 131.323 233.905 131.704 234.477C132.1 235.049 132.298 235.783 132.298 236.677V241.583C132.298 242.126 132.569 242.397 133.112 242.397C133.376 242.397 133.633 242.361 133.882 242.287L133.75 243.915C133.413 244.077 132.987 244.157 132.474 244.157C132.005 244.157 131.579 244.077 131.198 243.915C130.831 243.739 130.538 243.483 130.318 243.145C130.113 242.793 130.01 242.361 130.01 241.847V241.693L130.494 241.671C130.362 242.243 130.091 242.72 129.68 243.101C129.269 243.468 128.793 243.747 128.25 243.937C127.707 244.113 127.157 244.201 126.6 244.201C125.911 244.201 125.287 244.091 124.73 243.871C124.187 243.651 123.755 243.321 123.432 242.881C123.124 242.427 122.97 241.869 122.97 241.209C122.97 240.388 123.234 239.713 123.762 239.185C124.305 238.657 125.067 238.298 126.05 238.107L130.318 237.271L130.296 238.921L127.194 239.559C126.578 239.677 126.116 239.845 125.808 240.065C125.5 240.285 125.346 240.608 125.346 241.033C125.346 241.444 125.5 241.774 125.808 242.023C126.131 242.258 126.556 242.375 127.084 242.375C127.451 242.375 127.803 242.331 128.14 242.243C128.492 242.155 128.807 242.016 129.086 241.825C129.365 241.62 129.577 241.363 129.724 241.055C129.885 240.733 129.966 240.351 129.966 239.911V236.919ZM148.533 232.761C149.604 232.761 150.55 232.989 151.371 233.443C152.193 233.898 152.831 234.558 153.285 235.423C153.755 236.274 153.989 237.293 153.989 238.481C153.989 239.669 153.755 240.696 153.285 241.561C152.831 242.412 152.193 243.065 151.371 243.519C150.55 243.974 149.604 244.201 148.533 244.201C147.463 244.201 146.517 243.974 145.695 243.519C144.874 243.065 144.229 242.412 143.759 241.561C143.29 240.696 143.055 239.669 143.055 238.481C143.055 237.293 143.29 236.274 143.759 235.423C144.229 234.558 144.874 233.898 145.695 233.443C146.517 232.989 147.463 232.761 148.533 232.761ZM148.533 234.609C147.873 234.609 147.309 234.763 146.839 235.071C146.385 235.365 146.033 235.797 145.783 236.369C145.534 236.941 145.409 237.645 145.409 238.481C145.409 239.303 145.534 240.007 145.783 240.593C146.033 241.165 146.385 241.605 146.839 241.913C147.309 242.207 147.873 242.353 148.533 242.353C149.193 242.353 149.751 242.207 150.205 241.913C150.66 241.605 151.012 241.165 151.261 240.593C151.511 240.007 151.635 239.303 151.635 238.481C151.635 237.645 151.511 236.941 151.261 236.369C151.012 235.797 150.66 235.365 150.205 235.071C149.751 234.763 149.193 234.609 148.533 234.609ZM161.904 227.877C162.359 227.877 162.77 227.929 163.136 228.031C163.518 228.119 163.804 228.244 163.994 228.405L163.554 230.099C163.393 229.997 163.21 229.923 163.004 229.879C162.799 229.821 162.564 229.791 162.3 229.791C161.699 229.791 161.222 229.931 160.87 230.209C160.533 230.488 160.364 230.943 160.364 231.573V233.179L160.43 233.773V243.981H158.076V231.397C158.076 230.84 158.157 230.341 158.318 229.901C158.494 229.461 158.751 229.095 159.088 228.801C159.426 228.493 159.829 228.266 160.298 228.119C160.782 227.958 161.318 227.877 161.904 227.877ZM163.928 232.981V234.829H156.008V232.981H163.928ZM81.4256 260.981H83.9776L80.2816 271.981H77.7076L74.9356 263.819L72.3176 271.981H69.7436L66.0696 260.981H68.5996L71.1076 269.671L73.8356 260.981H76.1896L78.9176 269.671L81.4256 260.981ZM86.6939 271.981V256.031H89.0479V262.741C89.4146 262.052 89.9059 261.553 90.5219 261.245C91.1526 260.923 91.8493 260.761 92.6119 260.761C93.3893 260.761 94.0859 260.915 94.7019 261.223C95.3326 261.517 95.8313 261.964 96.1979 262.565C96.5646 263.167 96.7479 263.929 96.7479 264.853V271.981H94.3939V265.601C94.3939 264.516 94.1666 263.761 93.7119 263.335C93.2719 262.91 92.7146 262.697 92.0399 262.697C91.5706 262.697 91.1013 262.815 90.6319 263.049C90.1773 263.269 89.7959 263.636 89.4879 264.149C89.1946 264.648 89.0479 265.323 89.0479 266.173V271.981H86.6939ZM101.943 259.133C101.43 259.133 101.034 259.009 100.755 258.759C100.491 258.495 100.359 258.129 100.359 257.659C100.359 257.19 100.491 256.831 100.755 256.581C101.034 256.332 101.43 256.207 101.943 256.207C102.442 256.207 102.823 256.332 103.087 256.581C103.366 256.831 103.505 257.19 103.505 257.659C103.505 258.129 103.366 258.495 103.087 258.759C102.823 259.009 102.442 259.133 101.943 259.133ZM103.109 260.981V271.981H100.755V260.981H103.109ZM111.984 260.761C112.864 260.761 113.612 260.893 114.228 261.157C114.859 261.407 115.387 261.766 115.812 262.235C116.237 262.705 116.56 263.24 116.78 263.841L114.558 264.721C114.367 264.047 114.059 263.533 113.634 263.181C113.223 262.815 112.681 262.631 112.006 262.631C111.346 262.631 110.781 262.785 110.312 263.093C109.843 263.387 109.483 263.819 109.234 264.391C108.999 264.963 108.882 265.667 108.882 266.503C108.882 267.325 109.007 268.021 109.256 268.593C109.505 269.165 109.865 269.598 110.334 269.891C110.803 270.185 111.361 270.331 112.006 270.331C112.505 270.331 112.937 270.251 113.304 270.089C113.671 269.913 113.971 269.671 114.206 269.363C114.455 269.041 114.624 268.652 114.712 268.197L116.846 268.923C116.641 269.583 116.318 270.163 115.878 270.661C115.453 271.145 114.917 271.527 114.272 271.805C113.627 272.069 112.886 272.201 112.05 272.201C110.965 272.201 110.004 271.974 109.168 271.519C108.332 271.065 107.679 270.412 107.21 269.561C106.755 268.696 106.528 267.669 106.528 266.481C106.528 265.293 106.755 264.274 107.21 263.423C107.679 262.558 108.325 261.898 109.146 261.443C109.982 260.989 110.928 260.761 111.984 260.761ZM120.026 271.981V256.031H122.38V262.741C122.746 262.052 123.238 261.553 123.854 261.245C124.484 260.923 125.181 260.761 125.944 260.761C126.721 260.761 127.418 260.915 128.034 261.223C128.664 261.517 129.163 261.964 129.53 262.565C129.896 263.167 130.08 263.929 130.08 264.853V271.981H127.726V265.601C127.726 264.516 127.498 263.761 127.044 263.335C126.604 262.91 126.046 262.697 125.372 262.697C124.902 262.697 124.433 262.815 123.964 263.049C123.509 263.269 123.128 263.636 122.82 264.149C122.526 264.648 122.38 265.323 122.38 266.173V271.981H120.026ZM148.039 264.919C148.039 264.186 147.834 263.621 147.423 263.225C147.027 262.815 146.477 262.609 145.773 262.609C145.113 262.609 144.548 262.763 144.079 263.071C143.61 263.379 143.265 263.878 143.045 264.567L141.065 263.731C141.344 262.837 141.886 262.118 142.693 261.575C143.514 261.033 144.57 260.761 145.861 260.761C146.741 260.761 147.518 260.908 148.193 261.201C148.868 261.48 149.396 261.905 149.777 262.477C150.173 263.049 150.371 263.783 150.371 264.677V269.583C150.371 270.126 150.642 270.397 151.185 270.397C151.449 270.397 151.706 270.361 151.955 270.287L151.823 271.915C151.486 272.077 151.06 272.157 150.547 272.157C150.078 272.157 149.652 272.077 149.271 271.915C148.904 271.739 148.611 271.483 148.391 271.145C148.186 270.793 148.083 270.361 148.083 269.847V269.693L148.567 269.671C148.435 270.243 148.164 270.72 147.753 271.101C147.342 271.468 146.866 271.747 146.323 271.937C145.78 272.113 145.23 272.201 144.673 272.201C143.984 272.201 143.36 272.091 142.803 271.871C142.26 271.651 141.828 271.321 141.505 270.881C141.197 270.427 141.043 269.869 141.043 269.209C141.043 268.388 141.307 267.713 141.835 267.185C142.378 266.657 143.14 266.298 144.123 266.107L148.391 265.271L148.369 266.921L145.267 267.559C144.651 267.677 144.189 267.845 143.881 268.065C143.573 268.285 143.419 268.608 143.419 269.033C143.419 269.444 143.573 269.774 143.881 270.023C144.204 270.258 144.629 270.375 145.157 270.375C145.524 270.375 145.876 270.331 146.213 270.243C146.565 270.155 146.88 270.016 147.159 269.825C147.438 269.62 147.65 269.363 147.797 269.055C147.958 268.733 148.039 268.351 148.039 267.911V264.919ZM154.668 276.601V260.981H156.758L156.934 264.061L156.626 263.687C156.802 263.115 157.073 262.609 157.44 262.169C157.807 261.729 158.261 261.385 158.804 261.135C159.361 260.886 159.97 260.761 160.63 260.761C161.525 260.761 162.339 260.989 163.072 261.443C163.805 261.898 164.385 262.551 164.81 263.401C165.235 264.237 165.448 265.257 165.448 266.459C165.448 267.662 165.228 268.696 164.788 269.561C164.363 270.412 163.776 271.065 163.028 271.519C162.295 271.974 161.473 272.201 160.564 272.201C159.625 272.201 158.826 271.959 158.166 271.475C157.506 270.977 157.037 270.346 156.758 269.583L157.022 269.209V276.601H154.668ZM160.058 270.287C161.011 270.287 161.752 269.95 162.28 269.275C162.823 268.601 163.094 267.669 163.094 266.481C163.094 265.293 162.83 264.362 162.302 263.687C161.774 262.998 161.041 262.653 160.102 262.653C159.486 262.653 158.943 262.815 158.474 263.137C158.019 263.445 157.66 263.885 157.396 264.457C157.147 265.015 157.022 265.689 157.022 266.481C157.022 267.259 157.147 267.933 157.396 268.505C157.645 269.077 157.997 269.517 158.452 269.825C158.907 270.133 159.442 270.287 160.058 270.287ZM168.901 276.601V260.981H170.991L171.167 264.061L170.859 263.687C171.035 263.115 171.306 262.609 171.673 262.169C172.04 261.729 172.494 261.385 173.037 261.135C173.594 260.886 174.203 260.761 174.863 260.761C175.758 260.761 176.572 260.989 177.305 261.443C178.038 261.898 178.618 262.551 179.043 263.401C179.468 264.237 179.681 265.257 179.681 266.459C179.681 267.662 179.461 268.696 179.021 269.561C178.596 270.412 178.009 271.065 177.261 271.519C176.528 271.974 175.706 272.201 174.797 272.201C173.858 272.201 173.059 271.959 172.399 271.475C171.739 270.977 171.27 270.346 170.991 269.583L171.255 269.209V276.601H168.901ZM174.291 270.287C175.244 270.287 175.985 269.95 176.513 269.275C177.056 268.601 177.327 267.669 177.327 266.481C177.327 265.293 177.063 264.362 176.535 263.687C176.007 262.998 175.274 262.653 174.335 262.653C173.719 262.653 173.176 262.815 172.707 263.137C172.252 263.445 171.893 263.885 171.629 264.457C171.38 265.015 171.255 265.689 171.255 266.481C171.255 267.259 171.38 267.933 171.629 268.505C171.878 269.077 172.23 269.517 172.685 269.825C173.14 270.133 173.675 270.287 174.291 270.287ZM187.314 272.201C186.214 272.201 185.209 271.989 184.3 271.563C183.391 271.138 182.672 270.537 182.144 269.759L183.772 268.351C184.095 268.953 184.557 269.437 185.158 269.803C185.774 270.155 186.507 270.331 187.358 270.331C188.033 270.331 188.568 270.214 188.964 269.979C189.36 269.745 189.558 269.415 189.558 268.989C189.558 268.711 189.463 268.469 189.272 268.263C189.096 268.043 188.751 267.875 188.238 267.757L185.928 267.273C184.755 267.039 183.919 266.665 183.42 266.151C182.921 265.623 182.672 264.956 182.672 264.149C182.672 263.548 182.848 262.991 183.2 262.477C183.552 261.964 184.065 261.553 184.74 261.245C185.429 260.923 186.251 260.761 187.204 260.761C188.304 260.761 189.243 260.959 190.02 261.355C190.797 261.737 191.391 262.287 191.802 263.005L190.174 264.369C189.895 263.783 189.485 263.35 188.942 263.071C188.399 262.778 187.835 262.631 187.248 262.631C186.779 262.631 186.375 262.69 186.038 262.807C185.701 262.925 185.444 263.086 185.268 263.291C185.092 263.497 185.004 263.739 185.004 264.017C185.004 264.311 185.114 264.567 185.334 264.787C185.554 265.007 185.95 265.176 186.522 265.293L189.03 265.821C190.086 266.027 190.827 266.379 191.252 266.877C191.692 267.361 191.912 267.955 191.912 268.659C191.912 269.363 191.729 269.987 191.362 270.529C190.995 271.057 190.467 271.468 189.778 271.761C189.089 272.055 188.267 272.201 187.314 272.201ZM60.8371 288.761C61.7171 288.761 62.4651 288.893 63.0811 289.157C63.7118 289.407 64.2398 289.766 64.6651 290.235C65.0905 290.705 65.4131 291.24 65.6331 291.841L63.4111 292.721C63.2205 292.047 62.9125 291.533 62.4871 291.181C62.0765 290.815 61.5338 290.631 60.8591 290.631C60.1991 290.631 59.6345 290.785 59.1651 291.093C58.6958 291.387 58.3365 291.819 58.0871 292.391C57.8525 292.963 57.7351 293.667 57.7351 294.503C57.7351 295.325 57.8598 296.021 58.1091 296.593C58.3585 297.165 58.7178 297.598 59.1871 297.891C59.6565 298.185 60.2138 298.331 60.8591 298.331C61.3578 298.331 61.7905 298.251 62.1571 298.089C62.5238 297.913 62.8245 297.671 63.0591 297.363C63.3085 297.041 63.4771 296.652 63.5651 296.197L65.6991 296.923C65.4938 297.583 65.1711 298.163 64.7311 298.661C64.3058 299.145 63.7705 299.527 63.1251 299.805C62.4798 300.069 61.7391 300.201 60.9031 300.201C59.8178 300.201 58.8571 299.974 58.0211 299.519C57.1851 299.065 56.5325 298.412 56.0631 297.561C55.6085 296.696 55.3811 295.669 55.3811 294.481C55.3811 293.293 55.6085 292.274 56.0631 291.423C56.5325 290.558 57.1778 289.898 57.9991 289.443C58.8351 288.989 59.7811 288.761 60.8371 288.761ZM73.6527 288.761C74.7233 288.761 75.6693 288.989 76.4907 289.443C77.312 289.898 77.95 290.558 78.4047 291.423C78.874 292.274 79.1087 293.293 79.1087 294.481C79.1087 295.669 78.874 296.696 78.4047 297.561C77.95 298.412 77.312 299.065 76.4907 299.519C75.6693 299.974 74.7233 300.201 73.6527 300.201C72.582 300.201 71.636 299.974 70.8147 299.519C69.9933 299.065 69.348 298.412 68.8787 297.561C68.4093 296.696 68.1747 295.669 68.1747 294.481C68.1747 293.293 68.4093 292.274 68.8787 291.423C69.348 290.558 69.9933 289.898 70.8147 289.443C71.636 288.989 72.582 288.761 73.6527 288.761ZM73.6527 290.609C72.9927 290.609 72.428 290.763 71.9587 291.071C71.504 291.365 71.152 291.797 70.9027 292.369C70.6533 292.941 70.5287 293.645 70.5287 294.481C70.5287 295.303 70.6533 296.007 70.9027 296.593C71.152 297.165 71.504 297.605 71.9587 297.913C72.428 298.207 72.9927 298.353 73.6527 298.353C74.3127 298.353 74.87 298.207 75.3247 297.913C75.7793 297.605 76.1313 297.165 76.3807 296.593C76.63 296.007 76.7547 295.303 76.7547 294.481C76.7547 293.645 76.63 292.941 76.3807 292.369C76.1313 291.797 75.7793 291.365 75.3247 291.071C74.87 290.763 74.3127 290.609 73.6527 290.609ZM84.7981 284.031V296.901C84.7981 297.444 84.8934 297.818 85.0841 298.023C85.2747 298.229 85.5901 298.331 86.0301 298.331C86.2941 298.331 86.5141 298.317 86.6901 298.287C86.8807 298.243 87.1154 298.17 87.3941 298.067L87.1301 299.827C86.8807 299.945 86.5947 300.033 86.2721 300.091C85.9494 300.165 85.6267 300.201 85.3041 300.201C84.3214 300.201 83.5954 299.952 83.1261 299.453C82.6714 298.94 82.4441 298.155 82.4441 297.099V284.031H84.7981ZM92.0916 284.031V296.901C92.0916 297.444 92.1869 297.818 92.3776 298.023C92.5682 298.229 92.8836 298.331 93.3236 298.331C93.5876 298.331 93.8076 298.317 93.9836 298.287C94.1742 298.243 94.4089 298.17 94.6876 298.067L94.4236 299.827C94.1742 299.945 93.8882 300.033 93.5656 300.091C93.2429 300.165 92.9202 300.201 92.5976 300.201C91.6149 300.201 90.8889 299.952 90.4196 299.453C89.9649 298.94 89.7376 298.155 89.7376 297.099V284.031H92.0916ZM101.937 300.201C100.837 300.201 99.8691 299.974 99.0331 299.519C98.1971 299.065 97.5444 298.412 97.0751 297.561C96.6204 296.696 96.3931 295.669 96.3931 294.481C96.3931 293.293 96.6204 292.274 97.0751 291.423C97.5444 290.558 98.1898 289.898 99.0111 289.443C99.8324 288.989 100.764 288.761 101.805 288.761C102.876 288.761 103.785 288.981 104.533 289.421C105.281 289.861 105.853 290.463 106.249 291.225C106.645 291.988 106.843 292.853 106.843 293.821C106.843 294.085 106.836 294.335 106.821 294.569C106.806 294.804 106.784 295.009 106.755 295.185H97.9111V293.381H105.721L104.555 293.733C104.555 292.736 104.306 291.973 103.807 291.445C103.308 290.903 102.626 290.631 101.761 290.631C101.13 290.631 100.58 290.778 100.111 291.071C99.6418 291.365 99.2824 291.805 99.0331 292.391C98.7838 292.963 98.6591 293.667 98.6591 294.503C98.6591 295.325 98.7911 296.021 99.0551 296.593C99.3191 297.165 99.6931 297.598 100.177 297.891C100.661 298.185 101.233 298.331 101.893 298.331C102.626 298.331 103.22 298.192 103.675 297.913C104.13 297.635 104.489 297.246 104.753 296.747L106.623 297.627C106.359 298.155 106 298.617 105.545 299.013C105.105 299.395 104.577 299.688 103.961 299.893C103.345 300.099 102.67 300.201 101.937 300.201ZM115.008 288.761C115.888 288.761 116.636 288.893 117.252 289.157C117.883 289.407 118.411 289.766 118.836 290.235C119.261 290.705 119.584 291.24 119.804 291.841L117.582 292.721C117.391 292.047 117.083 291.533 116.658 291.181C116.247 290.815 115.705 290.631 115.03 290.631C114.37 290.631 113.805 290.785 113.336 291.093C112.867 291.387 112.507 291.819 112.258 292.391C112.023 292.963 111.906 293.667 111.906 294.503C111.906 295.325 112.031 296.021 112.28 296.593C112.529 297.165 112.889 297.598 113.358 297.891C113.827 298.185 114.385 298.331 115.03 298.331C115.529 298.331 115.961 298.251 116.328 298.089C116.695 297.913 116.995 297.671 117.23 297.363C117.479 297.041 117.648 296.652 117.736 296.197L119.87 296.923C119.665 297.583 119.342 298.163 118.902 298.661C118.477 299.145 117.941 299.527 117.296 299.805C116.651 300.069 115.91 300.201 115.074 300.201C113.989 300.201 113.028 299.974 112.192 299.519C111.356 299.065 110.703 298.412 110.234 297.561C109.779 296.696 109.552 295.669 109.552 294.481C109.552 293.293 109.779 292.274 110.234 291.423C110.703 290.558 111.349 289.898 112.17 289.443C113.006 288.989 113.952 288.761 115.008 288.761ZM126.261 285.747V296.681C126.261 297.224 126.401 297.62 126.679 297.869C126.973 298.119 127.361 298.243 127.845 298.243C128.241 298.243 128.586 298.185 128.879 298.067C129.173 297.935 129.444 297.759 129.693 297.539L130.221 299.255C129.884 299.549 129.466 299.783 128.967 299.959C128.483 300.121 127.941 300.201 127.339 300.201C126.709 300.201 126.129 300.099 125.601 299.893C125.073 299.688 124.663 299.358 124.369 298.903C124.076 298.434 123.922 297.825 123.907 297.077V286.407L126.261 285.747ZM130.045 288.981V290.829H121.795V288.981H130.045ZM153.906 288.981H156.458L152.762 299.981H150.188L147.416 291.819L144.798 299.981H142.224L138.55 288.981H141.08L143.588 297.671L146.316 288.981H148.67L151.398 297.671L153.906 288.981ZM159.174 299.981V284.031H161.528V290.741C161.895 290.052 162.386 289.553 163.002 289.245C163.633 288.923 164.329 288.761 165.092 288.761C165.869 288.761 166.566 288.915 167.182 289.223C167.813 289.517 168.311 289.964 168.678 290.565C169.045 291.167 169.228 291.929 169.228 292.853V299.981H166.874V293.601C166.874 292.516 166.647 291.761 166.192 291.335C165.752 290.91 165.195 290.697 164.52 290.697C164.051 290.697 163.581 290.815 163.112 291.049C162.657 291.269 162.276 291.636 161.968 292.149C161.675 292.648 161.528 293.323 161.528 294.173V299.981H159.174ZM174.423 287.133C173.91 287.133 173.514 287.009 173.235 286.759C172.971 286.495 172.839 286.129 172.839 285.659C172.839 285.19 172.971 284.831 173.235 284.581C173.514 284.332 173.91 284.207 174.423 284.207C174.922 284.207 175.303 284.332 175.567 284.581C175.846 284.831 175.985 285.19 175.985 285.659C175.985 286.129 175.846 286.495 175.567 286.759C175.303 287.009 174.922 287.133 174.423 287.133ZM175.589 288.981V299.981H173.235V288.981H175.589ZM184.464 288.761C185.344 288.761 186.092 288.893 186.708 289.157C187.339 289.407 187.867 289.766 188.292 290.235C188.718 290.705 189.04 291.24 189.26 291.841L187.038 292.721C186.848 292.047 186.54 291.533 186.114 291.181C185.704 290.815 185.161 290.631 184.486 290.631C183.826 290.631 183.262 290.785 182.792 291.093C182.323 291.387 181.964 291.819 181.714 292.391C181.48 292.963 181.362 293.667 181.362 294.503C181.362 295.325 181.487 296.021 181.736 296.593C181.986 297.165 182.345 297.598 182.814 297.891C183.284 298.185 183.841 298.331 184.486 298.331C184.985 298.331 185.418 298.251 185.784 298.089C186.151 297.913 186.452 297.671 186.686 297.363C186.936 297.041 187.104 296.652 187.192 296.197L189.326 296.923C189.121 297.583 188.798 298.163 188.358 298.661C187.933 299.145 187.398 299.527 186.752 299.805C186.107 300.069 185.366 300.201 184.53 300.201C183.445 300.201 182.484 299.974 181.648 299.519C180.812 299.065 180.16 298.412 179.69 297.561C179.236 296.696 179.008 295.669 179.008 294.481C179.008 293.293 179.236 292.274 179.69 291.423C180.16 290.558 180.805 289.898 181.626 289.443C182.462 288.989 183.408 288.761 184.464 288.761ZM192.506 299.981V284.031H194.86V290.741C195.226 290.052 195.718 289.553 196.334 289.245C196.964 288.923 197.661 288.761 198.424 288.761C199.201 288.761 199.898 288.915 200.514 289.223C201.144 289.517 201.643 289.964 202.01 290.565C202.376 291.167 202.56 291.929 202.56 292.853V299.981H200.206V293.601C200.206 292.516 199.978 291.761 199.524 291.335C199.084 290.91 198.526 290.697 197.852 290.697C197.382 290.697 196.913 290.815 196.444 291.049C195.989 291.269 195.608 291.636 195.3 292.149C195.006 292.648 194.86 293.323 194.86 294.173V299.981H192.506ZM63.7288 315.133C63.2154 315.133 62.8194 315.009 62.5408 314.759C62.2768 314.495 62.1448 314.129 62.1448 313.659C62.1448 313.19 62.2768 312.831 62.5408 312.581C62.8194 312.332 63.2154 312.207 63.7288 312.207C64.2274 312.207 64.6088 312.332 64.8728 312.581C65.1514 312.831 65.2908 313.19 65.2908 313.659C65.2908 314.129 65.1514 314.495 64.8728 314.759C64.6088 315.009 64.2274 315.133 63.7288 315.133ZM64.8948 316.981V327.981H62.5408V316.981H64.8948ZM69.0179 327.981V316.981H71.1079L71.2619 319.841L70.9539 319.533C71.1592 318.903 71.4525 318.382 71.8339 317.971C72.2299 317.546 72.6919 317.238 73.2199 317.047C73.7625 316.857 74.3345 316.761 74.9359 316.761C75.7132 316.761 76.4099 316.915 77.0259 317.223C77.6565 317.517 78.1552 317.964 78.5219 318.565C78.8885 319.167 79.0719 319.929 79.0719 320.853V327.981H76.7179V321.579C76.7179 320.494 76.4905 319.746 76.0359 319.335C75.5959 318.91 75.0385 318.697 74.3639 318.697C73.8799 318.697 73.4105 318.815 72.9559 319.049C72.5012 319.269 72.1199 319.629 71.8119 320.127C71.5185 320.626 71.3719 321.293 71.3719 322.129V327.981H69.0179ZM87.6141 311.877C88.0687 311.877 88.4794 311.929 88.8461 312.031C89.2274 312.119 89.5134 312.244 89.7041 312.405L89.2641 314.099C89.1027 313.997 88.9194 313.923 88.7141 313.879C88.5087 313.821 88.2741 313.791 88.0101 313.791C87.4087 313.791 86.9321 313.931 86.5801 314.209C86.2427 314.488 86.0741 314.943 86.0741 315.573V317.179L86.1401 317.773V327.981H83.7861V315.397C83.7861 314.84 83.8667 314.341 84.0281 313.901C84.2041 313.461 84.4607 313.095 84.7981 312.801C85.1354 312.493 85.5387 312.266 86.0081 312.119C86.4921 311.958 87.0274 311.877 87.6141 311.877ZM89.6381 316.981V318.829H81.7181V316.981H89.6381ZM96.7363 316.761C97.807 316.761 98.753 316.989 99.5743 317.443C100.396 317.898 101.034 318.558 101.488 319.423C101.958 320.274 102.192 321.293 102.192 322.481C102.192 323.669 101.958 324.696 101.488 325.561C101.034 326.412 100.396 327.065 99.5743 327.519C98.753 327.974 97.807 328.201 96.7363 328.201C95.6657 328.201 94.7197 327.974 93.8983 327.519C93.077 327.065 92.4317 326.412 91.9623 325.561C91.493 324.696 91.2583 323.669 91.2583 322.481C91.2583 321.293 91.493 320.274 91.9623 319.423C92.4317 318.558 93.077 317.898 93.8983 317.443C94.7197 316.989 95.6657 316.761 96.7363 316.761ZM96.7363 318.609C96.0763 318.609 95.5117 318.763 95.0423 319.071C94.5877 319.365 94.2357 319.797 93.9863 320.369C93.737 320.941 93.6123 321.645 93.6123 322.481C93.6123 323.303 93.737 324.007 93.9863 324.593C94.2357 325.165 94.5877 325.605 95.0423 325.913C95.5117 326.207 96.0763 326.353 96.7363 326.353C97.3963 326.353 97.9537 326.207 98.4083 325.913C98.863 325.605 99.215 325.165 99.4643 324.593C99.7137 324.007 99.8383 323.303 99.8383 322.481C99.8383 321.645 99.7137 320.941 99.4643 320.369C99.215 319.797 98.863 319.365 98.4083 319.071C97.9537 318.763 97.3963 318.609 96.7363 318.609ZM105.594 327.981V316.981H107.596L107.816 318.961C108.109 318.243 108.542 317.7 109.114 317.333C109.7 316.952 110.419 316.761 111.27 316.761C111.49 316.761 111.71 316.783 111.93 316.827C112.15 316.857 112.333 316.908 112.48 316.981L112.15 319.049C111.988 318.991 111.805 318.947 111.6 318.917C111.409 318.873 111.145 318.851 110.808 318.851C110.353 318.851 109.906 318.976 109.466 319.225C109.026 319.46 108.659 319.819 108.366 320.303C108.087 320.787 107.948 321.403 107.948 322.151V327.981H105.594ZM115.143 327.981V316.981H117.233L117.343 318.829C117.724 318.125 118.23 317.605 118.861 317.267C119.506 316.93 120.188 316.761 120.907 316.761C121.699 316.761 122.425 316.945 123.085 317.311C123.76 317.663 124.266 318.199 124.603 318.917C124.838 318.433 125.16 318.03 125.571 317.707C125.982 317.385 126.436 317.15 126.935 317.003C127.434 316.842 127.925 316.761 128.409 316.761C129.113 316.761 129.773 316.908 130.389 317.201C131.005 317.495 131.504 317.942 131.885 318.543C132.266 319.145 132.457 319.915 132.457 320.853V327.981H130.103V321.227C130.103 320.333 129.89 319.687 129.465 319.291C129.04 318.895 128.497 318.697 127.837 318.697C127.324 318.697 126.847 318.822 126.407 319.071C125.982 319.321 125.637 319.695 125.373 320.193C125.109 320.677 124.977 321.279 124.977 321.997V327.981H122.623V321.227C122.623 320.333 122.41 319.687 121.985 319.291C121.56 318.895 121.017 318.697 120.357 318.697C119.917 318.697 119.477 318.815 119.037 319.049C118.597 319.284 118.23 319.651 117.937 320.149C117.644 320.648 117.497 321.308 117.497 322.129V327.981H115.143ZM142.824 320.919C142.824 320.186 142.619 319.621 142.208 319.225C141.812 318.815 141.262 318.609 140.558 318.609C139.898 318.609 139.333 318.763 138.864 319.071C138.395 319.379 138.05 319.878 137.83 320.567L135.85 319.731C136.129 318.837 136.671 318.118 137.478 317.575C138.299 317.033 139.355 316.761 140.646 316.761C141.526 316.761 142.303 316.908 142.978 317.201C143.653 317.48 144.181 317.905 144.562 318.477C144.958 319.049 145.156 319.783 145.156 320.677V325.583C145.156 326.126 145.427 326.397 145.97 326.397C146.234 326.397 146.491 326.361 146.74 326.287L146.608 327.915C146.271 328.077 145.845 328.157 145.332 328.157C144.863 328.157 144.437 328.077 144.056 327.915C143.689 327.739 143.396 327.483 143.176 327.145C142.971 326.793 142.868 326.361 142.868 325.847V325.693L143.352 325.671C143.22 326.243 142.949 326.72 142.538 327.101C142.127 327.468 141.651 327.747 141.108 327.937C140.565 328.113 140.015 328.201 139.458 328.201C138.769 328.201 138.145 328.091 137.588 327.871C137.045 327.651 136.613 327.321 136.29 326.881C135.982 326.427 135.828 325.869 135.828 325.209C135.828 324.388 136.092 323.713 136.62 323.185C137.163 322.657 137.925 322.298 138.908 322.107L143.176 321.271L143.154 322.921L140.052 323.559C139.436 323.677 138.974 323.845 138.666 324.065C138.358 324.285 138.204 324.608 138.204 325.033C138.204 325.444 138.358 325.774 138.666 326.023C138.989 326.258 139.414 326.375 139.942 326.375C140.309 326.375 140.661 326.331 140.998 326.243C141.35 326.155 141.665 326.016 141.944 325.825C142.223 325.62 142.435 325.363 142.582 325.055C142.743 324.733 142.824 324.351 142.824 323.911V320.919ZM152.235 313.747V324.681C152.235 325.224 152.374 325.62 152.653 325.869C152.946 326.119 153.335 326.243 153.819 326.243C154.215 326.243 154.56 326.185 154.853 326.067C155.146 325.935 155.418 325.759 155.667 325.539L156.195 327.255C155.858 327.549 155.44 327.783 154.941 327.959C154.457 328.121 153.914 328.201 153.313 328.201C152.682 328.201 152.103 328.099 151.575 327.893C151.047 327.688 150.636 327.358 150.343 326.903C150.05 326.434 149.896 325.825 149.881 325.077V314.407L152.235 313.747ZM156.019 316.981V318.829H147.769V316.981H156.019ZM159.975 315.133C159.462 315.133 159.066 315.009 158.787 314.759C158.523 314.495 158.391 314.129 158.391 313.659C158.391 313.19 158.523 312.831 158.787 312.581C159.066 312.332 159.462 312.207 159.975 312.207C160.474 312.207 160.855 312.332 161.119 312.581C161.398 312.831 161.537 313.19 161.537 313.659C161.537 314.129 161.398 314.495 161.119 314.759C160.855 315.009 160.474 315.133 159.975 315.133ZM161.141 316.981V327.981H158.787V316.981H161.141ZM170.038 316.761C171.109 316.761 172.055 316.989 172.876 317.443C173.698 317.898 174.336 318.558 174.79 319.423C175.26 320.274 175.494 321.293 175.494 322.481C175.494 323.669 175.26 324.696 174.79 325.561C174.336 326.412 173.698 327.065 172.876 327.519C172.055 327.974 171.109 328.201 170.038 328.201C168.968 328.201 168.022 327.974 167.2 327.519C166.379 327.065 165.734 326.412 165.264 325.561C164.795 324.696 164.56 323.669 164.56 322.481C164.56 321.293 164.795 320.274 165.264 319.423C165.734 318.558 166.379 317.898 167.2 317.443C168.022 316.989 168.968 316.761 170.038 316.761ZM170.038 318.609C169.378 318.609 168.814 318.763 168.344 319.071C167.89 319.365 167.538 319.797 167.288 320.369C167.039 320.941 166.914 321.645 166.914 322.481C166.914 323.303 167.039 324.007 167.288 324.593C167.538 325.165 167.89 325.605 168.344 325.913C168.814 326.207 169.378 326.353 170.038 326.353C170.698 326.353 171.256 326.207 171.71 325.913C172.165 325.605 172.517 325.165 172.766 324.593C173.016 324.007 173.14 323.303 173.14 322.481C173.14 321.645 173.016 320.941 172.766 320.369C172.517 319.797 172.165 319.365 171.71 319.071C171.256 318.763 170.698 318.609 170.038 318.609ZM178.896 327.981V316.981H180.986L181.14 319.841L180.832 319.533C181.037 318.903 181.331 318.382 181.712 317.971C182.108 317.546 182.57 317.238 183.098 317.047C183.641 316.857 184.213 316.761 184.814 316.761C185.591 316.761 186.288 316.915 186.904 317.223C187.535 317.517 188.033 317.964 188.4 318.565C188.767 319.167 188.95 319.929 188.95 320.853V327.981H186.596V321.579C186.596 320.494 186.369 319.746 185.914 319.335C185.474 318.91 184.917 318.697 184.242 318.697C183.758 318.697 183.289 318.815 182.834 319.049C182.379 319.269 181.998 319.629 181.69 320.127C181.397 320.626 181.25 321.293 181.25 322.129V327.981H178.896ZM55.1977 348.919C55.1977 348.186 54.9924 347.621 54.5817 347.225C54.1857 346.815 53.6357 346.609 52.9317 346.609C52.2717 346.609 51.7071 346.763 51.2377 347.071C50.7684 347.379 50.4237 347.878 50.2037 348.567L48.2237 347.731C48.5024 346.837 49.0451 346.118 49.8517 345.575C50.6731 345.033 51.7291 344.761 53.0197 344.761C53.8997 344.761 54.6771 344.908 55.3517 345.201C56.0264 345.48 56.5544 345.905 56.9357 346.477C57.3317 347.049 57.5297 347.783 57.5297 348.677V353.583C57.5297 354.126 57.8011 354.397 58.3437 354.397C58.6077 354.397 58.8644 354.361 59.1137 354.287L58.9817 355.915C58.6444 356.077 58.2191 356.157 57.7057 356.157C57.2364 356.157 56.8111 356.077 56.4297 355.915C56.0631 355.739 55.7697 355.483 55.5497 355.145C55.3444 354.793 55.2417 354.361 55.2417 353.847V353.693L55.7257 353.671C55.5937 354.243 55.3224 354.72 54.9117 355.101C54.5011 355.468 54.0244 355.747 53.4817 355.937C52.9391 356.113 52.3891 356.201 51.8317 356.201C51.1424 356.201 50.5191 356.091 49.9617 355.871C49.4191 355.651 48.9864 355.321 48.6637 354.881C48.3557 354.427 48.2017 353.869 48.2017 353.209C48.2017 352.388 48.4657 351.713 48.9937 351.185C49.5364 350.657 50.2991 350.298 51.2817 350.107L55.5497 349.271L55.5277 350.921L52.4257 351.559C51.8097 351.677 51.3477 351.845 51.0397 352.065C50.7317 352.285 50.5777 352.608 50.5777 353.033C50.5777 353.444 50.7317 353.774 51.0397 354.023C51.3624 354.258 51.7877 354.375 52.3157 354.375C52.6824 354.375 53.0344 354.331 53.3717 354.243C53.7237 354.155 54.0391 354.016 54.3177 353.825C54.5964 353.62 54.8091 353.363 54.9557 353.055C55.1171 352.733 55.1977 352.351 55.1977 351.911V348.919ZM67.7226 356.201C67.0773 356.201 66.4833 356.077 65.9406 355.827C65.4126 355.578 64.9653 355.233 64.5986 354.793C64.232 354.339 63.9606 353.833 63.7846 353.275L64.0706 352.901L63.8946 355.981H61.8266V340.031H64.1806V347.753L63.9166 347.379C64.1953 346.617 64.672 345.993 65.3466 345.509C66.0213 345.011 66.8353 344.761 67.7886 344.761C68.6686 344.761 69.4753 344.989 70.2086 345.443C70.9566 345.898 71.5433 346.551 71.9686 347.401C72.394 348.252 72.6066 349.286 72.6066 350.503C72.6066 351.691 72.3866 352.711 71.9466 353.561C71.5213 354.412 70.9346 355.065 70.1866 355.519C69.4533 355.974 68.632 356.201 67.7226 356.201ZM67.2166 354.309C68.17 354.309 68.9106 353.972 69.4386 353.297C69.9813 352.608 70.2526 351.669 70.2526 350.481C70.2526 349.293 69.9886 348.362 69.4606 347.687C68.9326 347.013 68.192 346.675 67.2386 346.675C66.6226 346.675 66.0873 346.837 65.6326 347.159C65.178 347.467 64.8186 347.907 64.5546 348.479C64.3053 349.051 64.1806 349.733 64.1806 350.525C64.1806 351.303 64.3053 351.977 64.5546 352.549C64.804 353.107 65.156 353.539 65.6106 353.847C66.08 354.155 66.6153 354.309 67.2166 354.309ZM80.8336 344.761C81.9043 344.761 82.8503 344.989 83.6716 345.443C84.4929 345.898 85.1309 346.558 85.5856 347.423C86.0549 348.274 86.2896 349.293 86.2896 350.481C86.2896 351.669 86.0549 352.696 85.5856 353.561C85.1309 354.412 84.4929 355.065 83.6716 355.519C82.8503 355.974 81.9043 356.201 80.8336 356.201C79.7629 356.201 78.8169 355.974 77.9956 355.519C77.1743 355.065 76.5289 354.412 76.0596 353.561C75.5903 352.696 75.3556 351.669 75.3556 350.481C75.3556 349.293 75.5903 348.274 76.0596 347.423C76.5289 346.558 77.1743 345.898 77.9956 345.443C78.8169 344.989 79.7629 344.761 80.8336 344.761ZM80.8336 346.609C80.1736 346.609 79.6089 346.763 79.1396 347.071C78.6849 347.365 78.3329 347.797 78.0836 348.369C77.8343 348.941 77.7096 349.645 77.7096 350.481C77.7096 351.303 77.8343 352.007 78.0836 352.593C78.3329 353.165 78.6849 353.605 79.1396 353.913C79.6089 354.207 80.1736 354.353 80.8336 354.353C81.4936 354.353 82.0509 354.207 82.5056 353.913C82.9603 353.605 83.3123 353.165 83.5616 352.593C83.8109 352.007 83.9356 351.303 83.9356 350.481C83.9356 349.645 83.8109 348.941 83.5616 348.369C83.3123 347.797 82.9603 347.365 82.5056 347.071C82.0509 346.763 81.4936 346.609 80.8336 346.609ZM93.607 356.201C92.8883 356.201 92.221 356.069 91.605 355.805C91.0037 355.541 90.5197 355.116 90.153 354.529C89.7863 353.943 89.603 353.18 89.603 352.241V344.981H91.957V351.647C91.957 352.645 92.1697 353.334 92.595 353.715C93.0203 354.082 93.6143 354.265 94.377 354.265C94.7437 354.265 95.0957 354.207 95.433 354.089C95.785 353.957 96.1003 353.759 96.379 353.495C96.6577 353.217 96.8703 352.865 97.017 352.439C97.1783 352.014 97.259 351.515 97.259 350.943V344.981H99.613V355.981H97.545L97.435 354.199C97.0537 354.889 96.5403 355.395 95.895 355.717C95.2497 356.04 94.487 356.201 93.607 356.201ZM106.943 341.747V352.681C106.943 353.224 107.082 353.62 107.361 353.869C107.654 354.119 108.043 354.243 108.527 354.243C108.923 354.243 109.267 354.185 109.561 354.067C109.854 353.935 110.125 353.759 110.375 353.539L110.903 355.255C110.565 355.549 110.147 355.783 109.649 355.959C109.165 356.121 108.622 356.201 108.021 356.201C107.39 356.201 106.811 356.099 106.283 355.893C105.755 355.688 105.344 355.358 105.051 354.903C104.757 354.434 104.603 353.825 104.589 353.077V342.407L106.943 341.747ZM110.727 344.981V346.829H102.477V344.981H110.727ZM130.296 344.981L125.478 357.279C125.155 358.13 124.803 358.805 124.422 359.303C124.055 359.802 123.63 360.161 123.146 360.381C122.662 360.601 122.097 360.711 121.452 360.711C120.924 360.711 120.433 360.638 119.978 360.491C119.538 360.359 119.149 360.176 118.812 359.941L119.384 358.115C119.663 358.35 119.956 358.526 120.264 358.643C120.587 358.761 120.931 358.819 121.298 358.819C121.694 358.819 122.046 358.709 122.354 358.489C122.677 358.284 122.963 357.866 123.212 357.235L123.696 356.047L122.53 353.319L119.098 344.981H121.738L124.18 351.889L124.818 353.957L125.544 351.691L127.854 344.981H130.296ZM137.454 344.761C138.524 344.761 139.47 344.989 140.292 345.443C141.113 345.898 141.751 346.558 142.206 347.423C142.675 348.274 142.91 349.293 142.91 350.481C142.91 351.669 142.675 352.696 142.206 353.561C141.751 354.412 141.113 355.065 140.292 355.519C139.47 355.974 138.524 356.201 137.454 356.201C136.383 356.201 135.437 355.974 134.616 355.519C133.794 355.065 133.149 354.412 132.68 353.561C132.21 352.696 131.976 351.669 131.976 350.481C131.976 349.293 132.21 348.274 132.68 347.423C133.149 346.558 133.794 345.898 134.616 345.443C135.437 344.989 136.383 344.761 137.454 344.761ZM137.454 346.609C136.794 346.609 136.229 346.763 135.76 347.071C135.305 347.365 134.953 347.797 134.704 348.369C134.454 348.941 134.33 349.645 134.33 350.481C134.33 351.303 134.454 352.007 134.704 352.593C134.953 353.165 135.305 353.605 135.76 353.913C136.229 354.207 136.794 354.353 137.454 354.353C138.114 354.353 138.671 354.207 139.126 353.913C139.58 353.605 139.932 353.165 140.182 352.593C140.431 352.007 140.556 351.303 140.556 350.481C140.556 349.645 140.431 348.941 140.182 348.369C139.932 347.797 139.58 347.365 139.126 347.071C138.671 346.763 138.114 346.609 137.454 346.609ZM150.227 356.201C149.508 356.201 148.841 356.069 148.225 355.805C147.624 355.541 147.14 355.116 146.773 354.529C146.406 353.943 146.223 353.18 146.223 352.241V344.981H148.577V351.647C148.577 352.645 148.79 353.334 149.215 353.715C149.64 354.082 150.234 354.265 150.997 354.265C151.364 354.265 151.716 354.207 152.053 354.089C152.405 353.957 152.72 353.759 152.999 353.495C153.278 353.217 153.49 352.865 153.637 352.439C153.798 352.014 153.879 351.515 153.879 350.943V344.981H156.233V355.981H154.165L154.055 354.199C153.674 354.889 153.16 355.395 152.515 355.717C151.87 356.04 151.107 356.201 150.227 356.201ZM169.133 343.133C168.62 343.133 168.224 343.009 167.945 342.759C167.681 342.495 167.549 342.129 167.549 341.659C167.549 341.19 167.681 340.831 167.945 340.581C168.224 340.332 168.62 340.207 169.133 340.207C169.632 340.207 170.013 340.332 170.277 340.581C170.556 340.831 170.695 341.19 170.695 341.659C170.695 342.129 170.556 342.495 170.277 342.759C170.013 343.009 169.632 343.133 169.133 343.133ZM170.299 344.981V355.981H167.945V344.981H170.299ZM178.602 356.201C177.502 356.201 176.497 355.989 175.588 355.563C174.679 355.138 173.96 354.537 173.432 353.759L175.06 352.351C175.383 352.953 175.845 353.437 176.446 353.803C177.062 354.155 177.795 354.331 178.646 354.331C179.321 354.331 179.856 354.214 180.252 353.979C180.648 353.745 180.846 353.415 180.846 352.989C180.846 352.711 180.751 352.469 180.56 352.263C180.384 352.043 180.039 351.875 179.526 351.757L177.216 351.273C176.043 351.039 175.207 350.665 174.708 350.151C174.209 349.623 173.96 348.956 173.96 348.149C173.96 347.548 174.136 346.991 174.488 346.477C174.84 345.964 175.353 345.553 176.028 345.245C176.717 344.923 177.539 344.761 178.492 344.761C179.592 344.761 180.531 344.959 181.308 345.355C182.085 345.737 182.679 346.287 183.09 347.005L181.462 348.369C181.183 347.783 180.773 347.35 180.23 347.071C179.687 346.778 179.123 346.631 178.536 346.631C178.067 346.631 177.663 346.69 177.326 346.807C176.989 346.925 176.732 347.086 176.556 347.291C176.38 347.497 176.292 347.739 176.292 348.017C176.292 348.311 176.402 348.567 176.622 348.787C176.842 349.007 177.238 349.176 177.81 349.293L180.318 349.821C181.374 350.027 182.115 350.379 182.54 350.877C182.98 351.361 183.2 351.955 183.2 352.659C183.2 353.363 183.017 353.987 182.65 354.529C182.283 355.057 181.755 355.468 181.066 355.761C180.377 356.055 179.555 356.201 178.602 356.201ZM200.459 348.919C200.459 348.186 200.253 347.621 199.843 347.225C199.447 346.815 198.897 346.609 198.193 346.609C197.533 346.609 196.968 346.763 196.499 347.071C196.029 347.379 195.685 347.878 195.465 348.567L193.485 347.731C193.763 346.837 194.306 346.118 195.113 345.575C195.934 345.033 196.99 344.761 198.281 344.761C199.161 344.761 199.938 344.908 200.613 345.201C201.287 345.48 201.815 345.905 202.197 346.477C202.593 347.049 202.791 347.783 202.791 348.677V353.583C202.791 354.126 203.062 354.397 203.605 354.397C203.869 354.397 204.125 354.361 204.375 354.287L204.243 355.915C203.905 356.077 203.48 356.157 202.967 356.157C202.497 356.157 202.072 356.077 201.691 355.915C201.324 355.739 201.031 355.483 200.811 355.145C200.605 354.793 200.503 354.361 200.503 353.847V353.693L200.987 353.671C200.855 354.243 200.583 354.72 200.173 355.101C199.762 355.468 199.285 355.747 198.743 355.937C198.2 356.113 197.65 356.201 197.093 356.201C196.403 356.201 195.78 356.091 195.223 355.871C194.68 355.651 194.247 355.321 193.925 354.881C193.617 354.427 193.463 353.869 193.463 353.209C193.463 352.388 193.727 351.713 194.255 351.185C194.797 350.657 195.56 350.298 196.543 350.107L200.811 349.271L200.789 350.921L197.687 351.559C197.071 351.677 196.609 351.845 196.301 352.065C195.993 352.285 195.839 352.608 195.839 353.033C195.839 353.444 195.993 353.774 196.301 354.023C196.623 354.258 197.049 354.375 197.577 354.375C197.943 354.375 198.295 354.331 198.633 354.243C198.985 354.155 199.3 354.016 199.579 353.825C199.857 353.62 200.07 353.363 200.217 353.055C200.378 352.733 200.459 352.351 200.459 351.911V348.919ZM51.6167 368.031V380.901C51.6167 381.444 51.7121 381.818 51.9027 382.023C52.0934 382.229 52.4087 382.331 52.8487 382.331C53.1127 382.331 53.3327 382.317 53.5087 382.287C53.6994 382.243 53.9341 382.17 54.2127 382.067L53.9487 383.827C53.6994 383.945 53.4134 384.033 53.0907 384.091C52.7681 384.165 52.4454 384.201 52.1227 384.201C51.1401 384.201 50.4141 383.952 49.9447 383.453C49.4901 382.94 49.2627 382.155 49.2627 381.099V368.031H51.6167ZM61.3962 372.761C62.4669 372.761 63.4129 372.989 64.2342 373.443C65.0556 373.898 65.6936 374.558 66.1482 375.423C66.6176 376.274 66.8522 377.293 66.8522 378.481C66.8522 379.669 66.6176 380.696 66.1482 381.561C65.6936 382.412 65.0556 383.065 64.2342 383.519C63.4129 383.974 62.4669 384.201 61.3962 384.201C60.3256 384.201 59.3796 383.974 58.5582 383.519C57.7369 383.065 57.0916 382.412 56.6222 381.561C56.1529 380.696 55.9182 379.669 55.9182 378.481C55.9182 377.293 56.1529 376.274 56.6222 375.423C57.0916 374.558 57.7369 373.898 58.5582 373.443C59.3796 372.989 60.3256 372.761 61.3962 372.761ZM61.3962 374.609C60.7362 374.609 60.1716 374.763 59.7022 375.071C59.2476 375.365 58.8956 375.797 58.6462 376.369C58.3969 376.941 58.2722 377.645 58.2722 378.481C58.2722 379.303 58.3969 380.007 58.6462 380.593C58.8956 381.165 59.2476 381.605 59.7022 381.913C60.1716 382.207 60.7362 382.353 61.3962 382.353C62.0562 382.353 62.6136 382.207 63.0682 381.913C63.5229 381.605 63.8749 381.165 64.1242 380.593C64.3736 380.007 64.4982 379.303 64.4982 378.481C64.4982 377.645 64.3736 376.941 64.1242 376.369C63.8749 375.797 63.5229 375.365 63.0682 375.071C62.6136 374.763 62.0562 374.609 61.3962 374.609ZM73.3153 369.747V380.681C73.3153 381.224 73.4546 381.62 73.7333 381.869C74.0266 382.119 74.4153 382.243 74.8993 382.243C75.2953 382.243 75.6399 382.185 75.9333 382.067C76.2266 381.935 76.4979 381.759 76.7473 381.539L77.2753 383.255C76.9379 383.549 76.5199 383.783 76.0213 383.959C75.5373 384.121 74.9946 384.201 74.3933 384.201C73.7626 384.201 73.1833 384.099 72.6553 383.893C72.1273 383.688 71.7166 383.358 71.4233 382.903C71.1299 382.434 70.9759 381.825 70.9613 381.077V370.407L73.3153 369.747ZM77.0993 372.981V374.829H68.8493V372.981H77.0993ZM93.3578 384.201C92.7124 384.201 92.1184 384.077 91.5758 383.827C91.0478 383.578 90.6004 383.233 90.2338 382.793C89.8671 382.339 89.5958 381.833 89.4198 381.275L89.7058 380.901L89.5298 383.981H87.4618V368.031H89.8158V375.753L89.5518 375.379C89.8304 374.617 90.3071 373.993 90.9818 373.509C91.6564 373.011 92.4704 372.761 93.4238 372.761C94.3038 372.761 95.1104 372.989 95.8438 373.443C96.5918 373.898 97.1784 374.551 97.6038 375.401C98.0291 376.252 98.2418 377.286 98.2418 378.503C98.2418 379.691 98.0218 380.711 97.5818 381.561C97.1564 382.412 96.5698 383.065 95.8218 383.519C95.0884 383.974 94.2671 384.201 93.3578 384.201ZM92.8518 382.309C93.8051 382.309 94.5458 381.972 95.0738 381.297C95.6164 380.608 95.8878 379.669 95.8878 378.481C95.8878 377.293 95.6238 376.362 95.0958 375.687C94.5678 375.013 93.8271 374.675 92.8738 374.675C92.2578 374.675 91.7224 374.837 91.2678 375.159C90.8131 375.467 90.4538 375.907 90.1898 376.479C89.9404 377.051 89.8158 377.733 89.8158 378.525C89.8158 379.303 89.9404 379.977 90.1898 380.549C90.4391 381.107 90.7911 381.539 91.2458 381.847C91.7151 382.155 92.2504 382.309 92.8518 382.309ZM106.535 384.201C105.435 384.201 104.467 383.974 103.631 383.519C102.795 383.065 102.142 382.412 101.673 381.561C101.218 380.696 100.991 379.669 100.991 378.481C100.991 377.293 101.218 376.274 101.673 375.423C102.142 374.558 102.787 373.898 103.609 373.443C104.43 372.989 105.361 372.761 106.403 372.761C107.473 372.761 108.383 372.981 109.131 373.421C109.879 373.861 110.451 374.463 110.847 375.225C111.243 375.988 111.441 376.853 111.441 377.821C111.441 378.085 111.433 378.335 111.419 378.569C111.404 378.804 111.382 379.009 111.353 379.185H102.509V377.381H110.319L109.153 377.733C109.153 376.736 108.903 375.973 108.405 375.445C107.906 374.903 107.224 374.631 106.359 374.631C105.728 374.631 105.178 374.778 104.709 375.071C104.239 375.365 103.88 375.805 103.631 376.391C103.381 376.963 103.257 377.667 103.257 378.503C103.257 379.325 103.389 380.021 103.653 380.593C103.917 381.165 104.291 381.598 104.775 381.891C105.259 382.185 105.831 382.331 106.491 382.331C107.224 382.331 107.818 382.192 108.273 381.913C108.727 381.635 109.087 381.246 109.351 380.747L111.221 381.627C110.957 382.155 110.597 382.617 110.143 383.013C109.703 383.395 109.175 383.688 108.559 383.893C107.943 384.099 107.268 384.201 106.535 384.201ZM117.808 369.747V380.681C117.808 381.224 117.947 381.62 118.226 381.869C118.519 382.119 118.908 382.243 119.392 382.243C119.788 382.243 120.132 382.185 120.426 382.067C120.719 381.935 120.99 381.759 121.24 381.539L121.768 383.255C121.43 383.549 121.012 383.783 120.514 383.959C120.03 384.121 119.487 384.201 118.886 384.201C118.255 384.201 117.676 384.099 117.148 383.893C116.62 383.688 116.209 383.358 115.916 382.903C115.622 382.434 115.468 381.825 115.454 381.077V370.407L117.808 369.747ZM121.592 372.981V374.829H113.342V372.981H121.592ZM126.326 369.747V380.681C126.326 381.224 126.465 381.62 126.744 381.869C127.037 382.119 127.426 382.243 127.91 382.243C128.306 382.243 128.65 382.185 128.944 382.067C129.237 381.935 129.508 381.759 129.758 381.539L130.286 383.255C129.948 383.549 129.53 383.783 129.032 383.959C128.548 384.121 128.005 384.201 127.404 384.201C126.773 384.201 126.194 384.099 125.666 383.893C125.138 383.688 124.727 383.358 124.434 382.903C124.14 382.434 123.986 381.825 123.972 381.077V370.407L126.326 369.747ZM130.11 372.981V374.829H121.86V372.981H130.11ZM137.718 384.201C136.618 384.201 135.65 383.974 134.814 383.519C133.978 383.065 133.325 382.412 132.856 381.561C132.401 380.696 132.174 379.669 132.174 378.481C132.174 377.293 132.401 376.274 132.856 375.423C133.325 374.558 133.971 373.898 134.792 373.443C135.613 372.989 136.545 372.761 137.586 372.761C138.657 372.761 139.566 372.981 140.314 373.421C141.062 373.861 141.634 374.463 142.03 375.225C142.426 375.988 142.624 376.853 142.624 377.821C142.624 378.085 142.617 378.335 142.602 378.569C142.587 378.804 142.565 379.009 142.536 379.185H133.692V377.381H141.502L140.336 377.733C140.336 376.736 140.087 375.973 139.588 375.445C139.089 374.903 138.407 374.631 137.542 374.631C136.911 374.631 136.361 374.778 135.892 375.071C135.423 375.365 135.063 375.805 134.814 376.391C134.565 376.963 134.44 377.667 134.44 378.503C134.44 379.325 134.572 380.021 134.836 380.593C135.1 381.165 135.474 381.598 135.958 381.891C136.442 382.185 137.014 382.331 137.674 382.331C138.407 382.331 139.001 382.192 139.456 381.913C139.911 381.635 140.27 381.246 140.534 380.747L142.404 381.627C142.14 382.155 141.781 382.617 141.326 383.013C140.886 383.395 140.358 383.688 139.742 383.893C139.126 384.099 138.451 384.201 137.718 384.201ZM146.037 383.981V372.981H148.039L148.259 374.961C148.552 374.243 148.985 373.7 149.557 373.333C150.143 372.952 150.862 372.761 151.713 372.761C151.933 372.761 152.153 372.783 152.373 372.827C152.593 372.857 152.776 372.908 152.923 372.981L152.593 375.049C152.431 374.991 152.248 374.947 152.043 374.917C151.852 374.873 151.588 374.851 151.251 374.851C150.796 374.851 150.349 374.976 149.909 375.225C149.469 375.46 149.102 375.819 148.809 376.303C148.53 376.787 148.391 377.403 148.391 378.151V383.981H146.037ZM165.576 369.747V380.681C165.576 381.224 165.715 381.62 165.994 381.869C166.287 382.119 166.676 382.243 167.16 382.243C167.556 382.243 167.901 382.185 168.194 382.067C168.487 381.935 168.759 381.759 169.008 381.539L169.536 383.255C169.199 383.549 168.781 383.783 168.282 383.959C167.798 384.121 167.255 384.201 166.654 384.201C166.023 384.201 165.444 384.099 164.916 383.893C164.388 383.688 163.977 383.358 163.684 382.903C163.391 382.434 163.237 381.825 163.222 381.077V370.407L165.576 369.747ZM169.36 372.981V374.829H161.11V372.981H169.36ZM172.214 383.981V368.031H174.568V374.741C174.935 374.052 175.426 373.553 176.042 373.245C176.673 372.923 177.37 372.761 178.132 372.761C178.91 372.761 179.606 372.915 180.222 373.223C180.853 373.517 181.352 373.964 181.718 374.565C182.085 375.167 182.268 375.929 182.268 376.853V383.981H179.914V377.601C179.914 376.516 179.687 375.761 179.232 375.335C178.792 374.91 178.235 374.697 177.56 374.697C177.091 374.697 176.622 374.815 176.152 375.049C175.698 375.269 175.316 375.636 175.008 376.149C174.715 376.648 174.568 377.323 174.568 378.173V383.981H172.214ZM192.633 376.919C192.633 376.186 192.428 375.621 192.017 375.225C191.621 374.815 191.071 374.609 190.367 374.609C189.707 374.609 189.143 374.763 188.673 375.071C188.204 375.379 187.859 375.878 187.639 376.567L185.659 375.731C185.938 374.837 186.481 374.118 187.287 373.575C188.109 373.033 189.165 372.761 190.455 372.761C191.335 372.761 192.113 372.908 192.787 373.201C193.462 373.48 193.99 373.905 194.371 374.477C194.767 375.049 194.965 375.783 194.965 376.677V381.583C194.965 382.126 195.237 382.397 195.779 382.397C196.043 382.397 196.3 382.361 196.549 382.287L196.417 383.915C196.08 384.077 195.655 384.157 195.141 384.157C194.672 384.157 194.247 384.077 193.865 383.915C193.499 383.739 193.205 383.483 192.985 383.145C192.78 382.793 192.677 382.361 192.677 381.847V381.693L193.161 381.671C193.029 382.243 192.758 382.72 192.347 383.101C191.937 383.468 191.46 383.747 190.917 383.937C190.375 384.113 189.825 384.201 189.267 384.201C188.578 384.201 187.955 384.091 187.397 383.871C186.855 383.651 186.422 383.321 186.099 382.881C185.791 382.427 185.637 381.869 185.637 381.209C185.637 380.388 185.901 379.713 186.429 379.185C186.972 378.657 187.735 378.298 188.717 378.107L192.985 377.271L192.963 378.921L189.861 379.559C189.245 379.677 188.783 379.845 188.475 380.065C188.167 380.285 188.013 380.608 188.013 381.033C188.013 381.444 188.167 381.774 188.475 382.023C188.798 382.258 189.223 382.375 189.751 382.375C190.118 382.375 190.47 382.331 190.807 382.243C191.159 382.155 191.475 382.016 191.753 381.825C192.032 381.62 192.245 381.363 192.391 381.055C192.553 380.733 192.633 380.351 192.633 379.911V376.919ZM199.262 383.981V372.981H201.352L201.506 375.841L201.198 375.533C201.404 374.903 201.697 374.382 202.078 373.971C202.474 373.546 202.936 373.238 203.464 373.047C204.007 372.857 204.579 372.761 205.18 372.761C205.958 372.761 206.654 372.915 207.27 373.223C207.901 373.517 208.4 373.964 208.766 374.565C209.133 375.167 209.316 375.929 209.316 376.853V383.981H206.962V377.579C206.962 376.494 206.735 375.746 206.28 375.335C205.84 374.91 205.283 374.697 204.608 374.697C204.124 374.697 203.655 374.815 203.2 375.049C202.746 375.269 202.364 375.629 202.056 376.127C201.763 376.626 201.616 377.293 201.616 378.129V383.981H199.262ZM41.5663 412.201C40.9209 412.201 40.3269 412.077 39.7843 411.827C39.2563 411.578 38.8089 411.233 38.4423 410.793C38.0756 410.339 37.8043 409.833 37.6283 409.275L37.9143 408.901L37.7383 411.981H35.6703V396.031H38.0243V403.753L37.7603 403.379C38.0389 402.617 38.5156 401.993 39.1903 401.509C39.8649 401.011 40.6789 400.761 41.6323 400.761C42.5123 400.761 43.3189 400.989 44.0523 401.443C44.8003 401.898 45.3869 402.551 45.8123 403.401C46.2376 404.252 46.4503 405.286 46.4503 406.503C46.4503 407.691 46.2303 408.711 45.7903 409.561C45.3649 410.412 44.7783 411.065 44.0303 411.519C43.2969 411.974 42.4756 412.201 41.5663 412.201ZM41.0603 410.309C42.0136 410.309 42.7543 409.972 43.2823 409.297C43.8249 408.608 44.0963 407.669 44.0963 406.481C44.0963 405.293 43.8323 404.362 43.3043 403.687C42.7763 403.013 42.0356 402.675 41.0823 402.675C40.4663 402.675 39.9309 402.837 39.4763 403.159C39.0216 403.467 38.6623 403.907 38.3983 404.479C38.1489 405.051 38.0243 405.733 38.0243 406.525C38.0243 407.303 38.1489 407.977 38.3983 408.549C38.6476 409.107 38.9996 409.539 39.4543 409.847C39.9236 410.155 40.4589 410.309 41.0603 410.309ZM54.7432 412.201C53.6432 412.201 52.6752 411.974 51.8392 411.519C51.0032 411.065 50.3506 410.412 49.8812 409.561C49.4266 408.696 49.1992 407.669 49.1992 406.481C49.1992 405.293 49.4266 404.274 49.8812 403.423C50.3506 402.558 50.9959 401.898 51.8172 401.443C52.6386 400.989 53.5699 400.761 54.6112 400.761C55.6819 400.761 56.5912 400.981 57.3392 401.421C58.0872 401.861 58.6592 402.463 59.0552 403.225C59.4512 403.988 59.6492 404.853 59.6492 405.821C59.6492 406.085 59.6419 406.335 59.6272 406.569C59.6126 406.804 59.5906 407.009 59.5612 407.185H50.7172V405.381H58.5272L57.3612 405.733C57.3612 404.736 57.1119 403.973 56.6132 403.445C56.1146 402.903 55.4326 402.631 54.5672 402.631C53.9366 402.631 53.3866 402.778 52.9172 403.071C52.4479 403.365 52.0886 403.805 51.8392 404.391C51.5899 404.963 51.4652 405.667 51.4652 406.503C51.4652 407.325 51.5972 408.021 51.8612 408.593C52.1252 409.165 52.4992 409.598 52.9832 409.891C53.4672 410.185 54.0392 410.331 54.6992 410.331C55.4326 410.331 56.0266 410.192 56.4812 409.913C56.9359 409.635 57.2952 409.246 57.5592 408.747L59.4292 409.627C59.1652 410.155 58.8059 410.617 58.3512 411.013C57.9112 411.395 57.3832 411.688 56.7672 411.893C56.1512 412.099 55.4766 412.201 54.7432 412.201ZM64.25 399.133C63.7366 399.133 63.3406 399.009 63.062 398.759C62.798 398.495 62.666 398.129 62.666 397.659C62.666 397.19 62.798 396.831 63.062 396.581C63.3406 396.332 63.7366 396.207 64.25 396.207C64.7486 396.207 65.13 396.332 65.394 396.581C65.6726 396.831 65.812 397.19 65.812 397.659C65.812 398.129 65.6726 398.495 65.394 398.759C65.13 399.009 64.7486 399.133 64.25 399.133ZM65.416 400.981V411.981H63.062V400.981H65.416ZM69.5391 411.981V400.981H71.6291L71.7831 403.841L71.4751 403.533C71.6804 402.903 71.9738 402.382 72.3551 401.971C72.7511 401.546 73.2131 401.238 73.7411 401.047C74.2838 400.857 74.8558 400.761 75.4571 400.761C76.2344 400.761 76.9311 400.915 77.5471 401.223C78.1778 401.517 78.6764 401.964 79.0431 402.565C79.4098 403.167 79.5931 403.929 79.5931 404.853V411.981H77.2391V405.579C77.2391 404.494 77.0118 403.746 76.5571 403.335C76.1171 402.91 75.5598 402.697 74.8851 402.697C74.4011 402.697 73.9318 402.815 73.4771 403.049C73.0224 403.269 72.6411 403.629 72.3331 404.127C72.0398 404.626 71.8931 405.293 71.8931 406.129V411.981H69.5391ZM93.2802 398.671L93.6542 400.519C93.6102 400.519 93.5662 400.519 93.5222 400.519C93.4782 400.505 93.4342 400.497 93.3902 400.497C92.6862 400.497 92.1508 400.651 91.7842 400.959C91.4175 401.253 91.2342 401.685 91.2342 402.257L90.0902 401.729C90.0902 401.143 90.2148 400.622 90.4642 400.167C90.7135 399.698 91.0655 399.331 91.5202 399.067C91.9895 398.803 92.5175 398.671 93.1042 398.671C93.1335 398.671 93.1628 398.671 93.1922 398.671C93.2215 398.671 93.2508 398.671 93.2802 398.671ZM89.8042 410.265C90.9188 410.265 91.7842 410.515 92.4002 411.013C93.0162 411.497 93.3242 412.172 93.3242 413.037C93.3242 413.8 93.0822 414.453 92.5982 414.995C92.1142 415.553 91.4542 415.978 90.6182 416.271C89.7968 416.565 88.8508 416.711 87.7802 416.711C85.9762 416.711 84.6415 416.433 83.7762 415.875C82.9108 415.318 82.4782 414.621 82.4782 413.785C82.4782 413.199 82.6835 412.685 83.0942 412.245C83.5195 411.805 84.2308 411.556 85.2282 411.497L85.0962 411.849C84.4802 411.717 83.9815 411.483 83.6002 411.145C83.2335 410.793 83.0502 410.302 83.0502 409.671C83.0502 409.041 83.2922 408.505 83.7762 408.065C84.2602 407.625 84.9422 407.369 85.8222 407.295L87.0542 407.889H86.7902C86.1155 407.948 85.6388 408.102 85.3602 408.351C85.0815 408.601 84.9422 408.879 84.9422 409.187C84.9422 409.554 85.0742 409.825 85.3382 410.001C85.6168 410.177 86.0055 410.265 86.5042 410.265H89.8042ZM87.7802 414.951C88.5868 414.951 89.2468 414.871 89.7602 414.709C90.2882 414.563 90.6768 414.365 90.9262 414.115C91.1902 413.881 91.3222 413.617 91.3222 413.323C91.3222 412.986 91.1828 412.715 90.9042 412.509C90.6402 412.304 90.1562 412.201 89.4522 412.201H85.9102C85.4995 412.201 85.1548 412.304 84.8762 412.509C84.5975 412.729 84.4582 413.023 84.4582 413.389C84.4582 413.873 84.7515 414.255 85.3382 414.533C85.9248 414.812 86.7388 414.951 87.7802 414.951ZM87.6922 400.761C88.6602 400.761 89.4962 400.915 90.2002 401.223C90.9188 401.531 91.4688 401.964 91.8502 402.521C92.2462 403.079 92.4442 403.731 92.4442 404.479C92.4442 405.227 92.2462 405.88 91.8502 406.437C91.4688 406.995 90.9188 407.427 90.2002 407.735C89.4962 408.043 88.6602 408.197 87.6922 408.197C86.1668 408.197 84.9935 407.86 84.1722 407.185C83.3655 406.496 82.9622 405.594 82.9622 404.479C82.9622 403.731 83.1602 403.079 83.5562 402.521C83.9522 401.964 84.5022 401.531 85.2062 401.223C85.9248 400.915 86.7535 400.761 87.6922 400.761ZM87.6922 402.411C87.0175 402.411 86.4528 402.602 85.9982 402.983C85.5582 403.35 85.3382 403.849 85.3382 404.479C85.3382 405.11 85.5582 405.616 85.9982 405.997C86.4528 406.379 87.0175 406.569 87.6922 406.569C88.3815 406.569 88.9462 406.379 89.3862 405.997C89.8408 405.616 90.0682 405.11 90.0682 404.479C90.0682 403.849 89.8408 403.35 89.3862 402.983C88.9462 402.602 88.3815 402.411 87.6922 402.411ZM108.267 400.761C109.147 400.761 109.895 400.893 110.511 401.157C111.142 401.407 111.67 401.766 112.095 402.235C112.521 402.705 112.843 403.24 113.063 403.841L110.841 404.721C110.651 404.047 110.343 403.533 109.917 403.181C109.507 402.815 108.964 402.631 108.289 402.631C107.629 402.631 107.065 402.785 106.595 403.093C106.126 403.387 105.767 403.819 105.517 404.391C105.283 404.963 105.165 405.667 105.165 406.503C105.165 407.325 105.29 408.021 105.539 408.593C105.789 409.165 106.148 409.598 106.617 409.891C107.087 410.185 107.644 410.331 108.289 410.331C108.788 410.331 109.221 410.251 109.587 410.089C109.954 409.913 110.255 409.671 110.489 409.363C110.739 409.041 110.907 408.652 110.995 408.197L113.129 408.923C112.924 409.583 112.601 410.163 112.161 410.661C111.736 411.145 111.201 411.527 110.555 411.805C109.91 412.069 109.169 412.201 108.333 412.201C107.248 412.201 106.287 411.974 105.451 411.519C104.615 411.065 103.963 410.412 103.493 409.561C103.039 408.696 102.811 407.669 102.811 406.481C102.811 405.293 103.039 404.274 103.493 403.423C103.963 402.558 104.608 401.898 105.429 401.443C106.265 400.989 107.211 400.761 108.267 400.761ZM121.083 400.761C122.154 400.761 123.1 400.989 123.921 401.443C124.742 401.898 125.38 402.558 125.835 403.423C126.304 404.274 126.539 405.293 126.539 406.481C126.539 407.669 126.304 408.696 125.835 409.561C125.38 410.412 124.742 411.065 123.921 411.519C123.1 411.974 122.154 412.201 121.083 412.201C120.012 412.201 119.066 411.974 118.245 411.519C117.424 411.065 116.778 410.412 116.309 409.561C115.84 408.696 115.605 407.669 115.605 406.481C115.605 405.293 115.84 404.274 116.309 403.423C116.778 402.558 117.424 401.898 118.245 401.443C119.066 400.989 120.012 400.761 121.083 400.761ZM121.083 402.609C120.423 402.609 119.858 402.763 119.389 403.071C118.934 403.365 118.582 403.797 118.333 404.369C118.084 404.941 117.959 405.645 117.959 406.481C117.959 407.303 118.084 408.007 118.333 408.593C118.582 409.165 118.934 409.605 119.389 409.913C119.858 410.207 120.423 410.353 121.083 410.353C121.743 410.353 122.3 410.207 122.755 409.913C123.21 409.605 123.562 409.165 123.811 408.593C124.06 408.007 124.185 407.303 124.185 406.481C124.185 405.645 124.06 404.941 123.811 404.369C123.562 403.797 123.21 403.365 122.755 403.071C122.3 402.763 121.743 402.609 121.083 402.609ZM129.94 411.981V400.981H132.03L132.14 402.829C132.522 402.125 133.028 401.605 133.658 401.267C134.304 400.93 134.986 400.761 135.704 400.761C136.496 400.761 137.222 400.945 137.882 401.311C138.557 401.663 139.063 402.199 139.4 402.917C139.635 402.433 139.958 402.03 140.368 401.707C140.779 401.385 141.234 401.15 141.732 401.003C142.231 400.842 142.722 400.761 143.206 400.761C143.91 400.761 144.57 400.908 145.186 401.201C145.802 401.495 146.301 401.942 146.682 402.543C147.064 403.145 147.254 403.915 147.254 404.853V411.981H144.9V405.227C144.9 404.333 144.688 403.687 144.262 403.291C143.837 402.895 143.294 402.697 142.634 402.697C142.121 402.697 141.644 402.822 141.204 403.071C140.779 403.321 140.434 403.695 140.17 404.193C139.906 404.677 139.774 405.279 139.774 405.997V411.981H137.42V405.227C137.42 404.333 137.208 403.687 136.782 403.291C136.357 402.895 135.814 402.697 135.154 402.697C134.714 402.697 134.274 402.815 133.834 403.049C133.394 403.284 133.028 403.651 132.734 404.149C132.441 404.648 132.294 405.308 132.294 406.129V411.981H129.94ZM151.263 416.601V400.981H153.353L153.529 404.061L153.221 403.687C153.397 403.115 153.668 402.609 154.035 402.169C154.402 401.729 154.856 401.385 155.399 401.135C155.956 400.886 156.565 400.761 157.225 400.761C158.12 400.761 158.934 400.989 159.667 401.443C160.4 401.898 160.98 402.551 161.405 403.401C161.83 404.237 162.043 405.257 162.043 406.459C162.043 407.662 161.823 408.696 161.383 409.561C160.958 410.412 160.371 411.065 159.623 411.519C158.89 411.974 158.068 412.201 157.159 412.201C156.22 412.201 155.421 411.959 154.761 411.475C154.101 410.977 153.632 410.346 153.353 409.583L153.617 409.209V416.601H151.263ZM156.653 410.287C157.606 410.287 158.347 409.95 158.875 409.275C159.418 408.601 159.689 407.669 159.689 406.481C159.689 405.293 159.425 404.362 158.897 403.687C158.369 402.998 157.636 402.653 156.697 402.653C156.081 402.653 155.538 402.815 155.069 403.137C154.614 403.445 154.255 403.885 153.991 404.457C153.742 405.015 153.617 405.689 153.617 406.481C153.617 407.259 153.742 407.933 153.991 408.505C154.24 409.077 154.592 409.517 155.047 409.825C155.502 410.133 156.037 410.287 156.653 410.287ZM167.784 396.031V408.901C167.784 409.444 167.879 409.818 168.07 410.023C168.261 410.229 168.576 410.331 169.016 410.331C169.28 410.331 169.5 410.317 169.676 410.287C169.867 410.243 170.101 410.17 170.38 410.067L170.116 411.827C169.867 411.945 169.581 412.033 169.258 412.091C168.935 412.165 168.613 412.201 168.29 412.201C167.307 412.201 166.581 411.952 166.112 411.453C165.657 410.94 165.43 410.155 165.43 409.099V396.031H167.784ZM177.63 412.201C176.53 412.201 175.562 411.974 174.726 411.519C173.89 411.065 173.237 410.412 172.768 409.561C172.313 408.696 172.086 407.669 172.086 406.481C172.086 405.293 172.313 404.274 172.768 403.423C173.237 402.558 173.882 401.898 174.704 401.443C175.525 400.989 176.456 400.761 177.498 400.761C178.568 400.761 179.478 400.981 180.226 401.421C180.974 401.861 181.546 402.463 181.942 403.225C182.338 403.988 182.536 404.853 182.536 405.821C182.536 406.085 182.528 406.335 182.514 406.569C182.499 406.804 182.477 407.009 182.448 407.185H173.604V405.381H181.414L180.248 405.733C180.248 404.736 179.998 403.973 179.5 403.445C179.001 402.903 178.319 402.631 177.454 402.631C176.823 402.631 176.273 402.778 175.804 403.071C175.334 403.365 174.975 403.805 174.726 404.391C174.476 404.963 174.352 405.667 174.352 406.503C174.352 407.325 174.484 408.021 174.748 408.593C175.012 409.165 175.386 409.598 175.87 409.891C176.354 410.185 176.926 410.331 177.586 410.331C178.319 410.331 178.913 410.192 179.368 409.913C179.822 409.635 180.182 409.246 180.446 408.747L182.316 409.627C182.052 410.155 181.692 410.617 181.238 411.013C180.798 411.395 180.27 411.688 179.654 411.893C179.038 412.099 178.363 412.201 177.63 412.201ZM188.903 397.747V408.681C188.903 409.224 189.042 409.62 189.321 409.869C189.614 410.119 190.003 410.243 190.487 410.243C190.883 410.243 191.227 410.185 191.521 410.067C191.814 409.935 192.085 409.759 192.335 409.539L192.863 411.255C192.525 411.549 192.107 411.783 191.609 411.959C191.125 412.121 190.582 412.201 189.981 412.201C189.35 412.201 188.771 412.099 188.243 411.893C187.715 411.688 187.304 411.358 187.011 410.903C186.717 410.434 186.563 409.825 186.549 409.077V398.407L188.903 397.747ZM192.687 400.981V402.829H184.437V400.981H192.687ZM200.295 412.201C199.195 412.201 198.227 411.974 197.391 411.519C196.555 411.065 195.902 410.412 195.433 409.561C194.978 408.696 194.751 407.669 194.751 406.481C194.751 405.293 194.978 404.274 195.433 403.423C195.902 402.558 196.547 401.898 197.369 401.443C198.19 400.989 199.121 400.761 200.163 400.761C201.233 400.761 202.143 400.981 202.891 401.421C203.639 401.861 204.211 402.463 204.607 403.225C205.003 403.988 205.201 404.853 205.201 405.821C205.201 406.085 205.193 406.335 205.179 406.569C205.164 406.804 205.142 407.009 205.113 407.185H196.269V405.381H204.079L202.913 405.733C202.913 404.736 202.663 403.973 202.165 403.445C201.666 402.903 200.984 402.631 200.119 402.631C199.488 402.631 198.938 402.778 198.469 403.071C197.999 403.365 197.64 403.805 197.391 404.391C197.141 404.963 197.017 405.667 197.017 406.503C197.017 407.325 197.149 408.021 197.413 408.593C197.677 409.165 198.051 409.598 198.535 409.891C199.019 410.185 199.591 410.331 200.251 410.331C200.984 410.331 201.578 410.192 202.033 409.913C202.487 409.635 202.847 409.246 203.111 408.747L204.981 409.627C204.717 410.155 204.357 410.617 203.903 411.013C203.463 411.395 202.935 411.688 202.319 411.893C201.703 412.099 201.028 412.201 200.295 412.201ZM210.901 396.031V408.901C210.901 409.444 210.997 409.818 211.187 410.023C211.378 410.229 211.693 410.331 212.133 410.331C212.397 410.331 212.617 410.317 212.793 410.287C212.984 410.243 213.219 410.17 213.497 410.067L213.233 411.827C212.984 411.945 212.698 412.033 212.375 412.091C212.053 412.165 211.73 412.201 211.407 412.201C210.425 412.201 209.699 411.952 209.229 411.453C208.775 410.94 208.547 410.155 208.547 409.099V396.031H210.901ZM225.071 400.981L220.253 413.279C219.93 414.13 219.578 414.805 219.197 415.303C218.83 415.802 218.405 416.161 217.921 416.381C217.437 416.601 216.872 416.711 216.227 416.711C215.699 416.711 215.208 416.638 214.753 416.491C214.313 416.359 213.924 416.176 213.587 415.941L214.159 414.115C214.438 414.35 214.731 414.526 215.039 414.643C215.362 414.761 215.706 414.819 216.073 414.819C216.469 414.819 216.821 414.709 217.129 414.489C217.452 414.284 217.738 413.866 217.987 413.235L218.471 412.047L217.305 409.319L213.873 400.981H216.513L218.955 407.889L219.593 409.957L220.319 407.691L222.629 400.981H225.071ZM67.999 427.133C67.4857 427.133 67.0897 427.009 66.811 426.759C66.547 426.495 66.415 426.129 66.415 425.659C66.415 425.19 66.547 424.831 66.811 424.581C67.0897 424.332 67.4857 424.207 67.999 424.207C68.4977 424.207 68.879 424.332 69.143 424.581C69.4217 424.831 69.561 425.19 69.561 425.659C69.561 426.129 69.4217 426.495 69.143 426.759C68.879 427.009 68.4977 427.133 67.999 427.133ZM69.165 428.981V439.981H66.811V428.981H69.165ZM73.2881 439.981V428.981H75.3781L75.5321 431.841L75.2241 431.533C75.4294 430.903 75.7228 430.382 76.1041 429.971C76.5001 429.546 76.9621 429.238 77.4901 429.047C78.0328 428.857 78.6048 428.761 79.2061 428.761C79.9834 428.761 80.6801 428.915 81.2961 429.223C81.9268 429.517 82.4254 429.964 82.7921 430.565C83.1588 431.167 83.3421 431.929 83.3421 432.853V439.981H80.9881V433.579C80.9881 432.494 80.7608 431.746 80.3061 431.335C79.8661 430.91 79.3088 430.697 78.6341 430.697C78.1501 430.697 77.6808 430.815 77.2261 431.049C76.7714 431.269 76.3901 431.629 76.0821 432.127C75.7888 432.626 75.6421 433.293 75.6421 434.129V439.981H73.2881ZM97.8118 425.747V436.681C97.8118 437.224 97.9511 437.62 98.2298 437.869C98.5231 438.119 98.9118 438.243 99.3958 438.243C99.7918 438.243 100.136 438.185 100.43 438.067C100.723 437.935 100.994 437.759 101.244 437.539L101.772 439.255C101.434 439.549 101.016 439.783 100.518 439.959C100.034 440.121 99.4911 440.201 98.8898 440.201C98.2591 440.201 97.6798 440.099 97.1518 439.893C96.6238 439.688 96.2131 439.358 95.9198 438.903C95.6264 438.434 95.4724 437.825 95.4578 437.077V426.407L97.8118 425.747ZM101.596 428.981V430.829H93.3458V428.981H101.596ZM104.45 439.981V424.031H106.804V430.741C107.171 430.052 107.662 429.553 108.278 429.245C108.909 428.923 109.605 428.761 110.368 428.761C111.145 428.761 111.842 428.915 112.458 429.223C113.089 429.517 113.587 429.964 113.954 430.565C114.321 431.167 114.504 431.929 114.504 432.853V439.981H112.15V433.601C112.15 432.516 111.923 431.761 111.468 431.335C111.028 430.91 110.471 430.697 109.796 430.697C109.327 430.697 108.857 430.815 108.388 431.049C107.933 431.269 107.552 431.636 107.244 432.149C106.951 432.648 106.804 433.323 106.804 434.173V439.981H104.45ZM123.351 440.201C122.251 440.201 121.283 439.974 120.447 439.519C119.611 439.065 118.958 438.412 118.489 437.561C118.034 436.696 117.807 435.669 117.807 434.481C117.807 433.293 118.034 432.274 118.489 431.423C118.958 430.558 119.604 429.898 120.425 429.443C121.246 428.989 122.178 428.761 123.219 428.761C124.29 428.761 125.199 428.981 125.947 429.421C126.695 429.861 127.267 430.463 127.663 431.225C128.059 431.988 128.257 432.853 128.257 433.821C128.257 434.085 128.25 434.335 128.235 434.569C128.22 434.804 128.198 435.009 128.169 435.185H119.325V433.381H127.135L125.969 433.733C125.969 432.736 125.72 431.973 125.221 431.445C124.722 430.903 124.04 430.631 123.175 430.631C122.544 430.631 121.994 430.778 121.525 431.071C121.056 431.365 120.696 431.805 120.447 432.391C120.198 432.963 120.073 433.667 120.073 434.503C120.073 435.325 120.205 436.021 120.469 436.593C120.733 437.165 121.107 437.598 121.591 437.891C122.075 438.185 122.647 438.331 123.307 438.331C124.04 438.331 124.634 438.192 125.089 437.913C125.544 437.635 125.903 437.246 126.167 436.747L128.037 437.627C127.773 438.155 127.414 438.617 126.959 439.013C126.519 439.395 125.991 439.688 125.375 439.893C124.759 440.099 124.084 440.201 123.351 440.201ZM143.488 440.201C142.579 440.201 141.75 439.974 141.002 439.519C140.269 439.065 139.689 438.412 139.264 437.561C138.839 436.711 138.626 435.691 138.626 434.503C138.626 433.271 138.853 432.23 139.308 431.379C139.763 430.529 140.371 429.883 141.134 429.443C141.897 428.989 142.733 428.761 143.642 428.761C144.581 428.761 145.373 429.018 146.018 429.531C146.663 430.045 147.096 430.712 147.316 431.533L147.052 431.775V424.031H149.406V439.981H147.316L147.14 436.989L147.448 437.011C147.345 437.671 147.103 438.243 146.722 438.727C146.341 439.197 145.864 439.563 145.292 439.827C144.735 440.077 144.133 440.201 143.488 440.201ZM143.994 438.309C144.625 438.309 145.167 438.148 145.622 437.825C146.077 437.503 146.429 437.048 146.678 436.461C146.927 435.875 147.052 435.171 147.052 434.349C147.052 433.587 146.927 432.934 146.678 432.391C146.429 431.834 146.077 431.409 145.622 431.115C145.182 430.822 144.669 430.675 144.082 430.675C143.099 430.675 142.337 431.013 141.794 431.687C141.251 432.362 140.98 433.293 140.98 434.481C140.98 435.669 141.244 436.608 141.772 437.297C142.3 437.972 143.041 438.309 143.994 438.309ZM159.855 432.919C159.855 432.186 159.65 431.621 159.239 431.225C158.843 430.815 158.293 430.609 157.589 430.609C156.929 430.609 156.364 430.763 155.895 431.071C155.426 431.379 155.081 431.878 154.861 432.567L152.881 431.731C153.16 430.837 153.702 430.118 154.509 429.575C155.33 429.033 156.386 428.761 157.677 428.761C158.557 428.761 159.334 428.908 160.009 429.201C160.684 429.48 161.212 429.905 161.593 430.477C161.989 431.049 162.187 431.783 162.187 432.677V437.583C162.187 438.126 162.458 438.397 163.001 438.397C163.265 438.397 163.522 438.361 163.771 438.287L163.639 439.915C163.302 440.077 162.876 440.157 162.363 440.157C161.894 440.157 161.468 440.077 161.087 439.915C160.72 439.739 160.427 439.483 160.207 439.145C160.002 438.793 159.899 438.361 159.899 437.847V437.693L160.383 437.671C160.251 438.243 159.98 438.72 159.569 439.101C159.158 439.468 158.682 439.747 158.139 439.937C157.596 440.113 157.046 440.201 156.489 440.201C155.8 440.201 155.176 440.091 154.619 439.871C154.076 439.651 153.644 439.321 153.321 438.881C153.013 438.427 152.859 437.869 152.859 437.209C152.859 436.388 153.123 435.713 153.651 435.185C154.194 434.657 154.956 434.298 155.939 434.107L160.207 433.271L160.185 434.921L157.083 435.559C156.467 435.677 156.005 435.845 155.697 436.065C155.389 436.285 155.235 436.608 155.235 437.033C155.235 437.444 155.389 437.774 155.697 438.023C156.02 438.258 156.445 438.375 156.973 438.375C157.34 438.375 157.692 438.331 158.029 438.243C158.381 438.155 158.696 438.016 158.975 437.825C159.254 437.62 159.466 437.363 159.613 437.055C159.774 436.733 159.855 436.351 159.855 435.911V432.919ZM166.484 439.981V428.981H168.486L168.706 430.961C168.999 430.243 169.432 429.7 170.004 429.333C170.591 428.952 171.309 428.761 172.16 428.761C172.38 428.761 172.6 428.783 172.82 428.827C173.04 428.857 173.223 428.908 173.37 428.981L173.04 431.049C172.879 430.991 172.695 430.947 172.49 430.917C172.299 430.873 172.035 430.851 171.698 430.851C171.243 430.851 170.796 430.976 170.356 431.225C169.916 431.46 169.549 431.819 169.256 432.303C168.977 432.787 168.838 433.403 168.838 434.151V439.981H166.484ZM186.417 428.981L181.511 433.997L181.005 434.349L177.551 437.935L177.529 435.251L183.623 428.981H186.417ZM178.387 424.031V439.981H176.033V424.031H178.387ZM181.797 432.677L186.681 439.981H183.953L180.037 434.019L181.797 432.677ZM190.573 437.011C191.072 437.011 191.468 437.158 191.761 437.451C192.069 437.73 192.223 438.111 192.223 438.595C192.223 439.079 192.069 439.468 191.761 439.761C191.468 440.055 191.072 440.201 190.573 440.201C190.06 440.201 189.649 440.055 189.341 439.761C189.048 439.468 188.901 439.079 188.901 438.595C188.901 438.111 189.048 437.73 189.341 437.451C189.649 437.158 190.06 437.011 190.573 437.011Z" fill="black"/>
<path d="M196.001 9.85561C277.668 -4.13053 315.001 64.4814 315.001 97.1383V416.481C336.001 416.481 345.001 436.231 348.501 446.856H315.001H286.501C292.001 434.841 298.001 416.481 315.001 416.481V97.1383C315.001 64.4814 277.668 -4.13053 196.001 9.85561C130.998 20.9877 125.833 87.1483 125.834 97.1383C143.334 97.3049 165.332 102.099 170 120.481H88C93.556 112.656 102.5 97.1383 125.834 97.1383C125.833 87.1483 130.998 20.9877 196.001 9.85561Z" fill="black"/>
<path d="M315.001 446.856H348.501C345.001 436.231 336.001 416.481 315.001 416.481M315.001 446.856V416.481M315.001 446.856H286.501C292.001 434.841 298.001 416.481 315.001 416.481M125.834 97.1383C125.833 87.1483 130.998 20.9877 196.001 9.85561C277.668 -4.13053 315.001 64.4814 315.001 97.1383V416.481M125.834 97.1383C143.334 97.3049 165.332 102.099 170 120.481H88C93.556 112.656 102.5 97.1383 125.834 97.1383Z" stroke="black" stroke-width="15"/>
</svg>
