<svg width="390" height="376" viewBox="0 0 390 376" fill="none" xmlns="http://www.w3.org/2000/svg">
<rect width="31" height="233.463" rx="8" transform="matrix(-0.682343 0.731032 0.731032 0.682343 308.551 193.878)" fill="black"/>
<rect width="9" height="43" rx="4.5" transform="matrix(-0.682343 0.731032 0.731032 0.682343 284.965 186.907)" fill="black"/>
<circle cx="115" cy="115" r="106.5" transform="matrix(-1 0 0 1 324 0)" stroke="black" stroke-width="17"/>
<path d="M197.796 47.48V49.13H192.736V62H190.976V49.13H185.916V47.48H197.796ZM205.186 54.894C205.186 54.0727 204.966 53.442 204.526 53.002C204.086 52.5473 203.463 52.32 202.656 52.32C201.894 52.32 201.248 52.4887 200.72 52.826C200.192 53.1487 199.804 53.6767 199.554 54.41L198.124 53.53C198.418 52.7087 198.96 52.0487 199.752 51.55C200.544 51.0367 201.527 50.78 202.7 50.78C203.492 50.78 204.211 50.9193 204.856 51.198C205.502 51.462 206.008 51.8727 206.374 52.43C206.756 52.9727 206.946 53.6767 206.946 54.542V59.866C206.946 60.394 207.225 60.658 207.782 60.658C208.061 60.658 208.332 60.6213 208.596 60.548L208.508 61.934C208.215 62.0807 207.834 62.154 207.364 62.154C206.939 62.154 206.558 62.0733 206.22 61.912C205.883 61.7507 205.619 61.5087 205.428 61.186C205.238 60.8487 205.142 60.4307 205.142 59.932V59.712L205.582 59.778C205.406 60.35 205.106 60.8193 204.68 61.186C204.255 61.538 203.778 61.802 203.25 61.978C202.722 62.1393 202.202 62.22 201.688 62.22C201.043 62.22 200.442 62.11 199.884 61.89C199.327 61.67 198.88 61.34 198.542 60.9C198.22 60.4453 198.058 59.888 198.058 59.228C198.058 58.4067 198.33 57.732 198.872 57.204C199.43 56.6613 200.2 56.2947 201.182 56.104L205.538 55.246V56.698L201.996 57.424C201.278 57.5707 200.742 57.776 200.39 58.04C200.038 58.304 199.862 58.6707 199.862 59.14C199.862 59.5947 200.038 59.9687 200.39 60.262C200.757 60.5407 201.27 60.68 201.93 60.68C202.356 60.68 202.759 60.6287 203.14 60.526C203.536 60.4087 203.888 60.24 204.196 60.02C204.504 59.7853 204.746 59.4993 204.922 59.162C205.098 58.81 205.186 58.3993 205.186 57.93V54.894ZM221.321 51L216.569 55.752L216.151 56.17L212.543 59.778V57.578L219.099 51H221.321ZM213.423 45.94V62H211.663V45.94H213.423ZM216.723 54.85L221.585 62H219.451L215.249 55.84L216.723 54.85ZM228.797 62.22C227.756 62.22 226.824 61.9927 226.003 61.538C225.196 61.0833 224.566 60.4307 224.111 59.58C223.656 58.7147 223.429 57.688 223.429 56.5C223.429 55.312 223.656 54.2927 224.111 53.442C224.566 52.5767 225.189 51.9167 225.981 51.462C226.773 51.0073 227.675 50.78 228.687 50.78C229.714 50.78 230.586 51 231.305 51.44C232.038 51.88 232.596 52.4813 232.977 53.244C233.358 53.992 233.549 54.8353 233.549 55.774C233.549 56.0233 233.542 56.2507 233.527 56.456C233.512 56.6613 233.49 56.8447 233.461 57.006H224.573V55.444H232.691L231.789 55.62C231.789 54.564 231.496 53.75 230.909 53.178C230.337 52.606 229.582 52.32 228.643 52.32C227.924 52.32 227.301 52.4887 226.773 52.826C226.26 53.1487 225.856 53.6253 225.563 54.256C225.284 54.872 225.145 55.62 225.145 56.5C225.145 57.3653 225.292 58.1133 225.585 58.744C225.878 59.3747 226.289 59.8587 226.817 60.196C227.36 60.5187 228.005 60.68 228.753 60.68C229.56 60.68 230.212 60.526 230.711 60.218C231.224 59.91 231.635 59.492 231.943 58.964L233.329 59.778C233.05 60.2767 232.691 60.7093 232.251 61.076C231.826 61.4427 231.32 61.7287 230.733 61.934C230.161 62.1247 229.516 62.22 228.797 62.22ZM155.819 78.876V89.964C155.819 90.5067 155.973 90.91 156.281 91.174C156.589 91.438 156.985 91.57 157.469 91.57C157.894 91.57 158.261 91.4967 158.569 91.35C158.877 91.2033 159.155 91.0053 159.405 90.756L160.021 92.23C159.683 92.538 159.28 92.78 158.811 92.956C158.356 93.132 157.828 93.22 157.227 93.22C156.669 93.22 156.149 93.1247 155.665 92.934C155.181 92.7287 154.792 92.4133 154.499 91.988C154.22 91.548 154.073 90.976 154.059 90.272V79.36L155.819 78.876ZM159.823 82V83.518H151.859V82H159.823ZM162.879 93V76.94H164.639V83.65C165.021 82.99 165.527 82.5133 166.157 82.22C166.788 81.9267 167.477 81.78 168.225 81.78C169.017 81.78 169.736 81.934 170.381 82.242C171.027 82.5353 171.54 82.99 171.921 83.606C172.317 84.222 172.515 85.0067 172.515 85.96V93H170.755V86.576C170.755 85.3587 170.491 84.5153 169.963 84.046C169.45 83.562 168.812 83.32 168.049 83.32C167.521 83.32 166.993 83.4447 166.465 83.694C165.937 83.9433 165.497 84.354 165.145 84.926C164.808 85.4833 164.639 86.2313 164.639 87.17V93H162.879ZM181.539 93.22C180.497 93.22 179.566 92.9927 178.745 92.538C177.938 92.0833 177.307 91.4307 176.853 90.58C176.398 89.7147 176.171 88.688 176.171 87.5C176.171 86.312 176.398 85.2927 176.853 84.442C177.307 83.5767 177.931 82.9167 178.723 82.462C179.515 82.0073 180.417 81.78 181.429 81.78C182.455 81.78 183.328 82 184.047 82.44C184.78 82.88 185.337 83.4813 185.719 84.244C186.1 84.992 186.291 85.8353 186.291 86.774C186.291 87.0233 186.283 87.2507 186.269 87.456C186.254 87.6613 186.232 87.8447 186.203 88.006H177.315V86.444H185.433L184.531 86.62C184.531 85.564 184.237 84.75 183.651 84.178C183.079 83.606 182.323 83.32 181.385 83.32C180.666 83.32 180.043 83.4887 179.515 83.826C179.001 84.1487 178.598 84.6253 178.305 85.256C178.026 85.872 177.887 86.62 177.887 87.5C177.887 88.3653 178.033 89.1133 178.327 89.744C178.62 90.3747 179.031 90.8587 179.559 91.196C180.101 91.5187 180.747 91.68 181.495 91.68C182.301 91.68 182.954 91.526 183.453 91.218C183.966 90.91 184.377 90.492 184.685 89.964L186.071 90.778C185.792 91.2767 185.433 91.7093 184.993 92.076C184.567 92.4427 184.061 92.7287 183.475 92.934C182.903 93.1247 182.257 93.22 181.539 93.22ZM200.182 78.876V89.964C200.182 90.5067 200.336 90.91 200.644 91.174C200.952 91.438 201.348 91.57 201.832 91.57C202.258 91.57 202.624 91.4967 202.932 91.35C203.24 91.2033 203.519 91.0053 203.768 90.756L204.384 92.23C204.047 92.538 203.644 92.78 203.174 92.956C202.72 93.132 202.192 93.22 201.59 93.22C201.033 93.22 200.512 93.1247 200.028 92.934C199.544 92.7287 199.156 92.4133 198.862 91.988C198.584 91.548 198.437 90.976 198.422 90.272V79.36L200.182 78.876ZM204.186 82V83.518H196.222V82H204.186ZM208.123 79.888C207.727 79.888 207.404 79.7707 207.155 79.536C206.92 79.2867 206.803 78.964 206.803 78.568C206.803 78.172 206.92 77.8567 207.155 77.622C207.404 77.3727 207.727 77.248 208.123 77.248C208.519 77.248 208.834 77.3727 209.069 77.622C209.318 77.8567 209.443 78.172 209.443 78.568C209.443 78.964 209.318 79.2867 209.069 79.536C208.834 79.7707 208.519 79.888 208.123 79.888ZM209.003 82V93H207.243V82H209.003ZM213.527 93V82H215.067L215.177 83.716C215.573 83.0413 216.086 82.55 216.717 82.242C217.362 81.934 218.022 81.78 218.697 81.78C219.474 81.78 220.207 81.956 220.897 82.308C221.586 82.66 222.114 83.2027 222.481 83.936C222.715 83.4373 223.045 83.034 223.471 82.726C223.896 82.4033 224.358 82.1687 224.857 82.022C225.37 81.8607 225.854 81.78 226.309 81.78C227.013 81.78 227.68 81.9267 228.311 82.22C228.956 82.5133 229.484 82.968 229.895 83.584C230.305 84.2 230.511 84.992 230.511 85.96V93H228.751V86.136C228.751 85.1387 228.501 84.42 228.003 83.98C227.504 83.54 226.888 83.32 226.155 83.32C225.583 83.32 225.047 83.4593 224.549 83.738C224.05 84.0167 223.647 84.4273 223.339 84.97C223.045 85.5127 222.899 86.18 222.899 86.972V93H221.139V86.136C221.139 85.1387 220.889 84.42 220.391 83.98C219.892 83.54 219.276 83.32 218.543 83.32C218.059 83.32 217.56 83.452 217.047 83.716C216.548 83.9653 216.13 84.3687 215.793 84.926C215.455 85.4833 215.287 86.2167 215.287 87.126V93H213.527ZM239.533 93.22C238.492 93.22 237.561 92.9927 236.739 92.538C235.933 92.0833 235.302 91.4307 234.847 90.58C234.393 89.7147 234.165 88.688 234.165 87.5C234.165 86.312 234.393 85.2927 234.847 84.442C235.302 83.5767 235.925 82.9167 236.717 82.462C237.509 82.0073 238.411 81.78 239.423 81.78C240.45 81.78 241.323 82 242.041 82.44C242.775 82.88 243.332 83.4813 243.713 84.244C244.095 84.992 244.285 85.8353 244.285 86.774C244.285 87.0233 244.278 87.2507 244.263 87.456C244.249 87.6613 244.227 87.8447 244.197 88.006H235.309V86.444H243.427L242.525 86.62C242.525 85.564 242.232 84.75 241.645 84.178C241.073 83.606 240.318 83.32 239.379 83.32C238.661 83.32 238.037 83.4887 237.509 83.826C236.996 84.1487 236.593 84.6253 236.299 85.256C236.021 85.872 235.881 86.62 235.881 87.5C235.881 88.3653 236.028 89.1133 236.321 89.744C236.615 90.3747 237.025 90.8587 237.553 91.196C238.096 91.5187 238.741 91.68 239.489 91.68C240.296 91.68 240.949 91.526 241.447 91.218C241.961 90.91 242.371 90.492 242.679 89.964L244.065 90.778C243.787 91.2767 243.427 91.7093 242.987 92.076C242.562 92.4427 242.056 92.7287 241.469 92.934C240.897 93.1247 240.252 93.22 239.533 93.22ZM258.177 78.876V89.964C258.177 90.5067 258.331 90.91 258.639 91.174C258.947 91.438 259.343 91.57 259.827 91.57C260.252 91.57 260.619 91.4967 260.927 91.35C261.235 91.2033 261.514 91.0053 261.763 90.756L262.379 92.23C262.042 92.538 261.638 92.78 261.169 92.956C260.714 93.132 260.186 93.22 259.585 93.22C259.028 93.22 258.507 93.1247 258.023 92.934C257.539 92.7287 257.15 92.4133 256.857 91.988C256.578 91.548 256.432 90.976 256.417 90.272V79.36L258.177 78.876ZM262.181 82V83.518H254.217V82H262.181ZM269.792 81.78C270.833 81.78 271.75 82.0073 272.542 82.462C273.349 82.9167 273.979 83.5767 274.434 84.442C274.889 85.2927 275.116 86.312 275.116 87.5C275.116 88.688 274.889 89.7147 274.434 90.58C273.979 91.4307 273.349 92.0833 272.542 92.538C271.75 92.9927 270.833 93.22 269.792 93.22C268.765 93.22 267.849 92.9927 267.042 92.538C266.235 92.0833 265.605 91.4307 265.15 90.58C264.695 89.7147 264.468 88.688 264.468 87.5C264.468 86.312 264.695 85.2927 265.15 84.442C265.605 83.5767 266.235 82.9167 267.042 82.462C267.849 82.0073 268.765 81.78 269.792 81.78ZM269.792 83.298C269.044 83.298 268.406 83.4667 267.878 83.804C267.35 84.1413 266.939 84.6253 266.646 85.256C266.367 85.872 266.228 86.62 266.228 87.5C266.228 88.3653 266.367 89.1133 266.646 89.744C266.939 90.3747 267.35 90.8587 267.878 91.196C268.406 91.5333 269.044 91.702 269.792 91.702C270.54 91.702 271.178 91.5333 271.706 91.196C272.234 90.8587 272.637 90.3747 272.916 89.744C273.209 89.1133 273.356 88.3653 273.356 87.5C273.356 86.62 273.209 85.872 272.916 85.256C272.637 84.6253 272.234 84.1413 271.706 83.804C271.178 83.4667 270.54 83.298 269.792 83.298ZM151.268 116.894C151.268 116.073 151.048 115.442 150.608 115.002C150.168 114.547 149.544 114.32 148.738 114.32C147.975 114.32 147.33 114.489 146.802 114.826C146.274 115.149 145.885 115.677 145.636 116.41L144.206 115.53C144.499 114.709 145.042 114.049 145.834 113.55C146.626 113.037 147.608 112.78 148.782 112.78C149.574 112.78 150.292 112.919 150.938 113.198C151.583 113.462 152.089 113.873 152.456 114.43C152.837 114.973 153.028 115.677 153.028 116.542V121.866C153.028 122.394 153.306 122.658 153.864 122.658C154.142 122.658 154.414 122.621 154.678 122.548L154.59 123.934C154.296 124.081 153.915 124.154 153.446 124.154C153.02 124.154 152.639 124.073 152.302 123.912C151.964 123.751 151.7 123.509 151.51 123.186C151.319 122.849 151.224 122.431 151.224 121.932V121.712L151.664 121.778C151.488 122.35 151.187 122.819 150.762 123.186C150.336 123.538 149.86 123.802 149.332 123.978C148.804 124.139 148.283 124.22 147.77 124.22C147.124 124.22 146.523 124.11 145.966 123.89C145.408 123.67 144.961 123.34 144.624 122.9C144.301 122.445 144.14 121.888 144.14 121.228C144.14 120.407 144.411 119.732 144.954 119.204C145.511 118.661 146.281 118.295 147.264 118.104L151.62 117.246V118.698L148.078 119.424C147.359 119.571 146.824 119.776 146.472 120.04C146.12 120.304 145.944 120.671 145.944 121.14C145.944 121.595 146.12 121.969 146.472 122.262C146.838 122.541 147.352 122.68 148.012 122.68C148.437 122.68 148.84 122.629 149.222 122.526C149.618 122.409 149.97 122.24 150.278 122.02C150.586 121.785 150.828 121.499 151.004 121.162C151.18 120.81 151.268 120.399 151.268 119.93V116.894ZM162.035 124.22C161.125 124.22 160.289 123.993 159.527 123.538C158.764 123.083 158.155 122.431 157.701 121.58C157.246 120.715 157.019 119.688 157.019 118.5C157.019 117.283 157.261 116.249 157.745 115.398C158.229 114.547 158.867 113.902 159.659 113.462C160.451 113.007 161.301 112.78 162.211 112.78C163.12 112.78 163.905 113.015 164.565 113.484C165.239 113.953 165.687 114.577 165.907 115.354L165.687 115.508V107.94H167.447V124H165.907L165.753 121.338L165.995 121.206C165.892 121.851 165.643 122.401 165.247 122.856C164.865 123.296 164.389 123.633 163.817 123.868C163.259 124.103 162.665 124.22 162.035 124.22ZM162.211 122.68C162.915 122.68 163.523 122.504 164.037 122.152C164.565 121.8 164.968 121.301 165.247 120.656C165.54 119.996 165.687 119.226 165.687 118.346C165.687 117.51 165.54 116.791 165.247 116.19C164.968 115.589 164.572 115.127 164.059 114.804C163.56 114.481 162.973 114.32 162.299 114.32C161.184 114.32 160.319 114.701 159.703 115.464C159.087 116.227 158.779 117.239 158.779 118.5C158.779 119.761 159.079 120.773 159.681 121.536C160.282 122.299 161.125 122.68 162.211 122.68ZM172.858 110.888C172.462 110.888 172.139 110.771 171.89 110.536C171.655 110.287 171.538 109.964 171.538 109.568C171.538 109.172 171.655 108.857 171.89 108.622C172.139 108.373 172.462 108.248 172.858 108.248C173.254 108.248 173.569 108.373 173.804 108.622C174.053 108.857 174.178 109.172 174.178 109.568C174.178 109.964 174.053 110.287 173.804 110.536C173.569 110.771 173.254 110.888 172.858 110.888ZM173.738 113V125.122C173.738 126.031 173.562 126.75 173.21 127.278C172.858 127.806 172.425 128.18 171.912 128.4C171.398 128.62 170.892 128.73 170.394 128.73C169.939 128.73 169.521 128.657 169.14 128.51C168.758 128.378 168.443 128.209 168.194 128.004L168.568 126.332C168.773 126.523 169.03 126.684 169.338 126.816C169.646 126.948 169.99 127.014 170.372 127.014C170.841 127.014 171.222 126.86 171.516 126.552C171.824 126.244 171.978 125.709 171.978 124.946V113H173.738ZM182.243 124.22C181.539 124.22 180.872 124.088 180.241 123.824C179.625 123.56 179.119 123.135 178.723 122.548C178.342 121.947 178.151 121.169 178.151 120.216V113H179.911V119.754C179.911 120.869 180.153 121.639 180.637 122.064C181.121 122.475 181.803 122.68 182.683 122.68C183.094 122.68 183.497 122.614 183.893 122.482C184.289 122.335 184.641 122.115 184.949 121.822C185.272 121.514 185.521 121.125 185.697 120.656C185.888 120.187 185.983 119.629 185.983 118.984V113H187.743V124H186.203L186.093 122.328C185.712 122.988 185.191 123.472 184.531 123.78C183.886 124.073 183.123 124.22 182.243 124.22ZM196.24 124.22C195.169 124.22 194.179 123.993 193.27 123.538C192.375 123.083 191.686 122.438 191.202 121.602L192.698 120.524C193.02 121.199 193.49 121.727 194.106 122.108C194.736 122.489 195.492 122.68 196.372 122.68C197.149 122.68 197.758 122.533 198.198 122.24C198.638 121.932 198.858 121.536 198.858 121.052C198.858 120.744 198.755 120.465 198.55 120.216C198.359 119.952 197.985 119.761 197.428 119.644L194.788 119.094C193.717 118.874 192.947 118.507 192.478 117.994C192.023 117.481 191.796 116.843 191.796 116.08C191.796 115.479 191.964 114.929 192.302 114.43C192.654 113.931 193.145 113.535 193.776 113.242C194.421 112.934 195.176 112.78 196.042 112.78C197.127 112.78 198.044 112.993 198.792 113.418C199.54 113.843 200.097 114.445 200.464 115.222L198.99 116.19C198.74 115.545 198.337 115.075 197.78 114.782C197.222 114.474 196.643 114.32 196.042 114.32C195.514 114.32 195.059 114.393 194.678 114.54C194.311 114.687 194.025 114.892 193.82 115.156C193.629 115.405 193.534 115.691 193.534 116.014C193.534 116.337 193.644 116.637 193.864 116.916C194.084 117.18 194.494 117.371 195.096 117.488L197.846 118.06C198.872 118.265 199.591 118.603 200.002 119.072C200.412 119.541 200.618 120.113 200.618 120.788C200.618 121.477 200.434 122.086 200.068 122.614C199.701 123.127 199.188 123.523 198.528 123.802C197.868 124.081 197.105 124.22 196.24 124.22ZM206.917 109.876V120.964C206.917 121.507 207.071 121.91 207.379 122.174C207.687 122.438 208.083 122.57 208.567 122.57C208.992 122.57 209.359 122.497 209.667 122.35C209.975 122.203 210.254 122.005 210.503 121.756L211.119 123.23C210.782 123.538 210.378 123.78 209.909 123.956C209.454 124.132 208.926 124.22 208.325 124.22C207.768 124.22 207.247 124.125 206.763 123.934C206.279 123.729 205.89 123.413 205.597 122.988C205.318 122.548 205.172 121.976 205.157 121.272V110.36L206.917 109.876ZM210.921 113V114.518H202.957V113H210.921ZM224.082 109.876V120.964C224.082 121.507 224.236 121.91 224.544 122.174C224.852 122.438 225.248 122.57 225.732 122.57C226.158 122.57 226.524 122.497 226.832 122.35C227.14 122.203 227.419 122.005 227.668 121.756L228.284 123.23C227.947 123.538 227.544 123.78 227.074 123.956C226.62 124.132 226.092 124.22 225.49 124.22C224.933 124.22 224.412 124.125 223.928 123.934C223.444 123.729 223.056 123.413 222.762 122.988C222.484 122.548 222.337 121.976 222.322 121.272V110.36L224.082 109.876ZM228.086 113V114.518H220.122V113H228.086ZM231.143 124V107.94H232.903V114.65C233.284 113.99 233.79 113.513 234.421 113.22C235.052 112.927 235.741 112.78 236.489 112.78C237.281 112.78 238 112.934 238.645 113.242C239.29 113.535 239.804 113.99 240.185 114.606C240.581 115.222 240.779 116.007 240.779 116.96V124H239.019V117.576C239.019 116.359 238.755 115.515 238.227 115.046C237.714 114.562 237.076 114.32 236.313 114.32C235.785 114.32 235.257 114.445 234.729 114.694C234.201 114.943 233.761 115.354 233.409 115.926C233.072 116.483 232.903 117.231 232.903 118.17V124H231.143ZM249.802 124.22C248.761 124.22 247.829 123.993 247.008 123.538C246.201 123.083 245.571 122.431 245.116 121.58C244.661 120.715 244.434 119.688 244.434 118.5C244.434 117.312 244.661 116.293 245.116 115.442C245.571 114.577 246.194 113.917 246.986 113.462C247.778 113.007 248.68 112.78 249.692 112.78C250.719 112.78 251.591 113 252.31 113.44C253.043 113.88 253.601 114.481 253.982 115.244C254.363 115.992 254.554 116.835 254.554 117.774C254.554 118.023 254.547 118.251 254.532 118.456C254.517 118.661 254.495 118.845 254.466 119.006H245.578V117.444H253.696L252.794 117.62C252.794 116.564 252.501 115.75 251.914 115.178C251.342 114.606 250.587 114.32 249.648 114.32C248.929 114.32 248.306 114.489 247.778 114.826C247.265 115.149 246.861 115.625 246.568 116.256C246.289 116.872 246.15 117.62 246.15 118.5C246.15 119.365 246.297 120.113 246.59 120.744C246.883 121.375 247.294 121.859 247.822 122.196C248.365 122.519 249.01 122.68 249.758 122.68C250.565 122.68 251.217 122.526 251.716 122.218C252.229 121.91 252.64 121.492 252.948 120.964L254.334 121.778C254.055 122.277 253.696 122.709 253.256 123.076C252.831 123.443 252.325 123.729 251.738 123.934C251.166 124.125 250.521 124.22 249.802 124.22ZM258.341 124V113H259.881L259.991 114.716C260.387 114.041 260.901 113.55 261.531 113.242C262.177 112.934 262.837 112.78 263.511 112.78C264.289 112.78 265.022 112.956 265.711 113.308C266.401 113.66 266.929 114.203 267.295 114.936C267.53 114.437 267.86 114.034 268.285 113.726C268.711 113.403 269.173 113.169 269.671 113.022C270.185 112.861 270.669 112.78 271.123 112.78C271.827 112.78 272.495 112.927 273.125 113.22C273.771 113.513 274.299 113.968 274.709 114.584C275.12 115.2 275.325 115.992 275.325 116.96V124H273.565V117.136C273.565 116.139 273.316 115.42 272.817 114.98C272.319 114.54 271.703 114.32 270.969 114.32C270.397 114.32 269.862 114.459 269.363 114.738C268.865 115.017 268.461 115.427 268.153 115.97C267.86 116.513 267.713 117.18 267.713 117.972V124H265.953V117.136C265.953 116.139 265.704 115.42 265.205 114.98C264.707 114.54 264.091 114.32 263.357 114.32C262.873 114.32 262.375 114.452 261.861 114.716C261.363 114.965 260.945 115.369 260.607 115.926C260.27 116.483 260.101 117.217 260.101 118.126V124H258.341ZM143.761 140.876V151.964C143.761 152.507 143.915 152.91 144.223 153.174C144.531 153.438 144.927 153.57 145.411 153.57C145.837 153.57 146.203 153.497 146.511 153.35C146.819 153.203 147.098 153.005 147.347 152.756L147.963 154.23C147.626 154.538 147.223 154.78 146.753 154.956C146.299 155.132 145.771 155.22 145.169 155.22C144.612 155.22 144.091 155.125 143.607 154.934C143.123 154.729 142.735 154.413 142.441 153.988C142.163 153.548 142.016 152.976 142.001 152.272V141.36L143.761 140.876ZM147.765 144V145.518H139.801V144H147.765ZM155.376 143.78C156.417 143.78 157.334 144.007 158.126 144.462C158.933 144.917 159.563 145.577 160.018 146.442C160.473 147.293 160.7 148.312 160.7 149.5C160.7 150.688 160.473 151.715 160.018 152.58C159.563 153.431 158.933 154.083 158.126 154.538C157.334 154.993 156.417 155.22 155.376 155.22C154.349 155.22 153.433 154.993 152.626 154.538C151.819 154.083 151.189 153.431 150.734 152.58C150.279 151.715 150.052 150.688 150.052 149.5C150.052 148.312 150.279 147.293 150.734 146.442C151.189 145.577 151.819 144.917 152.626 144.462C153.433 144.007 154.349 143.78 155.376 143.78ZM155.376 145.298C154.628 145.298 153.99 145.467 153.462 145.804C152.934 146.141 152.523 146.625 152.23 147.256C151.951 147.872 151.812 148.62 151.812 149.5C151.812 150.365 151.951 151.113 152.23 151.744C152.523 152.375 152.934 152.859 153.462 153.196C153.99 153.533 154.628 153.702 155.376 153.702C156.124 153.702 156.762 153.533 157.29 153.196C157.818 152.859 158.221 152.375 158.5 151.744C158.793 151.113 158.94 150.365 158.94 149.5C158.94 148.62 158.793 147.872 158.5 147.256C158.221 146.625 157.818 146.141 157.29 145.804C156.762 145.467 156.124 145.298 155.376 145.298ZM178.815 147.894C178.815 147.073 178.595 146.442 178.155 146.002C177.715 145.547 177.092 145.32 176.285 145.32C175.523 145.32 174.877 145.489 174.349 145.826C173.821 146.149 173.433 146.677 173.183 147.41L171.753 146.53C172.047 145.709 172.589 145.049 173.381 144.55C174.173 144.037 175.156 143.78 176.329 143.78C177.121 143.78 177.84 143.919 178.485 144.198C179.131 144.462 179.637 144.873 180.003 145.43C180.385 145.973 180.575 146.677 180.575 147.542V152.866C180.575 153.394 180.854 153.658 181.411 153.658C181.69 153.658 181.961 153.621 182.225 153.548L182.137 154.934C181.844 155.081 181.463 155.154 180.993 155.154C180.568 155.154 180.187 155.073 179.849 154.912C179.512 154.751 179.248 154.509 179.057 154.186C178.867 153.849 178.771 153.431 178.771 152.932V152.712L179.211 152.778C179.035 153.35 178.735 153.819 178.309 154.186C177.884 154.538 177.407 154.802 176.879 154.978C176.351 155.139 175.831 155.22 175.317 155.22C174.672 155.22 174.071 155.11 173.513 154.89C172.956 154.67 172.509 154.34 172.171 153.9C171.849 153.445 171.687 152.888 171.687 152.228C171.687 151.407 171.959 150.732 172.501 150.204C173.059 149.661 173.829 149.295 174.811 149.104L179.167 148.246V149.698L175.625 150.424C174.907 150.571 174.371 150.776 174.019 151.04C173.667 151.304 173.491 151.671 173.491 152.14C173.491 152.595 173.667 152.969 174.019 153.262C174.386 153.541 174.899 153.68 175.559 153.68C175.985 153.68 176.388 153.629 176.769 153.526C177.165 153.409 177.517 153.24 177.825 153.02C178.133 152.785 178.375 152.499 178.551 152.162C178.727 151.81 178.815 151.399 178.815 150.93V147.894ZM194.387 138.94V152.206C194.387 152.763 194.489 153.152 194.695 153.372C194.9 153.577 195.23 153.68 195.685 153.68C195.978 153.68 196.22 153.658 196.411 153.614C196.601 153.57 196.858 153.489 197.181 153.372L196.895 154.912C196.66 155.015 196.403 155.088 196.125 155.132C195.846 155.191 195.56 155.22 195.267 155.22C194.372 155.22 193.705 154.978 193.265 154.494C192.839 154.01 192.627 153.269 192.627 152.272V138.94H194.387ZM204.477 155.22C203.436 155.22 202.505 154.993 201.683 154.538C200.877 154.083 200.246 153.431 199.791 152.58C199.337 151.715 199.109 150.688 199.109 149.5C199.109 148.312 199.337 147.293 199.791 146.442C200.246 145.577 200.869 144.917 201.661 144.462C202.453 144.007 203.355 143.78 204.367 143.78C205.394 143.78 206.267 144 206.985 144.44C207.719 144.88 208.276 145.481 208.657 146.244C209.039 146.992 209.229 147.835 209.229 148.774C209.229 149.023 209.222 149.251 209.207 149.456C209.193 149.661 209.171 149.845 209.141 150.006H200.253V148.444H208.371L207.469 148.62C207.469 147.564 207.176 146.75 206.589 146.178C206.017 145.606 205.262 145.32 204.323 145.32C203.605 145.32 202.981 145.489 202.453 145.826C201.94 146.149 201.537 146.625 201.243 147.256C200.965 147.872 200.825 148.62 200.825 149.5C200.825 150.365 200.972 151.113 201.265 151.744C201.559 152.375 201.969 152.859 202.497 153.196C203.04 153.519 203.685 153.68 204.433 153.68C205.24 153.68 205.893 153.526 206.391 153.218C206.905 152.91 207.315 152.492 207.623 151.964L209.009 152.778C208.731 153.277 208.371 153.709 207.931 154.076C207.506 154.443 207 154.729 206.413 154.934C205.841 155.125 205.196 155.22 204.477 155.22ZM219.998 144H221.846L217.27 155H215.51L210.934 144H212.936L216.412 153.218L219.998 144ZM229.184 155.22C228.142 155.22 227.211 154.993 226.39 154.538C225.583 154.083 224.952 153.431 224.498 152.58C224.043 151.715 223.816 150.688 223.816 149.5C223.816 148.312 224.043 147.293 224.498 146.442C224.952 145.577 225.576 144.917 226.368 144.462C227.16 144.007 228.062 143.78 229.074 143.78C230.1 143.78 230.973 144 231.692 144.44C232.425 144.88 232.982 145.481 233.364 146.244C233.745 146.992 233.936 147.835 233.936 148.774C233.936 149.023 233.928 149.251 233.914 149.456C233.899 149.661 233.877 149.845 233.848 150.006H224.96V148.444H233.078L232.176 148.62C232.176 147.564 231.882 146.75 231.296 146.178C230.724 145.606 229.968 145.32 229.03 145.32C228.311 145.32 227.688 145.489 227.16 145.826C226.646 146.149 226.243 146.625 225.95 147.256C225.671 147.872 225.532 148.62 225.532 149.5C225.532 150.365 225.678 151.113 225.972 151.744C226.265 152.375 226.676 152.859 227.204 153.196C227.746 153.519 228.392 153.68 229.14 153.68C229.946 153.68 230.599 153.526 231.098 153.218C231.611 152.91 232.022 152.492 232.33 151.964L233.716 152.778C233.437 153.277 233.078 153.709 232.638 154.076C232.212 154.443 231.706 154.729 231.12 154.934C230.548 155.125 229.902 155.22 229.184 155.22ZM239.395 138.94V152.206C239.395 152.763 239.498 153.152 239.703 153.372C239.908 153.577 240.238 153.68 240.693 153.68C240.986 153.68 241.228 153.658 241.419 153.614C241.61 153.57 241.866 153.489 242.189 153.372L241.903 154.912C241.668 155.015 241.412 155.088 241.133 155.132C240.854 155.191 240.568 155.22 240.275 155.22C239.38 155.22 238.713 154.978 238.273 154.494C237.848 154.01 237.635 153.269 237.635 152.272V138.94H239.395ZM260.535 144L255.365 156.848C255.087 157.567 254.779 158.131 254.441 158.542C254.119 158.967 253.752 159.268 253.341 159.444C252.945 159.635 252.483 159.73 251.955 159.73C251.457 159.73 250.995 159.657 250.569 159.51C250.159 159.378 249.792 159.195 249.469 158.96L249.953 157.42C250.247 157.684 250.555 157.875 250.877 157.992C251.215 158.124 251.545 158.19 251.867 158.19C252.249 158.19 252.608 158.073 252.945 157.838C253.283 157.603 253.591 157.127 253.869 156.408L254.441 154.978L253.341 152.36L249.843 144H251.845L254.595 151.172L255.277 153.13L256.069 150.952L258.643 144H260.535ZM267.831 143.78C268.873 143.78 269.789 144.007 270.581 144.462C271.388 144.917 272.019 145.577 272.473 146.442C272.928 147.293 273.155 148.312 273.155 149.5C273.155 150.688 272.928 151.715 272.473 152.58C272.019 153.431 271.388 154.083 270.581 154.538C269.789 154.993 268.873 155.22 267.831 155.22C266.805 155.22 265.888 154.993 265.081 154.538C264.275 154.083 263.644 153.431 263.189 152.58C262.735 151.715 262.507 150.688 262.507 149.5C262.507 148.312 262.735 147.293 263.189 146.442C263.644 145.577 264.275 144.917 265.081 144.462C265.888 144.007 266.805 143.78 267.831 143.78ZM267.831 145.298C267.083 145.298 266.445 145.467 265.917 145.804C265.389 146.141 264.979 146.625 264.685 147.256C264.407 147.872 264.267 148.62 264.267 149.5C264.267 150.365 264.407 151.113 264.685 151.744C264.979 152.375 265.389 152.859 265.917 153.196C266.445 153.533 267.083 153.702 267.831 153.702C268.579 153.702 269.217 153.533 269.745 153.196C270.273 152.859 270.677 152.375 270.955 151.744C271.249 151.113 271.395 150.365 271.395 149.5C271.395 148.62 271.249 147.872 270.955 147.256C270.677 146.625 270.273 146.141 269.745 145.804C269.217 145.467 268.579 145.298 267.831 145.298ZM280.891 155.22C280.187 155.22 279.519 155.088 278.889 154.824C278.273 154.56 277.767 154.135 277.371 153.548C276.989 152.947 276.799 152.169 276.799 151.216V144H278.559V150.754C278.559 151.869 278.801 152.639 279.285 153.064C279.769 153.475 280.451 153.68 281.331 153.68C281.741 153.68 282.145 153.614 282.541 153.482C282.937 153.335 283.289 153.115 283.597 152.822C283.919 152.514 284.169 152.125 284.345 151.656C284.535 151.187 284.631 150.629 284.631 149.984V144H286.391V155H284.851L284.741 153.328C284.359 153.988 283.839 154.472 283.179 154.78C282.533 155.073 281.771 155.22 280.891 155.22ZM180.168 190.62V175H181.708L181.862 177.684L181.62 177.376C181.811 176.863 182.097 176.415 182.478 176.034C182.86 175.638 183.322 175.33 183.864 175.11C184.407 174.89 184.994 174.78 185.624 174.78C186.519 174.78 187.34 175.007 188.088 175.462C188.851 175.917 189.46 176.569 189.914 177.42C190.369 178.271 190.596 179.297 190.596 180.5C190.596 181.688 190.362 182.715 189.892 183.58C189.438 184.431 188.829 185.083 188.066 185.538C187.304 185.993 186.468 186.22 185.558 186.22C184.649 186.22 183.85 186 183.16 185.56C182.486 185.105 182.002 184.533 181.708 183.844L181.928 183.514V190.62H180.168ZM185.382 184.68C186.468 184.68 187.311 184.299 187.912 183.536C188.528 182.773 188.836 181.761 188.836 180.5C188.836 179.239 188.536 178.227 187.934 177.464C187.348 176.701 186.519 176.32 185.448 176.32C184.744 176.32 184.128 176.496 183.6 176.848C183.072 177.185 182.662 177.669 182.368 178.3C182.075 178.916 181.928 179.649 181.928 180.5C181.928 181.336 182.068 182.069 182.346 182.7C182.64 183.331 183.043 183.822 183.556 184.174C184.084 184.511 184.693 184.68 185.382 184.68ZM194.401 186V175H195.831L196.073 176.804C196.381 176.129 196.829 175.623 197.415 175.286C198.017 174.949 198.743 174.78 199.593 174.78C199.784 174.78 199.989 174.795 200.209 174.824C200.444 174.853 200.642 174.912 200.803 175L200.495 176.606C200.334 176.547 200.158 176.503 199.967 176.474C199.777 176.445 199.505 176.43 199.153 176.43C198.699 176.43 198.237 176.562 197.767 176.826C197.313 177.09 196.931 177.493 196.623 178.036C196.315 178.564 196.161 179.239 196.161 180.06V186H194.401ZM208.076 186.22C207.035 186.22 206.103 185.993 205.282 185.538C204.475 185.083 203.845 184.431 203.39 183.58C202.935 182.715 202.708 181.688 202.708 180.5C202.708 179.312 202.935 178.293 203.39 177.442C203.845 176.577 204.468 175.917 205.26 175.462C206.052 175.007 206.954 174.78 207.966 174.78C208.993 174.78 209.865 175 210.584 175.44C211.317 175.88 211.875 176.481 212.256 177.244C212.637 177.992 212.828 178.835 212.828 179.774C212.828 180.023 212.821 180.251 212.806 180.456C212.791 180.661 212.769 180.845 212.74 181.006H203.852V179.444H211.97L211.068 179.62C211.068 178.564 210.775 177.75 210.188 177.178C209.616 176.606 208.861 176.32 207.922 176.32C207.203 176.32 206.58 176.489 206.052 176.826C205.539 177.149 205.135 177.625 204.842 178.256C204.563 178.872 204.424 179.62 204.424 180.5C204.424 181.365 204.571 182.113 204.864 182.744C205.157 183.375 205.568 183.859 206.096 184.196C206.639 184.519 207.284 184.68 208.032 184.68C208.839 184.68 209.491 184.526 209.99 184.218C210.503 183.91 210.914 183.492 211.222 182.964L212.608 183.778C212.329 184.277 211.97 184.709 211.53 185.076C211.105 185.443 210.599 185.729 210.012 185.934C209.44 186.125 208.795 186.22 208.076 186.22ZM220.974 169.83C221.355 169.83 221.715 169.874 222.052 169.962C222.389 170.05 222.653 170.175 222.844 170.336L222.382 171.766C222.206 171.649 222.015 171.568 221.81 171.524C221.605 171.465 221.377 171.436 221.128 171.436C220.497 171.436 220.006 171.59 219.654 171.898C219.302 172.191 219.126 172.668 219.126 173.328V175V175.572V186H217.366V173.152C217.366 172.668 217.439 172.221 217.586 171.81C217.733 171.399 217.953 171.047 218.246 170.754C218.554 170.461 218.935 170.233 219.39 170.072C219.845 169.911 220.373 169.83 220.974 169.83ZM222.8 175V176.518H215.166V175H222.8ZM229.882 186.22C228.841 186.22 227.909 185.993 227.088 185.538C226.281 185.083 225.651 184.431 225.196 183.58C224.741 182.715 224.514 181.688 224.514 180.5C224.514 179.312 224.741 178.293 225.196 177.442C225.651 176.577 226.274 175.917 227.066 175.462C227.858 175.007 228.76 174.78 229.772 174.78C230.799 174.78 231.671 175 232.39 175.44C233.123 175.88 233.681 176.481 234.062 177.244C234.443 177.992 234.634 178.835 234.634 179.774C234.634 180.023 234.627 180.251 234.612 180.456C234.597 180.661 234.575 180.845 234.546 181.006H225.658V179.444H233.776L232.874 179.62C232.874 178.564 232.581 177.75 231.994 177.178C231.422 176.606 230.667 176.32 229.728 176.32C229.009 176.32 228.386 176.489 227.858 176.826C227.345 177.149 226.941 177.625 226.648 178.256C226.369 178.872 226.23 179.62 226.23 180.5C226.23 181.365 226.377 182.113 226.67 182.744C226.963 183.375 227.374 183.859 227.902 184.196C228.445 184.519 229.09 184.68 229.838 184.68C230.645 184.68 231.297 184.526 231.796 184.218C232.309 183.91 232.72 183.492 233.028 182.964L234.414 183.778C234.135 184.277 233.776 184.709 233.336 185.076C232.911 185.443 232.405 185.729 231.818 185.934C231.246 186.125 230.601 186.22 229.882 186.22ZM238.421 186V175H239.851L240.093 176.804C240.401 176.129 240.848 175.623 241.435 175.286C242.036 174.949 242.762 174.78 243.613 174.78C243.804 174.78 244.009 174.795 244.229 174.824C244.464 174.853 244.662 174.912 244.823 175L244.515 176.606C244.354 176.547 244.178 176.503 243.987 176.474C243.796 176.445 243.525 176.43 243.173 176.43C242.718 176.43 242.256 176.562 241.787 176.826C241.332 177.09 240.951 177.493 240.643 178.036C240.335 178.564 240.181 179.239 240.181 180.06V186H238.421ZM246.96 183.36C247.385 183.36 247.73 183.492 247.994 183.756C248.258 184.02 248.39 184.365 248.39 184.79C248.39 185.215 248.258 185.56 247.994 185.824C247.73 186.088 247.385 186.22 246.96 186.22C246.535 186.22 246.19 186.088 245.926 185.824C245.662 185.56 245.53 185.215 245.53 184.79C245.53 184.365 245.662 184.02 245.926 183.756C246.19 183.492 246.535 183.36 246.96 183.36Z" fill="white"/>
<rect y="143" width="19" height="24" fill="#454E9E"/>
</svg>
