<svg width="390" height="453" viewBox="0 0 390 453" fill="none" xmlns="http://www.w3.org/2000/svg">
<rect x="81.1289" y="233.853" width="37.2593" height="280.602" rx="8" transform="rotate(46.973 81.1289 233.853)" fill="black"/>
<rect x="109.477" y="225.475" width="10.8172" height="51.6822" rx="5.4086" transform="rotate(46.973 109.477 225.475)" fill="black"/>
<circle cx="200.78" cy="139.049" r="129.72" stroke="black" stroke-width="17"/>
<path d="M152.04 55.48V70H150.28V55.48H152.04ZM159.496 55.876V66.964C159.496 67.5067 159.65 67.91 159.958 68.174C160.266 68.438 160.662 68.57 161.146 68.57C161.571 68.57 161.938 68.4967 162.246 68.35C162.554 68.2033 162.832 68.0053 163.082 67.756L163.698 69.23C163.36 69.538 162.957 69.78 162.488 69.956C162.033 70.132 161.505 70.22 160.904 70.22C160.346 70.22 159.826 70.1247 159.342 69.934C158.858 69.7287 158.469 69.4133 158.176 68.988C157.897 68.548 157.75 67.976 157.736 67.272V56.36L159.496 55.876ZM163.5 59V60.518H155.536V59H163.5ZM178.454 70.22C177.384 70.22 176.394 69.9927 175.484 69.538C174.59 69.0833 173.9 68.438 173.416 67.602L174.912 66.524C175.235 67.1987 175.704 67.7267 176.32 68.108C176.951 68.4893 177.706 68.68 178.586 68.68C179.364 68.68 179.972 68.5333 180.412 68.24C180.852 67.932 181.072 67.536 181.072 67.052C181.072 66.744 180.97 66.4653 180.764 66.216C180.574 65.952 180.2 65.7613 179.642 65.644L177.002 65.094C175.932 64.874 175.162 64.5073 174.692 63.994C174.238 63.4807 174.01 62.8427 174.01 62.08C174.01 61.4787 174.179 60.9287 174.516 60.43C174.868 59.9313 175.36 59.5353 175.99 59.242C176.636 58.934 177.391 58.78 178.256 58.78C179.342 58.78 180.258 58.9927 181.006 59.418C181.754 59.8433 182.312 60.4447 182.678 61.222L181.204 62.19C180.955 61.5447 180.552 61.0753 179.994 60.782C179.437 60.474 178.858 60.32 178.256 60.32C177.728 60.32 177.274 60.3933 176.892 60.54C176.526 60.6867 176.24 60.892 176.034 61.156C175.844 61.4053 175.748 61.6913 175.748 62.014C175.748 62.3367 175.858 62.6373 176.078 62.916C176.298 63.18 176.709 63.3707 177.31 63.488L180.06 64.06C181.087 64.2653 181.806 64.6027 182.216 65.072C182.627 65.5413 182.832 66.1133 182.832 66.788C182.832 67.4773 182.649 68.086 182.282 68.614C181.916 69.1273 181.402 69.5233 180.742 69.802C180.082 70.0807 179.32 70.22 178.454 70.22ZM186.536 70V53.94H188.296V60.65C188.677 59.99 189.183 59.5133 189.814 59.22C190.445 58.9267 191.134 58.78 191.882 58.78C192.674 58.78 193.393 58.934 194.038 59.242C194.683 59.5353 195.197 59.99 195.578 60.606C195.974 61.222 196.172 62.0067 196.172 62.96V70H194.412V63.576C194.412 62.3587 194.148 61.5153 193.62 61.046C193.107 60.562 192.469 60.32 191.706 60.32C191.178 60.32 190.65 60.4447 190.122 60.694C189.594 60.9433 189.154 61.354 188.802 61.926C188.465 62.4833 188.296 63.2313 188.296 64.17V70H186.536ZM205.151 58.78C206.192 58.78 207.109 59.0073 207.901 59.462C208.708 59.9167 209.338 60.5767 209.793 61.442C210.248 62.2927 210.475 63.312 210.475 64.5C210.475 65.688 210.248 66.7147 209.793 67.58C209.338 68.4307 208.708 69.0833 207.901 69.538C207.109 69.9927 206.192 70.22 205.151 70.22C204.124 70.22 203.208 69.9927 202.401 69.538C201.594 69.0833 200.964 68.4307 200.509 67.58C200.054 66.7147 199.827 65.688 199.827 64.5C199.827 63.312 200.054 62.2927 200.509 61.442C200.964 60.5767 201.594 59.9167 202.401 59.462C203.208 59.0073 204.124 58.78 205.151 58.78ZM205.151 60.298C204.403 60.298 203.765 60.4667 203.237 60.804C202.709 61.1413 202.298 61.6253 202.005 62.256C201.726 62.872 201.587 63.62 201.587 64.5C201.587 65.3653 201.726 66.1133 202.005 66.744C202.298 67.3747 202.709 67.8587 203.237 68.196C203.765 68.5333 204.403 68.702 205.151 68.702C205.899 68.702 206.537 68.5333 207.065 68.196C207.593 67.8587 207.996 67.3747 208.275 66.744C208.568 66.1133 208.715 65.3653 208.715 64.5C208.715 63.62 208.568 62.872 208.275 62.256C207.996 61.6253 207.593 61.1413 207.065 60.804C206.537 60.4667 205.899 60.298 205.151 60.298ZM218.21 70.22C217.506 70.22 216.839 70.088 216.208 69.824C215.592 69.56 215.086 69.1347 214.69 68.548C214.309 67.9467 214.118 67.1693 214.118 66.216V59H215.878V65.754C215.878 66.8687 216.12 67.6387 216.604 68.064C217.088 68.4747 217.77 68.68 218.65 68.68C219.061 68.68 219.464 68.614 219.86 68.482C220.256 68.3353 220.608 68.1153 220.916 67.822C221.239 67.514 221.488 67.1253 221.664 66.656C221.855 66.1867 221.95 65.6293 221.95 64.984V59H223.71V70H222.17L222.06 68.328C221.679 68.988 221.158 69.472 220.498 69.78C219.853 70.0733 219.09 70.22 218.21 70.22ZM229.919 53.94V67.206C229.919 67.7633 230.021 68.152 230.227 68.372C230.432 68.5773 230.762 68.68 231.217 68.68C231.51 68.68 231.752 68.658 231.943 68.614C232.133 68.57 232.39 68.4893 232.713 68.372L232.427 69.912C232.192 70.0147 231.935 70.088 231.657 70.132C231.378 70.1907 231.092 70.22 230.799 70.22C229.904 70.22 229.237 69.978 228.797 69.494C228.371 69.01 228.159 68.2693 228.159 67.272V53.94H229.919ZM239.701 70.22C238.792 70.22 237.956 69.9927 237.193 69.538C236.431 69.0833 235.822 68.4307 235.367 67.58C234.913 66.7147 234.685 65.688 234.685 64.5C234.685 63.2827 234.927 62.2487 235.411 61.398C235.895 60.5473 236.533 59.902 237.325 59.462C238.117 59.0073 238.968 58.78 239.877 58.78C240.787 58.78 241.571 59.0147 242.231 59.484C242.906 59.9533 243.353 60.5767 243.573 61.354L243.353 61.508V53.94H245.113V70H243.573L243.419 67.338L243.661 67.206C243.559 67.8513 243.309 68.4013 242.913 68.856C242.532 69.296 242.055 69.6333 241.483 69.868C240.926 70.1027 240.332 70.22 239.701 70.22ZM239.877 68.68C240.581 68.68 241.19 68.504 241.703 68.152C242.231 67.8 242.635 67.3013 242.913 66.656C243.207 65.996 243.353 65.226 243.353 64.346C243.353 63.51 243.207 62.7913 242.913 62.19C242.635 61.5887 242.239 61.1267 241.725 60.804C241.227 60.4813 240.64 60.32 239.965 60.32C238.851 60.32 237.985 60.7013 237.369 61.464C236.753 62.2267 236.445 63.2387 236.445 64.5C236.445 65.7613 236.746 66.7733 237.347 67.536C237.949 68.2987 238.792 68.68 239.877 68.68ZM114.714 101.22C114.098 101.22 113.526 101.11 112.998 100.89C112.47 100.67 112.015 100.362 111.634 99.966C111.253 99.57 110.967 99.1227 110.776 98.624L111.018 98.316L110.864 101H109.324V84.94H111.084V92.486L110.864 92.156C111.157 91.4667 111.649 90.902 112.338 90.462C113.042 90.0073 113.841 89.78 114.736 89.78C115.645 89.78 116.481 90.0073 117.244 90.462C118.007 90.9167 118.615 91.5693 119.07 92.42C119.525 93.2707 119.752 94.2973 119.752 95.5C119.752 96.688 119.517 97.7147 119.048 98.58C118.593 99.4307 117.985 100.083 117.222 100.538C116.459 100.993 115.623 101.22 114.714 101.22ZM114.538 99.68C115.623 99.68 116.467 99.2987 117.068 98.536C117.684 97.7733 117.992 96.7613 117.992 95.5C117.992 94.2387 117.691 93.2267 117.09 92.464C116.489 91.7013 115.645 91.32 114.56 91.32C113.871 91.32 113.262 91.496 112.734 91.848C112.221 92.2 111.817 92.6913 111.524 93.322C111.231 93.9527 111.084 94.6933 111.084 95.544C111.084 96.38 111.223 97.1133 111.502 97.744C111.795 98.36 112.199 98.8367 112.712 99.174C113.24 99.5113 113.849 99.68 114.538 99.68ZM128.155 101.22C127.114 101.22 126.182 100.993 125.361 100.538C124.554 100.083 123.924 99.4307 123.469 98.58C123.014 97.7147 122.787 96.688 122.787 95.5C122.787 94.312 123.014 93.2927 123.469 92.442C123.924 91.5767 124.547 90.9167 125.339 90.462C126.131 90.0073 127.033 89.78 128.045 89.78C129.072 89.78 129.944 90 130.663 90.44C131.396 90.88 131.954 91.4813 132.335 92.244C132.716 92.992 132.907 93.8353 132.907 94.774C132.907 95.0233 132.9 95.2507 132.885 95.456C132.87 95.6613 132.848 95.8447 132.819 96.006H123.931V94.444H132.049L131.147 94.62C131.147 93.564 130.854 92.75 130.267 92.178C129.695 91.606 128.94 91.32 128.001 91.32C127.282 91.32 126.659 91.4887 126.131 91.826C125.618 92.1487 125.214 92.6253 124.921 93.256C124.642 93.872 124.503 94.62 124.503 95.5C124.503 96.3653 124.65 97.1133 124.943 97.744C125.236 98.3747 125.647 98.8587 126.175 99.196C126.718 99.5187 127.363 99.68 128.111 99.68C128.918 99.68 129.57 99.526 130.069 99.218C130.582 98.91 130.993 98.492 131.301 97.964L132.687 98.778C132.408 99.2767 132.049 99.7093 131.609 100.076C131.184 100.443 130.678 100.729 130.091 100.934C129.519 101.125 128.874 101.22 128.155 101.22ZM151.056 93.894C151.056 93.0727 150.836 92.442 150.396 92.002C149.956 91.5473 149.333 91.32 148.526 91.32C147.764 91.32 147.118 91.4887 146.59 91.826C146.062 92.1487 145.674 92.6767 145.424 93.41L143.994 92.53C144.288 91.7087 144.83 91.0487 145.622 90.55C146.414 90.0367 147.397 89.78 148.57 89.78C149.362 89.78 150.081 89.9193 150.726 90.198C151.372 90.462 151.878 90.8727 152.244 91.43C152.626 91.9727 152.816 92.6767 152.816 93.542V98.866C152.816 99.394 153.095 99.658 153.652 99.658C153.931 99.658 154.202 99.6213 154.466 99.548L154.378 100.934C154.085 101.081 153.704 101.154 153.234 101.154C152.809 101.154 152.428 101.073 152.09 100.912C151.753 100.751 151.489 100.509 151.298 100.186C151.108 99.8487 151.012 99.4307 151.012 98.932V98.712L151.452 98.778C151.276 99.35 150.976 99.8193 150.55 100.186C150.125 100.538 149.648 100.802 149.12 100.978C148.592 101.139 148.072 101.22 147.558 101.22C146.913 101.22 146.312 101.11 145.754 100.89C145.197 100.67 144.75 100.34 144.412 99.9C144.09 99.4453 143.928 98.888 143.928 98.228C143.928 97.4067 144.2 96.732 144.742 96.204C145.3 95.6613 146.07 95.2947 147.052 95.104L151.408 94.246V95.698L147.866 96.424C147.148 96.5707 146.612 96.776 146.26 97.04C145.908 97.304 145.732 97.6707 145.732 98.14C145.732 98.5947 145.908 98.9687 146.26 99.262C146.627 99.5407 147.14 99.68 147.8 99.68C148.226 99.68 148.629 99.6287 149.01 99.526C149.406 99.4087 149.758 99.24 150.066 99.02C150.374 98.7853 150.616 98.4993 150.792 98.162C150.968 97.81 151.056 97.3993 151.056 96.93V93.894ZM161.493 101.22C160.423 101.22 159.433 100.993 158.523 100.538C157.629 100.083 156.939 99.438 156.455 98.602L157.951 97.524C158.274 98.1987 158.743 98.7267 159.359 99.108C159.99 99.4893 160.745 99.68 161.625 99.68C162.403 99.68 163.011 99.5333 163.451 99.24C163.891 98.932 164.111 98.536 164.111 98.052C164.111 97.744 164.009 97.4653 163.803 97.216C163.613 96.952 163.239 96.7613 162.681 96.644L160.041 96.094C158.971 95.874 158.201 95.5073 157.731 94.994C157.277 94.4807 157.049 93.8427 157.049 93.08C157.049 92.4787 157.218 91.9287 157.555 91.43C157.907 90.9313 158.399 90.5353 159.029 90.242C159.675 89.934 160.43 89.78 161.295 89.78C162.381 89.78 163.297 89.9927 164.045 90.418C164.793 90.8433 165.351 91.4447 165.717 92.222L164.243 93.19C163.994 92.5447 163.591 92.0753 163.033 91.782C162.476 91.474 161.897 91.32 161.295 91.32C160.767 91.32 160.313 91.3933 159.931 91.54C159.565 91.6867 159.279 91.892 159.073 92.156C158.883 92.4053 158.787 92.6913 158.787 93.014C158.787 93.3367 158.897 93.6373 159.117 93.916C159.337 94.18 159.748 94.3707 160.349 94.488L163.099 95.06C164.126 95.2653 164.845 95.6027 165.255 96.072C165.666 96.5413 165.871 97.1133 165.871 97.788C165.871 98.4773 165.688 99.086 165.321 99.614C164.955 100.127 164.441 100.523 163.781 100.802C163.121 101.081 162.359 101.22 161.493 101.22ZM173.535 101.22C172.464 101.22 171.474 100.993 170.565 100.538C169.67 100.083 168.981 99.438 168.497 98.602L169.993 97.524C170.316 98.1987 170.785 98.7267 171.401 99.108C172.032 99.4893 172.787 99.68 173.667 99.68C174.444 99.68 175.053 99.5333 175.493 99.24C175.933 98.932 176.153 98.536 176.153 98.052C176.153 97.744 176.05 97.4653 175.845 97.216C175.654 96.952 175.28 96.7613 174.723 96.644L172.083 96.094C171.012 95.874 170.242 95.5073 169.773 94.994C169.318 94.4807 169.091 93.8427 169.091 93.08C169.091 92.4787 169.26 91.9287 169.597 91.43C169.949 90.9313 170.44 90.5353 171.071 90.242C171.716 89.934 172.472 89.78 173.337 89.78C174.422 89.78 175.339 89.9927 176.087 90.418C176.835 90.8433 177.392 91.4447 177.759 92.222L176.285 93.19C176.036 92.5447 175.632 92.0753 175.075 91.782C174.518 91.474 173.938 91.32 173.337 91.32C172.809 91.32 172.354 91.3933 171.973 91.54C171.606 91.6867 171.32 91.892 171.115 92.156C170.924 92.4053 170.829 92.6913 170.829 93.014C170.829 93.3367 170.939 93.6373 171.159 93.916C171.379 94.18 171.79 94.3707 172.391 94.488L175.141 95.06C176.168 95.2653 176.886 95.6027 177.297 96.072C177.708 96.5413 177.913 97.1133 177.913 97.788C177.913 98.4773 177.73 99.086 177.363 99.614C176.996 100.127 176.483 100.523 175.823 100.802C175.163 101.081 174.4 101.22 173.535 101.22ZM185.598 101.22C184.894 101.22 184.227 101.088 183.596 100.824C182.98 100.56 182.474 100.135 182.078 99.548C181.697 98.9467 181.506 98.1693 181.506 97.216V90H183.266V96.754C183.266 97.8687 183.508 98.6387 183.992 99.064C184.476 99.4747 185.158 99.68 186.038 99.68C186.449 99.68 186.852 99.614 187.248 99.482C187.644 99.3353 187.996 99.1153 188.304 98.822C188.627 98.514 188.876 98.1253 189.052 97.656C189.243 97.1867 189.338 96.6293 189.338 95.984V90H191.098V101H189.558L189.448 99.328C189.067 99.988 188.546 100.472 187.886 100.78C187.241 101.073 186.478 101.22 185.598 101.22ZM195.635 101V90H197.175L197.285 91.716C197.681 91.0413 198.194 90.55 198.825 90.242C199.47 89.934 200.13 89.78 200.805 89.78C201.582 89.78 202.315 89.956 203.005 90.308C203.694 90.66 204.222 91.2027 204.589 91.936C204.823 91.4373 205.153 91.034 205.579 90.726C206.004 90.4033 206.466 90.1687 206.965 90.022C207.478 89.8607 207.962 89.78 208.417 89.78C209.121 89.78 209.788 89.9267 210.419 90.22C211.064 90.5133 211.592 90.968 212.003 91.584C212.413 92.2 212.619 92.992 212.619 93.96V101H210.859V94.136C210.859 93.1387 210.609 92.42 210.111 91.98C209.612 91.54 208.996 91.32 208.263 91.32C207.691 91.32 207.155 91.4593 206.657 91.738C206.158 92.0167 205.755 92.4273 205.447 92.97C205.153 93.5127 205.007 94.18 205.007 94.972V101H203.247V94.136C203.247 93.1387 202.997 92.42 202.499 91.98C202 91.54 201.384 91.32 200.651 91.32C200.167 91.32 199.668 91.452 199.155 91.716C198.656 91.9653 198.238 92.3687 197.901 92.926C197.563 93.4833 197.395 94.2167 197.395 95.126V101H195.635ZM221.641 101.22C220.6 101.22 219.669 100.993 218.847 100.538C218.041 100.083 217.41 99.4307 216.955 98.58C216.501 97.7147 216.273 96.688 216.273 95.5C216.273 94.312 216.501 93.2927 216.955 92.442C217.41 91.5767 218.033 90.9167 218.825 90.462C219.617 90.0073 220.519 89.78 221.531 89.78C222.558 89.78 223.431 90 224.149 90.44C224.883 90.88 225.44 91.4813 225.821 92.244C226.203 92.992 226.393 93.8353 226.393 94.774C226.393 95.0233 226.386 95.2507 226.371 95.456C226.357 95.6613 226.335 95.8447 226.305 96.006H217.417V94.444H225.535L224.633 94.62C224.633 93.564 224.34 92.75 223.753 92.178C223.181 91.606 222.426 91.32 221.487 91.32C220.769 91.32 220.145 91.4887 219.617 91.826C219.104 92.1487 218.701 92.6253 218.407 93.256C218.129 93.872 217.989 94.62 217.989 95.5C217.989 96.3653 218.136 97.1133 218.429 97.744C218.723 98.3747 219.133 98.8587 219.661 99.196C220.204 99.5187 220.849 99.68 221.597 99.68C222.404 99.68 223.057 99.526 223.555 99.218C224.069 98.91 224.479 98.492 224.787 97.964L226.173 98.778C225.895 99.2767 225.535 99.7093 225.095 100.076C224.67 100.443 224.164 100.729 223.577 100.934C223.005 101.125 222.36 101.22 221.641 101.22ZM234.471 101.22C233.561 101.22 232.725 100.993 231.963 100.538C231.2 100.083 230.591 99.4307 230.137 98.58C229.682 97.7147 229.455 96.688 229.455 95.5C229.455 94.2827 229.697 93.2487 230.181 92.398C230.665 91.5473 231.303 90.902 232.095 90.462C232.887 90.0073 233.737 89.78 234.647 89.78C235.556 89.78 236.341 90.0147 237.001 90.484C237.675 90.9533 238.123 91.5767 238.343 92.354L238.123 92.508V84.94H239.883V101H238.343L238.189 98.338L238.431 98.206C238.328 98.8513 238.079 99.4013 237.683 99.856C237.301 100.296 236.825 100.633 236.253 100.868C235.695 101.103 235.101 101.22 234.471 101.22ZM234.647 99.68C235.351 99.68 235.959 99.504 236.473 99.152C237.001 98.8 237.404 98.3013 237.683 97.656C237.976 96.996 238.123 96.226 238.123 95.346C238.123 94.51 237.976 93.7913 237.683 93.19C237.404 92.5887 237.008 92.1267 236.495 91.804C235.996 91.4813 235.409 91.32 234.735 91.32C233.62 91.32 232.755 91.7013 232.139 92.464C231.523 93.2267 231.215 94.2387 231.215 95.5C231.215 96.7613 231.515 97.7733 232.117 98.536C232.718 99.2987 233.561 99.68 234.647 99.68ZM254.518 86.876V97.964C254.518 98.5067 254.672 98.91 254.98 99.174C255.288 99.438 255.684 99.57 256.168 99.57C256.593 99.57 256.96 99.4967 257.268 99.35C257.576 99.2033 257.855 99.0053 258.104 98.756L258.72 100.23C258.383 100.538 257.979 100.78 257.51 100.956C257.055 101.132 256.527 101.22 255.926 101.22C255.369 101.22 254.848 101.125 254.364 100.934C253.88 100.729 253.491 100.413 253.198 99.988C252.919 99.548 252.773 98.976 252.758 98.272V87.36L254.518 86.876ZM258.522 90V91.518H250.558V90H258.522ZM261.579 101V84.94H263.339V91.65C263.72 90.99 264.226 90.5133 264.857 90.22C265.487 89.9267 266.177 89.78 266.925 89.78C267.717 89.78 268.435 89.934 269.081 90.242C269.726 90.5353 270.239 90.99 270.621 91.606C271.017 92.222 271.215 93.0067 271.215 93.96V101H269.455V94.576C269.455 93.3587 269.191 92.5153 268.663 92.046C268.149 91.562 267.511 91.32 266.749 91.32C266.221 91.32 265.693 91.4447 265.165 91.694C264.637 91.9433 264.197 92.354 263.845 92.926C263.507 93.4833 263.339 94.2313 263.339 95.17V101H261.579ZM282.064 93.894C282.064 93.0727 281.844 92.442 281.404 92.002C280.964 91.5473 280.34 91.32 279.534 91.32C278.771 91.32 278.126 91.4887 277.598 91.826C277.07 92.1487 276.681 92.6767 276.432 93.41L275.002 92.53C275.295 91.7087 275.838 91.0487 276.63 90.55C277.422 90.0367 278.404 89.78 279.578 89.78C280.37 89.78 281.088 89.9193 281.734 90.198C282.379 90.462 282.885 90.8727 283.252 91.43C283.633 91.9727 283.824 92.6767 283.824 93.542V98.866C283.824 99.394 284.102 99.658 284.66 99.658C284.938 99.658 285.21 99.6213 285.474 99.548L285.386 100.934C285.092 101.081 284.711 101.154 284.242 101.154C283.816 101.154 283.435 101.073 283.098 100.912C282.76 100.751 282.496 100.509 282.306 100.186C282.115 99.8487 282.02 99.4307 282.02 98.932V98.712L282.46 98.778C282.284 99.35 281.983 99.8193 281.558 100.186C281.132 100.538 280.656 100.802 280.128 100.978C279.6 101.139 279.079 101.22 278.566 101.22C277.92 101.22 277.319 101.11 276.762 100.89C276.204 100.67 275.757 100.34 275.42 99.9C275.097 99.4453 274.936 98.888 274.936 98.228C274.936 97.4067 275.207 96.732 275.75 96.204C276.307 95.6613 277.077 95.2947 278.06 95.104L282.416 94.246V95.698L278.874 96.424C278.155 96.5707 277.62 96.776 277.268 97.04C276.916 97.304 276.74 97.6707 276.74 98.14C276.74 98.5947 276.916 98.9687 277.268 99.262C277.634 99.5407 278.148 99.68 278.808 99.68C279.233 99.68 279.636 99.6287 280.018 99.526C280.414 99.4087 280.766 99.24 281.074 99.02C281.382 98.7853 281.624 98.4993 281.8 98.162C281.976 97.81 282.064 97.3993 282.064 96.93V93.894ZM290.707 86.876V97.964C290.707 98.5067 290.861 98.91 291.169 99.174C291.477 99.438 291.873 99.57 292.357 99.57C292.782 99.57 293.149 99.4967 293.457 99.35C293.765 99.2033 294.044 99.0053 294.293 98.756L294.909 100.23C294.572 100.538 294.168 100.78 293.699 100.956C293.244 101.132 292.716 101.22 292.115 101.22C291.558 101.22 291.037 101.125 290.553 100.934C290.069 100.729 289.68 100.413 289.387 99.988C289.108 99.548 288.962 98.976 288.947 98.272V87.36L290.707 86.876ZM294.711 90V91.518H286.747V90H294.711ZM96.6404 117.876V128.964C96.6404 129.507 96.7944 129.91 97.1024 130.174C97.4104 130.438 97.8064 130.57 98.2904 130.57C98.7158 130.57 99.0824 130.497 99.3904 130.35C99.6984 130.203 99.9771 130.005 100.226 129.756L100.842 131.23C100.505 131.538 100.102 131.78 99.6324 131.956C99.1778 132.132 98.6498 132.22 98.0484 132.22C97.4911 132.22 96.9704 132.125 96.4864 131.934C96.0024 131.729 95.6138 131.413 95.3204 130.988C95.0418 130.548 94.8951 129.976 94.8804 129.272V118.36L96.6404 117.876ZM100.644 121V122.518H92.6804V121H100.644ZM103.701 132V115.94H105.461V122.65C105.843 121.99 106.349 121.513 106.979 121.22C107.61 120.927 108.299 120.78 109.047 120.78C109.839 120.78 110.558 120.934 111.203 121.242C111.849 121.535 112.362 121.99 112.743 122.606C113.139 123.222 113.337 124.007 113.337 124.96V132H111.577V125.576C111.577 124.359 111.313 123.515 110.785 123.046C110.272 122.562 109.634 122.32 108.871 122.32C108.343 122.32 107.815 122.445 107.287 122.694C106.759 122.943 106.319 123.354 105.967 123.926C105.63 124.483 105.461 125.231 105.461 126.17V132H103.701ZM122.36 132.22C121.319 132.22 120.388 131.993 119.566 131.538C118.76 131.083 118.129 130.431 117.674 129.58C117.22 128.715 116.992 127.688 116.992 126.5C116.992 125.312 117.22 124.293 117.674 123.442C118.129 122.577 118.752 121.917 119.544 121.462C120.336 121.007 121.238 120.78 122.25 120.78C123.277 120.78 124.15 121 124.868 121.44C125.602 121.88 126.159 122.481 126.54 123.244C126.922 123.992 127.112 124.835 127.112 125.774C127.112 126.023 127.105 126.251 127.09 126.456C127.076 126.661 127.054 126.845 127.024 127.006H118.136V125.444H126.254L125.352 125.62C125.352 124.564 125.059 123.75 124.472 123.178C123.9 122.606 123.145 122.32 122.206 122.32C121.488 122.32 120.864 122.489 120.336 122.826C119.823 123.149 119.42 123.625 119.126 124.256C118.848 124.872 118.708 125.62 118.708 126.5C118.708 127.365 118.855 128.113 119.148 128.744C119.442 129.375 119.852 129.859 120.38 130.196C120.923 130.519 121.568 130.68 122.316 130.68C123.123 130.68 123.776 130.526 124.274 130.218C124.788 129.91 125.198 129.492 125.506 128.964L126.892 129.778C126.614 130.277 126.254 130.709 125.814 131.076C125.389 131.443 124.883 131.729 124.296 131.934C123.724 132.125 123.079 132.22 122.36 132.22ZM143.128 132.22C142.218 132.22 141.382 131.993 140.62 131.538C139.857 131.083 139.248 130.431 138.794 129.58C138.339 128.715 138.112 127.688 138.112 126.5C138.112 125.283 138.354 124.249 138.838 123.398C139.322 122.547 139.96 121.902 140.752 121.462C141.544 121.007 142.394 120.78 143.304 120.78C144.213 120.78 144.998 121.015 145.658 121.484C146.332 121.953 146.78 122.577 147 123.354L146.78 123.508V115.94H148.54V132H147L146.846 129.338L147.088 129.206C146.985 129.851 146.736 130.401 146.34 130.856C145.958 131.296 145.482 131.633 144.91 131.868C144.352 132.103 143.758 132.22 143.128 132.22ZM143.304 130.68C144.008 130.68 144.616 130.504 145.13 130.152C145.658 129.8 146.061 129.301 146.34 128.656C146.633 127.996 146.78 127.226 146.78 126.346C146.78 125.51 146.633 124.791 146.34 124.19C146.061 123.589 145.665 123.127 145.152 122.804C144.653 122.481 144.066 122.32 143.392 122.32C142.277 122.32 141.412 122.701 140.796 123.464C140.18 124.227 139.872 125.239 139.872 126.5C139.872 127.761 140.172 128.773 140.774 129.536C141.375 130.299 142.218 130.68 143.304 130.68ZM157.669 132.22C156.627 132.22 155.696 131.993 154.875 131.538C154.068 131.083 153.437 130.431 152.983 129.58C152.528 128.715 152.301 127.688 152.301 126.5C152.301 125.312 152.528 124.293 152.983 123.442C153.437 122.577 154.061 121.917 154.853 121.462C155.645 121.007 156.547 120.78 157.559 120.78C158.585 120.78 159.458 121 160.177 121.44C160.91 121.88 161.467 122.481 161.849 123.244C162.23 123.992 162.421 124.835 162.421 125.774C162.421 126.023 162.413 126.251 162.399 126.456C162.384 126.661 162.362 126.845 162.333 127.006H153.445V125.444H161.563L160.661 125.62C160.661 124.564 160.367 123.75 159.781 123.178C159.209 122.606 158.453 122.32 157.515 122.32C156.796 122.32 156.173 122.489 155.645 122.826C155.131 123.149 154.728 123.625 154.435 124.256C154.156 124.872 154.017 125.62 154.017 126.5C154.017 127.365 154.163 128.113 154.457 128.744C154.75 129.375 155.161 129.859 155.689 130.196C156.231 130.519 156.877 130.68 157.625 130.68C158.431 130.68 159.084 130.526 159.583 130.218C160.096 129.91 160.507 129.492 160.815 128.964L162.201 129.778C161.922 130.277 161.563 130.709 161.123 131.076C160.697 131.443 160.191 131.729 159.605 131.934C159.033 132.125 158.387 132.22 157.669 132.22ZM170.566 115.83C170.948 115.83 171.307 115.874 171.644 115.962C171.982 116.05 172.246 116.175 172.436 116.336L171.974 117.766C171.798 117.649 171.608 117.568 171.402 117.524C171.197 117.465 170.97 117.436 170.72 117.436C170.09 117.436 169.598 117.59 169.246 117.898C168.894 118.191 168.718 118.668 168.718 119.328V121V121.572V132H166.958V119.152C166.958 118.668 167.032 118.221 167.178 117.81C167.325 117.399 167.545 117.047 167.838 116.754C168.146 116.461 168.528 116.233 168.982 116.072C169.437 115.911 169.965 115.83 170.566 115.83ZM172.392 121V122.518H164.758V121H172.392ZM180.935 124.894C180.935 124.073 180.715 123.442 180.275 123.002C179.835 122.547 179.212 122.32 178.405 122.32C177.642 122.32 176.997 122.489 176.469 122.826C175.941 123.149 175.552 123.677 175.303 124.41L173.873 123.53C174.166 122.709 174.709 122.049 175.501 121.55C176.293 121.037 177.276 120.78 178.449 120.78C179.241 120.78 179.96 120.919 180.605 121.198C181.25 121.462 181.756 121.873 182.123 122.43C182.504 122.973 182.695 123.677 182.695 124.542V129.866C182.695 130.394 182.974 130.658 183.531 130.658C183.81 130.658 184.081 130.621 184.345 130.548L184.257 131.934C183.964 132.081 183.582 132.154 183.113 132.154C182.688 132.154 182.306 132.073 181.969 131.912C181.632 131.751 181.368 131.509 181.177 131.186C180.986 130.849 180.891 130.431 180.891 129.932V129.712L181.331 129.778C181.155 130.35 180.854 130.819 180.429 131.186C180.004 131.538 179.527 131.802 178.999 131.978C178.471 132.139 177.95 132.22 177.437 132.22C176.792 132.22 176.19 132.11 175.633 131.89C175.076 131.67 174.628 131.34 174.291 130.9C173.968 130.445 173.807 129.888 173.807 129.228C173.807 128.407 174.078 127.732 174.621 127.204C175.178 126.661 175.948 126.295 176.931 126.104L181.287 125.246V126.698L177.745 127.424C177.026 127.571 176.491 127.776 176.139 128.04C175.787 128.304 175.611 128.671 175.611 129.14C175.611 129.595 175.787 129.969 176.139 130.262C176.506 130.541 177.019 130.68 177.679 130.68C178.104 130.68 178.508 130.629 178.889 130.526C179.285 130.409 179.637 130.24 179.945 130.02C180.253 129.785 180.495 129.499 180.671 129.162C180.847 128.81 180.935 128.399 180.935 127.93V124.894ZM191.394 132.22C190.69 132.22 190.023 132.088 189.392 131.824C188.776 131.56 188.27 131.135 187.874 130.548C187.493 129.947 187.302 129.169 187.302 128.216V121H189.062V127.754C189.062 128.869 189.304 129.639 189.788 130.064C190.272 130.475 190.954 130.68 191.834 130.68C192.245 130.68 192.648 130.614 193.044 130.482C193.44 130.335 193.792 130.115 194.1 129.822C194.423 129.514 194.672 129.125 194.848 128.656C195.039 128.187 195.134 127.629 195.134 126.984V121H196.894V132H195.354L195.244 130.328C194.863 130.988 194.342 131.472 193.682 131.78C193.037 132.073 192.274 132.22 191.394 132.22ZM203.102 115.94V129.206C203.102 129.763 203.205 130.152 203.41 130.372C203.616 130.577 203.946 130.68 204.4 130.68C204.694 130.68 204.936 130.658 205.126 130.614C205.317 130.57 205.574 130.489 205.896 130.372L205.61 131.912C205.376 132.015 205.119 132.088 204.84 132.132C204.562 132.191 204.276 132.22 203.982 132.22C203.088 132.22 202.42 131.978 201.98 131.494C201.555 131.01 201.342 130.269 201.342 129.272V115.94H203.102ZM210.761 117.876V128.964C210.761 129.507 210.915 129.91 211.223 130.174C211.531 130.438 211.927 130.57 212.411 130.57C212.836 130.57 213.203 130.497 213.511 130.35C213.819 130.203 214.098 130.005 214.347 129.756L214.963 131.23C214.626 131.538 214.222 131.78 213.753 131.956C213.298 132.132 212.77 132.22 212.169 132.22C211.612 132.22 211.091 132.125 210.607 131.934C210.123 131.729 209.734 131.413 209.441 130.988C209.162 130.548 209.016 129.976 209.001 129.272V118.36L210.761 117.876ZM214.765 121V122.518H206.801V121H214.765ZM229.72 132.22C228.649 132.22 227.659 131.993 226.75 131.538C225.855 131.083 225.166 130.438 224.682 129.602L226.178 128.524C226.501 129.199 226.97 129.727 227.586 130.108C228.217 130.489 228.972 130.68 229.852 130.68C230.629 130.68 231.238 130.533 231.678 130.24C232.118 129.932 232.338 129.536 232.338 129.052C232.338 128.744 232.235 128.465 232.03 128.216C231.839 127.952 231.465 127.761 230.908 127.644L228.268 127.094C227.197 126.874 226.427 126.507 225.958 125.994C225.503 125.481 225.276 124.843 225.276 124.08C225.276 123.479 225.445 122.929 225.782 122.43C226.134 121.931 226.625 121.535 227.256 121.242C227.901 120.934 228.657 120.78 229.522 120.78C230.607 120.78 231.524 120.993 232.272 121.418C233.02 121.843 233.577 122.445 233.944 123.222L232.47 124.19C232.221 123.545 231.817 123.075 231.26 122.782C230.703 122.474 230.123 122.32 229.522 122.32C228.994 122.32 228.539 122.393 228.158 122.54C227.791 122.687 227.505 122.892 227.3 123.156C227.109 123.405 227.014 123.691 227.014 124.014C227.014 124.337 227.124 124.637 227.344 124.916C227.564 125.18 227.975 125.371 228.576 125.488L231.326 126.06C232.353 126.265 233.071 126.603 233.482 127.072C233.893 127.541 234.098 128.113 234.098 128.788C234.098 129.477 233.915 130.086 233.548 130.614C233.181 131.127 232.668 131.523 232.008 131.802C231.348 132.081 230.585 132.22 229.72 132.22ZM242.4 132.22C241.358 132.22 240.427 131.993 239.606 131.538C238.799 131.083 238.168 130.431 237.714 129.58C237.259 128.715 237.032 127.688 237.032 126.5C237.032 125.312 237.259 124.293 237.714 123.442C238.168 122.577 238.792 121.917 239.584 121.462C240.376 121.007 241.278 120.78 242.29 120.78C243.316 120.78 244.189 121 244.908 121.44C245.641 121.88 246.198 122.481 246.58 123.244C246.961 123.992 247.152 124.835 247.152 125.774C247.152 126.023 247.144 126.251 247.13 126.456C247.115 126.661 247.093 126.845 247.064 127.006H238.176V125.444H246.294L245.392 125.62C245.392 124.564 245.098 123.75 244.512 123.178C243.94 122.606 243.184 122.32 242.246 122.32C241.527 122.32 240.904 122.489 240.376 122.826C239.862 123.149 239.459 123.625 239.166 124.256C238.887 124.872 238.748 125.62 238.748 126.5C238.748 127.365 238.894 128.113 239.188 128.744C239.481 129.375 239.892 129.859 240.42 130.196C240.962 130.519 241.608 130.68 242.356 130.68C243.162 130.68 243.815 130.526 244.314 130.218C244.827 129.91 245.238 129.492 245.546 128.964L246.932 129.778C246.653 130.277 246.294 130.709 245.854 131.076C245.428 131.443 244.922 131.729 244.336 131.934C243.764 132.125 243.118 132.22 242.4 132.22ZM253.213 117.876V128.964C253.213 129.507 253.367 129.91 253.675 130.174C253.983 130.438 254.379 130.57 254.863 130.57C255.288 130.57 255.655 130.497 255.963 130.35C256.271 130.203 256.549 130.005 256.799 129.756L257.415 131.23C257.077 131.538 256.674 131.78 256.205 131.956C255.75 132.132 255.222 132.22 254.621 132.22C254.063 132.22 253.543 132.125 253.059 131.934C252.575 131.729 252.186 131.413 251.893 130.988C251.614 130.548 251.467 129.976 251.453 129.272V118.36L253.213 117.876ZM257.217 121V122.518H249.253V121H257.217ZM261.451 117.876V128.964C261.451 129.507 261.605 129.91 261.913 130.174C262.221 130.438 262.617 130.57 263.101 130.57C263.527 130.57 263.893 130.497 264.201 130.35C264.509 130.203 264.788 130.005 265.037 129.756L265.653 131.23C265.316 131.538 264.913 131.78 264.443 131.956C263.989 132.132 263.461 132.22 262.859 132.22C262.302 132.22 261.781 132.125 261.297 131.934C260.813 131.729 260.425 131.413 260.131 130.988C259.853 130.548 259.706 129.976 259.691 129.272V118.36L261.451 117.876ZM265.455 121V122.518H257.491V121H265.455ZM269.392 118.888C268.996 118.888 268.673 118.771 268.424 118.536C268.189 118.287 268.072 117.964 268.072 117.568C268.072 117.172 268.189 116.857 268.424 116.622C268.673 116.373 268.996 116.248 269.392 116.248C269.788 116.248 270.103 116.373 270.338 116.622C270.587 116.857 270.712 117.172 270.712 117.568C270.712 117.964 270.587 118.287 270.338 118.536C270.103 118.771 269.788 118.888 269.392 118.888ZM270.272 121V132H268.512V121H270.272ZM274.796 132V121H276.336L276.49 123.464L276.204 123.222C276.439 122.635 276.754 122.166 277.15 121.814C277.546 121.447 278.001 121.183 278.514 121.022C279.042 120.861 279.585 120.78 280.142 120.78C280.934 120.78 281.653 120.934 282.298 121.242C282.943 121.535 283.457 121.99 283.838 122.606C284.234 123.222 284.432 124.007 284.432 124.96V132H282.672V125.576C282.672 124.359 282.408 123.515 281.88 123.046C281.367 122.562 280.729 122.32 279.966 122.32C279.438 122.32 278.91 122.445 278.382 122.694C277.854 122.943 277.414 123.347 277.062 123.904C276.725 124.461 276.556 125.209 276.556 126.148V132H274.796ZM298.119 118.976L298.515 120.538C298.5 120.538 298.478 120.538 298.449 120.538C298.42 120.538 298.39 120.538 298.361 120.538C297.642 120.538 297.085 120.685 296.689 120.978C296.308 121.257 296.117 121.711 296.117 122.342L295.039 121.792C295.039 121.22 295.171 120.721 295.435 120.296C295.699 119.871 296.058 119.548 296.513 119.328C296.968 119.093 297.466 118.976 298.009 118.976C298.024 118.976 298.038 118.976 298.053 118.976C298.082 118.976 298.104 118.976 298.119 118.976ZM294.775 130.592C295.816 130.592 296.63 130.834 297.217 131.318C297.804 131.787 298.097 132.418 298.097 133.21C298.097 133.929 297.855 134.552 297.371 135.08C296.902 135.608 296.264 136.011 295.457 136.29C294.665 136.583 293.77 136.73 292.773 136.73C291.042 136.73 289.744 136.437 288.879 135.85C288.028 135.263 287.603 134.559 287.603 133.738C287.603 133.151 287.794 132.623 288.175 132.154C288.571 131.699 289.231 131.443 290.155 131.384L290.001 131.714C289.502 131.582 289.077 131.362 288.725 131.054C288.388 130.731 288.219 130.269 288.219 129.668C288.219 129.067 288.439 128.553 288.879 128.128C289.334 127.688 290.001 127.417 290.881 127.314L292.047 127.908H291.827C291.108 127.981 290.595 128.165 290.287 128.458C289.994 128.737 289.847 129.045 289.847 129.382C289.847 129.793 289.994 130.101 290.287 130.306C290.595 130.497 291.02 130.592 291.563 130.592H294.775ZM292.751 135.256C293.602 135.256 294.298 135.168 294.841 134.992C295.398 134.816 295.809 134.589 296.073 134.31C296.337 134.031 296.469 133.731 296.469 133.408C296.469 133.012 296.308 132.697 295.985 132.462C295.677 132.227 295.112 132.11 294.291 132.11H290.903C290.434 132.11 290.038 132.227 289.715 132.462C289.392 132.711 289.231 133.049 289.231 133.474C289.231 134.017 289.539 134.449 290.155 134.772C290.786 135.095 291.651 135.256 292.751 135.256ZM292.597 120.78C293.477 120.78 294.254 120.941 294.929 121.264C295.618 121.572 296.154 122.005 296.535 122.562C296.916 123.119 297.107 123.765 297.107 124.498C297.107 125.217 296.916 125.862 296.535 126.434C296.154 126.991 295.618 127.431 294.929 127.754C294.254 128.062 293.477 128.216 292.597 128.216C291.145 128.216 290.03 127.871 289.253 127.182C288.476 126.478 288.087 125.583 288.087 124.498C288.087 123.765 288.278 123.119 288.659 122.562C289.055 122.005 289.59 121.572 290.265 121.264C290.94 120.941 291.717 120.78 292.597 120.78ZM292.597 122.21C291.834 122.21 291.196 122.423 290.683 122.848C290.17 123.259 289.913 123.809 289.913 124.498C289.913 125.173 290.17 125.723 290.683 126.148C291.196 126.573 291.834 126.786 292.597 126.786C293.36 126.786 293.998 126.573 294.511 126.148C295.024 125.723 295.281 125.173 295.281 124.498C295.281 123.809 295.024 123.259 294.511 122.848C293.998 122.423 293.36 122.21 292.597 122.21ZM304.966 132.22C303.895 132.22 302.905 131.993 301.996 131.538C301.101 131.083 300.412 130.438 299.928 129.602L301.424 128.524C301.747 129.199 302.216 129.727 302.832 130.108C303.463 130.489 304.218 130.68 305.098 130.68C305.875 130.68 306.484 130.533 306.924 130.24C307.364 129.932 307.584 129.536 307.584 129.052C307.584 128.744 307.481 128.465 307.276 128.216C307.085 127.952 306.711 127.761 306.154 127.644L303.514 127.094C302.443 126.874 301.673 126.507 301.204 125.994C300.749 125.481 300.522 124.843 300.522 124.08C300.522 123.479 300.691 122.929 301.028 122.43C301.38 121.931 301.871 121.535 302.502 121.242C303.147 120.934 303.903 120.78 304.768 120.78C305.853 120.78 306.77 120.993 307.518 121.418C308.266 121.843 308.823 122.445 309.19 123.222L307.716 124.19C307.467 123.545 307.063 123.075 306.506 122.782C305.949 122.474 305.369 122.32 304.768 122.32C304.24 122.32 303.785 122.393 303.404 122.54C303.037 122.687 302.751 122.892 302.546 123.156C302.355 123.405 302.26 123.691 302.26 124.014C302.26 124.337 302.37 124.637 302.59 124.916C302.81 125.18 303.221 125.371 303.822 125.488L306.572 126.06C307.599 126.265 308.317 126.603 308.728 127.072C309.139 127.541 309.344 128.113 309.344 128.788C309.344 129.477 309.161 130.086 308.794 130.614C308.427 131.127 307.914 131.523 307.254 131.802C306.594 132.081 305.831 132.22 304.966 132.22ZM105.344 151.78C106.385 151.78 107.302 152.007 108.094 152.462C108.901 152.917 109.531 153.577 109.986 154.442C110.441 155.293 110.668 156.312 110.668 157.5C110.668 158.688 110.441 159.715 109.986 160.58C109.531 161.431 108.901 162.083 108.094 162.538C107.302 162.993 106.385 163.22 105.344 163.22C104.317 163.22 103.401 162.993 102.594 162.538C101.787 162.083 101.157 161.431 100.702 160.58C100.247 159.715 100.02 158.688 100.02 157.5C100.02 156.312 100.247 155.293 100.702 154.442C101.157 153.577 101.787 152.917 102.594 152.462C103.401 152.007 104.317 151.78 105.344 151.78ZM105.344 153.298C104.596 153.298 103.958 153.467 103.43 153.804C102.902 154.141 102.491 154.625 102.198 155.256C101.919 155.872 101.78 156.62 101.78 157.5C101.78 158.365 101.919 159.113 102.198 159.744C102.491 160.375 102.902 160.859 103.43 161.196C103.958 161.533 104.596 161.702 105.344 161.702C106.092 161.702 106.73 161.533 107.258 161.196C107.786 160.859 108.189 160.375 108.468 159.744C108.761 159.113 108.908 158.365 108.908 157.5C108.908 156.62 108.761 155.872 108.468 155.256C108.189 154.625 107.786 154.141 107.258 153.804C106.73 153.467 106.092 153.298 105.344 153.298ZM114.422 163V152H115.962L116.116 154.464L115.83 154.222C116.064 153.635 116.38 153.166 116.776 152.814C117.172 152.447 117.626 152.183 118.14 152.022C118.668 151.861 119.21 151.78 119.768 151.78C120.56 151.78 121.278 151.934 121.924 152.242C122.569 152.535 123.082 152.99 123.464 153.606C123.86 154.222 124.058 155.007 124.058 155.96V163H122.298V156.576C122.298 155.359 122.034 154.515 121.506 154.046C120.992 153.562 120.354 153.32 119.592 153.32C119.064 153.32 118.536 153.445 118.008 153.694C117.48 153.943 117.04 154.347 116.688 154.904C116.35 155.461 116.182 156.209 116.182 157.148V163H114.422ZM144.904 152L139.734 164.848C139.455 165.567 139.147 166.131 138.81 166.542C138.487 166.967 138.121 167.268 137.71 167.444C137.314 167.635 136.852 167.73 136.324 167.73C135.825 167.73 135.363 167.657 134.938 167.51C134.527 167.378 134.161 167.195 133.838 166.96L134.322 165.42C134.615 165.684 134.923 165.875 135.246 165.992C135.583 166.124 135.913 166.19 136.236 166.19C136.617 166.19 136.977 166.073 137.314 165.838C137.651 165.603 137.959 165.127 138.238 164.408L138.81 162.978L137.71 160.36L134.212 152H136.214L138.964 159.172L139.646 161.13L140.438 158.952L143.012 152H144.904ZM152.2 151.78C153.241 151.78 154.158 152.007 154.95 152.462C155.756 152.917 156.387 153.577 156.842 154.442C157.296 155.293 157.524 156.312 157.524 157.5C157.524 158.688 157.296 159.715 156.842 160.58C156.387 161.431 155.756 162.083 154.95 162.538C154.158 162.993 153.241 163.22 152.2 163.22C151.173 163.22 150.256 162.993 149.45 162.538C148.643 162.083 148.012 161.431 147.558 160.58C147.103 159.715 146.876 158.688 146.876 157.5C146.876 156.312 147.103 155.293 147.558 154.442C148.012 153.577 148.643 152.917 149.45 152.462C150.256 152.007 151.173 151.78 152.2 151.78ZM152.2 153.298C151.452 153.298 150.814 153.467 150.286 153.804C149.758 154.141 149.347 154.625 149.054 155.256C148.775 155.872 148.636 156.62 148.636 157.5C148.636 158.365 148.775 159.113 149.054 159.744C149.347 160.375 149.758 160.859 150.286 161.196C150.814 161.533 151.452 161.702 152.2 161.702C152.948 161.702 153.586 161.533 154.114 161.196C154.642 160.859 155.045 160.375 155.324 159.744C155.617 159.113 155.764 158.365 155.764 157.5C155.764 156.62 155.617 155.872 155.324 155.256C155.045 154.625 154.642 154.141 154.114 153.804C153.586 153.467 152.948 153.298 152.2 153.298ZM165.259 163.22C164.555 163.22 163.888 163.088 163.257 162.824C162.641 162.56 162.135 162.135 161.739 161.548C161.358 160.947 161.167 160.169 161.167 159.216V152H162.927V158.754C162.927 159.869 163.169 160.639 163.653 161.064C164.137 161.475 164.819 161.68 165.699 161.68C166.11 161.68 166.513 161.614 166.909 161.482C167.305 161.335 167.657 161.115 167.965 160.822C168.288 160.514 168.537 160.125 168.713 159.656C168.904 159.187 168.999 158.629 168.999 157.984V152H170.759V163H169.219L169.109 161.328C168.728 161.988 168.207 162.472 167.547 162.78C166.902 163.073 166.139 163.22 165.259 163.22ZM175.295 163V152H176.725L176.967 153.804C177.275 153.129 177.723 152.623 178.309 152.286C178.911 151.949 179.637 151.78 180.487 151.78C180.678 151.78 180.883 151.795 181.103 151.824C181.338 151.853 181.536 151.912 181.697 152L181.389 153.606C181.228 153.547 181.052 153.503 180.861 153.474C180.671 153.445 180.399 153.43 180.047 153.43C179.593 153.43 179.131 153.562 178.661 153.826C178.207 154.09 177.825 154.493 177.517 155.036C177.209 155.564 177.055 156.239 177.055 157.06V163H175.295ZM196.428 163.22C195.519 163.22 194.683 162.993 193.92 162.538C193.158 162.083 192.549 161.431 192.094 160.58C191.64 159.715 191.412 158.688 191.412 157.5C191.412 156.283 191.654 155.249 192.138 154.398C192.622 153.547 193.26 152.902 194.052 152.462C194.844 152.007 195.695 151.78 196.604 151.78C197.514 151.78 198.298 152.015 198.958 152.484C199.633 152.953 200.08 153.577 200.3 154.354L200.08 154.508V146.94H201.84V163H200.3L200.146 160.338L200.388 160.206C200.286 160.851 200.036 161.401 199.64 161.856C199.259 162.296 198.782 162.633 198.21 162.868C197.653 163.103 197.059 163.22 196.428 163.22ZM196.604 161.68C197.308 161.68 197.917 161.504 198.43 161.152C198.958 160.8 199.362 160.301 199.64 159.656C199.934 158.996 200.08 158.226 200.08 157.346C200.08 156.51 199.934 155.791 199.64 155.19C199.362 154.589 198.966 154.127 198.452 153.804C197.954 153.481 197.367 153.32 196.692 153.32C195.578 153.32 194.712 153.701 194.096 154.464C193.48 155.227 193.172 156.239 193.172 157.5C193.172 158.761 193.473 159.773 194.074 160.536C194.676 161.299 195.519 161.68 196.604 161.68ZM210.969 163.22C209.928 163.22 208.997 162.993 208.175 162.538C207.369 162.083 206.738 161.431 206.283 160.58C205.829 159.715 205.601 158.688 205.601 157.5C205.601 156.312 205.829 155.293 206.283 154.442C206.738 153.577 207.361 152.917 208.153 152.462C208.945 152.007 209.847 151.78 210.859 151.78C211.886 151.78 212.759 152 213.477 152.44C214.211 152.88 214.768 153.481 215.149 154.244C215.531 154.992 215.721 155.835 215.721 156.774C215.721 157.023 215.714 157.251 215.699 157.456C215.685 157.661 215.663 157.845 215.633 158.006H206.745V156.444H214.863L213.961 156.62C213.961 155.564 213.668 154.75 213.081 154.178C212.509 153.606 211.754 153.32 210.815 153.32C210.097 153.32 209.473 153.489 208.945 153.826C208.432 154.149 208.029 154.625 207.735 155.256C207.457 155.872 207.317 156.62 207.317 157.5C207.317 158.365 207.464 159.113 207.757 159.744C208.051 160.375 208.461 160.859 208.989 161.196C209.532 161.519 210.177 161.68 210.925 161.68C211.732 161.68 212.385 161.526 212.883 161.218C213.397 160.91 213.807 160.492 214.115 159.964L215.501 160.778C215.223 161.277 214.863 161.709 214.423 162.076C213.998 162.443 213.492 162.729 212.905 162.934C212.333 163.125 211.688 163.22 210.969 163.22ZM226.49 152H228.338L223.762 163H222.002L217.426 152H219.428L222.904 161.218L226.49 152ZM231.957 149.888C231.561 149.888 231.239 149.771 230.989 149.536C230.755 149.287 230.637 148.964 230.637 148.568C230.637 148.172 230.755 147.857 230.989 147.622C231.239 147.373 231.561 147.248 231.957 147.248C232.353 147.248 232.669 147.373 232.903 147.622C233.153 147.857 233.277 148.172 233.277 148.568C233.277 148.964 233.153 149.287 232.903 149.536C232.669 149.771 232.353 149.888 231.957 149.888ZM232.837 152V163H231.077V152H232.837ZM241.915 151.78C242.678 151.78 243.345 151.897 243.917 152.132C244.504 152.367 245.01 152.704 245.435 153.144C245.86 153.584 246.205 154.105 246.469 154.706L244.797 155.498C244.562 154.794 244.203 154.259 243.719 153.892C243.25 153.511 242.634 153.32 241.871 153.32C241.138 153.32 240.507 153.489 239.979 153.826C239.451 154.149 239.048 154.625 238.769 155.256C238.49 155.872 238.351 156.62 238.351 157.5C238.351 158.365 238.49 159.113 238.769 159.744C239.048 160.375 239.451 160.859 239.979 161.196C240.507 161.519 241.138 161.68 241.871 161.68C242.443 161.68 242.934 161.592 243.345 161.416C243.77 161.24 244.115 160.983 244.379 160.646C244.658 160.309 244.848 159.898 244.951 159.414L246.579 159.986C246.33 160.661 245.985 161.24 245.545 161.724C245.12 162.208 244.599 162.582 243.983 162.846C243.382 163.095 242.692 163.22 241.915 163.22C240.888 163.22 239.972 162.993 239.165 162.538C238.358 162.083 237.728 161.431 237.273 160.58C236.818 159.715 236.591 158.688 236.591 157.5C236.591 156.312 236.818 155.293 237.273 154.442C237.728 153.577 238.358 152.917 239.165 152.462C239.972 152.007 240.888 151.78 241.915 151.78ZM254.71 163.22C253.668 163.22 252.737 162.993 251.916 162.538C251.109 162.083 250.478 161.431 250.024 160.58C249.569 159.715 249.342 158.688 249.342 157.5C249.342 156.312 249.569 155.293 250.024 154.442C250.478 153.577 251.102 152.917 251.894 152.462C252.686 152.007 253.588 151.78 254.6 151.78C255.626 151.78 256.499 152 257.218 152.44C257.951 152.88 258.508 153.481 258.89 154.244C259.271 154.992 259.462 155.835 259.462 156.774C259.462 157.023 259.454 157.251 259.44 157.456C259.425 157.661 259.403 157.845 259.374 158.006H250.486V156.444H258.604L257.702 156.62C257.702 155.564 257.408 154.75 256.822 154.178C256.25 153.606 255.494 153.32 254.556 153.32C253.837 153.32 253.214 153.489 252.686 153.826C252.172 154.149 251.769 154.625 251.476 155.256C251.197 155.872 251.058 156.62 251.058 157.5C251.058 158.365 251.204 159.113 251.498 159.744C251.791 160.375 252.202 160.859 252.73 161.196C253.272 161.519 253.918 161.68 254.666 161.68C255.472 161.68 256.125 161.526 256.624 161.218C257.137 160.91 257.548 160.492 257.856 159.964L259.242 160.778C258.963 161.277 258.604 161.709 258.164 162.076C257.738 162.443 257.232 162.729 256.646 162.934C256.074 163.125 255.428 163.22 254.71 163.22ZM277.611 155.894C277.611 155.073 277.391 154.442 276.951 154.002C276.511 153.547 275.888 153.32 275.081 153.32C274.318 153.32 273.673 153.489 273.145 153.826C272.617 154.149 272.228 154.677 271.979 155.41L270.549 154.53C270.842 153.709 271.385 153.049 272.177 152.55C272.969 152.037 273.952 151.78 275.125 151.78C275.917 151.78 276.636 151.919 277.281 152.198C277.926 152.462 278.432 152.873 278.799 153.43C279.18 153.973 279.371 154.677 279.371 155.542V160.866C279.371 161.394 279.65 161.658 280.207 161.658C280.486 161.658 280.757 161.621 281.021 161.548L280.933 162.934C280.64 163.081 280.258 163.154 279.789 163.154C279.364 163.154 278.982 163.073 278.645 162.912C278.308 162.751 278.044 162.509 277.853 162.186C277.662 161.849 277.567 161.431 277.567 160.932V160.712L278.007 160.778C277.831 161.35 277.53 161.819 277.105 162.186C276.68 162.538 276.203 162.802 275.675 162.978C275.147 163.139 274.626 163.22 274.113 163.22C273.468 163.22 272.866 163.11 272.309 162.89C271.752 162.67 271.304 162.34 270.967 161.9C270.644 161.445 270.483 160.888 270.483 160.228C270.483 159.407 270.754 158.732 271.297 158.204C271.854 157.661 272.624 157.295 273.607 157.104L277.963 156.246V157.698L274.421 158.424C273.702 158.571 273.167 158.776 272.815 159.04C272.463 159.304 272.287 159.671 272.287 160.14C272.287 160.595 272.463 160.969 272.815 161.262C273.182 161.541 273.695 161.68 274.355 161.68C274.78 161.68 275.184 161.629 275.565 161.526C275.961 161.409 276.313 161.24 276.621 161.02C276.929 160.785 277.171 160.499 277.347 160.162C277.523 159.81 277.611 159.399 277.611 158.93V155.894ZM284.088 163V152H285.518L285.76 153.804C286.068 153.129 286.515 152.623 287.102 152.286C287.703 151.949 288.429 151.78 289.28 151.78C289.471 151.78 289.676 151.795 289.896 151.824C290.131 151.853 290.329 151.912 290.49 152L290.182 153.606C290.021 153.547 289.845 153.503 289.654 153.474C289.463 153.445 289.192 153.43 288.84 153.43C288.385 153.43 287.923 153.562 287.454 153.826C286.999 154.09 286.618 154.493 286.31 155.036C286.002 155.564 285.848 156.239 285.848 157.06V163H284.088ZM297.763 163.22C296.721 163.22 295.79 162.993 294.969 162.538C294.162 162.083 293.531 161.431 293.077 160.58C292.622 159.715 292.395 158.688 292.395 157.5C292.395 156.312 292.622 155.293 293.077 154.442C293.531 153.577 294.155 152.917 294.947 152.462C295.739 152.007 296.641 151.78 297.653 151.78C298.679 151.78 299.552 152 300.271 152.44C301.004 152.88 301.561 153.481 301.943 154.244C302.324 154.992 302.515 155.835 302.515 156.774C302.515 157.023 302.507 157.251 302.493 157.456C302.478 157.661 302.456 157.845 302.427 158.006H293.539V156.444H301.657L300.755 156.62C300.755 155.564 300.461 154.75 299.875 154.178C299.303 153.606 298.547 153.32 297.609 153.32C296.89 153.32 296.267 153.489 295.739 153.826C295.225 154.149 294.822 154.625 294.529 155.256C294.25 155.872 294.111 156.62 294.111 157.5C294.111 158.365 294.257 159.113 294.551 159.744C294.844 160.375 295.255 160.859 295.783 161.196C296.325 161.519 296.971 161.68 297.719 161.68C298.525 161.68 299.178 161.526 299.677 161.218C300.19 160.91 300.601 160.492 300.909 159.964L302.295 160.778C302.016 161.277 301.657 161.709 301.217 162.076C300.791 162.443 300.285 162.729 299.699 162.934C299.127 163.125 298.481 163.22 297.763 163.22ZM106.891 198.62V183H108.431L108.585 185.684L108.343 185.376C108.534 184.863 108.82 184.415 109.201 184.034C109.583 183.638 110.045 183.33 110.587 183.11C111.13 182.89 111.717 182.78 112.347 182.78C113.242 182.78 114.063 183.007 114.811 183.462C115.574 183.917 116.183 184.569 116.637 185.42C117.092 186.271 117.319 187.297 117.319 188.5C117.319 189.688 117.085 190.715 116.615 191.58C116.161 192.431 115.552 193.083 114.789 193.538C114.027 193.993 113.191 194.22 112.281 194.22C111.372 194.22 110.573 194 109.883 193.56C109.209 193.105 108.725 192.533 108.431 191.844L108.651 191.514V198.62H106.891ZM112.105 192.68C113.191 192.68 114.034 192.299 114.635 191.536C115.251 190.773 115.559 189.761 115.559 188.5C115.559 187.239 115.259 186.227 114.657 185.464C114.071 184.701 113.242 184.32 112.171 184.32C111.467 184.32 110.851 184.496 110.323 184.848C109.795 185.185 109.385 185.669 109.091 186.3C108.798 186.916 108.651 187.649 108.651 188.5C108.651 189.336 108.791 190.069 109.069 190.7C109.363 191.331 109.766 191.822 110.279 192.174C110.807 192.511 111.416 192.68 112.105 192.68ZM121.124 194V183H122.554L122.796 184.804C123.104 184.129 123.552 183.623 124.138 183.286C124.74 182.949 125.466 182.78 126.316 182.78C126.507 182.78 126.712 182.795 126.932 182.824C127.167 182.853 127.365 182.912 127.526 183L127.218 184.606C127.057 184.547 126.881 184.503 126.69 184.474C126.5 184.445 126.228 184.43 125.876 184.43C125.422 184.43 124.96 184.562 124.49 184.826C124.036 185.09 123.654 185.493 123.346 186.036C123.038 186.564 122.884 187.239 122.884 188.06V194H121.124ZM134.755 182.78C135.796 182.78 136.713 183.007 137.505 183.462C138.312 183.917 138.942 184.577 139.397 185.442C139.852 186.293 140.079 187.312 140.079 188.5C140.079 189.688 139.852 190.715 139.397 191.58C138.942 192.431 138.312 193.083 137.505 193.538C136.713 193.993 135.796 194.22 134.755 194.22C133.728 194.22 132.812 193.993 132.005 193.538C131.198 193.083 130.568 192.431 130.113 191.58C129.658 190.715 129.431 189.688 129.431 188.5C129.431 187.312 129.658 186.293 130.113 185.442C130.568 184.577 131.198 183.917 132.005 183.462C132.812 183.007 133.728 182.78 134.755 182.78ZM134.755 184.298C134.007 184.298 133.369 184.467 132.841 184.804C132.313 185.141 131.902 185.625 131.609 186.256C131.33 186.872 131.191 187.62 131.191 188.5C131.191 189.365 131.33 190.113 131.609 190.744C131.902 191.375 132.313 191.859 132.841 192.196C133.369 192.533 134.007 192.702 134.755 192.702C135.503 192.702 136.141 192.533 136.669 192.196C137.197 191.859 137.6 191.375 137.879 190.744C138.172 190.113 138.319 189.365 138.319 188.5C138.319 187.62 138.172 186.872 137.879 186.256C137.6 185.625 137.197 185.141 136.669 184.804C136.141 184.467 135.503 184.298 134.755 184.298ZM149.222 194.22C148.606 194.22 148.034 194.11 147.506 193.89C146.978 193.67 146.524 193.362 146.142 192.966C145.761 192.57 145.475 192.123 145.284 191.624L145.526 191.316L145.372 194H143.832V177.94H145.592V185.486L145.372 185.156C145.666 184.467 146.157 183.902 146.846 183.462C147.55 183.007 148.35 182.78 149.244 182.78C150.154 182.78 150.99 183.007 151.752 183.462C152.515 183.917 153.124 184.569 153.578 185.42C154.033 186.271 154.26 187.297 154.26 188.5C154.26 189.688 154.026 190.715 153.556 191.58C153.102 192.431 152.493 193.083 151.73 193.538C150.968 193.993 150.132 194.22 149.222 194.22ZM149.046 192.68C150.132 192.68 150.975 192.299 151.576 191.536C152.192 190.773 152.5 189.761 152.5 188.5C152.5 187.239 152.2 186.227 151.598 185.464C150.997 184.701 150.154 184.32 149.068 184.32C148.379 184.32 147.77 184.496 147.242 184.848C146.729 185.2 146.326 185.691 146.032 186.322C145.739 186.953 145.592 187.693 145.592 188.544C145.592 189.38 145.732 190.113 146.01 190.744C146.304 191.36 146.707 191.837 147.22 192.174C147.748 192.511 148.357 192.68 149.046 192.68ZM164.489 186.894C164.489 186.073 164.269 185.442 163.829 185.002C163.389 184.547 162.766 184.32 161.959 184.32C161.197 184.32 160.551 184.489 160.023 184.826C159.495 185.149 159.107 185.677 158.857 186.41L157.427 185.53C157.721 184.709 158.263 184.049 159.055 183.55C159.847 183.037 160.83 182.78 162.003 182.78C162.795 182.78 163.514 182.919 164.159 183.198C164.805 183.462 165.311 183.873 165.677 184.43C166.059 184.973 166.249 185.677 166.249 186.542V191.866C166.249 192.394 166.528 192.658 167.085 192.658C167.364 192.658 167.635 192.621 167.899 192.548L167.811 193.934C167.518 194.081 167.137 194.154 166.667 194.154C166.242 194.154 165.861 194.073 165.523 193.912C165.186 193.751 164.922 193.509 164.731 193.186C164.541 192.849 164.445 192.431 164.445 191.932V191.712L164.885 191.778C164.709 192.35 164.409 192.819 163.983 193.186C163.558 193.538 163.081 193.802 162.553 193.978C162.025 194.139 161.505 194.22 160.991 194.22C160.346 194.22 159.745 194.11 159.187 193.89C158.63 193.67 158.183 193.34 157.845 192.9C157.523 192.445 157.361 191.888 157.361 191.228C157.361 190.407 157.633 189.732 158.175 189.204C158.733 188.661 159.503 188.295 160.485 188.104L164.841 187.246V188.698L161.299 189.424C160.581 189.571 160.045 189.776 159.693 190.04C159.341 190.304 159.165 190.671 159.165 191.14C159.165 191.595 159.341 191.969 159.693 192.262C160.06 192.541 160.573 192.68 161.233 192.68C161.659 192.68 162.062 192.629 162.443 192.526C162.839 192.409 163.191 192.24 163.499 192.02C163.807 191.785 164.049 191.499 164.225 191.162C164.401 190.81 164.489 190.399 164.489 189.93V186.894ZM176.356 194.22C175.74 194.22 175.168 194.11 174.64 193.89C174.112 193.67 173.658 193.362 173.276 192.966C172.895 192.57 172.609 192.123 172.418 191.624L172.66 191.316L172.506 194H170.966V177.94H172.726V185.486L172.506 185.156C172.8 184.467 173.291 183.902 173.98 183.462C174.684 183.007 175.484 182.78 176.378 182.78C177.288 182.78 178.124 183.007 178.886 183.462C179.649 183.917 180.258 184.569 180.712 185.42C181.167 186.271 181.394 187.297 181.394 188.5C181.394 189.688 181.16 190.715 180.69 191.58C180.236 192.431 179.627 193.083 178.864 193.538C178.102 193.993 177.266 194.22 176.356 194.22ZM176.18 192.68C177.266 192.68 178.109 192.299 178.71 191.536C179.326 190.773 179.634 189.761 179.634 188.5C179.634 187.239 179.334 186.227 178.732 185.464C178.131 184.701 177.288 184.32 176.202 184.32C175.513 184.32 174.904 184.496 174.376 184.848C173.863 185.2 173.46 185.691 173.166 186.322C172.873 186.953 172.726 187.693 172.726 188.544C172.726 189.38 172.866 190.113 173.144 190.744C173.438 191.36 173.841 191.837 174.354 192.174C174.882 192.511 175.491 192.68 176.18 192.68ZM186.871 177.94V191.206C186.871 191.763 186.974 192.152 187.179 192.372C187.385 192.577 187.715 192.68 188.169 192.68C188.463 192.68 188.705 192.658 188.895 192.614C189.086 192.57 189.343 192.489 189.665 192.372L189.379 193.912C189.145 194.015 188.888 194.088 188.609 194.132C188.331 194.191 188.045 194.22 187.751 194.22C186.857 194.22 186.189 193.978 185.749 193.494C185.324 193.01 185.111 192.269 185.111 191.272V177.94H186.871ZM200.847 183L195.677 195.848C195.399 196.567 195.091 197.131 194.753 197.542C194.431 197.967 194.064 198.268 193.653 198.444C193.257 198.635 192.795 198.73 192.267 198.73C191.769 198.73 191.307 198.657 190.881 198.51C190.471 198.378 190.104 198.195 189.781 197.96L190.265 196.42C190.559 196.684 190.867 196.875 191.189 196.992C191.527 197.124 191.857 197.19 192.179 197.19C192.561 197.19 192.92 197.073 193.257 196.838C193.595 196.603 193.903 196.127 194.181 195.408L194.753 193.978L193.653 191.36L190.155 183H192.157L194.907 190.172L195.589 192.13L196.381 189.952L198.955 183H200.847ZM210.968 198.62V183H212.508L212.662 185.684L212.42 185.376C212.611 184.863 212.897 184.415 213.278 184.034C213.66 183.638 214.122 183.33 214.664 183.11C215.207 182.89 215.794 182.78 216.424 182.78C217.319 182.78 218.14 183.007 218.888 183.462C219.651 183.917 220.26 184.569 220.714 185.42C221.169 186.271 221.396 187.297 221.396 188.5C221.396 189.688 221.162 190.715 220.692 191.58C220.238 192.431 219.629 193.083 218.866 193.538C218.104 193.993 217.268 194.22 216.358 194.22C215.449 194.22 214.65 194 213.96 193.56C213.286 193.105 212.802 192.533 212.508 191.844L212.728 191.514V198.62H210.968ZM216.182 192.68C217.268 192.68 218.111 192.299 218.712 191.536C219.328 190.773 219.636 189.761 219.636 188.5C219.636 187.239 219.336 186.227 218.734 185.464C218.148 184.701 217.319 184.32 216.248 184.32C215.544 184.32 214.928 184.496 214.4 184.848C213.872 185.185 213.462 185.669 213.168 186.3C212.875 186.916 212.728 187.649 212.728 188.5C212.728 189.336 212.868 190.069 213.146 190.7C213.44 191.331 213.843 191.822 214.356 192.174C214.884 192.511 215.493 192.68 216.182 192.68ZM225.201 194V183H226.631L226.873 184.804C227.181 184.129 227.629 183.623 228.215 183.286C228.817 182.949 229.543 182.78 230.393 182.78C230.584 182.78 230.789 182.795 231.009 182.824C231.244 182.853 231.442 182.912 231.603 183L231.295 184.606C231.134 184.547 230.958 184.503 230.767 184.474C230.577 184.445 230.305 184.43 229.953 184.43C229.499 184.43 229.037 184.562 228.567 184.826C228.113 185.09 227.731 185.493 227.423 186.036C227.115 186.564 226.961 187.239 226.961 188.06V194H225.201ZM235.502 180.888C235.106 180.888 234.783 180.771 234.534 180.536C234.299 180.287 234.182 179.964 234.182 179.568C234.182 179.172 234.299 178.857 234.534 178.622C234.783 178.373 235.106 178.248 235.502 178.248C235.898 178.248 236.213 178.373 236.448 178.622C236.697 178.857 236.822 179.172 236.822 179.568C236.822 179.964 236.697 180.287 236.448 180.536C236.213 180.771 235.898 180.888 235.502 180.888ZM236.382 183V194H234.622V183H236.382ZM248.188 183H250.036L245.46 194H243.7L239.124 183H241.126L244.602 192.218L248.188 183ZM258.92 186.894C258.92 186.073 258.7 185.442 258.26 185.002C257.82 184.547 257.197 184.32 256.39 184.32C255.627 184.32 254.982 184.489 254.454 184.826C253.926 185.149 253.537 185.677 253.288 186.41L251.858 185.53C252.151 184.709 252.694 184.049 253.486 183.55C254.278 183.037 255.261 182.78 256.434 182.78C257.226 182.78 257.945 182.919 258.59 183.198C259.235 183.462 259.741 183.873 260.108 184.43C260.489 184.973 260.68 185.677 260.68 186.542V191.866C260.68 192.394 260.959 192.658 261.516 192.658C261.795 192.658 262.066 192.621 262.33 192.548L262.242 193.934C261.949 194.081 261.567 194.154 261.098 194.154C260.673 194.154 260.291 194.073 259.954 193.912C259.617 193.751 259.353 193.509 259.162 193.186C258.971 192.849 258.876 192.431 258.876 191.932V191.712L259.316 191.778C259.14 192.35 258.839 192.819 258.414 193.186C257.989 193.538 257.512 193.802 256.984 193.978C256.456 194.139 255.935 194.22 255.422 194.22C254.777 194.22 254.175 194.11 253.618 193.89C253.061 193.67 252.613 193.34 252.276 192.9C251.953 192.445 251.792 191.888 251.792 191.228C251.792 190.407 252.063 189.732 252.606 189.204C253.163 188.661 253.933 188.295 254.916 188.104L259.272 187.246V188.698L255.73 189.424C255.011 189.571 254.476 189.776 254.124 190.04C253.772 190.304 253.596 190.671 253.596 191.14C253.596 191.595 253.772 191.969 254.124 192.262C254.491 192.541 255.004 192.68 255.664 192.68C256.089 192.68 256.493 192.629 256.874 192.526C257.27 192.409 257.622 192.24 257.93 192.02C258.238 191.785 258.48 191.499 258.656 191.162C258.832 190.81 258.92 190.399 258.92 189.93V186.894ZM269.951 182.78C270.714 182.78 271.381 182.897 271.953 183.132C272.54 183.367 273.046 183.704 273.471 184.144C273.896 184.584 274.241 185.105 274.505 185.706L272.833 186.498C272.598 185.794 272.239 185.259 271.755 184.892C271.286 184.511 270.67 184.32 269.907 184.32C269.174 184.32 268.543 184.489 268.015 184.826C267.487 185.149 267.084 185.625 266.805 186.256C266.526 186.872 266.387 187.62 266.387 188.5C266.387 189.365 266.526 190.113 266.805 190.744C267.084 191.375 267.487 191.859 268.015 192.196C268.543 192.519 269.174 192.68 269.907 192.68C270.479 192.68 270.97 192.592 271.381 192.416C271.806 192.24 272.151 191.983 272.415 191.646C272.694 191.309 272.884 190.898 272.987 190.414L274.615 190.986C274.366 191.661 274.021 192.24 273.581 192.724C273.156 193.208 272.635 193.582 272.019 193.846C271.418 194.095 270.728 194.22 269.951 194.22C268.924 194.22 268.008 193.993 267.201 193.538C266.394 193.083 265.764 192.431 265.309 191.58C264.854 190.715 264.627 189.688 264.627 188.5C264.627 187.312 264.854 186.293 265.309 185.442C265.764 184.577 266.394 183.917 267.201 183.462C268.008 183.007 268.924 182.78 269.951 182.78ZM286.781 183L281.611 195.848C281.333 196.567 281.025 197.131 280.687 197.542C280.365 197.967 279.998 198.268 279.587 198.444C279.191 198.635 278.729 198.73 278.201 198.73C277.703 198.73 277.241 198.657 276.815 198.51C276.405 198.378 276.038 198.195 275.715 197.96L276.199 196.42C276.493 196.684 276.801 196.875 277.123 196.992C277.461 197.124 277.791 197.19 278.113 197.19C278.495 197.19 278.854 197.073 279.191 196.838C279.529 196.603 279.837 196.127 280.115 195.408L280.687 193.978L279.587 191.36L276.089 183H278.091L280.841 190.172L281.523 192.13L282.315 189.952L284.889 183H286.781ZM296.18 187.334V189.16H288.92V187.334H296.18ZM148.937 225.22C148.233 225.22 147.566 225.088 146.935 224.824C146.319 224.56 145.813 224.135 145.417 223.548C145.036 222.947 144.845 222.169 144.845 221.216V214H146.605V220.754C146.605 221.869 146.847 222.639 147.331 223.064C147.815 223.475 148.497 223.68 149.377 223.68C149.788 223.68 150.191 223.614 150.587 223.482C150.983 223.335 151.335 223.115 151.643 222.822C151.966 222.514 152.215 222.125 152.391 221.656C152.582 221.187 152.677 220.629 152.677 219.984V214H154.437V225H152.897L152.787 223.328C152.406 223.988 151.885 224.472 151.225 224.78C150.58 225.073 149.817 225.22 148.937 225.22ZM158.973 225V214H160.513L160.667 216.464L160.381 216.222C160.616 215.635 160.931 215.166 161.327 214.814C161.723 214.447 162.178 214.183 162.691 214.022C163.219 213.861 163.762 213.78 164.319 213.78C165.111 213.78 165.83 213.934 166.475 214.242C167.121 214.535 167.634 214.99 168.015 215.606C168.411 216.222 168.609 217.007 168.609 217.96V225H166.849V218.576C166.849 217.359 166.585 216.515 166.057 216.046C165.544 215.562 164.906 215.32 164.143 215.32C163.615 215.32 163.087 215.445 162.559 215.694C162.031 215.943 161.591 216.347 161.239 216.904C160.902 217.461 160.733 218.209 160.733 219.148V225H158.973ZM177.35 208.83C177.731 208.83 178.091 208.874 178.428 208.962C178.765 209.05 179.029 209.175 179.22 209.336L178.758 210.766C178.582 210.649 178.391 210.568 178.186 210.524C177.981 210.465 177.753 210.436 177.504 210.436C176.873 210.436 176.382 210.59 176.03 210.898C175.678 211.191 175.502 211.668 175.502 212.328V214V214.572V225H173.742V212.152C173.742 211.668 173.815 211.221 173.962 210.81C174.109 210.399 174.329 210.047 174.622 209.754C174.93 209.461 175.311 209.233 175.766 209.072C176.221 208.911 176.749 208.83 177.35 208.83ZM179.176 214V215.518H171.542V214H179.176ZM181.961 225V214H183.391L183.633 215.804C183.941 215.129 184.388 214.623 184.975 214.286C185.576 213.949 186.302 213.78 187.153 213.78C187.343 213.78 187.549 213.795 187.769 213.824C188.003 213.853 188.201 213.912 188.363 214L188.055 215.606C187.893 215.547 187.717 215.503 187.527 215.474C187.336 215.445 187.065 215.43 186.713 215.43C186.258 215.43 185.796 215.562 185.327 215.826C184.872 216.09 184.491 216.493 184.183 217.036C183.875 217.564 183.721 218.239 183.721 219.06V225H181.961ZM192.261 211.888C191.865 211.888 191.542 211.771 191.293 211.536C191.058 211.287 190.941 210.964 190.941 210.568C190.941 210.172 191.058 209.857 191.293 209.622C191.542 209.373 191.865 209.248 192.261 209.248C192.657 209.248 192.972 209.373 193.207 209.622C193.456 209.857 193.581 210.172 193.581 210.568C193.581 210.964 193.456 211.287 193.207 211.536C192.972 211.771 192.657 211.888 192.261 211.888ZM193.141 214V225H191.381V214H193.141ZM202.263 225.22C201.222 225.22 200.29 224.993 199.469 224.538C198.662 224.083 198.032 223.431 197.577 222.58C197.122 221.715 196.895 220.688 196.895 219.5C196.895 218.312 197.122 217.293 197.577 216.442C198.032 215.577 198.655 214.917 199.447 214.462C200.239 214.007 201.141 213.78 202.153 213.78C203.18 213.78 204.052 214 204.771 214.44C205.504 214.88 206.062 215.481 206.443 216.244C206.824 216.992 207.015 217.835 207.015 218.774C207.015 219.023 207.008 219.251 206.993 219.456C206.978 219.661 206.956 219.845 206.927 220.006H198.039V218.444H206.157L205.255 218.62C205.255 217.564 204.962 216.75 204.375 216.178C203.803 215.606 203.048 215.32 202.109 215.32C201.39 215.32 200.767 215.489 200.239 215.826C199.726 216.149 199.322 216.625 199.029 217.256C198.75 217.872 198.611 218.62 198.611 219.5C198.611 220.365 198.758 221.113 199.051 221.744C199.344 222.375 199.755 222.859 200.283 223.196C200.826 223.519 201.471 223.68 202.219 223.68C203.026 223.68 203.678 223.526 204.177 223.218C204.69 222.91 205.101 222.492 205.409 221.964L206.795 222.778C206.516 223.277 206.157 223.709 205.717 224.076C205.292 224.443 204.786 224.729 204.199 224.934C203.627 225.125 202.982 225.22 202.263 225.22ZM210.802 225V214H212.342L212.496 216.464L212.21 216.222C212.445 215.635 212.76 215.166 213.156 214.814C213.552 214.447 214.007 214.183 214.52 214.022C215.048 213.861 215.591 213.78 216.148 213.78C216.94 213.78 217.659 213.934 218.304 214.242C218.949 214.535 219.463 214.99 219.844 215.606C220.24 216.222 220.438 217.007 220.438 217.96V225H218.678V218.576C218.678 217.359 218.414 216.515 217.886 216.046C217.373 215.562 216.735 215.32 215.972 215.32C215.444 215.32 214.916 215.445 214.388 215.694C213.86 215.943 213.42 216.347 213.068 216.904C212.731 217.461 212.562 218.209 212.562 219.148V225H210.802ZM229.153 225.22C228.244 225.22 227.408 224.993 226.645 224.538C225.883 224.083 225.274 223.431 224.819 222.58C224.365 221.715 224.137 220.688 224.137 219.5C224.137 218.283 224.379 217.249 224.863 216.398C225.347 215.547 225.985 214.902 226.777 214.462C227.569 214.007 228.42 213.78 229.329 213.78C230.239 213.78 231.023 214.015 231.683 214.484C232.358 214.953 232.805 215.577 233.025 216.354L232.805 216.508V208.94H234.565V225H233.025L232.871 222.338L233.113 222.206C233.011 222.851 232.761 223.401 232.365 223.856C231.984 224.296 231.507 224.633 230.935 224.868C230.378 225.103 229.784 225.22 229.153 225.22ZM229.329 223.68C230.033 223.68 230.642 223.504 231.155 223.152C231.683 222.8 232.087 222.301 232.365 221.656C232.659 220.996 232.805 220.226 232.805 219.346C232.805 218.51 232.659 217.791 232.365 217.19C232.087 216.589 231.691 216.127 231.177 215.804C230.679 215.481 230.092 215.32 229.417 215.32C228.303 215.32 227.437 215.701 226.821 216.464C226.205 217.227 225.897 218.239 225.897 219.5C225.897 220.761 226.198 221.773 226.799 222.536C227.401 223.299 228.244 223.68 229.329 223.68ZM240.768 208.94V222.206C240.768 222.763 240.871 223.152 241.076 223.372C241.282 223.577 241.612 223.68 242.066 223.68C242.36 223.68 242.602 223.658 242.792 223.614C242.983 223.57 243.24 223.489 243.562 223.372L243.276 224.912C243.042 225.015 242.785 225.088 242.506 225.132C242.228 225.191 241.942 225.22 241.648 225.22C240.754 225.22 240.086 224.978 239.646 224.494C239.221 224.01 239.008 223.269 239.008 222.272V208.94H240.768ZM254.744 214L249.574 226.848C249.296 227.567 248.988 228.131 248.65 228.542C248.328 228.967 247.961 229.268 247.55 229.444C247.154 229.635 246.692 229.73 246.164 229.73C245.666 229.73 245.204 229.657 244.778 229.51C244.368 229.378 244.001 229.195 243.678 228.96L244.162 227.42C244.456 227.684 244.764 227.875 245.086 227.992C245.424 228.124 245.754 228.19 246.076 228.19C246.458 228.19 246.817 228.073 247.154 227.838C247.492 227.603 247.8 227.127 248.078 226.408L248.65 224.978L247.55 222.36L244.052 214H246.054L248.804 221.172L249.486 223.13L250.278 220.952L252.852 214H254.744ZM256.733 222.36C257.158 222.36 257.503 222.492 257.767 222.756C258.031 223.02 258.163 223.365 258.163 223.79C258.163 224.215 258.031 224.56 257.767 224.824C257.503 225.088 257.158 225.22 256.733 225.22C256.308 225.22 255.963 225.088 255.699 224.824C255.435 224.56 255.303 224.215 255.303 223.79C255.303 223.365 255.435 223.02 255.699 222.756C255.963 222.492 256.308 222.36 256.733 222.36Z" fill="white"/>
<rect x="371" y="120" width="19" height="24" fill="#454E9E"/>
</svg>
