<svg width="363" height="94" viewBox="0 0 363 94" fill="none" xmlns="http://www.w3.org/2000/svg">
<g filter="url(#filter0_d_316_563)">
<path d="M237.245 76.7532L238.008 36.304L238.275 33.1758L275.546 39.5182L272.102 79.7378L237.245 76.7532Z" fill="#BF1A2F"/>
</g>
<path d="M257.469 57.4282L263.624 56.6583L263.091 62.8771L257.159 61.0504L256.746 65.8727C257.619 65.9475 258.467 65.9615 259.292 65.9149C260.118 65.8537 260.889 65.7439 261.606 65.5855C262.323 65.4271 262.985 65.2273 263.592 64.9862C264.199 64.7451 264.727 64.4753 265.178 64.1768L268.167 64.4328L267.211 75.6049L240.24 73.2956L240.986 64.5892L243.647 64.3115L244.707 51.9393L242.131 51.2132L242.871 42.5723L269.841 44.8816L268.885 56.0537L265.895 55.7977C265.501 55.4416 265.025 55.0931 264.468 54.7524C263.911 54.4116 263.293 54.1022 262.613 53.8242C261.934 53.5462 261.192 53.3069 260.389 53.1062C259.585 52.9055 258.747 52.7678 257.874 52.6931L257.469 57.4282Z" fill="white"/>
<g filter="url(#filter1_d_316_563)">
<path d="M280.264 75.0036L284.029 31.0293L319.952 34.1052L305.658 77.1779L280.264 75.0036Z" fill="#E0919D"/>
</g>
<path d="M286.789 70.2579L289.44 39.2901L298.111 40.0326L298.398 45.4227L298.646 45.4439C299.983 43.4371 301.476 42.026 303.126 41.2106C304.822 40.3576 306.433 39.9964 307.961 40.1272C308.91 40.2086 309.669 40.3359 310.236 40.5093C310.845 40.6862 311.349 40.8749 311.748 41.0754L309.229 50.0934C308.661 49.92 308.113 49.7691 307.583 49.6405C307.057 49.4707 306.463 49.3575 305.803 49.3009C304.688 49.2055 303.477 49.497 302.172 50.1754C300.907 50.8574 299.822 52.1162 298.916 53.952L297.442 71.1701L286.789 70.2579Z" fill="#454E9E"/>
<g filter="url(#filter2_d_316_563)">
<path d="M73.4311 28.431L4.00391 34.0996L16.9646 80.3277L77.1471 68.6676L73.4311 28.431Z" fill="#E0919D"/>
<path d="M58.6753 35.0671C62.1146 34.6156 64.839 35.6274 66.8485 38.1025C68.8579 40.5776 70.1112 43.7084 70.6082 47.4947C71.0998 51.239 71.3571 56.9827 71.3802 64.7257L60.2342 66.1889L56.911 51.7323C56.3248 49.2415 55.7642 47.6032 55.2292 46.8176C54.6941 46.0319 53.917 45.706 52.898 45.8397C50.4777 46.1575 49.3979 48.4604 49.6585 52.7486L50.4895 67.4682L39.1524 68.9566L35.8292 54.4999C35.243 52.0091 34.6824 50.3709 34.1474 49.5852C33.6123 48.7996 32.8352 48.4736 31.8162 48.6074C29.311 48.9363 28.2311 51.2392 28.5767 55.5162L29.8535 70.1774L18.1343 71.7159L12.8699 41.9792L27.2641 40.0895L27.7964 46.118C27.8592 45.9386 27.935 45.6933 28.0237 45.382C28.1494 45.0232 28.457 44.4051 28.9465 43.5277C29.4784 42.6447 30.0879 41.8586 30.7749 41.1692C31.4619 40.4799 32.4303 39.7964 33.6804 39.1188C34.9728 38.4355 36.3834 37.9936 37.9119 37.7929C40.3747 37.4696 42.4725 37.9859 44.2055 39.3419C45.9809 40.6922 47.2264 42.2833 47.942 44.1152C48.4408 42.9798 48.8823 42.0659 49.2666 41.3736C49.6508 40.6812 50.252 39.8319 51.0701 38.8258C52.7434 36.7659 55.2784 35.513 58.6753 35.0671Z" fill="white"/>
</g>
<g filter="url(#filter3_d_316_563)">
<path d="M82.6593 75.8869L88.52 16.9701L135.335 23.288L134.282 73.4142L82.6593 75.8869Z" fill="#BF1A2F"/>
<path d="M129.003 64.6539C129.303 65.7537 129.432 67.3359 129.389 69.4004C127.773 69.245 124.598 69.1175 119.863 69.0181C114.279 68.9009 110.717 68.8868 109.177 68.976C109.216 67.1139 109.411 65.5385 109.762 64.2499C110.656 64.0662 111.31 63.7964 111.722 63.4406C112.134 63.0848 112.347 62.6235 112.358 62.0568C112.37 61.49 112.164 60.696 111.74 59.6746L111.335 58.7549C106.034 58.6436 101.437 58.7495 97.544 59.0728L97.4175 59.3131C97.2041 59.8351 97.0919 60.3592 97.0809 60.8855C97.0647 61.6546 97.253 62.3268 97.6458 62.902C98.079 63.4781 98.739 63.8565 99.6258 64.0371C99.9206 65.4202 100.049 67.0024 100.012 68.7835C98.6387 68.6332 96.2728 68.5228 92.9143 68.4523C90.2437 68.3962 88.3001 68.4161 87.0837 68.5121C87.1236 66.6095 87.3591 65.035 87.7901 63.7886C88.7654 63.6065 89.5647 63.1373 90.1878 62.3809C90.8522 61.5849 91.7145 60.0438 92.7745 57.7577L106.28 27.6672C107.011 27.5206 107.742 27.4347 108.471 27.4095C109.241 27.3851 110.05 27.3819 110.9 27.3997L123.754 57.2539C124.681 59.3793 125.417 60.954 125.962 61.9779C126.508 62.9613 126.98 63.6395 127.377 64.0123C127.815 64.3455 128.357 64.5594 129.003 64.6539ZM109.718 54.7723L107.52 49.5626C106.247 46.5794 105.274 43.7646 104.601 41.118C103.817 43.734 102.787 46.5068 101.511 49.4364L99.3998 54.5556L109.718 54.7723Z" fill="#E3B93E"/>
</g>
<g filter="url(#filter4_d_316_563)">
<path d="M139.323 84.8444L150.324 31.3264L183.615 32.0255L182.487 85.7508L139.323 84.8444Z" fill="#018E42"/>
<path d="M162.08 80.7285C159.177 80.6675 157.202 79.6765 156.153 77.7554C155.105 75.7891 154.931 73.2759 155.631 70.2158L161.389 45.5805L151.865 45.3806L152.59 43.2254L161.91 43.4211L163.151 36.1899L168.253 36.297L166.536 43.5182L181.298 43.8282L180.573 45.9834L166.014 45.6777L160.257 70.313C159.76 72.3825 159.815 74.0793 160.422 75.4033C161.076 76.6831 162.31 77.342 164.124 77.3801C165.575 77.4106 166.875 77.0762 168.024 76.3768C169.174 75.6323 170.214 74.7272 171.144 73.6615C172.12 72.5516 173.004 71.5076 173.796 70.5294L175.334 68.5948L176.606 69.5711L175.067 71.5735C173.761 73.2643 172.481 74.82 171.226 76.2406C169.971 77.6612 168.609 78.7856 167.139 79.6139C165.716 80.3979 164.03 80.7694 162.08 80.7285Z" fill="#E0919D"/>
</g>
<g filter="url(#filter5_d_316_563)">
<path d="M192.67 74.1597L193.582 30.711L230.322 26.1754L229.298 74.9288L192.67 74.1597Z" fill="#E3B93E"/>
<path d="M200.41 40.6323L196.75 36.3398L223.315 36.8976L226.975 41.1901L215.683 40.953L215.181 69.3277L208.651 67.8322L209.218 40.8173L200.41 40.6323Z" fill="#018E42"/>
</g>
<g filter="url(#filter6_d_316_563)">
<path d="M326.715 81.9436L328.13 14.5582L358.725 7.43393L352.489 82.4848L326.715 81.9436Z" fill="#E3B93E"/>
<path d="M349.467 60.3444C347.61 59.0923 345.213 58.4354 342.277 58.3738C339.342 58.3121 336.92 58.8678 335.011 60.0408L333.537 23.3691L352.48 23.7669L349.467 60.3444ZM337.417 64.2269C338.494 63.0915 340.084 62.546 342.189 62.5901C344.294 62.6343 345.86 63.2462 346.888 64.4257C347.917 65.5502 348.414 66.9667 348.378 68.6753C348.342 70.3839 347.786 71.8058 346.709 72.9412C345.634 74.0214 344.044 74.5394 341.939 74.4952C339.834 74.451 338.267 73.8667 337.238 72.7423C336.21 71.5628 335.714 70.1187 335.75 68.4101C335.786 66.7015 336.341 65.3071 337.417 64.2269Z" fill="#BF1A2F"/>
</g>
<defs>
<filter id="filter0_d_316_563" x="233.244" y="33.1758" width="46.3008" height="54.5625" filterUnits="userSpaceOnUse" color-interpolation-filters="sRGB">
<feFlood flood-opacity="0" result="BackgroundImageFix"/>
<feColorMatrix in="SourceAlpha" type="matrix" values="0 0 0 0 0 0 0 0 0 0 0 0 0 0 0 0 0 0 127 0" result="hardAlpha"/>
<feOffset dy="4"/>
<feGaussianBlur stdDeviation="2"/>
<feComposite in2="hardAlpha" operator="out"/>
<feColorMatrix type="matrix" values="0 0 0 0 0 0 0 0 0 0 0 0 0 0 0 0 0 0 0.25 0"/>
<feBlend mode="normal" in2="BackgroundImageFix" result="effect1_dropShadow_316_563"/>
<feBlend mode="normal" in="SourceGraphic" in2="effect1_dropShadow_316_563" result="shape"/>
</filter>
<filter id="filter1_d_316_563" x="276.264" y="31.0293" width="47.6875" height="54.1484" filterUnits="userSpaceOnUse" color-interpolation-filters="sRGB">
<feFlood flood-opacity="0" result="BackgroundImageFix"/>
<feColorMatrix in="SourceAlpha" type="matrix" values="0 0 0 0 0 0 0 0 0 0 0 0 0 0 0 0 0 0 127 0" result="hardAlpha"/>
<feOffset dy="4"/>
<feGaussianBlur stdDeviation="2"/>
<feComposite in2="hardAlpha" operator="out"/>
<feColorMatrix type="matrix" values="0 0 0 0 0 0 0 0 0 0 0 0 0 0 0 0 0 0 0.25 0"/>
<feBlend mode="normal" in2="BackgroundImageFix" result="effect1_dropShadow_316_563"/>
<feBlend mode="normal" in="SourceGraphic" in2="effect1_dropShadow_316_563" result="shape"/>
</filter>
<filter id="filter2_d_316_563" x="0.00390625" y="28.4316" width="81.1426" height="59.8965" filterUnits="userSpaceOnUse" color-interpolation-filters="sRGB">
<feFlood flood-opacity="0" result="BackgroundImageFix"/>
<feColorMatrix in="SourceAlpha" type="matrix" values="0 0 0 0 0 0 0 0 0 0 0 0 0 0 0 0 0 0 127 0" result="hardAlpha"/>
<feOffset dy="4"/>
<feGaussianBlur stdDeviation="2"/>
<feComposite in2="hardAlpha" operator="out"/>
<feColorMatrix type="matrix" values="0 0 0 0 0 0 0 0 0 0 0 0 0 0 0 0 0 0 0.25 0"/>
<feBlend mode="normal" in2="BackgroundImageFix" result="effect1_dropShadow_316_563"/>
<feBlend mode="normal" in="SourceGraphic" in2="effect1_dropShadow_316_563" result="shape"/>
</filter>
<filter id="filter3_d_316_563" x="78.6602" y="16.9707" width="60.6738" height="66.916" filterUnits="userSpaceOnUse" color-interpolation-filters="sRGB">
<feFlood flood-opacity="0" result="BackgroundImageFix"/>
<feColorMatrix in="SourceAlpha" type="matrix" values="0 0 0 0 0 0 0 0 0 0 0 0 0 0 0 0 0 0 127 0" result="hardAlpha"/>
<feOffset dy="4"/>
<feGaussianBlur stdDeviation="2"/>
<feComposite in2="hardAlpha" operator="out"/>
<feColorMatrix type="matrix" values="0 0 0 0 0 0 0 0 0 0 0 0 0 0 0 0 0 0 0.25 0"/>
<feBlend mode="normal" in2="BackgroundImageFix" result="effect1_dropShadow_316_563"/>
<feBlend mode="normal" in="SourceGraphic" in2="effect1_dropShadow_316_563" result="shape"/>
</filter>
<filter id="filter4_d_316_563" x="135.322" y="31.3262" width="52.293" height="62.4238" filterUnits="userSpaceOnUse" color-interpolation-filters="sRGB">
<feFlood flood-opacity="0" result="BackgroundImageFix"/>
<feColorMatrix in="SourceAlpha" type="matrix" values="0 0 0 0 0 0 0 0 0 0 0 0 0 0 0 0 0 0 127 0" result="hardAlpha"/>
<feOffset dy="4"/>
<feGaussianBlur stdDeviation="2"/>
<feComposite in2="hardAlpha" operator="out"/>
<feColorMatrix type="matrix" values="0 0 0 0 0 0 0 0 0 0 0 0 0 0 0 0 0 0 0.25 0"/>
<feBlend mode="normal" in2="BackgroundImageFix" result="effect1_dropShadow_316_563"/>
<feBlend mode="normal" in="SourceGraphic" in2="effect1_dropShadow_316_563" result="shape"/>
</filter>
<filter id="filter5_d_316_563" x="188.67" y="26.1758" width="45.6523" height="56.7539" filterUnits="userSpaceOnUse" color-interpolation-filters="sRGB">
<feFlood flood-opacity="0" result="BackgroundImageFix"/>
<feColorMatrix in="SourceAlpha" type="matrix" values="0 0 0 0 0 0 0 0 0 0 0 0 0 0 0 0 0 0 127 0" result="hardAlpha"/>
<feOffset dy="4"/>
<feGaussianBlur stdDeviation="2"/>
<feComposite in2="hardAlpha" operator="out"/>
<feColorMatrix type="matrix" values="0 0 0 0 0 0 0 0 0 0 0 0 0 0 0 0 0 0 0.25 0"/>
<feBlend mode="normal" in2="BackgroundImageFix" result="effect1_dropShadow_316_563"/>
<feBlend mode="normal" in="SourceGraphic" in2="effect1_dropShadow_316_563" result="shape"/>
</filter>
<filter id="filter6_d_316_563" x="322.715" y="7.43359" width="40.0098" height="83.0508" filterUnits="userSpaceOnUse" color-interpolation-filters="sRGB">
<feFlood flood-opacity="0" result="BackgroundImageFix"/>
<feColorMatrix in="SourceAlpha" type="matrix" values="0 0 0 0 0 0 0 0 0 0 0 0 0 0 0 0 0 0 127 0" result="hardAlpha"/>
<feOffset dy="4"/>
<feGaussianBlur stdDeviation="2"/>
<feComposite in2="hardAlpha" operator="out"/>
<feColorMatrix type="matrix" values="0 0 0 0 0 0 0 0 0 0 0 0 0 0 0 0 0 0 0.25 0"/>
<feBlend mode="normal" in2="BackgroundImageFix" result="effect1_dropShadow_316_563"/>
<feBlend mode="normal" in="SourceGraphic" in2="effect1_dropShadow_316_563" result="shape"/>
</filter>
</defs>
</svg>
