<svg width="330" height="591" viewBox="0 0 330 591" fill="none" xmlns="http://www.w3.org/2000/svg">
<path d="M94.7012 203.581C126.952 173.645 158.818 158.447 217.176 203.581C196.059 230.958 142.002 269.287 94.7012 203.581Z" fill="#D9D9D9"/>
<path fill-rule="evenodd" clip-rule="evenodd" d="M97.6284 203.9C108.902 219.012 120.434 228.097 131.628 232.917C143.203 237.902 154.57 238.395 165.192 236.102C185.603 231.696 203.298 216.981 213.891 204.003C185.817 182.825 164.363 176.092 146.278 177.862C128.335 179.619 113.162 189.789 97.6284 203.9ZM145.826 173.301C165.971 171.328 189.132 179.155 218.564 201.787L220.385 203.187L218.979 204.999C208.225 218.861 188.988 235.656 166.171 240.581C154.705 243.056 142.344 242.527 129.795 237.123C117.265 231.728 104.7 221.538 92.6809 204.939L91.4922 203.297L92.9835 201.92C109.204 186.95 125.725 175.269 145.826 173.301Z" fill="#D9D9D9"/>
<path d="M186.157 207.504C186.157 221.238 175.022 232.373 161.287 232.373C147.552 232.373 136.418 221.238 136.418 207.504C136.418 193.769 147.552 182.634 161.287 182.634C175.022 182.634 186.157 193.769 186.157 207.504Z" fill="#018E42"/>
<path fill-rule="evenodd" clip-rule="evenodd" d="M161.287 227.782C172.487 227.782 181.565 218.703 181.565 207.504C181.565 196.304 172.487 187.226 161.287 187.226C150.088 187.226 141.009 196.304 141.009 207.504C141.009 218.703 150.088 227.782 161.287 227.782ZM161.287 232.373C175.022 232.373 186.157 221.238 186.157 207.504C186.157 193.769 175.022 182.634 161.287 182.634C147.552 182.634 136.418 193.769 136.418 207.504C136.418 221.238 147.552 232.373 161.287 232.373Z" fill="black"/>
<path d="M174.391 208.574C174.391 216.401 168.285 222.747 160.753 222.747C153.221 222.747 147.115 216.401 147.115 208.574C147.115 200.746 153.221 194.401 160.753 194.401C168.285 194.401 174.391 200.746 174.391 208.574Z" fill="black"/>
<path d="M235.301 136.472V138.472H237.301H259V233.867C259 265.876 231.703 292 197.834 292H125.166C91.2971 292 64 265.876 64 233.867V138.472H85.699H87.699V136.472V108.374C87.699 68.0952 116.093 34.6919 153.538 30.4499C159.921 29.73 166.379 29.874 172.732 30.8819C208.31 36.5609 235.301 69.7689 235.301 108.27V136.472ZM142.778 237.893L142.125 240.402L144.718 240.397L178.287 240.323H178.291H179H181.64L180.925 237.781L171.666 204.849C176.819 201.667 180.271 196.121 180.271 189.751C180.271 179.732 171.771 171.778 161.492 171.778C151.213 171.778 142.713 179.732 142.713 189.751C142.713 196.148 146.192 201.702 151.361 204.881L142.778 237.893ZM208.921 138.487L210.921 138.487V136.487V108.285C210.921 82.4958 193.049 60.0418 169.07 56.2138L169.069 56.2137C164.804 55.5345 160.439 55.4257 156.134 55.9204C130.894 58.772 112.063 81.4323 112.063 108.374V136.472V138.471L114.063 138.472L208.921 138.487Z" fill="#EAA9B3" stroke="black" stroke-width="4"/>
<rect x="3" y="3" width="324" height="553" stroke="black" stroke-width="6"/>
<rect x="65" y="538" width="200" height="53" fill="#E0919D"/>
<path fill-rule="evenodd" clip-rule="evenodd" d="M107.642 571.15C95.1708 568.199 85.8167 558.143 81 549.869L83.6418 548.22C88.2074 556.063 96.9632 565.346 108.329 568.036C119.529 570.686 133.77 567.04 149.666 548L152 550.089C135.604 569.728 120.28 574.14 107.642 571.15Z" fill="black"/>
<path fill-rule="evenodd" clip-rule="evenodd" d="M153.811 562.084L145.926 554.192L148.115 552L156 559.893L153.811 562.084ZM77 560.928L85.1036 553.693L87.1646 556.006L79.061 563.241L77 560.928ZM146.538 569.491L139.091 561.379L141.371 559.282L148.818 567.394L146.538 569.491ZM84.2828 569.21L91.5104 560.441L93.8988 562.413L86.6713 571.183L84.2828 569.21ZM136.283 576.488L130.37 566.841L133.009 565.22L138.923 574.867L136.283 576.488ZM94.8437 575.604L99.8811 566.177L102.611 567.639L97.574 577.066L94.8437 575.604ZM122.777 581L119.273 570.696L122.204 569.697L125.709 580.001L122.777 581ZM106.947 580.465L108.699 569.942L111.753 570.451L110.001 580.975L106.947 580.465Z" fill="black"/>
<path fill-rule="evenodd" clip-rule="evenodd" d="M204.642 571.15C192.171 568.199 182.817 558.143 178 549.869L180.642 548.22C185.207 556.063 193.963 565.346 205.329 568.036C216.529 570.686 230.77 567.04 246.666 548L249 550.089C232.604 569.728 217.28 574.14 204.642 571.15Z" fill="black"/>
<path fill-rule="evenodd" clip-rule="evenodd" d="M250.811 562.084L242.926 554.192L245.115 552L253 559.893L250.811 562.084ZM174 560.928L182.104 553.693L184.165 556.006L176.061 563.241L174 560.928ZM243.538 569.491L236.091 561.379L238.371 559.282L245.818 567.394L243.538 569.491ZM181.283 569.21L188.51 560.441L190.899 562.413L183.671 571.183L181.283 569.21ZM233.283 576.488L227.37 566.841L230.009 565.22L235.923 574.867L233.283 576.488ZM191.844 575.604L196.881 566.177L199.611 567.639L194.574 577.066L191.844 575.604ZM219.777 581L216.273 570.696L219.204 569.697L222.709 580.001L219.777 581ZM203.947 580.465L205.699 569.942L208.753 570.451L207.001 580.975L203.947 580.465Z" fill="black"/>
</svg>
