<svg width="338" height="238" viewBox="0 0 338 238" fill="none" xmlns="http://www.w3.org/2000/svg">
<path d="M85.8603 19.1643C84.5128 14.9772 71.262 16.2419 68.2414 16.8962C62.2451 18.1949 60.0845 25.6124 62.2943 30.9513C63.7013 34.3504 67.9374 35.2791 71.1459 35.5407C88.7361 36.9752 106.392 33.3634 123.964 35.9323C134.281 37.4405 139.902 41.5653 144.169 51.0162C144.998 52.8516 149.109 62.5538 146.893 64.7118C143.973 67.5551 134.932 66.7997 131.28 67.2229C119.858 68.5469 108.666 71.0342 97.696 74.473C86.2597 78.058 62.8189 84.5138 68.8442 101.425C71.0544 107.629 79.1861 112.7 85.0869 114.701C94.6088 117.931 105.264 115.533 114.31 112.153C121.668 109.403 128.812 106.012 135.914 102.668C141.19 100.185 148.484 97.7525 152.498 93.2042C159.713 85.0277 142.723 71.5395 137.297 67.7238C125.728 59.5882 113.836 60.0886 100.666 63.2054C92.3821 65.1659 84.0369 67.5547 76.3685 71.3221C65.287 76.7663 66.5013 92.6201 70.6117 102.433C81.6227 128.72 140.884 141.039 122.776 177.427C108.221 206.675 55.1347 223.254 33.964 191.986C25.9428 180.139 30.4198 166.352 39.7327 156.801C55.6612 140.466 78.8104 132.974 100.779 129.256C116.097 126.664 127.958 131.336 138.855 142.121C146.578 149.765 150.451 157.128 161.696 159.75C173.475 162.496 187.043 164.432 198.954 161.42C209.129 158.847 223.857 142.294 206.842 137.03C176.998 127.796 145.424 146.808 128.858 170.836C117.8 186.877 117.641 217.933 134.089 230.72C141.645 236.594 148.818 237.624 157.152 233.933C179.424 224.068 202.872 215.988 224.179 204.102C228.742 201.557 234.911 198.32 237.99 193.613C242.551 186.64 235.974 179.398 231.222 174.825C218.707 162.781 198.748 148.435 181.056 145.341C169.267 143.279 160.093 147.585 158.171 160.245C157.07 167.497 158.133 178.571 166.172 182.098C177.447 187.045 192.942 178.086 201.451 172.068C214.647 162.734 235.324 139.193 217.238 124.012C212.758 120.252 193.346 112.66 188.237 119.342C183.887 125.031 197.217 138.528 200.333 141.429C210.127 150.547 218.394 149.547 230.233 145.569C241.276 141.857 253.808 137.059 262.062 128.439C265.765 124.571 264.021 117.817 264.304 112.942C264.766 104.986 265.074 96.9316 262.546 89.2254C257.19 72.8935 239.838 68.8839 224.712 66.3508C215.214 64.7603 202.974 62.6234 193.648 66.5038C181.948 71.3719 212.789 83.6959 224.305 88.9856C235.256 94.0161 243.391 97.3991 254.378 101.59C259.213 103.434 266.699 104.889 270.523 109.017C278.619 117.755 283.315 137.271 281.92 148.799C281.344 153.561 279.5 157.878 277.471 162.157C276.076 165.099 271.005 171.276 272.537 175.114C275.965 183.696 298.393 174.595 302.755 171.859C303.457 171.418 316.617 160.353 310.651 158.962C306.038 157.886 299.425 159.113 294.969 159.527C282.082 160.724 269.266 162.293 256.296 162.451C224.971 162.833 192.761 160.209 164.013 146.869C156.368 143.321 148.998 139.103 140.861 136.69C127.422 132.704 113.461 132.197 99.5476 132.216C79.469 132.244 59.5502 134.596 39.5081 135.174C31.2927 135.411 34.6646 127.637 34.8729 121.321C35.1237 113.718 35.0047 105.912 33.9113 98.3672C33.1668 93.2298 26.3935 87.538 23.2749 84.1795C-39.9352 16.1058 60.6073 124.76 14.0069 75.1093C10.4493 71.3188 18.7401 72.7274 20.1987 72.6926C63.9318 71.6508 106.043 61.787 147.99 50.1031C172.589 43.2514 197.178 36.4344 221.978 30.338C228.237 28.7994 234.708 26.9406 241.215 26.5974C241.907 26.5609 246.506 25.2211 246.211 25.1287C236.843 22.1855 225.207 22.6353 215.601 22.9521C195.447 23.6166 176.946 29.4827 157.479 33.9334C148.513 35.9832 139.367 37.4643 130.547 40.1189C127.997 40.8865 128.369 40.9172 129.901 39.1746C131.184 37.7159 130.907 37.8316 128.495 37.8546C123.613 37.9012 120.429 38.8642 120.622 44.3891C121.235 62.0307 138.108 79.1834 149.33 90.9321C159.247 101.315 170.17 111.006 182.27 118.781C186.081 121.23 190.563 122.781 194.265 125.366C198.231 128.136 211.369 144.437 199.637 130.948C194.468 125.005 190.147 118.064 187.857 110.451C182.034 91.0909 200.212 70.9452 213.85 59.9395C223.053 52.5122 235.323 46.0331 247.476 45.9343C250.119 45.9128 260.121 44.5027 259.136 48.9237C256.562 60.4644 253.006 71.4711 251.172 83.3082C251.038 84.1756 248.182 108.3 248.411 108.226C249.235 107.961 249.625 106.989 250.187 106.331C253.939 101.946 258.098 97.9696 262.325 94.0444C276.845 80.5616 291.8 67.3986 307.868 55.7767C313.633 51.6066 314.032 52.3753 317.737 58.7093C325.188 71.4472 330.663 85.5793 333.684 100.022C333.952 101.303 337.116 112.673 335.508 114.248C332.491 117.203 314.063 112.579 310.567 112.437C284.311 111.371 250.033 120.326 235.627 144.175C230.345 152.918 226.331 164.222 227.299 174.632C228.13 183.576 243.69 183.762 250.034 185.128C263.699 188.072 277.497 190.451 291.506 190.703C292.833 190.727 295.092 190.117 294.658 192.196C291.467 207.478 266.627 203.039 256.733 199.57C236.92 192.624 218.31 183.629 198.022 177.799C188.505 175.064 178.836 172.655 169.591 169.059C167.6 168.284 164.561 164.791 163.626 166.712C160.969 172.17 162.667 183.539 162.263 189.268C161.709 197.136 160.872 204.967 159.987 212.802C159.866 213.872 159.981 217.691 158.812 218.77C157.869 219.641 153.173 222.599 151.866 221.48C149.088 219.101 146.25 213.135 144.53 210.389C139.697 202.67 135.123 194.805 130.47 186.978C123.549 175.337 116.957 163.193 109.204 152.074C107.962 150.292 102.452 166.869 101.733 168.336C95.9171 180.197 88.3963 195.876 78.4684 204.979C77.0188 206.308 73.3827 188.813 73.1929 187.838C70.9714 176.431 70.1358 165.589 71.6712 154.056C72.0111 151.504 71.2164 144.197 72.5762 146.384C73.3661 147.654 73.0948 152.33 73.134 153.586C73.3177 159.472 65.3848 203.882 59.5684 200.933C54.6887 198.459 51.6091 181.369 50.739 177.371C46.1876 156.458 48.414 138.629 63.4149 122.853C81.2476 104.1 103.988 89.1782 130.238 86.6249C153.732 84.3396 174.613 91.965 197.303 95.6239C200.88 96.2008 218.617 89.7566 218.61 85.9439C218.57 66.0467 184.117 66.9839 172.108 67.6688C158.167 68.464 144.308 70.9182 130.41 72.2695C130.124 72.2974 120.063 74.2249 119.596 72.3818C118.655 68.6575 126.084 60.3201 127.746 58.0105C139.157 42.1568 151.535 27.1766 162.306 10.832C163.851 8.48728 165.74 2.1444 169.315 4.6011C191.542 19.8751 199.411 48.5528 218.074 66.9677C218.738 67.6228 224.212 73.5247 224.099 69.3648C223.721 55.4643 224.278 41.7795 226.732 28.055C227.326 24.7327 228.51 6.07859 234.627 7.34663C248.384 10.1982 261.505 14.7311 275.484 17.1076C284.162 18.583 291.192 21.0021 298.156 26.3268C302.496 29.6448 293.684 22.6332 293.204 22.2677C287.056 17.5922 280.437 13.0734 272.492 12.5315C260.874 11.7392 248.753 15.4194 237.971 19.3108C216.82 26.9442 196.439 36.9693 175.695 45.6312C160.735 51.878 145.569 60.1665 129.922 64.6152C121.427 67.0304 111.89 63.7535 103.911 60.8952C87.5725 55.0431 74.6809 43.7425 62.1759 32.0782C59.5581 29.6363 44.7111 13.8952 41.8578 18.1766C36.2451 26.5985 17.1841 64.0388 33.0273 69.0454C49.1026 74.1252 99.84 60.0461 83.0536 61.6062C76.8108 62.1864 70.8893 63.8475 64.9904 65.9631C56.3895 69.0479 47.9185 72.5812 39.4847 76.0891C34.1824 78.2945 27.0686 80.4727 22.5056 84.3068C18.771 87.4448 20.3009 94.1812 22.3115 97.8272C29.5453 110.945 48.0542 111.851 61.0217 113.311C88.9682 116.458 117.245 116.332 145.118 120.058C158.596 121.86 171.877 124.639 184.606 129.5C184.694 129.534 192.632 132.248 192.582 134.282C192.508 137.308 184.583 142.547 182.785 144.734C179.927 148.211 172.985 156.843 173.887 161.853C175.365 170.062 193.057 171.825 198.645 172.496C226.04 175.787 253.808 169.042 281.324 170.001C294.464 170.459 304.621 173.705 316.744 177.701C322.002 179.434 314.281 166.776 311.703 161.877C301.085 141.707 290.763 120.724 277.787 101.925C267.775 87.4197 257.446 83.6999 240.398 83.2494C232.011 83.0278 227.599 82.4324 227.172 91.6204C226.474 106.643 229.295 119.604 237.123 132.653C242.727 141.997 250.637 149.775 256.204 159.056C258.117 162.247 254.049 158.372 253.712 158.061C231.809 137.847 194.207 135.502 167.032 144.524C148.267 150.753 135.649 167.357 120.365 179.102C113.654 184.259 107.779 190.091 102.287 196.516C100.785 198.274 92.7853 210.771 90.078 210.428C88.2967 210.202 85.6598 205.217 84.5224 204.082C77.5581 197.129 74.13 200.697 68.5446 207.464C64.2006 212.727 56.5189 226.769 48.7987 227.934C43.703 228.703 43.4903 200.607 43.0522 196.721C41.7329 185.02 36.9362 174.211 32.2116 163.526C32.1237 163.328 24.1082 145.616 24.9833 145.786C26.5542 146.091 29.9266 148.05 30.7026 148.49C39.5946 153.541 48.1451 159.159 57.0951 164.115C65.6289 168.841 74.327 172.85 83.4004 176.4C84.4265 176.801 91.0694 180.235 92.7975 179.655C95.6942 178.683 73.831 111.396 73.1018 107.613C69.6247 89.5781 77.8542 76.2251 92.816 66.39C101.233 60.8573 114.804 52.26 124.61 59.0831C137.239 67.8711 147.721 80.8758 158.445 91.7588C166.29 99.7195 175.232 107.821 180.724 117.753C183.665 123.072 183.99 125.092 177.011 124.626C159.34 123.446 142.123 123.246 124.416 123.042C119.193 122.982 113.538 122.044 108.3 122.531C99.444 123.354 124.988 116.372 133.33 113.286C164.47 101.768 195.622 90.0923 227.74 81.5245C237.593 78.8959 241.084 78.1641 249.505 77.3814C249.544 77.3778 252.534 76.6468 251.8 78.0609C250.113 81.3135 246.731 85.0045 244.778 87.7523C235.752 100.455 227.009 113.392 218.822 126.655C215.743 131.643 211.069 139.431 208.499 145.245C208.39 145.49 206.367 149.753 208.021 150.311C208.988 150.638 211.518 149.733 212.139 149.594C221.283 147.537 230.452 145.666 239.691 144.076C257.001 141.098 277.864 136.089 295.532 139.165C304.628 140.749 305.378 150.816 309.611 157.385C312.646 162.093 313.882 162.489 315.283 156.579C319.485 138.858 322.965 120.656 322.689 102.383C322.287 75.8219 306.911 57.0806 288.942 38.8444C280.916 30.6999 274.062 23.234 262.013 24.0507C261.283 24.1002 249.043 26.3245 249.957 27.0124C255.205 30.9613 265.417 32.5929 271.43 34.725C281.147 38.1708 292.949 40.3346 301.987 45.3317C307.211 48.2203 304.666 57.4919 303.806 61.9011C298.513 89.0316 290.828 117.603 295.775 145.391C298.042 158.122 306.78 167.866 308.984 180.654C310.432 189.049 312.343 197.497 312.959 206.006C313.512 213.654 314.062 228.56 306.591 233.547C298.932 238.659 285.161 235.186 276.731 234.648C254.042 233.2 231.503 232.918 208.901 230.016C202.815 229.235 186.701 226.929 180.514 225.959C173.799 224.906 163.691 224.5 157.588 220.613C153.918 218.276 151.7 213.334 148.916 210.149C144.586 205.195 139.595 200.953 134.408 196.934C130.341 193.783 127.795 191.228 122.743 191.491C118.734 191.699 113.172 192.503 113.741 187.083C114.681 178.14 118.057 169.188 120.659 160.662C122.782 153.711 123.188 142.492 131.817 141.436C150.98 139.092 170.437 137.495 189.694 136.224C201.748 135.429 212.405 133.23 217.668 145.453C221.47 154.283 223.017 163.87 226.671 172.681C229.787 180.195 243.26 177.174 249.474 176.699C258.042 176.045 265.706 176.367 274.198 177.972C275.121 178.147 284.89 179.225 285.617 181.375C286.839 184.984 279.265 185.657 275.781 187.199C259.054 194.6 242.012 202.698 224.489 208.035C207.384 213.244 188.87 212.214 171.408 209.621C165.993 208.816 150.37 208.913 150.009 200.897C149.788 196.001 151.291 191.876 144.736 192.794C129.716 194.898 115.001 200.097 100.811 205.246C92.5007 208.261 84.2278 211.379 75.9475 214.475C75.3231 214.709 71.7178 216.824 72.532 214.346C72.7781 213.598 75.36 209.832 74.3141 210.108C73.3034 210.374 70.4296 212.335 70.8085 210.21C73.6722 194.154 81.0348 178.68 84.6957 162.721C88.126 147.768 90.6977 132.591 92.7577 117.392C93.2158 114.012 95.6295 105.014 92.9785 107.161C91.3767 108.458 91.2871 110.553 88.9324 111.052C79.0212 113.152 69.6271 106.037 64.6429 98.2449C54.0176 81.6335 48.5779 61.7178 42.6675 43.0975C42.0411 41.1241 37.956 33.4137 42.6607 32.2181C47.9332 30.8781 55.383 32.717 60.654 33.1124C78.311 34.4366 95.8805 36.3087 113.502 38.0206C119.971 38.6491 126.807 39.6405 133.331 38.8559C135.984 38.5368 137.659 37.4112 139.677 35.6995C142.365 33.4194 144.632 29.383 142.905 35.009C140.08 44.2078 138.193 53.7079 136.709 63.2033C134.993 74.186 133.625 85.2233 132.023 96.2231C131.676 98.6009 131.311 100.976 130.956 103.352C130.724 104.898 131.374 106.884 130.271 107.991C129.459 108.806 129.917 105.718 129.731 104.582C128.461 96.8362 126.98 89.1193 126.007 81.327C124.012 65.3493 125.145 50.4438 127.246 34.623C128.09 28.2706 133.853 33.379 138.605 35.5759C141.224 36.7864 166.238 44.7165 165.914 38.8406C165.67 34.4263 155.806 28.7679 153.225 27.187C142.224 20.4478 130.053 15.9268 117.875 11.8369C111.015 9.53319 100.982 6.62752 93.7679 4.59225C91.1975 3.86708 83.9428 0.930568 85.998 2.63622C88.8176 4.97628 103.264 4.16607 105.633 4.38226C115.561 5.28846 127.934 4.51376 137.494 8.00494C146.921 11.4477 155.664 17.6796 164.883 21.7515C172.418 25.0795 179.621 27.8668 187.848 28.7117C192.848 29.2253 198.572 28.2537 203.422 29.3845C205.636 29.9008 208.484 30.7553 210.782 30.5417C211.327 30.4911 211.605 29.5187 211.102 29.1729C207.413 26.6379 197.217 29.253 194.369 29.8353C174.666 33.864 154.868 42.2059 140.953 57.2294C130.74 68.2556 134.835 83.5261 148.442 89.7871C159.986 95.0988 172.773 87.6278 183.619 84.0628C187.858 82.6695 211.828 74.8488 195.55 84.572C183.931 91.5129 171.144 95.3717 158.391 99.5752C148.196 102.935 164.86 102.016 166.654 102.043C178.311 102.218 193.067 101.521 201.816 111.162C216.31 127.134 210.762 151.417 211.749 170.609C212.4 183.293 213.533 190.399 225.583 194.598C231.426 196.634 237.124 197.206 243.12 198.38" stroke="black" stroke-width="3" stroke-linecap="round"/>
</svg>
