<svg width="327" height="375" viewBox="0 0 327 375" fill="none" xmlns="http://www.w3.org/2000/svg">
<path d="M197.779 329.178L166.88 327.163C182.331 338.583 183 344.63 177.626 356.723C173.327 366.397 152.549 358.067 142.697 352.692C148.608 362.904 145.16 367.248 142.697 368.144C133.964 380.908 111.126 365.457 101.722 356.723C92.3174 347.989 72.1656 335.225 62.7615 333.881C55.2382 332.806 56.4929 323.132 58.0606 318.43C3.78528 301.231 16.1898 251.696 29.1765 229.078C88.9599 149.804 190.39 171.974 223.305 191.456C256.219 210.939 286.447 198.846 307.27 247.217C323.929 285.913 300.329 306.784 286.447 312.383C303.643 323.132 301.225 333.433 297.866 337.24C289.805 347.989 269.43 343.51 260.25 339.927C226.932 354.976 204.72 339.032 197.779 329.178Z" fill="black" stroke="black"/>
<path d="M164.044 347.411C167.803 345.795 164.716 340.453 162.702 337.984C166.998 332.058 161.36 331.026 158.004 331.25C153.977 332.372 146.594 336.502 149.279 344.044C151.963 351.586 156.214 348.534 158.004 346.065C158.451 347.187 160.286 349.027 164.044 347.411Z" fill="#E0919D"/>
<path d="M167.4 335.29C167.848 337.535 169.548 341.755 172.77 340.677C176.797 339.331 174.783 333.944 167.4 335.29Z" fill="#E0919D"/>
<path d="M175.454 349.431C172.233 349.431 171.427 346.289 171.427 344.718C175.186 343.102 177.468 344.493 178.139 345.391C178.587 346.738 178.676 349.431 175.454 349.431Z" fill="#E0919D"/>
<path d="M170.085 356.165C167.4 355.627 167.624 352.349 168.071 350.778C171.427 350.105 172.77 352.125 173.441 353.472C174.112 354.819 173.441 356.839 170.085 356.165Z" fill="#E0919D"/>
<path d="M157.333 351.452C157.78 353.921 159.615 358.32 163.373 356.165C168.071 353.472 160.017 348.758 157.333 351.452Z" fill="#E0919D"/>
<path d="M42.561 222.835C34.0595 242.812 31.5538 283.574 89.5432 286.806C117.685 288.375 138.645 292.887 153.128 298.254M50 317.119C52.9084 319.588 76.2548 321.015 111.693 317.782C117.948 317.212 123.507 317.031 128.472 317.119M141.896 206C161.242 216.999 190.572 250.848 153.128 298.254M153.128 298.254C175.951 306.711 182.695 317.291 176.126 321.823C166.903 328.184 158.671 317.659 128.472 317.119M217.738 252.464C213.27 249.856 207.286 246.584 201.63 243.888M197.603 330.577C180.824 315.762 183.508 285.46 184.851 275.359C186.002 266.697 188.14 256.054 186.187 246.403M259.351 260.544C266.958 261.891 283.379 264.181 288.212 262.565C294.252 260.544 305.662 258.524 298.951 271.319M298.951 271.319C292.239 284.113 290.896 279.399 288.212 295.56C285.527 311.722 288.212 325.863 260.694 340.677M298.951 271.319C265.66 276.167 261.365 283.664 263.378 286.806M201.63 271.319C205.429 269.298 207.659 261.487 186.187 246.403M186.187 246.403C185.862 244.8 185.424 243.224 184.851 241.69C182.799 236.2 191.71 239.16 201.63 243.888M215.725 224.855C211.474 227.892 202.704 235.951 201.63 243.888M128.472 317.119C119.299 319.136 103.907 324.651 115.72 330.577C127.533 336.502 142.197 351.452 146 356.165M122.432 358.185C124.669 360.206 127.398 365.458 120.418 370.306M134.513 358.185C136.974 360.879 138.48 368.613 131.5 374M223.779 257.851C222.437 258.749 219.349 262.699 217.738 271.319M235.189 262.565C233.175 268.849 229.283 282.497 229.82 286.806M249.955 262.565C248.389 265.707 245.391 272.665 245.928 275.359M278.815 333.27C281.053 333.27 284.185 336.881 281.5 345.5M290.896 326.536C293.134 328.781 296.685 336.574 294 342.5M237.874 315.762C236.308 313.966 235.994 310.51 247.27 311.048C258.546 311.587 260.47 306.784 260.022 304.315M213.711 311.048C214.83 309.477 215.322 305.931 208.342 304.315C201.362 302.698 197.827 298.254 196.932 296.234M162.702 337.984C164.716 340.453 167.803 345.795 164.044 347.411C160.286 349.027 158.451 347.187 158.004 346.065C156.214 348.534 151.963 351.586 149.279 344.044C146.594 336.502 153.977 332.372 158.004 331.25C161.36 331.026 166.998 332.058 162.702 337.984ZM167.4 335.29C167.848 337.535 169.548 341.755 172.77 340.677C176.797 339.331 174.783 333.944 167.4 335.29ZM171.427 344.718C171.427 346.289 172.233 349.431 175.454 349.431C178.676 349.431 178.587 346.738 178.139 345.391C177.468 344.493 175.186 343.102 171.427 344.718ZM168.071 350.778C167.624 352.349 167.4 355.627 170.085 356.165C173.441 356.839 174.112 354.819 173.441 353.472C172.77 352.125 171.427 350.105 168.071 350.778ZM157.333 351.452C157.78 353.921 159.615 358.32 163.373 356.165C168.071 353.472 160.017 348.758 157.333 351.452Z" stroke="#E0919D"/>
<path d="M215.15 327.503C211.43 328.739 217.617 333.335 221.206 335.578C221.879 336.588 222.552 337.093 223.225 337.177C223.898 337.261 224.571 336.924 225.244 336.252C226.589 334.906 227.935 334.233 229.954 332.887C231.973 331.541 232.646 329.522 231.3 328.849C229.954 328.176 225.917 329.522 223.225 329.522C221.072 329.522 219.187 328.176 218.515 327.503C217.84 326.832 217.167 326.832 215.15 327.503Z" fill="#E0919D"/>
<path d="M224 347C223.551 345.822 222.687 340.609 223.225 337.177M223.225 337.177C223.898 337.261 224.571 336.924 225.244 336.252C226.589 334.906 227.935 334.233 229.954 332.887C231.973 331.541 232.646 329.522 231.3 328.849C229.954 328.176 225.917 329.522 223.225 329.522C221.072 329.522 219.187 328.176 218.515 327.503C217.84 326.832 217.167 326.832 215.15 327.503C211.43 328.739 217.617 333.335 221.206 335.578C221.879 336.588 222.552 337.093 223.225 337.177Z" stroke="#E0919D"/>
<path d="M212 139.924C241.392 112.631 270.435 98.7744 323.621 139.924C304.376 164.884 255.109 199.828 212 139.924Z" fill="#D9D9D9" stroke="black" stroke-width="4"/>
<circle cx="272.535" cy="143.423" r="20.7441" fill="#BF1A2F" stroke="black" stroke-width="4"/>
<path d="M280.893 149.947C280.893 157.097 275.097 162.893 267.947 162.893C260.796 162.893 255 157.097 255 149.947C255 142.796 260.796 137 267.947 137C275.097 137 280.893 142.796 280.893 149.947Z" fill="black"/>
<path d="M9.14935 79.6718C24.1721 50.6268 42.632 31.9868 94.7846 48.8885C86.9035 73.3453 58.743 113.742 9.14935 79.6718Z" fill="#D9D9D9" stroke="black" stroke-width="4"/>
<circle cx="56.5576" cy="65.6621" r="16.5423" transform="rotate(-19.772 56.5576 65.6621)" fill="#BF1A2F" stroke="black" stroke-width="4"/>
<path d="M69.8888 67.9059C71.8607 73.3915 69.0123 79.4371 63.5267 81.409C58.0411 83.3809 51.9955 80.5325 50.0236 75.0469C48.0517 69.5612 50.9001 63.5157 56.3857 61.5438C61.8714 59.5719 67.9169 62.4203 69.8888 67.9059Z" fill="black"/>
<path d="M206.526 41.2944C235.747 26.617 261.637 22.3787 293.909 66.6962C273.163 81.8568 226.642 98.0012 206.526 41.2944Z" fill="#D9D9D9" stroke="black" stroke-width="4"/>
<circle cx="253.12" cy="57.8103" r="16.5423" transform="rotate(16.2089 253.12 57.8103)" fill="#454E9E" stroke="black" stroke-width="4"/>
<path d="M258.178 64.8189C256.551 70.4165 250.694 73.6351 245.096 72.0079C239.499 70.3807 236.28 64.5239 237.907 58.9263C239.534 53.3287 245.391 50.1101 250.989 51.7373C256.586 53.3645 259.805 59.2213 258.178 64.8189Z" fill="black"/>
<path d="M2.58531 156.767C18.1225 141.103 33.7707 132.833 63.9296 154.246C53.9166 168.398 27.6294 188.715 2.58531 156.767Z" fill="#D9D9D9" stroke="black" stroke-width="3"/>
<circle cx="35.9331" cy="157.323" r="11.0102" transform="rotate(-2.35253 35.9331 157.323)" fill="#018E42" stroke="black" stroke-width="3"/>
<path d="M43.8234 159.84C43.9849 163.77 40.9302 167.086 37.0006 167.248C33.071 167.409 29.7545 164.354 29.5931 160.425C29.4317 156.495 32.4864 153.179 36.416 153.017C40.3455 152.856 43.662 155.911 43.8234 159.84Z" fill="black"/>
<path d="M126.585 17.7666C142.122 2.10342 157.771 -6.16746 187.93 15.2464C177.917 29.3985 151.629 49.7155 126.585 17.7666Z" fill="#D9D9D9" stroke="black" stroke-width="3"/>
<circle cx="159.933" cy="18.323" r="11.0102" transform="rotate(-2.35253 159.933 18.323)" fill="#018E42" stroke="black" stroke-width="3"/>
<path d="M166.523 21.1145C166.684 25.0441 163.629 28.3606 159.7 28.522C155.77 28.6835 152.454 25.6288 152.292 21.6992C152.131 17.7696 155.186 14.4531 159.115 14.2917C163.045 14.1302 166.361 17.1849 166.523 21.1145Z" fill="black"/>
<path d="M104.773 112.136C125.285 91.4576 145.943 80.5386 185.758 108.809C172.539 127.492 137.836 154.314 104.773 112.136Z" fill="#D9D9D9" stroke="black" stroke-width="4"/>
<circle cx="148.797" cy="112.871" r="14.5157" transform="rotate(-2.35253 148.797 112.871)" fill="#454E9E" stroke="black" stroke-width="4"/>
<path d="M159.524 117.355C159.737 122.543 155.704 126.921 150.517 127.134C145.329 127.347 140.951 123.315 140.737 118.127C140.524 112.939 144.557 108.561 149.745 108.347C154.933 108.134 159.311 112.167 159.524 117.355Z" fill="black"/>
</svg>
