<svg width="395" height="683" viewBox="0 0 395 683" fill="none" xmlns="http://www.w3.org/2000/svg">
<path d="M224.055 463.348C249.991 424.642 279.097 401.262 350.047 433.867C334.946 467.248 288.606 519.878 224.055 463.348Z" fill="#D9D9D9"/>
<path fill-rule="evenodd" clip-rule="evenodd" d="M226.735 463.022C242.106 476.092 256.293 482.798 269.108 485.112C282.29 487.492 294.167 485.253 304.591 480.301C324.742 470.727 339.484 450.987 347.213 434.929C313.019 419.646 289.145 417.781 270.805 424.021C252.586 430.219 239.355 444.564 226.735 463.022ZM269.472 420.105C289.572 413.266 315.162 415.744 350.837 432.026L352.717 432.883L351.86 434.763C344.18 451.624 328.518 473.513 306.367 484.036C295.243 489.321 282.49 491.732 268.37 489.182C254.269 486.636 238.952 479.17 222.625 464.946L221.249 463.747L222.269 462.232C235.311 442.883 249.408 426.931 269.472 420.105Z" fill="black"/>
<path d="M318.924 445.425C322.24 459.595 313.441 473.77 299.271 477.085C285.101 480.401 270.926 471.602 267.611 457.432C264.295 443.262 273.094 429.088 287.264 425.772C301.434 422.456 315.609 431.256 318.924 445.425Z" fill="#454E9E"/>
<path fill-rule="evenodd" clip-rule="evenodd" d="M298.328 473.056C310.272 470.261 317.69 458.313 314.895 446.368C312.1 434.424 300.151 427.006 288.207 429.801C276.262 432.596 268.845 444.545 271.64 456.489C274.435 468.434 286.384 475.851 298.328 473.056ZM299.271 477.085C313.441 473.77 322.24 459.595 318.924 445.425C315.609 431.256 301.434 422.456 287.264 425.772C273.094 429.088 264.295 443.262 267.611 457.432C270.926 471.602 285.101 480.401 299.271 477.085Z" fill="black"/>
<path d="M302.385 439.22C304.28 447.317 299.252 455.417 291.155 457.311C283.058 459.206 274.958 454.178 273.063 446.081C271.169 437.984 276.197 429.884 284.294 427.989C292.391 426.095 300.491 431.123 302.385 439.22Z" fill="black"/>
<path d="M19.7796 155.678C54.1858 128.969 86.5941 117.048 137.886 168.641C114.499 193.954 58.1364 226.799 19.7796 155.678Z" fill="#D9D9D9"/>
<path fill-rule="evenodd" clip-rule="evenodd" d="M22.1989 156.225C31.4537 172.809 41.6523 183.293 52.0224 189.393C62.6891 195.668 73.6556 197.376 84.2039 196.186C104.596 193.887 123.454 180.74 135.105 168.708C110.252 144.231 90.1774 135.068 72.3827 134.935C54.7061 134.803 38.8239 143.568 22.1989 156.225ZM72.4405 130.993C91.943 131.139 113.313 141.391 139.138 167.231L140.499 168.593L139.177 170.016C127.319 182.785 107.001 197.578 84.5855 200.106C73.3286 201.376 61.5508 199.547 50.125 192.826C38.7141 186.113 27.773 174.591 18.049 156.669L17.229 155.158L18.5804 154.115C35.8458 140.786 52.9738 130.847 72.4405 130.993Z" fill="black"/>
<path d="M107.389 169.289C105.875 183.083 93.8802 193.084 80.5973 191.626C67.3145 190.168 57.774 177.804 59.288 164.01C60.802 150.216 72.7972 140.215 86.08 141.673C99.3628 143.131 108.903 155.495 107.389 169.289Z" fill="#018E42"/>
<path fill-rule="evenodd" clip-rule="evenodd" d="M81.0278 187.703C92.2247 188.932 102.336 180.502 103.612 168.874C104.889 157.247 96.8463 146.824 85.6495 145.595C74.4527 144.366 64.3413 152.796 63.065 164.424C61.7888 176.052 69.831 186.474 81.0278 187.703ZM80.5973 191.626C93.8802 193.084 105.875 183.083 107.389 169.289C108.903 155.495 99.3628 143.131 86.08 141.673C72.7972 140.215 60.802 150.216 59.288 164.01C57.774 177.804 67.3145 190.168 80.5973 191.626Z" fill="black"/>
<path d="M101.053 176.289C100.188 184.171 93.3333 189.886 85.7431 189.053C78.1529 188.22 72.7012 181.155 73.5663 173.272C74.4315 165.39 81.2859 159.675 88.8761 160.508C96.4663 161.341 101.918 168.407 101.053 176.289Z" fill="black"/>
<mask id="mask0_0_1" style="mask-type:alpha" maskUnits="userSpaceOnUse" x="41" y="-4" width="140" height="99">
<path d="M41.0097 -3.99023H180.435C180.854 5.55603 181.44 25.7539 180.435 30.1753C179.431 34.5968 172.648 38.5492 169.382 39.9728C164.023 58.5629 144.21 95.4416 107.834 94.2358C71.4573 93.0299 54.3242 55.3808 50.3048 36.707C44.8785 36.506 41.8471 32.2688 41.0097 30.1753V-3.99023Z" fill="#D9D9D9"/>
</mask>
<g mask="url(#mask0_0_1)">
<path d="M41.0097 -3.99023H180.435C180.854 5.55603 181.44 25.7539 180.435 30.1753C179.431 34.5968 172.648 38.5493 169.382 39.9728C164.023 58.5629 144.21 95.4416 107.834 94.2358C71.4573 93.0299 54.3242 55.3808 50.3048 36.707C44.8785 36.506 41.8471 32.2688 41.0097 30.1753V-3.99023Z" fill="white"/>
<ellipse cx="126" cy="62.5" rx="8" ry="9.5" fill="#BF1A2F"/>
<path fill-rule="evenodd" clip-rule="evenodd" d="M176.694 29.9773C180.999 31.9062 183.867 33.9909 185.315 36.0855L188.621 33.7994C186.552 30.8077 182.888 28.3479 178.337 26.3091C173.739 24.2491 168.003 22.5175 161.515 21.1108C148.532 18.2963 132.305 16.7342 115.614 16.5449C98.9184 16.3556 81.6816 17.5389 66.6741 20.2504C51.7402 22.9485 38.7363 27.2066 30.7424 33.3488L33.1914 36.5361C40.3962 31.0002 52.6082 26.8762 67.3887 24.2058C82.0954 21.5487 99.0713 20.3771 115.568 20.5641C132.069 20.7513 148.014 22.2969 160.663 25.0391C166.99 26.4108 172.436 28.0698 176.694 29.9773ZM130.002 33.656C140.606 33.7893 149.863 38.0714 153.633 43.8372C162.325 57.131 175.826 58.2408 182.153 56.7521L181.232 52.8395C176.17 54.0305 164.566 53.2137 156.997 41.6376C152.225 34.3401 141.415 29.7797 130.053 29.6368C118.564 29.4924 105.971 33.834 97.4428 45.0372C85.3361 60.942 64.941 60.9971 53.7804 59.8311L53.3628 63.8288C64.6444 65.0074 87.1237 65.23 100.641 47.4717C108.252 37.4728 119.525 33.5243 130.002 33.656ZM119.7 41.0149C115.534 42.7954 110.911 46.5358 108.203 54.1199C102.845 69.1215 110.779 80.4216 118.001 82.829C121.472 83.9861 127.527 84.2291 133.164 81.651C138.95 79.0052 144.134 73.4612 145.743 63.4035C147.038 55.3127 144.83 49.2629 141.011 45.2464C137.257 41.2988 132.093 39.4716 127.681 39.4716C127.737 39.4716 127.267 39.4604 126.881 39.4669C126.422 39.4747 125.812 39.5036 125.091 39.5869C123.652 39.7531 121.752 40.1379 119.7 41.0149ZM127.563 43.4891C127.613 43.4902 127.653 43.491 127.681 43.491C131.082 43.491 135.163 44.9296 138.098 48.0161C140.967 51.0337 142.891 55.7862 141.774 62.7685C140.369 71.5521 136.007 75.9312 131.492 77.9957C126.83 80.128 121.831 79.8685 119.272 79.0158C114.436 77.4038 107.297 68.6065 111.988 55.4718C114.304 48.9877 118.098 46.0708 121.279 44.7111C124.302 43.4193 126.896 43.4748 127.563 43.4891ZM120.462 58.9038C121.725 56.1656 124.605 53.9296 127.606 54.0408C129.215 54.1004 131.074 55.8263 131.618 59.0637C132.129 62.1036 131.233 65.6581 128.2 68.0359L128.165 68.0631L128.131 68.0917C126.047 69.8784 123.459 69.875 121.479 68.1156C120.58 67.3165 119.91 65.896 119.698 64.0964C119.488 62.3184 119.762 60.4208 120.462 58.9038ZM127.755 50.0241C122.718 49.8375 118.563 53.426 116.812 57.2195C115.773 59.4708 115.418 62.123 115.706 64.5669C115.992 66.9891 116.945 69.4625 118.809 71.1198C122.345 74.2629 127.173 74.1809 130.713 71.1726C135.063 67.7417 136.294 62.6309 135.582 58.3972C134.902 54.3501 132.176 50.1878 127.755 50.0241Z" fill="black"/>
</g>
<path fill-rule="evenodd" clip-rule="evenodd" d="M182.359 -6H39V30.5624L39.1438 30.9217C40.0596 33.2114 43.1296 37.6511 48.6644 38.5596C50.9359 48.0984 56.2637 61.6739 65.3541 73.2623C74.9321 85.4722 88.8134 95.6161 107.767 96.2444C126.729 96.873 141.308 87.5504 151.738 75.8661C161.827 64.5648 168.169 50.9214 171.05 41.4186C172.747 40.605 174.965 39.3459 176.984 37.7899C179.28 36.0193 181.728 33.5564 182.395 30.6207C182.696 29.2952 182.848 27.0111 182.927 24.3743C183.008 21.671 183.016 18.403 182.979 14.9927C182.905 8.16919 182.653 0.710111 182.443 -4.07832L182.359 -6ZM178.508 -1.98052C178.697 2.71651 178.896 9.12273 178.96 15.036C178.996 18.4211 178.988 21.6282 178.909 24.2539C178.829 26.9461 178.677 28.8447 178.476 29.7299C178.138 31.2157 176.692 32.9397 174.529 34.6066C172.454 36.2069 170.09 37.4717 168.579 38.1305L167.713 38.5081L167.451 39.4161C164.838 48.4796 158.672 62.0627 148.74 73.1894C138.83 84.2905 125.314 92.8044 107.9 92.2271C90.4775 91.6496 77.6041 82.366 68.5167 70.7814C59.4061 59.1674 54.2278 45.3818 52.2695 36.2841L51.9407 34.7564L50.3792 34.6986C46.3166 34.5481 43.863 31.523 43.0195 29.7556V-1.98052H178.508Z" fill="black"/>
<path d="M222.886 141.144L222.886 141.143L258.734 98.7691L258.734 98.7691L326.306 18.9028L326.307 18.9024C327.214 17.8296 328.813 17.6956 329.879 18.5918C329.879 18.5919 329.879 18.592 329.879 18.5922L360.898 44.7137L360.898 44.7141C361.961 45.6082 362.098 47.1983 361.192 48.27L288.781 133.858L288.778 133.862C288.395 134.318 287.855 134.626 287.263 134.727L287.262 134.727L225.234 145.257L225.234 145.257C222.906 145.653 221.362 142.944 222.886 141.144Z" fill="white" stroke="black" stroke-width="3"/>
<path d="M263.439 138.562L349.439 36.0625L361.939 46.5625L288.439 134.562L263.439 138.562Z" fill="#D9D9D9"/>
<path d="M222.886 141.144L222.886 141.143L258.734 98.7691L258.734 98.7691L326.306 18.9028L326.307 18.9024C327.214 17.8296 328.813 17.6956 329.879 18.5918C329.879 18.5919 329.879 18.592 329.879 18.5922L360.898 44.7137L360.898 44.7141C361.961 45.6082 362.098 47.1983 361.192 48.27L288.781 133.858L288.778 133.862C288.395 134.318 287.855 134.626 287.263 134.727L287.262 134.727L225.234 145.257L225.234 145.257C222.906 145.653 221.362 142.944 222.886 141.144Z" stroke="black" stroke-width="3"/>
<mask id="path-19-inside-1_0_1" fill="white">
<path fill-rule="evenodd" clip-rule="evenodd" d="M342.161 105.344L371.166 70.6896C372.099 68.1709 371.451 65.2413 369.343 63.3599L361.166 56.0523L361.165 56.041L295.246 135.257C293.224 137.691 290.413 139.339 287.302 139.917L238.719 148.976L234.576 153.875C233.202 155.505 233.384 157.941 234.991 159.35L255.221 177.073C256.953 178.591 259.584 178.405 261.085 176.67L266.521 170.365C268.175 168.451 267.906 165.542 265.938 163.954L265.79 163.834L269.957 158.927L280.137 167.514C283.127 170.034 287.465 169.895 290.273 167.339L326.064 124.576V141.891C326.064 147.069 330.255 151.267 335.424 151.267H378.597V185.725C378.597 187.478 380.014 188.897 381.764 188.897H395.38V105.159H382.747C380.452 105.159 378.592 107.023 378.592 109.322V134.47H342.161V105.344Z"/>
</mask>
<path fill-rule="evenodd" clip-rule="evenodd" d="M342.161 105.344L371.166 70.6896C372.099 68.1709 371.451 65.2413 369.343 63.3599L361.166 56.0523L361.165 56.041L295.246 135.257C293.224 137.691 290.413 139.339 287.302 139.917L238.719 148.976L234.576 153.875C233.202 155.505 233.384 157.941 234.991 159.35L255.221 177.073C256.953 178.591 259.584 178.405 261.085 176.67L266.521 170.365C268.175 168.451 267.906 165.542 265.938 163.954L265.79 163.834L269.957 158.927L280.137 167.514C283.127 170.034 287.465 169.895 290.273 167.339L326.064 124.576V141.891C326.064 147.069 330.255 151.267 335.424 151.267H378.597V185.725C378.597 187.478 380.014 188.897 381.764 188.897H395.38V105.159H382.747C380.452 105.159 378.592 107.023 378.592 109.322V134.47H342.161V105.344Z" fill="white"/>
<path d="M371.166 70.6896L373.466 72.6151L373.799 72.2176L373.979 71.7315L371.166 70.6896ZM342.161 105.344L339.861 103.418L339.161 104.254V105.344H342.161ZM369.343 63.3599L367.344 65.5969L367.346 65.598L369.343 63.3599ZM361.166 56.0523L358.169 56.1982L358.23 57.4525L359.167 58.2893L361.166 56.0523ZM361.165 56.041L364.162 55.8951L363.787 48.2003L358.859 54.1221L361.165 56.041ZM295.246 135.257L292.94 133.338L292.939 133.34L295.246 135.257ZM287.302 139.917L286.754 136.967L286.752 136.968L287.302 139.917ZM238.719 148.976L238.169 146.026L237.118 146.222L236.428 147.039L238.719 148.976ZM234.576 153.875L232.285 151.939L232.283 151.941L234.576 153.875ZM234.991 159.35L233.013 161.606L233.014 161.606L234.991 159.35ZM255.221 177.073L257.198 174.817L257.198 174.816L255.221 177.073ZM261.085 176.67L263.354 178.632L263.357 178.629L261.085 176.67ZM266.521 170.365L264.251 168.404L264.248 168.407L266.521 170.365ZM265.938 163.954L264.054 166.288L264.054 166.288L265.938 163.954ZM265.79 163.834L263.503 161.893L261.512 164.237L263.906 166.169L265.79 163.834ZM269.957 158.927L271.891 156.633L269.605 154.705L267.67 156.985L269.957 158.927ZM280.137 167.514L278.203 169.807L278.203 169.808L280.137 167.514ZM290.273 167.339L292.292 169.557L292.443 169.42L292.573 169.264L290.273 167.339ZM326.064 124.576H329.064V116.318L323.763 122.651L326.064 124.576ZM378.597 151.267H381.597V148.267H378.597V151.267ZM395.38 188.897V191.897H398.38V188.897H395.38ZM395.38 105.159H398.38V102.159H395.38V105.159ZM378.592 134.47V137.47H381.592V134.47H378.592ZM342.161 134.47H339.161V137.47H342.161V134.47ZM368.865 68.7641L339.861 103.418L344.462 107.269L373.466 72.6151L368.865 68.7641ZM367.346 65.598C368.506 66.634 368.87 68.2522 368.353 69.6477L373.979 71.7315C375.328 68.0896 374.396 63.8486 371.341 61.1218L367.346 65.598ZM359.167 58.2893L367.344 65.5969L371.342 61.123L363.165 53.8153L359.167 58.2893ZM358.169 56.1869L358.169 56.1982L364.162 55.9064L364.162 55.8951L358.169 56.1869ZM297.552 137.176L363.471 57.96L358.859 54.1221L292.94 133.338L297.552 137.176ZM287.849 142.867C291.65 142.161 295.083 140.147 297.554 137.174L292.939 133.34C291.364 135.234 289.177 136.518 286.754 136.967L287.849 142.867ZM239.269 151.925L287.852 142.866L286.752 136.968L238.169 146.026L239.269 151.925ZM236.867 155.812L241.01 150.912L236.428 147.039L232.285 151.939L236.867 155.812ZM236.969 157.094C236.59 156.762 236.549 156.189 236.87 155.81L232.283 151.941C229.854 154.821 230.178 159.12 233.013 161.606L236.969 157.094ZM257.198 174.816L236.968 157.093L233.014 161.606L253.244 179.329L257.198 174.816ZM258.816 174.707C258.403 175.185 257.678 175.237 257.198 174.817L253.243 179.329C256.228 181.945 260.765 181.626 263.354 178.632L258.816 174.707ZM264.248 168.407L258.813 174.711L263.357 178.629L268.793 172.324L264.248 168.407ZM264.054 166.288C264.709 166.817 264.79 167.78 264.251 168.404L268.79 172.327C271.56 169.122 271.104 164.268 267.822 161.619L264.054 166.288ZM263.906 166.169L264.054 166.288L267.822 161.619L267.674 161.5L263.906 166.169ZM267.67 156.985L263.503 161.893L268.077 165.776L272.243 160.868L267.67 156.985ZM282.071 165.221L271.891 156.633L268.022 161.22L278.203 169.807L282.071 165.221ZM288.253 165.12C286.547 166.673 283.9 166.762 282.07 165.22L278.203 169.808C282.355 173.306 288.382 173.116 292.292 169.557L288.253 165.12ZM323.763 122.651L287.972 165.413L292.573 169.264L328.365 126.502L323.763 122.651ZM323.064 124.576V141.891H329.064V124.576H323.064ZM323.064 141.891C323.064 148.721 328.593 154.267 335.424 154.267V148.267C331.916 148.267 329.064 145.417 329.064 141.891H323.064ZM335.424 154.267H378.597V148.267H335.424V154.267ZM375.597 151.267V185.725H381.597V151.267H375.597ZM375.597 185.725C375.597 189.13 378.352 191.897 381.764 191.897V185.897C381.675 185.897 381.597 185.826 381.597 185.725H375.597ZM381.764 191.897H395.38V185.897H381.764V191.897ZM398.38 188.897V105.159H392.38V188.897H398.38ZM395.38 102.159H382.747V108.159H395.38V102.159ZM382.747 102.159C378.791 102.159 375.592 105.371 375.592 109.322H381.592C381.592 108.675 382.114 108.159 382.747 108.159V102.159ZM375.592 109.322V134.47H381.592V109.322H375.592ZM378.592 131.47H342.161V137.47H378.592V131.47ZM345.161 134.47V105.344H339.161V134.47H345.161Z" fill="black" mask="url(#path-19-inside-1_0_1)"/>
<circle cx="244.002" cy="157.002" r="3" fill="#BF1A2F"/>
<path d="M238.723 547.8L238.723 547.8L271.485 586.527L271.485 586.527L333.24 659.518L333.24 659.518C334.024 660.444 335.404 660.559 336.323 659.786C336.324 659.786 336.324 659.786 336.324 659.786L364.672 635.913L364.672 635.913C365.589 635.142 365.707 633.77 364.925 632.845L298.748 554.625L298.745 554.621C298.415 554.228 297.949 553.962 297.437 553.875L297.437 553.875L240.748 544.251L240.748 544.251C238.74 543.91 237.408 546.246 238.723 547.8Z" fill="white" stroke="black" stroke-width="3"/>
<path d="M275.688 550.242L354.284 643.918L365.708 634.322L298.535 553.897L275.688 550.242Z" fill="#D9D9D9"/>
<path d="M238.723 547.8L238.723 547.8L271.485 586.527L271.485 586.527L333.24 659.518L333.24 659.518C334.024 660.444 335.404 660.559 336.323 659.786C336.324 659.786 336.324 659.786 336.324 659.786L364.672 635.913L364.672 635.913C365.589 635.142 365.707 633.77 364.925 632.845L298.748 554.625L298.745 554.621C298.415 554.228 297.949 553.962 297.437 553.875L297.437 553.875L240.748 544.251L240.748 544.251C238.74 543.91 237.408 546.246 238.723 547.8Z" stroke="black" stroke-width="3"/>
<mask id="path-25-inside-2_0_1" fill="white">
<path fill-rule="evenodd" clip-rule="evenodd" d="M347.632 580.603L374.139 612.272C374.991 614.574 374.399 617.252 372.473 618.971L364.999 625.65L364.999 625.66L304.754 553.264C302.906 551.039 300.338 549.533 297.494 549.005L253.093 540.726L249.308 536.248C248.051 534.758 248.218 532.533 249.687 531.245L268.175 515.047C269.758 513.66 272.163 513.83 273.534 515.416L278.502 521.177C280.014 522.927 279.768 525.585 277.969 527.037L277.834 527.146L281.642 531.632L290.946 523.784C293.679 521.48 297.644 521.608 300.21 523.944L332.921 563.027V547.198C332.921 542.466 336.751 538.629 341.475 538.629H380.931V507.137C380.931 505.535 382.226 504.238 383.826 504.238H396.27V580.768H384.724C382.627 580.768 380.927 579.064 380.927 576.963V553.98H347.632V580.603Z"/>
</mask>
<path fill-rule="evenodd" clip-rule="evenodd" d="M347.632 580.603L374.139 612.272C374.991 614.574 374.399 617.252 372.473 618.971L364.999 625.65L364.999 625.66L304.754 553.264C302.906 551.039 300.338 549.533 297.494 549.005L253.093 540.726L249.308 536.248C248.051 534.758 248.218 532.533 249.687 531.245L268.175 515.047C269.758 513.66 272.163 513.83 273.534 515.416L278.502 521.177C280.014 522.927 279.768 525.585 277.969 527.037L277.834 527.146L281.642 531.632L290.946 523.784C293.679 521.48 297.644 521.608 300.21 523.944L332.921 563.027V547.198C332.921 542.466 336.751 538.629 341.475 538.629H380.931V507.137C380.931 505.535 382.226 504.238 383.826 504.238H396.27V580.768H384.724C382.627 580.768 380.927 579.064 380.927 576.963V553.98H347.632V580.603Z" fill="white"/>
<path d="M374.139 612.272L376.439 610.347L376.772 610.744L376.952 611.23L374.139 612.272ZM347.632 580.603L345.332 582.529L344.632 581.693V580.603H347.632ZM372.473 618.971L370.474 616.734L370.475 616.733L372.473 618.971ZM364.999 625.65L362.003 625.503L362.064 624.249L363 623.413L364.999 625.65ZM364.999 625.66L367.995 625.807L367.62 633.499L362.693 627.579L364.999 625.66ZM304.754 553.264L302.448 555.183L302.447 555.181L304.754 553.264ZM297.494 549.005L296.947 551.954L296.944 551.954L297.494 549.005ZM253.093 540.726L252.543 543.675L251.492 543.479L250.802 542.663L253.093 540.726ZM249.308 536.248L247.017 538.185L247.014 538.182L249.308 536.248ZM249.687 531.245L247.709 528.989L247.71 528.988L249.687 531.245ZM268.175 515.047L270.152 517.303L270.152 517.304L268.175 515.047ZM273.534 515.416L275.803 513.454L275.806 513.457L273.534 515.416ZM278.502 521.177L276.232 523.139L276.23 523.136L278.502 521.177ZM277.969 527.037L279.854 529.372L279.853 529.372L277.969 527.037ZM277.834 527.146L275.547 529.088L273.556 526.743L275.95 524.812L277.834 527.146ZM281.642 531.632L283.576 533.925L281.29 535.853L279.355 533.573L281.642 531.632ZM290.946 523.784L289.012 521.491L289.013 521.49L290.946 523.784ZM300.21 523.944L302.229 521.726L302.38 521.863L302.51 522.019L300.21 523.944ZM332.921 563.027H335.921V571.285L330.62 564.952L332.921 563.027ZM380.931 538.629H383.931V541.629H380.931V538.629ZM396.27 504.238V501.238H399.27V504.238H396.27ZM396.27 580.768H399.27V583.768H396.27V580.768ZM380.927 553.98V550.98H383.927V553.98H380.927ZM347.632 553.98H344.632V550.98H347.632V553.98ZM371.838 614.198L345.332 582.529L349.933 578.678L376.439 610.347L371.838 614.198ZM370.475 616.733C371.454 615.859 371.762 614.493 371.325 613.314L376.952 611.23C378.22 614.656 377.344 618.645 374.471 621.209L370.475 616.733ZM363 623.413L370.474 616.734L374.472 621.208L366.998 627.887L363 623.413ZM362.003 625.514L362.003 625.503L367.996 625.796L367.995 625.807L362.003 625.514ZM307.06 551.345L367.305 623.741L362.693 627.579L302.448 555.183L307.06 551.345ZM298.042 546.055C301.574 546.711 304.766 548.583 307.062 551.346L302.447 555.181C301.047 553.496 299.101 552.354 296.947 551.954L298.042 546.055ZM253.643 537.777L298.044 546.056L296.944 551.954L252.543 543.675L253.643 537.777ZM251.599 534.311L255.384 538.789L250.802 542.663L247.017 538.185L251.599 534.311ZM251.664 533.501C251.424 533.712 251.399 534.074 251.601 534.314L247.014 538.182C244.703 535.442 245.012 531.353 247.709 528.989L251.664 533.501ZM270.152 517.304L251.664 533.501L247.71 528.988L266.198 512.791L270.152 517.304ZM271.265 517.378C270.982 517.05 270.483 517.014 270.152 517.303L266.197 512.791C269.033 510.306 273.344 510.609 275.803 513.454L271.265 517.378ZM276.23 523.136L271.262 517.375L275.806 513.457L280.774 519.218L276.23 523.136ZM276.085 524.703C276.571 524.31 276.629 523.598 276.232 523.139L280.772 519.216C283.399 522.256 282.965 526.86 279.854 529.372L276.085 524.703ZM275.95 524.812L276.085 524.702L279.853 529.372L279.718 529.481L275.95 524.812ZM279.355 533.573L275.547 529.088L280.121 525.205L283.929 529.69L279.355 533.573ZM292.88 526.077L283.576 533.925L279.708 529.338L289.012 521.491L292.88 526.077ZM298.19 526.162C296.726 524.829 294.451 524.753 292.879 526.078L289.013 521.49C292.907 518.208 298.561 518.386 302.229 521.726L298.19 526.162ZM330.62 564.952L297.909 525.87L302.51 522.019L335.222 561.101L330.62 564.952ZM329.921 563.027V547.198H335.921V563.027H329.921ZM329.921 547.198C329.921 540.814 335.089 535.629 341.475 535.629V541.629C338.413 541.629 335.921 544.118 335.921 547.198H329.921ZM341.475 535.629H380.931V541.629H341.475V535.629ZM377.931 538.629V507.137H383.931V538.629H377.931ZM377.931 507.137C377.931 503.883 380.565 501.238 383.826 501.238V507.238C383.888 507.238 383.931 507.187 383.931 507.137H377.931ZM383.826 501.238H396.27V507.238H383.826V501.238ZM399.27 504.238V580.768H393.27V504.238H399.27ZM396.27 583.768H384.724V577.768H396.27V583.768ZM384.724 583.768C380.966 583.768 377.927 580.716 377.927 576.963H383.927C383.927 577.412 384.289 577.768 384.724 577.768V583.768ZM377.927 576.963V553.98H383.927V576.963H377.927ZM380.927 556.98H347.632V550.98H380.927V556.98ZM350.632 553.98V580.603H344.632V553.98H350.632Z" fill="black" mask="url(#path-25-inside-2_0_1)"/>
<circle cx="2.74174" cy="2.74174" r="2.74174" transform="matrix(1 0 0 -1 255.182 536.131)" fill="#BF1A2F"/>
<path d="M159.344 477.565L159.344 477.565L126.122 516.835L126.122 516.835L63.5009 590.85L63.5006 590.851C62.699 591.799 61.2855 591.917 60.3447 591.126C60.3445 591.125 60.3444 591.125 60.3442 591.125L31.5983 566.917L31.5979 566.917C30.6599 566.128 30.5385 564.724 31.3391 563.777L98.4444 484.459L98.4482 484.455C98.7856 484.053 99.2624 483.78 99.7862 483.692L99.7868 483.692L157.271 473.932L157.271 473.932C159.327 473.583 160.69 475.975 159.344 477.565Z" fill="white" stroke="black" stroke-width="3"/>
<path d="M121.846 480.027L42.1464 575.018L30.5621 565.287L98.6773 483.734L121.846 480.027Z" fill="#D9D9D9"/>
<path d="M159.344 477.565L159.344 477.565L126.122 516.835L126.122 516.835L63.5009 590.85L63.5006 590.851C62.699 591.799 61.2855 591.917 60.3447 591.126C60.3445 591.125 60.3444 591.125 60.3442 591.125L31.5983 566.917L31.5979 566.917C30.6599 566.128 30.5385 564.724 31.3391 563.777L98.4444 484.459L98.4482 484.455C98.7856 484.053 99.2624 483.78 99.7862 483.692L99.7868 483.692L157.271 473.932L157.271 473.932C159.327 473.583 160.69 475.975 159.344 477.565Z" stroke="black" stroke-width="3"/>
<mask id="path-31-inside-3_0_1" fill="white">
<path fill-rule="evenodd" clip-rule="evenodd" d="M48.892 510.813L22.0122 542.928C21.1476 545.263 21.7479 547.978 23.7012 549.721L31.2796 556.493L31.2801 556.504L92.3699 483.092C94.2439 480.836 96.8485 479.308 99.732 478.773L144.756 470.378L148.595 465.837C149.869 464.327 149.7 462.07 148.21 460.764L129.463 444.339C127.858 442.932 125.419 443.105 124.028 444.713L118.991 450.555C117.457 452.33 117.707 455.025 119.531 456.497L119.668 456.608L115.807 461.156L106.372 453.198C103.601 450.862 99.5806 450.992 96.9783 453.361L63.8099 492.989V476.942C63.8099 472.144 59.9262 468.253 55.1358 468.253H15.126V436.319C15.126 434.695 13.8127 433.379 12.191 433.379H-0.42746V510.983H11.2797C13.4061 510.983 15.1306 509.255 15.1306 507.125V483.82H48.892V510.813Z"/>
</mask>
<path fill-rule="evenodd" clip-rule="evenodd" d="M48.892 510.813L22.0122 542.928C21.1476 545.263 21.7479 547.978 23.7012 549.721L31.2796 556.493L31.2801 556.504L92.3699 483.092C94.2439 480.836 96.8485 479.308 99.732 478.773L144.756 470.378L148.595 465.837C149.869 464.327 149.7 462.07 148.21 460.764L129.463 444.339C127.858 442.932 125.419 443.105 124.028 444.713L118.991 450.555C117.457 452.33 117.707 455.025 119.531 456.497L119.668 456.608L115.807 461.156L106.372 453.198C103.601 450.862 99.5806 450.992 96.9783 453.361L63.8099 492.989V476.942C63.8099 472.144 59.9262 468.253 55.1358 468.253H15.126V436.319C15.126 434.695 13.8127 433.379 12.191 433.379H-0.42746V510.983H11.2797C13.4061 510.983 15.1306 509.255 15.1306 507.125V483.82H48.892V510.813Z" fill="white"/>
<path d="M22.0122 542.928L19.7117 541.003L19.379 541.4L19.199 541.886L22.0122 542.928ZM48.892 510.813L51.1926 512.738L51.892 511.903V510.813H48.892ZM23.7012 549.721L25.7002 547.484L25.6989 547.483L23.7012 549.721ZM31.2796 556.493L34.2759 556.345L34.2137 555.092L33.2786 554.257L31.2796 556.493ZM31.2801 556.504L28.2838 556.653L28.6653 564.336L33.5861 558.423L31.2801 556.504ZM92.3699 483.092L94.6759 485.011L94.6774 485.009L92.3699 483.092ZM99.732 478.773L100.279 481.723L100.282 481.722L99.732 478.773ZM144.756 470.378L145.306 473.327L146.357 473.131L147.047 472.315L144.756 470.378ZM148.595 465.837L150.886 467.774L150.888 467.771L148.595 465.837ZM148.21 460.764L150.188 458.508L150.187 458.507L148.21 460.764ZM129.463 444.339L127.485 446.595L127.486 446.596L129.463 444.339ZM124.028 444.713L121.759 442.751L121.756 442.754L124.028 444.713ZM118.991 450.555L121.261 452.517L121.263 452.514L118.991 450.555ZM119.531 456.497L121.415 454.163L121.415 454.163L119.531 456.497ZM119.668 456.608L121.955 458.55L123.946 456.205L121.552 454.273L119.668 456.608ZM115.807 461.156L113.872 463.449L116.158 465.377L118.094 463.098L115.807 461.156ZM106.372 453.198L108.306 450.905L108.305 450.904L106.372 453.198ZM96.9783 453.361L94.9586 451.142L94.8082 451.279L94.6777 451.435L96.9783 453.361ZM63.8099 492.989H60.8099V501.248L66.1104 494.915L63.8099 492.989ZM15.126 468.253H12.126V471.253H15.126V468.253ZM-0.42746 433.379V430.379H-3.42746V433.379H-0.42746ZM-0.42746 510.983H-3.42746V513.983H-0.42746V510.983ZM15.1306 483.82V480.82H12.1306V483.82H15.1306ZM48.892 483.82H51.892V480.82H48.892V483.82ZM24.3128 544.854L51.1926 512.738L46.5915 508.887L19.7117 541.003L24.3128 544.854ZM25.6989 547.483C24.6927 546.585 24.3769 545.181 24.8254 543.97L19.199 541.886C17.9183 545.344 18.803 549.37 21.7034 551.959L25.6989 547.483ZM33.2786 554.257L25.7002 547.484L21.7022 551.958L29.2806 558.73L33.2786 554.257ZM34.2764 556.355L34.2759 556.345L28.2833 556.642L28.2838 556.653L34.2764 556.355ZM90.0638 481.173L28.9741 554.585L33.5861 558.423L94.6759 485.011L90.0638 481.173ZM99.1845 475.823C95.6119 476.487 92.3845 478.379 90.0623 481.174L94.6774 485.009C96.1033 483.292 98.0851 482.13 100.279 481.723L99.1845 475.823ZM144.206 467.429L99.1821 475.824L100.282 481.722L145.306 473.327L144.206 467.429ZM146.304 463.9L142.465 468.441L147.047 472.315L150.886 467.774L146.304 463.9ZM146.233 463.02C146.494 463.249 146.521 463.643 146.302 463.903L150.888 467.771C153.217 465.011 152.906 460.891 150.188 458.508L146.233 463.02ZM127.486 446.596L146.233 463.02L150.187 458.507L131.44 442.083L127.486 446.596ZM126.297 446.675C126.6 446.325 127.133 446.286 127.485 446.595L131.44 442.083C128.582 439.578 124.238 439.884 121.759 442.751L126.297 446.675ZM121.263 452.514L126.3 446.672L121.756 442.754L116.719 448.596L121.263 452.514ZM121.415 454.163C120.904 453.75 120.842 453.001 121.261 452.517L116.721 448.594C114.073 451.658 114.509 456.3 117.647 458.832L121.415 454.163ZM121.552 454.273L121.415 454.163L117.647 458.832L117.784 458.942L121.552 454.273ZM118.094 463.098L121.955 458.55L117.381 454.666L113.52 459.214L118.094 463.098ZM104.438 455.491L113.872 463.449L117.741 458.863L108.306 450.905L104.438 455.491ZM98.9979 455.579C100.498 454.213 102.828 454.135 104.439 455.492L108.305 450.904C104.373 447.59 98.6629 447.77 94.9586 451.142L98.9979 455.579ZM66.1104 494.915L99.2788 455.286L94.6777 451.435L61.5093 491.064L66.1104 494.915ZM66.8099 492.989V476.942H60.8099V492.989H66.8099ZM66.8099 476.942C66.8099 470.492 61.588 465.253 55.1358 465.253V471.253C58.2644 471.253 60.8099 473.795 60.8099 476.942H66.8099ZM55.1358 465.253H15.126V471.253H55.1358V465.253ZM18.126 468.253V436.319H12.126V468.253H18.126ZM18.126 436.319C18.126 433.043 15.4745 430.379 12.191 430.379V436.379C12.1874 436.379 12.1762 436.378 12.1639 436.373C12.1535 436.368 12.1472 436.363 12.1434 436.36C12.1397 436.356 12.1353 436.35 12.1315 436.341C12.1295 436.336 12.1279 436.331 12.127 436.327C12.126 436.322 12.126 436.319 12.126 436.319H18.126ZM12.191 430.379H-0.42746V436.379H12.191V430.379ZM-3.42746 433.379V510.983H2.57254V433.379H-3.42746ZM-0.42746 513.983H11.2797V507.983H-0.42746V513.983ZM11.2797 513.983C15.0679 513.983 18.1306 510.907 18.1306 507.125H12.1306C12.1306 507.603 11.7443 507.983 11.2797 507.983V513.983ZM18.1306 507.125V483.82H12.1306V507.125H18.1306ZM15.1306 486.82H48.892V480.82H15.1306V486.82ZM45.892 483.82V510.813H51.892V483.82H45.892Z" fill="black" mask="url(#path-31-inside-3_0_1)"/>
<circle cx="139.858" cy="462.94" r="2.78021" transform="rotate(180 139.858 462.94)" fill="#BF1A2F"/>
</svg>
