<svg width="328" height="189" viewBox="0 0 328 189" fill="none" xmlns="http://www.w3.org/2000/svg">
<mask id="mask0_317_119" style="mask-type:alpha" maskUnits="userSpaceOnUse" x="84" y="0" width="154" height="170">
<path d="M137.466 22.9859C128.837 7.16575 143.459 12.7987 151.848 17.5927C150.05 14.5962 154.544 7.70311 154.544 2.31039C154.544 -5.31704 161.735 7.704 167.128 15.7948C172.428 23.7458 175.218 13.9967 182.409 8.60334C190.826 2.29065 188.701 12.1989 186.005 17.5927C183.11 23.3819 180.012 35.2703 177.016 40.0639C188.701 46.0564 215.308 61.4572 228.252 75.12C244.432 92.1987 233.645 125.457 234.544 138.94C235.443 152.423 233.645 160.513 208.477 160.513C183.308 160.513 192.297 164.109 186.005 166.805C179.713 169.502 151.848 171.3 137.466 164.109C123.084 156.918 125.78 163.21 102.409 156.918C79.0386 150.625 87.1282 135.345 84.4316 128.154C81.7349 120.963 92.5214 101.187 93.4203 83.2099C94.1394 68.8279 106.304 60.4384 112.297 58.0414L156.342 43.6594C137.465 40.0639 148.253 42.7612 137.466 22.9859Z" fill="#3C3C3C"/>
</mask>
<g mask="url(#mask0_317_119)">
<path d="M137.466 22.9859C128.837 7.16575 143.459 12.7987 151.848 17.5927C150.05 14.5962 154.544 7.70311 154.544 2.31039C154.544 -5.31704 161.735 7.704 167.128 15.7948C172.428 23.7458 175.218 13.9967 182.409 8.60334C190.826 2.29065 188.701 12.1989 186.005 17.5927C183.11 23.3819 180.012 35.2703 177.016 40.0639C188.701 46.0564 215.308 61.4572 228.252 75.12C244.432 92.1987 233.645 125.457 234.544 138.94C235.443 152.423 233.645 160.513 208.477 160.513C183.308 160.513 192.297 164.109 186.005 166.805C179.713 169.502 151.848 171.3 137.466 164.109C123.084 156.918 125.78 163.21 102.409 156.918C79.0386 150.625 87.1282 135.345 84.4316 128.154C81.7349 120.963 92.5214 101.187 93.4203 83.2099C94.1394 68.8279 106.304 60.4384 112.297 58.0414L156.342 43.6594C137.465 40.0639 148.253 42.7612 137.466 22.9859Z" fill="#3C3C3C"/>
<path d="M146.454 134.445C161.555 127.973 171.922 108.377 175.218 99.3884C178.813 106.579 162.634 138.04 151.847 139.838C141.061 141.636 127.578 142.534 146.454 134.445Z" fill="#525252"/>
<path d="M128.046 69.2131C138.832 63.4603 150.649 51.8348 151.847 52.1345C143.327 56.5874 134.338 78.2018 128.945 79.1007C123.552 79.9996 110.067 81.7973 107.371 75.5052C104.674 69.2131 114.563 76.4041 128.046 69.2131Z" fill="#525252"/>
<path d="M159.04 30.1752C161.916 30.8943 157.109 5.39299 155.911 -1.798C157.349 -6.1126 159.04 -1.88461 158.141 -4.88086C156.043 -3.98199 151.308 -1.10559 149.152 3.20901C146.996 7.52361 152.317 11.0859 154.113 15.2806C155.312 17.9772 156.164 29.4561 159.04 30.1752Z" fill="#525252"/>
<path d="M167.13 31.973L189.602 13.9955C200.089 7.10413 215.849 -2.18424 194.995 15.7932C174.141 33.7707 167.729 34.0704 167.13 31.973Z" fill="#525252"/>
<path d="M195.892 95.7926C212.431 87.8825 190.798 58.3395 177.914 44.5568H203.982L254.319 103.882L238.14 168.601L159.937 173.995L151.848 166.804C159.338 164.407 176.117 159.073 183.308 156.916C190.499 154.759 192.896 151.822 193.196 150.624C191.098 150.924 182.768 150.804 166.229 147.927C145.555 144.332 174.319 129.95 179.712 108.377C184.026 91.1185 192.296 92.7964 195.892 95.7926Z" fill="#282828"/>
<path d="M131.174 80.5117C134.769 77.6354 151.848 55.3433 159.937 44.5568L160.837 60.7365C160.537 66.729 156.702 78.8938 143.758 79.6129C133.453 80.1853 129.347 81.8516 128.884 82.0574C128.824 82.0844 128.826 82.0863 128.884 82.0574C129.081 81.9606 129.916 81.5175 131.174 80.5117Z" fill="#282828"/>
<path d="M179.712 69.7253C181.868 63.2534 173.119 51.5351 168.925 45.8422C168.059 45.6979 168.248 44.4884 169.139 42.5746C159.761 44.204 150.955 45.3673 148.718 44.5568C144.75 43.1186 154.256 43.0167 157.707 42.2467L170.029 40.8384C174.669 32.4093 187.622 15.675 190.965 8.98838C192.763 9.58763 197.256 19.5951 193.662 22.4715C190.829 24.7385 183.878 33.7952 177.777 39.953L189.167 38.6512C185.741 39.395 181.239 40.324 176.475 41.2337C173.415 44.1587 170.673 46.1336 168.925 45.8422C170.723 47.0407 175.758 48.8714 177.914 51.7478C180.07 54.6242 183.608 64.9313 185.107 69.7253C182.41 72.4219 177.556 76.1972 179.712 69.7253Z" fill="#282828"/>
<path d="M114.096 126.354C106.905 117.725 109.302 105.381 111.399 100.287C99.8945 108.197 103.01 145.53 106.005 163.208C111.998 168.302 125.061 175.433 129.376 163.208C134.769 147.927 123.085 137.141 114.096 126.354Z" fill="#282828"/>
<path d="M123.981 66.1298C134.047 64.6916 141.36 49.95 143.758 42.759L97.9141 60.7365C102.409 63.1335 113.916 67.568 123.981 66.1298Z" fill="#282828"/>
<path d="M168.925 23.8827C166.768 23.1636 172.221 11.5981 175.217 5.90518C179.412 4.40706 187.801 2.30968 187.801 5.90518C187.801 10.3996 171.622 24.7815 168.925 23.8827Z" fill="#282828"/>
<path d="M142.858 27.4785C138.543 21.7257 135.068 21.486 133.869 22.0853C129.075 26.5796 123.981 35.9279 141.959 37.3661C164.431 39.1639 148.251 34.6695 142.858 27.4785Z" fill="#282828"/>
</g>
<mask id="mask1_317_119" style="mask-type:alpha" maskUnits="userSpaceOnUse" x="192" y="35" width="136" height="135">
<path d="M280.549 53.2304C288.207 40.6832 275.231 45.1508 267.785 48.953C269.381 46.5764 265.392 41.1094 265.392 36.8324C265.392 30.783 259.01 41.1101 254.224 47.527C249.52 53.833 247.044 46.1009 240.662 41.8234C233.192 36.8167 235.078 44.6751 237.471 48.953C240.04 53.5444 242.789 62.9733 245.449 66.7751C235.078 71.5278 211.465 83.7423 199.977 94.5785C185.617 108.124 195.19 134.501 194.393 145.195C193.595 155.888 195.19 162.305 217.527 162.305C239.864 162.305 231.887 165.156 237.471 167.295C243.055 169.434 267.785 170.86 280.549 165.156C293.313 159.453 290.92 164.443 311.662 159.453C332.403 154.463 325.224 142.343 327.617 136.64C330.01 130.937 320.437 115.253 319.639 100.995C319.001 89.5882 308.205 82.9344 302.887 81.0333L263.797 69.6268C280.55 66.7751 270.976 68.9143 280.549 53.2304Z" fill="#3C3C3C"/>
</mask>
<g mask="url(#mask1_317_119)">
<path d="M280.549 53.2304C288.207 40.6832 275.231 45.1508 267.785 48.953C269.381 46.5764 265.392 41.1094 265.392 36.8324C265.392 30.783 259.01 41.1101 254.224 47.527C249.52 53.833 247.044 46.1009 240.662 41.8234C233.192 36.8167 235.078 44.6751 237.471 48.953C240.04 53.5444 242.789 62.9733 245.449 66.7751C235.078 71.5278 211.465 83.7423 199.977 94.5785C185.617 108.124 195.19 134.501 194.393 145.195C193.595 155.888 195.19 162.305 217.527 162.305C239.864 162.305 231.887 165.156 237.471 167.295C243.055 169.434 267.785 170.86 280.549 165.156C293.313 159.453 290.92 164.443 311.662 159.453C332.403 154.463 325.224 142.343 327.617 136.64C330.01 130.937 320.437 115.253 319.639 100.995C319.001 89.5882 308.205 82.9344 302.887 81.0333L263.797 69.6268C280.55 66.7751 270.976 68.9143 280.549 53.2304Z" fill="#3C3C3C"/>
<path d="M272.571 141.629C259.169 136.496 249.968 120.955 247.043 113.826C243.853 119.529 258.212 144.481 267.785 145.907C277.358 147.333 289.324 148.046 272.571 141.629Z" fill="#525252"/>
<path d="M288.908 89.8936C279.335 85.331 268.848 76.1107 267.785 76.3484C275.346 79.8801 283.324 97.0227 288.111 97.7356C292.897 98.4485 304.864 99.8743 307.257 94.8839C309.651 89.8936 300.875 95.5968 288.908 89.8936Z" fill="#525252"/>
<path d="M261.401 58.9323C258.848 59.5026 263.114 39.2772 264.178 33.574C262.902 30.152 261.401 33.5053 262.199 31.1289C264.061 31.8418 268.263 34.1231 270.176 37.5451C272.09 40.967 267.368 43.7923 265.774 47.1192C264.709 49.2579 263.954 58.3619 261.401 58.9323Z" fill="#525252"/>
<path d="M254.221 60.3581L234.278 46.0999C224.971 40.6343 210.983 33.2676 229.491 47.5258C247.999 61.7839 253.69 62.0215 254.221 60.3581Z" fill="#525252"/>
<path d="M228.698 110.975C214.019 104.701 233.218 81.2701 244.652 70.3389H221.517L176.843 117.391L191.203 168.72L260.607 172.997L267.786 167.294C261.139 165.393 246.247 161.163 239.865 159.452C233.483 157.741 231.356 155.412 231.09 154.462C232.952 154.7 240.345 154.604 255.023 152.323C273.371 149.472 247.843 138.065 243.057 120.955C239.228 107.267 231.889 108.598 228.698 110.975Z" fill="#282828"/>
<path d="M286.135 98.8552C282.944 96.5739 267.786 78.8938 260.607 70.3389L259.808 83.1712C260.074 87.9239 263.479 97.5719 274.966 98.1423C284.111 98.5963 287.756 99.9178 288.166 100.081C288.22 100.102 288.218 100.104 288.166 100.081C287.992 100.004 287.25 99.6528 286.135 98.8552Z" fill="#282828"/>
<path d="M243.057 90.3003C241.144 85.1674 248.909 75.8735 252.63 71.3584C253.399 71.2439 253.231 70.2847 252.44 68.7668C260.763 70.0591 268.579 70.9818 270.564 70.3389C274.086 69.1982 265.649 69.1175 262.586 68.5068L251.65 67.3898C247.533 60.7046 236.037 47.4325 233.07 42.1292C231.474 42.6045 227.486 50.5415 230.677 52.8228C233.191 54.6208 239.359 61.8038 244.774 66.6876L234.665 65.6551C237.706 66.245 241.702 66.9819 245.93 67.7033C248.646 70.0232 251.079 71.5895 252.63 71.3584C251.035 72.3089 246.566 73.7608 244.652 76.0422C242.739 78.3235 239.6 86.4981 238.269 90.3003C240.662 92.439 244.97 95.4332 243.057 90.3003Z" fill="#282828"/>
<path d="M301.291 135.213C307.673 128.37 305.546 118.579 303.684 114.539C313.895 120.813 311.13 150.422 308.471 164.443C303.153 168.482 291.559 174.138 287.73 164.443C282.944 152.323 293.313 143.768 301.291 135.213Z" fill="#282828"/>
<path d="M292.518 87.4487C283.584 86.308 277.094 74.6163 274.966 68.9131L315.652 83.1712C311.663 85.0723 301.451 88.5893 292.518 87.4487Z" fill="#282828"/>
<path d="M252.63 53.942C254.545 53.3717 249.705 44.199 247.046 39.6839C243.323 38.4957 235.877 36.8323 235.877 39.6839C235.877 43.2484 250.237 54.6549 252.63 53.942Z" fill="#282828"/>
<path d="M275.765 56.7939C279.594 52.2313 282.679 52.0412 283.742 52.5165C287.997 56.081 292.518 63.4953 276.563 64.6359C256.619 66.0617 270.978 62.4972 275.765 56.7939Z" fill="#282828"/>
</g>
<mask id="mask2_317_119" style="mask-type:alpha" maskUnits="userSpaceOnUse" x="8" y="39" width="136" height="135">
<path d="M96.5488 57.2304C104.207 44.6832 91.2305 49.1508 83.7849 52.953C85.3806 50.5764 81.3923 45.1094 81.3923 40.8324C81.3923 34.783 75.0103 45.1101 70.2238 51.527C65.5201 57.833 63.0441 50.1009 56.6621 45.8234C49.1922 40.8167 51.0779 48.6751 53.4711 52.953C56.0398 57.5444 58.7894 66.9733 61.4486 70.7751C51.0779 75.5278 27.4645 87.7423 15.9769 98.5785C1.61745 112.124 11.1904 138.501 10.3927 149.195C9.59494 159.888 11.1904 166.305 33.5274 166.305C55.8644 166.305 47.8869 169.156 53.4711 171.295C59.0554 173.434 83.7849 174.86 96.5488 169.156C109.313 163.453 106.92 168.443 127.662 163.453C148.403 158.463 141.224 146.343 143.617 140.64C146.01 134.937 136.437 119.253 135.639 104.995C135.001 93.5882 124.205 86.9344 118.887 85.0333L79.7971 73.6268C96.5498 70.7751 86.9759 72.9143 96.5488 57.2304Z" fill="#3C3C3C"/>
</mask>
<g mask="url(#mask2_317_119)">
<path d="M96.5488 57.2304C104.207 44.6832 91.2305 49.1508 83.7849 52.953C85.3806 50.5764 81.3923 45.1094 81.3923 40.8324C81.3923 34.783 75.0103 45.1101 70.2238 51.527C65.5201 57.833 63.0441 50.1009 56.6621 45.8234C49.1922 40.8167 51.0779 48.6751 53.4711 52.953C56.0398 57.5444 58.7894 66.9733 61.4486 70.7751C51.0779 75.5278 27.4645 87.7423 15.9769 98.5785C1.61745 112.124 11.1904 138.501 10.3927 149.195C9.59494 159.888 11.1904 166.305 33.5274 166.305C55.8644 166.305 47.8869 169.156 53.4711 171.295C59.0554 173.434 83.7849 174.86 96.5488 169.156C109.313 163.453 106.92 168.443 127.662 163.453C148.403 158.463 141.224 146.343 143.617 140.64C146.01 134.937 136.437 119.253 135.639 104.995C135.001 93.5882 124.205 86.9344 118.887 85.0333L79.7971 73.6268C96.5498 70.7751 86.9759 72.9143 96.5488 57.2304Z" fill="#3C3C3C"/>
<path d="M88.5712 145.629C75.169 140.496 65.9683 124.955 63.0432 117.826C59.8527 123.529 74.2117 148.481 83.7847 149.907C93.3577 151.333 105.324 152.046 88.5712 145.629Z" fill="#525252"/>
<path d="M104.908 93.8936C95.3354 89.331 84.8484 80.1107 83.7847 80.3484C91.3462 83.8801 99.324 101.023 104.111 101.736C108.897 102.448 120.864 103.874 123.257 98.8839C125.651 93.8936 116.875 99.5968 104.908 93.8936Z" fill="#525252"/>
<path d="M77.4011 62.9323C74.8484 63.5026 79.1145 43.2772 80.1782 37.574C78.9018 34.152 77.4011 37.5053 78.1989 35.1289C80.0608 35.8418 84.263 38.1231 86.1764 41.5451C88.0897 44.967 83.3681 47.7923 81.7737 51.1192C80.7095 53.2579 79.9539 62.3619 77.4011 62.9323Z" fill="#525252"/>
<path d="M70.2214 64.3581L50.2777 50.0999C40.9706 44.6343 26.9834 37.2676 45.4912 51.5258C63.999 65.7839 69.6896 66.0215 70.2214 64.3581Z" fill="#525252"/>
<path d="M44.6975 114.975C30.0189 108.701 49.2181 85.2701 60.6525 74.3389H37.517L-7.15688 121.391L7.20258 172.72L76.6067 176.997L83.7865 171.294C77.1385 169.393 62.2472 165.163 55.8653 163.452C49.4833 161.741 47.3559 159.412 47.09 158.462C48.9517 158.7 56.3447 158.604 71.0232 156.323C89.3714 153.472 63.8435 142.065 59.057 124.955C55.2278 111.267 47.8885 112.598 44.6975 114.975Z" fill="#282828"/>
<path d="M102.135 102.855C98.9437 100.574 83.7865 82.8938 76.6067 74.3389L75.808 87.1712C76.0742 91.9239 79.4786 101.572 90.9662 102.142C100.111 102.596 103.756 103.918 104.166 104.081C104.22 104.102 104.218 104.104 104.166 104.081C103.992 104.004 103.25 103.653 102.135 102.855Z" fill="#282828"/>
<path d="M59.057 94.3003C57.1438 89.1674 64.9085 79.8735 68.6302 75.3584C69.3989 75.2439 69.2314 74.2847 68.4403 72.7668C76.7634 74.0591 84.5791 74.9818 86.564 74.3389C90.0857 73.1982 81.6494 73.1175 78.5865 72.5068L67.6503 71.3898C63.5328 64.7046 52.037 51.4325 49.0698 46.1292C47.4743 46.6045 43.4863 54.5415 46.6765 56.8228C49.1909 58.6208 55.3595 65.8038 60.7743 70.6876L50.6653 69.6551C53.7063 70.245 57.7021 70.9819 61.9299 71.7033C64.6459 74.0232 67.0789 75.5895 68.6302 75.3584C67.0347 76.3089 62.5657 77.7608 60.6525 80.0422C58.7393 82.3235 55.5995 90.4981 54.2688 94.3003C56.662 96.439 60.9702 99.4332 59.057 94.3003Z" fill="#282828"/>
<path d="M117.291 139.213C123.673 132.37 121.546 122.579 119.684 118.539C129.895 124.813 127.13 154.422 124.471 168.443C119.153 172.482 107.559 178.138 103.73 168.443C98.9435 156.323 109.313 147.768 117.291 139.213Z" fill="#282828"/>
<path d="M108.518 91.4487C99.5844 90.308 93.0945 78.6163 90.9662 72.9131L131.652 87.1712C127.663 89.0723 117.451 92.5893 108.518 91.4487Z" fill="#282828"/>
<path d="M68.6302 57.942C70.5448 57.3717 65.7051 48.199 63.046 43.6839C59.3231 42.4957 51.8775 40.8323 51.8775 43.6839C51.8775 47.2484 66.237 58.6549 68.6302 57.942Z" fill="#282828"/>
<path d="M91.7649 60.7939C95.5941 56.2313 98.6787 56.0412 99.7424 56.5165C103.997 60.081 108.518 67.4953 92.5627 68.6359C72.6189 70.0617 86.9784 66.4972 91.7649 60.7939Z" fill="#282828"/>
</g>
<path fill-rule="evenodd" clip-rule="evenodd" d="M221.922 155.401C224.634 151.906 219.777 151.131 216.492 151.732C213.207 152.333 207.891 155.027 207.203 158.075C210.1 158.637 214.943 160.049 211.14 161.201C209.123 161.812 208.171 162.058 207.791 162.121C207.788 162.075 207.787 162.03 207.787 161.988C207.567 162.091 207.455 162.177 207.791 162.121C207.865 163.17 208.874 165.37 212.495 166.77C216.276 168.232 218.41 168.043 219.004 167.766C218.916 166.261 218.993 163.626 219.566 160.988C220.539 161.038 221.844 161.181 223.339 161.417C222.858 163.398 223.092 165.747 224.708 168.364C224.259 167.073 223.942 164.563 224.695 161.649C225.988 161.885 227.378 162.183 228.788 162.544C228.14 165.138 228.978 167.662 229.842 169.071C229.385 166.882 229.612 164.766 230.149 162.909C231.547 163.304 232.942 163.76 234.258 164.276C233.688 166.596 234.588 168.715 235.478 169.855C234.842 168.266 234.98 166.472 235.472 164.78C236.084 165.049 236.672 165.332 237.229 165.629C237.813 165.942 238.545 166.238 239.36 166.508C239.173 168.235 239.966 169.697 240.74 170.503C240.196 169.434 240.207 168.149 240.513 166.859C242.024 167.28 243.696 167.614 245.204 167.813C245.037 169.272 245.541 170.547 246.061 171.278C245.719 170.17 245.769 169.009 246.03 167.91C247.53 168.063 248.785 168.061 249.424 167.851C249.65 168.779 250.475 170.772 251.968 171.316C252.249 171.418 252.52 171.521 252.776 171.619C254.227 172.173 255.228 172.555 255.041 171.589C254.865 170.679 253.877 168.205 253.405 167.081L255.877 164.069C256.42 163.351 257.063 162.091 255.283 162.796C254.715 163.021 254.203 163.109 253.718 163.191C252.305 163.432 251.115 163.635 249.382 167.096C248.641 167.149 247.534 167.166 246.266 167.085C246.83 165.405 247.808 163.95 248.484 163.174C246.635 164.396 245.722 165.746 245.363 167.013C243.867 166.868 242.227 166.584 240.734 166.074C241.363 164.127 242.549 162.262 243.385 161.21C241.096 162.673 239.973 164.199 239.545 165.604C239.336 165.508 239.133 165.406 238.935 165.299C238.139 164.867 237.048 164.364 235.787 163.831C236.509 161.893 237.613 160.177 238.412 159.188C236.339 160.494 235.162 161.929 234.573 163.33C233.303 162.817 231.919 162.289 230.522 161.783C231.314 159.664 232.45 157.989 233.253 157.097C231.133 158.333 229.882 159.808 229.211 161.314C227.831 160.829 226.472 160.374 225.234 159.984C225.829 158.458 226.74 156.869 228.085 155.32C226.761 156.082 225.039 157.567 224.009 159.608C222.25 159.083 220.86 158.739 220.205 158.7C220.63 157.485 221.191 156.345 221.922 155.401ZM212.747 156.459C213.172 157.071 214.245 157.063 215.144 156.44C216.044 155.816 216.429 154.815 216.004 154.202C215.58 153.589 214.506 153.598 213.607 154.221C212.707 154.844 212.322 155.846 212.747 156.459Z" fill="white"/>
<path d="M14.919 151.288C11.3964 148.226 7.90646 152.564 6.6018 155.116C6.01472 155.803 4.48829 157.844 3.07926 160.514C1.31797 163.85 5.4276 169.935 9.24379 171.505C12.2967 172.762 13.4513 170.72 13.647 169.543C20.2029 165.715 14.9191 171.211 18.6374 171.996C22.3556 172.781 25.2911 176.707 26.7589 172.389C28.2266 168.07 29.5964 169.837 31.4557 169.248C33.3149 168.659 35.3696 171.996 38.9901 170.916C42.6105 169.837 42.0233 165.421 42.4147 163.948C42.8061 162.476 44.2739 161.495 40.262 153.447C36.2502 145.4 35.8588 153.938 33.9997 154.134C32.1405 154.331 31.162 157.177 29.5964 158.943C28.0308 160.71 29.1072 164.047 27.0523 161.495C24.9975 158.943 24.019 159.041 23.2362 162.673C22.4534 166.304 20.3008 162.967 20.4965 161.986C20.6531 161.2 20.0399 160.546 19.7137 160.317C19.3223 159.827 18.6373 157.981 19.0287 154.527C19.4201 151.072 16.452 150.928 14.919 151.288Z" fill="#EAFEFF" stroke="#82B6D8"/>
<path d="M0.92179 158.607L3.035 155.232C3.47664 154.527 4.3804 154.27 5.12686 154.638C5.95597 155.047 6.27655 156.064 5.83128 156.874L3.91309 160.364C3.43352 161.236 2.31983 161.527 1.47488 161.001C0.660231 160.493 0.412402 159.421 0.92179 158.607Z" fill="#00437F"/>
<path d="M32.5804 156.967C32.1409 157.527 31.8454 158.248 31.8149 158.954C31.9382 158.954 32.1964 158.69 32.079 158.896C31.9962 159.041 31.8217 159.154 31.7012 159.266C31.4658 159.486 31.2047 159.679 30.9641 159.893C29.8533 160.883 29.2822 162.311 28.7594 163.643C28.52 164.253 28.4322 164.878 28.3483 165.522L28.348 165.524C28.2972 165.915 28.2457 166.31 28.1009 166.679C27.8407 167.344 27.3712 167.809 26.9175 168.362C26.3154 169.095 25.6518 169.813 25.1641 170.623C24.8366 171.167 24.3835 171.804 24.3835 172.455C24.3835 172.659 24.3328 173.032 24.6242 173.05C25.0066 173.073 25.176 172.858 25.4018 172.572L25.4048 172.568C25.8726 171.975 26.1843 171.309 26.5598 170.663C27.1347 169.674 27.8786 168.888 28.8464 168.23C29.3792 167.867 29.9794 167.645 30.5646 167.379C30.7912 167.276 30.9462 167.042 31.0744 166.842C31.488 166.199 31.6608 165.445 32.0021 164.771C32.7157 163.362 33.4692 161.95 33.9243 160.439C34.0111 160.151 34.0557 159.62 33.8608 159.366C33.6965 159.152 33.1845 159.246 32.9548 159.244C32.8918 159.243 32.7904 159.264 32.8312 159.182C32.9438 158.958 33.033 158.722 33.1621 158.506C33.3526 158.186 33.6491 157.936 33.8758 157.642C34.2074 157.211 34.5762 156.594 34.5762 156.043C34.5762 155.911 34.3204 155.763 34.1901 155.763C34.0636 155.763 33.951 155.851 33.8508 155.914C33.3834 156.208 32.9199 156.534 32.5804 156.967Z" fill="#82B6D8"/>
<path d="M38.8069 161.937C38.6532 162.167 38.4297 162.335 38.2348 162.529C38.2043 162.621 38.0452 162.719 38.0346 162.814C38.012 163.017 37.635 163.207 37.5038 163.283C36.8567 163.66 36.255 164.083 35.6875 164.573C35.0516 165.123 34.4827 165.746 33.8744 166.326C33.3815 166.795 32.8562 167.235 32.3743 167.715C32.2224 167.867 31.6593 168.788 32.0565 168.898C32.2155 168.942 32.4085 168.912 32.5713 168.912C33.2927 168.912 33.999 168.95 34.7166 168.998C35.2168 169.031 35.702 169.116 36.1992 169.156C36.6572 169.193 37.1209 169.206 37.5722 169.298C37.7969 169.345 38.0109 169.434 38.238 169.469C38.53 169.514 38.8898 169.517 39.1803 169.481C39.2889 169.467 39.5024 169.438 39.5919 169.381C39.9348 169.163 40.2345 168.89 40.4087 168.512C40.6404 168.008 40.7001 167.504 40.8362 166.967C40.8952 166.734 40.9519 166.498 40.9172 166.256C40.8873 166.047 40.8036 165.851 40.8536 165.637C40.8929 165.469 40.9794 165.322 41.0094 165.151C41.0657 164.83 41.1063 164.517 41.1301 164.192C41.1575 163.819 41.1477 163.449 41.154 163.076C41.1639 162.484 41.2654 161.91 41.4035 161.336C41.4996 160.937 41.7074 160.482 41.6641 160.062C41.644 159.867 41.5696 159.466 41.3971 159.341C41.2626 159.244 41.0354 159.397 40.9172 159.452C40.439 159.675 40.0857 160.009 39.7651 160.427C39.4007 160.903 39.1387 161.442 38.8069 161.937Z" fill="#82B6D8"/>
<path d="M15.4849 153.136C15.3675 153.125 15.076 153.067 14.9514 153.139C14.7067 153.221 14.6293 153.452 14.6293 153.682C14.6293 153.853 14.802 153.912 14.9384 153.976C15.1048 154.054 15.3157 154.099 15.4914 154.162C15.7705 154.263 16.1173 154.285 16.3697 154.447C16.4301 154.485 16.5072 154.497 16.5681 154.535C16.6677 154.598 16.7432 154.685 16.8381 154.754C17.0021 154.873 17.1834 155.011 17.3082 155.169C17.53 155.451 17.5552 155.595 17.4822 155.975C17.3915 156.448 17.2079 156.918 17.1471 157.391C17.0567 158.096 17.0418 158.806 16.978 159.512C16.9529 159.789 16.8939 160.065 16.8836 160.342C16.8776 160.507 16.3685 161.508 16.8316 161.526C16.9021 161.529 16.9514 161.512 17.0186 161.497C17.2185 161.449 17.222 161.327 17.2577 161.137C17.3298 160.753 17.3318 160.359 17.4155 159.976C17.5784 159.231 17.9461 158.562 18.0547 157.798C18.1646 157.025 18.2563 156.246 18.0645 155.48C17.9411 154.988 17.7189 154.594 17.4399 154.175C17.2253 153.854 17.0063 153.604 16.6738 153.404C16.3271 153.195 15.8771 153.171 15.4849 153.136Z" fill="#82B6D8"/>
<path d="M13.4948 153.137C13.1313 153.137 12.7016 153.158 12.3593 153.31C12.3302 153.527 11.9503 153.438 11.9398 153.622C11.9135 154.085 11.8362 154.456 11.893 154.941C11.9897 155.767 11.9398 156.62 11.9398 157.455C11.9398 158.024 11.8462 158.585 11.8462 159.146C11.8462 159.807 11.7994 160.484 11.7994 161.154L11.7994 161.173C11.7994 161.678 11.7994 162.244 11.8566 162.747C11.912 163.235 11.9891 163.852 12.2934 164.257C12.5657 164.62 12.6796 165.085 12.8447 165.504C12.9531 165.779 13.0798 166.042 13.1568 166.327C13.2807 166.788 13.3244 167.175 13.3674 167.646C13.3898 167.893 13.4581 168.306 13.3804 168.556C13.3236 168.739 13.2464 168.972 13.071 169.06C12.9236 169.133 12.6254 169.341 12.4547 169.367C12.1305 169.415 11.8287 169.569 11.4925 169.477C11.0891 169.366 10.847 169.038 10.5798 168.734C10.0743 168.158 9.57786 167.482 8.83756 167.259C8.53114 167.166 8.14439 167.161 7.91443 166.898C7.7141 166.669 7.58542 166.366 7.48276 166.08C7.35709 165.73 7.25913 165.43 7.25913 165.06V163.727C7.25913 162.918 7.15555 162.196 6.97829 161.407C6.85632 160.864 6.55038 160.413 6.36981 159.899C6.20731 159.437 6.18651 159.082 6.21899 158.596C6.2509 158.119 6.22631 157.307 6.88468 157.404C7.16957 157.446 7.47952 157.899 7.69079 158.08C8.05659 158.392 8.37893 158.741 8.65293 159.146C9.04998 159.732 9.27957 160.436 9.69048 161.008C9.82757 161.199 9.94257 161.374 10.1845 161.374C10.3268 161.374 10.4603 161.203 10.4992 161.073C10.6125 160.695 10.6262 160.264 10.7202 159.875C10.8261 159.437 10.7522 158.974 10.8632 158.543C10.9762 158.104 10.8853 157.645 10.9803 157.213C11.0402 156.94 11.0064 156.625 10.9803 156.349C10.9519 156.049 10.6898 153.551 10.3484 153.708C10.2187 153.768 10.1403 153.729 10.0207 153.84C9.82011 154.027 9.65825 154.281 9.46945 154.483C9.14938 154.826 8.77237 155.43 8.22127 155.267C8.00577 155.203 8.60975 154.346 8.66333 154.263C8.9756 153.778 9.40058 153.434 9.80749 153.041C10.0298 152.826 10.4294 152.682 10.7176 152.583C11.0279 152.476 11.3583 152.377 11.6798 152.316C12.0635 152.244 12.413 152.217 12.8083 152.217C13.2364 152.217 13.4818 152.209 13.695 152.602C13.7851 152.767 13.7184 152.773 13.7184 152.919C13.7184 153.103 13.6604 153.137 13.4948 153.137Z" fill="#82B6D8"/>
<path d="M294.411 151.811C293.848 150.668 292.823 149.106 291.441 148.338L292.556 146.708C292.855 146.271 293.387 146.055 293.907 146.159L295.524 146.482C296.327 147.349 297.636 149.208 297.801 150.969C297.874 151.753 298.277 152.682 298.845 153.227C299.827 154.169 301.117 156.014 302.329 159.268C303.648 159.913 306.841 162.12 310.206 161.823C314.412 161.452 316.185 162.442 313.092 163.432C310.618 164.223 306.782 164.542 305.174 164.603C309.309 168.331 316.839 167.29 318.041 169.494C319.229 171.671 313.835 171.968 310.989 171.845C307.855 171.708 303.649 170.731 302.329 169.865C301.24 169.151 298.483 167.542 296.934 163.432C296.34 164.504 295.662 167.508 294.411 168.504C292.39 170.112 282.534 171.845 280.43 169.494C278.768 167.636 284.455 168.966 287.972 167.448C288.059 167.411 288.139 167.362 288.214 167.305C289.564 166.283 290.48 165.398 291.093 164.603C288.817 165.243 285.833 164.603 282.286 163.432C278.799 162.28 282.576 161.081 285.957 162.318C288.252 163.158 291.142 161.617 292.23 161.081C292.162 160.09 291.891 159.122 291.936 157.988C292.014 156.037 293.174 154.316 294.106 153.312C294.487 152.902 294.659 152.313 294.411 151.811Z" fill="#E3B93E"/>
<path fill-rule="evenodd" clip-rule="evenodd" d="M293.88 146.288C293.412 146.194 292.934 146.389 292.665 146.782L291.691 148.205H294.335L295.314 146.574L293.88 146.288ZM295.545 146.702C295.922 147.13 296.386 147.747 296.786 148.455C297.229 149.24 297.588 150.126 297.669 150.981C297.744 151.792 298.159 152.751 298.753 153.321C299.716 154.246 300.997 156.072 302.204 159.313C302.413 159.872 302.619 160.474 302.82 161.12C303.299 162.65 304.096 163.809 305.085 164.7C307.184 166.592 310.135 167.268 312.682 167.749C312.941 167.798 313.194 167.845 313.443 167.89C314.426 168.071 315.324 168.236 316.068 168.451C317.006 168.721 317.652 169.057 317.924 169.557C318.062 169.81 318.098 170.022 318.065 170.201C318.032 170.38 317.929 170.545 317.753 170.697C317.397 171.006 316.773 171.238 315.999 171.402C314.46 171.73 312.412 171.774 310.994 171.712C309.437 171.644 307.61 171.367 306.008 170.999C304.399 170.629 303.039 170.173 302.401 169.754C302.343 169.716 302.28 169.675 302.213 169.632C301.027 168.865 298.508 167.235 297.057 163.384C296.096 160.836 295.554 157.777 296.025 154.667L295.764 154.627C295.288 157.768 295.829 160.852 296.788 163.421C296.644 163.696 296.496 164.071 296.341 164.49C296.292 164.621 296.242 164.757 296.191 164.896C296.067 165.234 295.937 165.591 295.795 165.947C295.596 166.45 295.378 166.946 295.134 167.376C294.888 167.808 294.621 168.166 294.328 168.4C293.845 168.784 292.873 169.189 291.633 169.54C290.399 169.89 288.919 170.182 287.436 170.352C285.952 170.521 284.47 170.567 283.232 170.425C281.986 170.283 281.019 169.954 280.528 169.405C280.324 169.176 280.262 169.027 280.264 168.937C280.266 168.868 280.309 168.795 280.467 168.724C280.625 168.652 280.863 168.6 281.175 168.561C281.483 168.522 281.852 168.497 282.266 168.475C282.417 168.467 282.575 168.459 282.738 168.451C284.335 168.371 286.404 168.268 288.024 167.569C288.121 167.527 288.211 167.473 288.293 167.41C289.649 166.383 290.575 165.49 291.197 164.683C292.268 163.296 292.437 162.168 292.361 161.071C292.335 160.692 292.28 160.315 292.224 159.937C292.206 159.815 292.188 159.692 292.171 159.57C292.101 159.064 292.046 158.548 292.068 157.993C292.144 156.087 293.28 154.396 294.203 153.401C294.609 152.964 294.808 152.318 294.529 151.752C294.017 150.712 293.118 149.311 291.902 148.469H294.342C294.644 148.901 295.062 149.588 295.374 150.311C295.538 150.687 295.671 151.07 295.745 151.43C295.82 151.79 295.834 152.118 295.766 152.388L296.023 152.452C296.104 152.128 296.083 151.757 296.004 151.376C295.925 150.994 295.785 150.593 295.617 150.205C295.299 149.472 294.878 148.776 294.568 148.331L295.545 146.702ZM296.919 163.758C296.815 163.986 296.706 164.267 296.588 164.582C296.54 164.711 296.491 164.845 296.441 164.983C296.316 165.323 296.184 165.685 296.041 166.045C295.84 166.552 295.617 167.061 295.364 167.507C295.111 167.952 294.824 168.343 294.492 168.607C293.965 169.027 292.947 169.442 291.705 169.794C290.457 170.148 288.962 170.444 287.466 170.614C285.97 170.785 284.467 170.832 283.202 170.688C281.946 170.544 280.892 170.208 280.331 169.581C280.12 169.346 279.996 169.13 280 168.931C280.005 168.712 280.162 168.572 280.358 168.483C280.554 168.394 280.825 168.338 281.142 168.299C281.461 168.258 281.838 168.233 282.251 168.211C282.403 168.203 282.56 168.195 282.722 168.187C284.326 168.106 286.346 168.005 287.919 167.326C287.995 167.293 288.066 167.251 288.134 167.199C289.307 166.31 290.147 165.529 290.743 164.825C288.478 165.309 285.595 164.663 282.244 163.557C281.803 163.411 281.469 163.262 281.233 163.114C281.001 162.968 280.843 162.811 280.787 162.638C280.725 162.45 280.795 162.281 280.932 162.151C281.064 162.026 281.265 161.927 281.506 161.852C282.47 161.553 284.29 161.567 286.002 162.193C287.11 162.599 288.372 162.433 289.507 162.088C290.529 161.779 291.429 161.331 291.997 161.048C292.029 161.032 292.061 161.016 292.091 161.001C292.064 160.664 292.014 160.329 291.963 159.983C291.945 159.859 291.927 159.734 291.909 159.606C291.838 159.096 291.78 158.561 291.804 157.982C291.883 155.985 293.068 154.236 294.009 153.222C294.365 152.838 294.509 152.308 294.292 151.869C293.732 150.733 292.723 149.201 291.377 148.453L291.25 148.382L292.447 146.633C292.776 146.152 293.36 145.914 293.932 146.028L295.591 146.36L295.621 146.392C296.029 146.832 296.563 147.522 297.016 148.325C297.469 149.126 297.847 150.05 297.932 150.956C298.003 151.713 298.394 152.61 298.936 153.131C299.932 154.086 301.223 155.937 302.434 159.172C302.649 159.279 302.91 159.424 303.207 159.589C303.363 159.676 303.53 159.769 303.706 159.864C304.242 160.157 304.865 160.482 305.552 160.777C306.926 161.368 308.542 161.837 310.194 161.691C311.251 161.598 312.158 161.59 312.876 161.646C313.589 161.703 314.133 161.824 314.45 162.001C314.608 162.089 314.734 162.204 314.774 162.355C314.817 162.514 314.753 162.667 314.635 162.798C314.518 162.929 314.333 163.056 314.088 163.18C313.84 163.306 313.523 163.432 313.132 163.557C310.798 164.304 307.272 164.631 305.511 164.72C307.53 166.393 310.282 167.027 312.731 167.489C312.986 167.537 313.237 167.583 313.483 167.629C314.468 167.81 315.383 167.978 316.141 168.196C317.081 168.467 317.828 168.827 318.157 169.43C318.315 169.721 318.371 169.995 318.325 170.248C318.279 170.502 318.134 170.716 317.926 170.896C317.517 171.252 316.836 171.495 316.054 171.661C314.483 171.995 312.41 172.038 310.983 171.976C309.406 171.907 307.563 171.628 305.949 171.257C304.34 170.887 302.937 170.422 302.256 169.975C302.198 169.937 302.135 169.896 302.068 169.853C300.901 169.098 298.415 167.49 296.919 163.758ZM305.222 164.468C306.859 164.403 310.622 164.082 313.051 163.305C313.434 163.183 313.737 163.061 313.968 162.945C314.201 162.827 314.353 162.717 314.439 162.622C314.523 162.527 314.53 162.464 314.519 162.424C314.506 162.375 314.455 162.306 314.321 162.232C314.056 162.084 313.561 161.966 312.855 161.91C312.155 161.855 311.263 161.862 310.217 161.954C308.503 162.106 306.84 161.619 305.447 161.02C304.75 160.72 304.118 160.39 303.579 160.097C303.398 159.998 303.228 159.903 303.07 159.815C302.887 159.714 302.72 159.621 302.569 159.54C302.739 160.012 302.907 160.512 303.073 161.041C303.53 162.504 304.286 163.612 305.222 164.468ZM292.108 161.288C291.54 161.571 290.624 162.026 289.584 162.342C288.428 162.692 287.098 162.876 285.911 162.442C284.242 161.831 282.482 161.826 281.584 162.105C281.36 162.175 281.203 162.258 281.114 162.342C281.03 162.422 281.016 162.49 281.038 162.556C281.065 162.639 281.158 162.755 281.374 162.89C281.585 163.023 281.896 163.163 282.327 163.305C285.854 164.47 288.787 165.095 291.015 164.487C291.953 163.257 292.145 162.256 292.108 161.288Z" fill="#763216"/>
<path d="M293.01 146.358C293.074 146.216 293.112 146.285 293.269 146.248C293.3 146.185 293.287 146.187 293.347 146.192C293.463 146.202 293.579 146.205 293.695 146.207L293.696 146.207C293.766 146.209 293.836 146.233 293.904 146.247C294.14 146.296 294.378 146.326 294.614 146.37C294.773 146.4 294.931 146.429 295.09 146.455C295.195 146.473 295.298 146.493 295.396 146.535C295.414 146.543 295.462 146.569 295.443 146.571C295.278 146.589 295.318 146.84 295.237 146.977C295.191 147.054 295.045 147.016 295.035 147.103C295.018 147.249 294.985 147.39 294.958 147.534C294.932 147.674 294.827 147.729 294.742 147.843C294.635 147.985 294.594 148.221 294.446 148.324C294.418 148.343 294.368 148.334 294.337 148.333C294.254 148.33 294.174 148.313 294.091 148.309C293.809 148.297 293.528 148.246 293.246 148.237C293.074 148.232 292.9 148.216 292.728 148.222C292.553 148.229 292.379 148.25 292.204 148.261C292.027 148.272 291.673 148.314 291.496 148.309C291.477 148.309 291.482 147.936 291.649 148.09C291.707 148.032 291.713 148.026 291.772 147.966C291.894 147.844 292.041 147.486 292.144 147.348C292.276 147.17 292.408 147.173 292.515 146.977C292.541 146.501 292.565 146.727 292.638 146.606C292.663 146.565 292.771 146.501 292.797 146.463C292.832 146.411 292.984 146.415 293.01 146.358Z" fill="#763216"/>
<path fill-rule="evenodd" clip-rule="evenodd" d="M294.021 155.425C294.186 155.26 294.372 155.199 294.542 155.266L294.444 155.512C294.407 155.497 294.329 155.491 294.208 155.612C294.085 155.735 293.939 155.972 293.795 156.386C293.506 157.21 293.239 158.69 293.14 161.209C293.015 164.408 291.569 166.426 289.757 167.654C287.952 168.878 285.792 169.315 284.229 169.378L284.219 169.114C285.749 169.052 287.857 168.623 289.609 167.435C291.355 166.251 292.754 164.31 292.876 161.199C292.975 158.671 293.244 157.16 293.545 156.298C293.695 155.868 293.858 155.588 294.021 155.425Z" fill="#763216"/>
<path fill-rule="evenodd" clip-rule="evenodd" d="M301.671 160.635C300.488 157.678 299.13 156.049 298.615 155.614L298.786 155.412C299.344 155.884 300.723 157.554 301.916 160.536C301.982 160.701 302.048 160.867 302.113 161.032C302.784 162.737 303.461 164.456 305.113 165.899C306.923 167.481 309.922 168.744 315.415 169.238L315.391 169.501C309.872 169.005 306.809 167.732 304.939 166.098C303.237 164.61 302.537 162.833 301.868 161.133C301.802 160.966 301.737 160.8 301.671 160.635Z" fill="#763216"/>
<path fill-rule="evenodd" clip-rule="evenodd" d="M282.527 162.438C288.243 164.014 291.351 162.589 292.17 161.731L292.362 161.914C291.449 162.871 288.222 164.283 282.457 162.692L282.527 162.438Z" fill="#763216"/>
<path fill-rule="evenodd" clip-rule="evenodd" d="M312.585 162.57C307.492 163.669 303.876 161.699 302.691 160.557L302.875 160.366C303.999 161.45 307.526 163.391 312.529 162.312L312.585 162.57Z" fill="#763216"/>
<path fill-rule="evenodd" clip-rule="evenodd" d="M299.829 165.549C297.289 162.333 296.648 158.333 296.835 155.628L297.099 155.646C296.915 158.303 297.547 162.233 300.037 165.385C302.52 168.529 306.868 170.918 314.156 170.475L314.172 170.739C306.812 171.187 302.375 168.772 299.829 165.549Z" fill="#763216"/>
<path fill-rule="evenodd" clip-rule="evenodd" d="M294.807 166.096C295.493 164.904 295.657 163.564 295.597 162.698L295.86 162.68C295.924 163.587 295.753 164.982 295.036 166.228C294.315 167.481 293.043 168.579 290.922 168.882L290.885 168.62C292.92 168.329 294.124 167.283 294.807 166.096Z" fill="#763216"/>
<path fill-rule="evenodd" clip-rule="evenodd" d="M300.793 162.079C300.697 160.545 299.629 159.272 299.107 158.831L299.278 158.629C299.829 159.095 300.955 160.428 301.057 162.062C301.086 162.521 301.347 163.13 301.833 163.815C302.316 164.496 303.011 165.237 303.885 165.958C305.634 167.4 308.089 168.75 310.974 169.364L310.919 169.623C307.988 168.999 305.495 167.628 303.717 166.162C302.828 165.429 302.116 164.671 301.617 163.968C301.121 163.268 300.826 162.61 300.793 162.079Z" fill="#763216"/>
<path d="M129.435 142.126C131.077 138.743 135.151 137.331 138.534 138.973L155.97 147.435C159.354 149.077 160.765 153.151 159.123 156.535L150.661 173.971C149.019 177.354 144.945 178.766 141.562 177.124L124.126 168.662C120.743 167.019 119.331 162.946 120.973 159.562L129.435 142.126Z" fill="url(#paint0_linear_317_119)"/>
<path d="M136.23 165.257C135.276 164.794 134.471 164.256 133.815 163.643C133.18 163.023 132.677 162.362 132.306 161.662C131.949 160.969 131.72 160.26 131.621 159.536L133.851 158.746C133.907 159.38 134.068 159.995 134.333 160.592C134.605 161.175 134.985 161.714 135.472 162.211C135.959 162.707 136.554 163.126 137.255 163.466C138.209 163.929 139.039 164.132 139.742 164.075C140.467 164.011 140.99 163.649 141.31 162.989C141.493 162.611 141.517 162.206 141.379 161.775C141.248 161.33 140.859 160.846 140.211 160.324L137.485 158.117C136.76 157.539 136.209 156.96 135.832 156.378C135.47 155.804 135.274 155.223 135.247 154.638C135.226 154.038 135.351 153.458 135.624 152.896C135.998 152.125 136.539 151.529 137.245 151.109C137.966 150.696 138.808 150.497 139.771 150.514C140.74 150.516 141.779 150.787 142.888 151.325C144.081 151.904 145.017 152.635 145.697 153.52C146.377 154.405 146.794 155.44 146.948 156.624L144.842 157.318C144.711 156.266 144.401 155.405 143.912 154.734C143.422 154.063 142.722 153.507 141.81 153.064C141.136 152.737 140.538 152.559 140.014 152.531C139.511 152.495 139.08 152.58 138.72 152.786C138.366 152.979 138.101 153.258 137.924 153.623C137.781 153.917 137.708 154.211 137.704 154.504C137.715 154.804 137.837 155.123 138.071 155.462C138.305 155.801 138.686 156.177 139.215 156.589L141.655 158.528C142.816 159.456 143.531 160.34 143.8 161.181C144.068 162.022 143.984 162.892 143.548 163.79C143.146 164.617 142.571 165.231 141.822 165.631C141.08 166.016 140.228 166.183 139.264 166.132C138.308 166.066 137.297 165.775 136.23 165.257ZM134.355 166.87L143.058 148.937L144.742 149.754L136.039 167.687L134.355 166.87Z" fill="white"/>
<path d="M104 145.771C104 142.584 106.584 140 109.771 140H131.524C134.712 140 137.295 142.584 137.295 145.771V167.524C137.295 170.712 134.712 173.295 131.524 173.295H109.771C106.584 173.295 104 170.712 104 167.524V145.771Z" fill="#454E9E"/>
<path fill-rule="evenodd" clip-rule="evenodd" d="M116.159 157.46C115.178 157.46 114.383 156.665 114.383 155.684L114.383 150.663C114.383 146.91 117.426 143.867 121.179 143.867C124.933 143.867 127.976 146.91 127.976 150.663L127.976 155.684C127.976 156.665 127.181 157.46 126.2 157.46C125.219 157.46 124.424 156.665 124.424 155.684L124.424 150.663C124.424 148.871 122.971 147.418 121.179 147.418C119.387 147.418 117.934 148.871 117.934 150.663L117.934 155.684C117.934 156.665 117.139 157.46 116.159 157.46Z" fill="white"/>
<path d="M110.912 153.614C110.977 152.841 111.009 152.454 111.264 152.22C111.518 151.985 111.906 151.985 112.682 151.985H129.144C129.92 151.985 130.308 151.985 130.563 152.22C130.818 152.454 130.85 152.841 130.914 153.614L131.931 165.822C131.969 166.272 131.988 166.497 131.856 166.64C131.724 166.783 131.498 166.783 131.047 166.783H110.78C110.328 166.783 110.102 166.783 109.97 166.64C109.839 166.497 109.857 166.272 109.895 165.822L110.912 153.614Z" fill="white"/>
<defs>
<linearGradient id="paint0_linear_317_119" x1="125.599" y1="164.427" x2="154.404" y2="153.662" gradientUnits="userSpaceOnUse">
<stop stop-color="#018E42"/>
<stop offset="1" stop-color="#E3B93E"/>
</linearGradient>
</defs>
</svg>
