<svg width="324" height="237" viewBox="0 0 324 237" fill="none" xmlns="http://www.w3.org/2000/svg">
<rect width="63" height="63" rx="13" fill="#E0919D"/>
<rect y="87" width="63" height="63" rx="13" fill="#BF1A2F"/>
<rect y="174" width="63" height="63" rx="13" fill="url(#paint0_linear_191_41)"/>
<rect x="87" width="63" height="63" rx="13" fill="url(#paint1_linear_191_41)"/>
<rect x="87" y="87" width="63" height="63" rx="13" fill="#018E42"/>
<rect x="87" y="174" width="63" height="63" rx="13" fill="#E3B93E"/>
<rect x="174" width="63" height="63" rx="13" fill="#E3B93E"/>
<rect x="174" y="87" width="63" height="63" rx="13" fill="#E0919D"/>
<rect x="179" y="174" width="63" height="63" rx="13" fill="url(#paint2_linear_191_41)"/>
<rect x="261" width="63" height="63" rx="13" fill="#018E42"/>
<rect x="261" y="87" width="63" height="63" rx="13" fill="url(#paint3_linear_191_41)"/>
<rect x="261" y="174" width="63" height="63" rx="13" fill="#BF1A2F"/>
<defs>
<linearGradient id="paint0_linear_191_41" x1="12" y1="228.5" x2="52.5" y2="186" gradientUnits="userSpaceOnUse">
<stop stop-color="#018E42"/>
<stop offset="1" stop-color="#E3B93E"/>
</linearGradient>
<linearGradient id="paint1_linear_191_41" x1="118.5" y1="0" x2="118.5" y2="63" gradientUnits="userSpaceOnUse">
<stop stop-color="#018E42"/>
<stop offset="1" stop-color="#E0919D"/>
</linearGradient>
<linearGradient id="paint2_linear_191_41" x1="210.5" y1="174" x2="210.5" y2="237" gradientUnits="userSpaceOnUse">
<stop stop-color="#BF1A2F"/>
<stop offset="1" stop-color="#E0919D"/>
</linearGradient>
<linearGradient id="paint3_linear_191_41" x1="267.5" y1="93" x2="318" y2="146" gradientUnits="userSpaceOnUse">
<stop stop-color="#BF1A2F"/>
<stop offset="1" stop-color="#E3B93E"/>
</linearGradient>
</defs>
</svg>
