<svg width="306" height="60" viewBox="0 0 306 60" fill="none" xmlns="http://www.w3.org/2000/svg">
<rect x="0.5" y="0.5" width="305" height="40" rx="2.5" fill="#D9D9D9" stroke="#8B8B8B"/>
<path d="M41.2053 35.2649L30.1429 38.9524C25.6473 40.4509 23.3995 41.2002 23.3274 42.5608C23.3236 42.6313 23.3236 42.702 23.3274 42.7725C23.3995 44.1332 25.6473 44.8824 30.1429 46.381C31.034 46.678 31.4796 46.8265 31.805 47.1394C31.8239 47.1576 31.8424 47.1761 31.8606 47.195C32.1735 47.5204 32.322 47.966 32.619 48.8571L32.619 48.8571C34.1176 53.3527 34.8668 55.6005 36.2275 55.6726C36.298 55.6764 36.3687 55.6764 36.4392 55.6726C37.7998 55.6005 38.5491 53.3527 40.0476 48.8571L43.7351 37.7947C44.287 36.1389 44.563 35.311 44.126 34.874C43.689 34.437 42.8611 34.713 41.2053 35.2649Z" fill="black" stroke="white" stroke-width="2"/>
<path d="M38.446 27.22C37.434 27.22 36.532 26.9927 35.74 26.538C34.948 26.0833 34.3247 25.4307 33.87 24.58C33.43 23.7147 33.21 22.688 33.21 21.5C33.21 20.312 33.43 19.2927 33.87 18.442C34.3247 17.5767 34.9333 16.9167 35.696 16.462C36.4587 16.0073 37.3313 15.78 38.314 15.78C39.3113 15.78 40.162 16 40.866 16.44C41.57 16.88 42.1127 17.496 42.494 18.288C42.8753 19.0653 43.066 19.9673 43.066 20.994C43.066 21.126 43.0587 21.258 43.044 21.39C43.044 21.5073 43.0367 21.6173 43.022 21.72H33.892V20.73H42.538L41.988 20.884C41.9733 19.6227 41.636 18.618 40.976 17.87C40.3307 17.122 39.436 16.748 38.292 16.748C37.5 16.748 36.8033 16.9387 36.202 17.32C35.6007 17.6867 35.1313 18.2293 34.794 18.948C34.4567 19.652 34.288 20.5027 34.288 21.5C34.288 22.4827 34.4567 23.3333 34.794 24.052C35.146 24.7707 35.63 25.3207 36.246 25.702C36.8767 26.0687 37.6027 26.252 38.424 26.252C39.2747 26.252 40.0007 26.0687 40.602 25.702C41.218 25.3353 41.6947 24.8293 42.032 24.184L42.912 24.69C42.648 25.218 42.296 25.6727 41.856 26.054C41.416 26.4207 40.91 26.7067 40.338 26.912C39.766 27.1173 39.1353 27.22 38.446 27.22ZM46.4339 16L50.1079 20.774L50.2179 20.928L54.8819 27H53.4959L49.5359 21.874L49.4039 21.698L45.0259 16H46.4339ZM54.5519 16L50.2839 21.61L50.1519 21.698L46.1259 27H44.8059L49.5139 20.906L49.6019 20.862L53.2319 16H54.5519ZM64.322 19.762C64.322 18.8087 64.0653 18.068 63.552 17.54C63.0386 17.012 62.3053 16.748 61.352 16.748C60.516 16.748 59.7973 16.9313 59.196 17.298C58.5946 17.65 58.1473 18.244 57.854 19.08L56.952 18.508C57.2746 17.6427 57.81 16.9753 58.558 16.506C59.3206 16.022 60.2593 15.78 61.374 15.78C62.1806 15.78 62.8846 15.9267 63.486 16.22C64.102 16.4987 64.5786 16.9167 64.916 17.474C65.2533 18.0313 65.422 18.728 65.422 19.564V25.064C65.422 25.8413 65.774 26.23 66.478 26.23C66.786 26.23 67.05 26.1787 67.27 26.076L67.204 26.956C66.9546 27.088 66.632 27.154 66.236 27.154C65.8986 27.154 65.5833 27.088 65.29 26.956C64.9966 26.824 64.7546 26.604 64.564 26.296C64.388 25.988 64.3 25.57 64.3 25.042V24.448L64.608 24.426C64.476 25.0567 64.1826 25.5847 63.728 26.01C63.288 26.4207 62.7746 26.7287 62.188 26.934C61.6013 27.1247 61.0146 27.22 60.428 27.22C59.7386 27.22 59.1226 27.11 58.58 26.89C58.0373 26.67 57.612 26.3547 57.304 25.944C56.996 25.5187 56.842 24.998 56.842 24.382C56.842 23.5607 57.1133 22.9007 57.656 22.402C58.2133 21.8887 58.9906 21.5367 59.988 21.346L64.542 20.444V21.368L60.538 22.16C59.6726 22.336 59.0273 22.5927 58.602 22.93C58.1766 23.2673 57.964 23.7293 57.964 24.316C57.964 24.9173 58.1913 25.394 58.646 25.746C59.1006 26.0833 59.746 26.252 60.582 26.252C61.0073 26.252 61.44 26.1933 61.88 26.076C62.32 25.9587 62.7233 25.7753 63.09 25.526C63.4713 25.262 63.772 24.9393 63.992 24.558C64.212 24.162 64.322 23.6853 64.322 23.128V19.762ZM69.9753 27V16H70.9653L71.0313 18.288C71.3539 17.496 71.8746 16.88 72.5933 16.44C73.3266 16 74.1406 15.78 75.0353 15.78C75.9886 15.78 76.8099 16.0073 77.4993 16.462C78.2033 16.9167 78.6873 17.584 78.9513 18.464C79.1419 17.9067 79.4499 17.43 79.8753 17.034C80.3006 16.6233 80.7993 16.308 81.3713 16.088C81.9433 15.868 82.5373 15.758 83.1533 15.758C83.9159 15.758 84.6053 15.912 85.2213 16.22C85.8519 16.5133 86.3506 16.968 86.7173 17.584C87.0986 18.1853 87.2893 18.9407 87.2893 19.85V26.978H86.1893V19.96C86.1893 18.8747 85.8959 18.068 85.3093 17.54C84.7373 16.9973 83.9746 16.726 83.0213 16.726C82.3319 16.726 81.6939 16.8947 81.1073 17.232C80.5206 17.5547 80.0513 18.0167 79.6993 18.618C79.3619 19.2047 79.1933 19.8867 79.1933 20.664V27H78.0933V19.982C78.0933 18.8967 77.7999 18.09 77.2133 17.562C76.6266 17.0193 75.8639 16.748 74.9253 16.748C74.2653 16.748 73.6419 16.9093 73.0553 17.232C72.4686 17.5547 71.9919 18.0167 71.6253 18.618C71.2586 19.2193 71.0753 19.938 71.0753 20.774V27H69.9753ZM91.5344 31.62V16H92.5244L92.6124 19.058L92.4584 18.882C92.6491 18.2513 92.9424 17.7013 93.3384 17.232C93.7491 16.7627 94.2477 16.4033 94.8344 16.154C95.4211 15.9047 96.0591 15.78 96.7484 15.78C97.6871 15.78 98.5304 16.0073 99.2784 16.462C100.026 16.9167 100.62 17.5693 101.06 18.42C101.5 19.2707 101.72 20.2973 101.72 21.5C101.72 22.688 101.5 23.7147 101.06 24.58C100.62 25.4307 100.019 26.0833 99.2564 26.538C98.5084 26.9927 97.6577 27.22 96.7044 27.22C95.6924 27.22 94.8124 26.956 94.0644 26.428C93.3164 25.8853 92.7957 25.1593 92.5024 24.25L92.6344 24.052V31.62H91.5344ZM96.5724 26.252C97.8191 26.252 98.8017 25.8267 99.5204 24.976C100.254 24.1253 100.62 22.9667 100.62 21.5C100.62 20.0333 100.261 18.8747 99.5424 18.024C98.8237 17.1733 97.8484 16.748 96.6164 16.748C95.8391 16.748 95.1497 16.946 94.5484 17.342C93.9617 17.7233 93.4924 18.2733 93.1404 18.992C92.8031 19.696 92.6344 20.532 92.6344 21.5C92.6344 22.4533 92.8031 23.2893 93.1404 24.008C93.4777 24.7267 93.9397 25.284 94.5264 25.68C95.1277 26.0613 95.8097 26.252 96.5724 26.252ZM106.35 10.94V24.404C106.35 25.0787 106.467 25.5553 106.702 25.834C106.936 26.1127 107.303 26.252 107.802 26.252C108.11 26.252 108.352 26.23 108.528 26.186C108.718 26.142 108.938 26.0687 109.188 25.966L109.034 26.934C108.843 27.022 108.623 27.088 108.374 27.132C108.139 27.1907 107.875 27.22 107.582 27.22C106.804 27.22 106.218 27 105.822 26.56C105.44 26.1053 105.25 25.4013 105.25 24.448V10.94H106.35ZM116.217 27.22C115.205 27.22 114.303 26.9927 113.511 26.538C112.719 26.0833 112.096 25.4307 111.641 24.58C111.201 23.7147 110.981 22.688 110.981 21.5C110.981 20.312 111.201 19.2927 111.641 18.442C112.096 17.5767 112.704 16.9167 113.467 16.462C114.23 16.0073 115.102 15.78 116.085 15.78C117.082 15.78 117.933 16 118.637 16.44C119.341 16.88 119.884 17.496 120.265 18.288C120.646 19.0653 120.837 19.9673 120.837 20.994C120.837 21.126 120.83 21.258 120.815 21.39C120.815 21.5073 120.808 21.6173 120.793 21.72H111.663V20.73H120.309L119.759 20.884C119.744 19.6227 119.407 18.618 118.747 17.87C118.102 17.122 117.207 16.748 116.063 16.748C115.271 16.748 114.574 16.9387 113.973 17.32C113.372 17.6867 112.902 18.2293 112.565 18.948C112.228 19.652 112.059 20.5027 112.059 21.5C112.059 22.4827 112.228 23.3333 112.565 24.052C112.917 24.7707 113.401 25.3207 114.017 25.702C114.648 26.0687 115.374 26.252 116.195 26.252C117.046 26.252 117.772 26.0687 118.373 25.702C118.989 25.3353 119.466 24.8293 119.803 24.184L120.683 24.69C120.419 25.218 120.067 25.6727 119.627 26.054C119.187 26.4207 118.681 26.7067 118.109 26.912C117.537 27.1173 116.906 27.22 116.217 27.22ZM132.995 31.048C131.631 31.048 130.384 30.8353 129.255 30.41C128.14 29.9993 127.18 29.398 126.373 28.606C125.581 27.8287 124.972 26.89 124.547 25.79C124.122 24.69 123.909 23.458 123.909 22.094C123.909 20.6127 124.144 19.2927 124.613 18.134C125.097 16.9607 125.764 15.9633 126.615 15.142C127.48 14.306 128.478 13.6753 129.607 13.25C130.736 12.81 131.954 12.59 133.259 12.59C134.652 12.59 135.87 12.8173 136.911 13.272C137.967 13.7267 138.847 14.35 139.551 15.142C140.255 15.9193 140.783 16.8067 141.135 17.804C141.502 18.8013 141.685 19.8427 141.685 20.928C141.685 21.808 141.575 22.6293 141.355 23.392C141.135 24.14 140.827 24.7927 140.431 25.35C140.05 25.8927 139.602 26.318 139.089 26.626C138.59 26.9193 138.062 27.066 137.505 27.066C136.757 27.066 136.207 26.846 135.855 26.406C135.518 25.9513 135.386 25.4013 135.459 24.756C135.122 25.3867 134.638 25.9 134.007 26.296C133.376 26.692 132.665 26.89 131.873 26.89C131.081 26.89 130.392 26.6993 129.805 26.318C129.233 25.9367 128.786 25.416 128.463 24.756C128.155 24.096 128.001 23.348 128.001 22.512C128.001 21.6907 128.126 20.928 128.375 20.224C128.624 19.52 128.969 18.904 129.409 18.376C129.849 17.8333 130.37 17.4153 130.971 17.122C131.572 16.8287 132.232 16.682 132.951 16.682C133.611 16.682 134.19 16.814 134.689 17.078C135.188 17.3273 135.584 17.694 135.877 18.178C136.185 18.662 136.368 19.234 136.427 19.894L137.131 16.88H138.121L136.427 24.118C136.398 24.2647 136.368 24.4113 136.339 24.558C136.324 24.69 136.317 24.822 136.317 24.954C136.317 25.4673 136.456 25.8193 136.735 26.01C137.014 26.186 137.307 26.274 137.615 26.274C138.187 26.274 138.715 26.054 139.199 25.614C139.683 25.174 140.072 24.5507 140.365 23.744C140.673 22.9373 140.827 22.006 140.827 20.95C140.827 19.938 140.658 18.9847 140.321 18.09C139.998 17.1807 139.514 16.374 138.869 15.67C138.238 14.966 137.454 14.416 136.515 14.02C135.591 13.624 134.52 13.426 133.303 13.426C132.115 13.426 131.008 13.624 129.981 14.02C128.969 14.4013 128.074 14.966 127.297 15.714C126.534 16.4473 125.933 17.3567 125.493 18.442C125.068 19.5127 124.855 20.73 124.855 22.094C124.855 23.3553 125.053 24.4847 125.449 25.482C125.845 26.4793 126.402 27.33 127.121 28.034C127.854 28.738 128.72 29.2733 129.717 29.64C130.714 30.0213 131.807 30.212 132.995 30.212C134.139 30.212 135.129 30.0507 135.965 29.728C136.816 29.4053 137.512 29.0167 138.055 28.562L138.561 29.266C138.15 29.6033 137.674 29.904 137.131 30.168C136.588 30.432 135.972 30.6447 135.283 30.806C134.608 30.9673 133.846 31.048 132.995 31.048ZM132.093 26.032C132.841 26.032 133.508 25.812 134.095 25.372C134.682 24.932 135.136 24.3307 135.459 23.568C135.796 22.8053 135.965 21.94 135.965 20.972C135.965 20.2093 135.833 19.5787 135.569 19.08C135.32 18.5667 134.968 18.1853 134.513 17.936C134.073 17.6867 133.567 17.562 132.995 17.562C132.438 17.562 131.917 17.6867 131.433 17.936C130.949 18.1853 130.524 18.53 130.157 18.97C129.79 19.41 129.504 19.9307 129.299 20.532C129.094 21.1187 128.991 21.7713 128.991 22.49C128.991 23.2233 129.123 23.854 129.387 24.382C129.651 24.91 130.018 25.3207 130.487 25.614C130.956 25.8927 131.492 26.032 132.093 26.032ZM149.796 27.22C148.784 27.22 147.882 26.9927 147.09 26.538C146.298 26.0833 145.675 25.4307 145.22 24.58C144.78 23.7147 144.56 22.688 144.56 21.5C144.56 20.312 144.78 19.2927 145.22 18.442C145.675 17.5767 146.283 16.9167 147.046 16.462C147.809 16.0073 148.681 15.78 149.664 15.78C150.661 15.78 151.512 16 152.216 16.44C152.92 16.88 153.463 17.496 153.844 18.288C154.225 19.0653 154.416 19.9673 154.416 20.994C154.416 21.126 154.409 21.258 154.394 21.39C154.394 21.5073 154.387 21.6173 154.372 21.72H145.242V20.73H153.888L153.338 20.884C153.323 19.6227 152.986 18.618 152.326 17.87C151.681 17.122 150.786 16.748 149.642 16.748C148.85 16.748 148.153 16.9387 147.552 17.32C146.951 17.6867 146.481 18.2293 146.144 18.948C145.807 19.652 145.638 20.5027 145.638 21.5C145.638 22.4827 145.807 23.3333 146.144 24.052C146.496 24.7707 146.98 25.3207 147.596 25.702C148.227 26.0687 148.953 26.252 149.774 26.252C150.625 26.252 151.351 26.0687 151.952 25.702C152.568 25.3353 153.045 24.8293 153.382 24.184L154.262 24.69C153.998 25.218 153.646 25.6727 153.206 26.054C152.766 26.4207 152.26 26.7067 151.688 26.912C151.116 27.1173 150.485 27.22 149.796 27.22ZM157.994 27V16H158.984L159.05 18.288C159.373 17.496 159.894 16.88 160.612 16.44C161.346 16 162.16 15.78 163.054 15.78C164.008 15.78 164.829 16.0073 165.518 16.462C166.222 16.9167 166.706 17.584 166.97 18.464C167.161 17.9067 167.469 17.43 167.894 17.034C168.32 16.6233 168.818 16.308 169.39 16.088C169.962 15.868 170.556 15.758 171.172 15.758C171.935 15.758 172.624 15.912 173.24 16.22C173.871 16.5133 174.37 16.968 174.736 17.584C175.118 18.1853 175.308 18.9407 175.308 19.85V26.978H174.208V19.96C174.208 18.8747 173.915 18.068 173.328 17.54C172.756 16.9973 171.994 16.726 171.04 16.726C170.351 16.726 169.713 16.8947 169.126 17.232C168.54 17.5547 168.07 18.0167 167.718 18.618C167.381 19.2047 167.212 19.8867 167.212 20.664V27H166.112V19.982C166.112 18.8967 165.819 18.09 165.232 17.562C164.646 17.0193 163.883 16.748 162.944 16.748C162.284 16.748 161.661 16.9093 161.074 17.232C160.488 17.5547 160.011 18.0167 159.644 18.618C159.278 19.2193 159.094 19.938 159.094 20.774V27H157.994ZM186.285 19.762C186.285 18.8087 186.029 18.068 185.515 17.54C185.002 17.012 184.269 16.748 183.315 16.748C182.479 16.748 181.761 16.9313 181.159 17.298C180.558 17.65 180.111 18.244 179.817 19.08L178.915 18.508C179.238 17.6427 179.773 16.9753 180.521 16.506C181.284 16.022 182.223 15.78 183.337 15.78C184.144 15.78 184.848 15.9267 185.449 16.22C186.065 16.4987 186.542 16.9167 186.879 17.474C187.217 18.0313 187.385 18.728 187.385 19.564V25.064C187.385 25.8413 187.737 26.23 188.441 26.23C188.749 26.23 189.013 26.1787 189.233 26.076L189.167 26.956C188.918 27.088 188.595 27.154 188.199 27.154C187.862 27.154 187.547 27.088 187.253 26.956C186.96 26.824 186.718 26.604 186.527 26.296C186.351 25.988 186.263 25.57 186.263 25.042V24.448L186.571 24.426C186.439 25.0567 186.146 25.5847 185.691 26.01C185.251 26.4207 184.738 26.7287 184.151 26.934C183.565 27.1247 182.978 27.22 182.391 27.22C181.702 27.22 181.086 27.11 180.543 26.89C180.001 26.67 179.575 26.3547 179.267 25.944C178.959 25.5187 178.805 24.998 178.805 24.382C178.805 23.5607 179.077 22.9007 179.619 22.402C180.177 21.8887 180.954 21.5367 181.951 21.346L186.505 20.444V21.368L182.501 22.16C181.636 22.336 180.991 22.5927 180.565 22.93C180.14 23.2673 179.927 23.7293 179.927 24.316C179.927 24.9173 180.155 25.394 180.609 25.746C181.064 26.0833 181.709 26.252 182.545 26.252C182.971 26.252 183.403 26.1933 183.843 26.076C184.283 25.9587 184.687 25.7753 185.053 25.526C185.435 25.262 185.735 24.9393 185.955 24.558C186.175 24.162 186.285 23.6853 186.285 23.128V19.762ZM192.489 13.866C192.21 13.866 191.983 13.7853 191.807 13.624C191.645 13.448 191.565 13.2207 191.565 12.942C191.565 12.6633 191.645 12.4433 191.807 12.282C191.983 12.106 192.21 12.018 192.489 12.018C192.767 12.018 192.987 12.106 193.149 12.282C193.325 12.4433 193.413 12.6633 193.413 12.942C193.413 13.2207 193.325 13.448 193.149 13.624C192.987 13.7853 192.767 13.866 192.489 13.866ZM193.039 16V27H191.939V16H193.039ZM198.396 10.94V24.404C198.396 25.0787 198.514 25.5553 198.748 25.834C198.983 26.1127 199.35 26.252 199.848 26.252C200.156 26.252 200.398 26.23 200.574 26.186C200.765 26.142 200.985 26.0687 201.234 25.966L201.08 26.934C200.89 27.022 200.67 27.088 200.42 27.132C200.186 27.1907 199.922 27.22 199.628 27.22C198.851 27.22 198.264 27 197.868 26.56C197.487 26.1053 197.296 25.4013 197.296 24.448V10.94H198.396ZM204.324 25.196C204.617 25.196 204.852 25.2913 205.028 25.482C205.218 25.658 205.314 25.8927 205.314 26.186C205.314 26.4793 205.218 26.7213 205.028 26.912C204.852 27.088 204.617 27.176 204.324 27.176C204.03 27.176 203.788 27.088 203.598 26.912C203.422 26.7213 203.334 26.4793 203.334 26.186C203.334 25.8927 203.422 25.658 203.598 25.482C203.788 25.2913 204.03 25.196 204.324 25.196ZM213.128 15.78C213.876 15.78 214.544 15.8973 215.13 16.132C215.717 16.3667 216.216 16.704 216.626 17.144C217.037 17.584 217.352 18.1193 217.572 18.75L216.538 19.234C216.304 18.442 215.893 17.8333 215.306 17.408C214.734 16.968 214.001 16.748 213.106 16.748C212.3 16.748 211.588 16.9387 210.972 17.32C210.356 17.6867 209.88 18.2293 209.542 18.948C209.205 19.652 209.036 20.5027 209.036 21.5C209.036 22.4827 209.205 23.3333 209.542 24.052C209.88 24.7707 210.349 25.3207 210.95 25.702C211.552 26.0687 212.263 26.252 213.084 26.252C213.7 26.252 214.258 26.1493 214.756 25.944C215.27 25.7387 215.688 25.438 216.01 25.042C216.348 24.646 216.568 24.1767 216.67 23.634L217.682 23.986C217.492 24.6607 217.176 25.24 216.736 25.724C216.311 26.208 215.79 26.582 215.174 26.846C214.558 27.0953 213.869 27.22 213.106 27.22C212.109 27.22 211.214 26.9927 210.422 26.538C209.645 26.0833 209.036 25.4307 208.596 24.58C208.156 23.7147 207.936 22.688 207.936 21.5C207.936 20.312 208.156 19.2927 208.596 18.442C209.051 17.5767 209.667 16.9167 210.444 16.462C211.236 16.0073 212.131 15.78 213.128 15.78ZM225.558 15.78C226.584 15.78 227.486 16.0073 228.264 16.462C229.056 16.9167 229.672 17.5767 230.112 18.442C230.566 19.2927 230.794 20.312 230.794 21.5C230.794 22.688 230.566 23.7147 230.112 24.58C229.672 25.4307 229.056 26.0833 228.264 26.538C227.486 26.9927 226.584 27.22 225.558 27.22C224.531 27.22 223.622 26.9927 222.83 26.538C222.052 26.0833 221.436 25.4307 220.982 24.58C220.542 23.7147 220.322 22.688 220.322 21.5C220.322 20.312 220.542 19.2927 220.982 18.442C221.436 17.5767 222.052 16.9167 222.83 16.462C223.622 16.0073 224.531 15.78 225.558 15.78ZM225.558 16.726C224.722 16.726 223.996 16.9167 223.38 17.298C222.764 17.6793 222.28 18.2293 221.928 18.948C221.59 19.652 221.422 20.5027 221.422 21.5C221.422 22.4827 221.59 23.3333 221.928 24.052C222.28 24.7707 222.764 25.3207 223.38 25.702C223.996 26.0833 224.722 26.274 225.558 26.274C226.394 26.274 227.12 26.0833 227.736 25.702C228.352 25.3207 228.828 24.7707 229.166 24.052C229.518 23.3333 229.694 22.4827 229.694 21.5C229.694 20.5027 229.518 19.652 229.166 18.948C228.828 18.2293 228.352 17.6793 227.736 17.298C227.12 16.9167 226.394 16.726 225.558 16.726ZM234.379 27V16H235.369L235.435 18.288C235.758 17.496 236.278 16.88 236.997 16.44C237.73 16 238.544 15.78 239.439 15.78C240.392 15.78 241.214 16.0073 241.903 16.462C242.607 16.9167 243.091 17.584 243.355 18.464C243.546 17.9067 243.854 17.43 244.279 17.034C244.704 16.6233 245.203 16.308 245.775 16.088C246.347 15.868 246.941 15.758 247.557 15.758C248.32 15.758 249.009 15.912 249.625 16.22C250.256 16.5133 250.754 16.968 251.121 17.584C251.502 18.1853 251.693 18.9407 251.693 19.85V26.978H250.593V19.96C250.593 18.8747 250.3 18.068 249.713 17.54C249.141 16.9973 248.378 16.726 247.425 16.726C246.736 16.726 246.098 16.8947 245.511 17.232C244.924 17.5547 244.455 18.0167 244.103 18.618C243.766 19.2047 243.597 19.8867 243.597 20.664V27H242.497V19.982C242.497 18.8967 242.204 18.09 241.617 17.562C241.03 17.0193 240.268 16.748 239.329 16.748C238.669 16.748 238.046 16.9093 237.459 17.232C236.872 17.5547 236.396 18.0167 236.029 18.618C235.662 19.2193 235.479 19.938 235.479 20.774V27H234.379Z" fill="#8B8B8B"/>
</svg>
