<svg width="307" height="262" viewBox="0 0 307 262" fill="none" xmlns="http://www.w3.org/2000/svg">
<path d="M123 78L143 101.5H217L192 154.5L240 194" stroke="black" stroke-width="4" stroke-dasharray="8 8"/>
<path d="M4 40.0435C46 1.04346 87.5 -18.7565 163.5 40.0435C136 75.7102 65.6 125.644 4 40.0435Z" fill="#D9D9D9" stroke="black" stroke-width="6"/>
<circle cx="90.5" cy="45.0435" r="29.5" fill="#018E42" stroke="black" stroke-width="6"/>
<circle cx="98.5" cy="50.0435" r="18.5" fill="black"/>
<rect x="232" y="187" width="75" height="75" rx="13" fill="#454E9E"/>
<path d="M259.381 222.333L259.381 211.024C259.381 204.778 264.444 199.714 270.69 199.714V199.714C276.936 199.714 282 204.778 282 211.024L282 222.333" stroke="white" stroke-width="8" stroke-linecap="round"/>
<path d="M247.568 217.668C247.713 215.927 247.785 215.056 248.36 214.528C248.934 214 249.807 214 251.554 214H288.637C290.384 214 291.258 214 291.832 214.528C292.406 215.056 292.479 215.927 292.624 217.668L294.915 245.167C295 246.181 295.042 246.688 294.745 247.01C294.448 247.333 293.939 247.333 292.922 247.333H247.269C246.252 247.333 245.744 247.333 245.447 247.01C245.15 246.688 245.192 246.181 245.276 245.167L247.568 217.668Z" fill="white"/>
</svg>
