<svg width="369" height="355" viewBox="0 0 369 355" fill="none" xmlns="http://www.w3.org/2000/svg">
<path d="M62 40L102.5 37L168.5 99L259 18L308 78L221 159.5L133.5 144L162 55L62 86L75 124L162 179L211.5 128.5L324 155L296.5 212L243 195.5L229.5 99L162 128.5L88.5 206.5L277 238.5L206.5 179L85 305.5L55 206.5L4 144L52.5 125.5L65.5 184.5L109.5 252L308 295L182.5 311L259 243L91.5 311" stroke="black" stroke-width="4" stroke-dasharray="8 8"/>
<path d="M36.5 27.4843C65.4655 0.653985 94.0862 -12.9675 146.5 27.4843C127.534 52.0214 78.9828 86.3734 36.5 27.4843Z" fill="#D9D9D9" stroke="black" stroke-width="4"/>
<path d="M278.5 157.212C301.409 135.932 324.045 125.129 365.5 157.212C350.5 176.672 312.1 203.917 278.5 157.212Z" fill="#D9D9D9" stroke="black" stroke-width="4"/>
<path d="M244.5 64.4843C273.466 37.654 302.086 24.0325 354.5 64.4843C335.534 89.0214 286.983 123.373 244.5 64.4843Z" fill="#D9D9D9" stroke="black" stroke-width="4"/>
<path d="M36.5 123.5C53.0893 108.234 69.4812 100.484 99.5 123.5C88.6379 137.46 60.831 157.006 36.5 123.5Z" fill="#D9D9D9" stroke="black" stroke-width="4"/>
<path d="M241.5 230.5C258.089 215.234 274.481 207.484 304.5 230.5C293.638 244.46 265.831 264.006 241.5 230.5Z" fill="#D9D9D9" stroke="black" stroke-width="4"/>
<path d="M26.5 200.484C55.4655 173.654 84.0862 160.032 136.5 200.484C117.534 225.021 68.9828 259.373 26.5 200.484Z" fill="#D9D9D9" stroke="black" stroke-width="4"/>
<path d="M244.121 327.333C254.262 289.175 271.171 262.365 337.09 268.539C334.176 299.414 311.502 354.398 244.121 327.333Z" fill="#D9D9D9" stroke="black" stroke-width="4"/>
<path d="M50.1678 288.094C73.0268 282.92 91.7817 284.43 106.686 320.796C89.6465 327.765 54.4879 330.981 50.1678 288.094Z" fill="#D9D9D9" stroke="black" stroke-width="4"/>
<path d="M116.5 31C116.5 42.0036 107.364 51 96 51C84.6356 51 75.5 42.0036 75.5 31C75.5 19.9964 84.6356 11 96 11C107.364 11 116.5 19.9964 116.5 31Z" fill="#018E42" stroke="black" stroke-width="4"/>
<path d="M341.5 160C341.5 168.178 334.446 175 325.5 175C316.554 175 309.5 168.178 309.5 160C309.5 151.822 316.554 145 325.5 145C334.446 145 341.5 151.822 341.5 160Z" fill="#018E42" stroke="black" stroke-width="4"/>
<path d="M324.5 68C324.5 79.0036 315.364 88 304 88C292.636 88 283.5 79.0036 283.5 68C283.5 56.9964 292.636 48 304 48C315.364 48 324.5 56.9964 324.5 68Z" fill="#454E9E" stroke="black" stroke-width="4"/>
<path d="M81.5 125.5C81.5 131.226 76.6498 136 70.5 136C64.3502 136 59.5 131.226 59.5 125.5C59.5 119.774 64.3502 115 70.5 115C76.6498 115 81.5 119.774 81.5 125.5Z" fill="#E3B93E" stroke="black" stroke-width="4"/>
<path d="M286.5 232.5C286.5 238.226 281.65 243 275.5 243C269.35 243 264.5 238.226 264.5 232.5C264.5 226.774 269.35 222 275.5 222C281.65 222 286.5 226.774 286.5 232.5Z" fill="#E0919D" stroke="black" stroke-width="4"/>
<path d="M106.5 204C106.5 215.004 97.3644 224 86 224C74.6356 224 65.5 215.004 65.5 204C65.5 192.996 74.6356 184 86 184C97.3644 184 106.5 192.996 106.5 204Z" fill="#E0919D" stroke="black" stroke-width="4"/>
<path d="M313.613 287.545C319.494 296.845 316.582 309.332 306.977 315.406C297.372 321.48 284.842 318.759 278.961 309.459C273.08 300.16 275.992 287.673 285.597 281.599C295.202 275.525 307.732 278.246 313.613 287.545Z" fill="#E3B93E" stroke="black" stroke-width="4"/>
<path d="M89.5213 313.276C86.4833 318.526 79.6185 320.323 74.153 317.161C68.6875 313.999 66.8245 307.151 69.8625 301.901C72.9004 296.651 79.7652 294.853 85.2307 298.016C90.6962 301.178 92.5592 308.026 89.5213 313.276Z" fill="#454E9E" stroke="black" stroke-width="4"/>
<ellipse cx="101.5" cy="34.5" rx="13" ry="12.5" fill="black"/>
<ellipse cx="322" cy="163" rx="10.5" ry="10" fill="black"/>
<ellipse cx="299.5" cy="72.5" rx="13" ry="12.5" fill="black"/>
<ellipse cx="73" cy="129" rx="7.5" ry="7" fill="black"/>
<ellipse cx="273" cy="230" rx="7.5" ry="7" fill="black"/>
<ellipse cx="88.5" cy="198.5" rx="13" ry="12.5" fill="black"/>
<ellipse cx="295.461" cy="292.518" rx="13" ry="12.5" transform="rotate(-32.3092 295.461 292.518)" fill="black"/>
<ellipse cx="82.6116" cy="305.507" rx="7.71696" ry="7.42016" transform="rotate(30.0546 82.6116 305.507)" fill="black"/>
</svg>
