<svg width="390" height="507" viewBox="0 0 390 507" fill="none" xmlns="http://www.w3.org/2000/svg">
<rect x="-43" y="152" width="143" height="279" rx="18" fill="#BF1A2F"/>
<rect x="123" y="302" width="143" height="188" rx="18" fill="#E3B93E"/>
<rect x="289" width="143" height="188" rx="18" fill="#BF1A2F"/>
<rect x="123" width="143" height="279" rx="18" fill="#454E9E"/>
<rect x="289" y="217" width="143" height="239" rx="18" fill="#018E42"/>
<rect x="-43" y="2" width="143" height="127" rx="18" fill="#E3B93E"/>
<path d="M95.3842 485.461L102.603 487.868C103.534 488.178 103.999 488.333 104.333 488.667C104.667 489.001 104.822 489.466 105.132 490.397L107.539 497.616C109.107 502.322 109.892 504.675 111.333 504.675C112.775 504.675 113.559 502.322 115.128 497.616L123.735 471.795C124.287 470.139 124.563 469.311 124.126 468.874C123.689 468.437 122.861 468.713 121.205 469.265L95.3842 477.872C90.6778 479.441 88.3246 480.225 88.3246 481.667C88.3246 483.108 90.6778 483.893 95.3842 485.461Z" fill="black" stroke="white" stroke-width="3"/>
</svg>
